%FSLAX45Y45*%
G04 Gerber Fmt 4.5, Leading zero omitted, Abs format (unit mm)*
G04 Created by KiCad (PCBNEW 6.0.4-6f826c9f35~116~ubuntu20.04.1) date 2022-03-30 16:20:47*
%MOMM*%
%LPD*%
G01*
G04 APERTURE LIST*
%TA.AperFunction,Profile*%
%ADD10C,0.100000*%
%TD*%
%ADD11C,0.200000*%
%ADD12C,0.050000*%
G04 APERTURE END LIST*
D10*
X22820000Y-8939500D02*
X2168000Y-8940000D01*
X2168000Y-9395000D02*
X22820000Y-9394500D01*
X22820000Y-8939500D02*
X22820000Y-9394500D01*
X2168000Y-8940000D02*
X2168000Y-9395000D01*
D11*
D12*
X5719048Y-9110000D02*
X5769048Y-9160000D01*
X5769048Y-9110000D02*
X5719048Y-9160000D01*
X10219048Y-9110000D02*
X10269048Y-9160000D01*
X10269048Y-9110000D02*
X10219048Y-9160000D01*
X14719048Y-9110000D02*
X14769048Y-9160000D01*
X14769048Y-9110000D02*
X14719048Y-9160000D01*
X19219048Y-9110000D02*
X19269048Y-9160000D01*
X19269048Y-9110000D02*
X19219048Y-9160000D01*
D11*
X2420619Y-9710476D02*
X2420619Y-9510476D01*
X2468238Y-9510476D01*
X2496810Y-9520000D01*
X2515857Y-9539048D01*
X2525381Y-9558095D01*
X2534905Y-9596190D01*
X2534905Y-9624762D01*
X2525381Y-9662857D01*
X2515857Y-9681905D01*
X2496810Y-9700952D01*
X2468238Y-9710476D01*
X2420619Y-9710476D01*
X2620619Y-9710476D02*
X2620619Y-9577143D01*
X2620619Y-9615238D02*
X2630143Y-9596190D01*
X2639667Y-9586667D01*
X2658714Y-9577143D01*
X2677762Y-9577143D01*
X2744429Y-9710476D02*
X2744429Y-9577143D01*
X2744429Y-9510476D02*
X2734905Y-9520000D01*
X2744429Y-9529524D01*
X2753952Y-9520000D01*
X2744429Y-9510476D01*
X2744429Y-9529524D01*
X2868238Y-9710476D02*
X2849190Y-9700952D01*
X2839667Y-9681905D01*
X2839667Y-9510476D01*
X2973000Y-9710476D02*
X2953952Y-9700952D01*
X2944428Y-9681905D01*
X2944428Y-9510476D01*
X3201571Y-9710476D02*
X3201571Y-9510476D01*
X3268238Y-9653333D01*
X3334905Y-9510476D01*
X3334905Y-9710476D01*
X3515857Y-9710476D02*
X3515857Y-9605714D01*
X3506333Y-9586667D01*
X3487286Y-9577143D01*
X3449190Y-9577143D01*
X3430143Y-9586667D01*
X3515857Y-9700952D02*
X3496809Y-9710476D01*
X3449190Y-9710476D01*
X3430143Y-9700952D01*
X3420619Y-9681905D01*
X3420619Y-9662857D01*
X3430143Y-9643810D01*
X3449190Y-9634286D01*
X3496809Y-9634286D01*
X3515857Y-9624762D01*
X3611095Y-9577143D02*
X3611095Y-9777143D01*
X3611095Y-9586667D02*
X3630143Y-9577143D01*
X3668238Y-9577143D01*
X3687286Y-9586667D01*
X3696809Y-9596190D01*
X3706333Y-9615238D01*
X3706333Y-9672381D01*
X3696809Y-9691429D01*
X3687286Y-9700952D01*
X3668238Y-9710476D01*
X3630143Y-9710476D01*
X3611095Y-9700952D01*
X3792048Y-9691429D02*
X3801571Y-9700952D01*
X3792048Y-9710476D01*
X3782524Y-9700952D01*
X3792048Y-9691429D01*
X3792048Y-9710476D01*
X3792048Y-9586667D02*
X3801571Y-9596190D01*
X3792048Y-9605714D01*
X3782524Y-9596190D01*
X3792048Y-9586667D01*
X3792048Y-9605714D01*
D12*
X2113000Y-10015000D02*
X2163000Y-10065000D01*
X2163000Y-10015000D02*
X2113000Y-10065000D01*
D11*
X2458714Y-9930476D02*
X2477762Y-9930476D01*
X2496810Y-9940000D01*
X2506333Y-9949524D01*
X2515857Y-9968571D01*
X2525381Y-10006667D01*
X2525381Y-10054286D01*
X2515857Y-10092381D01*
X2506333Y-10111429D01*
X2496810Y-10120952D01*
X2477762Y-10130476D01*
X2458714Y-10130476D01*
X2439667Y-10120952D01*
X2430143Y-10111429D01*
X2420619Y-10092381D01*
X2411095Y-10054286D01*
X2411095Y-10006667D01*
X2420619Y-9968571D01*
X2430143Y-9949524D01*
X2439667Y-9940000D01*
X2458714Y-9930476D01*
X2611095Y-10111429D02*
X2620619Y-10120952D01*
X2611095Y-10130476D01*
X2601571Y-10120952D01*
X2611095Y-10111429D01*
X2611095Y-10130476D01*
X2801571Y-9930476D02*
X2706333Y-9930476D01*
X2696810Y-10025714D01*
X2706333Y-10016190D01*
X2725381Y-10006667D01*
X2773000Y-10006667D01*
X2792048Y-10016190D01*
X2801571Y-10025714D01*
X2811095Y-10044762D01*
X2811095Y-10092381D01*
X2801571Y-10111429D01*
X2792048Y-10120952D01*
X2773000Y-10130476D01*
X2725381Y-10130476D01*
X2706333Y-10120952D01*
X2696810Y-10111429D01*
X2934905Y-9930476D02*
X2953952Y-9930476D01*
X2973000Y-9940000D01*
X2982524Y-9949524D01*
X2992048Y-9968571D01*
X3001571Y-10006667D01*
X3001571Y-10054286D01*
X2992048Y-10092381D01*
X2982524Y-10111429D01*
X2973000Y-10120952D01*
X2953952Y-10130476D01*
X2934905Y-10130476D01*
X2915857Y-10120952D01*
X2906333Y-10111429D01*
X2896809Y-10092381D01*
X2887286Y-10054286D01*
X2887286Y-10006667D01*
X2896809Y-9968571D01*
X2906333Y-9949524D01*
X2915857Y-9940000D01*
X2934905Y-9930476D01*
X3125381Y-9930476D02*
X3144428Y-9930476D01*
X3163476Y-9940000D01*
X3173000Y-9949524D01*
X3182524Y-9968571D01*
X3192048Y-10006667D01*
X3192048Y-10054286D01*
X3182524Y-10092381D01*
X3173000Y-10111429D01*
X3163476Y-10120952D01*
X3144428Y-10130476D01*
X3125381Y-10130476D01*
X3106333Y-10120952D01*
X3096809Y-10111429D01*
X3087286Y-10092381D01*
X3077762Y-10054286D01*
X3077762Y-10006667D01*
X3087286Y-9968571D01*
X3096809Y-9949524D01*
X3106333Y-9940000D01*
X3125381Y-9930476D01*
X3277762Y-10130476D02*
X3277762Y-9997143D01*
X3277762Y-10016190D02*
X3287286Y-10006667D01*
X3306333Y-9997143D01*
X3334905Y-9997143D01*
X3353952Y-10006667D01*
X3363476Y-10025714D01*
X3363476Y-10130476D01*
X3363476Y-10025714D02*
X3373000Y-10006667D01*
X3392048Y-9997143D01*
X3420619Y-9997143D01*
X3439667Y-10006667D01*
X3449190Y-10025714D01*
X3449190Y-10130476D01*
X3544428Y-10130476D02*
X3544428Y-9997143D01*
X3544428Y-10016190D02*
X3553952Y-10006667D01*
X3573000Y-9997143D01*
X3601571Y-9997143D01*
X3620619Y-10006667D01*
X3630143Y-10025714D01*
X3630143Y-10130476D01*
X3630143Y-10025714D02*
X3639667Y-10006667D01*
X3658714Y-9997143D01*
X3687286Y-9997143D01*
X3706333Y-10006667D01*
X3715857Y-10025714D01*
X3715857Y-10130476D01*
X4106333Y-9920952D02*
X3934905Y-10178095D01*
X4363476Y-9930476D02*
X4382524Y-9930476D01*
X4401571Y-9940000D01*
X4411095Y-9949524D01*
X4420619Y-9968571D01*
X4430143Y-10006667D01*
X4430143Y-10054286D01*
X4420619Y-10092381D01*
X4411095Y-10111429D01*
X4401571Y-10120952D01*
X4382524Y-10130476D01*
X4363476Y-10130476D01*
X4344429Y-10120952D01*
X4334905Y-10111429D01*
X4325381Y-10092381D01*
X4315857Y-10054286D01*
X4315857Y-10006667D01*
X4325381Y-9968571D01*
X4334905Y-9949524D01*
X4344429Y-9940000D01*
X4363476Y-9930476D01*
X4515857Y-10111429D02*
X4525381Y-10120952D01*
X4515857Y-10130476D01*
X4506333Y-10120952D01*
X4515857Y-10111429D01*
X4515857Y-10130476D01*
X4649190Y-9930476D02*
X4668238Y-9930476D01*
X4687286Y-9940000D01*
X4696810Y-9949524D01*
X4706333Y-9968571D01*
X4715857Y-10006667D01*
X4715857Y-10054286D01*
X4706333Y-10092381D01*
X4696810Y-10111429D01*
X4687286Y-10120952D01*
X4668238Y-10130476D01*
X4649190Y-10130476D01*
X4630143Y-10120952D01*
X4620619Y-10111429D01*
X4611095Y-10092381D01*
X4601571Y-10054286D01*
X4601571Y-10006667D01*
X4611095Y-9968571D01*
X4620619Y-9949524D01*
X4630143Y-9940000D01*
X4649190Y-9930476D01*
X4906333Y-10130476D02*
X4792048Y-10130476D01*
X4849190Y-10130476D02*
X4849190Y-9930476D01*
X4830143Y-9959048D01*
X4811095Y-9978095D01*
X4792048Y-9987619D01*
X5001571Y-10130476D02*
X5039667Y-10130476D01*
X5058714Y-10120952D01*
X5068238Y-10111429D01*
X5087286Y-10082857D01*
X5096810Y-10044762D01*
X5096810Y-9968571D01*
X5087286Y-9949524D01*
X5077762Y-9940000D01*
X5058714Y-9930476D01*
X5020619Y-9930476D01*
X5001571Y-9940000D01*
X4992048Y-9949524D01*
X4982524Y-9968571D01*
X4982524Y-10016190D01*
X4992048Y-10035238D01*
X5001571Y-10044762D01*
X5020619Y-10054286D01*
X5058714Y-10054286D01*
X5077762Y-10044762D01*
X5087286Y-10035238D01*
X5096810Y-10016190D01*
X5163476Y-9930476D02*
X5296810Y-9930476D01*
X5211095Y-10130476D01*
X5363476Y-9930476D02*
X5363476Y-9968571D01*
X5439667Y-9930476D02*
X5439667Y-9968571D01*
X5734905Y-10206667D02*
X5725381Y-10197143D01*
X5706333Y-10168571D01*
X5696809Y-10149524D01*
X5687286Y-10120952D01*
X5677762Y-10073333D01*
X5677762Y-10035238D01*
X5687286Y-9987619D01*
X5696809Y-9959048D01*
X5706333Y-9940000D01*
X5725381Y-9911429D01*
X5734905Y-9901905D01*
X5896809Y-9997143D02*
X5896809Y-10130476D01*
X5849190Y-9920952D02*
X5801571Y-10063810D01*
X5925381Y-10063810D01*
X6153952Y-10130476D02*
X6153952Y-9930476D01*
X6239667Y-10130476D02*
X6239667Y-10025714D01*
X6230143Y-10006667D01*
X6211095Y-9997143D01*
X6182524Y-9997143D01*
X6163476Y-10006667D01*
X6153952Y-10016190D01*
X6363476Y-10130476D02*
X6344428Y-10120952D01*
X6334905Y-10111429D01*
X6325381Y-10092381D01*
X6325381Y-10035238D01*
X6334905Y-10016190D01*
X6344428Y-10006667D01*
X6363476Y-9997143D01*
X6392048Y-9997143D01*
X6411095Y-10006667D01*
X6420619Y-10016190D01*
X6430143Y-10035238D01*
X6430143Y-10092381D01*
X6420619Y-10111429D01*
X6411095Y-10120952D01*
X6392048Y-10130476D01*
X6363476Y-10130476D01*
X6544428Y-10130476D02*
X6525381Y-10120952D01*
X6515857Y-10101905D01*
X6515857Y-9930476D01*
X6696809Y-10120952D02*
X6677762Y-10130476D01*
X6639667Y-10130476D01*
X6620619Y-10120952D01*
X6611095Y-10101905D01*
X6611095Y-10025714D01*
X6620619Y-10006667D01*
X6639667Y-9997143D01*
X6677762Y-9997143D01*
X6696809Y-10006667D01*
X6706333Y-10025714D01*
X6706333Y-10044762D01*
X6611095Y-10063810D01*
X6782524Y-10120952D02*
X6801571Y-10130476D01*
X6839667Y-10130476D01*
X6858714Y-10120952D01*
X6868238Y-10101905D01*
X6868238Y-10092381D01*
X6858714Y-10073333D01*
X6839667Y-10063810D01*
X6811095Y-10063810D01*
X6792048Y-10054286D01*
X6782524Y-10035238D01*
X6782524Y-10025714D01*
X6792048Y-10006667D01*
X6811095Y-9997143D01*
X6839667Y-9997143D01*
X6858714Y-10006667D01*
X6934905Y-10206667D02*
X6944428Y-10197143D01*
X6963476Y-10168571D01*
X6973000Y-10149524D01*
X6982524Y-10120952D01*
X6992048Y-10073333D01*
X6992048Y-10035238D01*
X6982524Y-9987619D01*
X6973000Y-9959048D01*
X6963476Y-9940000D01*
X6944428Y-9911429D01*
X6934905Y-9901905D01*
X7296809Y-10206667D02*
X7287286Y-10197143D01*
X7268238Y-10168571D01*
X7258714Y-10149524D01*
X7249190Y-10120952D01*
X7239667Y-10073333D01*
X7239667Y-10035238D01*
X7249190Y-9987619D01*
X7258714Y-9959048D01*
X7268238Y-9940000D01*
X7287286Y-9911429D01*
X7296809Y-9901905D01*
X7373000Y-9997143D02*
X7373000Y-10130476D01*
X7373000Y-10016190D02*
X7382524Y-10006667D01*
X7401571Y-9997143D01*
X7430143Y-9997143D01*
X7449190Y-10006667D01*
X7458714Y-10025714D01*
X7458714Y-10130476D01*
X7582524Y-10130476D02*
X7563476Y-10120952D01*
X7553952Y-10111429D01*
X7544428Y-10092381D01*
X7544428Y-10035238D01*
X7553952Y-10016190D01*
X7563476Y-10006667D01*
X7582524Y-9997143D01*
X7611095Y-9997143D01*
X7630143Y-10006667D01*
X7639667Y-10016190D01*
X7649190Y-10035238D01*
X7649190Y-10092381D01*
X7639667Y-10111429D01*
X7630143Y-10120952D01*
X7611095Y-10130476D01*
X7582524Y-10130476D01*
X7706333Y-9997143D02*
X7782524Y-9997143D01*
X7734905Y-9930476D02*
X7734905Y-10101905D01*
X7744428Y-10120952D01*
X7763476Y-10130476D01*
X7782524Y-10130476D01*
X8001571Y-9997143D02*
X8001571Y-10197143D01*
X8001571Y-10006667D02*
X8020619Y-9997143D01*
X8058714Y-9997143D01*
X8077762Y-10006667D01*
X8087286Y-10016190D01*
X8096809Y-10035238D01*
X8096809Y-10092381D01*
X8087286Y-10111429D01*
X8077762Y-10120952D01*
X8058714Y-10130476D01*
X8020619Y-10130476D01*
X8001571Y-10120952D01*
X8211095Y-10130476D02*
X8192048Y-10120952D01*
X8182524Y-10101905D01*
X8182524Y-9930476D01*
X8373000Y-10130476D02*
X8373000Y-10025714D01*
X8363476Y-10006667D01*
X8344428Y-9997143D01*
X8306333Y-9997143D01*
X8287286Y-10006667D01*
X8373000Y-10120952D02*
X8353952Y-10130476D01*
X8306333Y-10130476D01*
X8287286Y-10120952D01*
X8277762Y-10101905D01*
X8277762Y-10082857D01*
X8287286Y-10063810D01*
X8306333Y-10054286D01*
X8353952Y-10054286D01*
X8373000Y-10044762D01*
X8439667Y-9997143D02*
X8515857Y-9997143D01*
X8468238Y-9930476D02*
X8468238Y-10101905D01*
X8477762Y-10120952D01*
X8496810Y-10130476D01*
X8515857Y-10130476D01*
X8658714Y-10120952D02*
X8639667Y-10130476D01*
X8601571Y-10130476D01*
X8582524Y-10120952D01*
X8573000Y-10101905D01*
X8573000Y-10025714D01*
X8582524Y-10006667D01*
X8601571Y-9997143D01*
X8639667Y-9997143D01*
X8658714Y-10006667D01*
X8668238Y-10025714D01*
X8668238Y-10044762D01*
X8573000Y-10063810D01*
X8839667Y-10130476D02*
X8839667Y-9930476D01*
X8839667Y-10120952D02*
X8820619Y-10130476D01*
X8782524Y-10130476D01*
X8763476Y-10120952D01*
X8753952Y-10111429D01*
X8744429Y-10092381D01*
X8744429Y-10035238D01*
X8753952Y-10016190D01*
X8763476Y-10006667D01*
X8782524Y-9997143D01*
X8820619Y-9997143D01*
X8839667Y-10006667D01*
X8915857Y-10206667D02*
X8925381Y-10197143D01*
X8944429Y-10168571D01*
X8953952Y-10149524D01*
X8963476Y-10120952D01*
X8973000Y-10073333D01*
X8973000Y-10035238D01*
X8963476Y-9987619D01*
X8953952Y-9959048D01*
X8944429Y-9940000D01*
X8925381Y-9911429D01*
X8915857Y-9901905D01*
M02*
