%TF.GenerationSoftware,KiCad,Pcbnew,6.0.4-6f826c9f35~116~ubuntu20.04.1*%
%TF.CreationDate,2022-03-30T16:20:37-04:00*%
%TF.ProjectId,msa,6d73612e-6b69-4636-9164-5f7063625858,rev?*%
%TF.SameCoordinates,Original*%
%TF.FileFunction,Copper,L1,Top*%
%TF.FilePolarity,Positive*%
%FSLAX46Y46*%
G04 Gerber Fmt 4.6, Leading zero omitted, Abs format (unit mm)*
G04 Created by KiCad (PCBNEW 6.0.4-6f826c9f35~116~ubuntu20.04.1) date 2022-03-30 16:20:37*
%MOMM*%
%LPD*%
G01*
G04 APERTURE LIST*
G04 Aperture macros list*
%AMRoundRect*
0 Rectangle with rounded corners*
0 $1 Rounding radius*
0 $2 $3 $4 $5 $6 $7 $8 $9 X,Y pos of 4 corners*
0 Add a 4 corners polygon primitive as box body*
4,1,4,$2,$3,$4,$5,$6,$7,$8,$9,$2,$3,0*
0 Add four circle primitives for the rounded corners*
1,1,$1+$1,$2,$3*
1,1,$1+$1,$4,$5*
1,1,$1+$1,$6,$7*
1,1,$1+$1,$8,$9*
0 Add four rect primitives between the rounded corners*
20,1,$1+$1,$2,$3,$4,$5,0*
20,1,$1+$1,$4,$5,$6,$7,0*
20,1,$1+$1,$6,$7,$8,$9,0*
20,1,$1+$1,$8,$9,$2,$3,0*%
%AMFreePoly0*
4,1,510,-0.607239,0.797000,-0.607227,0.796995,-0.607214,0.796999,-0.565214,0.793999,-0.565197,0.793990,-0.565179,0.793995,-0.523180,0.787995,-0.523168,0.787988,-0.523154,0.787991,-0.482154,0.779991,-0.482148,0.779987,-0.482143,0.779988,-0.441143,0.770988,-0.441127,0.770977,-0.441106,0.770979,-0.401107,0.758979,-0.401098,0.758971,-0.401085,0.758972,-0.361085,0.744972,-0.361075,0.744963,
-0.361060,0.744963,-0.322061,0.728963,-0.322051,0.728953,-0.322036,0.728952,-0.284036,0.710952,-0.284023,0.710938,-0.284003,0.710935,-0.247003,0.689935,-0.247001,0.689932,-0.246998,0.689932,-0.210998,0.668932,-0.210983,0.668913,-0.210962,0.668908,-0.176962,0.644909,-0.176956,0.644900,-0.176946,0.644897,-0.142946,0.618897,-0.142937,0.618882,-0.142922,0.618877,-0.111921,0.591877,
-0.111917,0.591868,-0.111908,0.591865,-0.080908,0.562865,-0.080901,0.562849,-0.080885,0.562842,-0.051885,0.531842,-0.051881,0.531832,-0.051873,0.531828,-0.024873,0.500828,-0.024868,0.500813,-0.024853,0.500804,0.001147,0.466804,0.001150,0.466793,0.001158,0.466788,0.025158,0.432789,0.025163,0.432766,0.025182,0.432752,0.046182,0.396752,0.046182,0.396749,0.046185,0.396747,
0.067185,0.359747,0.067188,0.359727,0.067202,0.359714,0.085202,0.321714,0.085203,0.321700,0.085213,0.321690,0.101212,0.282690,0.101212,0.282676,0.101222,0.282665,0.115222,0.242665,0.115221,0.242653,0.115229,0.242644,0.127229,0.202644,0.127227,0.202623,0.127238,0.202607,0.136238,0.161607,0.136237,0.161602,0.136241,0.161596,0.144241,0.120596,0.144238,0.120582,
0.144245,0.120571,0.150245,0.078571,0.150240,0.078553,0.150249,0.078536,0.153249,0.036536,0.153245,0.036524,0.153250,0.036513,0.154250,-0.002487,0.154247,-0.002494,0.154250,-0.002500,0.154250,-0.012500,0.154248,-0.012506,0.154250,-0.012512,0.153250,-0.054512,0.153245,-0.054523,0.153249,-0.054534,0.150249,-0.097535,0.150240,-0.097553,0.150245,-0.097571,0.144245,-0.139571,
0.144238,-0.139582,0.144241,-0.139596,0.136241,-0.180596,0.136234,-0.180606,0.136236,-0.180616,0.126236,-0.222616,0.126227,-0.222628,0.126229,-0.222644,0.114229,-0.262644,0.114221,-0.262653,0.114222,-0.262665,0.100222,-0.302665,0.100212,-0.302676,0.100212,-0.302690,0.084213,-0.341690,0.084204,-0.341699,0.084204,-0.341710,0.066204,-0.380710,0.066188,-0.380725,0.066185,-0.380747,
0.045185,-0.417747,0.045178,-0.417752,0.045177,-0.417761,0.023177,-0.453761,0.023165,-0.453770,0.023162,-0.453783,-0.000838,-0.488783,-0.000849,-0.488790,-0.000853,-0.488804,-0.026853,-0.522804,-0.026864,-0.522811,-0.026868,-0.522822,-0.053868,-0.554822,-0.053880,-0.554828,-0.053885,-0.554842,-0.082885,-0.585842,-0.082901,-0.585849,-0.082908,-0.585865,-0.113908,-0.614865,-0.113921,-0.614870,
-0.113927,-0.614882,-0.145928,-0.641882,-0.145939,-0.641886,-0.145946,-0.641897,-0.179946,-0.667897,-0.179960,-0.667901,-0.179967,-0.667912,-0.214967,-0.691912,-0.214980,-0.691915,-0.214989,-0.691927,-0.250989,-0.713927,-0.250998,-0.713928,-0.251003,-0.713935,-0.288003,-0.734935,-0.288026,-0.734938,-0.288041,-0.734954,-0.327040,-0.752954,-0.327052,-0.752955,-0.327061,-0.752963,-0.366060,-0.768963,
-0.366075,-0.768963,-0.366085,-0.768972,-0.406085,-0.782972,-0.406098,-0.782971,-0.406107,-0.782979,-0.446106,-0.794979,-0.446122,-0.794977,-0.446134,-0.794986,-0.488134,-0.804986,-0.488144,-0.804984,-0.488154,-0.804991,-0.529154,-0.812991,-0.529168,-0.812988,-0.529180,-0.812995,-0.571179,-0.818995,-0.571198,-0.818990,-0.571215,-0.818999,-0.614215,-0.821999,-0.614227,-0.821995,-0.614238,-0.822000,
-0.656238,-0.823000,-0.656244,-0.822998,-0.656250,-0.823000,-0.716250,-0.823000,-0.716272,-0.822991,-0.716295,-0.822998,-0.761294,-0.818998,-0.761309,-0.818990,-0.761326,-0.818994,-0.800326,-0.812994,-0.800332,-0.812990,-0.800341,-0.812992,-0.838341,-0.805992,-0.838354,-0.805984,-0.838368,-0.805986,-0.875368,-0.796986,-0.875379,-0.796978,-0.875392,-0.796979,-0.912392,-0.785979,-0.912402,-0.785971,
-0.912416,-0.785972,-0.949416,-0.772972,-0.949423,-0.772966,-0.949432,-0.772966,-0.985431,-0.758966,-0.985442,-0.758956,-0.985458,-0.758955,-1.020458,-0.742955,-1.020469,-0.742943,-1.020484,-0.742942,-1.054484,-0.724942,-1.054494,-0.724930,-1.054509,-0.724928,-1.087509,-0.704928,-1.087513,-0.704923,-1.087519,-0.704922,-1.120518,-0.683922,-1.120526,-0.683911,-1.120540,-0.683908,-1.151539,-0.661908,
-1.151547,-0.661895,-1.151562,-0.661891,-1.181562,-0.637890,-1.181569,-0.637877,-1.181584,-0.637872,-1.210584,-0.611872,-1.210588,-0.611864,-1.210597,-0.611860,-1.238597,-0.584860,-1.238603,-0.584846,-1.238616,-0.584840,-1.264616,-0.556840,-1.264621,-0.556827,-1.264634,-0.556820,-1.289634,-0.526820,-1.289635,-0.526816,-1.289640,-0.526813,-1.313640,-0.496812,-1.313645,-0.496794,-1.313662,-0.496783,
-1.335662,-0.464783,-1.335664,-0.464774,-1.335672,-0.464768,-1.356672,-0.431768,-1.356675,-0.431751,-1.356689,-0.431740,-1.374689,-0.398739,-1.374690,-0.398733,-1.374695,-0.398728,-1.392695,-0.363729,-1.392697,-0.363710,-1.392710,-0.363697,-1.407710,-0.328697,-1.407710,-0.328687,-1.407716,-0.328681,-1.421716,-0.292681,-1.421716,-0.292666,-1.421726,-0.292654,-1.433726,-0.255654,-1.433725,-0.255641,
-1.433733,-0.255631,-1.443733,-0.218630,-1.443732,-0.218622,-1.443737,-0.218615,-1.452737,-0.180615,-1.452735,-0.180601,-1.452742,-0.180590,-1.459742,-0.142591,-1.459737,-0.142570,-1.459747,-0.142552,-1.463748,-0.104546,-1.466748,-0.072547,-1.466741,-0.072523,-1.466750,-0.072500,-1.466750,-0.002500,-1.466747,-0.002494,-1.466750,-0.002487,-1.465750,0.036513,-1.465745,0.036524,-1.465749,0.036536,
-1.462749,0.078536,-1.462740,0.078553,-1.462745,0.078571,-1.456745,0.120570,-1.456738,0.120582,-1.456741,0.120596,-1.448741,0.161596,-1.448737,0.161602,-1.448738,0.161607,-1.439738,0.202607,-1.439727,0.202623,-1.439729,0.202644,-1.427729,0.242643,-1.427721,0.242652,-1.427722,0.242665,-1.413722,0.282665,-1.413713,0.282675,-1.413713,0.282690,-1.397713,0.321689,-1.397703,0.321699,
-1.397702,0.321714,-1.379702,0.359714,-1.379688,0.359727,-1.379685,0.359747,-1.358685,0.396747,-1.358682,0.396749,-1.358682,0.396752,-1.337682,0.432752,-1.337663,0.432767,-1.337658,0.432788,-1.313659,0.466788,-1.313650,0.466794,-1.313647,0.466804,-1.287647,0.500804,-1.287632,0.500813,-1.287627,0.500828,-1.260627,0.531829,-1.260618,0.531833,-1.260615,0.531842,-1.231615,0.562842,
-1.231599,0.562849,-1.231592,0.562865,-1.200592,0.591865,-1.200582,0.591869,-1.200578,0.591877,-1.169578,0.618877,-1.169563,0.618882,-1.169554,0.618897,-1.135554,0.644897,-1.135543,0.644900,-1.135538,0.644908,-1.101539,0.668908,-1.101516,0.668913,-1.101502,0.668932,-1.065502,0.689932,-1.065499,0.689932,-1.065497,0.689935,-1.028497,0.710935,-1.028477,0.710938,-1.028464,0.710952,
-0.990464,0.728952,-0.990450,0.728953,-0.990440,0.728963,-0.951440,0.744962,-0.951426,0.744962,-0.951415,0.744972,-0.911415,0.758972,-0.911403,0.758971,-0.911394,0.758979,-0.871394,0.770979,-0.871373,0.770977,-0.871357,0.770988,-0.830357,0.779988,-0.830352,0.779987,-0.830346,0.779991,-0.789346,0.787991,-0.789332,0.787988,-0.789321,0.787995,-0.747321,0.793995,-0.747303,0.793990,
-0.747286,0.793999,-0.705286,0.796999,-0.705273,0.796995,-0.705261,0.797000,-0.661262,0.798000,-0.661256,0.797998,-0.661250,0.798000,-0.661078,0.797929,-0.660904,0.797862,-0.660901,0.797856,-0.660896,0.797854,-0.660826,0.797683,-0.660750,0.797511,-0.660752,0.797505,-0.660750,0.797500,-0.660750,0.497500,-0.660815,0.497343,-0.660881,0.497161,-0.660892,0.497156,-0.660896,0.497146,
-0.661057,0.497080,-0.661229,0.497000,-0.685223,0.496000,-0.712203,0.494002,-0.738179,0.491005,-0.764152,0.486010,-0.790114,0.480018,-0.815086,0.472028,-0.840064,0.463036,-0.865055,0.453040,-0.889028,0.442051,-0.911990,0.429073,-0.934976,0.415081,-0.956956,0.400096,-0.977937,0.384109,-0.997906,0.367136,-1.035886,0.329156,-1.052859,0.309187,-1.068846,0.288206,-1.083831,0.266226,
-1.097822,0.243242,-1.110801,0.220278,-1.121793,0.196295,-1.131779,0.171331,-1.140774,0.146348,-1.148767,0.121370,-1.154759,0.095405,-1.159755,0.069428,-1.162751,0.043463,-1.164750,0.016483,-1.165750,-0.012512,-1.165750,-0.035475,-1.163751,-0.061457,-1.160753,-0.087443,-1.156759,-0.113407,-1.150767,-0.139370,-1.143767,-0.165369,-1.135783,-0.190320,-1.125795,-0.214292,-1.114795,-0.238292,
-1.102815,-0.262254,-1.088828,-0.285232,-1.074842,-0.307211,-1.058859,-0.328187,-1.041878,-0.348166,-1.023894,-0.368149,-0.985926,-0.404118,-0.964946,-0.420103,-0.942972,-0.436084,-0.920981,-0.450078,-0.898019,-0.463056,-0.874046,-0.475043,-0.850057,-0.485039,-0.825087,-0.495027,-0.775139,-0.509012,-0.749162,-0.514008,-0.723190,-0.518004,-0.696217,-0.521001,-0.666233,-0.522000,-0.656266,-0.522000,
-0.625283,-0.521001,-0.598310,-0.518004,-0.572341,-0.514008,-0.545359,-0.509011,-0.519386,-0.502019,-0.493397,-0.494022,-0.468433,-0.485034,-0.443459,-0.474046,-0.419496,-0.462065,-0.373525,-0.434082,-0.351553,-0.418102,-0.330567,-0.402112,-0.310604,-0.384146,-0.291602,-0.365145,-0.272630,-0.345174,-0.255645,-0.324194,-0.239663,-0.302218,-0.224673,-0.280232,-0.211690,-0.257262,-0.198703,-0.233289,
-0.187708,-0.208299,-0.177714,-0.183314,-0.168729,-0.158355,-0.161733,-0.132370,-0.155741,-0.105405,-0.151746,-0.079440,-0.148749,-0.052463,-0.146750,-0.025477,-0.146750,-0.002500,-0.147748,0.019459,-0.150744,0.044421,-0.154744,0.069421,-0.159737,0.094385,-0.166731,0.119365,-0.173725,0.143342,-0.182712,0.167309,-0.192712,0.191308,-0.203695,0.214271,-0.229670,0.258228,-0.243653,0.279204,
-0.259639,0.300185,-0.275623,0.319167,-0.292608,0.338150,-0.311594,0.356137,-0.330583,0.373127,-0.349550,0.389099,-0.391524,0.419081,-0.413479,0.432055,-0.459450,0.454041,-0.483434,0.464035,-0.531385,0.480018,-0.556362,0.486013,-0.581321,0.491005,-0.607308,0.494004,-0.636272,0.497000,-0.651250,0.497000,-0.651604,0.497146,-0.651750,0.497500,-0.651750,0.797500,-0.651748,0.797505,
-0.651750,0.797511,-0.651674,0.797683,-0.651604,0.797854,-0.651599,0.797856,-0.651596,0.797862,-0.651414,0.797932,-0.651250,0.798000,-0.651245,0.797998,-0.651239,0.798000,-0.607239,0.797000,-0.607239,0.797000,$1*%
G04 Aperture macros list end*
%TA.AperFunction,SMDPad,CuDef*%
%ADD10RoundRect,0.140000X0.140000X0.170000X-0.140000X0.170000X-0.140000X-0.170000X0.140000X-0.170000X0*%
%TD*%
%TA.AperFunction,SMDPad,CuDef*%
%ADD11RoundRect,0.135000X0.185000X-0.135000X0.185000X0.135000X-0.185000X0.135000X-0.185000X-0.135000X0*%
%TD*%
%TA.AperFunction,SMDPad,CuDef*%
%ADD12C,1.000000*%
%TD*%
%TA.AperFunction,SMDPad,CuDef*%
%ADD13R,0.240000X0.350000*%
%TD*%
%TA.AperFunction,SMDPad,CuDef*%
%ADD14R,0.200000X0.500000*%
%TD*%
%TA.AperFunction,SMDPad,CuDef*%
%ADD15R,0.300000X0.600000*%
%TD*%
%TA.AperFunction,SMDPad,CuDef*%
%ADD16RoundRect,0.140000X-0.170000X0.140000X-0.170000X-0.140000X0.170000X-0.140000X0.170000X0.140000X0*%
%TD*%
%TA.AperFunction,SMDPad,CuDef*%
%ADD17RoundRect,0.135000X-0.185000X0.135000X-0.185000X-0.135000X0.185000X-0.135000X0.185000X0.135000X0*%
%TD*%
%TA.AperFunction,SMDPad,CuDef*%
%ADD18R,0.522000X0.725000*%
%TD*%
%TA.AperFunction,SMDPad,CuDef*%
%ADD19FreePoly0,90.000000*%
%TD*%
%TA.AperFunction,SMDPad,CuDef*%
%ADD20FreePoly0,270.000000*%
%TD*%
%TA.AperFunction,ViaPad*%
%ADD21C,0.600000*%
%TD*%
%TA.AperFunction,Conductor*%
%ADD22C,0.150000*%
%TD*%
G04 APERTURE END LIST*
D10*
%TO.P,C25,1*%
%TO.N,GND*%
X66030000Y-92300000D03*
%TO.P,C25,2*%
%TO.N,+3V3*%
X65070000Y-92300000D03*
%TD*%
D11*
%TO.P,R10,1*%
%TO.N,Net-(R10-Pad1)*%
X144100000Y-92350000D03*
%TO.P,R10,2*%
%TO.N,GND*%
X144100000Y-91330000D03*
%TD*%
D12*
%TO.P,TP8,1,1*%
%TO.N,/MIC_DOUT_1*%
X150650000Y-91450000D03*
%TD*%
D10*
%TO.P,C24,1*%
%TO.N,GND*%
X66030000Y-91340000D03*
%TO.P,C24,2*%
%TO.N,+3V3*%
X65070000Y-91340000D03*
%TD*%
D12*
%TO.P,TP2,1,1*%
%TO.N,+3V3*%
X181830479Y-91484520D03*
%TD*%
%TO.P,TP10,1,1*%
%TO.N,/MIC_DOUT_2*%
X105500000Y-91500000D03*
%TD*%
D11*
%TO.P,R12,1*%
%TO.N,Net-(R11-Pad2)*%
X98950000Y-92210000D03*
%TO.P,R12,2*%
%TO.N,GND*%
X98950000Y-91190000D03*
%TD*%
D12*
%TO.P,TP11,1,1*%
%TO.N,/MIC_DOUT_3*%
X69600000Y-91200000D03*
%TD*%
D13*
%TO.P,CONN1,1,1*%
%TO.N,unconnected-(CONN1-Pad1)*%
X225066000Y-90544500D03*
D14*
X225066000Y-90969500D03*
%TO.P,CONN1,2,2*%
%TO.N,unconnected-(CONN1-Pad2)*%
X225466000Y-90969500D03*
D13*
X225466000Y-90544500D03*
D14*
%TO.P,CONN1,3,3*%
%TO.N,unconnected-(CONN1-Pad3)*%
X225866000Y-90969500D03*
D13*
X225866000Y-90544500D03*
%TO.P,CONN1,4,4*%
%TO.N,unconnected-(CONN1-Pad4)*%
X226266000Y-90544500D03*
D14*
X226266000Y-90969500D03*
%TO.P,CONN1,5,5*%
%TO.N,/MIC_CLK*%
X226666000Y-90969500D03*
D13*
X226666000Y-90544500D03*
D14*
%TO.P,CONN1,6,6*%
%TO.N,+3V3*%
X227066000Y-90969500D03*
D13*
X227066000Y-90544500D03*
D14*
%TO.P,CONN1,7,7*%
%TO.N,/MIC_DOUT_0*%
X225066000Y-92269500D03*
D13*
X225066000Y-92694500D03*
D14*
%TO.P,CONN1,8,8*%
%TO.N,/MIC_DOUT_1*%
X225466000Y-92269500D03*
D13*
X225466000Y-92694500D03*
D14*
%TO.P,CONN1,9,9*%
%TO.N,/MIC_DOUT_2*%
X225866000Y-92269500D03*
D13*
X225866000Y-92694500D03*
D14*
%TO.P,CONN1,10,10*%
%TO.N,/MIC_DOUT_3*%
X226266000Y-92269500D03*
D13*
X226266000Y-92694500D03*
%TO.P,CONN1,11,11*%
%TO.N,GND*%
X226666000Y-92694500D03*
D14*
X226666000Y-92269500D03*
%TO.P,CONN1,12,12*%
%TO.N,unconnected-(CONN1-Pad12)*%
X227066000Y-92269500D03*
D13*
X227066000Y-92694500D03*
D15*
%TO.P,CONN1,15*%
%TO.N,N/C*%
X227616000Y-91019500D03*
X224516000Y-91019500D03*
%TO.P,CONN1,16*%
X224516000Y-92279500D03*
X227616000Y-92279500D03*
%TD*%
D16*
%TO.P,C3,1*%
%TO.N,GND*%
X185050000Y-90540000D03*
%TO.P,C3,2*%
%TO.N,+3V3*%
X185050000Y-91500000D03*
%TD*%
D11*
%TO.P,R8,1*%
%TO.N,Net-(R1-Pad2)*%
X188666479Y-92234020D03*
%TO.P,R8,2*%
%TO.N,GND*%
X188666479Y-91214020D03*
%TD*%
%TO.P,R13,1*%
%TO.N,+3V3*%
X63300000Y-92010000D03*
%TO.P,R13,2*%
%TO.N,Net-(R13-Pad2)*%
X63300000Y-90990000D03*
%TD*%
D17*
%TO.P,R11,1*%
%TO.N,+3V3*%
X97950000Y-91190000D03*
%TO.P,R11,2*%
%TO.N,Net-(R11-Pad2)*%
X97950000Y-92210000D03*
%TD*%
D16*
%TO.P,C2,1*%
%TO.N,GND*%
X186050000Y-90540000D03*
%TO.P,C2,2*%
%TO.N,+3V3*%
X186050000Y-91500000D03*
%TD*%
%TO.P,C20,1*%
%TO.N,GND*%
X140200000Y-90870000D03*
%TO.P,C20,2*%
%TO.N,+3V3*%
X140200000Y-91830000D03*
%TD*%
D17*
%TO.P,R9,1*%
%TO.N,+3V3*%
X143150000Y-91320000D03*
%TO.P,R9,2*%
%TO.N,Net-(R10-Pad1)*%
X143150000Y-92340000D03*
%TD*%
D16*
%TO.P,C23,1*%
%TO.N,GND*%
X95750000Y-91020000D03*
%TO.P,C23,2*%
%TO.N,+3V3*%
X95750000Y-91980000D03*
%TD*%
D17*
%TO.P,R14,1*%
%TO.N,Net-(R13-Pad2)*%
X62300000Y-90990000D03*
%TO.P,R14,2*%
%TO.N,GND*%
X62300000Y-92010000D03*
%TD*%
%TO.P,R1,1*%
%TO.N,+3V3*%
X187666479Y-91214020D03*
%TO.P,R1,2*%
%TO.N,Net-(R1-Pad2)*%
X187666479Y-92234020D03*
%TD*%
D12*
%TO.P,TP1,1,1*%
%TO.N,GND*%
X179330479Y-91484520D03*
%TD*%
D16*
%TO.P,C22,1*%
%TO.N,GND*%
X94750000Y-91020000D03*
%TO.P,C22,2*%
%TO.N,+3V3*%
X94750000Y-91980000D03*
%TD*%
%TO.P,C21,1*%
%TO.N,GND*%
X141300000Y-90870000D03*
%TO.P,C21,2*%
%TO.N,+3V3*%
X141300000Y-91830000D03*
%TD*%
D18*
%TO.P,U6,1,DOUT*%
%TO.N,/MIC_DOUT_2*%
X100366479Y-92187500D03*
%TO.P,U6,2,L/R*%
%TO.N,Net-(R11-Pad2)*%
X101188479Y-92187500D03*
D19*
%TO.P,U6,3,GND*%
%TO.N,GND*%
X102427979Y-90693750D03*
D18*
%TO.P,U6,4,CLK*%
%TO.N,/MIC_CLK*%
X101188479Y-90512500D03*
%TO.P,U6,5,VDD*%
%TO.N,+3V3*%
X100366479Y-90512500D03*
%TD*%
%TO.P,U5,1,DOUT*%
%TO.N,/MIC_DOUT_1*%
X145366479Y-92187500D03*
%TO.P,U5,2,L/R*%
%TO.N,Net-(R10-Pad1)*%
X146188479Y-92187500D03*
D19*
%TO.P,U5,3,GND*%
%TO.N,GND*%
X147427979Y-90693750D03*
D18*
%TO.P,U5,4,CLK*%
%TO.N,/MIC_CLK*%
X146188479Y-90512500D03*
%TO.P,U5,5,VDD*%
%TO.N,+3V3*%
X145366479Y-90512500D03*
%TD*%
%TO.P,U2,1,DOUT*%
%TO.N,/MIC_DOUT_0*%
X190366479Y-92187500D03*
%TO.P,U2,2,L/R*%
%TO.N,Net-(R1-Pad2)*%
X191188479Y-92187500D03*
D19*
%TO.P,U2,3,GND*%
%TO.N,GND*%
X192427979Y-90693750D03*
D18*
%TO.P,U2,4,CLK*%
%TO.N,/MIC_CLK*%
X191188479Y-90512500D03*
%TO.P,U2,5,VDD*%
%TO.N,+3V3*%
X190366479Y-90512500D03*
%TD*%
%TO.P,U7,1,DOUT*%
%TO.N,/MIC_DOUT_3*%
X59514479Y-90512500D03*
%TO.P,U7,2,L/R*%
%TO.N,Net-(R13-Pad2)*%
X58692479Y-90512500D03*
D20*
%TO.P,U7,3,GND*%
%TO.N,GND*%
X57452979Y-92006250D03*
D18*
%TO.P,U7,4,CLK*%
%TO.N,/MIC_CLK*%
X58692479Y-92187500D03*
%TO.P,U7,5,VDD*%
%TO.N,+3V3*%
X59514479Y-92187500D03*
%TD*%
D12*
%TO.P,TP7,1,1*%
%TO.N,/MIC_DOUT_0*%
X195250000Y-91400000D03*
%TD*%
D21*
%TO.N,GND*%
X148300000Y-92350000D03*
X62100000Y-92750000D03*
X103450000Y-92400000D03*
X67000000Y-92400000D03*
X193400000Y-92200000D03*
X227750000Y-93029002D03*
X56550000Y-92250000D03*
%TO.N,+3V3*%
X189550000Y-90500000D03*
X65350000Y-90500000D03*
X183250000Y-90600000D03*
X60400000Y-92300000D03*
X99550000Y-90450000D03*
X227680000Y-90180000D03*
X142300000Y-92200000D03*
X97000000Y-92150000D03*
X186300000Y-92250000D03*
X144500000Y-90450000D03*
%TO.N,Net-(R13-Pad2)*%
X64500000Y-90600000D03*
X60450000Y-91200000D03*
%TD*%
D22*
%TO.N,GND*%
X188666479Y-90716479D02*
X188666479Y-91214020D01*
X99790000Y-91190000D02*
X99850000Y-91250000D01*
X98950000Y-91190000D02*
X99790000Y-91190000D01*
X67000000Y-92400000D02*
X66130000Y-92400000D01*
X184510000Y-90540000D02*
X182600000Y-92450000D01*
X62100000Y-92750000D02*
X62100000Y-92210000D01*
X186050000Y-90540000D02*
X188490000Y-90540000D01*
X95750000Y-91020000D02*
X94750000Y-91020000D01*
X96270000Y-90500000D02*
X98260000Y-90500000D01*
X65700000Y-93000000D02*
X63290000Y-93000000D01*
X101550000Y-91250000D02*
X102106250Y-90693750D01*
X143370000Y-90600000D02*
X141570000Y-90600000D01*
X95750000Y-91020000D02*
X96270000Y-90500000D01*
X226721489Y-93094011D02*
X226666000Y-93038522D01*
X185050000Y-90520000D02*
X186030000Y-90520000D01*
X188490000Y-90540000D02*
X188666479Y-90716479D01*
X103450000Y-91547025D02*
X102596725Y-90693750D01*
X148300000Y-91397025D02*
X147596725Y-90693750D01*
X147596725Y-90693750D02*
X147427979Y-90693750D01*
X62100000Y-92210000D02*
X62300000Y-92010000D01*
X98260000Y-90500000D02*
X98950000Y-91190000D01*
X144100000Y-91330000D02*
X144520000Y-91330000D01*
X191763963Y-91214020D02*
X192284233Y-90693750D01*
X192284233Y-90693750D02*
X192427979Y-90693750D01*
X148300000Y-92350000D02*
X148300000Y-91397025D01*
X66030000Y-92300000D02*
X66030000Y-92670000D01*
X66130000Y-92400000D02*
X66030000Y-92300000D01*
X227750000Y-93029002D02*
X227684991Y-93094011D01*
X188666479Y-91214020D02*
X191763963Y-91214020D01*
X66030000Y-91340000D02*
X66030000Y-92300000D01*
X147284233Y-90693750D02*
X147427979Y-90693750D01*
X102596725Y-90693750D02*
X102427979Y-90693750D01*
X99850000Y-91250000D02*
X101550000Y-91250000D01*
X66030000Y-92670000D02*
X65700000Y-93000000D01*
X63290000Y-93000000D02*
X62300000Y-92010000D01*
X193400000Y-91497025D02*
X192596725Y-90693750D01*
X141570000Y-90600000D02*
X141300000Y-90870000D01*
X144100000Y-91330000D02*
X143370000Y-90600000D01*
X144520000Y-91330000D02*
X144600000Y-91250000D01*
X192596725Y-90693750D02*
X192427979Y-90693750D01*
X57452979Y-92006250D02*
X56793750Y-92006250D01*
X147796725Y-92043750D02*
X147627979Y-92043750D01*
X56793750Y-92006250D02*
X56550000Y-92250000D01*
X227684991Y-93094011D02*
X226721489Y-93094011D01*
X103450000Y-92400000D02*
X103450000Y-91547025D01*
X226666000Y-93038522D02*
X226666000Y-92519500D01*
X193400000Y-92200000D02*
X193400000Y-91497025D01*
X185050000Y-90540000D02*
X184510000Y-90540000D01*
X140200000Y-90870000D02*
X141300000Y-90870000D01*
X144600000Y-91250000D02*
X146727983Y-91250000D01*
X102484233Y-92043750D02*
X102627979Y-92043750D01*
X193015000Y-91071045D02*
X192596725Y-90652770D01*
X102106250Y-90693750D02*
X102427979Y-90693750D01*
X146727983Y-91250000D02*
X147284233Y-90693750D01*
X180295959Y-92450000D02*
X179330479Y-91484520D01*
X182600000Y-92450000D02*
X180295959Y-92450000D01*
X102627979Y-92043750D02*
X102796725Y-92043750D01*
%TO.N,+3V3*%
X145366479Y-90512500D02*
X144562500Y-90512500D01*
X227605500Y-90180000D02*
X227066000Y-90719500D01*
X95920000Y-92150000D02*
X95750000Y-91980000D01*
X186630499Y-92250000D02*
X187666479Y-91214020D01*
X95750000Y-91980000D02*
X94750000Y-91980000D01*
X60400000Y-92300000D02*
X59626979Y-92300000D01*
X189562500Y-90512500D02*
X189550000Y-90500000D01*
X183250000Y-90600000D02*
X182714999Y-90600000D01*
X65070000Y-91340000D02*
X65070000Y-92300000D01*
X185050000Y-91500000D02*
X184920500Y-91370500D01*
X185050000Y-91500000D02*
X186050000Y-91500000D01*
X140200000Y-91830000D02*
X141300000Y-91830000D01*
X227680000Y-90180000D02*
X227605500Y-90180000D01*
X141670000Y-92200000D02*
X141300000Y-91830000D01*
X143150000Y-91320000D02*
X143150000Y-91350000D01*
X97000000Y-92150000D02*
X95920000Y-92150000D01*
X186300000Y-92250000D02*
X186300000Y-91750000D01*
X97000000Y-92140000D02*
X97950000Y-91190000D01*
X186130000Y-91420000D02*
X186050000Y-91500000D01*
X97000000Y-92150000D02*
X97000000Y-92140000D01*
X144562500Y-90512500D02*
X144500000Y-90450000D01*
X190366479Y-90512500D02*
X189562500Y-90512500D01*
X186300000Y-91750000D02*
X186050000Y-91500000D01*
X142300000Y-92200000D02*
X141670000Y-92200000D01*
X65350000Y-90500000D02*
X65350000Y-91060000D01*
X65070000Y-92300000D02*
X63590000Y-92300000D01*
X59626979Y-92300000D02*
X59514479Y-92187500D01*
X182714999Y-90600000D02*
X181830479Y-91484520D01*
X63590000Y-92300000D02*
X63300000Y-92010000D01*
X94900000Y-92130000D02*
X94750000Y-91980000D01*
X65350000Y-91060000D02*
X65070000Y-91340000D01*
X99612500Y-90512500D02*
X99550000Y-90450000D01*
X143150000Y-91350000D02*
X142300000Y-92200000D01*
X186300000Y-92250000D02*
X186630499Y-92250000D01*
X100366479Y-90512500D02*
X99612500Y-90512500D01*
%TO.N,Net-(R1-Pad2)*%
X188666479Y-92234020D02*
X187666479Y-92234020D01*
X191188479Y-92187500D02*
X191188479Y-91638479D01*
X191188479Y-91638479D02*
X191150000Y-91600000D01*
X191150000Y-91600000D02*
X189300499Y-91600000D01*
X189300499Y-91600000D02*
X188666479Y-92234020D01*
%TO.N,Net-(R10-Pad1)*%
X146113479Y-91600000D02*
X144800000Y-91600000D01*
X144800000Y-91600000D02*
X144100000Y-92300000D01*
X143160000Y-92350000D02*
X143150000Y-92340000D01*
X144100000Y-92300000D02*
X144100000Y-92350000D01*
X146188479Y-92187500D02*
X146188479Y-91675000D01*
X146188479Y-91675000D02*
X146113479Y-91600000D01*
X144100000Y-92350000D02*
X143160000Y-92350000D01*
%TO.N,Net-(R11-Pad2)*%
X99090000Y-92210000D02*
X98950000Y-92210000D01*
X98950000Y-92210000D02*
X97950000Y-92210000D01*
X99750000Y-91550000D02*
X99090000Y-92210000D01*
X101188479Y-91938479D02*
X100800000Y-91550000D01*
X101188479Y-92187500D02*
X101188479Y-91938479D01*
X100800000Y-91550000D02*
X99750000Y-91550000D01*
%TO.N,Net-(R13-Pad2)*%
X63690000Y-90600000D02*
X63300000Y-90990000D01*
X58867479Y-91200000D02*
X60450000Y-91200000D01*
X62300000Y-90940000D02*
X63250000Y-90940000D01*
X58692479Y-90512500D02*
X58692479Y-91025000D01*
X64500000Y-90600000D02*
X63690000Y-90600000D01*
X63250000Y-90940000D02*
X63300000Y-90990000D01*
X58692479Y-91025000D02*
X58867479Y-91200000D01*
%TO.N,/MIC_DOUT_0*%
X194400000Y-92800000D02*
X194985500Y-92800000D01*
X190366479Y-92516479D02*
X190366479Y-92187500D01*
X194686500Y-92800000D02*
X194985500Y-92800000D01*
X190650000Y-92800000D02*
X190366479Y-92516479D01*
X194985500Y-92800000D02*
X194995626Y-92810126D01*
X194995626Y-92810126D02*
X224775374Y-92810126D01*
X195250000Y-91400000D02*
X195250000Y-92800000D01*
X224775374Y-92810126D02*
X225066000Y-92519500D01*
X190650000Y-92800000D02*
X194400000Y-92800000D01*
%TO.N,/MIC_DOUT_1*%
X189047560Y-93109646D02*
X225345854Y-93109646D01*
X225486000Y-92969500D02*
X225486000Y-92539500D01*
X150818957Y-93031043D02*
X188968957Y-93031043D01*
X145366479Y-92647522D02*
X145366479Y-92187500D01*
X225345854Y-93109646D02*
X225486000Y-92969500D01*
X150650000Y-92862086D02*
X150818957Y-93031043D01*
X145186479Y-92165000D02*
X145166479Y-92145000D01*
X150818957Y-93031043D02*
X145750000Y-93031043D01*
X145750000Y-93031043D02*
X145366479Y-92647522D01*
X188968957Y-93031043D02*
X189047560Y-93109646D01*
X225486000Y-92539500D02*
X225466000Y-92519500D01*
X150650000Y-91450000D02*
X150650000Y-92862086D01*
%TO.N,/MIC_DOUT_2*%
X225866000Y-93014936D02*
X225866000Y-92519500D01*
X225471770Y-93409166D02*
X225866000Y-93014936D01*
X105500000Y-91500000D02*
X105500000Y-93061126D01*
X105500000Y-93061126D02*
X105769437Y-93330563D01*
X188844891Y-93330563D02*
X188923495Y-93409166D01*
X105769437Y-93330563D02*
X188844891Y-93330563D01*
X188923495Y-93409166D02*
X225471770Y-93409166D01*
X100366479Y-92816479D02*
X100366479Y-92187500D01*
X105769437Y-93330563D02*
X100880563Y-93330563D01*
X100880563Y-93330563D02*
X100366479Y-92816479D01*
%TO.N,/MIC_DOUT_3*%
X226266000Y-92519500D02*
X226266000Y-93038522D01*
X69600000Y-93400000D02*
X69700000Y-93500000D01*
X96330083Y-93630083D02*
X96200000Y-93500000D01*
X61350000Y-91000000D02*
X60862500Y-90512500D01*
X226266000Y-93038522D02*
X225595836Y-93708686D01*
X225595836Y-93708686D02*
X179370680Y-93708686D01*
X69600000Y-91200000D02*
X69600000Y-93400000D01*
X60862500Y-90512500D02*
X59514479Y-90512500D01*
X137694241Y-93638391D02*
X122924804Y-93638391D01*
X69700000Y-93500000D02*
X61950000Y-93500000D01*
X137702549Y-93630083D02*
X137694241Y-93638391D01*
X61350000Y-92900000D02*
X61350000Y-91000000D01*
X122916496Y-93630083D02*
X96330083Y-93630083D01*
X179292077Y-93630083D02*
X137702549Y-93630083D01*
X61950000Y-93500000D02*
X61350000Y-92900000D01*
X96200000Y-93500000D02*
X69700000Y-93500000D01*
X179370680Y-93708686D02*
X179292077Y-93630083D01*
X122924804Y-93638391D02*
X122916496Y-93630083D01*
%TO.N,/MIC_CLK*%
X56000011Y-89899989D02*
X55900000Y-90000000D01*
X146800990Y-89899989D02*
X101449989Y-89899989D01*
X101449989Y-90250990D02*
X101188479Y-90512500D01*
X191215480Y-89915480D02*
X191188479Y-89942481D01*
X57979979Y-92900000D02*
X58692479Y-92187500D01*
X146800990Y-89899989D02*
X146188479Y-90512500D01*
X101449989Y-89899989D02*
X56000011Y-89899989D01*
X223015480Y-89915480D02*
X223040000Y-89940000D01*
X191188479Y-89942481D02*
X191188479Y-90512500D01*
X223040000Y-89940000D02*
X226440000Y-89940000D01*
X226666000Y-90166000D02*
X226666000Y-90719500D01*
X55900000Y-90000000D02*
X55900000Y-92750000D01*
X55900000Y-92750000D02*
X56050000Y-92900000D01*
X189521511Y-89899989D02*
X146800990Y-89899989D01*
X191215480Y-89915480D02*
X223015480Y-89915480D01*
X56050000Y-92900000D02*
X57979979Y-92900000D01*
X101449989Y-89899989D02*
X101449989Y-90250990D01*
X178284520Y-89915480D02*
X191215480Y-89915480D01*
X226440000Y-89940000D02*
X226666000Y-90166000D01*
%TD*%
M02*
