%TF.GenerationSoftware,KiCad,Pcbnew,6.0.4-6f826c9f35~116~ubuntu20.04.1*%
%TF.CreationDate,2022-03-30T16:20:37-04:00*%
%TF.ProjectId,msa,6d73612e-6b69-4636-9164-5f7063625858,rev?*%
%TF.SameCoordinates,Original*%
%TF.FileFunction,Legend,Top*%
%TF.FilePolarity,Positive*%
%FSLAX46Y46*%
G04 Gerber Fmt 4.6, Leading zero omitted, Abs format (unit mm)*
G04 Created by KiCad (PCBNEW 6.0.4-6f826c9f35~116~ubuntu20.04.1) date 2022-03-30 16:20:37*
%MOMM*%
%LPD*%
G01*
G04 APERTURE LIST*
G04 Aperture macros list*
%AMRoundRect*
0 Rectangle with rounded corners*
0 $1 Rounding radius*
0 $2 $3 $4 $5 $6 $7 $8 $9 X,Y pos of 4 corners*
0 Add a 4 corners polygon primitive as box body*
4,1,4,$2,$3,$4,$5,$6,$7,$8,$9,$2,$3,0*
0 Add four circle primitives for the rounded corners*
1,1,$1+$1,$2,$3*
1,1,$1+$1,$4,$5*
1,1,$1+$1,$6,$7*
1,1,$1+$1,$8,$9*
0 Add four rect primitives between the rounded corners*
20,1,$1+$1,$2,$3,$4,$5,0*
20,1,$1+$1,$4,$5,$6,$7,0*
20,1,$1+$1,$6,$7,$8,$9,0*
20,1,$1+$1,$8,$9,$2,$3,0*%
G04 Aperture macros list end*
%ADD10C,0.150000*%
%ADD11C,0.050000*%
%ADD12C,0.070000*%
%ADD13C,0.100000*%
%ADD14C,0.120000*%
%ADD15C,0.080000*%
%ADD16C,0.127000*%
%ADD17C,0.300000*%
%ADD18RoundRect,0.140000X0.140000X0.170000X-0.140000X0.170000X-0.140000X-0.170000X0.140000X-0.170000X0*%
%ADD19RoundRect,0.135000X0.185000X-0.135000X0.185000X0.135000X-0.185000X0.135000X-0.185000X-0.135000X0*%
%ADD20C,1.000000*%
%ADD21R,0.240000X0.350000*%
%ADD22R,0.200000X0.500000*%
%ADD23R,0.300000X0.600000*%
%ADD24RoundRect,0.140000X-0.170000X0.140000X-0.170000X-0.140000X0.170000X-0.140000X0.170000X0.140000X0*%
%ADD25RoundRect,0.135000X-0.185000X0.135000X-0.185000X-0.135000X0.185000X-0.135000X0.185000X0.135000X0*%
%ADD26C,0.500000*%
%ADD27R,0.522000X0.725000*%
G04 APERTURE END LIST*
D10*
X197440479Y-89750000D02*
X197440479Y-93750000D01*
X52440479Y-93650000D02*
X52440479Y-89650000D01*
D11*
X224880952Y-90180952D02*
X224900000Y-90190476D01*
X224938095Y-90190476D01*
X224957142Y-90180952D01*
X224966666Y-90161904D01*
X224966666Y-90152380D01*
X224957142Y-90133333D01*
X224938095Y-90123809D01*
X224909523Y-90123809D01*
X224890476Y-90114285D01*
X224880952Y-90095238D01*
X224880952Y-90085714D01*
X224890476Y-90066666D01*
X224909523Y-90057142D01*
X224938095Y-90057142D01*
X224957142Y-90066666D01*
X225042857Y-90180952D02*
X225061904Y-90190476D01*
X225100000Y-90190476D01*
X225119047Y-90180952D01*
X225128571Y-90161904D01*
X225128571Y-90152380D01*
X225119047Y-90133333D01*
X225100000Y-90123809D01*
X225071428Y-90123809D01*
X225052380Y-90114285D01*
X225042857Y-90095238D01*
X225042857Y-90085714D01*
X225052380Y-90066666D01*
X225071428Y-90057142D01*
X225100000Y-90057142D01*
X225119047Y-90066666D01*
X225319047Y-90190476D02*
X225204761Y-90190476D01*
X225261904Y-90190476D02*
X225261904Y-89990476D01*
X225242857Y-90019047D01*
X225223809Y-90038095D01*
X225204761Y-90047619D01*
X226735714Y-93230952D02*
X226754761Y-93240476D01*
X226792857Y-93240476D01*
X226811904Y-93230952D01*
X226821428Y-93211904D01*
X226821428Y-93202380D01*
X226811904Y-93183333D01*
X226792857Y-93173809D01*
X226764285Y-93173809D01*
X226745238Y-93164285D01*
X226735714Y-93145238D01*
X226735714Y-93135714D01*
X226745238Y-93116666D01*
X226764285Y-93107142D01*
X226792857Y-93107142D01*
X226811904Y-93116666D01*
X226897619Y-93230952D02*
X226916666Y-93240476D01*
X226954761Y-93240476D01*
X226973809Y-93230952D01*
X226983333Y-93211904D01*
X226983333Y-93202380D01*
X226973809Y-93183333D01*
X226954761Y-93173809D01*
X226926190Y-93173809D01*
X226907142Y-93164285D01*
X226897619Y-93145238D01*
X226897619Y-93135714D01*
X226907142Y-93116666D01*
X226926190Y-93107142D01*
X226954761Y-93107142D01*
X226973809Y-93116666D01*
X227173809Y-93240476D02*
X227059523Y-93240476D01*
X227116666Y-93240476D02*
X227116666Y-93040476D01*
X227097619Y-93069047D01*
X227078571Y-93088095D01*
X227059523Y-93097619D01*
X227250000Y-93059523D02*
X227259523Y-93050000D01*
X227278571Y-93040476D01*
X227326190Y-93040476D01*
X227345238Y-93050000D01*
X227354761Y-93059523D01*
X227364285Y-93078571D01*
X227364285Y-93097619D01*
X227354761Y-93126190D01*
X227240476Y-93240476D01*
X227364285Y-93240476D01*
D12*
X52046428Y-90717857D02*
X52046428Y-90617857D01*
X51889285Y-90617857D02*
X52189285Y-90617857D01*
X52189285Y-90760714D01*
X51889285Y-90917857D02*
X51903571Y-90889285D01*
X51917857Y-90875000D01*
X51946428Y-90860714D01*
X52032142Y-90860714D01*
X52060714Y-90875000D01*
X52075000Y-90889285D01*
X52089285Y-90917857D01*
X52089285Y-90960714D01*
X52075000Y-90989285D01*
X52060714Y-91003571D01*
X52032142Y-91017857D01*
X51946428Y-91017857D01*
X51917857Y-91003571D01*
X51903571Y-90989285D01*
X51889285Y-90960714D01*
X51889285Y-90917857D01*
X51889285Y-91189285D02*
X51903571Y-91160714D01*
X51932142Y-91146428D01*
X52189285Y-91146428D01*
X51889285Y-91432142D02*
X52189285Y-91432142D01*
X51903571Y-91432142D02*
X51889285Y-91403571D01*
X51889285Y-91346428D01*
X51903571Y-91317857D01*
X51917857Y-91303571D01*
X51946428Y-91289285D01*
X52032142Y-91289285D01*
X52060714Y-91303571D01*
X52075000Y-91317857D01*
X52089285Y-91346428D01*
X52089285Y-91403571D01*
X52075000Y-91432142D01*
X51889285Y-91803571D02*
X52189285Y-91803571D01*
X51889285Y-91932142D02*
X52046428Y-91932142D01*
X52075000Y-91917857D01*
X52089285Y-91889285D01*
X52089285Y-91846428D01*
X52075000Y-91817857D01*
X52060714Y-91803571D01*
X51903571Y-92189285D02*
X51889285Y-92160714D01*
X51889285Y-92103571D01*
X51903571Y-92075000D01*
X51932142Y-92060714D01*
X52046428Y-92060714D01*
X52075000Y-92075000D01*
X52089285Y-92103571D01*
X52089285Y-92160714D01*
X52075000Y-92189285D01*
X52046428Y-92203571D01*
X52017857Y-92203571D01*
X51989285Y-92060714D01*
X51889285Y-92332142D02*
X52089285Y-92332142D01*
X52032142Y-92332142D02*
X52060714Y-92346428D01*
X52075000Y-92360714D01*
X52089285Y-92389285D01*
X52089285Y-92417857D01*
X51903571Y-92632142D02*
X51889285Y-92603571D01*
X51889285Y-92546428D01*
X51903571Y-92517857D01*
X51932142Y-92503571D01*
X52046428Y-92503571D01*
X52075000Y-92517857D01*
X52089285Y-92546428D01*
X52089285Y-92603571D01*
X52075000Y-92632142D01*
X52046428Y-92646428D01*
X52017857Y-92646428D01*
X51989285Y-92503571D01*
D11*
X224830952Y-93230952D02*
X224850000Y-93240476D01*
X224888095Y-93240476D01*
X224907142Y-93230952D01*
X224916666Y-93211904D01*
X224916666Y-93202380D01*
X224907142Y-93183333D01*
X224888095Y-93173809D01*
X224859523Y-93173809D01*
X224840476Y-93164285D01*
X224830952Y-93145238D01*
X224830952Y-93135714D01*
X224840476Y-93116666D01*
X224859523Y-93107142D01*
X224888095Y-93107142D01*
X224907142Y-93116666D01*
X224992857Y-93230952D02*
X225011904Y-93240476D01*
X225050000Y-93240476D01*
X225069047Y-93230952D01*
X225078571Y-93211904D01*
X225078571Y-93202380D01*
X225069047Y-93183333D01*
X225050000Y-93173809D01*
X225021428Y-93173809D01*
X225002380Y-93164285D01*
X224992857Y-93145238D01*
X224992857Y-93135714D01*
X225002380Y-93116666D01*
X225021428Y-93107142D01*
X225050000Y-93107142D01*
X225069047Y-93116666D01*
X225145238Y-93040476D02*
X225278571Y-93040476D01*
X225192857Y-93240476D01*
D12*
X197828571Y-92482142D02*
X197828571Y-92582142D01*
X197985714Y-92582142D02*
X197685714Y-92582142D01*
X197685714Y-92439285D01*
X197985714Y-92282142D02*
X197971428Y-92310714D01*
X197957142Y-92325000D01*
X197928571Y-92339285D01*
X197842857Y-92339285D01*
X197814285Y-92325000D01*
X197800000Y-92310714D01*
X197785714Y-92282142D01*
X197785714Y-92239285D01*
X197800000Y-92210714D01*
X197814285Y-92196428D01*
X197842857Y-92182142D01*
X197928571Y-92182142D01*
X197957142Y-92196428D01*
X197971428Y-92210714D01*
X197985714Y-92239285D01*
X197985714Y-92282142D01*
X197985714Y-92010714D02*
X197971428Y-92039285D01*
X197942857Y-92053571D01*
X197685714Y-92053571D01*
X197985714Y-91767857D02*
X197685714Y-91767857D01*
X197971428Y-91767857D02*
X197985714Y-91796428D01*
X197985714Y-91853571D01*
X197971428Y-91882142D01*
X197957142Y-91896428D01*
X197928571Y-91910714D01*
X197842857Y-91910714D01*
X197814285Y-91896428D01*
X197800000Y-91882142D01*
X197785714Y-91853571D01*
X197785714Y-91796428D01*
X197800000Y-91767857D01*
X197985714Y-91396428D02*
X197685714Y-91396428D01*
X197985714Y-91267857D02*
X197828571Y-91267857D01*
X197800000Y-91282142D01*
X197785714Y-91310714D01*
X197785714Y-91353571D01*
X197800000Y-91382142D01*
X197814285Y-91396428D01*
X197971428Y-91010714D02*
X197985714Y-91039285D01*
X197985714Y-91096428D01*
X197971428Y-91125000D01*
X197942857Y-91139285D01*
X197828571Y-91139285D01*
X197800000Y-91125000D01*
X197785714Y-91096428D01*
X197785714Y-91039285D01*
X197800000Y-91010714D01*
X197828571Y-90996428D01*
X197857142Y-90996428D01*
X197885714Y-91139285D01*
X197985714Y-90867857D02*
X197785714Y-90867857D01*
X197842857Y-90867857D02*
X197814285Y-90853571D01*
X197800000Y-90839285D01*
X197785714Y-90810714D01*
X197785714Y-90782142D01*
X197971428Y-90567857D02*
X197985714Y-90596428D01*
X197985714Y-90653571D01*
X197971428Y-90682142D01*
X197942857Y-90696428D01*
X197828571Y-90696428D01*
X197800000Y-90682142D01*
X197785714Y-90653571D01*
X197785714Y-90596428D01*
X197800000Y-90567857D01*
X197828571Y-90553571D01*
X197857142Y-90553571D01*
X197885714Y-90696428D01*
D11*
X226880952Y-90180952D02*
X226900000Y-90190476D01*
X226938095Y-90190476D01*
X226957142Y-90180952D01*
X226966666Y-90161904D01*
X226966666Y-90152380D01*
X226957142Y-90133333D01*
X226938095Y-90123809D01*
X226909523Y-90123809D01*
X226890476Y-90114285D01*
X226880952Y-90095238D01*
X226880952Y-90085714D01*
X226890476Y-90066666D01*
X226909523Y-90057142D01*
X226938095Y-90057142D01*
X226957142Y-90066666D01*
X227042857Y-90180952D02*
X227061904Y-90190476D01*
X227100000Y-90190476D01*
X227119047Y-90180952D01*
X227128571Y-90161904D01*
X227128571Y-90152380D01*
X227119047Y-90133333D01*
X227100000Y-90123809D01*
X227071428Y-90123809D01*
X227052380Y-90114285D01*
X227042857Y-90095238D01*
X227042857Y-90085714D01*
X227052380Y-90066666D01*
X227071428Y-90057142D01*
X227100000Y-90057142D01*
X227119047Y-90066666D01*
X227300000Y-89990476D02*
X227261904Y-89990476D01*
X227242857Y-90000000D01*
X227233333Y-90009523D01*
X227214285Y-90038095D01*
X227204761Y-90076190D01*
X227204761Y-90152380D01*
X227214285Y-90171428D01*
X227223809Y-90180952D01*
X227242857Y-90190476D01*
X227280952Y-90190476D01*
X227300000Y-90180952D01*
X227309523Y-90171428D01*
X227319047Y-90152380D01*
X227319047Y-90104761D01*
X227309523Y-90085714D01*
X227300000Y-90076190D01*
X227280952Y-90066666D01*
X227242857Y-90066666D01*
X227223809Y-90076190D01*
X227214285Y-90085714D01*
X227204761Y-90104761D01*
D13*
%TO.C,C25*%
X65392857Y-93242857D02*
X65373809Y-93261904D01*
X65316666Y-93280952D01*
X65278571Y-93280952D01*
X65221428Y-93261904D01*
X65183333Y-93223809D01*
X65164285Y-93185714D01*
X65145238Y-93109523D01*
X65145238Y-93052380D01*
X65164285Y-92976190D01*
X65183333Y-92938095D01*
X65221428Y-92900000D01*
X65278571Y-92880952D01*
X65316666Y-92880952D01*
X65373809Y-92900000D01*
X65392857Y-92919047D01*
X65545238Y-92919047D02*
X65564285Y-92900000D01*
X65602380Y-92880952D01*
X65697619Y-92880952D01*
X65735714Y-92900000D01*
X65754761Y-92919047D01*
X65773809Y-92957142D01*
X65773809Y-92995238D01*
X65754761Y-93052380D01*
X65526190Y-93280952D01*
X65773809Y-93280952D01*
X66135714Y-92880952D02*
X65945238Y-92880952D01*
X65926190Y-93071428D01*
X65945238Y-93052380D01*
X65983333Y-93033333D01*
X66078571Y-93033333D01*
X66116666Y-93052380D01*
X66135714Y-93071428D01*
X66154761Y-93109523D01*
X66154761Y-93204761D01*
X66135714Y-93242857D01*
X66116666Y-93261904D01*
X66078571Y-93280952D01*
X65983333Y-93280952D01*
X65945238Y-93261904D01*
X65926190Y-93242857D01*
%TO.C,R10*%
X143867857Y-90780952D02*
X143734523Y-90590476D01*
X143639285Y-90780952D02*
X143639285Y-90380952D01*
X143791666Y-90380952D01*
X143829761Y-90400000D01*
X143848809Y-90419047D01*
X143867857Y-90457142D01*
X143867857Y-90514285D01*
X143848809Y-90552380D01*
X143829761Y-90571428D01*
X143791666Y-90590476D01*
X143639285Y-90590476D01*
X144248809Y-90780952D02*
X144020238Y-90780952D01*
X144134523Y-90780952D02*
X144134523Y-90380952D01*
X144096428Y-90438095D01*
X144058333Y-90476190D01*
X144020238Y-90495238D01*
X144496428Y-90380952D02*
X144534523Y-90380952D01*
X144572619Y-90400000D01*
X144591666Y-90419047D01*
X144610714Y-90457142D01*
X144629761Y-90533333D01*
X144629761Y-90628571D01*
X144610714Y-90704761D01*
X144591666Y-90742857D01*
X144572619Y-90761904D01*
X144534523Y-90780952D01*
X144496428Y-90780952D01*
X144458333Y-90761904D01*
X144439285Y-90742857D01*
X144420238Y-90704761D01*
X144401190Y-90628571D01*
X144401190Y-90533333D01*
X144420238Y-90457142D01*
X144439285Y-90419047D01*
X144458333Y-90400000D01*
X144496428Y-90380952D01*
%TO.C,TP8*%
X151630952Y-92004761D02*
X151630952Y-91776190D01*
X152030952Y-91890476D02*
X151630952Y-91890476D01*
X152030952Y-91642857D02*
X151630952Y-91642857D01*
X151630952Y-91490476D01*
X151650000Y-91452380D01*
X151669047Y-91433333D01*
X151707142Y-91414285D01*
X151764285Y-91414285D01*
X151802380Y-91433333D01*
X151821428Y-91452380D01*
X151840476Y-91490476D01*
X151840476Y-91642857D01*
X151802380Y-91185714D02*
X151783333Y-91223809D01*
X151764285Y-91242857D01*
X151726190Y-91261904D01*
X151707142Y-91261904D01*
X151669047Y-91242857D01*
X151650000Y-91223809D01*
X151630952Y-91185714D01*
X151630952Y-91109523D01*
X151650000Y-91071428D01*
X151669047Y-91052380D01*
X151707142Y-91033333D01*
X151726190Y-91033333D01*
X151764285Y-91052380D01*
X151783333Y-91071428D01*
X151802380Y-91109523D01*
X151802380Y-91185714D01*
X151821428Y-91223809D01*
X151840476Y-91242857D01*
X151878571Y-91261904D01*
X151954761Y-91261904D01*
X151992857Y-91242857D01*
X152011904Y-91223809D01*
X152030952Y-91185714D01*
X152030952Y-91109523D01*
X152011904Y-91071428D01*
X151992857Y-91052380D01*
X151954761Y-91033333D01*
X151878571Y-91033333D01*
X151840476Y-91052380D01*
X151821428Y-91071428D01*
X151802380Y-91109523D01*
%TO.C,C24*%
X65292857Y-90682857D02*
X65273809Y-90701904D01*
X65216666Y-90720952D01*
X65178571Y-90720952D01*
X65121428Y-90701904D01*
X65083333Y-90663809D01*
X65064285Y-90625714D01*
X65045238Y-90549523D01*
X65045238Y-90492380D01*
X65064285Y-90416190D01*
X65083333Y-90378095D01*
X65121428Y-90340000D01*
X65178571Y-90320952D01*
X65216666Y-90320952D01*
X65273809Y-90340000D01*
X65292857Y-90359047D01*
X65445238Y-90359047D02*
X65464285Y-90340000D01*
X65502380Y-90320952D01*
X65597619Y-90320952D01*
X65635714Y-90340000D01*
X65654761Y-90359047D01*
X65673809Y-90397142D01*
X65673809Y-90435238D01*
X65654761Y-90492380D01*
X65426190Y-90720952D01*
X65673809Y-90720952D01*
X66016666Y-90454285D02*
X66016666Y-90720952D01*
X65921428Y-90301904D02*
X65826190Y-90587619D01*
X66073809Y-90587619D01*
%TO.C,TP2*%
X181325717Y-92265472D02*
X181554288Y-92265472D01*
X181440002Y-92665472D02*
X181440002Y-92265472D01*
X181687621Y-92665472D02*
X181687621Y-92265472D01*
X181840002Y-92265472D01*
X181878098Y-92284520D01*
X181897145Y-92303567D01*
X181916193Y-92341662D01*
X181916193Y-92398805D01*
X181897145Y-92436900D01*
X181878098Y-92455948D01*
X181840002Y-92474996D01*
X181687621Y-92474996D01*
X182068574Y-92303567D02*
X182087621Y-92284520D01*
X182125717Y-92265472D01*
X182220955Y-92265472D01*
X182259050Y-92284520D01*
X182278098Y-92303567D01*
X182297145Y-92341662D01*
X182297145Y-92379758D01*
X182278098Y-92436900D01*
X182049526Y-92665472D01*
X182297145Y-92665472D01*
%TO.C,TP10*%
X106480952Y-92245238D02*
X106480952Y-92016666D01*
X106880952Y-92130952D02*
X106480952Y-92130952D01*
X106880952Y-91883333D02*
X106480952Y-91883333D01*
X106480952Y-91730952D01*
X106500000Y-91692857D01*
X106519047Y-91673809D01*
X106557142Y-91654761D01*
X106614285Y-91654761D01*
X106652380Y-91673809D01*
X106671428Y-91692857D01*
X106690476Y-91730952D01*
X106690476Y-91883333D01*
X106880952Y-91273809D02*
X106880952Y-91502380D01*
X106880952Y-91388095D02*
X106480952Y-91388095D01*
X106538095Y-91426190D01*
X106576190Y-91464285D01*
X106595238Y-91502380D01*
X106480952Y-91026190D02*
X106480952Y-90988095D01*
X106500000Y-90950000D01*
X106519047Y-90930952D01*
X106557142Y-90911904D01*
X106633333Y-90892857D01*
X106728571Y-90892857D01*
X106804761Y-90911904D01*
X106842857Y-90930952D01*
X106861904Y-90950000D01*
X106880952Y-90988095D01*
X106880952Y-91026190D01*
X106861904Y-91064285D01*
X106842857Y-91083333D01*
X106804761Y-91102380D01*
X106728571Y-91121428D01*
X106633333Y-91121428D01*
X106557142Y-91102380D01*
X106519047Y-91083333D01*
X106500000Y-91064285D01*
X106480952Y-91026190D01*
%TO.C,R12*%
X99855952Y-91803501D02*
X99665476Y-91936835D01*
X99855952Y-92032073D02*
X99455952Y-92032073D01*
X99455952Y-91879692D01*
X99475000Y-91841597D01*
X99494047Y-91822549D01*
X99532142Y-91803501D01*
X99589285Y-91803501D01*
X99627380Y-91822549D01*
X99646428Y-91841597D01*
X99665476Y-91879692D01*
X99665476Y-92032073D01*
X99855952Y-91422549D02*
X99855952Y-91651120D01*
X99855952Y-91536835D02*
X99455952Y-91536835D01*
X99513095Y-91574930D01*
X99551190Y-91613025D01*
X99570238Y-91651120D01*
X99494047Y-91270168D02*
X99475000Y-91251120D01*
X99455952Y-91213025D01*
X99455952Y-91117787D01*
X99475000Y-91079692D01*
X99494047Y-91060644D01*
X99532142Y-91041597D01*
X99570238Y-91041597D01*
X99627380Y-91060644D01*
X99855952Y-91289216D01*
X99855952Y-91041597D01*
%TO.C,TP11*%
X68330952Y-91845238D02*
X68330952Y-91616666D01*
X68730952Y-91730952D02*
X68330952Y-91730952D01*
X68730952Y-91483333D02*
X68330952Y-91483333D01*
X68330952Y-91330952D01*
X68350000Y-91292857D01*
X68369047Y-91273809D01*
X68407142Y-91254761D01*
X68464285Y-91254761D01*
X68502380Y-91273809D01*
X68521428Y-91292857D01*
X68540476Y-91330952D01*
X68540476Y-91483333D01*
X68730952Y-90873809D02*
X68730952Y-91102380D01*
X68730952Y-90988095D02*
X68330952Y-90988095D01*
X68388095Y-91026190D01*
X68426190Y-91064285D01*
X68445238Y-91102380D01*
X68730952Y-90492857D02*
X68730952Y-90721428D01*
X68730952Y-90607142D02*
X68330952Y-90607142D01*
X68388095Y-90645238D01*
X68426190Y-90683333D01*
X68445238Y-90721428D01*
D10*
%TO.C,CONN1*%
X219511904Y-91857142D02*
X219464285Y-91904761D01*
X219321428Y-91952380D01*
X219226190Y-91952380D01*
X219083333Y-91904761D01*
X218988095Y-91809523D01*
X218940476Y-91714285D01*
X218892857Y-91523809D01*
X218892857Y-91380952D01*
X218940476Y-91190476D01*
X218988095Y-91095238D01*
X219083333Y-91000000D01*
X219226190Y-90952380D01*
X219321428Y-90952380D01*
X219464285Y-91000000D01*
X219511904Y-91047619D01*
X220130952Y-90952380D02*
X220321428Y-90952380D01*
X220416666Y-91000000D01*
X220511904Y-91095238D01*
X220559523Y-91285714D01*
X220559523Y-91619047D01*
X220511904Y-91809523D01*
X220416666Y-91904761D01*
X220321428Y-91952380D01*
X220130952Y-91952380D01*
X220035714Y-91904761D01*
X219940476Y-91809523D01*
X219892857Y-91619047D01*
X219892857Y-91285714D01*
X219940476Y-91095238D01*
X220035714Y-91000000D01*
X220130952Y-90952380D01*
X220988095Y-91952380D02*
X220988095Y-90952380D01*
X221559523Y-91952380D01*
X221559523Y-90952380D01*
X222035714Y-91952380D02*
X222035714Y-90952380D01*
X222607142Y-91952380D01*
X222607142Y-90952380D01*
X223607142Y-91952380D02*
X223035714Y-91952380D01*
X223321428Y-91952380D02*
X223321428Y-90952380D01*
X223226190Y-91095238D01*
X223130952Y-91190476D01*
X223035714Y-91238095D01*
D13*
%TO.C,C3*%
X184858333Y-92367857D02*
X184839285Y-92386904D01*
X184782142Y-92405952D01*
X184744047Y-92405952D01*
X184686904Y-92386904D01*
X184648809Y-92348809D01*
X184629761Y-92310714D01*
X184610714Y-92234523D01*
X184610714Y-92177380D01*
X184629761Y-92101190D01*
X184648809Y-92063095D01*
X184686904Y-92025000D01*
X184744047Y-92005952D01*
X184782142Y-92005952D01*
X184839285Y-92025000D01*
X184858333Y-92044047D01*
X184991666Y-92005952D02*
X185239285Y-92005952D01*
X185105952Y-92158333D01*
X185163095Y-92158333D01*
X185201190Y-92177380D01*
X185220238Y-92196428D01*
X185239285Y-92234523D01*
X185239285Y-92329761D01*
X185220238Y-92367857D01*
X185201190Y-92386904D01*
X185163095Y-92405952D01*
X185048809Y-92405952D01*
X185010714Y-92386904D01*
X184991666Y-92367857D01*
%TO.C,R8*%
X188583333Y-90680952D02*
X188450000Y-90490476D01*
X188354761Y-90680952D02*
X188354761Y-90280952D01*
X188507142Y-90280952D01*
X188545238Y-90300000D01*
X188564285Y-90319047D01*
X188583333Y-90357142D01*
X188583333Y-90414285D01*
X188564285Y-90452380D01*
X188545238Y-90471428D01*
X188507142Y-90490476D01*
X188354761Y-90490476D01*
X188811904Y-90452380D02*
X188773809Y-90433333D01*
X188754761Y-90414285D01*
X188735714Y-90376190D01*
X188735714Y-90357142D01*
X188754761Y-90319047D01*
X188773809Y-90300000D01*
X188811904Y-90280952D01*
X188888095Y-90280952D01*
X188926190Y-90300000D01*
X188945238Y-90319047D01*
X188964285Y-90357142D01*
X188964285Y-90376190D01*
X188945238Y-90414285D01*
X188926190Y-90433333D01*
X188888095Y-90452380D01*
X188811904Y-90452380D01*
X188773809Y-90471428D01*
X188754761Y-90490476D01*
X188735714Y-90528571D01*
X188735714Y-90604761D01*
X188754761Y-90642857D01*
X188773809Y-90661904D01*
X188811904Y-90680952D01*
X188888095Y-90680952D01*
X188926190Y-90661904D01*
X188945238Y-90642857D01*
X188964285Y-90604761D01*
X188964285Y-90528571D01*
X188945238Y-90490476D01*
X188926190Y-90471428D01*
X188888095Y-90452380D01*
%TO.C,R13*%
X64330952Y-91717142D02*
X64140476Y-91850476D01*
X64330952Y-91945714D02*
X63930952Y-91945714D01*
X63930952Y-91793333D01*
X63950000Y-91755238D01*
X63969047Y-91736190D01*
X64007142Y-91717142D01*
X64064285Y-91717142D01*
X64102380Y-91736190D01*
X64121428Y-91755238D01*
X64140476Y-91793333D01*
X64140476Y-91945714D01*
X64330952Y-91336190D02*
X64330952Y-91564761D01*
X64330952Y-91450476D02*
X63930952Y-91450476D01*
X63988095Y-91488571D01*
X64026190Y-91526666D01*
X64045238Y-91564761D01*
X63930952Y-91202857D02*
X63930952Y-90955238D01*
X64083333Y-91088571D01*
X64083333Y-91031428D01*
X64102380Y-90993333D01*
X64121428Y-90974285D01*
X64159523Y-90955238D01*
X64254761Y-90955238D01*
X64292857Y-90974285D01*
X64311904Y-90993333D01*
X64330952Y-91031428D01*
X64330952Y-91145714D01*
X64311904Y-91183809D01*
X64292857Y-91202857D01*
%TO.C,R11*%
X97230952Y-91482142D02*
X97040476Y-91615476D01*
X97230952Y-91710714D02*
X96830952Y-91710714D01*
X96830952Y-91558333D01*
X96850000Y-91520238D01*
X96869047Y-91501190D01*
X96907142Y-91482142D01*
X96964285Y-91482142D01*
X97002380Y-91501190D01*
X97021428Y-91520238D01*
X97040476Y-91558333D01*
X97040476Y-91710714D01*
X97230952Y-91101190D02*
X97230952Y-91329761D01*
X97230952Y-91215476D02*
X96830952Y-91215476D01*
X96888095Y-91253571D01*
X96926190Y-91291666D01*
X96945238Y-91329761D01*
X97230952Y-90720238D02*
X97230952Y-90948809D01*
X97230952Y-90834523D02*
X96830952Y-90834523D01*
X96888095Y-90872619D01*
X96926190Y-90910714D01*
X96945238Y-90948809D01*
%TO.C,C2*%
X186758333Y-90542857D02*
X186739285Y-90561904D01*
X186682142Y-90580952D01*
X186644047Y-90580952D01*
X186586904Y-90561904D01*
X186548809Y-90523809D01*
X186529761Y-90485714D01*
X186510714Y-90409523D01*
X186510714Y-90352380D01*
X186529761Y-90276190D01*
X186548809Y-90238095D01*
X186586904Y-90200000D01*
X186644047Y-90180952D01*
X186682142Y-90180952D01*
X186739285Y-90200000D01*
X186758333Y-90219047D01*
X186910714Y-90219047D02*
X186929761Y-90200000D01*
X186967857Y-90180952D01*
X187063095Y-90180952D01*
X187101190Y-90200000D01*
X187120238Y-90219047D01*
X187139285Y-90257142D01*
X187139285Y-90295238D01*
X187120238Y-90352380D01*
X186891666Y-90580952D01*
X187139285Y-90580952D01*
%TO.C,C20*%
X139967857Y-90367857D02*
X139948809Y-90386904D01*
X139891666Y-90405952D01*
X139853571Y-90405952D01*
X139796428Y-90386904D01*
X139758333Y-90348809D01*
X139739285Y-90310714D01*
X139720238Y-90234523D01*
X139720238Y-90177380D01*
X139739285Y-90101190D01*
X139758333Y-90063095D01*
X139796428Y-90025000D01*
X139853571Y-90005952D01*
X139891666Y-90005952D01*
X139948809Y-90025000D01*
X139967857Y-90044047D01*
X140120238Y-90044047D02*
X140139285Y-90025000D01*
X140177380Y-90005952D01*
X140272619Y-90005952D01*
X140310714Y-90025000D01*
X140329761Y-90044047D01*
X140348809Y-90082142D01*
X140348809Y-90120238D01*
X140329761Y-90177380D01*
X140101190Y-90405952D01*
X140348809Y-90405952D01*
X140596428Y-90005952D02*
X140634523Y-90005952D01*
X140672619Y-90025000D01*
X140691666Y-90044047D01*
X140710714Y-90082142D01*
X140729761Y-90158333D01*
X140729761Y-90253571D01*
X140710714Y-90329761D01*
X140691666Y-90367857D01*
X140672619Y-90386904D01*
X140634523Y-90405952D01*
X140596428Y-90405952D01*
X140558333Y-90386904D01*
X140539285Y-90367857D01*
X140520238Y-90329761D01*
X140501190Y-90253571D01*
X140501190Y-90158333D01*
X140520238Y-90082142D01*
X140539285Y-90044047D01*
X140558333Y-90025000D01*
X140596428Y-90005952D01*
%TO.C,R9*%
X142580952Y-91391666D02*
X142390476Y-91525000D01*
X142580952Y-91620238D02*
X142180952Y-91620238D01*
X142180952Y-91467857D01*
X142200000Y-91429761D01*
X142219047Y-91410714D01*
X142257142Y-91391666D01*
X142314285Y-91391666D01*
X142352380Y-91410714D01*
X142371428Y-91429761D01*
X142390476Y-91467857D01*
X142390476Y-91620238D01*
X142580952Y-91201190D02*
X142580952Y-91125000D01*
X142561904Y-91086904D01*
X142542857Y-91067857D01*
X142485714Y-91029761D01*
X142409523Y-91010714D01*
X142257142Y-91010714D01*
X142219047Y-91029761D01*
X142200000Y-91048809D01*
X142180952Y-91086904D01*
X142180952Y-91163095D01*
X142200000Y-91201190D01*
X142219047Y-91220238D01*
X142257142Y-91239285D01*
X142352380Y-91239285D01*
X142390476Y-91220238D01*
X142409523Y-91201190D01*
X142428571Y-91163095D01*
X142428571Y-91086904D01*
X142409523Y-91048809D01*
X142390476Y-91029761D01*
X142352380Y-91010714D01*
%TO.C,C23*%
X96678857Y-91406642D02*
X96697904Y-91425690D01*
X96716952Y-91482833D01*
X96716952Y-91520928D01*
X96697904Y-91578071D01*
X96659809Y-91616166D01*
X96621714Y-91635214D01*
X96545523Y-91654261D01*
X96488380Y-91654261D01*
X96412190Y-91635214D01*
X96374095Y-91616166D01*
X96336000Y-91578071D01*
X96316952Y-91520928D01*
X96316952Y-91482833D01*
X96336000Y-91425690D01*
X96355047Y-91406642D01*
X96355047Y-91254261D02*
X96336000Y-91235214D01*
X96316952Y-91197119D01*
X96316952Y-91101880D01*
X96336000Y-91063785D01*
X96355047Y-91044738D01*
X96393142Y-91025690D01*
X96431238Y-91025690D01*
X96488380Y-91044738D01*
X96716952Y-91273309D01*
X96716952Y-91025690D01*
X96316952Y-90892357D02*
X96316952Y-90644738D01*
X96469333Y-90778071D01*
X96469333Y-90720928D01*
X96488380Y-90682833D01*
X96507428Y-90663785D01*
X96545523Y-90644738D01*
X96640761Y-90644738D01*
X96678857Y-90663785D01*
X96697904Y-90682833D01*
X96716952Y-90720928D01*
X96716952Y-90835214D01*
X96697904Y-90873309D01*
X96678857Y-90892357D01*
%TO.C,R14*%
X61705952Y-91732142D02*
X61515476Y-91865476D01*
X61705952Y-91960714D02*
X61305952Y-91960714D01*
X61305952Y-91808333D01*
X61325000Y-91770238D01*
X61344047Y-91751190D01*
X61382142Y-91732142D01*
X61439285Y-91732142D01*
X61477380Y-91751190D01*
X61496428Y-91770238D01*
X61515476Y-91808333D01*
X61515476Y-91960714D01*
X61705952Y-91351190D02*
X61705952Y-91579761D01*
X61705952Y-91465476D02*
X61305952Y-91465476D01*
X61363095Y-91503571D01*
X61401190Y-91541666D01*
X61420238Y-91579761D01*
X61439285Y-91008333D02*
X61705952Y-91008333D01*
X61286904Y-91103571D02*
X61572619Y-91198809D01*
X61572619Y-90951190D01*
%TO.C,R1*%
X187583333Y-90730952D02*
X187450000Y-90540476D01*
X187354761Y-90730952D02*
X187354761Y-90330952D01*
X187507142Y-90330952D01*
X187545238Y-90350000D01*
X187564285Y-90369047D01*
X187583333Y-90407142D01*
X187583333Y-90464285D01*
X187564285Y-90502380D01*
X187545238Y-90521428D01*
X187507142Y-90540476D01*
X187354761Y-90540476D01*
X187964285Y-90730952D02*
X187735714Y-90730952D01*
X187850000Y-90730952D02*
X187850000Y-90330952D01*
X187811904Y-90388095D01*
X187773809Y-90426190D01*
X187735714Y-90445238D01*
%TO.C,TP1*%
X178825717Y-92265472D02*
X179054288Y-92265472D01*
X178940002Y-92665472D02*
X178940002Y-92265472D01*
X179187621Y-92665472D02*
X179187621Y-92265472D01*
X179340002Y-92265472D01*
X179378098Y-92284520D01*
X179397145Y-92303567D01*
X179416193Y-92341662D01*
X179416193Y-92398805D01*
X179397145Y-92436900D01*
X179378098Y-92455948D01*
X179340002Y-92474996D01*
X179187621Y-92474996D01*
X179797145Y-92665472D02*
X179568574Y-92665472D01*
X179682859Y-92665472D02*
X179682859Y-92265472D01*
X179644764Y-92322615D01*
X179606669Y-92360710D01*
X179568574Y-92379758D01*
%TO.C,C22*%
X94078857Y-91757142D02*
X94097904Y-91776190D01*
X94116952Y-91833333D01*
X94116952Y-91871428D01*
X94097904Y-91928571D01*
X94059809Y-91966666D01*
X94021714Y-91985714D01*
X93945523Y-92004761D01*
X93888380Y-92004761D01*
X93812190Y-91985714D01*
X93774095Y-91966666D01*
X93736000Y-91928571D01*
X93716952Y-91871428D01*
X93716952Y-91833333D01*
X93736000Y-91776190D01*
X93755047Y-91757142D01*
X93755047Y-91604761D02*
X93736000Y-91585714D01*
X93716952Y-91547619D01*
X93716952Y-91452380D01*
X93736000Y-91414285D01*
X93755047Y-91395238D01*
X93793142Y-91376190D01*
X93831238Y-91376190D01*
X93888380Y-91395238D01*
X94116952Y-91623809D01*
X94116952Y-91376190D01*
X93755047Y-91223809D02*
X93736000Y-91204761D01*
X93716952Y-91166666D01*
X93716952Y-91071428D01*
X93736000Y-91033333D01*
X93755047Y-91014285D01*
X93793142Y-90995238D01*
X93831238Y-90995238D01*
X93888380Y-91014285D01*
X94116952Y-91242857D01*
X94116952Y-90995238D01*
%TO.C,C21*%
X141167857Y-90367857D02*
X141148809Y-90386904D01*
X141091666Y-90405952D01*
X141053571Y-90405952D01*
X140996428Y-90386904D01*
X140958333Y-90348809D01*
X140939285Y-90310714D01*
X140920238Y-90234523D01*
X140920238Y-90177380D01*
X140939285Y-90101190D01*
X140958333Y-90063095D01*
X140996428Y-90025000D01*
X141053571Y-90005952D01*
X141091666Y-90005952D01*
X141148809Y-90025000D01*
X141167857Y-90044047D01*
X141320238Y-90044047D02*
X141339285Y-90025000D01*
X141377380Y-90005952D01*
X141472619Y-90005952D01*
X141510714Y-90025000D01*
X141529761Y-90044047D01*
X141548809Y-90082142D01*
X141548809Y-90120238D01*
X141529761Y-90177380D01*
X141301190Y-90405952D01*
X141548809Y-90405952D01*
X141929761Y-90405952D02*
X141701190Y-90405952D01*
X141815476Y-90405952D02*
X141815476Y-90005952D01*
X141777380Y-90063095D01*
X141739285Y-90101190D01*
X141701190Y-90120238D01*
%TO.C,U6*%
X104111431Y-91330261D02*
X104435240Y-91330261D01*
X104473336Y-91311214D01*
X104492383Y-91292166D01*
X104511431Y-91254071D01*
X104511431Y-91177880D01*
X104492383Y-91139785D01*
X104473336Y-91120738D01*
X104435240Y-91101690D01*
X104111431Y-91101690D01*
X104111431Y-90739785D02*
X104111431Y-90815976D01*
X104130479Y-90854071D01*
X104149526Y-90873119D01*
X104206669Y-90911214D01*
X104282859Y-90930261D01*
X104435240Y-90930261D01*
X104473336Y-90911214D01*
X104492383Y-90892166D01*
X104511431Y-90854071D01*
X104511431Y-90777880D01*
X104492383Y-90739785D01*
X104473336Y-90720738D01*
X104435240Y-90701690D01*
X104340002Y-90701690D01*
X104301907Y-90720738D01*
X104282859Y-90739785D01*
X104263812Y-90777880D01*
X104263812Y-90854071D01*
X104282859Y-90892166D01*
X104301907Y-90911214D01*
X104340002Y-90930261D01*
%TO.C,U5*%
X149111431Y-91654761D02*
X149435240Y-91654761D01*
X149473336Y-91635714D01*
X149492383Y-91616666D01*
X149511431Y-91578571D01*
X149511431Y-91502380D01*
X149492383Y-91464285D01*
X149473336Y-91445238D01*
X149435240Y-91426190D01*
X149111431Y-91426190D01*
X149111431Y-91045238D02*
X149111431Y-91235714D01*
X149301907Y-91254761D01*
X149282859Y-91235714D01*
X149263812Y-91197619D01*
X149263812Y-91102380D01*
X149282859Y-91064285D01*
X149301907Y-91045238D01*
X149340002Y-91026190D01*
X149435240Y-91026190D01*
X149473336Y-91045238D01*
X149492383Y-91064285D01*
X149511431Y-91102380D01*
X149511431Y-91197619D01*
X149492383Y-91235714D01*
X149473336Y-91254761D01*
%TO.C,U2*%
X193847431Y-91379761D02*
X194171240Y-91379761D01*
X194209336Y-91360714D01*
X194228383Y-91341666D01*
X194247431Y-91303571D01*
X194247431Y-91227380D01*
X194228383Y-91189285D01*
X194209336Y-91170238D01*
X194171240Y-91151190D01*
X193847431Y-91151190D01*
X193885526Y-90979761D02*
X193866479Y-90960714D01*
X193847431Y-90922619D01*
X193847431Y-90827380D01*
X193866479Y-90789285D01*
X193885526Y-90770238D01*
X193923621Y-90751190D01*
X193961717Y-90751190D01*
X194018859Y-90770238D01*
X194247431Y-90998809D01*
X194247431Y-90751190D01*
%TO.C,U7*%
X55695431Y-91529761D02*
X56019240Y-91529761D01*
X56057336Y-91510714D01*
X56076383Y-91491666D01*
X56095431Y-91453571D01*
X56095431Y-91377380D01*
X56076383Y-91339285D01*
X56057336Y-91320238D01*
X56019240Y-91301190D01*
X55695431Y-91301190D01*
X55695431Y-91148809D02*
X55695431Y-90882142D01*
X56095431Y-91053571D01*
%TO.C,TP7*%
X196430952Y-91904761D02*
X196430952Y-91676190D01*
X196830952Y-91790476D02*
X196430952Y-91790476D01*
X196830952Y-91542857D02*
X196430952Y-91542857D01*
X196430952Y-91390476D01*
X196450000Y-91352380D01*
X196469047Y-91333333D01*
X196507142Y-91314285D01*
X196564285Y-91314285D01*
X196602380Y-91333333D01*
X196621428Y-91352380D01*
X196640476Y-91390476D01*
X196640476Y-91542857D01*
X196430952Y-91180952D02*
X196430952Y-90914285D01*
X196830952Y-91085714D01*
D14*
%TO.C,C25*%
X65657836Y-92660000D02*
X65442164Y-92660000D01*
X65657836Y-91940000D02*
X65442164Y-91940000D01*
%TO.C,R10*%
X144480000Y-91993641D02*
X144480000Y-91686359D01*
X143720000Y-91993641D02*
X143720000Y-91686359D01*
%TO.C,C24*%
X65657836Y-91700000D02*
X65442164Y-91700000D01*
X65657836Y-90980000D02*
X65442164Y-90980000D01*
%TO.C,R12*%
X98570000Y-91853641D02*
X98570000Y-91546359D01*
X99330000Y-91853641D02*
X99330000Y-91546359D01*
D15*
%TO.C,CONN1*%
X227996000Y-92454500D02*
X227996000Y-90784500D01*
X224136000Y-92454500D02*
X227996000Y-92454500D01*
X227996000Y-90784500D02*
X224136000Y-90784500D01*
X224136000Y-90784500D02*
X224136000Y-92454500D01*
D14*
%TO.C,C3*%
X185410000Y-90912164D02*
X185410000Y-91127836D01*
X184690000Y-90912164D02*
X184690000Y-91127836D01*
%TO.C,R8*%
X188286479Y-91877661D02*
X188286479Y-91570379D01*
X189046479Y-91877661D02*
X189046479Y-91570379D01*
%TO.C,R13*%
X62920000Y-91653641D02*
X62920000Y-91346359D01*
X63680000Y-91653641D02*
X63680000Y-91346359D01*
%TO.C,R11*%
X97570000Y-91546359D02*
X97570000Y-91853641D01*
X98330000Y-91546359D02*
X98330000Y-91853641D01*
%TO.C,C2*%
X186410000Y-90912164D02*
X186410000Y-91127836D01*
X185690000Y-90912164D02*
X185690000Y-91127836D01*
%TO.C,C20*%
X140560000Y-91242164D02*
X140560000Y-91457836D01*
X139840000Y-91242164D02*
X139840000Y-91457836D01*
%TO.C,R9*%
X142770000Y-91676359D02*
X142770000Y-91983641D01*
X143530000Y-91676359D02*
X143530000Y-91983641D01*
%TO.C,C23*%
X96110000Y-91392164D02*
X96110000Y-91607836D01*
X95390000Y-91392164D02*
X95390000Y-91607836D01*
%TO.C,R14*%
X61920000Y-91346359D02*
X61920000Y-91653641D01*
X62680000Y-91346359D02*
X62680000Y-91653641D01*
%TO.C,R1*%
X188046479Y-91570379D02*
X188046479Y-91877661D01*
X187286479Y-91570379D02*
X187286479Y-91877661D01*
%TO.C,C22*%
X95110000Y-91392164D02*
X95110000Y-91607836D01*
X94390000Y-91392164D02*
X94390000Y-91607836D01*
%TO.C,C21*%
X141660000Y-91242164D02*
X141660000Y-91457836D01*
X140940000Y-91242164D02*
X140940000Y-91457836D01*
D16*
%TO.C,U6*%
X103566479Y-90025000D02*
X103566479Y-92675000D01*
X101840479Y-90025000D02*
X103566479Y-90025000D01*
X103566479Y-92675000D02*
X101840479Y-92675000D01*
D13*
X100331479Y-93001000D02*
G75*
G03*
X100331479Y-93001000I-50000J0D01*
G01*
D16*
%TO.C,U5*%
X148566479Y-90025000D02*
X148566479Y-92675000D01*
X148566479Y-92675000D02*
X146840479Y-92675000D01*
X146840479Y-90025000D02*
X148566479Y-90025000D01*
D13*
X145331479Y-93001000D02*
G75*
G03*
X145331479Y-93001000I-50000J0D01*
G01*
D16*
%TO.C,U2*%
X193566479Y-90025000D02*
X193566479Y-92675000D01*
X193566479Y-92675000D02*
X191840479Y-92675000D01*
X191840479Y-90025000D02*
X193566479Y-90025000D01*
D13*
X190331479Y-93001000D02*
G75*
G03*
X190331479Y-93001000I-50000J0D01*
G01*
D16*
%TO.C,U7*%
X58040479Y-92675000D02*
X56314479Y-92675000D01*
X56314479Y-92675000D02*
X56314479Y-90025000D01*
X56314479Y-90025000D02*
X58040479Y-90025000D01*
D13*
X59649479Y-89699000D02*
G75*
G03*
X59649479Y-89699000I-50000J0D01*
G01*
%TD*%
%LPC*%
D17*
%TO.C,U6*%
X103090479Y-91350000D02*
G75*
G03*
X103090479Y-91350000I-650000J0D01*
G01*
%TO.C,U5*%
X148090479Y-91350000D02*
G75*
G03*
X148090479Y-91350000I-650000J0D01*
G01*
%TO.C,U2*%
X193090479Y-91350000D02*
G75*
G03*
X193090479Y-91350000I-650000J0D01*
G01*
%TO.C,U7*%
X58090479Y-91350000D02*
G75*
G03*
X58090479Y-91350000I-650000J0D01*
G01*
%TD*%
D18*
%TO.C,C25*%
X66030000Y-92300000D03*
X65070000Y-92300000D03*
%TD*%
D19*
%TO.C,R10*%
X144100000Y-92350000D03*
X144100000Y-91330000D03*
%TD*%
D20*
%TO.C,TP8*%
X150650000Y-91450000D03*
%TD*%
D18*
%TO.C,C24*%
X66030000Y-91340000D03*
X65070000Y-91340000D03*
%TD*%
D20*
%TO.C,TP2*%
X181830479Y-91484520D03*
%TD*%
%TO.C,TP10*%
X105500000Y-91500000D03*
%TD*%
D19*
%TO.C,R12*%
X98950000Y-92210000D03*
X98950000Y-91190000D03*
%TD*%
D20*
%TO.C,TP11*%
X69600000Y-91200000D03*
%TD*%
D21*
%TO.C,CONN1*%
X225066000Y-90544500D03*
D22*
X225066000Y-90969500D03*
X225466000Y-90969500D03*
D21*
X225466000Y-90544500D03*
D22*
X225866000Y-90969500D03*
D21*
X225866000Y-90544500D03*
X226266000Y-90544500D03*
D22*
X226266000Y-90969500D03*
X226666000Y-90969500D03*
D21*
X226666000Y-90544500D03*
D22*
X227066000Y-90969500D03*
D21*
X227066000Y-90544500D03*
D22*
X225066000Y-92269500D03*
D21*
X225066000Y-92694500D03*
D22*
X225466000Y-92269500D03*
D21*
X225466000Y-92694500D03*
D22*
X225866000Y-92269500D03*
D21*
X225866000Y-92694500D03*
D22*
X226266000Y-92269500D03*
D21*
X226266000Y-92694500D03*
X226666000Y-92694500D03*
D22*
X226666000Y-92269500D03*
X227066000Y-92269500D03*
D21*
X227066000Y-92694500D03*
D23*
X227616000Y-91019500D03*
X224516000Y-91019500D03*
X224516000Y-92279500D03*
X227616000Y-92279500D03*
%TD*%
D24*
%TO.C,C3*%
X185050000Y-90540000D03*
X185050000Y-91500000D03*
%TD*%
D19*
%TO.C,R8*%
X188666479Y-92234020D03*
X188666479Y-91214020D03*
%TD*%
%TO.C,R13*%
X63300000Y-92010000D03*
X63300000Y-90990000D03*
%TD*%
D25*
%TO.C,R11*%
X97950000Y-91190000D03*
X97950000Y-92210000D03*
%TD*%
D24*
%TO.C,C2*%
X186050000Y-90540000D03*
X186050000Y-91500000D03*
%TD*%
%TO.C,C20*%
X140200000Y-90870000D03*
X140200000Y-91830000D03*
%TD*%
D25*
%TO.C,R9*%
X143150000Y-91320000D03*
X143150000Y-92340000D03*
%TD*%
D24*
%TO.C,C23*%
X95750000Y-91020000D03*
X95750000Y-91980000D03*
%TD*%
D25*
%TO.C,R14*%
X62300000Y-90990000D03*
X62300000Y-92010000D03*
%TD*%
%TO.C,R1*%
X187666479Y-91214020D03*
X187666479Y-92234020D03*
%TD*%
D20*
%TO.C,TP1*%
X179330479Y-91484520D03*
%TD*%
D24*
%TO.C,C22*%
X94750000Y-91020000D03*
X94750000Y-91980000D03*
%TD*%
%TO.C,C21*%
X141300000Y-90870000D03*
X141300000Y-91830000D03*
%TD*%
D26*
%TO.C,U6*%
X102440479Y-91350000D03*
D27*
X100366479Y-92187500D03*
X101188479Y-92187500D03*
X101188479Y-90512500D03*
X100366479Y-90512500D03*
%TD*%
D26*
%TO.C,U5*%
X147440479Y-91350000D03*
D27*
X145366479Y-92187500D03*
X146188479Y-92187500D03*
X146188479Y-90512500D03*
X145366479Y-90512500D03*
%TD*%
D26*
%TO.C,U2*%
X192440479Y-91350000D03*
D27*
X190366479Y-92187500D03*
X191188479Y-92187500D03*
X191188479Y-90512500D03*
X190366479Y-90512500D03*
%TD*%
D26*
%TO.C,U7*%
X57440479Y-91350000D03*
D27*
X59514479Y-90512500D03*
X58692479Y-90512500D03*
X58692479Y-92187500D03*
X59514479Y-92187500D03*
%TD*%
D20*
%TO.C,TP7*%
X195250000Y-91400000D03*
%TD*%
M02*
