%TF.GenerationSoftware,KiCad,Pcbnew,6.0.4-6f826c9f35~116~ubuntu20.04.1*%
%TF.CreationDate,2022-03-30T16:20:37-04:00*%
%TF.ProjectId,msa,6d73612e-6b69-4636-9164-5f7063625858,rev?*%
%TF.SameCoordinates,Original*%
%TF.FileFunction,Soldermask,Top*%
%TF.FilePolarity,Negative*%
%FSLAX46Y46*%
G04 Gerber Fmt 4.6, Leading zero omitted, Abs format (unit mm)*
G04 Created by KiCad (PCBNEW 6.0.4-6f826c9f35~116~ubuntu20.04.1) date 2022-03-30 16:20:37*
%MOMM*%
%LPD*%
G01*
G04 APERTURE LIST*
G04 Aperture macros list*
%AMRoundRect*
0 Rectangle with rounded corners*
0 $1 Rounding radius*
0 $2 $3 $4 $5 $6 $7 $8 $9 X,Y pos of 4 corners*
0 Add a 4 corners polygon primitive as box body*
4,1,4,$2,$3,$4,$5,$6,$7,$8,$9,$2,$3,0*
0 Add four circle primitives for the rounded corners*
1,1,$1+$1,$2,$3*
1,1,$1+$1,$4,$5*
1,1,$1+$1,$6,$7*
1,1,$1+$1,$8,$9*
0 Add four rect primitives between the rounded corners*
20,1,$1+$1,$2,$3,$4,$5,0*
20,1,$1+$1,$4,$5,$6,$7,0*
20,1,$1+$1,$6,$7,$8,$9,0*
20,1,$1+$1,$8,$9,$2,$3,0*%
G04 Aperture macros list end*
%ADD10C,0.300000*%
%ADD11RoundRect,0.140000X0.140000X0.170000X-0.140000X0.170000X-0.140000X-0.170000X0.140000X-0.170000X0*%
%ADD12RoundRect,0.135000X0.185000X-0.135000X0.185000X0.135000X-0.185000X0.135000X-0.185000X-0.135000X0*%
%ADD13C,1.000000*%
%ADD14R,0.240000X0.350000*%
%ADD15R,0.200000X0.500000*%
%ADD16R,0.300000X0.600000*%
%ADD17RoundRect,0.140000X-0.170000X0.140000X-0.170000X-0.140000X0.170000X-0.140000X0.170000X0.140000X0*%
%ADD18RoundRect,0.135000X-0.185000X0.135000X-0.185000X-0.135000X0.185000X-0.135000X0.185000X0.135000X0*%
%ADD19C,0.500000*%
%ADD20R,0.522000X0.725000*%
G04 APERTURE END LIST*
D10*
%TO.C,U6*%
X103090479Y-91350000D02*
G75*
G03*
X103090479Y-91350000I-650000J0D01*
G01*
%TO.C,U5*%
X148090479Y-91350000D02*
G75*
G03*
X148090479Y-91350000I-650000J0D01*
G01*
%TO.C,U2*%
X193090479Y-91350000D02*
G75*
G03*
X193090479Y-91350000I-650000J0D01*
G01*
%TO.C,U7*%
X58090479Y-91350000D02*
G75*
G03*
X58090479Y-91350000I-650000J0D01*
G01*
%TD*%
D11*
%TO.C,C25*%
X66030000Y-92300000D03*
X65070000Y-92300000D03*
%TD*%
D12*
%TO.C,R10*%
X144100000Y-92350000D03*
X144100000Y-91330000D03*
%TD*%
D13*
%TO.C,TP8*%
X150650000Y-91450000D03*
%TD*%
D11*
%TO.C,C24*%
X66030000Y-91340000D03*
X65070000Y-91340000D03*
%TD*%
D13*
%TO.C,TP2*%
X181830479Y-91484520D03*
%TD*%
%TO.C,TP10*%
X105500000Y-91500000D03*
%TD*%
D12*
%TO.C,R12*%
X98950000Y-92210000D03*
X98950000Y-91190000D03*
%TD*%
D13*
%TO.C,TP11*%
X69600000Y-91200000D03*
%TD*%
D14*
%TO.C,CONN1*%
X225066000Y-90544500D03*
D15*
X225066000Y-90969500D03*
X225466000Y-90969500D03*
D14*
X225466000Y-90544500D03*
D15*
X225866000Y-90969500D03*
D14*
X225866000Y-90544500D03*
X226266000Y-90544500D03*
D15*
X226266000Y-90969500D03*
X226666000Y-90969500D03*
D14*
X226666000Y-90544500D03*
D15*
X227066000Y-90969500D03*
D14*
X227066000Y-90544500D03*
D15*
X225066000Y-92269500D03*
D14*
X225066000Y-92694500D03*
D15*
X225466000Y-92269500D03*
D14*
X225466000Y-92694500D03*
D15*
X225866000Y-92269500D03*
D14*
X225866000Y-92694500D03*
D15*
X226266000Y-92269500D03*
D14*
X226266000Y-92694500D03*
X226666000Y-92694500D03*
D15*
X226666000Y-92269500D03*
X227066000Y-92269500D03*
D14*
X227066000Y-92694500D03*
D16*
X227616000Y-91019500D03*
X224516000Y-91019500D03*
X224516000Y-92279500D03*
X227616000Y-92279500D03*
%TD*%
D17*
%TO.C,C3*%
X185050000Y-90540000D03*
X185050000Y-91500000D03*
%TD*%
D12*
%TO.C,R8*%
X188666479Y-92234020D03*
X188666479Y-91214020D03*
%TD*%
%TO.C,R13*%
X63300000Y-92010000D03*
X63300000Y-90990000D03*
%TD*%
D18*
%TO.C,R11*%
X97950000Y-91190000D03*
X97950000Y-92210000D03*
%TD*%
D17*
%TO.C,C2*%
X186050000Y-90540000D03*
X186050000Y-91500000D03*
%TD*%
%TO.C,C20*%
X140200000Y-90870000D03*
X140200000Y-91830000D03*
%TD*%
D18*
%TO.C,R9*%
X143150000Y-91320000D03*
X143150000Y-92340000D03*
%TD*%
D17*
%TO.C,C23*%
X95750000Y-91020000D03*
X95750000Y-91980000D03*
%TD*%
D18*
%TO.C,R14*%
X62300000Y-90990000D03*
X62300000Y-92010000D03*
%TD*%
%TO.C,R1*%
X187666479Y-91214020D03*
X187666479Y-92234020D03*
%TD*%
D13*
%TO.C,TP1*%
X179330479Y-91484520D03*
%TD*%
D17*
%TO.C,C22*%
X94750000Y-91020000D03*
X94750000Y-91980000D03*
%TD*%
%TO.C,C21*%
X141300000Y-90870000D03*
X141300000Y-91830000D03*
%TD*%
D19*
%TO.C,U6*%
X102440479Y-91350000D03*
D20*
X100366479Y-92187500D03*
X101188479Y-92187500D03*
X101188479Y-90512500D03*
X100366479Y-90512500D03*
%TD*%
D19*
%TO.C,U5*%
X147440479Y-91350000D03*
D20*
X145366479Y-92187500D03*
X146188479Y-92187500D03*
X146188479Y-90512500D03*
X145366479Y-90512500D03*
%TD*%
D19*
%TO.C,U2*%
X192440479Y-91350000D03*
D20*
X190366479Y-92187500D03*
X191188479Y-92187500D03*
X191188479Y-90512500D03*
X190366479Y-90512500D03*
%TD*%
D19*
%TO.C,U7*%
X57440479Y-91350000D03*
D20*
X59514479Y-90512500D03*
X58692479Y-90512500D03*
X58692479Y-92187500D03*
X59514479Y-92187500D03*
%TD*%
D13*
%TO.C,TP7*%
X195250000Y-91400000D03*
%TD*%
M02*
