G04 #@! TF.GenerationSoftware,KiCad,Pcbnew,5.1.5+dfsg1-2build2*
G04 #@! TF.CreationDate,2022-02-10T21:46:42-05:00*
G04 #@! TF.ProjectId,mico,6d69636f-2e6b-4696-9361-645f70636258,0.1*
G04 #@! TF.SameCoordinates,Original*
G04 #@! TF.FileFunction,Copper,L1,Top*
G04 #@! TF.FilePolarity,Positive*
%FSLAX46Y46*%
G04 Gerber Fmt 4.6, Leading zero omitted, Abs format (unit mm)*
G04 Created by KiCad (PCBNEW 5.1.5+dfsg1-2build2) date 2022-02-10 21:46:42*
%MOMM*%
%LPD*%
G04 APERTURE LIST*
%ADD10C,1.428000*%
%ADD11R,1.428000X1.428000*%
%ADD12O,3.500000X1.508000*%
%ADD13O,1.000000X1.000000*%
%ADD14R,1.000000X1.000000*%
%ADD15C,1.000000*%
%ADD16C,0.600000*%
%ADD17C,0.400000*%
%ADD18C,0.160000*%
%ADD19C,0.200000*%
G04 APERTURE END LIST*
D10*
X141900000Y-115500000D03*
X141900000Y-113000000D03*
X141900000Y-111000000D03*
D11*
X141900000Y-108500000D03*
D12*
X144000000Y-106150000D03*
X144000000Y-117850000D03*
D13*
X124390000Y-105200000D03*
X125660000Y-105200000D03*
X126930000Y-105200000D03*
D14*
X128200000Y-105200000D03*
D15*
X130048000Y-104648000D03*
D13*
X131670000Y-119000000D03*
D15*
X130400000Y-119000000D03*
X122555000Y-100965000D03*
D16*
X139000000Y-111000000D03*
X131400000Y-111000000D03*
X131400000Y-109000000D03*
X129400000Y-109000000D03*
X130400000Y-110000000D03*
X130150000Y-117500000D03*
X123400000Y-106000000D03*
X134900000Y-105250000D03*
X127102507Y-106495032D03*
X136650000Y-113250000D03*
X138025000Y-110125000D03*
X129400000Y-111000000D03*
X137000000Y-104600000D03*
X134200000Y-117400000D03*
X139800000Y-107000000D03*
X125650000Y-128858000D03*
X125650000Y-133430000D03*
X125650000Y-172038000D03*
X125650000Y-176610000D03*
X124968000Y-89916000D03*
X124968000Y-84836000D03*
X127508000Y-45212000D03*
X118872000Y-48260000D03*
X125650000Y-119000000D03*
X123920000Y-109480000D03*
X135900000Y-109750000D03*
X124650000Y-111000000D03*
X131907866Y-115539330D03*
X137400000Y-116600000D03*
X136400000Y-106000000D03*
X121200000Y-108200000D03*
X120057010Y-131233010D03*
X121920000Y-133096000D03*
X119831332Y-174413010D03*
X121920000Y-176276000D03*
X119718990Y-87206990D03*
X120904000Y-44196000D03*
X124968000Y-47244000D03*
X122428000Y-45212000D03*
X121920000Y-89408000D03*
X124400000Y-108000000D03*
X125600000Y-109400000D03*
X135650000Y-110500000D03*
X135150000Y-107250000D03*
X124390000Y-105200000D03*
X125660000Y-105200000D03*
X133000000Y-119200000D03*
X129150000Y-104500000D03*
X124600000Y-112000000D03*
X127000000Y-113792000D03*
X127000000Y-113792000D03*
X124714000Y-114808000D03*
X131064000Y-114554000D03*
X131572000Y-105664000D03*
X131572000Y-103124000D03*
X130556000Y-103124000D03*
X130600000Y-105620000D03*
X124714000Y-114046000D03*
X128524000Y-114554000D03*
X119888000Y-175260000D03*
X119888000Y-179324000D03*
X119380000Y-132588000D03*
X119888000Y-136144000D03*
X119634000Y-88138000D03*
X119888000Y-91948000D03*
D17*
X139000000Y-111000000D02*
X140200000Y-111000000D01*
X140200000Y-111000000D02*
X140400000Y-110800000D01*
X140400000Y-110800000D02*
X140400000Y-108800000D01*
X140700000Y-108500000D02*
X141900000Y-108500000D01*
X140400000Y-108800000D02*
X140700000Y-108500000D01*
X130250000Y-117400000D02*
X130150000Y-117500000D01*
X130150000Y-118750000D02*
X130400000Y-119000000D01*
X130150000Y-117500000D02*
X130150000Y-118750000D01*
X130400000Y-119000000D02*
X125650000Y-119000000D01*
X134900000Y-105250000D02*
X134900000Y-105000000D01*
X134900000Y-105000000D02*
X135150000Y-104750000D01*
X128200000Y-105200000D02*
X128200000Y-105450000D01*
X127154968Y-106495032D02*
X127102507Y-106495032D01*
X128200000Y-105450000D02*
X127154968Y-106495032D01*
X128200000Y-105200000D02*
X128200000Y-105550000D01*
X136400000Y-113500000D02*
X136650000Y-113250000D01*
X130900000Y-113500000D02*
X136400000Y-113500000D01*
X130650000Y-113500000D02*
X130900000Y-113500000D01*
X135300000Y-104600000D02*
X135150000Y-104750000D01*
X137000000Y-104600000D02*
X135300000Y-104600000D01*
X134200000Y-117400000D02*
X130250000Y-117400000D01*
X138025000Y-110125000D02*
X139675000Y-110125000D01*
X139675000Y-110125000D02*
X139800000Y-110000000D01*
X139800000Y-107800000D02*
X139800000Y-107000000D01*
X139800000Y-110000000D02*
X139800000Y-107800000D01*
X137000000Y-104600000D02*
X139200000Y-104600000D01*
X139800000Y-105200000D02*
X139800000Y-107000000D01*
X139200000Y-104600000D02*
X139800000Y-105200000D01*
X125650000Y-119000000D02*
X125650000Y-128858000D01*
X125650000Y-128858000D02*
X125650000Y-133430000D01*
X125650000Y-133430000D02*
X125650000Y-172038000D01*
X125650000Y-172038000D02*
X125650000Y-176610000D01*
X125650000Y-176610000D02*
X125650000Y-178642000D01*
X124968000Y-85344000D02*
X124968000Y-84836000D01*
X124968000Y-89916000D02*
X124968000Y-85344000D01*
X124968000Y-88392000D02*
X124968000Y-48260000D01*
X124968000Y-48260000D02*
X126492000Y-48260000D01*
X126492000Y-48260000D02*
X127508000Y-47244000D01*
X127508000Y-47244000D02*
X127508000Y-45212000D01*
X127508000Y-45212000D02*
X127508000Y-44704000D01*
D18*
X124968000Y-48260000D02*
X119888000Y-48260000D01*
X119888000Y-48260000D02*
X118872000Y-48260000D01*
X118872000Y-48260000D02*
X118872000Y-48260000D01*
D17*
X123400000Y-104692000D02*
X123400000Y-106000000D01*
X124968000Y-103124000D02*
X123400000Y-104692000D01*
X124968000Y-101308000D02*
X124968000Y-103124000D01*
X123920000Y-109480000D02*
X123920000Y-109820000D01*
X123920000Y-109820000D02*
X124300000Y-110200000D01*
X124300000Y-110200000D02*
X125100000Y-110200000D01*
X125100000Y-110200000D02*
X125900000Y-111000000D01*
X125900000Y-111000000D02*
X125900000Y-113000000D01*
X128240000Y-113000000D02*
X125900000Y-113000000D01*
X128740000Y-113500000D02*
X128240000Y-113000000D01*
X130650000Y-113500000D02*
X128740000Y-113500000D01*
X124968000Y-101308000D02*
X124968000Y-89916000D01*
D18*
X124625000Y-100965000D02*
X124968000Y-101308000D01*
X122555000Y-100965000D02*
X124625000Y-100965000D01*
D17*
X124650000Y-111000000D02*
X123900000Y-111000000D01*
X126930000Y-105720000D02*
X126150000Y-106500000D01*
X126150000Y-106500000D02*
X124400000Y-106500000D01*
X124400000Y-106500000D02*
X123150000Y-107750000D01*
X123150000Y-110250000D02*
X123900000Y-111000000D01*
X123150000Y-107750000D02*
X123150000Y-110250000D01*
X126930000Y-105200000D02*
X126930000Y-105720000D01*
X123900000Y-111000000D02*
X123400000Y-111500000D01*
X135600000Y-116600000D02*
X132200000Y-116600000D01*
X131907866Y-116307866D02*
X131907866Y-115539330D01*
X132200000Y-116600000D02*
X131907866Y-116307866D01*
X123939330Y-115539330D02*
X123400000Y-115000000D01*
X131907866Y-115539330D02*
X123939330Y-115539330D01*
X123400000Y-111500000D02*
X123400000Y-115000000D01*
X135600000Y-116600000D02*
X137400000Y-116600000D01*
X136400000Y-109250000D02*
X135900000Y-109750000D01*
X136400000Y-106000000D02*
X136400000Y-109250000D01*
X137800000Y-113200000D02*
X137800000Y-116200000D01*
X136400000Y-111800000D02*
X137800000Y-113200000D01*
X136400000Y-110250000D02*
X136400000Y-111800000D01*
X137800000Y-116200000D02*
X137400000Y-116600000D01*
X135900000Y-109750000D02*
X136400000Y-110250000D01*
D18*
X121200000Y-108200000D02*
X117013010Y-108200000D01*
X117013010Y-108200000D02*
X117009010Y-108204000D01*
X117009010Y-131233010D02*
X120057010Y-131233010D01*
X117009010Y-108204000D02*
X117009010Y-131233010D01*
X120057010Y-131233010D02*
X120057010Y-131233010D01*
X120904000Y-132080000D02*
X120904000Y-132588000D01*
X120057010Y-131233010D02*
X120904000Y-132080000D01*
X120904000Y-132588000D02*
X121412000Y-132588000D01*
X121412000Y-132588000D02*
X121920000Y-133096000D01*
X121920000Y-133096000D02*
X121920000Y-133096000D01*
X119831332Y-174413010D02*
X119831332Y-174413010D01*
X117009010Y-174413010D02*
X119831332Y-174413010D01*
X117009010Y-131233010D02*
X117009010Y-174413010D01*
X117009010Y-174413010D02*
X117009010Y-178308000D01*
X121694322Y-176276000D02*
X121920000Y-176276000D01*
X119831332Y-174413010D02*
X121694322Y-176276000D01*
X121920000Y-176276000D02*
X121920000Y-176276000D01*
X117013010Y-107869010D02*
X117009010Y-107865010D01*
X117013010Y-108200000D02*
X117013010Y-107869010D01*
X117009010Y-87206990D02*
X119718990Y-87206990D01*
X117009010Y-107865010D02*
X117009010Y-87206990D01*
X117009010Y-87206990D02*
X117009010Y-45212000D01*
X119718990Y-87206990D02*
X121920000Y-89408000D01*
X121920000Y-89408000D02*
X121920000Y-89408000D01*
X119718990Y-87206990D02*
X119718990Y-87206990D01*
X117009010Y-45212000D02*
X117009010Y-45042990D01*
X117009010Y-45042990D02*
X117856000Y-44196000D01*
X117856000Y-44196000D02*
X120904000Y-44196000D01*
X120904000Y-44196000D02*
X120904000Y-44196000D01*
X124968000Y-47244000D02*
X124460000Y-47244000D01*
X124460000Y-47244000D02*
X122428000Y-45212000D01*
X122428000Y-45212000D02*
X122428000Y-45212000D01*
D19*
X124400000Y-109000000D02*
X124800000Y-109400000D01*
X124800000Y-109400000D02*
X125600000Y-109400000D01*
X124400000Y-108000000D02*
X124400000Y-109000000D01*
X135650000Y-110500000D02*
X135150000Y-110000000D01*
X135150000Y-110000000D02*
X135150000Y-107250000D01*
X124400000Y-108000000D02*
X124400000Y-107600000D01*
X124750000Y-107250000D02*
X124400000Y-107600000D01*
X135150000Y-107250000D02*
X124750000Y-107250000D01*
X131870000Y-119200000D02*
X131670000Y-119000000D01*
X133000000Y-119200000D02*
X131870000Y-119200000D01*
D18*
X129900000Y-104500000D02*
X130048000Y-104648000D01*
X129150000Y-104500000D02*
X129900000Y-104500000D01*
X124800000Y-112000000D02*
X124600000Y-112000000D01*
X125100000Y-112300000D02*
X124800000Y-112000000D01*
X125100000Y-112813782D02*
X126332218Y-114046000D01*
X125100000Y-112300000D02*
X125100000Y-112813782D01*
X126575736Y-114046000D02*
X126332218Y-114046000D01*
X126575736Y-114046000D02*
X126746000Y-114046000D01*
X126746000Y-114046000D02*
X127000000Y-113792000D01*
X127000000Y-113792000D02*
X127000000Y-113792000D01*
X127000000Y-113792000D02*
X127000000Y-113792000D01*
X125138264Y-114808000D02*
X125164265Y-114834001D01*
X124714000Y-114808000D02*
X125138264Y-114808000D01*
X125138264Y-114808000D02*
X125222000Y-114808000D01*
X125222000Y-114808000D02*
X125519320Y-115105320D01*
X125519320Y-115105320D02*
X128734680Y-115105320D01*
X128734680Y-115105320D02*
X129032000Y-114808000D01*
X129032000Y-114808000D02*
X129032000Y-114808000D01*
X129032000Y-114808000D02*
X130810000Y-114808000D01*
X130810000Y-114808000D02*
X131064000Y-114554000D01*
X131064000Y-114554000D02*
X131064000Y-114300000D01*
X131064000Y-114554000D02*
X131064000Y-114554000D01*
X131572000Y-104140000D02*
X132080000Y-103632000D01*
X131572000Y-105664000D02*
X131572000Y-104140000D01*
X132080000Y-103207736D02*
X132080000Y-103632000D01*
X131996264Y-103124000D02*
X132080000Y-103207736D01*
X131572000Y-103124000D02*
X131996264Y-103124000D01*
X131064000Y-105156000D02*
X130600000Y-105620000D01*
X131064000Y-103632000D02*
X131064000Y-105156000D01*
X131064000Y-103632000D02*
X130556000Y-103124000D01*
X125138264Y-114046000D02*
X125883574Y-114791310D01*
X124714000Y-114046000D02*
X125138264Y-114046000D01*
X125883574Y-114791310D02*
X126954988Y-114791310D01*
X126954988Y-114791310D02*
X128016000Y-114791310D01*
X128016000Y-114791310D02*
X128286690Y-114791310D01*
X128286690Y-114791310D02*
X128524000Y-114554000D01*
X128524000Y-114554000D02*
X128524000Y-114554000D01*
X119888000Y-175260000D02*
X119380000Y-175260000D01*
X119380000Y-175260000D02*
X118872000Y-175768000D01*
X119221501Y-176117501D02*
X119221501Y-178149501D01*
X118872000Y-175768000D02*
X119221501Y-176117501D01*
X119221501Y-178149501D02*
X119221501Y-178657501D01*
X119221501Y-178657501D02*
X119888000Y-179324000D01*
X119888000Y-179324000D02*
X119888000Y-179324000D01*
X119380000Y-132588000D02*
X119380000Y-135636000D01*
X119380000Y-135636000D02*
X119888000Y-136144000D01*
X119888000Y-136144000D02*
X119888000Y-136144000D01*
X119634000Y-88138000D02*
X119634000Y-91694000D01*
X119634000Y-91694000D02*
X119888000Y-91948000D01*
X119888000Y-91948000D02*
X119888000Y-91948000D01*
D19*
G36*
X146425000Y-180675000D02*
G01*
X116575000Y-180675000D01*
X116575000Y-87206990D01*
X116627172Y-87206990D01*
X116629011Y-87225661D01*
X116629010Y-107846357D01*
X116627173Y-107865010D01*
X116629010Y-107883663D01*
X116629010Y-107883670D01*
X116633010Y-107924282D01*
X116633010Y-108144728D01*
X116629010Y-108185340D01*
X116629010Y-108185347D01*
X116627173Y-108204000D01*
X116629010Y-108222653D01*
X116629011Y-131214339D01*
X116627172Y-131233010D01*
X116629010Y-131251671D01*
X116629011Y-174394339D01*
X116627172Y-174413010D01*
X116629010Y-174431671D01*
X116629011Y-178326661D01*
X116634510Y-178382493D01*
X116656239Y-178454123D01*
X116691524Y-178520138D01*
X116739011Y-178578000D01*
X116796873Y-178625487D01*
X116862888Y-178660772D01*
X116934518Y-178682501D01*
X117009010Y-178689838D01*
X117083503Y-178682501D01*
X117155133Y-178660772D01*
X117221148Y-178625487D01*
X117279010Y-178578000D01*
X117326497Y-178520138D01*
X117361782Y-178454123D01*
X117383511Y-178382493D01*
X117389010Y-178326661D01*
X117389010Y-174793010D01*
X119363626Y-174793010D01*
X119365282Y-174795488D01*
X119434633Y-174864839D01*
X119421950Y-174877522D01*
X119420294Y-174880000D01*
X119398653Y-174880000D01*
X119379999Y-174878163D01*
X119361345Y-174880000D01*
X119361339Y-174880000D01*
X119313169Y-174884744D01*
X119305506Y-174885499D01*
X119283777Y-174892091D01*
X119233877Y-174907228D01*
X119167862Y-174942513D01*
X119110000Y-174990000D01*
X119098104Y-175004495D01*
X118616498Y-175486102D01*
X118602000Y-175498000D01*
X118575739Y-175530000D01*
X118554514Y-175555863D01*
X118519228Y-175621878D01*
X118497499Y-175693508D01*
X118490163Y-175768000D01*
X118497499Y-175842492D01*
X118519228Y-175914122D01*
X118554514Y-175980137D01*
X118602000Y-176038000D01*
X118616497Y-176049897D01*
X118841501Y-176274902D01*
X118841501Y-177128662D01*
X118791670Y-177118750D01*
X118683330Y-177118750D01*
X118577071Y-177139886D01*
X118476977Y-177181347D01*
X118386896Y-177241537D01*
X118310287Y-177318146D01*
X118250097Y-177408227D01*
X118208636Y-177508321D01*
X118187500Y-177614580D01*
X118187500Y-177722920D01*
X118208636Y-177829179D01*
X118250097Y-177929273D01*
X118310287Y-178019354D01*
X118386896Y-178095963D01*
X118476977Y-178156153D01*
X118577071Y-178197614D01*
X118683330Y-178218750D01*
X118791670Y-178218750D01*
X118841501Y-178208838D01*
X118841502Y-178638838D01*
X118839664Y-178657501D01*
X118847000Y-178731993D01*
X118868729Y-178803623D01*
X118868730Y-178803624D01*
X118904015Y-178869639D01*
X118951502Y-178927501D01*
X118965997Y-178939397D01*
X119288581Y-179261982D01*
X119288000Y-179264905D01*
X119288000Y-179383095D01*
X119311058Y-179499014D01*
X119356287Y-179608207D01*
X119421950Y-179706478D01*
X119505522Y-179790050D01*
X119603793Y-179855713D01*
X119712986Y-179900942D01*
X119828905Y-179924000D01*
X119947095Y-179924000D01*
X120063014Y-179900942D01*
X120172207Y-179855713D01*
X120270478Y-179790050D01*
X120354050Y-179706478D01*
X120419713Y-179608207D01*
X120464942Y-179499014D01*
X120488000Y-179383095D01*
X120488000Y-179264905D01*
X120464942Y-179148986D01*
X120419713Y-179039793D01*
X120354050Y-178941522D01*
X120270478Y-178857950D01*
X120172207Y-178792287D01*
X120063014Y-178747058D01*
X119947095Y-178724000D01*
X119828905Y-178724000D01*
X119825982Y-178724581D01*
X119601501Y-178500101D01*
X119601501Y-176136154D01*
X119603338Y-176117500D01*
X119601501Y-176098846D01*
X119601501Y-176098840D01*
X119596002Y-176043008D01*
X119574273Y-175971378D01*
X119538988Y-175905363D01*
X119491501Y-175847501D01*
X119477007Y-175835606D01*
X119409401Y-175768000D01*
X119478436Y-175698964D01*
X119505522Y-175726050D01*
X119603793Y-175791713D01*
X119712986Y-175836942D01*
X119828905Y-175860000D01*
X119947095Y-175860000D01*
X120063014Y-175836942D01*
X120172207Y-175791713D01*
X120270478Y-175726050D01*
X120354050Y-175642478D01*
X120419713Y-175544207D01*
X120421299Y-175540378D01*
X121350924Y-176470004D01*
X121388287Y-176560207D01*
X121453950Y-176658478D01*
X121537522Y-176742050D01*
X121635793Y-176807713D01*
X121744986Y-176852942D01*
X121860905Y-176876000D01*
X121979095Y-176876000D01*
X122095014Y-176852942D01*
X122204207Y-176807713D01*
X122302478Y-176742050D01*
X122386050Y-176658478D01*
X122451713Y-176560207D01*
X122496942Y-176451014D01*
X122520000Y-176335095D01*
X122520000Y-176216905D01*
X122496942Y-176100986D01*
X122451713Y-175991793D01*
X122386050Y-175893522D01*
X122302478Y-175809950D01*
X122204207Y-175744287D01*
X122095014Y-175699058D01*
X121979095Y-175676000D01*
X121860905Y-175676000D01*
X121744986Y-175699058D01*
X121681202Y-175725478D01*
X120430751Y-174475028D01*
X120431332Y-174472105D01*
X120431332Y-174353915D01*
X120408274Y-174237996D01*
X120363045Y-174128803D01*
X120297382Y-174030532D01*
X120213810Y-173946960D01*
X120115539Y-173881297D01*
X120006346Y-173836068D01*
X119890427Y-173813010D01*
X119772237Y-173813010D01*
X119656318Y-173836068D01*
X119547125Y-173881297D01*
X119448854Y-173946960D01*
X119365282Y-174030532D01*
X119363626Y-174033010D01*
X117389010Y-174033010D01*
X117389010Y-134270830D01*
X118200000Y-134270830D01*
X118200000Y-134379170D01*
X118221136Y-134485429D01*
X118262597Y-134585523D01*
X118322787Y-134675604D01*
X118399396Y-134752213D01*
X118489477Y-134812403D01*
X118589571Y-134853864D01*
X118695830Y-134875000D01*
X118804170Y-134875000D01*
X118910429Y-134853864D01*
X119000001Y-134816762D01*
X119000001Y-135617337D01*
X118998163Y-135636000D01*
X119005499Y-135710492D01*
X119027228Y-135782122D01*
X119043654Y-135812852D01*
X119062514Y-135848138D01*
X119110001Y-135906000D01*
X119124496Y-135917896D01*
X119288581Y-136081982D01*
X119288000Y-136084905D01*
X119288000Y-136203095D01*
X119311058Y-136319014D01*
X119356287Y-136428207D01*
X119421950Y-136526478D01*
X119505522Y-136610050D01*
X119603793Y-136675713D01*
X119712986Y-136720942D01*
X119828905Y-136744000D01*
X119947095Y-136744000D01*
X120063014Y-136720942D01*
X120172207Y-136675713D01*
X120270478Y-136610050D01*
X120354050Y-136526478D01*
X120419713Y-136428207D01*
X120464942Y-136319014D01*
X120488000Y-136203095D01*
X120488000Y-136084905D01*
X120464942Y-135968986D01*
X120419713Y-135859793D01*
X120354050Y-135761522D01*
X120270478Y-135677950D01*
X120172207Y-135612287D01*
X120063014Y-135567058D01*
X119947095Y-135544000D01*
X119828905Y-135544000D01*
X119825982Y-135544581D01*
X119760000Y-135478600D01*
X119760000Y-133055706D01*
X119762478Y-133054050D01*
X119846050Y-132970478D01*
X119911713Y-132872207D01*
X119956942Y-132763014D01*
X119980000Y-132647095D01*
X119980000Y-132528905D01*
X119956942Y-132412986D01*
X119911713Y-132303793D01*
X119846050Y-132205522D01*
X119762478Y-132121950D01*
X119664207Y-132056287D01*
X119555014Y-132011058D01*
X119439095Y-131988000D01*
X119320905Y-131988000D01*
X119204986Y-132011058D01*
X119095793Y-132056287D01*
X118997522Y-132121950D01*
X118913950Y-132205522D01*
X118848287Y-132303793D01*
X118803058Y-132412986D01*
X118780000Y-132528905D01*
X118780000Y-132647095D01*
X118803058Y-132763014D01*
X118848287Y-132872207D01*
X118913950Y-132970478D01*
X118997522Y-133054050D01*
X119000000Y-133055706D01*
X119000000Y-133833238D01*
X118910429Y-133796136D01*
X118804170Y-133775000D01*
X118695830Y-133775000D01*
X118589571Y-133796136D01*
X118489477Y-133837597D01*
X118399396Y-133897787D01*
X118322787Y-133974396D01*
X118262597Y-134064477D01*
X118221136Y-134164571D01*
X118200000Y-134270830D01*
X117389010Y-134270830D01*
X117389010Y-131613010D01*
X119589304Y-131613010D01*
X119590960Y-131615488D01*
X119674532Y-131699060D01*
X119772803Y-131764723D01*
X119881996Y-131809952D01*
X119997915Y-131833010D01*
X120116105Y-131833010D01*
X120119028Y-131832429D01*
X120524000Y-132237402D01*
X120524001Y-132569329D01*
X120522162Y-132588000D01*
X120529499Y-132662493D01*
X120551228Y-132734123D01*
X120586513Y-132800138D01*
X120634000Y-132858000D01*
X120691862Y-132905487D01*
X120757877Y-132940772D01*
X120829507Y-132962501D01*
X120885339Y-132968000D01*
X120904000Y-132969838D01*
X120922661Y-132968000D01*
X121254600Y-132968000D01*
X121320581Y-133033982D01*
X121320000Y-133036905D01*
X121320000Y-133155095D01*
X121343058Y-133271014D01*
X121388287Y-133380207D01*
X121453950Y-133478478D01*
X121537522Y-133562050D01*
X121635793Y-133627713D01*
X121744986Y-133672942D01*
X121860905Y-133696000D01*
X121979095Y-133696000D01*
X122095014Y-133672942D01*
X122204207Y-133627713D01*
X122302478Y-133562050D01*
X122386050Y-133478478D01*
X122451713Y-133380207D01*
X122496942Y-133271014D01*
X122520000Y-133155095D01*
X122520000Y-133036905D01*
X122496942Y-132920986D01*
X122451713Y-132811793D01*
X122386050Y-132713522D01*
X122302478Y-132629950D01*
X122204207Y-132564287D01*
X122095014Y-132519058D01*
X121979095Y-132496000D01*
X121860905Y-132496000D01*
X121857982Y-132496581D01*
X121693900Y-132332500D01*
X121682000Y-132318000D01*
X121624138Y-132270513D01*
X121558123Y-132235228D01*
X121486493Y-132213499D01*
X121430661Y-132208000D01*
X121430653Y-132208000D01*
X121412000Y-132206163D01*
X121393347Y-132208000D01*
X121284000Y-132208000D01*
X121284000Y-132098654D01*
X121285837Y-132080000D01*
X121284000Y-132061346D01*
X121284000Y-132061339D01*
X121278501Y-132005507D01*
X121256772Y-131933877D01*
X121221487Y-131867862D01*
X121202354Y-131844549D01*
X121185896Y-131824494D01*
X121185891Y-131824489D01*
X121174000Y-131810000D01*
X121159512Y-131798110D01*
X120656429Y-131295028D01*
X120657010Y-131292105D01*
X120657010Y-131173915D01*
X120633952Y-131057996D01*
X120588723Y-130948803D01*
X120523060Y-130850532D01*
X120439488Y-130766960D01*
X120341217Y-130701297D01*
X120232024Y-130656068D01*
X120116105Y-130633010D01*
X119997915Y-130633010D01*
X119881996Y-130656068D01*
X119772803Y-130701297D01*
X119674532Y-130766960D01*
X119590960Y-130850532D01*
X119589304Y-130853010D01*
X117389010Y-130853010D01*
X117389010Y-119779901D01*
X129837888Y-119779901D01*
X129876462Y-119982589D01*
X130078215Y-120065847D01*
X130292335Y-120108144D01*
X130510592Y-120107855D01*
X130724598Y-120064993D01*
X130923538Y-119982589D01*
X130962112Y-119779901D01*
X130400000Y-119217789D01*
X129837888Y-119779901D01*
X117389010Y-119779901D01*
X117389010Y-118892335D01*
X129291856Y-118892335D01*
X129292145Y-119110592D01*
X129335007Y-119324598D01*
X129417411Y-119523538D01*
X129620099Y-119562112D01*
X130182211Y-119000000D01*
X130617789Y-119000000D01*
X130935818Y-119318029D01*
X130961049Y-119378942D01*
X131048599Y-119509970D01*
X131160030Y-119621401D01*
X131291058Y-119708951D01*
X131436649Y-119769257D01*
X131591207Y-119800000D01*
X131748793Y-119800000D01*
X131903351Y-119769257D01*
X132048942Y-119708951D01*
X132179970Y-119621401D01*
X132201371Y-119600000D01*
X132551472Y-119600000D01*
X132617522Y-119666050D01*
X132715793Y-119731713D01*
X132824986Y-119776942D01*
X132940905Y-119800000D01*
X133059095Y-119800000D01*
X133175014Y-119776942D01*
X133284207Y-119731713D01*
X133382478Y-119666050D01*
X133466050Y-119582478D01*
X133531713Y-119484207D01*
X133576942Y-119375014D01*
X133600000Y-119259095D01*
X133600000Y-119140905D01*
X133576942Y-119024986D01*
X133531713Y-118915793D01*
X133466050Y-118817522D01*
X133382478Y-118733950D01*
X133284207Y-118668287D01*
X133175014Y-118623058D01*
X133059095Y-118600000D01*
X132940905Y-118600000D01*
X132824986Y-118623058D01*
X132715793Y-118668287D01*
X132617522Y-118733950D01*
X132551472Y-118800000D01*
X132445891Y-118800000D01*
X132439257Y-118766649D01*
X132378951Y-118621058D01*
X132291401Y-118490030D01*
X132179970Y-118378599D01*
X132048942Y-118291049D01*
X131903351Y-118230743D01*
X131818177Y-118213801D01*
X141691486Y-118213801D01*
X141785980Y-118478640D01*
X141932026Y-118704185D01*
X142119267Y-118896904D01*
X142340508Y-119049391D01*
X142587246Y-119155786D01*
X142850000Y-119212000D01*
X143846000Y-119212000D01*
X143846000Y-118004000D01*
X144154000Y-118004000D01*
X144154000Y-119212000D01*
X145150000Y-119212000D01*
X145412754Y-119155786D01*
X145659492Y-119049391D01*
X145880733Y-118896904D01*
X146067974Y-118704185D01*
X146214020Y-118478640D01*
X146308514Y-118213801D01*
X146196160Y-118004000D01*
X144154000Y-118004000D01*
X143846000Y-118004000D01*
X141803840Y-118004000D01*
X141691486Y-118213801D01*
X131818177Y-118213801D01*
X131748793Y-118200000D01*
X131591207Y-118200000D01*
X131436649Y-118230743D01*
X131291058Y-118291049D01*
X131160030Y-118378599D01*
X131048599Y-118490030D01*
X130961049Y-118621058D01*
X130935818Y-118681971D01*
X130617789Y-119000000D01*
X130182211Y-119000000D01*
X129620099Y-118437888D01*
X129417411Y-118476462D01*
X129334153Y-118678215D01*
X129291856Y-118892335D01*
X117389010Y-118892335D01*
X117389010Y-118220099D01*
X129837888Y-118220099D01*
X130400000Y-118782211D01*
X130962112Y-118220099D01*
X130923538Y-118017411D01*
X130721785Y-117934153D01*
X130507665Y-117891856D01*
X130289408Y-117892145D01*
X130075402Y-117935007D01*
X129876462Y-118017411D01*
X129837888Y-118220099D01*
X117389010Y-118220099D01*
X117389010Y-108580000D01*
X120732294Y-108580000D01*
X120733950Y-108582478D01*
X120817522Y-108666050D01*
X120915793Y-108731713D01*
X121024986Y-108776942D01*
X121140905Y-108800000D01*
X121259095Y-108800000D01*
X121375014Y-108776942D01*
X121484207Y-108731713D01*
X121582478Y-108666050D01*
X121666050Y-108582478D01*
X121731713Y-108484207D01*
X121776942Y-108375014D01*
X121800000Y-108259095D01*
X121800000Y-108140905D01*
X121776942Y-108024986D01*
X121731713Y-107915793D01*
X121666050Y-107817522D01*
X121598528Y-107750000D01*
X122647581Y-107750000D01*
X122650000Y-107774560D01*
X122650001Y-110225430D01*
X122647581Y-110250000D01*
X122657235Y-110348017D01*
X122679999Y-110423058D01*
X122685826Y-110442267D01*
X122732255Y-110529129D01*
X122794737Y-110605264D01*
X122813819Y-110620924D01*
X123192894Y-111000000D01*
X123063823Y-111129071D01*
X123044736Y-111144736D01*
X122982254Y-111220871D01*
X122935825Y-111307734D01*
X122921407Y-111355264D01*
X122907235Y-111401983D01*
X122897581Y-111500000D01*
X122900000Y-111524560D01*
X122900001Y-114975430D01*
X122897581Y-115000000D01*
X122907235Y-115098017D01*
X122933338Y-115184066D01*
X122935826Y-115192267D01*
X122982255Y-115279129D01*
X123044737Y-115355264D01*
X123063819Y-115370924D01*
X123568409Y-115875516D01*
X123584066Y-115894594D01*
X123660201Y-115957076D01*
X123747063Y-116003505D01*
X123841313Y-116032095D01*
X123939330Y-116041749D01*
X123963890Y-116039330D01*
X131407866Y-116039330D01*
X131407866Y-116283305D01*
X131405447Y-116307866D01*
X131407866Y-116332425D01*
X131415101Y-116405882D01*
X131443691Y-116500132D01*
X131490120Y-116586995D01*
X131552602Y-116663130D01*
X131571690Y-116678795D01*
X131829075Y-116936181D01*
X131844736Y-116955264D01*
X131920871Y-117017746D01*
X132007733Y-117064175D01*
X132101983Y-117092765D01*
X132200000Y-117102419D01*
X132224560Y-117100000D01*
X137068331Y-117100000D01*
X137115793Y-117131713D01*
X137224986Y-117176942D01*
X137340905Y-117200000D01*
X137459095Y-117200000D01*
X137575014Y-117176942D01*
X137684207Y-117131713D01*
X137782478Y-117066050D01*
X137866050Y-116982478D01*
X137931713Y-116884207D01*
X137976942Y-116775014D01*
X137988079Y-116719028D01*
X138136186Y-116570921D01*
X138155264Y-116555264D01*
X138217746Y-116479129D01*
X138242095Y-116433575D01*
X141184214Y-116433575D01*
X141249041Y-116657969D01*
X141487457Y-116762715D01*
X141741727Y-116818935D01*
X142002080Y-116824470D01*
X142118513Y-116803872D01*
X141932026Y-116995815D01*
X141785980Y-117221360D01*
X141691486Y-117486199D01*
X141803840Y-117696000D01*
X143846000Y-117696000D01*
X143846000Y-116488000D01*
X144154000Y-116488000D01*
X144154000Y-117696000D01*
X146196160Y-117696000D01*
X146308514Y-117486199D01*
X146214020Y-117221360D01*
X146067974Y-116995815D01*
X145880733Y-116803096D01*
X145659492Y-116650609D01*
X145412754Y-116544214D01*
X145150000Y-116488000D01*
X144154000Y-116488000D01*
X143846000Y-116488000D01*
X142850000Y-116488000D01*
X142587246Y-116544214D01*
X142583335Y-116545900D01*
X142615786Y-116433575D01*
X141900000Y-115717789D01*
X141184214Y-116433575D01*
X138242095Y-116433575D01*
X138264175Y-116392267D01*
X138292765Y-116298017D01*
X138300000Y-116224560D01*
X138300000Y-116224551D01*
X138302418Y-116200001D01*
X138300000Y-116175451D01*
X138300000Y-115602080D01*
X140575530Y-115602080D01*
X140620895Y-115858510D01*
X140715414Y-116101163D01*
X140742031Y-116150959D01*
X140966425Y-116215786D01*
X141682211Y-115500000D01*
X142117789Y-115500000D01*
X142833575Y-116215786D01*
X143057969Y-116150959D01*
X143162715Y-115912543D01*
X143218935Y-115658273D01*
X143224470Y-115397920D01*
X143179105Y-115141490D01*
X143084586Y-114898837D01*
X143057969Y-114849041D01*
X142833575Y-114784214D01*
X142117789Y-115500000D01*
X141682211Y-115500000D01*
X140966425Y-114784214D01*
X140742031Y-114849041D01*
X140637285Y-115087457D01*
X140581065Y-115341727D01*
X140575530Y-115602080D01*
X138300000Y-115602080D01*
X138300000Y-114566425D01*
X141184214Y-114566425D01*
X141900000Y-115282211D01*
X142615786Y-114566425D01*
X142550959Y-114342031D01*
X142312543Y-114237285D01*
X142217552Y-114216282D01*
X143150000Y-114216282D01*
X143150000Y-114383718D01*
X143182665Y-114547936D01*
X143246740Y-114702626D01*
X143339762Y-114841844D01*
X143458156Y-114960238D01*
X143597374Y-115053260D01*
X143752064Y-115117335D01*
X143916282Y-115150000D01*
X144083718Y-115150000D01*
X144247936Y-115117335D01*
X144402626Y-115053260D01*
X144541844Y-114960238D01*
X144660238Y-114841844D01*
X144753260Y-114702626D01*
X144817335Y-114547936D01*
X144850000Y-114383718D01*
X144850000Y-114216282D01*
X144817335Y-114052064D01*
X144753260Y-113897374D01*
X144660238Y-113758156D01*
X144541844Y-113639762D01*
X144402626Y-113546740D01*
X144247936Y-113482665D01*
X144083718Y-113450000D01*
X143916282Y-113450000D01*
X143752064Y-113482665D01*
X143597374Y-113546740D01*
X143458156Y-113639762D01*
X143339762Y-113758156D01*
X143246740Y-113897374D01*
X143182665Y-114052064D01*
X143150000Y-114216282D01*
X142217552Y-114216282D01*
X142058273Y-114181065D01*
X141797920Y-114175530D01*
X141541490Y-114220895D01*
X141298837Y-114315414D01*
X141249041Y-114342031D01*
X141184214Y-114566425D01*
X138300000Y-114566425D01*
X138300000Y-113224560D01*
X138302419Y-113200000D01*
X138292765Y-113101982D01*
X138282847Y-113069287D01*
X138264175Y-113007733D01*
X138217746Y-112920871D01*
X138155264Y-112844736D01*
X138136181Y-112829075D01*
X136900000Y-111592895D01*
X136900000Y-110940905D01*
X138400000Y-110940905D01*
X138400000Y-111059095D01*
X138423058Y-111175014D01*
X138468287Y-111284207D01*
X138533950Y-111382478D01*
X138617522Y-111466050D01*
X138715793Y-111531713D01*
X138824986Y-111576942D01*
X138940905Y-111600000D01*
X139059095Y-111600000D01*
X139175014Y-111576942D01*
X139284207Y-111531713D01*
X139331669Y-111500000D01*
X140175440Y-111500000D01*
X140200000Y-111502419D01*
X140224560Y-111500000D01*
X140298017Y-111492765D01*
X140392267Y-111464175D01*
X140479129Y-111417746D01*
X140555264Y-111355264D01*
X140570928Y-111336177D01*
X140736181Y-111170925D01*
X140755264Y-111155264D01*
X140817746Y-111079129D01*
X140864175Y-110992267D01*
X140886000Y-110920319D01*
X140886000Y-111099870D01*
X140924968Y-111295773D01*
X141001405Y-111480309D01*
X141112375Y-111646387D01*
X141253613Y-111787625D01*
X141419691Y-111898595D01*
X141604227Y-111975032D01*
X141729748Y-112000000D01*
X141604227Y-112024968D01*
X141419691Y-112101405D01*
X141253613Y-112212375D01*
X141112375Y-112353613D01*
X141001405Y-112519691D01*
X140924968Y-112704227D01*
X140886000Y-112900130D01*
X140886000Y-113099870D01*
X140924968Y-113295773D01*
X141001405Y-113480309D01*
X141112375Y-113646387D01*
X141253613Y-113787625D01*
X141419691Y-113898595D01*
X141604227Y-113975032D01*
X141800130Y-114014000D01*
X141999870Y-114014000D01*
X142195773Y-113975032D01*
X142380309Y-113898595D01*
X142546387Y-113787625D01*
X142687625Y-113646387D01*
X142798595Y-113480309D01*
X142875032Y-113295773D01*
X142914000Y-113099870D01*
X142914000Y-112900130D01*
X142875032Y-112704227D01*
X142798595Y-112519691D01*
X142687625Y-112353613D01*
X142546387Y-112212375D01*
X142380309Y-112101405D01*
X142195773Y-112024968D01*
X142070252Y-112000000D01*
X142195773Y-111975032D01*
X142380309Y-111898595D01*
X142546387Y-111787625D01*
X142687625Y-111646387D01*
X142798595Y-111480309D01*
X142875032Y-111295773D01*
X142914000Y-111099870D01*
X142914000Y-110900130D01*
X142875032Y-110704227D01*
X142798595Y-110519691D01*
X142687625Y-110353613D01*
X142546387Y-110212375D01*
X142380309Y-110101405D01*
X142195773Y-110024968D01*
X141999870Y-109986000D01*
X141800130Y-109986000D01*
X141604227Y-110024968D01*
X141419691Y-110101405D01*
X141253613Y-110212375D01*
X141112375Y-110353613D01*
X141001405Y-110519691D01*
X140924968Y-110704227D01*
X140898988Y-110834836D01*
X140902419Y-110800000D01*
X140900000Y-110775440D01*
X140900000Y-109616282D01*
X143150000Y-109616282D01*
X143150000Y-109783718D01*
X143182665Y-109947936D01*
X143246740Y-110102626D01*
X143339762Y-110241844D01*
X143458156Y-110360238D01*
X143597374Y-110453260D01*
X143752064Y-110517335D01*
X143916282Y-110550000D01*
X144083718Y-110550000D01*
X144247936Y-110517335D01*
X144402626Y-110453260D01*
X144541844Y-110360238D01*
X144660238Y-110241844D01*
X144753260Y-110102626D01*
X144817335Y-109947936D01*
X144850000Y-109783718D01*
X144850000Y-109616282D01*
X144817335Y-109452064D01*
X144753260Y-109297374D01*
X144660238Y-109158156D01*
X144541844Y-109039762D01*
X144402626Y-108946740D01*
X144247936Y-108882665D01*
X144083718Y-108850000D01*
X143916282Y-108850000D01*
X143752064Y-108882665D01*
X143597374Y-108946740D01*
X143458156Y-109039762D01*
X143339762Y-109158156D01*
X143246740Y-109297374D01*
X143182665Y-109452064D01*
X143150000Y-109616282D01*
X140900000Y-109616282D01*
X140900000Y-109304650D01*
X140907496Y-109329360D01*
X140935353Y-109381477D01*
X140972842Y-109427158D01*
X141018523Y-109464647D01*
X141070640Y-109492504D01*
X141127190Y-109509659D01*
X141186000Y-109515451D01*
X142614000Y-109515451D01*
X142672810Y-109509659D01*
X142729360Y-109492504D01*
X142781477Y-109464647D01*
X142827158Y-109427158D01*
X142864647Y-109381477D01*
X142892504Y-109329360D01*
X142909659Y-109272810D01*
X142915451Y-109214000D01*
X142915451Y-107786000D01*
X142909659Y-107727190D01*
X142892504Y-107670640D01*
X142864647Y-107618523D01*
X142827158Y-107572842D01*
X142781477Y-107535353D01*
X142729360Y-107507496D01*
X142672810Y-107490341D01*
X142614000Y-107484549D01*
X141186000Y-107484549D01*
X141127190Y-107490341D01*
X141070640Y-107507496D01*
X141018523Y-107535353D01*
X140972842Y-107572842D01*
X140935353Y-107618523D01*
X140907496Y-107670640D01*
X140890341Y-107727190D01*
X140884549Y-107786000D01*
X140884549Y-108000000D01*
X140724557Y-108000000D01*
X140699999Y-107997581D01*
X140675441Y-108000000D01*
X140675440Y-108000000D01*
X140601983Y-108007235D01*
X140507733Y-108035825D01*
X140420871Y-108082254D01*
X140344736Y-108144736D01*
X140329071Y-108163824D01*
X140063820Y-108429075D01*
X140044737Y-108444736D01*
X139982255Y-108520871D01*
X139953589Y-108574501D01*
X139935826Y-108607733D01*
X139907235Y-108701983D01*
X139897581Y-108800000D01*
X139900001Y-108824570D01*
X139900000Y-110500000D01*
X139331669Y-110500000D01*
X139284207Y-110468287D01*
X139175014Y-110423058D01*
X139059095Y-110400000D01*
X138940905Y-110400000D01*
X138824986Y-110423058D01*
X138715793Y-110468287D01*
X138617522Y-110533950D01*
X138533950Y-110617522D01*
X138468287Y-110715793D01*
X138423058Y-110824986D01*
X138400000Y-110940905D01*
X136900000Y-110940905D01*
X136900000Y-110274560D01*
X136902419Y-110250000D01*
X136892765Y-110151983D01*
X136883342Y-110120919D01*
X136864175Y-110057733D01*
X136817746Y-109970871D01*
X136755264Y-109894736D01*
X136736186Y-109879079D01*
X136607106Y-109750000D01*
X136736186Y-109620921D01*
X136755264Y-109605264D01*
X136817746Y-109529129D01*
X136864175Y-109442267D01*
X136892765Y-109348017D01*
X136900000Y-109274560D01*
X136902419Y-109250000D01*
X136900000Y-109225440D01*
X136900000Y-106513801D01*
X141691486Y-106513801D01*
X141785980Y-106778640D01*
X141932026Y-107004185D01*
X142119267Y-107196904D01*
X142340508Y-107349391D01*
X142587246Y-107455786D01*
X142850000Y-107512000D01*
X143846000Y-107512000D01*
X143846000Y-106304000D01*
X144154000Y-106304000D01*
X144154000Y-107512000D01*
X145150000Y-107512000D01*
X145412754Y-107455786D01*
X145659492Y-107349391D01*
X145880733Y-107196904D01*
X146067974Y-107004185D01*
X146214020Y-106778640D01*
X146308514Y-106513801D01*
X146196160Y-106304000D01*
X144154000Y-106304000D01*
X143846000Y-106304000D01*
X141803840Y-106304000D01*
X141691486Y-106513801D01*
X136900000Y-106513801D01*
X136900000Y-106331669D01*
X136931713Y-106284207D01*
X136976942Y-106175014D01*
X137000000Y-106059095D01*
X137000000Y-105940905D01*
X136976942Y-105824986D01*
X136960876Y-105786199D01*
X141691486Y-105786199D01*
X141803840Y-105996000D01*
X143846000Y-105996000D01*
X143846000Y-104788000D01*
X144154000Y-104788000D01*
X144154000Y-105996000D01*
X146196160Y-105996000D01*
X146308514Y-105786199D01*
X146214020Y-105521360D01*
X146067974Y-105295815D01*
X145880733Y-105103096D01*
X145659492Y-104950609D01*
X145412754Y-104844214D01*
X145150000Y-104788000D01*
X144154000Y-104788000D01*
X143846000Y-104788000D01*
X142850000Y-104788000D01*
X142587246Y-104844214D01*
X142340508Y-104950609D01*
X142119267Y-105103096D01*
X141932026Y-105295815D01*
X141785980Y-105521360D01*
X141691486Y-105786199D01*
X136960876Y-105786199D01*
X136931713Y-105715793D01*
X136866050Y-105617522D01*
X136782478Y-105533950D01*
X136684207Y-105468287D01*
X136575014Y-105423058D01*
X136459095Y-105400000D01*
X136340905Y-105400000D01*
X136224986Y-105423058D01*
X136115793Y-105468287D01*
X136017522Y-105533950D01*
X135933950Y-105617522D01*
X135868287Y-105715793D01*
X135823058Y-105824986D01*
X135800000Y-105940905D01*
X135800000Y-106059095D01*
X135823058Y-106175014D01*
X135868287Y-106284207D01*
X135900000Y-106331669D01*
X135900001Y-109042893D01*
X135780973Y-109161921D01*
X135724986Y-109173058D01*
X135615793Y-109218287D01*
X135550000Y-109262249D01*
X135550000Y-107698528D01*
X135616050Y-107632478D01*
X135681713Y-107534207D01*
X135726942Y-107425014D01*
X135750000Y-107309095D01*
X135750000Y-107190905D01*
X135726942Y-107074986D01*
X135681713Y-106965793D01*
X135616050Y-106867522D01*
X135532478Y-106783950D01*
X135434207Y-106718287D01*
X135325014Y-106673058D01*
X135209095Y-106650000D01*
X135090905Y-106650000D01*
X134974986Y-106673058D01*
X134865793Y-106718287D01*
X134767522Y-106783950D01*
X134701472Y-106850000D01*
X126509584Y-106850000D01*
X126520929Y-106836176D01*
X127248665Y-106108442D01*
X127267999Y-106132001D01*
X127360579Y-106207980D01*
X127466203Y-106264437D01*
X127580811Y-106299203D01*
X127700000Y-106310942D01*
X127894000Y-106308000D01*
X128046000Y-106156000D01*
X128046000Y-105354000D01*
X128354000Y-105354000D01*
X128354000Y-106156000D01*
X128506000Y-106308000D01*
X128700000Y-106310942D01*
X128819189Y-106299203D01*
X128933797Y-106264437D01*
X129039421Y-106207980D01*
X129132001Y-106132001D01*
X129207980Y-106039421D01*
X129264437Y-105933797D01*
X129299203Y-105819189D01*
X129310942Y-105700000D01*
X129308000Y-105506000D01*
X129156000Y-105354000D01*
X128354000Y-105354000D01*
X128046000Y-105354000D01*
X128026000Y-105354000D01*
X128026000Y-105046000D01*
X128046000Y-105046000D01*
X128046000Y-104244000D01*
X128354000Y-104244000D01*
X128354000Y-105046000D01*
X128900285Y-105046000D01*
X128974986Y-105076942D01*
X129090905Y-105100000D01*
X129209095Y-105100000D01*
X129325014Y-105076942D01*
X129362173Y-105061550D01*
X129426599Y-105157970D01*
X129538030Y-105269401D01*
X129669058Y-105356951D01*
X129814649Y-105417257D01*
X129969207Y-105448000D01*
X130022458Y-105448000D01*
X130000000Y-105560905D01*
X130000000Y-105679095D01*
X130023058Y-105795014D01*
X130068287Y-105904207D01*
X130133950Y-106002478D01*
X130217522Y-106086050D01*
X130315793Y-106151713D01*
X130424986Y-106196942D01*
X130540905Y-106220000D01*
X130659095Y-106220000D01*
X130775014Y-106196942D01*
X130884207Y-106151713D01*
X130982478Y-106086050D01*
X131066050Y-106002478D01*
X131071300Y-105994621D01*
X131105950Y-106046478D01*
X131189522Y-106130050D01*
X131287793Y-106195713D01*
X131396986Y-106240942D01*
X131512905Y-106264000D01*
X131631095Y-106264000D01*
X131747014Y-106240942D01*
X131856207Y-106195713D01*
X131954478Y-106130050D01*
X132038050Y-106046478D01*
X132103713Y-105948207D01*
X132148942Y-105839014D01*
X132172000Y-105723095D01*
X132172000Y-105604905D01*
X132148942Y-105488986D01*
X132103713Y-105379793D01*
X132038050Y-105281522D01*
X131954478Y-105197950D01*
X131952000Y-105196294D01*
X131952000Y-104297400D01*
X132335506Y-103913895D01*
X132350000Y-103902000D01*
X132397487Y-103844138D01*
X132432772Y-103778123D01*
X132454501Y-103706493D01*
X132460000Y-103650661D01*
X132460000Y-103650655D01*
X132461837Y-103632001D01*
X132460000Y-103613347D01*
X132460000Y-103226390D01*
X132461837Y-103207736D01*
X132460000Y-103189082D01*
X132460000Y-103189075D01*
X132454501Y-103133243D01*
X132432772Y-103061613D01*
X132397487Y-102995598D01*
X132350000Y-102937736D01*
X132335501Y-102925837D01*
X132278164Y-102868500D01*
X132266264Y-102854000D01*
X132208402Y-102806513D01*
X132142387Y-102771228D01*
X132070757Y-102749499D01*
X132041451Y-102746613D01*
X132038050Y-102741522D01*
X131954478Y-102657950D01*
X131856207Y-102592287D01*
X131747014Y-102547058D01*
X131631095Y-102524000D01*
X131512905Y-102524000D01*
X131396986Y-102547058D01*
X131287793Y-102592287D01*
X131189522Y-102657950D01*
X131105950Y-102741522D01*
X131064000Y-102804304D01*
X131022050Y-102741522D01*
X130938478Y-102657950D01*
X130840207Y-102592287D01*
X130731014Y-102547058D01*
X130615095Y-102524000D01*
X130496905Y-102524000D01*
X130380986Y-102547058D01*
X130271793Y-102592287D01*
X130173522Y-102657950D01*
X130089950Y-102741522D01*
X130024287Y-102839793D01*
X129979058Y-102948986D01*
X129956000Y-103064905D01*
X129956000Y-103183095D01*
X129979058Y-103299014D01*
X130024287Y-103408207D01*
X130089950Y-103506478D01*
X130173522Y-103590050D01*
X130271793Y-103655713D01*
X130380986Y-103700942D01*
X130496905Y-103724000D01*
X130615095Y-103724000D01*
X130618018Y-103723419D01*
X130684000Y-103789401D01*
X130684000Y-104159879D01*
X130669401Y-104138030D01*
X130557970Y-104026599D01*
X130426942Y-103939049D01*
X130281351Y-103878743D01*
X130126793Y-103848000D01*
X129969207Y-103848000D01*
X129814649Y-103878743D01*
X129669058Y-103939049D01*
X129538030Y-104026599D01*
X129531400Y-104033229D01*
X129434207Y-103968287D01*
X129325014Y-103923058D01*
X129209095Y-103900000D01*
X129090905Y-103900000D01*
X128974986Y-103923058D01*
X128865793Y-103968287D01*
X128767522Y-104033950D01*
X128711301Y-104090171D01*
X128700000Y-104089058D01*
X128506000Y-104092000D01*
X128354000Y-104244000D01*
X128046000Y-104244000D01*
X127894000Y-104092000D01*
X127700000Y-104089058D01*
X127580811Y-104100797D01*
X127466203Y-104135563D01*
X127360579Y-104192020D01*
X127267999Y-104267999D01*
X127192020Y-104360579D01*
X127155366Y-104429155D01*
X127008793Y-104400000D01*
X126851207Y-104400000D01*
X126696649Y-104430743D01*
X126551058Y-104491049D01*
X126420030Y-104578599D01*
X126308599Y-104690030D01*
X126295000Y-104710382D01*
X126281401Y-104690030D01*
X126169970Y-104578599D01*
X126038942Y-104491049D01*
X125893351Y-104430743D01*
X125738793Y-104400000D01*
X125581207Y-104400000D01*
X125426649Y-104430743D01*
X125281058Y-104491049D01*
X125150030Y-104578599D01*
X125038599Y-104690030D01*
X125025000Y-104710382D01*
X125011401Y-104690030D01*
X124899970Y-104578599D01*
X124768942Y-104491049D01*
X124623351Y-104430743D01*
X124468793Y-104400000D01*
X124311207Y-104400000D01*
X124156649Y-104430743D01*
X124011058Y-104491049D01*
X123880030Y-104578599D01*
X123768599Y-104690030D01*
X123681049Y-104821058D01*
X123620743Y-104966649D01*
X123590000Y-105121207D01*
X123590000Y-105278793D01*
X123620743Y-105433351D01*
X123681049Y-105578942D01*
X123768599Y-105709970D01*
X123880030Y-105821401D01*
X124011058Y-105908951D01*
X124156649Y-105969257D01*
X124311207Y-106000000D01*
X124375440Y-106000000D01*
X124301983Y-106007235D01*
X124207733Y-106035825D01*
X124120871Y-106082254D01*
X124044736Y-106144736D01*
X124029075Y-106163819D01*
X122813824Y-107379071D01*
X122794736Y-107394736D01*
X122732254Y-107470871D01*
X122685825Y-107557734D01*
X122673004Y-107600000D01*
X122657235Y-107651983D01*
X122647581Y-107750000D01*
X121598528Y-107750000D01*
X121582478Y-107733950D01*
X121484207Y-107668287D01*
X121375014Y-107623058D01*
X121259095Y-107600000D01*
X121140905Y-107600000D01*
X121024986Y-107623058D01*
X120915793Y-107668287D01*
X120817522Y-107733950D01*
X120733950Y-107817522D01*
X120732294Y-107820000D01*
X117390021Y-107820000D01*
X117389010Y-107809737D01*
X117389010Y-101744901D01*
X121992888Y-101744901D01*
X122031462Y-101947589D01*
X122233215Y-102030847D01*
X122447335Y-102073144D01*
X122665592Y-102072855D01*
X122879598Y-102029993D01*
X123078538Y-101947589D01*
X123117112Y-101744901D01*
X122555000Y-101182789D01*
X121992888Y-101744901D01*
X117389010Y-101744901D01*
X117389010Y-100857335D01*
X121446856Y-100857335D01*
X121447145Y-101075592D01*
X121490007Y-101289598D01*
X121572411Y-101488538D01*
X121775099Y-101527112D01*
X122337211Y-100965000D01*
X122772789Y-100965000D01*
X123334901Y-101527112D01*
X123537589Y-101488538D01*
X123620847Y-101286785D01*
X123663144Y-101072665D01*
X123662855Y-100854408D01*
X123619993Y-100640402D01*
X123537589Y-100441462D01*
X123334901Y-100402888D01*
X122772789Y-100965000D01*
X122337211Y-100965000D01*
X121775099Y-100402888D01*
X121572411Y-100441462D01*
X121489153Y-100643215D01*
X121446856Y-100857335D01*
X117389010Y-100857335D01*
X117389010Y-100185099D01*
X121992888Y-100185099D01*
X122555000Y-100747211D01*
X123117112Y-100185099D01*
X123078538Y-99982411D01*
X122876785Y-99899153D01*
X122662665Y-99856856D01*
X122444408Y-99857145D01*
X122230402Y-99900007D01*
X122031462Y-99982411D01*
X121992888Y-100185099D01*
X117389010Y-100185099D01*
X117389010Y-87586990D01*
X119251284Y-87586990D01*
X119252940Y-87589468D01*
X119301816Y-87638344D01*
X119251522Y-87671950D01*
X119167950Y-87755522D01*
X119102287Y-87853793D01*
X119057058Y-87962986D01*
X119034000Y-88078905D01*
X119034000Y-88197095D01*
X119057058Y-88313014D01*
X119102287Y-88422207D01*
X119167950Y-88520478D01*
X119251522Y-88604050D01*
X119254000Y-88605706D01*
X119254001Y-90104546D01*
X119237403Y-90064477D01*
X119177213Y-89974396D01*
X119100604Y-89897787D01*
X119010523Y-89837597D01*
X118910429Y-89796136D01*
X118804170Y-89775000D01*
X118695830Y-89775000D01*
X118589571Y-89796136D01*
X118489477Y-89837597D01*
X118399396Y-89897787D01*
X118322787Y-89974396D01*
X118262597Y-90064477D01*
X118221136Y-90164571D01*
X118200000Y-90270830D01*
X118200000Y-90379170D01*
X118221136Y-90485429D01*
X118262597Y-90585523D01*
X118322787Y-90675604D01*
X118399396Y-90752213D01*
X118489477Y-90812403D01*
X118589571Y-90853864D01*
X118695830Y-90875000D01*
X118804170Y-90875000D01*
X118910429Y-90853864D01*
X119010523Y-90812403D01*
X119100604Y-90752213D01*
X119177213Y-90675604D01*
X119237403Y-90585523D01*
X119254001Y-90545453D01*
X119254001Y-91675336D01*
X119252163Y-91694000D01*
X119259499Y-91768492D01*
X119281228Y-91840122D01*
X119281229Y-91840123D01*
X119293235Y-91862586D01*
X119288000Y-91888905D01*
X119288000Y-92007095D01*
X119311058Y-92123014D01*
X119356287Y-92232207D01*
X119421950Y-92330478D01*
X119505522Y-92414050D01*
X119603793Y-92479713D01*
X119712986Y-92524942D01*
X119828905Y-92548000D01*
X119947095Y-92548000D01*
X120063014Y-92524942D01*
X120172207Y-92479713D01*
X120270478Y-92414050D01*
X120354050Y-92330478D01*
X120419713Y-92232207D01*
X120464942Y-92123014D01*
X120488000Y-92007095D01*
X120488000Y-91888905D01*
X120464942Y-91772986D01*
X120419713Y-91663793D01*
X120354050Y-91565522D01*
X120270478Y-91481950D01*
X120172207Y-91416287D01*
X120063014Y-91371058D01*
X120014000Y-91361308D01*
X120014000Y-88605706D01*
X120016478Y-88604050D01*
X120100050Y-88520478D01*
X120165713Y-88422207D01*
X120210942Y-88313014D01*
X120223663Y-88249063D01*
X121320581Y-89345982D01*
X121320000Y-89348905D01*
X121320000Y-89467095D01*
X121343058Y-89583014D01*
X121388287Y-89692207D01*
X121453950Y-89790478D01*
X121537522Y-89874050D01*
X121635793Y-89939713D01*
X121744986Y-89984942D01*
X121860905Y-90008000D01*
X121979095Y-90008000D01*
X122095014Y-89984942D01*
X122204207Y-89939713D01*
X122302478Y-89874050D01*
X122386050Y-89790478D01*
X122451713Y-89692207D01*
X122496942Y-89583014D01*
X122520000Y-89467095D01*
X122520000Y-89348905D01*
X122496942Y-89232986D01*
X122451713Y-89123793D01*
X122386050Y-89025522D01*
X122302478Y-88941950D01*
X122204207Y-88876287D01*
X122095014Y-88831058D01*
X121979095Y-88808000D01*
X121860905Y-88808000D01*
X121857982Y-88808581D01*
X120318409Y-87269008D01*
X120318990Y-87266085D01*
X120318990Y-87147895D01*
X120295932Y-87031976D01*
X120250703Y-86922783D01*
X120185040Y-86824512D01*
X120101468Y-86740940D01*
X120003197Y-86675277D01*
X119894004Y-86630048D01*
X119778085Y-86606990D01*
X119659895Y-86606990D01*
X119543976Y-86630048D01*
X119434783Y-86675277D01*
X119336512Y-86740940D01*
X119252940Y-86824512D01*
X119251284Y-86826990D01*
X117389010Y-86826990D01*
X117389010Y-46270830D01*
X118200000Y-46270830D01*
X118200000Y-46379170D01*
X118221136Y-46485429D01*
X118262597Y-46585523D01*
X118322787Y-46675604D01*
X118399396Y-46752213D01*
X118489477Y-46812403D01*
X118589571Y-46853864D01*
X118695830Y-46875000D01*
X118804170Y-46875000D01*
X118910429Y-46853864D01*
X119010523Y-46812403D01*
X119100604Y-46752213D01*
X119177213Y-46675604D01*
X119237403Y-46585523D01*
X119278864Y-46485429D01*
X119300000Y-46379170D01*
X119300000Y-46270830D01*
X119278864Y-46164571D01*
X119237403Y-46064477D01*
X119177213Y-45974396D01*
X119100604Y-45897787D01*
X119010523Y-45837597D01*
X118910429Y-45796136D01*
X118804170Y-45775000D01*
X118695830Y-45775000D01*
X118589571Y-45796136D01*
X118489477Y-45837597D01*
X118399396Y-45897787D01*
X118322787Y-45974396D01*
X118262597Y-46064477D01*
X118221136Y-46164571D01*
X118200000Y-46270830D01*
X117389010Y-46270830D01*
X117389010Y-45200390D01*
X117436495Y-45152905D01*
X121828000Y-45152905D01*
X121828000Y-45271095D01*
X121851058Y-45387014D01*
X121896287Y-45496207D01*
X121961950Y-45594478D01*
X122045522Y-45678050D01*
X122143793Y-45743713D01*
X122252986Y-45788942D01*
X122368905Y-45812000D01*
X122487095Y-45812000D01*
X122490018Y-45811419D01*
X124178104Y-47499505D01*
X124190000Y-47514000D01*
X124247862Y-47561487D01*
X124313877Y-47596772D01*
X124385507Y-47618501D01*
X124441339Y-47624000D01*
X124441346Y-47624000D01*
X124460000Y-47625837D01*
X124478654Y-47624000D01*
X124500294Y-47624000D01*
X124501950Y-47626478D01*
X124585522Y-47710050D01*
X124683793Y-47775713D01*
X124792986Y-47820942D01*
X124908905Y-47844000D01*
X125027095Y-47844000D01*
X125143014Y-47820942D01*
X125252207Y-47775713D01*
X125350478Y-47710050D01*
X125434050Y-47626478D01*
X125499713Y-47528207D01*
X125544942Y-47419014D01*
X125568000Y-47303095D01*
X125568000Y-47184905D01*
X125544942Y-47068986D01*
X125499713Y-46959793D01*
X125434050Y-46861522D01*
X125350478Y-46777950D01*
X125252207Y-46712287D01*
X125143014Y-46667058D01*
X125027095Y-46644000D01*
X124908905Y-46644000D01*
X124792986Y-46667058D01*
X124683793Y-46712287D01*
X124585522Y-46777950D01*
X124558436Y-46805036D01*
X123027419Y-45274018D01*
X123028000Y-45271095D01*
X123028000Y-45152905D01*
X123004942Y-45036986D01*
X122959713Y-44927793D01*
X122894050Y-44829522D01*
X122810478Y-44745950D01*
X122712207Y-44680287D01*
X122603014Y-44635058D01*
X122487095Y-44612000D01*
X122368905Y-44612000D01*
X122252986Y-44635058D01*
X122143793Y-44680287D01*
X122045522Y-44745950D01*
X121961950Y-44829522D01*
X121896287Y-44927793D01*
X121851058Y-45036986D01*
X121828000Y-45152905D01*
X117436495Y-45152905D01*
X118013402Y-44576000D01*
X120436294Y-44576000D01*
X120437950Y-44578478D01*
X120521522Y-44662050D01*
X120619793Y-44727713D01*
X120728986Y-44772942D01*
X120844905Y-44796000D01*
X120963095Y-44796000D01*
X121079014Y-44772942D01*
X121188207Y-44727713D01*
X121286478Y-44662050D01*
X121370050Y-44578478D01*
X121435713Y-44480207D01*
X121480942Y-44371014D01*
X121504000Y-44255095D01*
X121504000Y-44136905D01*
X121480942Y-44020986D01*
X121435713Y-43911793D01*
X121370050Y-43813522D01*
X121286478Y-43729950D01*
X121188207Y-43664287D01*
X121079014Y-43619058D01*
X120963095Y-43596000D01*
X120844905Y-43596000D01*
X120728986Y-43619058D01*
X120619793Y-43664287D01*
X120521522Y-43729950D01*
X120437950Y-43813522D01*
X120436294Y-43816000D01*
X117874654Y-43816000D01*
X117856000Y-43814163D01*
X117837346Y-43816000D01*
X117837339Y-43816000D01*
X117781507Y-43821499D01*
X117709877Y-43843228D01*
X117643862Y-43878513D01*
X117620549Y-43897646D01*
X117600494Y-43914104D01*
X117600489Y-43914109D01*
X117586000Y-43926000D01*
X117574109Y-43940490D01*
X116753509Y-44761091D01*
X116739010Y-44772990D01*
X116691523Y-44830852D01*
X116656238Y-44896867D01*
X116634509Y-44968497D01*
X116629010Y-45024329D01*
X116629010Y-45024337D01*
X116627173Y-45042990D01*
X116629010Y-45061643D01*
X116629010Y-45230660D01*
X116629011Y-45230670D01*
X116629010Y-87188329D01*
X116627172Y-87206990D01*
X116575000Y-87206990D01*
X116575000Y-43325000D01*
X146425001Y-43325000D01*
X146425000Y-180675000D01*
G37*
X146425000Y-180675000D02*
X116575000Y-180675000D01*
X116575000Y-87206990D01*
X116627172Y-87206990D01*
X116629011Y-87225661D01*
X116629010Y-107846357D01*
X116627173Y-107865010D01*
X116629010Y-107883663D01*
X116629010Y-107883670D01*
X116633010Y-107924282D01*
X116633010Y-108144728D01*
X116629010Y-108185340D01*
X116629010Y-108185347D01*
X116627173Y-108204000D01*
X116629010Y-108222653D01*
X116629011Y-131214339D01*
X116627172Y-131233010D01*
X116629010Y-131251671D01*
X116629011Y-174394339D01*
X116627172Y-174413010D01*
X116629010Y-174431671D01*
X116629011Y-178326661D01*
X116634510Y-178382493D01*
X116656239Y-178454123D01*
X116691524Y-178520138D01*
X116739011Y-178578000D01*
X116796873Y-178625487D01*
X116862888Y-178660772D01*
X116934518Y-178682501D01*
X117009010Y-178689838D01*
X117083503Y-178682501D01*
X117155133Y-178660772D01*
X117221148Y-178625487D01*
X117279010Y-178578000D01*
X117326497Y-178520138D01*
X117361782Y-178454123D01*
X117383511Y-178382493D01*
X117389010Y-178326661D01*
X117389010Y-174793010D01*
X119363626Y-174793010D01*
X119365282Y-174795488D01*
X119434633Y-174864839D01*
X119421950Y-174877522D01*
X119420294Y-174880000D01*
X119398653Y-174880000D01*
X119379999Y-174878163D01*
X119361345Y-174880000D01*
X119361339Y-174880000D01*
X119313169Y-174884744D01*
X119305506Y-174885499D01*
X119283777Y-174892091D01*
X119233877Y-174907228D01*
X119167862Y-174942513D01*
X119110000Y-174990000D01*
X119098104Y-175004495D01*
X118616498Y-175486102D01*
X118602000Y-175498000D01*
X118575739Y-175530000D01*
X118554514Y-175555863D01*
X118519228Y-175621878D01*
X118497499Y-175693508D01*
X118490163Y-175768000D01*
X118497499Y-175842492D01*
X118519228Y-175914122D01*
X118554514Y-175980137D01*
X118602000Y-176038000D01*
X118616497Y-176049897D01*
X118841501Y-176274902D01*
X118841501Y-177128662D01*
X118791670Y-177118750D01*
X118683330Y-177118750D01*
X118577071Y-177139886D01*
X118476977Y-177181347D01*
X118386896Y-177241537D01*
X118310287Y-177318146D01*
X118250097Y-177408227D01*
X118208636Y-177508321D01*
X118187500Y-177614580D01*
X118187500Y-177722920D01*
X118208636Y-177829179D01*
X118250097Y-177929273D01*
X118310287Y-178019354D01*
X118386896Y-178095963D01*
X118476977Y-178156153D01*
X118577071Y-178197614D01*
X118683330Y-178218750D01*
X118791670Y-178218750D01*
X118841501Y-178208838D01*
X118841502Y-178638838D01*
X118839664Y-178657501D01*
X118847000Y-178731993D01*
X118868729Y-178803623D01*
X118868730Y-178803624D01*
X118904015Y-178869639D01*
X118951502Y-178927501D01*
X118965997Y-178939397D01*
X119288581Y-179261982D01*
X119288000Y-179264905D01*
X119288000Y-179383095D01*
X119311058Y-179499014D01*
X119356287Y-179608207D01*
X119421950Y-179706478D01*
X119505522Y-179790050D01*
X119603793Y-179855713D01*
X119712986Y-179900942D01*
X119828905Y-179924000D01*
X119947095Y-179924000D01*
X120063014Y-179900942D01*
X120172207Y-179855713D01*
X120270478Y-179790050D01*
X120354050Y-179706478D01*
X120419713Y-179608207D01*
X120464942Y-179499014D01*
X120488000Y-179383095D01*
X120488000Y-179264905D01*
X120464942Y-179148986D01*
X120419713Y-179039793D01*
X120354050Y-178941522D01*
X120270478Y-178857950D01*
X120172207Y-178792287D01*
X120063014Y-178747058D01*
X119947095Y-178724000D01*
X119828905Y-178724000D01*
X119825982Y-178724581D01*
X119601501Y-178500101D01*
X119601501Y-176136154D01*
X119603338Y-176117500D01*
X119601501Y-176098846D01*
X119601501Y-176098840D01*
X119596002Y-176043008D01*
X119574273Y-175971378D01*
X119538988Y-175905363D01*
X119491501Y-175847501D01*
X119477007Y-175835606D01*
X119409401Y-175768000D01*
X119478436Y-175698964D01*
X119505522Y-175726050D01*
X119603793Y-175791713D01*
X119712986Y-175836942D01*
X119828905Y-175860000D01*
X119947095Y-175860000D01*
X120063014Y-175836942D01*
X120172207Y-175791713D01*
X120270478Y-175726050D01*
X120354050Y-175642478D01*
X120419713Y-175544207D01*
X120421299Y-175540378D01*
X121350924Y-176470004D01*
X121388287Y-176560207D01*
X121453950Y-176658478D01*
X121537522Y-176742050D01*
X121635793Y-176807713D01*
X121744986Y-176852942D01*
X121860905Y-176876000D01*
X121979095Y-176876000D01*
X122095014Y-176852942D01*
X122204207Y-176807713D01*
X122302478Y-176742050D01*
X122386050Y-176658478D01*
X122451713Y-176560207D01*
X122496942Y-176451014D01*
X122520000Y-176335095D01*
X122520000Y-176216905D01*
X122496942Y-176100986D01*
X122451713Y-175991793D01*
X122386050Y-175893522D01*
X122302478Y-175809950D01*
X122204207Y-175744287D01*
X122095014Y-175699058D01*
X121979095Y-175676000D01*
X121860905Y-175676000D01*
X121744986Y-175699058D01*
X121681202Y-175725478D01*
X120430751Y-174475028D01*
X120431332Y-174472105D01*
X120431332Y-174353915D01*
X120408274Y-174237996D01*
X120363045Y-174128803D01*
X120297382Y-174030532D01*
X120213810Y-173946960D01*
X120115539Y-173881297D01*
X120006346Y-173836068D01*
X119890427Y-173813010D01*
X119772237Y-173813010D01*
X119656318Y-173836068D01*
X119547125Y-173881297D01*
X119448854Y-173946960D01*
X119365282Y-174030532D01*
X119363626Y-174033010D01*
X117389010Y-174033010D01*
X117389010Y-134270830D01*
X118200000Y-134270830D01*
X118200000Y-134379170D01*
X118221136Y-134485429D01*
X118262597Y-134585523D01*
X118322787Y-134675604D01*
X118399396Y-134752213D01*
X118489477Y-134812403D01*
X118589571Y-134853864D01*
X118695830Y-134875000D01*
X118804170Y-134875000D01*
X118910429Y-134853864D01*
X119000001Y-134816762D01*
X119000001Y-135617337D01*
X118998163Y-135636000D01*
X119005499Y-135710492D01*
X119027228Y-135782122D01*
X119043654Y-135812852D01*
X119062514Y-135848138D01*
X119110001Y-135906000D01*
X119124496Y-135917896D01*
X119288581Y-136081982D01*
X119288000Y-136084905D01*
X119288000Y-136203095D01*
X119311058Y-136319014D01*
X119356287Y-136428207D01*
X119421950Y-136526478D01*
X119505522Y-136610050D01*
X119603793Y-136675713D01*
X119712986Y-136720942D01*
X119828905Y-136744000D01*
X119947095Y-136744000D01*
X120063014Y-136720942D01*
X120172207Y-136675713D01*
X120270478Y-136610050D01*
X120354050Y-136526478D01*
X120419713Y-136428207D01*
X120464942Y-136319014D01*
X120488000Y-136203095D01*
X120488000Y-136084905D01*
X120464942Y-135968986D01*
X120419713Y-135859793D01*
X120354050Y-135761522D01*
X120270478Y-135677950D01*
X120172207Y-135612287D01*
X120063014Y-135567058D01*
X119947095Y-135544000D01*
X119828905Y-135544000D01*
X119825982Y-135544581D01*
X119760000Y-135478600D01*
X119760000Y-133055706D01*
X119762478Y-133054050D01*
X119846050Y-132970478D01*
X119911713Y-132872207D01*
X119956942Y-132763014D01*
X119980000Y-132647095D01*
X119980000Y-132528905D01*
X119956942Y-132412986D01*
X119911713Y-132303793D01*
X119846050Y-132205522D01*
X119762478Y-132121950D01*
X119664207Y-132056287D01*
X119555014Y-132011058D01*
X119439095Y-131988000D01*
X119320905Y-131988000D01*
X119204986Y-132011058D01*
X119095793Y-132056287D01*
X118997522Y-132121950D01*
X118913950Y-132205522D01*
X118848287Y-132303793D01*
X118803058Y-132412986D01*
X118780000Y-132528905D01*
X118780000Y-132647095D01*
X118803058Y-132763014D01*
X118848287Y-132872207D01*
X118913950Y-132970478D01*
X118997522Y-133054050D01*
X119000000Y-133055706D01*
X119000000Y-133833238D01*
X118910429Y-133796136D01*
X118804170Y-133775000D01*
X118695830Y-133775000D01*
X118589571Y-133796136D01*
X118489477Y-133837597D01*
X118399396Y-133897787D01*
X118322787Y-133974396D01*
X118262597Y-134064477D01*
X118221136Y-134164571D01*
X118200000Y-134270830D01*
X117389010Y-134270830D01*
X117389010Y-131613010D01*
X119589304Y-131613010D01*
X119590960Y-131615488D01*
X119674532Y-131699060D01*
X119772803Y-131764723D01*
X119881996Y-131809952D01*
X119997915Y-131833010D01*
X120116105Y-131833010D01*
X120119028Y-131832429D01*
X120524000Y-132237402D01*
X120524001Y-132569329D01*
X120522162Y-132588000D01*
X120529499Y-132662493D01*
X120551228Y-132734123D01*
X120586513Y-132800138D01*
X120634000Y-132858000D01*
X120691862Y-132905487D01*
X120757877Y-132940772D01*
X120829507Y-132962501D01*
X120885339Y-132968000D01*
X120904000Y-132969838D01*
X120922661Y-132968000D01*
X121254600Y-132968000D01*
X121320581Y-133033982D01*
X121320000Y-133036905D01*
X121320000Y-133155095D01*
X121343058Y-133271014D01*
X121388287Y-133380207D01*
X121453950Y-133478478D01*
X121537522Y-133562050D01*
X121635793Y-133627713D01*
X121744986Y-133672942D01*
X121860905Y-133696000D01*
X121979095Y-133696000D01*
X122095014Y-133672942D01*
X122204207Y-133627713D01*
X122302478Y-133562050D01*
X122386050Y-133478478D01*
X122451713Y-133380207D01*
X122496942Y-133271014D01*
X122520000Y-133155095D01*
X122520000Y-133036905D01*
X122496942Y-132920986D01*
X122451713Y-132811793D01*
X122386050Y-132713522D01*
X122302478Y-132629950D01*
X122204207Y-132564287D01*
X122095014Y-132519058D01*
X121979095Y-132496000D01*
X121860905Y-132496000D01*
X121857982Y-132496581D01*
X121693900Y-132332500D01*
X121682000Y-132318000D01*
X121624138Y-132270513D01*
X121558123Y-132235228D01*
X121486493Y-132213499D01*
X121430661Y-132208000D01*
X121430653Y-132208000D01*
X121412000Y-132206163D01*
X121393347Y-132208000D01*
X121284000Y-132208000D01*
X121284000Y-132098654D01*
X121285837Y-132080000D01*
X121284000Y-132061346D01*
X121284000Y-132061339D01*
X121278501Y-132005507D01*
X121256772Y-131933877D01*
X121221487Y-131867862D01*
X121202354Y-131844549D01*
X121185896Y-131824494D01*
X121185891Y-131824489D01*
X121174000Y-131810000D01*
X121159512Y-131798110D01*
X120656429Y-131295028D01*
X120657010Y-131292105D01*
X120657010Y-131173915D01*
X120633952Y-131057996D01*
X120588723Y-130948803D01*
X120523060Y-130850532D01*
X120439488Y-130766960D01*
X120341217Y-130701297D01*
X120232024Y-130656068D01*
X120116105Y-130633010D01*
X119997915Y-130633010D01*
X119881996Y-130656068D01*
X119772803Y-130701297D01*
X119674532Y-130766960D01*
X119590960Y-130850532D01*
X119589304Y-130853010D01*
X117389010Y-130853010D01*
X117389010Y-119779901D01*
X129837888Y-119779901D01*
X129876462Y-119982589D01*
X130078215Y-120065847D01*
X130292335Y-120108144D01*
X130510592Y-120107855D01*
X130724598Y-120064993D01*
X130923538Y-119982589D01*
X130962112Y-119779901D01*
X130400000Y-119217789D01*
X129837888Y-119779901D01*
X117389010Y-119779901D01*
X117389010Y-118892335D01*
X129291856Y-118892335D01*
X129292145Y-119110592D01*
X129335007Y-119324598D01*
X129417411Y-119523538D01*
X129620099Y-119562112D01*
X130182211Y-119000000D01*
X130617789Y-119000000D01*
X130935818Y-119318029D01*
X130961049Y-119378942D01*
X131048599Y-119509970D01*
X131160030Y-119621401D01*
X131291058Y-119708951D01*
X131436649Y-119769257D01*
X131591207Y-119800000D01*
X131748793Y-119800000D01*
X131903351Y-119769257D01*
X132048942Y-119708951D01*
X132179970Y-119621401D01*
X132201371Y-119600000D01*
X132551472Y-119600000D01*
X132617522Y-119666050D01*
X132715793Y-119731713D01*
X132824986Y-119776942D01*
X132940905Y-119800000D01*
X133059095Y-119800000D01*
X133175014Y-119776942D01*
X133284207Y-119731713D01*
X133382478Y-119666050D01*
X133466050Y-119582478D01*
X133531713Y-119484207D01*
X133576942Y-119375014D01*
X133600000Y-119259095D01*
X133600000Y-119140905D01*
X133576942Y-119024986D01*
X133531713Y-118915793D01*
X133466050Y-118817522D01*
X133382478Y-118733950D01*
X133284207Y-118668287D01*
X133175014Y-118623058D01*
X133059095Y-118600000D01*
X132940905Y-118600000D01*
X132824986Y-118623058D01*
X132715793Y-118668287D01*
X132617522Y-118733950D01*
X132551472Y-118800000D01*
X132445891Y-118800000D01*
X132439257Y-118766649D01*
X132378951Y-118621058D01*
X132291401Y-118490030D01*
X132179970Y-118378599D01*
X132048942Y-118291049D01*
X131903351Y-118230743D01*
X131818177Y-118213801D01*
X141691486Y-118213801D01*
X141785980Y-118478640D01*
X141932026Y-118704185D01*
X142119267Y-118896904D01*
X142340508Y-119049391D01*
X142587246Y-119155786D01*
X142850000Y-119212000D01*
X143846000Y-119212000D01*
X143846000Y-118004000D01*
X144154000Y-118004000D01*
X144154000Y-119212000D01*
X145150000Y-119212000D01*
X145412754Y-119155786D01*
X145659492Y-119049391D01*
X145880733Y-118896904D01*
X146067974Y-118704185D01*
X146214020Y-118478640D01*
X146308514Y-118213801D01*
X146196160Y-118004000D01*
X144154000Y-118004000D01*
X143846000Y-118004000D01*
X141803840Y-118004000D01*
X141691486Y-118213801D01*
X131818177Y-118213801D01*
X131748793Y-118200000D01*
X131591207Y-118200000D01*
X131436649Y-118230743D01*
X131291058Y-118291049D01*
X131160030Y-118378599D01*
X131048599Y-118490030D01*
X130961049Y-118621058D01*
X130935818Y-118681971D01*
X130617789Y-119000000D01*
X130182211Y-119000000D01*
X129620099Y-118437888D01*
X129417411Y-118476462D01*
X129334153Y-118678215D01*
X129291856Y-118892335D01*
X117389010Y-118892335D01*
X117389010Y-118220099D01*
X129837888Y-118220099D01*
X130400000Y-118782211D01*
X130962112Y-118220099D01*
X130923538Y-118017411D01*
X130721785Y-117934153D01*
X130507665Y-117891856D01*
X130289408Y-117892145D01*
X130075402Y-117935007D01*
X129876462Y-118017411D01*
X129837888Y-118220099D01*
X117389010Y-118220099D01*
X117389010Y-108580000D01*
X120732294Y-108580000D01*
X120733950Y-108582478D01*
X120817522Y-108666050D01*
X120915793Y-108731713D01*
X121024986Y-108776942D01*
X121140905Y-108800000D01*
X121259095Y-108800000D01*
X121375014Y-108776942D01*
X121484207Y-108731713D01*
X121582478Y-108666050D01*
X121666050Y-108582478D01*
X121731713Y-108484207D01*
X121776942Y-108375014D01*
X121800000Y-108259095D01*
X121800000Y-108140905D01*
X121776942Y-108024986D01*
X121731713Y-107915793D01*
X121666050Y-107817522D01*
X121598528Y-107750000D01*
X122647581Y-107750000D01*
X122650000Y-107774560D01*
X122650001Y-110225430D01*
X122647581Y-110250000D01*
X122657235Y-110348017D01*
X122679999Y-110423058D01*
X122685826Y-110442267D01*
X122732255Y-110529129D01*
X122794737Y-110605264D01*
X122813819Y-110620924D01*
X123192894Y-111000000D01*
X123063823Y-111129071D01*
X123044736Y-111144736D01*
X122982254Y-111220871D01*
X122935825Y-111307734D01*
X122921407Y-111355264D01*
X122907235Y-111401983D01*
X122897581Y-111500000D01*
X122900000Y-111524560D01*
X122900001Y-114975430D01*
X122897581Y-115000000D01*
X122907235Y-115098017D01*
X122933338Y-115184066D01*
X122935826Y-115192267D01*
X122982255Y-115279129D01*
X123044737Y-115355264D01*
X123063819Y-115370924D01*
X123568409Y-115875516D01*
X123584066Y-115894594D01*
X123660201Y-115957076D01*
X123747063Y-116003505D01*
X123841313Y-116032095D01*
X123939330Y-116041749D01*
X123963890Y-116039330D01*
X131407866Y-116039330D01*
X131407866Y-116283305D01*
X131405447Y-116307866D01*
X131407866Y-116332425D01*
X131415101Y-116405882D01*
X131443691Y-116500132D01*
X131490120Y-116586995D01*
X131552602Y-116663130D01*
X131571690Y-116678795D01*
X131829075Y-116936181D01*
X131844736Y-116955264D01*
X131920871Y-117017746D01*
X132007733Y-117064175D01*
X132101983Y-117092765D01*
X132200000Y-117102419D01*
X132224560Y-117100000D01*
X137068331Y-117100000D01*
X137115793Y-117131713D01*
X137224986Y-117176942D01*
X137340905Y-117200000D01*
X137459095Y-117200000D01*
X137575014Y-117176942D01*
X137684207Y-117131713D01*
X137782478Y-117066050D01*
X137866050Y-116982478D01*
X137931713Y-116884207D01*
X137976942Y-116775014D01*
X137988079Y-116719028D01*
X138136186Y-116570921D01*
X138155264Y-116555264D01*
X138217746Y-116479129D01*
X138242095Y-116433575D01*
X141184214Y-116433575D01*
X141249041Y-116657969D01*
X141487457Y-116762715D01*
X141741727Y-116818935D01*
X142002080Y-116824470D01*
X142118513Y-116803872D01*
X141932026Y-116995815D01*
X141785980Y-117221360D01*
X141691486Y-117486199D01*
X141803840Y-117696000D01*
X143846000Y-117696000D01*
X143846000Y-116488000D01*
X144154000Y-116488000D01*
X144154000Y-117696000D01*
X146196160Y-117696000D01*
X146308514Y-117486199D01*
X146214020Y-117221360D01*
X146067974Y-116995815D01*
X145880733Y-116803096D01*
X145659492Y-116650609D01*
X145412754Y-116544214D01*
X145150000Y-116488000D01*
X144154000Y-116488000D01*
X143846000Y-116488000D01*
X142850000Y-116488000D01*
X142587246Y-116544214D01*
X142583335Y-116545900D01*
X142615786Y-116433575D01*
X141900000Y-115717789D01*
X141184214Y-116433575D01*
X138242095Y-116433575D01*
X138264175Y-116392267D01*
X138292765Y-116298017D01*
X138300000Y-116224560D01*
X138300000Y-116224551D01*
X138302418Y-116200001D01*
X138300000Y-116175451D01*
X138300000Y-115602080D01*
X140575530Y-115602080D01*
X140620895Y-115858510D01*
X140715414Y-116101163D01*
X140742031Y-116150959D01*
X140966425Y-116215786D01*
X141682211Y-115500000D01*
X142117789Y-115500000D01*
X142833575Y-116215786D01*
X143057969Y-116150959D01*
X143162715Y-115912543D01*
X143218935Y-115658273D01*
X143224470Y-115397920D01*
X143179105Y-115141490D01*
X143084586Y-114898837D01*
X143057969Y-114849041D01*
X142833575Y-114784214D01*
X142117789Y-115500000D01*
X141682211Y-115500000D01*
X140966425Y-114784214D01*
X140742031Y-114849041D01*
X140637285Y-115087457D01*
X140581065Y-115341727D01*
X140575530Y-115602080D01*
X138300000Y-115602080D01*
X138300000Y-114566425D01*
X141184214Y-114566425D01*
X141900000Y-115282211D01*
X142615786Y-114566425D01*
X142550959Y-114342031D01*
X142312543Y-114237285D01*
X142217552Y-114216282D01*
X143150000Y-114216282D01*
X143150000Y-114383718D01*
X143182665Y-114547936D01*
X143246740Y-114702626D01*
X143339762Y-114841844D01*
X143458156Y-114960238D01*
X143597374Y-115053260D01*
X143752064Y-115117335D01*
X143916282Y-115150000D01*
X144083718Y-115150000D01*
X144247936Y-115117335D01*
X144402626Y-115053260D01*
X144541844Y-114960238D01*
X144660238Y-114841844D01*
X144753260Y-114702626D01*
X144817335Y-114547936D01*
X144850000Y-114383718D01*
X144850000Y-114216282D01*
X144817335Y-114052064D01*
X144753260Y-113897374D01*
X144660238Y-113758156D01*
X144541844Y-113639762D01*
X144402626Y-113546740D01*
X144247936Y-113482665D01*
X144083718Y-113450000D01*
X143916282Y-113450000D01*
X143752064Y-113482665D01*
X143597374Y-113546740D01*
X143458156Y-113639762D01*
X143339762Y-113758156D01*
X143246740Y-113897374D01*
X143182665Y-114052064D01*
X143150000Y-114216282D01*
X142217552Y-114216282D01*
X142058273Y-114181065D01*
X141797920Y-114175530D01*
X141541490Y-114220895D01*
X141298837Y-114315414D01*
X141249041Y-114342031D01*
X141184214Y-114566425D01*
X138300000Y-114566425D01*
X138300000Y-113224560D01*
X138302419Y-113200000D01*
X138292765Y-113101982D01*
X138282847Y-113069287D01*
X138264175Y-113007733D01*
X138217746Y-112920871D01*
X138155264Y-112844736D01*
X138136181Y-112829075D01*
X136900000Y-111592895D01*
X136900000Y-110940905D01*
X138400000Y-110940905D01*
X138400000Y-111059095D01*
X138423058Y-111175014D01*
X138468287Y-111284207D01*
X138533950Y-111382478D01*
X138617522Y-111466050D01*
X138715793Y-111531713D01*
X138824986Y-111576942D01*
X138940905Y-111600000D01*
X139059095Y-111600000D01*
X139175014Y-111576942D01*
X139284207Y-111531713D01*
X139331669Y-111500000D01*
X140175440Y-111500000D01*
X140200000Y-111502419D01*
X140224560Y-111500000D01*
X140298017Y-111492765D01*
X140392267Y-111464175D01*
X140479129Y-111417746D01*
X140555264Y-111355264D01*
X140570928Y-111336177D01*
X140736181Y-111170925D01*
X140755264Y-111155264D01*
X140817746Y-111079129D01*
X140864175Y-110992267D01*
X140886000Y-110920319D01*
X140886000Y-111099870D01*
X140924968Y-111295773D01*
X141001405Y-111480309D01*
X141112375Y-111646387D01*
X141253613Y-111787625D01*
X141419691Y-111898595D01*
X141604227Y-111975032D01*
X141729748Y-112000000D01*
X141604227Y-112024968D01*
X141419691Y-112101405D01*
X141253613Y-112212375D01*
X141112375Y-112353613D01*
X141001405Y-112519691D01*
X140924968Y-112704227D01*
X140886000Y-112900130D01*
X140886000Y-113099870D01*
X140924968Y-113295773D01*
X141001405Y-113480309D01*
X141112375Y-113646387D01*
X141253613Y-113787625D01*
X141419691Y-113898595D01*
X141604227Y-113975032D01*
X141800130Y-114014000D01*
X141999870Y-114014000D01*
X142195773Y-113975032D01*
X142380309Y-113898595D01*
X142546387Y-113787625D01*
X142687625Y-113646387D01*
X142798595Y-113480309D01*
X142875032Y-113295773D01*
X142914000Y-113099870D01*
X142914000Y-112900130D01*
X142875032Y-112704227D01*
X142798595Y-112519691D01*
X142687625Y-112353613D01*
X142546387Y-112212375D01*
X142380309Y-112101405D01*
X142195773Y-112024968D01*
X142070252Y-112000000D01*
X142195773Y-111975032D01*
X142380309Y-111898595D01*
X142546387Y-111787625D01*
X142687625Y-111646387D01*
X142798595Y-111480309D01*
X142875032Y-111295773D01*
X142914000Y-111099870D01*
X142914000Y-110900130D01*
X142875032Y-110704227D01*
X142798595Y-110519691D01*
X142687625Y-110353613D01*
X142546387Y-110212375D01*
X142380309Y-110101405D01*
X142195773Y-110024968D01*
X141999870Y-109986000D01*
X141800130Y-109986000D01*
X141604227Y-110024968D01*
X141419691Y-110101405D01*
X141253613Y-110212375D01*
X141112375Y-110353613D01*
X141001405Y-110519691D01*
X140924968Y-110704227D01*
X140898988Y-110834836D01*
X140902419Y-110800000D01*
X140900000Y-110775440D01*
X140900000Y-109616282D01*
X143150000Y-109616282D01*
X143150000Y-109783718D01*
X143182665Y-109947936D01*
X143246740Y-110102626D01*
X143339762Y-110241844D01*
X143458156Y-110360238D01*
X143597374Y-110453260D01*
X143752064Y-110517335D01*
X143916282Y-110550000D01*
X144083718Y-110550000D01*
X144247936Y-110517335D01*
X144402626Y-110453260D01*
X144541844Y-110360238D01*
X144660238Y-110241844D01*
X144753260Y-110102626D01*
X144817335Y-109947936D01*
X144850000Y-109783718D01*
X144850000Y-109616282D01*
X144817335Y-109452064D01*
X144753260Y-109297374D01*
X144660238Y-109158156D01*
X144541844Y-109039762D01*
X144402626Y-108946740D01*
X144247936Y-108882665D01*
X144083718Y-108850000D01*
X143916282Y-108850000D01*
X143752064Y-108882665D01*
X143597374Y-108946740D01*
X143458156Y-109039762D01*
X143339762Y-109158156D01*
X143246740Y-109297374D01*
X143182665Y-109452064D01*
X143150000Y-109616282D01*
X140900000Y-109616282D01*
X140900000Y-109304650D01*
X140907496Y-109329360D01*
X140935353Y-109381477D01*
X140972842Y-109427158D01*
X141018523Y-109464647D01*
X141070640Y-109492504D01*
X141127190Y-109509659D01*
X141186000Y-109515451D01*
X142614000Y-109515451D01*
X142672810Y-109509659D01*
X142729360Y-109492504D01*
X142781477Y-109464647D01*
X142827158Y-109427158D01*
X142864647Y-109381477D01*
X142892504Y-109329360D01*
X142909659Y-109272810D01*
X142915451Y-109214000D01*
X142915451Y-107786000D01*
X142909659Y-107727190D01*
X142892504Y-107670640D01*
X142864647Y-107618523D01*
X142827158Y-107572842D01*
X142781477Y-107535353D01*
X142729360Y-107507496D01*
X142672810Y-107490341D01*
X142614000Y-107484549D01*
X141186000Y-107484549D01*
X141127190Y-107490341D01*
X141070640Y-107507496D01*
X141018523Y-107535353D01*
X140972842Y-107572842D01*
X140935353Y-107618523D01*
X140907496Y-107670640D01*
X140890341Y-107727190D01*
X140884549Y-107786000D01*
X140884549Y-108000000D01*
X140724557Y-108000000D01*
X140699999Y-107997581D01*
X140675441Y-108000000D01*
X140675440Y-108000000D01*
X140601983Y-108007235D01*
X140507733Y-108035825D01*
X140420871Y-108082254D01*
X140344736Y-108144736D01*
X140329071Y-108163824D01*
X140063820Y-108429075D01*
X140044737Y-108444736D01*
X139982255Y-108520871D01*
X139953589Y-108574501D01*
X139935826Y-108607733D01*
X139907235Y-108701983D01*
X139897581Y-108800000D01*
X139900001Y-108824570D01*
X139900000Y-110500000D01*
X139331669Y-110500000D01*
X139284207Y-110468287D01*
X139175014Y-110423058D01*
X139059095Y-110400000D01*
X138940905Y-110400000D01*
X138824986Y-110423058D01*
X138715793Y-110468287D01*
X138617522Y-110533950D01*
X138533950Y-110617522D01*
X138468287Y-110715793D01*
X138423058Y-110824986D01*
X138400000Y-110940905D01*
X136900000Y-110940905D01*
X136900000Y-110274560D01*
X136902419Y-110250000D01*
X136892765Y-110151983D01*
X136883342Y-110120919D01*
X136864175Y-110057733D01*
X136817746Y-109970871D01*
X136755264Y-109894736D01*
X136736186Y-109879079D01*
X136607106Y-109750000D01*
X136736186Y-109620921D01*
X136755264Y-109605264D01*
X136817746Y-109529129D01*
X136864175Y-109442267D01*
X136892765Y-109348017D01*
X136900000Y-109274560D01*
X136902419Y-109250000D01*
X136900000Y-109225440D01*
X136900000Y-106513801D01*
X141691486Y-106513801D01*
X141785980Y-106778640D01*
X141932026Y-107004185D01*
X142119267Y-107196904D01*
X142340508Y-107349391D01*
X142587246Y-107455786D01*
X142850000Y-107512000D01*
X143846000Y-107512000D01*
X143846000Y-106304000D01*
X144154000Y-106304000D01*
X144154000Y-107512000D01*
X145150000Y-107512000D01*
X145412754Y-107455786D01*
X145659492Y-107349391D01*
X145880733Y-107196904D01*
X146067974Y-107004185D01*
X146214020Y-106778640D01*
X146308514Y-106513801D01*
X146196160Y-106304000D01*
X144154000Y-106304000D01*
X143846000Y-106304000D01*
X141803840Y-106304000D01*
X141691486Y-106513801D01*
X136900000Y-106513801D01*
X136900000Y-106331669D01*
X136931713Y-106284207D01*
X136976942Y-106175014D01*
X137000000Y-106059095D01*
X137000000Y-105940905D01*
X136976942Y-105824986D01*
X136960876Y-105786199D01*
X141691486Y-105786199D01*
X141803840Y-105996000D01*
X143846000Y-105996000D01*
X143846000Y-104788000D01*
X144154000Y-104788000D01*
X144154000Y-105996000D01*
X146196160Y-105996000D01*
X146308514Y-105786199D01*
X146214020Y-105521360D01*
X146067974Y-105295815D01*
X145880733Y-105103096D01*
X145659492Y-104950609D01*
X145412754Y-104844214D01*
X145150000Y-104788000D01*
X144154000Y-104788000D01*
X143846000Y-104788000D01*
X142850000Y-104788000D01*
X142587246Y-104844214D01*
X142340508Y-104950609D01*
X142119267Y-105103096D01*
X141932026Y-105295815D01*
X141785980Y-105521360D01*
X141691486Y-105786199D01*
X136960876Y-105786199D01*
X136931713Y-105715793D01*
X136866050Y-105617522D01*
X136782478Y-105533950D01*
X136684207Y-105468287D01*
X136575014Y-105423058D01*
X136459095Y-105400000D01*
X136340905Y-105400000D01*
X136224986Y-105423058D01*
X136115793Y-105468287D01*
X136017522Y-105533950D01*
X135933950Y-105617522D01*
X135868287Y-105715793D01*
X135823058Y-105824986D01*
X135800000Y-105940905D01*
X135800000Y-106059095D01*
X135823058Y-106175014D01*
X135868287Y-106284207D01*
X135900000Y-106331669D01*
X135900001Y-109042893D01*
X135780973Y-109161921D01*
X135724986Y-109173058D01*
X135615793Y-109218287D01*
X135550000Y-109262249D01*
X135550000Y-107698528D01*
X135616050Y-107632478D01*
X135681713Y-107534207D01*
X135726942Y-107425014D01*
X135750000Y-107309095D01*
X135750000Y-107190905D01*
X135726942Y-107074986D01*
X135681713Y-106965793D01*
X135616050Y-106867522D01*
X135532478Y-106783950D01*
X135434207Y-106718287D01*
X135325014Y-106673058D01*
X135209095Y-106650000D01*
X135090905Y-106650000D01*
X134974986Y-106673058D01*
X134865793Y-106718287D01*
X134767522Y-106783950D01*
X134701472Y-106850000D01*
X126509584Y-106850000D01*
X126520929Y-106836176D01*
X127248665Y-106108442D01*
X127267999Y-106132001D01*
X127360579Y-106207980D01*
X127466203Y-106264437D01*
X127580811Y-106299203D01*
X127700000Y-106310942D01*
X127894000Y-106308000D01*
X128046000Y-106156000D01*
X128046000Y-105354000D01*
X128354000Y-105354000D01*
X128354000Y-106156000D01*
X128506000Y-106308000D01*
X128700000Y-106310942D01*
X128819189Y-106299203D01*
X128933797Y-106264437D01*
X129039421Y-106207980D01*
X129132001Y-106132001D01*
X129207980Y-106039421D01*
X129264437Y-105933797D01*
X129299203Y-105819189D01*
X129310942Y-105700000D01*
X129308000Y-105506000D01*
X129156000Y-105354000D01*
X128354000Y-105354000D01*
X128046000Y-105354000D01*
X128026000Y-105354000D01*
X128026000Y-105046000D01*
X128046000Y-105046000D01*
X128046000Y-104244000D01*
X128354000Y-104244000D01*
X128354000Y-105046000D01*
X128900285Y-105046000D01*
X128974986Y-105076942D01*
X129090905Y-105100000D01*
X129209095Y-105100000D01*
X129325014Y-105076942D01*
X129362173Y-105061550D01*
X129426599Y-105157970D01*
X129538030Y-105269401D01*
X129669058Y-105356951D01*
X129814649Y-105417257D01*
X129969207Y-105448000D01*
X130022458Y-105448000D01*
X130000000Y-105560905D01*
X130000000Y-105679095D01*
X130023058Y-105795014D01*
X130068287Y-105904207D01*
X130133950Y-106002478D01*
X130217522Y-106086050D01*
X130315793Y-106151713D01*
X130424986Y-106196942D01*
X130540905Y-106220000D01*
X130659095Y-106220000D01*
X130775014Y-106196942D01*
X130884207Y-106151713D01*
X130982478Y-106086050D01*
X131066050Y-106002478D01*
X131071300Y-105994621D01*
X131105950Y-106046478D01*
X131189522Y-106130050D01*
X131287793Y-106195713D01*
X131396986Y-106240942D01*
X131512905Y-106264000D01*
X131631095Y-106264000D01*
X131747014Y-106240942D01*
X131856207Y-106195713D01*
X131954478Y-106130050D01*
X132038050Y-106046478D01*
X132103713Y-105948207D01*
X132148942Y-105839014D01*
X132172000Y-105723095D01*
X132172000Y-105604905D01*
X132148942Y-105488986D01*
X132103713Y-105379793D01*
X132038050Y-105281522D01*
X131954478Y-105197950D01*
X131952000Y-105196294D01*
X131952000Y-104297400D01*
X132335506Y-103913895D01*
X132350000Y-103902000D01*
X132397487Y-103844138D01*
X132432772Y-103778123D01*
X132454501Y-103706493D01*
X132460000Y-103650661D01*
X132460000Y-103650655D01*
X132461837Y-103632001D01*
X132460000Y-103613347D01*
X132460000Y-103226390D01*
X132461837Y-103207736D01*
X132460000Y-103189082D01*
X132460000Y-103189075D01*
X132454501Y-103133243D01*
X132432772Y-103061613D01*
X132397487Y-102995598D01*
X132350000Y-102937736D01*
X132335501Y-102925837D01*
X132278164Y-102868500D01*
X132266264Y-102854000D01*
X132208402Y-102806513D01*
X132142387Y-102771228D01*
X132070757Y-102749499D01*
X132041451Y-102746613D01*
X132038050Y-102741522D01*
X131954478Y-102657950D01*
X131856207Y-102592287D01*
X131747014Y-102547058D01*
X131631095Y-102524000D01*
X131512905Y-102524000D01*
X131396986Y-102547058D01*
X131287793Y-102592287D01*
X131189522Y-102657950D01*
X131105950Y-102741522D01*
X131064000Y-102804304D01*
X131022050Y-102741522D01*
X130938478Y-102657950D01*
X130840207Y-102592287D01*
X130731014Y-102547058D01*
X130615095Y-102524000D01*
X130496905Y-102524000D01*
X130380986Y-102547058D01*
X130271793Y-102592287D01*
X130173522Y-102657950D01*
X130089950Y-102741522D01*
X130024287Y-102839793D01*
X129979058Y-102948986D01*
X129956000Y-103064905D01*
X129956000Y-103183095D01*
X129979058Y-103299014D01*
X130024287Y-103408207D01*
X130089950Y-103506478D01*
X130173522Y-103590050D01*
X130271793Y-103655713D01*
X130380986Y-103700942D01*
X130496905Y-103724000D01*
X130615095Y-103724000D01*
X130618018Y-103723419D01*
X130684000Y-103789401D01*
X130684000Y-104159879D01*
X130669401Y-104138030D01*
X130557970Y-104026599D01*
X130426942Y-103939049D01*
X130281351Y-103878743D01*
X130126793Y-103848000D01*
X129969207Y-103848000D01*
X129814649Y-103878743D01*
X129669058Y-103939049D01*
X129538030Y-104026599D01*
X129531400Y-104033229D01*
X129434207Y-103968287D01*
X129325014Y-103923058D01*
X129209095Y-103900000D01*
X129090905Y-103900000D01*
X128974986Y-103923058D01*
X128865793Y-103968287D01*
X128767522Y-104033950D01*
X128711301Y-104090171D01*
X128700000Y-104089058D01*
X128506000Y-104092000D01*
X128354000Y-104244000D01*
X128046000Y-104244000D01*
X127894000Y-104092000D01*
X127700000Y-104089058D01*
X127580811Y-104100797D01*
X127466203Y-104135563D01*
X127360579Y-104192020D01*
X127267999Y-104267999D01*
X127192020Y-104360579D01*
X127155366Y-104429155D01*
X127008793Y-104400000D01*
X126851207Y-104400000D01*
X126696649Y-104430743D01*
X126551058Y-104491049D01*
X126420030Y-104578599D01*
X126308599Y-104690030D01*
X126295000Y-104710382D01*
X126281401Y-104690030D01*
X126169970Y-104578599D01*
X126038942Y-104491049D01*
X125893351Y-104430743D01*
X125738793Y-104400000D01*
X125581207Y-104400000D01*
X125426649Y-104430743D01*
X125281058Y-104491049D01*
X125150030Y-104578599D01*
X125038599Y-104690030D01*
X125025000Y-104710382D01*
X125011401Y-104690030D01*
X124899970Y-104578599D01*
X124768942Y-104491049D01*
X124623351Y-104430743D01*
X124468793Y-104400000D01*
X124311207Y-104400000D01*
X124156649Y-104430743D01*
X124011058Y-104491049D01*
X123880030Y-104578599D01*
X123768599Y-104690030D01*
X123681049Y-104821058D01*
X123620743Y-104966649D01*
X123590000Y-105121207D01*
X123590000Y-105278793D01*
X123620743Y-105433351D01*
X123681049Y-105578942D01*
X123768599Y-105709970D01*
X123880030Y-105821401D01*
X124011058Y-105908951D01*
X124156649Y-105969257D01*
X124311207Y-106000000D01*
X124375440Y-106000000D01*
X124301983Y-106007235D01*
X124207733Y-106035825D01*
X124120871Y-106082254D01*
X124044736Y-106144736D01*
X124029075Y-106163819D01*
X122813824Y-107379071D01*
X122794736Y-107394736D01*
X122732254Y-107470871D01*
X122685825Y-107557734D01*
X122673004Y-107600000D01*
X122657235Y-107651983D01*
X122647581Y-107750000D01*
X121598528Y-107750000D01*
X121582478Y-107733950D01*
X121484207Y-107668287D01*
X121375014Y-107623058D01*
X121259095Y-107600000D01*
X121140905Y-107600000D01*
X121024986Y-107623058D01*
X120915793Y-107668287D01*
X120817522Y-107733950D01*
X120733950Y-107817522D01*
X120732294Y-107820000D01*
X117390021Y-107820000D01*
X117389010Y-107809737D01*
X117389010Y-101744901D01*
X121992888Y-101744901D01*
X122031462Y-101947589D01*
X122233215Y-102030847D01*
X122447335Y-102073144D01*
X122665592Y-102072855D01*
X122879598Y-102029993D01*
X123078538Y-101947589D01*
X123117112Y-101744901D01*
X122555000Y-101182789D01*
X121992888Y-101744901D01*
X117389010Y-101744901D01*
X117389010Y-100857335D01*
X121446856Y-100857335D01*
X121447145Y-101075592D01*
X121490007Y-101289598D01*
X121572411Y-101488538D01*
X121775099Y-101527112D01*
X122337211Y-100965000D01*
X122772789Y-100965000D01*
X123334901Y-101527112D01*
X123537589Y-101488538D01*
X123620847Y-101286785D01*
X123663144Y-101072665D01*
X123662855Y-100854408D01*
X123619993Y-100640402D01*
X123537589Y-100441462D01*
X123334901Y-100402888D01*
X122772789Y-100965000D01*
X122337211Y-100965000D01*
X121775099Y-100402888D01*
X121572411Y-100441462D01*
X121489153Y-100643215D01*
X121446856Y-100857335D01*
X117389010Y-100857335D01*
X117389010Y-100185099D01*
X121992888Y-100185099D01*
X122555000Y-100747211D01*
X123117112Y-100185099D01*
X123078538Y-99982411D01*
X122876785Y-99899153D01*
X122662665Y-99856856D01*
X122444408Y-99857145D01*
X122230402Y-99900007D01*
X122031462Y-99982411D01*
X121992888Y-100185099D01*
X117389010Y-100185099D01*
X117389010Y-87586990D01*
X119251284Y-87586990D01*
X119252940Y-87589468D01*
X119301816Y-87638344D01*
X119251522Y-87671950D01*
X119167950Y-87755522D01*
X119102287Y-87853793D01*
X119057058Y-87962986D01*
X119034000Y-88078905D01*
X119034000Y-88197095D01*
X119057058Y-88313014D01*
X119102287Y-88422207D01*
X119167950Y-88520478D01*
X119251522Y-88604050D01*
X119254000Y-88605706D01*
X119254001Y-90104546D01*
X119237403Y-90064477D01*
X119177213Y-89974396D01*
X119100604Y-89897787D01*
X119010523Y-89837597D01*
X118910429Y-89796136D01*
X118804170Y-89775000D01*
X118695830Y-89775000D01*
X118589571Y-89796136D01*
X118489477Y-89837597D01*
X118399396Y-89897787D01*
X118322787Y-89974396D01*
X118262597Y-90064477D01*
X118221136Y-90164571D01*
X118200000Y-90270830D01*
X118200000Y-90379170D01*
X118221136Y-90485429D01*
X118262597Y-90585523D01*
X118322787Y-90675604D01*
X118399396Y-90752213D01*
X118489477Y-90812403D01*
X118589571Y-90853864D01*
X118695830Y-90875000D01*
X118804170Y-90875000D01*
X118910429Y-90853864D01*
X119010523Y-90812403D01*
X119100604Y-90752213D01*
X119177213Y-90675604D01*
X119237403Y-90585523D01*
X119254001Y-90545453D01*
X119254001Y-91675336D01*
X119252163Y-91694000D01*
X119259499Y-91768492D01*
X119281228Y-91840122D01*
X119281229Y-91840123D01*
X119293235Y-91862586D01*
X119288000Y-91888905D01*
X119288000Y-92007095D01*
X119311058Y-92123014D01*
X119356287Y-92232207D01*
X119421950Y-92330478D01*
X119505522Y-92414050D01*
X119603793Y-92479713D01*
X119712986Y-92524942D01*
X119828905Y-92548000D01*
X119947095Y-92548000D01*
X120063014Y-92524942D01*
X120172207Y-92479713D01*
X120270478Y-92414050D01*
X120354050Y-92330478D01*
X120419713Y-92232207D01*
X120464942Y-92123014D01*
X120488000Y-92007095D01*
X120488000Y-91888905D01*
X120464942Y-91772986D01*
X120419713Y-91663793D01*
X120354050Y-91565522D01*
X120270478Y-91481950D01*
X120172207Y-91416287D01*
X120063014Y-91371058D01*
X120014000Y-91361308D01*
X120014000Y-88605706D01*
X120016478Y-88604050D01*
X120100050Y-88520478D01*
X120165713Y-88422207D01*
X120210942Y-88313014D01*
X120223663Y-88249063D01*
X121320581Y-89345982D01*
X121320000Y-89348905D01*
X121320000Y-89467095D01*
X121343058Y-89583014D01*
X121388287Y-89692207D01*
X121453950Y-89790478D01*
X121537522Y-89874050D01*
X121635793Y-89939713D01*
X121744986Y-89984942D01*
X121860905Y-90008000D01*
X121979095Y-90008000D01*
X122095014Y-89984942D01*
X122204207Y-89939713D01*
X122302478Y-89874050D01*
X122386050Y-89790478D01*
X122451713Y-89692207D01*
X122496942Y-89583014D01*
X122520000Y-89467095D01*
X122520000Y-89348905D01*
X122496942Y-89232986D01*
X122451713Y-89123793D01*
X122386050Y-89025522D01*
X122302478Y-88941950D01*
X122204207Y-88876287D01*
X122095014Y-88831058D01*
X121979095Y-88808000D01*
X121860905Y-88808000D01*
X121857982Y-88808581D01*
X120318409Y-87269008D01*
X120318990Y-87266085D01*
X120318990Y-87147895D01*
X120295932Y-87031976D01*
X120250703Y-86922783D01*
X120185040Y-86824512D01*
X120101468Y-86740940D01*
X120003197Y-86675277D01*
X119894004Y-86630048D01*
X119778085Y-86606990D01*
X119659895Y-86606990D01*
X119543976Y-86630048D01*
X119434783Y-86675277D01*
X119336512Y-86740940D01*
X119252940Y-86824512D01*
X119251284Y-86826990D01*
X117389010Y-86826990D01*
X117389010Y-46270830D01*
X118200000Y-46270830D01*
X118200000Y-46379170D01*
X118221136Y-46485429D01*
X118262597Y-46585523D01*
X118322787Y-46675604D01*
X118399396Y-46752213D01*
X118489477Y-46812403D01*
X118589571Y-46853864D01*
X118695830Y-46875000D01*
X118804170Y-46875000D01*
X118910429Y-46853864D01*
X119010523Y-46812403D01*
X119100604Y-46752213D01*
X119177213Y-46675604D01*
X119237403Y-46585523D01*
X119278864Y-46485429D01*
X119300000Y-46379170D01*
X119300000Y-46270830D01*
X119278864Y-46164571D01*
X119237403Y-46064477D01*
X119177213Y-45974396D01*
X119100604Y-45897787D01*
X119010523Y-45837597D01*
X118910429Y-45796136D01*
X118804170Y-45775000D01*
X118695830Y-45775000D01*
X118589571Y-45796136D01*
X118489477Y-45837597D01*
X118399396Y-45897787D01*
X118322787Y-45974396D01*
X118262597Y-46064477D01*
X118221136Y-46164571D01*
X118200000Y-46270830D01*
X117389010Y-46270830D01*
X117389010Y-45200390D01*
X117436495Y-45152905D01*
X121828000Y-45152905D01*
X121828000Y-45271095D01*
X121851058Y-45387014D01*
X121896287Y-45496207D01*
X121961950Y-45594478D01*
X122045522Y-45678050D01*
X122143793Y-45743713D01*
X122252986Y-45788942D01*
X122368905Y-45812000D01*
X122487095Y-45812000D01*
X122490018Y-45811419D01*
X124178104Y-47499505D01*
X124190000Y-47514000D01*
X124247862Y-47561487D01*
X124313877Y-47596772D01*
X124385507Y-47618501D01*
X124441339Y-47624000D01*
X124441346Y-47624000D01*
X124460000Y-47625837D01*
X124478654Y-47624000D01*
X124500294Y-47624000D01*
X124501950Y-47626478D01*
X124585522Y-47710050D01*
X124683793Y-47775713D01*
X124792986Y-47820942D01*
X124908905Y-47844000D01*
X125027095Y-47844000D01*
X125143014Y-47820942D01*
X125252207Y-47775713D01*
X125350478Y-47710050D01*
X125434050Y-47626478D01*
X125499713Y-47528207D01*
X125544942Y-47419014D01*
X125568000Y-47303095D01*
X125568000Y-47184905D01*
X125544942Y-47068986D01*
X125499713Y-46959793D01*
X125434050Y-46861522D01*
X125350478Y-46777950D01*
X125252207Y-46712287D01*
X125143014Y-46667058D01*
X125027095Y-46644000D01*
X124908905Y-46644000D01*
X124792986Y-46667058D01*
X124683793Y-46712287D01*
X124585522Y-46777950D01*
X124558436Y-46805036D01*
X123027419Y-45274018D01*
X123028000Y-45271095D01*
X123028000Y-45152905D01*
X123004942Y-45036986D01*
X122959713Y-44927793D01*
X122894050Y-44829522D01*
X122810478Y-44745950D01*
X122712207Y-44680287D01*
X122603014Y-44635058D01*
X122487095Y-44612000D01*
X122368905Y-44612000D01*
X122252986Y-44635058D01*
X122143793Y-44680287D01*
X122045522Y-44745950D01*
X121961950Y-44829522D01*
X121896287Y-44927793D01*
X121851058Y-45036986D01*
X121828000Y-45152905D01*
X117436495Y-45152905D01*
X118013402Y-44576000D01*
X120436294Y-44576000D01*
X120437950Y-44578478D01*
X120521522Y-44662050D01*
X120619793Y-44727713D01*
X120728986Y-44772942D01*
X120844905Y-44796000D01*
X120963095Y-44796000D01*
X121079014Y-44772942D01*
X121188207Y-44727713D01*
X121286478Y-44662050D01*
X121370050Y-44578478D01*
X121435713Y-44480207D01*
X121480942Y-44371014D01*
X121504000Y-44255095D01*
X121504000Y-44136905D01*
X121480942Y-44020986D01*
X121435713Y-43911793D01*
X121370050Y-43813522D01*
X121286478Y-43729950D01*
X121188207Y-43664287D01*
X121079014Y-43619058D01*
X120963095Y-43596000D01*
X120844905Y-43596000D01*
X120728986Y-43619058D01*
X120619793Y-43664287D01*
X120521522Y-43729950D01*
X120437950Y-43813522D01*
X120436294Y-43816000D01*
X117874654Y-43816000D01*
X117856000Y-43814163D01*
X117837346Y-43816000D01*
X117837339Y-43816000D01*
X117781507Y-43821499D01*
X117709877Y-43843228D01*
X117643862Y-43878513D01*
X117620549Y-43897646D01*
X117600494Y-43914104D01*
X117600489Y-43914109D01*
X117586000Y-43926000D01*
X117574109Y-43940490D01*
X116753509Y-44761091D01*
X116739010Y-44772990D01*
X116691523Y-44830852D01*
X116656238Y-44896867D01*
X116634509Y-44968497D01*
X116629010Y-45024329D01*
X116629010Y-45024337D01*
X116627173Y-45042990D01*
X116629010Y-45061643D01*
X116629010Y-45230660D01*
X116629011Y-45230670D01*
X116629010Y-87188329D01*
X116627172Y-87206990D01*
X116575000Y-87206990D01*
X116575000Y-43325000D01*
X146425001Y-43325000D01*
X146425000Y-180675000D01*
G36*
X134750001Y-107698529D02*
G01*
X134750000Y-109980353D01*
X134748065Y-110000000D01*
X134750000Y-110019646D01*
X134755788Y-110078413D01*
X134778660Y-110153813D01*
X134815803Y-110223302D01*
X134865789Y-110284211D01*
X134881052Y-110296737D01*
X135050000Y-110465685D01*
X135050000Y-110559095D01*
X135073058Y-110675014D01*
X135118287Y-110784207D01*
X135183950Y-110882478D01*
X135267522Y-110966050D01*
X135365793Y-111031713D01*
X135474986Y-111076942D01*
X135590905Y-111100000D01*
X135709095Y-111100000D01*
X135825014Y-111076942D01*
X135900001Y-111045882D01*
X135900001Y-111775430D01*
X135897581Y-111800000D01*
X135907235Y-111898017D01*
X135927304Y-111964174D01*
X135935826Y-111992267D01*
X135982255Y-112079129D01*
X136044737Y-112155264D01*
X136063819Y-112170924D01*
X137300000Y-113407106D01*
X137300001Y-115992893D01*
X137280972Y-116011921D01*
X137224986Y-116023058D01*
X137115793Y-116068287D01*
X137068331Y-116100000D01*
X132407866Y-116100000D01*
X132407866Y-115870999D01*
X132439579Y-115823537D01*
X132484808Y-115714344D01*
X132507866Y-115598425D01*
X132507866Y-115480235D01*
X132484808Y-115364316D01*
X132439579Y-115255123D01*
X132373916Y-115156852D01*
X132290344Y-115073280D01*
X132192073Y-115007617D01*
X132082880Y-114962388D01*
X131966961Y-114939330D01*
X131848771Y-114939330D01*
X131732852Y-114962388D01*
X131623659Y-115007617D01*
X131576197Y-115039330D01*
X131417624Y-115039330D01*
X131446478Y-115020050D01*
X131530050Y-114936478D01*
X131595713Y-114838207D01*
X131640942Y-114729014D01*
X131664000Y-114613095D01*
X131664000Y-114494905D01*
X131640942Y-114378986D01*
X131595713Y-114269793D01*
X131530050Y-114171522D01*
X131446478Y-114087950D01*
X131348207Y-114022287D01*
X131300548Y-114002546D01*
X131276138Y-113982513D01*
X131210123Y-113947228D01*
X131138493Y-113925499D01*
X131064000Y-113918162D01*
X130989508Y-113925499D01*
X130917878Y-113947228D01*
X130851863Y-113982513D01*
X130827454Y-114002545D01*
X130779793Y-114022287D01*
X130681522Y-114087950D01*
X130597950Y-114171522D01*
X130532287Y-114269793D01*
X130487058Y-114378986D01*
X130477308Y-114428000D01*
X129110692Y-114428000D01*
X129100942Y-114378986D01*
X129055713Y-114269793D01*
X128990050Y-114171522D01*
X128906478Y-114087950D01*
X128808207Y-114022287D01*
X128699014Y-113977058D01*
X128583095Y-113954000D01*
X128464905Y-113954000D01*
X128348986Y-113977058D01*
X128239793Y-114022287D01*
X128141522Y-114087950D01*
X128057950Y-114171522D01*
X127992287Y-114269793D01*
X127947058Y-114378986D01*
X127940628Y-114411310D01*
X126850791Y-114411310D01*
X126892123Y-114398772D01*
X126914587Y-114386765D01*
X126940905Y-114392000D01*
X127059095Y-114392000D01*
X127175014Y-114368942D01*
X127284207Y-114323713D01*
X127382478Y-114258050D01*
X127466050Y-114174478D01*
X127531713Y-114076207D01*
X127576942Y-113967014D01*
X127600000Y-113851095D01*
X127600000Y-113732905D01*
X127576942Y-113616986D01*
X127531713Y-113507793D01*
X127466050Y-113409522D01*
X127382478Y-113325950D01*
X127284207Y-113260287D01*
X127175014Y-113215058D01*
X127059095Y-113192000D01*
X126940905Y-113192000D01*
X126824986Y-113215058D01*
X126715793Y-113260287D01*
X126617522Y-113325950D01*
X126533950Y-113409522D01*
X126468287Y-113507793D01*
X126428197Y-113604578D01*
X125480000Y-112656382D01*
X125480000Y-112318653D01*
X125481837Y-112299999D01*
X125480000Y-112281345D01*
X125480000Y-112281339D01*
X125474501Y-112225507D01*
X125452772Y-112153877D01*
X125417487Y-112087862D01*
X125370000Y-112030000D01*
X125355506Y-112018105D01*
X125180556Y-111843156D01*
X125176942Y-111824986D01*
X125131713Y-111715793D01*
X125066050Y-111617522D01*
X124982478Y-111533950D01*
X124956669Y-111516705D01*
X125032478Y-111466050D01*
X125116050Y-111382478D01*
X125181713Y-111284207D01*
X125226942Y-111175014D01*
X125250000Y-111059095D01*
X125250000Y-110940905D01*
X125226942Y-110824986D01*
X125181713Y-110715793D01*
X125116050Y-110617522D01*
X125032478Y-110533950D01*
X124934207Y-110468287D01*
X124825014Y-110423058D01*
X124709095Y-110400000D01*
X124590905Y-110400000D01*
X124474986Y-110423058D01*
X124365793Y-110468287D01*
X124318331Y-110500000D01*
X124107106Y-110500000D01*
X123650000Y-110042895D01*
X123650000Y-107957105D01*
X123852006Y-107755099D01*
X123823058Y-107824986D01*
X123800000Y-107940905D01*
X123800000Y-108059095D01*
X123823058Y-108175014D01*
X123868287Y-108284207D01*
X123933950Y-108382478D01*
X124000000Y-108448528D01*
X124000001Y-108980344D01*
X123998065Y-109000000D01*
X124005788Y-109078413D01*
X124028661Y-109153814D01*
X124065803Y-109223302D01*
X124103265Y-109268950D01*
X124103268Y-109268953D01*
X124115790Y-109284211D01*
X124131048Y-109296733D01*
X124503263Y-109668948D01*
X124515789Y-109684211D01*
X124576697Y-109734197D01*
X124646186Y-109771340D01*
X124721586Y-109794212D01*
X124780353Y-109800000D01*
X124780363Y-109800000D01*
X124799999Y-109801934D01*
X124819635Y-109800000D01*
X125151472Y-109800000D01*
X125217522Y-109866050D01*
X125315793Y-109931713D01*
X125424986Y-109976942D01*
X125540905Y-110000000D01*
X125659095Y-110000000D01*
X125775014Y-109976942D01*
X125884207Y-109931713D01*
X125982478Y-109866050D01*
X126066050Y-109782478D01*
X126131713Y-109684207D01*
X126176942Y-109575014D01*
X126200000Y-109459095D01*
X126200000Y-109340905D01*
X126176942Y-109224986D01*
X126131713Y-109115793D01*
X126066050Y-109017522D01*
X125982478Y-108933950D01*
X125884207Y-108868287D01*
X125775014Y-108823058D01*
X125659095Y-108800000D01*
X125540905Y-108800000D01*
X125424986Y-108823058D01*
X125315793Y-108868287D01*
X125217522Y-108933950D01*
X125151472Y-109000000D01*
X124965685Y-109000000D01*
X124800000Y-108834315D01*
X124800000Y-108448528D01*
X124866050Y-108382478D01*
X124931713Y-108284207D01*
X124976942Y-108175014D01*
X125000000Y-108059095D01*
X125000000Y-107940905D01*
X124976942Y-107824986D01*
X124931713Y-107715793D01*
X124898940Y-107666745D01*
X124915686Y-107650000D01*
X134701472Y-107650000D01*
X134750001Y-107698529D01*
G37*
X134750001Y-107698529D02*
X134750000Y-109980353D01*
X134748065Y-110000000D01*
X134750000Y-110019646D01*
X134755788Y-110078413D01*
X134778660Y-110153813D01*
X134815803Y-110223302D01*
X134865789Y-110284211D01*
X134881052Y-110296737D01*
X135050000Y-110465685D01*
X135050000Y-110559095D01*
X135073058Y-110675014D01*
X135118287Y-110784207D01*
X135183950Y-110882478D01*
X135267522Y-110966050D01*
X135365793Y-111031713D01*
X135474986Y-111076942D01*
X135590905Y-111100000D01*
X135709095Y-111100000D01*
X135825014Y-111076942D01*
X135900001Y-111045882D01*
X135900001Y-111775430D01*
X135897581Y-111800000D01*
X135907235Y-111898017D01*
X135927304Y-111964174D01*
X135935826Y-111992267D01*
X135982255Y-112079129D01*
X136044737Y-112155264D01*
X136063819Y-112170924D01*
X137300000Y-113407106D01*
X137300001Y-115992893D01*
X137280972Y-116011921D01*
X137224986Y-116023058D01*
X137115793Y-116068287D01*
X137068331Y-116100000D01*
X132407866Y-116100000D01*
X132407866Y-115870999D01*
X132439579Y-115823537D01*
X132484808Y-115714344D01*
X132507866Y-115598425D01*
X132507866Y-115480235D01*
X132484808Y-115364316D01*
X132439579Y-115255123D01*
X132373916Y-115156852D01*
X132290344Y-115073280D01*
X132192073Y-115007617D01*
X132082880Y-114962388D01*
X131966961Y-114939330D01*
X131848771Y-114939330D01*
X131732852Y-114962388D01*
X131623659Y-115007617D01*
X131576197Y-115039330D01*
X131417624Y-115039330D01*
X131446478Y-115020050D01*
X131530050Y-114936478D01*
X131595713Y-114838207D01*
X131640942Y-114729014D01*
X131664000Y-114613095D01*
X131664000Y-114494905D01*
X131640942Y-114378986D01*
X131595713Y-114269793D01*
X131530050Y-114171522D01*
X131446478Y-114087950D01*
X131348207Y-114022287D01*
X131300548Y-114002546D01*
X131276138Y-113982513D01*
X131210123Y-113947228D01*
X131138493Y-113925499D01*
X131064000Y-113918162D01*
X130989508Y-113925499D01*
X130917878Y-113947228D01*
X130851863Y-113982513D01*
X130827454Y-114002545D01*
X130779793Y-114022287D01*
X130681522Y-114087950D01*
X130597950Y-114171522D01*
X130532287Y-114269793D01*
X130487058Y-114378986D01*
X130477308Y-114428000D01*
X129110692Y-114428000D01*
X129100942Y-114378986D01*
X129055713Y-114269793D01*
X128990050Y-114171522D01*
X128906478Y-114087950D01*
X128808207Y-114022287D01*
X128699014Y-113977058D01*
X128583095Y-113954000D01*
X128464905Y-113954000D01*
X128348986Y-113977058D01*
X128239793Y-114022287D01*
X128141522Y-114087950D01*
X128057950Y-114171522D01*
X127992287Y-114269793D01*
X127947058Y-114378986D01*
X127940628Y-114411310D01*
X126850791Y-114411310D01*
X126892123Y-114398772D01*
X126914587Y-114386765D01*
X126940905Y-114392000D01*
X127059095Y-114392000D01*
X127175014Y-114368942D01*
X127284207Y-114323713D01*
X127382478Y-114258050D01*
X127466050Y-114174478D01*
X127531713Y-114076207D01*
X127576942Y-113967014D01*
X127600000Y-113851095D01*
X127600000Y-113732905D01*
X127576942Y-113616986D01*
X127531713Y-113507793D01*
X127466050Y-113409522D01*
X127382478Y-113325950D01*
X127284207Y-113260287D01*
X127175014Y-113215058D01*
X127059095Y-113192000D01*
X126940905Y-113192000D01*
X126824986Y-113215058D01*
X126715793Y-113260287D01*
X126617522Y-113325950D01*
X126533950Y-113409522D01*
X126468287Y-113507793D01*
X126428197Y-113604578D01*
X125480000Y-112656382D01*
X125480000Y-112318653D01*
X125481837Y-112299999D01*
X125480000Y-112281345D01*
X125480000Y-112281339D01*
X125474501Y-112225507D01*
X125452772Y-112153877D01*
X125417487Y-112087862D01*
X125370000Y-112030000D01*
X125355506Y-112018105D01*
X125180556Y-111843156D01*
X125176942Y-111824986D01*
X125131713Y-111715793D01*
X125066050Y-111617522D01*
X124982478Y-111533950D01*
X124956669Y-111516705D01*
X125032478Y-111466050D01*
X125116050Y-111382478D01*
X125181713Y-111284207D01*
X125226942Y-111175014D01*
X125250000Y-111059095D01*
X125250000Y-110940905D01*
X125226942Y-110824986D01*
X125181713Y-110715793D01*
X125116050Y-110617522D01*
X125032478Y-110533950D01*
X124934207Y-110468287D01*
X124825014Y-110423058D01*
X124709095Y-110400000D01*
X124590905Y-110400000D01*
X124474986Y-110423058D01*
X124365793Y-110468287D01*
X124318331Y-110500000D01*
X124107106Y-110500000D01*
X123650000Y-110042895D01*
X123650000Y-107957105D01*
X123852006Y-107755099D01*
X123823058Y-107824986D01*
X123800000Y-107940905D01*
X123800000Y-108059095D01*
X123823058Y-108175014D01*
X123868287Y-108284207D01*
X123933950Y-108382478D01*
X124000000Y-108448528D01*
X124000001Y-108980344D01*
X123998065Y-109000000D01*
X124005788Y-109078413D01*
X124028661Y-109153814D01*
X124065803Y-109223302D01*
X124103265Y-109268950D01*
X124103268Y-109268953D01*
X124115790Y-109284211D01*
X124131048Y-109296733D01*
X124503263Y-109668948D01*
X124515789Y-109684211D01*
X124576697Y-109734197D01*
X124646186Y-109771340D01*
X124721586Y-109794212D01*
X124780353Y-109800000D01*
X124780363Y-109800000D01*
X124799999Y-109801934D01*
X124819635Y-109800000D01*
X125151472Y-109800000D01*
X125217522Y-109866050D01*
X125315793Y-109931713D01*
X125424986Y-109976942D01*
X125540905Y-110000000D01*
X125659095Y-110000000D01*
X125775014Y-109976942D01*
X125884207Y-109931713D01*
X125982478Y-109866050D01*
X126066050Y-109782478D01*
X126131713Y-109684207D01*
X126176942Y-109575014D01*
X126200000Y-109459095D01*
X126200000Y-109340905D01*
X126176942Y-109224986D01*
X126131713Y-109115793D01*
X126066050Y-109017522D01*
X125982478Y-108933950D01*
X125884207Y-108868287D01*
X125775014Y-108823058D01*
X125659095Y-108800000D01*
X125540905Y-108800000D01*
X125424986Y-108823058D01*
X125315793Y-108868287D01*
X125217522Y-108933950D01*
X125151472Y-109000000D01*
X124965685Y-109000000D01*
X124800000Y-108834315D01*
X124800000Y-108448528D01*
X124866050Y-108382478D01*
X124931713Y-108284207D01*
X124976942Y-108175014D01*
X125000000Y-108059095D01*
X125000000Y-107940905D01*
X124976942Y-107824986D01*
X124931713Y-107715793D01*
X124898940Y-107666745D01*
X124915686Y-107650000D01*
X134701472Y-107650000D01*
X134750001Y-107698529D01*
M02*
