M48
; DRILL file {KiCad 5.1.5+dfsg1-2build2} date Thu 10 Feb 2022 09:46:46 PM
; FORMAT={-:-/ absolute / inch / decimal}
; #@! TF.CreationDate,2022-02-10T21:46:46-05:00
; #@! TF.GenerationSoftware,Kicad,Pcbnew,5.1.5+dfsg1-2build2
; #@! TF.FileFunction,Plated,1,2,PTH
FMAT,2
INCH
T1C0.0118
T2C0.0362
T3C0.0394
%
G90
G05
T1
X4.68Y-1.9
X4.7Y-5.22
X4.71Y-3.47
X4.7133Y-3.4333
X4.7178Y-6.8667
X4.72Y-3.62
X4.72Y-5.36
X4.72Y-6.9
X4.72Y-7.06
X4.7267Y-5.1667
X4.76Y-1.74
X4.7717Y-4.2598
X4.8Y-3.52
X4.8Y-5.24
X4.8Y-6.94
X4.82Y-1.78
X4.8583Y-4.1732
X4.8787Y-4.3102
X4.8972Y-4.1417
X4.8976Y-4.252
X4.9055Y-4.4094
X4.9075Y-4.3701
X4.91Y-4.49
X4.91Y-4.52
X4.92Y-1.86
X4.92Y-3.34
X4.92Y-3.54
X4.9449Y-4.3071
X4.9469Y-4.685
X4.9469Y-5.0731
X4.9469Y-5.2531
X4.9469Y-6.7731
X4.9469Y-6.9531
X4.9472Y-4.1417
X5.0Y-4.48
X5.0Y-4.48
X5.004Y-4.1927
X5.02Y-1.78
X5.06Y-4.51
X5.0846Y-4.1142
X5.0945Y-4.2913
X5.0945Y-4.3701
X5.124Y-4.626
X5.1339Y-4.3307
X5.14Y-4.06
X5.1417Y-4.1583
X5.16Y-4.51
X5.1732Y-4.2913
X5.1732Y-4.3701
X5.18Y-4.06
X5.18Y-4.16
X5.1932Y-4.5488
X5.2362Y-4.6929
X5.2835Y-4.622
X5.311Y-4.1437
X5.3209Y-4.2224
X5.3406Y-4.3504
X5.3504Y-4.3209
X5.3701Y-4.1732
X5.3799Y-4.4587
X5.3937Y-4.1181
X5.4094Y-4.5906
X5.4341Y-4.3356
X5.4724Y-4.3701
X5.5039Y-4.2126
T2
X5.5866Y-4.2717
X5.5866Y-4.3701
X5.5866Y-4.4488
X5.5866Y-4.5472
T3
G00X5.6398Y-4.1791
M15
G01X5.6988Y-4.1791
M16
G05
G00X5.6398Y-4.6398
M15
G01X5.6988Y-4.6398
M16
G05
T0
M30
