%TF.GenerationSoftware,KiCad,Pcbnew,6.0.5-a6ca702e91~116~ubuntu22.04.1*%
%TF.CreationDate,2022-06-26T16:54:06-07:00*%
%TF.ProjectId,OSSG_v0p3,4f535347-5f76-4307-9033-2e6b69636164,v0.3*%
%TF.SameCoordinates,Original*%
%TF.FileFunction,Copper,L3,Inr*%
%TF.FilePolarity,Positive*%
%FSLAX46Y46*%
G04 Gerber Fmt 4.6, Leading zero omitted, Abs format (unit mm)*
G04 Created by KiCad (PCBNEW 6.0.5-a6ca702e91~116~ubuntu22.04.1) date 2022-06-26 16:54:06*
%MOMM*%
%LPD*%
G01*
G04 APERTURE LIST*
%TA.AperFunction,ComponentPad*%
%ADD10C,0.381000*%
%TD*%
%TA.AperFunction,ComponentPad*%
%ADD11O,1.250000X0.950000*%
%TD*%
%TA.AperFunction,ComponentPad*%
%ADD12O,0.890000X1.550000*%
%TD*%
%TA.AperFunction,ViaPad*%
%ADD13C,0.450000*%
%TD*%
%TA.AperFunction,ViaPad*%
%ADD14C,1.000000*%
%TD*%
%TA.AperFunction,ViaPad*%
%ADD15C,0.700000*%
%TD*%
%TA.AperFunction,ViaPad*%
%ADD16C,0.500000*%
%TD*%
%TA.AperFunction,Conductor*%
%ADD17C,0.150000*%
%TD*%
G04 APERTURE END LIST*
D10*
%TO.N,N/C*%
%TO.C,U6*%
X85462600Y-82350000D03*
%TD*%
D11*
%TO.N,GND*%
%TO.C,J1*%
X129400000Y-79900000D03*
D12*
X128400000Y-82600000D03*
X135400000Y-82600000D03*
D11*
X134400000Y-79900000D03*
%TD*%
D13*
%TO.N,EN*%
X110700000Y-80710000D03*
X119840000Y-82595000D03*
X96800000Y-78900000D03*
D14*
%TO.N,GND*%
X112610000Y-80240000D03*
X112580000Y-78870000D03*
D13*
X100960000Y-80300000D03*
X105760000Y-80300000D03*
D14*
X115300000Y-78880000D03*
D13*
X104160000Y-80300000D03*
X99580000Y-79280000D03*
X107150000Y-79100000D03*
X99580000Y-78480000D03*
D14*
X112600000Y-77420000D03*
D13*
X99580000Y-76880000D03*
X123664663Y-82671699D03*
X86870000Y-82190000D03*
X106500000Y-80300000D03*
X122384362Y-81682341D03*
X102560000Y-80300000D03*
D14*
X113910000Y-78860000D03*
D13*
X108892668Y-80078575D03*
X107150000Y-76080000D03*
D14*
X116660000Y-77440000D03*
D13*
X152550000Y-78525000D03*
D14*
X115330000Y-80250000D03*
D15*
X134630000Y-76090000D03*
D13*
X101760000Y-80300000D03*
X103360000Y-80300000D03*
D14*
X115310000Y-81540000D03*
D15*
X124730000Y-79860000D03*
D13*
X128500000Y-80250000D03*
D15*
X126970000Y-76960000D03*
X145775000Y-80325000D03*
D13*
X137860980Y-79388514D03*
X99580000Y-76080000D03*
X128675000Y-78375000D03*
D14*
X132900000Y-82600000D03*
D13*
X107150000Y-76880000D03*
X131200000Y-76625000D03*
X110237500Y-76250000D03*
D14*
X116670000Y-80260000D03*
D13*
X98300000Y-77350000D03*
X107150000Y-78270000D03*
D14*
X116650000Y-81550000D03*
D13*
X100240000Y-80300000D03*
D14*
X113940000Y-80230000D03*
D15*
X147305000Y-79845000D03*
D13*
X107150000Y-79970000D03*
D14*
X129550000Y-82600000D03*
D13*
X99580000Y-77680000D03*
X104960000Y-80300000D03*
D14*
X130900000Y-82600000D03*
X113920000Y-81520000D03*
D13*
X99590000Y-79980000D03*
D14*
X134350000Y-82600000D03*
X116640000Y-78890000D03*
X113930000Y-77410000D03*
D16*
X139650000Y-82800000D03*
D14*
X115320000Y-77430000D03*
X112590000Y-81530000D03*
D15*
%TO.N,+3.3VA*%
X110862500Y-78025000D03*
D13*
X109188941Y-76130596D03*
D15*
X111090000Y-76050000D03*
D13*
%TO.N,ADC1C0*%
X107740000Y-81280000D03*
%TO.N,ADC1C1*%
X109890000Y-80670000D03*
X110010000Y-81870000D03*
%TO.N,ADC1C2*%
X121250000Y-83530000D03*
X137550000Y-78700000D03*
X110700000Y-78810000D03*
%TO.N,BATT-*%
X158000000Y-77140000D03*
%TO.N,Net-(D2-Pad1)*%
X143225000Y-78600000D03*
X139625000Y-75975000D03*
%TO.N,Net-(C9-Pad1)*%
X126500000Y-81850000D03*
X122925000Y-82175000D03*
%TO.N,RTS*%
X120950000Y-78050000D03*
X122800000Y-78050000D03*
%TO.N,IO0*%
X119999511Y-77709511D03*
X118880000Y-83200000D03*
%TO.N,DTR*%
X121850000Y-81175000D03*
X121225000Y-79525000D03*
D15*
%TO.N,BATT+*%
X147405538Y-76005538D03*
D13*
X139900000Y-80925000D03*
%TO.N,+3V3*%
X126000000Y-82700000D03*
X134525000Y-77925000D03*
X93440000Y-78800000D03*
D16*
X83200000Y-80950000D03*
D13*
X114641757Y-83352982D03*
D16*
X86950000Y-80550000D03*
D13*
X117990000Y-76100000D03*
D15*
X133375000Y-77174020D03*
D16*
X83700000Y-80300000D03*
D13*
X121225000Y-82625000D03*
%TO.N,IO4*%
X120190000Y-83240000D03*
%TO.N,TX_ESP*%
X122200000Y-75800000D03*
%TO.N,RX_ESP*%
X121230000Y-76810000D03*
%TO.N,IO25*%
X102820000Y-83060000D03*
X112350000Y-83290000D03*
X110340000Y-83280000D03*
%TO.N,IO26*%
X100310000Y-83150000D03*
X113120000Y-83430000D03*
%TO.N,IO21*%
X114730000Y-75460000D03*
%TO.N,IO15*%
X115890000Y-83280000D03*
%TO.N,IO14*%
X105230000Y-82190000D03*
X113900000Y-83349020D03*
X110740000Y-81500000D03*
%TO.N,IO16*%
X120380000Y-81900000D03*
%TO.N,IO32*%
X83350000Y-82400000D03*
X110770000Y-82390000D03*
%TO.N,IO33*%
X88987747Y-81512253D03*
%TO.N,EXT1_MIC_CLK*%
X118420000Y-78250000D03*
X124010000Y-76890000D03*
%TO.N,IO18*%
X118840000Y-77110000D03*
%TO.N,Net-(IC1-Pad3)*%
X155625000Y-77800000D03*
X155525000Y-75700000D03*
%TO.N,V_PSU*%
X137381475Y-77900000D03*
X138050000Y-75700000D03*
%TO.N,PSEN*%
X138710000Y-82750000D03*
X142191444Y-81658556D03*
X137075000Y-75925000D03*
%TO.N,EXT1_MIC_DATA*%
X124797675Y-76965890D03*
X118675500Y-81014500D03*
%TO.N,Net-(R6-Pad1)*%
X85150000Y-80600000D03*
X84200000Y-82450000D03*
%TO.N,V_USB*%
X136712500Y-78662500D03*
X145110358Y-79845000D03*
X144565343Y-82020000D03*
X136825500Y-76625000D03*
%TD*%
D17*
%TO.N,EN*%
X110700000Y-80710000D02*
X110960000Y-80970000D01*
X111210000Y-82250000D02*
X111460000Y-82500000D01*
X111210000Y-80980000D02*
X111210000Y-82250000D01*
X111200000Y-80970000D02*
X111210000Y-80980000D01*
X110960000Y-80970000D02*
X111200000Y-80970000D01*
X111460000Y-82500000D02*
X119832500Y-82500000D01*
%TO.N,ADC1C1*%
X109900000Y-81405740D02*
X109890000Y-81395740D01*
X109890000Y-80670000D02*
X109890000Y-81395740D01*
X110010000Y-81690000D02*
X110010000Y-81870000D01*
X109900000Y-81580000D02*
X110010000Y-81690000D01*
X109900000Y-81580000D02*
X109900000Y-81405740D01*
%TO.N,ADC1C2*%
X109390489Y-81990489D02*
X110249520Y-82849520D01*
X118580000Y-83700000D02*
X120900000Y-83700000D01*
X121000000Y-83600000D02*
X121000000Y-83550000D01*
X121020000Y-83530000D02*
X121250000Y-83530000D01*
X109390489Y-80119511D02*
X109390489Y-81990489D01*
X117729520Y-82849520D02*
X118580000Y-83700000D01*
X110249520Y-82849520D02*
X117729520Y-82849520D01*
X120900000Y-83700000D02*
X121000000Y-83600000D01*
X121000000Y-83550000D02*
X121020000Y-83530000D01*
X110700000Y-78810000D02*
X109390489Y-80119511D01*
%TO.N,IO26*%
X113120000Y-83430000D02*
X113120000Y-83510020D01*
X113120000Y-83510020D02*
X112960000Y-83670020D01*
X112960000Y-83670020D02*
X112960000Y-83690000D01*
X112960000Y-83690000D02*
X100885480Y-83690000D01*
X100885480Y-83690000D02*
X100310000Y-83114520D01*
%TO.N,EXT1_MIC_CLK*%
X123600000Y-77300000D02*
X124010000Y-76890000D01*
X122660000Y-77300000D02*
X123600000Y-77300000D01*
X120100000Y-78250000D02*
X120890000Y-77460000D01*
X118420000Y-78250000D02*
X120100000Y-78250000D01*
X121050000Y-77300000D02*
X122660000Y-77300000D01*
X120890000Y-77460000D02*
X121050000Y-77300000D01*
%TO.N,V_PSU*%
X138050000Y-75700000D02*
X138050000Y-77231475D01*
X138050000Y-77231475D02*
X137381475Y-77900000D01*
%TO.N,EXT1_MIC_DATA*%
X118675500Y-81014500D02*
X120749065Y-81014500D01*
X120749065Y-81014500D02*
X124797675Y-76965890D01*
%TD*%
%TA.AperFunction,Conductor*%
%TO.N,+3V3*%
G36*
X115577415Y-83032049D02*
G01*
X115584444Y-83049020D01*
X115581828Y-83059916D01*
X115533910Y-83153961D01*
X115529390Y-83162831D01*
X115516996Y-83241083D01*
X115512598Y-83268853D01*
X115510832Y-83280000D01*
X115529390Y-83397169D01*
X115530248Y-83398853D01*
X115582298Y-83501006D01*
X115583247Y-83502869D01*
X115667131Y-83586753D01*
X115668812Y-83587609D01*
X115668814Y-83587611D01*
X115771147Y-83639752D01*
X115772831Y-83640610D01*
X115890000Y-83659168D01*
X116007169Y-83640610D01*
X116008853Y-83639752D01*
X116111186Y-83587611D01*
X116111188Y-83587609D01*
X116112869Y-83586753D01*
X116196753Y-83502869D01*
X116197703Y-83501006D01*
X116249752Y-83398853D01*
X116250610Y-83397169D01*
X116269168Y-83280000D01*
X116267403Y-83268853D01*
X116263004Y-83241083D01*
X116250610Y-83162831D01*
X116246091Y-83153961D01*
X116198172Y-83059916D01*
X116196731Y-83041604D01*
X116208660Y-83027636D01*
X116219556Y-83025020D01*
X117646884Y-83025020D01*
X117663855Y-83032049D01*
X118390335Y-83758529D01*
X118397364Y-83775500D01*
X118390335Y-83792471D01*
X118373364Y-83799500D01*
X113319688Y-83799500D01*
X113302717Y-83792471D01*
X113295688Y-83775500D01*
X113302717Y-83758529D01*
X113308792Y-83754116D01*
X113311240Y-83752869D01*
X113329137Y-83743750D01*
X113341186Y-83737611D01*
X113341188Y-83737609D01*
X113342869Y-83736753D01*
X113426753Y-83652869D01*
X113428800Y-83648853D01*
X113479752Y-83548853D01*
X113480610Y-83547169D01*
X113492959Y-83469202D01*
X113502557Y-83453540D01*
X113520418Y-83449251D01*
X113536080Y-83458849D01*
X113539196Y-83464963D01*
X113539390Y-83466189D01*
X113561586Y-83509751D01*
X113581510Y-83548853D01*
X113593247Y-83571889D01*
X113677131Y-83655773D01*
X113678812Y-83656629D01*
X113678814Y-83656631D01*
X113780817Y-83708604D01*
X113782831Y-83709630D01*
X113900000Y-83728188D01*
X114017169Y-83709630D01*
X114019183Y-83708604D01*
X114121186Y-83656631D01*
X114121188Y-83656629D01*
X114122869Y-83655773D01*
X114206753Y-83571889D01*
X114218491Y-83548853D01*
X114259752Y-83467873D01*
X114259752Y-83467872D01*
X114260610Y-83466189D01*
X114279168Y-83349020D01*
X114260610Y-83231851D01*
X114255789Y-83222389D01*
X114207611Y-83127834D01*
X114207609Y-83127832D01*
X114206753Y-83126151D01*
X114146593Y-83065991D01*
X114139564Y-83049020D01*
X114146593Y-83032049D01*
X114163564Y-83025020D01*
X115560444Y-83025020D01*
X115577415Y-83032049D01*
G37*
%TD.AperFunction*%
%TA.AperFunction,Conductor*%
G36*
X114420094Y-75207529D02*
G01*
X114427123Y-75224500D01*
X114423052Y-75237032D01*
X114423247Y-75237131D01*
X114422391Y-75238811D01*
X114395598Y-75291396D01*
X114369390Y-75342831D01*
X114354811Y-75434875D01*
X114352978Y-75446454D01*
X114350832Y-75460000D01*
X114369390Y-75577169D01*
X114370248Y-75578853D01*
X114422370Y-75681147D01*
X114423247Y-75682869D01*
X114507131Y-75766753D01*
X114508812Y-75767609D01*
X114508814Y-75767611D01*
X114585894Y-75806885D01*
X114612831Y-75820610D01*
X114730000Y-75839168D01*
X114847169Y-75820610D01*
X114874106Y-75806885D01*
X114887619Y-75800000D01*
X121820832Y-75800000D01*
X121821127Y-75801863D01*
X121821806Y-75806147D01*
X121839390Y-75917169D01*
X121840248Y-75918853D01*
X121890551Y-76017577D01*
X121893247Y-76022869D01*
X121977131Y-76106753D01*
X121978812Y-76107609D01*
X121978814Y-76107611D01*
X122067140Y-76152615D01*
X122082831Y-76160610D01*
X122200000Y-76179168D01*
X122317169Y-76160610D01*
X122332860Y-76152615D01*
X122421186Y-76107611D01*
X122421188Y-76107609D01*
X122422869Y-76106753D01*
X122506753Y-76022869D01*
X122509450Y-76017577D01*
X122559752Y-75918853D01*
X122560610Y-75917169D01*
X122578194Y-75806147D01*
X122578873Y-75801863D01*
X122579168Y-75800000D01*
X122578092Y-75793203D01*
X122571586Y-75752131D01*
X122560610Y-75682831D01*
X122550944Y-75663861D01*
X122507611Y-75578814D01*
X122507609Y-75578812D01*
X122506753Y-75577131D01*
X122422869Y-75493247D01*
X122421188Y-75492391D01*
X122421186Y-75492389D01*
X122318853Y-75440248D01*
X122317169Y-75439390D01*
X122200000Y-75420832D01*
X122082831Y-75439390D01*
X122081147Y-75440248D01*
X121978814Y-75492389D01*
X121978812Y-75492391D01*
X121977131Y-75493247D01*
X121893247Y-75577131D01*
X121892391Y-75578812D01*
X121892389Y-75578814D01*
X121849056Y-75663861D01*
X121839390Y-75682831D01*
X121828414Y-75752131D01*
X121821909Y-75793203D01*
X121820832Y-75800000D01*
X114887619Y-75800000D01*
X114951186Y-75767611D01*
X114951188Y-75767609D01*
X114952869Y-75766753D01*
X115036753Y-75682869D01*
X115037631Y-75681147D01*
X115089752Y-75578853D01*
X115090610Y-75577169D01*
X115109168Y-75460000D01*
X115107023Y-75446454D01*
X115105189Y-75434875D01*
X115090610Y-75342831D01*
X115064403Y-75291396D01*
X115037609Y-75238811D01*
X115036753Y-75237131D01*
X115037067Y-75236971D01*
X115033173Y-75220741D01*
X115042774Y-75205081D01*
X115056877Y-75200500D01*
X125337495Y-75200500D01*
X125354466Y-75207529D01*
X125361495Y-75224500D01*
X125354466Y-75241471D01*
X125352535Y-75243203D01*
X125300141Y-75285328D01*
X125174656Y-75434875D01*
X125174090Y-75435905D01*
X125174087Y-75435909D01*
X125081175Y-75604916D01*
X125080608Y-75605948D01*
X125080254Y-75607063D01*
X125080253Y-75607066D01*
X125052990Y-75693012D01*
X125021579Y-75792030D01*
X125021448Y-75793199D01*
X125021447Y-75793203D01*
X125014088Y-75858814D01*
X124999819Y-75986034D01*
X125000992Y-76000000D01*
X125016154Y-76180570D01*
X125069964Y-76368227D01*
X125159199Y-76541859D01*
X125159927Y-76542778D01*
X125159928Y-76542779D01*
X125171004Y-76556753D01*
X125280460Y-76694852D01*
X125429127Y-76821378D01*
X125475847Y-76847489D01*
X125598511Y-76916044D01*
X125598515Y-76916046D01*
X125599539Y-76916618D01*
X125600657Y-76916981D01*
X125600661Y-76916983D01*
X125784084Y-76976581D01*
X125784086Y-76976581D01*
X125785205Y-76976945D01*
X125979052Y-77000060D01*
X125980223Y-76999970D01*
X125980227Y-76999970D01*
X126068137Y-76993205D01*
X126173697Y-76985083D01*
X126361725Y-76932584D01*
X126489943Y-76867816D01*
X126508260Y-76866439D01*
X126522186Y-76878417D01*
X126524478Y-76892930D01*
X126518255Y-76932901D01*
X126514901Y-76954440D01*
X126531633Y-77082394D01*
X126583605Y-77200510D01*
X126666639Y-77299291D01*
X126706226Y-77325642D01*
X126769008Y-77367433D01*
X126774060Y-77370796D01*
X126819079Y-77384861D01*
X126895603Y-77408769D01*
X126895605Y-77408769D01*
X126897233Y-77409278D01*
X126958005Y-77410392D01*
X127024546Y-77411612D01*
X127024548Y-77411612D01*
X127026255Y-77411643D01*
X127124489Y-77384861D01*
X127149109Y-77378149D01*
X127149111Y-77378148D01*
X127150755Y-77377700D01*
X127260724Y-77310179D01*
X127269185Y-77300832D01*
X127326475Y-77237538D01*
X127347322Y-77214507D01*
X127403588Y-77098375D01*
X127405401Y-77087603D01*
X127414892Y-77031186D01*
X127424997Y-76971120D01*
X127425133Y-76960000D01*
X127417323Y-76905464D01*
X127407081Y-76833947D01*
X127407080Y-76833945D01*
X127406839Y-76832259D01*
X127353428Y-76714788D01*
X127287547Y-76638329D01*
X127276062Y-76625000D01*
X130820832Y-76625000D01*
X130839390Y-76742169D01*
X130840248Y-76743853D01*
X130892064Y-76845547D01*
X130893247Y-76847869D01*
X130977131Y-76931753D01*
X130978812Y-76932609D01*
X130978814Y-76932611D01*
X131081147Y-76984752D01*
X131082831Y-76985610D01*
X131180035Y-77001006D01*
X131184532Y-77001718D01*
X131200000Y-77004168D01*
X131215469Y-77001718D01*
X131219965Y-77001006D01*
X131317169Y-76985610D01*
X131318853Y-76984752D01*
X131421186Y-76932611D01*
X131421188Y-76932609D01*
X131422869Y-76931753D01*
X131506753Y-76847869D01*
X131507937Y-76845547D01*
X131559752Y-76743853D01*
X131560610Y-76742169D01*
X131579168Y-76625000D01*
X136446332Y-76625000D01*
X136464890Y-76742169D01*
X136465748Y-76743853D01*
X136517564Y-76845547D01*
X136518747Y-76847869D01*
X136602631Y-76931753D01*
X136604312Y-76932609D01*
X136604314Y-76932611D01*
X136706647Y-76984752D01*
X136708331Y-76985610D01*
X136805535Y-77001006D01*
X136810032Y-77001718D01*
X136825500Y-77004168D01*
X136840969Y-77001718D01*
X136845465Y-77001006D01*
X136942669Y-76985610D01*
X136944353Y-76984752D01*
X137046686Y-76932611D01*
X137046688Y-76932609D01*
X137048369Y-76931753D01*
X137132253Y-76847869D01*
X137133437Y-76845547D01*
X137185252Y-76743853D01*
X137186110Y-76742169D01*
X137204668Y-76625000D01*
X137203611Y-76618323D01*
X137196191Y-76571482D01*
X137186110Y-76507831D01*
X137182544Y-76500832D01*
X137133111Y-76403814D01*
X137133109Y-76403812D01*
X137132253Y-76402131D01*
X137073163Y-76343041D01*
X137066134Y-76326070D01*
X137073163Y-76309099D01*
X137086378Y-76302366D01*
X137192169Y-76285610D01*
X137210276Y-76276384D01*
X137296186Y-76232611D01*
X137296188Y-76232609D01*
X137297869Y-76231753D01*
X137381753Y-76147869D01*
X137382982Y-76145458D01*
X137434752Y-76043853D01*
X137435610Y-76042169D01*
X137454168Y-75925000D01*
X137453831Y-75922869D01*
X137445603Y-75870923D01*
X137435610Y-75807831D01*
X137426988Y-75790909D01*
X137382611Y-75703814D01*
X137382609Y-75703812D01*
X137381753Y-75702131D01*
X137297869Y-75618247D01*
X137296188Y-75617391D01*
X137296186Y-75617389D01*
X137193853Y-75565248D01*
X137192169Y-75564390D01*
X137075000Y-75545832D01*
X136957831Y-75564390D01*
X136956147Y-75565248D01*
X136853814Y-75617389D01*
X136853812Y-75617391D01*
X136852131Y-75618247D01*
X136768247Y-75702131D01*
X136767391Y-75703812D01*
X136767389Y-75703814D01*
X136723012Y-75790909D01*
X136714390Y-75807831D01*
X136704397Y-75870923D01*
X136696170Y-75922869D01*
X136695832Y-75925000D01*
X136714390Y-76042169D01*
X136715248Y-76043853D01*
X136767019Y-76145458D01*
X136768247Y-76147869D01*
X136827337Y-76206959D01*
X136834366Y-76223930D01*
X136827337Y-76240901D01*
X136814122Y-76247634D01*
X136708331Y-76264390D01*
X136706647Y-76265248D01*
X136604314Y-76317389D01*
X136604312Y-76317391D01*
X136602631Y-76318247D01*
X136518747Y-76402131D01*
X136517891Y-76403812D01*
X136517889Y-76403814D01*
X136468456Y-76500832D01*
X136464890Y-76507831D01*
X136454809Y-76571482D01*
X136447390Y-76618323D01*
X136446332Y-76625000D01*
X131579168Y-76625000D01*
X131578111Y-76618323D01*
X131570691Y-76571482D01*
X131560610Y-76507831D01*
X131557044Y-76500832D01*
X131507611Y-76403814D01*
X131507609Y-76403812D01*
X131506753Y-76402131D01*
X131422869Y-76318247D01*
X131421188Y-76317391D01*
X131421186Y-76317389D01*
X131318853Y-76265248D01*
X131317169Y-76264390D01*
X131214553Y-76248137D01*
X131201863Y-76246127D01*
X131200000Y-76245832D01*
X131198137Y-76246127D01*
X131185447Y-76248137D01*
X131082831Y-76264390D01*
X131081147Y-76265248D01*
X130978814Y-76317389D01*
X130978812Y-76317391D01*
X130977131Y-76318247D01*
X130893247Y-76402131D01*
X130892391Y-76403812D01*
X130892389Y-76403814D01*
X130842956Y-76500832D01*
X130839390Y-76507831D01*
X130829309Y-76571482D01*
X130821890Y-76618323D01*
X130820832Y-76625000D01*
X127276062Y-76625000D01*
X127270309Y-76618323D01*
X127270308Y-76618322D01*
X127269193Y-76617028D01*
X127176199Y-76556753D01*
X127162338Y-76547769D01*
X127162337Y-76547769D01*
X127160906Y-76546841D01*
X127037273Y-76509866D01*
X126975001Y-76509486D01*
X126909941Y-76509088D01*
X126909938Y-76509088D01*
X126908231Y-76509078D01*
X126906583Y-76509549D01*
X126902025Y-76510851D01*
X126883776Y-76508755D01*
X126872355Y-76494369D01*
X126874563Y-76475920D01*
X126886841Y-76454307D01*
X126913800Y-76406850D01*
X126927621Y-76365304D01*
X126954131Y-76285610D01*
X126975421Y-76221610D01*
X126991561Y-76093853D01*
X126992750Y-76084440D01*
X134174901Y-76084440D01*
X134191633Y-76212394D01*
X134243605Y-76330510D01*
X134275836Y-76368853D01*
X134319122Y-76420348D01*
X134326639Y-76429291D01*
X134367207Y-76456295D01*
X134431780Y-76499278D01*
X134434060Y-76500796D01*
X134478945Y-76514819D01*
X134555603Y-76538769D01*
X134555605Y-76538769D01*
X134557233Y-76539278D01*
X134618005Y-76540392D01*
X134684546Y-76541612D01*
X134684548Y-76541612D01*
X134686255Y-76541643D01*
X134768959Y-76519095D01*
X134809109Y-76508149D01*
X134809111Y-76508148D01*
X134810755Y-76507700D01*
X134920724Y-76440179D01*
X134928918Y-76431127D01*
X134965930Y-76390236D01*
X135007322Y-76344507D01*
X135063588Y-76228375D01*
X135066563Y-76210695D01*
X135075133Y-76159752D01*
X135084997Y-76101120D01*
X135085086Y-76093853D01*
X135085122Y-76090934D01*
X135085122Y-76090929D01*
X135085133Y-76090000D01*
X135076668Y-76030889D01*
X135067081Y-75963947D01*
X135067080Y-75963945D01*
X135066839Y-75962259D01*
X135013428Y-75844788D01*
X134933590Y-75752131D01*
X134930309Y-75748323D01*
X134930308Y-75748322D01*
X134929193Y-75747028D01*
X134833025Y-75684696D01*
X134822338Y-75677769D01*
X134822337Y-75677769D01*
X134820906Y-75676841D01*
X134697273Y-75639866D01*
X134635001Y-75639486D01*
X134569941Y-75639088D01*
X134569938Y-75639088D01*
X134568231Y-75639078D01*
X134566588Y-75639548D01*
X134566585Y-75639548D01*
X134469172Y-75667389D01*
X134444155Y-75674539D01*
X134335019Y-75743399D01*
X134333891Y-75744677D01*
X134333889Y-75744678D01*
X134264731Y-75822985D01*
X134249596Y-75840122D01*
X134194754Y-75956932D01*
X134174901Y-76084440D01*
X126992750Y-76084440D01*
X126999807Y-76028581D01*
X126999807Y-76028575D01*
X126999889Y-76027929D01*
X127000059Y-76015728D01*
X127000270Y-76000674D01*
X127000270Y-76000667D01*
X127000279Y-76000000D01*
X127000112Y-75998288D01*
X126982606Y-75819752D01*
X126981229Y-75805711D01*
X126924804Y-75618823D01*
X126833154Y-75446454D01*
X126832418Y-75445552D01*
X126832415Y-75445547D01*
X126710510Y-75296077D01*
X126710507Y-75296074D01*
X126709769Y-75295169D01*
X126646698Y-75242992D01*
X126638103Y-75226759D01*
X126643504Y-75209202D01*
X126659737Y-75200607D01*
X126661996Y-75200500D01*
X159585939Y-75200500D01*
X159601164Y-75205948D01*
X159705283Y-75291396D01*
X159708604Y-75294717D01*
X159746708Y-75341147D01*
X159794052Y-75398836D01*
X159799500Y-75414061D01*
X159799500Y-79734206D01*
X159793762Y-79749778D01*
X159724712Y-79830755D01*
X159720338Y-79835884D01*
X159705868Y-79844011D01*
X144932818Y-82207699D01*
X144914951Y-82203439D01*
X144905328Y-82187792D01*
X144907643Y-82173104D01*
X144910687Y-82167131D01*
X144925953Y-82137169D01*
X144943024Y-82029390D01*
X144944216Y-82021863D01*
X144944511Y-82020000D01*
X144925953Y-81902831D01*
X144917087Y-81885431D01*
X144872954Y-81798814D01*
X144872952Y-81798812D01*
X144872096Y-81797131D01*
X144788212Y-81713247D01*
X144786531Y-81712391D01*
X144786529Y-81712389D01*
X144684196Y-81660248D01*
X144682512Y-81659390D01*
X144565343Y-81640832D01*
X144448174Y-81659390D01*
X144446490Y-81660248D01*
X144344157Y-81712389D01*
X144344155Y-81712391D01*
X144342474Y-81713247D01*
X144258590Y-81797131D01*
X144257734Y-81798812D01*
X144257732Y-81798814D01*
X144213599Y-81885431D01*
X144204733Y-81902831D01*
X144186175Y-82020000D01*
X144186470Y-82021863D01*
X144187662Y-82029390D01*
X144204733Y-82137169D01*
X144205591Y-82138853D01*
X144256887Y-82239526D01*
X144258590Y-82242869D01*
X144288025Y-82272304D01*
X144295054Y-82289275D01*
X144288025Y-82306246D01*
X144274846Y-82312974D01*
X141769349Y-82713854D01*
X140013894Y-82994727D01*
X139996027Y-82990467D01*
X139986404Y-82974820D01*
X139988719Y-82960132D01*
X139998393Y-82941147D01*
X140010610Y-82917169D01*
X140029168Y-82800000D01*
X140010610Y-82682831D01*
X140009742Y-82681127D01*
X139957611Y-82578814D01*
X139957609Y-82578812D01*
X139956753Y-82577131D01*
X139872869Y-82493247D01*
X139871188Y-82492391D01*
X139871186Y-82492389D01*
X139768853Y-82440248D01*
X139767169Y-82439390D01*
X139650000Y-82420832D01*
X139532831Y-82439390D01*
X139531147Y-82440248D01*
X139428814Y-82492389D01*
X139428812Y-82492391D01*
X139427131Y-82493247D01*
X139343247Y-82577131D01*
X139342391Y-82578812D01*
X139342389Y-82578814D01*
X139290258Y-82681127D01*
X139289390Y-82682831D01*
X139270832Y-82800000D01*
X139289390Y-82917169D01*
X139290248Y-82918853D01*
X139341181Y-83018814D01*
X139343247Y-83022869D01*
X139378246Y-83057868D01*
X139385275Y-83074839D01*
X139378246Y-83091810D01*
X139365067Y-83098538D01*
X134985941Y-83799199D01*
X134982149Y-83799500D01*
X121568064Y-83799500D01*
X121551093Y-83792471D01*
X121544064Y-83775500D01*
X121551093Y-83758529D01*
X121556753Y-83752869D01*
X121561262Y-83744021D01*
X121609752Y-83648853D01*
X121610610Y-83647169D01*
X121629168Y-83530000D01*
X121610610Y-83412831D01*
X121587569Y-83367611D01*
X121557611Y-83308814D01*
X121557609Y-83308812D01*
X121556753Y-83307131D01*
X121472869Y-83223247D01*
X121471188Y-83222391D01*
X121471186Y-83222389D01*
X121368853Y-83170248D01*
X121367169Y-83169390D01*
X121259856Y-83152393D01*
X121251863Y-83151127D01*
X121250000Y-83150832D01*
X121248137Y-83151127D01*
X121240144Y-83152393D01*
X121132831Y-83169390D01*
X121131147Y-83170248D01*
X121028814Y-83222389D01*
X121028812Y-83222391D01*
X121027131Y-83223247D01*
X120943247Y-83307131D01*
X120942391Y-83308812D01*
X120942389Y-83308814D01*
X120893035Y-83405677D01*
X120887524Y-83412782D01*
X120885353Y-83414696D01*
X120881617Y-83417990D01*
X120879235Y-83419838D01*
X120877204Y-83421218D01*
X120865675Y-83429053D01*
X120864302Y-83431614D01*
X120864301Y-83431615D01*
X120847774Y-83462438D01*
X120847152Y-83463529D01*
X120837650Y-83479219D01*
X120827519Y-83495948D01*
X120827337Y-83498846D01*
X120826726Y-83500795D01*
X120826638Y-83501006D01*
X120826639Y-83501006D01*
X120825968Y-83503107D01*
X120824927Y-83505049D01*
X120824651Y-83507234D01*
X120824471Y-83507798D01*
X120812614Y-83521827D01*
X120801608Y-83524500D01*
X120493064Y-83524500D01*
X120476093Y-83517471D01*
X120469064Y-83500500D01*
X120476093Y-83483529D01*
X120496753Y-83462869D01*
X120498802Y-83458849D01*
X120549752Y-83358853D01*
X120550610Y-83357169D01*
X120569168Y-83240000D01*
X120550610Y-83122831D01*
X120523897Y-83070404D01*
X120497611Y-83018814D01*
X120497609Y-83018812D01*
X120496753Y-83017131D01*
X120412869Y-82933247D01*
X120411188Y-82932391D01*
X120411186Y-82932389D01*
X120308853Y-82880248D01*
X120307169Y-82879390D01*
X120209965Y-82863994D01*
X120191863Y-82861127D01*
X120190000Y-82860832D01*
X120160522Y-82865501D01*
X120142661Y-82861212D01*
X120133063Y-82845551D01*
X120137352Y-82827689D01*
X120139797Y-82824825D01*
X120146753Y-82817869D01*
X120148234Y-82814964D01*
X120199752Y-82713853D01*
X120200610Y-82712169D01*
X120207020Y-82671699D01*
X123285495Y-82671699D01*
X123304053Y-82788868D01*
X123304911Y-82790552D01*
X123356800Y-82892389D01*
X123357910Y-82894568D01*
X123441794Y-82978452D01*
X123443475Y-82979308D01*
X123443477Y-82979310D01*
X123545213Y-83031147D01*
X123547494Y-83032309D01*
X123644698Y-83047705D01*
X123653002Y-83049020D01*
X123664663Y-83050867D01*
X123676325Y-83049020D01*
X123684628Y-83047705D01*
X123781832Y-83032309D01*
X123784113Y-83031147D01*
X123885849Y-82979310D01*
X123885851Y-82979308D01*
X123887532Y-82978452D01*
X123898542Y-82967442D01*
X127854500Y-82967442D01*
X127869655Y-83078075D01*
X127929012Y-83215241D01*
X127941099Y-83230167D01*
X128021756Y-83329769D01*
X128023069Y-83331391D01*
X128144896Y-83417969D01*
X128285518Y-83468596D01*
X128287143Y-83468715D01*
X128287146Y-83468716D01*
X128383881Y-83475819D01*
X128434574Y-83479542D01*
X128436175Y-83479219D01*
X128436177Y-83479219D01*
X128500799Y-83466189D01*
X128581084Y-83450001D01*
X128660071Y-83409755D01*
X128712793Y-83382892D01*
X128712794Y-83382892D01*
X128714251Y-83382149D01*
X128824267Y-83280984D01*
X128849678Y-83240000D01*
X128902164Y-83155350D01*
X128902165Y-83155349D01*
X128903025Y-83153961D01*
X128903849Y-83151127D01*
X128935475Y-83042267D01*
X128944722Y-83010438D01*
X128945329Y-83002183D01*
X128945469Y-83000270D01*
X128945469Y-83000262D01*
X128945500Y-82999844D01*
X128945500Y-82830446D01*
X128952529Y-82813475D01*
X128969500Y-82806446D01*
X128986471Y-82813475D01*
X128991673Y-82821261D01*
X129025464Y-82902841D01*
X129121718Y-83028282D01*
X129247159Y-83124536D01*
X129258342Y-83129168D01*
X129385554Y-83181861D01*
X129393238Y-83185044D01*
X129550000Y-83205682D01*
X129706762Y-83185044D01*
X129714447Y-83181861D01*
X129841658Y-83129168D01*
X129852841Y-83124536D01*
X129978282Y-83028282D01*
X130074536Y-82902841D01*
X130111144Y-82814462D01*
X130134441Y-82758218D01*
X130134441Y-82758217D01*
X130135044Y-82756762D01*
X130155682Y-82600000D01*
X130294318Y-82600000D01*
X130314956Y-82756762D01*
X130315559Y-82758217D01*
X130315559Y-82758218D01*
X130338856Y-82814462D01*
X130375464Y-82902841D01*
X130471718Y-83028282D01*
X130597159Y-83124536D01*
X130608342Y-83129168D01*
X130735554Y-83181861D01*
X130743238Y-83185044D01*
X130900000Y-83205682D01*
X131056762Y-83185044D01*
X131064447Y-83181861D01*
X131191658Y-83129168D01*
X131202841Y-83124536D01*
X131328282Y-83028282D01*
X131424536Y-82902841D01*
X131461144Y-82814462D01*
X131484441Y-82758218D01*
X131484441Y-82758217D01*
X131485044Y-82756762D01*
X131505682Y-82600000D01*
X132294318Y-82600000D01*
X132314956Y-82756762D01*
X132315559Y-82758217D01*
X132315559Y-82758218D01*
X132338856Y-82814462D01*
X132375464Y-82902841D01*
X132471718Y-83028282D01*
X132597159Y-83124536D01*
X132608342Y-83129168D01*
X132735554Y-83181861D01*
X132743238Y-83185044D01*
X132900000Y-83205682D01*
X133056762Y-83185044D01*
X133064447Y-83181861D01*
X133191658Y-83129168D01*
X133202841Y-83124536D01*
X133328282Y-83028282D01*
X133424536Y-82902841D01*
X133461144Y-82814462D01*
X133484441Y-82758218D01*
X133484441Y-82758217D01*
X133485044Y-82756762D01*
X133505682Y-82600000D01*
X133744318Y-82600000D01*
X133764956Y-82756762D01*
X133765559Y-82758217D01*
X133765559Y-82758218D01*
X133788856Y-82814462D01*
X133825464Y-82902841D01*
X133921718Y-83028282D01*
X134047159Y-83124536D01*
X134058342Y-83129168D01*
X134185554Y-83181861D01*
X134193238Y-83185044D01*
X134350000Y-83205682D01*
X134506762Y-83185044D01*
X134514447Y-83181861D01*
X134641658Y-83129168D01*
X134652841Y-83124536D01*
X134778282Y-83028282D01*
X134779884Y-83026195D01*
X134815013Y-82980413D01*
X134830921Y-82971228D01*
X134848664Y-82975982D01*
X134857832Y-82991766D01*
X134869655Y-83078075D01*
X134929012Y-83215241D01*
X134941099Y-83230167D01*
X135021756Y-83329769D01*
X135023069Y-83331391D01*
X135144896Y-83417969D01*
X135285518Y-83468596D01*
X135287143Y-83468715D01*
X135287146Y-83468716D01*
X135383881Y-83475819D01*
X135434574Y-83479542D01*
X135436175Y-83479219D01*
X135436177Y-83479219D01*
X135500799Y-83466189D01*
X135581084Y-83450001D01*
X135660071Y-83409755D01*
X135712793Y-83382892D01*
X135712794Y-83382892D01*
X135714251Y-83382149D01*
X135824267Y-83280984D01*
X135849678Y-83240000D01*
X135902164Y-83155350D01*
X135902165Y-83155349D01*
X135903025Y-83153961D01*
X135903849Y-83151127D01*
X135935475Y-83042267D01*
X135944722Y-83010438D01*
X135945329Y-83002183D01*
X135945469Y-83000270D01*
X135945469Y-83000262D01*
X135945500Y-82999844D01*
X135945500Y-82750000D01*
X138330832Y-82750000D01*
X138349390Y-82867169D01*
X138350248Y-82868853D01*
X138401530Y-82969499D01*
X138403247Y-82972869D01*
X138487131Y-83056753D01*
X138488812Y-83057609D01*
X138488814Y-83057611D01*
X138541972Y-83084696D01*
X138592831Y-83110610D01*
X138682529Y-83124817D01*
X138701578Y-83127834D01*
X138710000Y-83129168D01*
X138718423Y-83127834D01*
X138737471Y-83124817D01*
X138827169Y-83110610D01*
X138878028Y-83084696D01*
X138931186Y-83057611D01*
X138931188Y-83057609D01*
X138932869Y-83056753D01*
X139016753Y-82972869D01*
X139018471Y-82969499D01*
X139069752Y-82868853D01*
X139070610Y-82867169D01*
X139089168Y-82750000D01*
X139070610Y-82632831D01*
X139053882Y-82600000D01*
X139017611Y-82528814D01*
X139017609Y-82528812D01*
X139016753Y-82527131D01*
X138932869Y-82443247D01*
X138931188Y-82442391D01*
X138931186Y-82442389D01*
X138828853Y-82390248D01*
X138827169Y-82389390D01*
X138728827Y-82373814D01*
X138711863Y-82371127D01*
X138710000Y-82370832D01*
X138708137Y-82371127D01*
X138691173Y-82373814D01*
X138592831Y-82389390D01*
X138591147Y-82390248D01*
X138488814Y-82442389D01*
X138488812Y-82442391D01*
X138487131Y-82443247D01*
X138403247Y-82527131D01*
X138402391Y-82528812D01*
X138402389Y-82528814D01*
X138366118Y-82600000D01*
X138349390Y-82632831D01*
X138330832Y-82750000D01*
X135945500Y-82750000D01*
X135945500Y-82232558D01*
X135930345Y-82121925D01*
X135870988Y-81984759D01*
X135827356Y-81930878D01*
X135777963Y-81869883D01*
X135777962Y-81869882D01*
X135776931Y-81868609D01*
X135655104Y-81782031D01*
X135514482Y-81731404D01*
X135512857Y-81731285D01*
X135512854Y-81731284D01*
X135416119Y-81724181D01*
X135365426Y-81720458D01*
X135363825Y-81720781D01*
X135363823Y-81720781D01*
X135346852Y-81724203D01*
X135218916Y-81749999D01*
X135217459Y-81750741D01*
X135217460Y-81750741D01*
X135090858Y-81815248D01*
X135085749Y-81817851D01*
X134975733Y-81919016D01*
X134974872Y-81920405D01*
X134974871Y-81920406D01*
X134898890Y-82042951D01*
X134896975Y-82046039D01*
X134896520Y-82047604D01*
X134896519Y-82047607D01*
X134873896Y-82125477D01*
X134855278Y-82189562D01*
X134854500Y-82200156D01*
X134854500Y-82200587D01*
X134854484Y-82201029D01*
X134854221Y-82201019D01*
X134847471Y-82217316D01*
X134830500Y-82224345D01*
X134813529Y-82217316D01*
X134811460Y-82214955D01*
X134779244Y-82172970D01*
X134779238Y-82172964D01*
X134778282Y-82171718D01*
X134652841Y-82075464D01*
X134516170Y-82018853D01*
X134508218Y-82015559D01*
X134508217Y-82015559D01*
X134506762Y-82014956D01*
X134350000Y-81994318D01*
X134193238Y-82014956D01*
X134191783Y-82015559D01*
X134191782Y-82015559D01*
X134183830Y-82018853D01*
X134047159Y-82075464D01*
X133921718Y-82171718D01*
X133825464Y-82297159D01*
X133814139Y-82324500D01*
X133766195Y-82440248D01*
X133764956Y-82443238D01*
X133744318Y-82600000D01*
X133505682Y-82600000D01*
X133485044Y-82443238D01*
X133483806Y-82440248D01*
X133435861Y-82324500D01*
X133424536Y-82297159D01*
X133328282Y-82171718D01*
X133202841Y-82075464D01*
X133066170Y-82018853D01*
X133058218Y-82015559D01*
X133058217Y-82015559D01*
X133056762Y-82014956D01*
X132900000Y-81994318D01*
X132743238Y-82014956D01*
X132741783Y-82015559D01*
X132741782Y-82015559D01*
X132733830Y-82018853D01*
X132597159Y-82075464D01*
X132471718Y-82171718D01*
X132375464Y-82297159D01*
X132364139Y-82324500D01*
X132316195Y-82440248D01*
X132314956Y-82443238D01*
X132294318Y-82600000D01*
X131505682Y-82600000D01*
X131485044Y-82443238D01*
X131483806Y-82440248D01*
X131435861Y-82324500D01*
X131424536Y-82297159D01*
X131328282Y-82171718D01*
X131202841Y-82075464D01*
X131066170Y-82018853D01*
X131058218Y-82015559D01*
X131058217Y-82015559D01*
X131056762Y-82014956D01*
X130900000Y-81994318D01*
X130743238Y-82014956D01*
X130741783Y-82015559D01*
X130741782Y-82015559D01*
X130733830Y-82018853D01*
X130597159Y-82075464D01*
X130471718Y-82171718D01*
X130375464Y-82297159D01*
X130364139Y-82324500D01*
X130316195Y-82440248D01*
X130314956Y-82443238D01*
X130294318Y-82600000D01*
X130155682Y-82600000D01*
X130135044Y-82443238D01*
X130133806Y-82440248D01*
X130085861Y-82324500D01*
X130074536Y-82297159D01*
X129978282Y-82171718D01*
X129852841Y-82075464D01*
X129716170Y-82018853D01*
X129708218Y-82015559D01*
X129708217Y-82015559D01*
X129706762Y-82014956D01*
X129550000Y-81994318D01*
X129393238Y-82014956D01*
X129391783Y-82015559D01*
X129391782Y-82015559D01*
X129383830Y-82018853D01*
X129247159Y-82075464D01*
X129121718Y-82171718D01*
X129025464Y-82297159D01*
X128993713Y-82373814D01*
X128991673Y-82378738D01*
X128978684Y-82391727D01*
X128960316Y-82391727D01*
X128947327Y-82378738D01*
X128945500Y-82369554D01*
X128945500Y-82232558D01*
X128930345Y-82121925D01*
X128870988Y-81984759D01*
X128827356Y-81930878D01*
X128777963Y-81869883D01*
X128777962Y-81869882D01*
X128776931Y-81868609D01*
X128655104Y-81782031D01*
X128514482Y-81731404D01*
X128512857Y-81731285D01*
X128512854Y-81731284D01*
X128416119Y-81724181D01*
X128365426Y-81720458D01*
X128363825Y-81720781D01*
X128363823Y-81720781D01*
X128346852Y-81724203D01*
X128218916Y-81749999D01*
X128217459Y-81750741D01*
X128217460Y-81750741D01*
X128090858Y-81815248D01*
X128085749Y-81817851D01*
X127975733Y-81919016D01*
X127974872Y-81920405D01*
X127974871Y-81920406D01*
X127898890Y-82042951D01*
X127896975Y-82046039D01*
X127896520Y-82047604D01*
X127896519Y-82047607D01*
X127873896Y-82125477D01*
X127855278Y-82189562D01*
X127854500Y-82200156D01*
X127854500Y-82967442D01*
X123898542Y-82967442D01*
X123971416Y-82894568D01*
X123972527Y-82892389D01*
X124024415Y-82790552D01*
X124025273Y-82788868D01*
X124043831Y-82671699D01*
X124025273Y-82554530D01*
X124023276Y-82550610D01*
X123972274Y-82450513D01*
X123972272Y-82450511D01*
X123971416Y-82448830D01*
X123887532Y-82364946D01*
X123885851Y-82364090D01*
X123885849Y-82364088D01*
X123783516Y-82311947D01*
X123781832Y-82311089D01*
X123664663Y-82292531D01*
X123547494Y-82311089D01*
X123545810Y-82311947D01*
X123443477Y-82364088D01*
X123443475Y-82364090D01*
X123441794Y-82364946D01*
X123357910Y-82448830D01*
X123357054Y-82450511D01*
X123357052Y-82450513D01*
X123306050Y-82550610D01*
X123304053Y-82554530D01*
X123285495Y-82671699D01*
X120207020Y-82671699D01*
X120216954Y-82608978D01*
X120218873Y-82596863D01*
X120219168Y-82595000D01*
X120200610Y-82477831D01*
X120190230Y-82457459D01*
X120147611Y-82373814D01*
X120147609Y-82373812D01*
X120146753Y-82372131D01*
X120062869Y-82288247D01*
X120061188Y-82287391D01*
X120061186Y-82287389D01*
X119958853Y-82235248D01*
X119957169Y-82234390D01*
X119859965Y-82218994D01*
X119841863Y-82216127D01*
X119840000Y-82215832D01*
X119838137Y-82216127D01*
X119820035Y-82218994D01*
X119722831Y-82234390D01*
X119721147Y-82235248D01*
X119618814Y-82287389D01*
X119618812Y-82287391D01*
X119617131Y-82288247D01*
X119587907Y-82317471D01*
X119570936Y-82324500D01*
X111542636Y-82324500D01*
X111525665Y-82317470D01*
X111392529Y-82184333D01*
X111385500Y-82167363D01*
X111385500Y-81530000D01*
X111984318Y-81530000D01*
X112004956Y-81686762D01*
X112005559Y-81688217D01*
X112005559Y-81688218D01*
X112009098Y-81696762D01*
X112065464Y-81832841D01*
X112161718Y-81958282D01*
X112287159Y-82054536D01*
X112336228Y-82074861D01*
X112423135Y-82110859D01*
X112433238Y-82115044D01*
X112590000Y-82135682D01*
X112746762Y-82115044D01*
X112756866Y-82110859D01*
X112843772Y-82074861D01*
X112892841Y-82054536D01*
X113018282Y-81958282D01*
X113114536Y-81832841D01*
X113170902Y-81696762D01*
X113174441Y-81688218D01*
X113174441Y-81688217D01*
X113175044Y-81686762D01*
X113195682Y-81530000D01*
X113194365Y-81520000D01*
X113314318Y-81520000D01*
X113334956Y-81676762D01*
X113335559Y-81678217D01*
X113335559Y-81678218D01*
X113353105Y-81720578D01*
X113395464Y-81822841D01*
X113491718Y-81948282D01*
X113617159Y-82044536D01*
X113657423Y-82061214D01*
X113737066Y-82094203D01*
X113763238Y-82105044D01*
X113920000Y-82125682D01*
X114076762Y-82105044D01*
X114102935Y-82094203D01*
X114182577Y-82061214D01*
X114222841Y-82044536D01*
X114348282Y-81948282D01*
X114444536Y-81822841D01*
X114486895Y-81720578D01*
X114504441Y-81678218D01*
X114504441Y-81678217D01*
X114505044Y-81676762D01*
X114523049Y-81540000D01*
X114704318Y-81540000D01*
X114724956Y-81696762D01*
X114725559Y-81698217D01*
X114725559Y-81698218D01*
X114747315Y-81750741D01*
X114785464Y-81842841D01*
X114881718Y-81968282D01*
X115007159Y-82064536D01*
X115052331Y-82083247D01*
X115151208Y-82124203D01*
X115153238Y-82125044D01*
X115310000Y-82145682D01*
X115466762Y-82125044D01*
X115468793Y-82124203D01*
X115567669Y-82083247D01*
X115612841Y-82064536D01*
X115738282Y-81968282D01*
X115834536Y-81842841D01*
X115872685Y-81750741D01*
X115894441Y-81698218D01*
X115894441Y-81698217D01*
X115895044Y-81696762D01*
X115914365Y-81550000D01*
X116044318Y-81550000D01*
X116064956Y-81706762D01*
X116065559Y-81708217D01*
X116065559Y-81708218D01*
X116075754Y-81732831D01*
X116125464Y-81852841D01*
X116221718Y-81978282D01*
X116347159Y-82074536D01*
X116419356Y-82104441D01*
X116467066Y-82124203D01*
X116493238Y-82135044D01*
X116650000Y-82155682D01*
X116806762Y-82135044D01*
X116832935Y-82124203D01*
X116880644Y-82104441D01*
X116952841Y-82074536D01*
X117078282Y-81978282D01*
X117138350Y-81900000D01*
X120000832Y-81900000D01*
X120019390Y-82017169D01*
X120020248Y-82018853D01*
X120072001Y-82120423D01*
X120073247Y-82122869D01*
X120157131Y-82206753D01*
X120158812Y-82207609D01*
X120158814Y-82207611D01*
X120236940Y-82247418D01*
X120262831Y-82260610D01*
X120380000Y-82279168D01*
X120497169Y-82260610D01*
X120523060Y-82247418D01*
X120601186Y-82207611D01*
X120601188Y-82207609D01*
X120602869Y-82206753D01*
X120686753Y-82122869D01*
X120688000Y-82120423D01*
X120739752Y-82018853D01*
X120740610Y-82017169D01*
X120759168Y-81900000D01*
X120757763Y-81891126D01*
X120751249Y-81850000D01*
X120740610Y-81782831D01*
X120733595Y-81769064D01*
X120687611Y-81678814D01*
X120687609Y-81678812D01*
X120686753Y-81677131D01*
X120602869Y-81593247D01*
X120601188Y-81592391D01*
X120601186Y-81592389D01*
X120498853Y-81540248D01*
X120497169Y-81539390D01*
X120399965Y-81523994D01*
X120381863Y-81521127D01*
X120380000Y-81520832D01*
X120378137Y-81521127D01*
X120360035Y-81523994D01*
X120262831Y-81539390D01*
X120261147Y-81540248D01*
X120158814Y-81592389D01*
X120158812Y-81592391D01*
X120157131Y-81593247D01*
X120073247Y-81677131D01*
X120072391Y-81678812D01*
X120072389Y-81678814D01*
X120026405Y-81769064D01*
X120019390Y-81782831D01*
X120008751Y-81850000D01*
X120002238Y-81891126D01*
X120000832Y-81900000D01*
X117138350Y-81900000D01*
X117174536Y-81852841D01*
X117224246Y-81732831D01*
X117234441Y-81708218D01*
X117234441Y-81708217D01*
X117235044Y-81706762D01*
X117255682Y-81550000D01*
X117235044Y-81393238D01*
X117231549Y-81384799D01*
X117195573Y-81297946D01*
X117174536Y-81247159D01*
X117078282Y-81121718D01*
X116952841Y-81025464D01*
X116837314Y-80977611D01*
X116808218Y-80965559D01*
X116808217Y-80965559D01*
X116806762Y-80964956D01*
X116650000Y-80944318D01*
X116493238Y-80964956D01*
X116491783Y-80965559D01*
X116491782Y-80965559D01*
X116462686Y-80977611D01*
X116347159Y-81025464D01*
X116221718Y-81121718D01*
X116125464Y-81247159D01*
X116104427Y-81297946D01*
X116068452Y-81384799D01*
X116064956Y-81393238D01*
X116044318Y-81550000D01*
X115914365Y-81550000D01*
X115915682Y-81540000D01*
X115895044Y-81383238D01*
X115891800Y-81375405D01*
X115842444Y-81256250D01*
X115834536Y-81237159D01*
X115738282Y-81111718D01*
X115612841Y-81015464D01*
X115466762Y-80954956D01*
X115310000Y-80934318D01*
X115153238Y-80954956D01*
X115007159Y-81015464D01*
X114881718Y-81111718D01*
X114785464Y-81237159D01*
X114777556Y-81256250D01*
X114728201Y-81375405D01*
X114724956Y-81383238D01*
X114704318Y-81540000D01*
X114523049Y-81540000D01*
X114525682Y-81520000D01*
X114505044Y-81363238D01*
X114500308Y-81351803D01*
X114460616Y-81255979D01*
X114444536Y-81217159D01*
X114348282Y-81091718D01*
X114222841Y-80995464D01*
X114118226Y-80952131D01*
X114078218Y-80935559D01*
X114078217Y-80935559D01*
X114076762Y-80934956D01*
X113920000Y-80914318D01*
X113763238Y-80934956D01*
X113761783Y-80935559D01*
X113761782Y-80935559D01*
X113721774Y-80952131D01*
X113617159Y-80995464D01*
X113491718Y-81091718D01*
X113395464Y-81217159D01*
X113379384Y-81255979D01*
X113339693Y-81351803D01*
X113334956Y-81363238D01*
X113314318Y-81520000D01*
X113194365Y-81520000D01*
X113175044Y-81373238D01*
X113171549Y-81364799D01*
X113115139Y-81228615D01*
X113114536Y-81227159D01*
X113018282Y-81101718D01*
X112892841Y-81005464D01*
X112764084Y-80952131D01*
X112748218Y-80945559D01*
X112748217Y-80945559D01*
X112746762Y-80944956D01*
X112590000Y-80924318D01*
X112433238Y-80944956D01*
X112431783Y-80945559D01*
X112431782Y-80945559D01*
X112415916Y-80952131D01*
X112287159Y-81005464D01*
X112161718Y-81101718D01*
X112065464Y-81227159D01*
X112064861Y-81228615D01*
X112008452Y-81364799D01*
X112004956Y-81373238D01*
X111984318Y-81530000D01*
X111385500Y-81530000D01*
X111385500Y-80999041D01*
X111385925Y-80994544D01*
X111389960Y-80973392D01*
X111390504Y-80970540D01*
X111384543Y-80950797D01*
X111379552Y-80934266D01*
X111379221Y-80933054D01*
X111370876Y-80899079D01*
X111370183Y-80896258D01*
X111368263Y-80894080D01*
X111367317Y-80892271D01*
X111367231Y-80892061D01*
X111367229Y-80892062D01*
X111366218Y-80890103D01*
X111365580Y-80887990D01*
X111363492Y-80885298D01*
X111338912Y-80860718D01*
X111337879Y-80859617D01*
X111335990Y-80857474D01*
X111334144Y-80855094D01*
X111322580Y-80838078D01*
X111320947Y-80835675D01*
X111318386Y-80834302D01*
X111318385Y-80834301D01*
X111287562Y-80817774D01*
X111286471Y-80817152D01*
X111256537Y-80799024D01*
X111254052Y-80797519D01*
X111251154Y-80797337D01*
X111249205Y-80796726D01*
X111248994Y-80796638D01*
X111248994Y-80796639D01*
X111246893Y-80795968D01*
X111244951Y-80794927D01*
X111241571Y-80794500D01*
X111206823Y-80794500D01*
X111205316Y-80794453D01*
X111170892Y-80792287D01*
X111170890Y-80792287D01*
X111167992Y-80792105D01*
X111165338Y-80793287D01*
X111162481Y-80793801D01*
X111162419Y-80793457D01*
X111157511Y-80794500D01*
X111093884Y-80794500D01*
X111076913Y-80787471D01*
X111069884Y-80770500D01*
X111070180Y-80766745D01*
X111079168Y-80710000D01*
X111077711Y-80700797D01*
X111067388Y-80635627D01*
X111060610Y-80592831D01*
X111045329Y-80562841D01*
X111007611Y-80488814D01*
X111007609Y-80488812D01*
X111006753Y-80487131D01*
X110922869Y-80403247D01*
X110921188Y-80402391D01*
X110921186Y-80402389D01*
X110818853Y-80350248D01*
X110817169Y-80349390D01*
X110700000Y-80330832D01*
X110582831Y-80349390D01*
X110581147Y-80350248D01*
X110478814Y-80402389D01*
X110478812Y-80402391D01*
X110477131Y-80403247D01*
X110393247Y-80487131D01*
X110392391Y-80488812D01*
X110392389Y-80488814D01*
X110354671Y-80562841D01*
X110339390Y-80592831D01*
X110320832Y-80710000D01*
X110339390Y-80827169D01*
X110340248Y-80828853D01*
X110390187Y-80926863D01*
X110393247Y-80932869D01*
X110477131Y-81016753D01*
X110478812Y-81017609D01*
X110478814Y-81017611D01*
X110553759Y-81055797D01*
X110582831Y-81070610D01*
X110656240Y-81082237D01*
X110670294Y-81084463D01*
X110685955Y-81094061D01*
X110690244Y-81111923D01*
X110680646Y-81127584D01*
X110670294Y-81131872D01*
X110622831Y-81139390D01*
X110621147Y-81140248D01*
X110518814Y-81192389D01*
X110518813Y-81192390D01*
X110517131Y-81193247D01*
X110433247Y-81277131D01*
X110432391Y-81278812D01*
X110432389Y-81278814D01*
X110382516Y-81376695D01*
X110379390Y-81382831D01*
X110360832Y-81500000D01*
X110361127Y-81501863D01*
X110362319Y-81509390D01*
X110379390Y-81617169D01*
X110380248Y-81618853D01*
X110432080Y-81720578D01*
X110433247Y-81722869D01*
X110517131Y-81806753D01*
X110518812Y-81807609D01*
X110518814Y-81807611D01*
X110610039Y-81854092D01*
X110622831Y-81860610D01*
X110740000Y-81879168D01*
X110857169Y-81860610D01*
X110869961Y-81854092D01*
X110961186Y-81807611D01*
X110961188Y-81807609D01*
X110962869Y-81806753D01*
X110993529Y-81776093D01*
X111010500Y-81769064D01*
X111027471Y-81776093D01*
X111034500Y-81793064D01*
X111034500Y-82066936D01*
X111027471Y-82083907D01*
X111010500Y-82090936D01*
X110996223Y-82085023D01*
X110995735Y-82085694D01*
X110994203Y-82084581D01*
X110992869Y-82083247D01*
X110991188Y-82082391D01*
X110991186Y-82082389D01*
X110888853Y-82030248D01*
X110887169Y-82029390D01*
X110770000Y-82010832D01*
X110652831Y-82029390D01*
X110651147Y-82030248D01*
X110548814Y-82082389D01*
X110548812Y-82082391D01*
X110547131Y-82083247D01*
X110463247Y-82167131D01*
X110462391Y-82168812D01*
X110462389Y-82168814D01*
X110421597Y-82248873D01*
X110409390Y-82272831D01*
X110390832Y-82390000D01*
X110409390Y-82507169D01*
X110410248Y-82508853D01*
X110456690Y-82600000D01*
X110463247Y-82612869D01*
X110483427Y-82633049D01*
X110490456Y-82650020D01*
X110483427Y-82666991D01*
X110466456Y-82674020D01*
X110332156Y-82674020D01*
X110315185Y-82666991D01*
X109928396Y-82280202D01*
X109921367Y-82263231D01*
X109928396Y-82246260D01*
X109945367Y-82239231D01*
X109949121Y-82239526D01*
X110008137Y-82248873D01*
X110010000Y-82249168D01*
X110127169Y-82230610D01*
X110153260Y-82217316D01*
X110231186Y-82177611D01*
X110231188Y-82177609D01*
X110232869Y-82176753D01*
X110316753Y-82092869D01*
X110318089Y-82090248D01*
X110369752Y-81988853D01*
X110370610Y-81987169D01*
X110386771Y-81885133D01*
X110388873Y-81871863D01*
X110389168Y-81870000D01*
X110388755Y-81867389D01*
X110385705Y-81848137D01*
X110370610Y-81752831D01*
X110369003Y-81749677D01*
X110317611Y-81648814D01*
X110317609Y-81648812D01*
X110316753Y-81647131D01*
X110232869Y-81563247D01*
X110231188Y-81562391D01*
X110231186Y-81562389D01*
X110128856Y-81510249D01*
X110128853Y-81510248D01*
X110127169Y-81509390D01*
X110095743Y-81504412D01*
X110080084Y-81494816D01*
X110075500Y-81480709D01*
X110075500Y-81424781D01*
X110075925Y-81420284D01*
X110079960Y-81399132D01*
X110080504Y-81396280D01*
X110079635Y-81393400D01*
X110070999Y-81364799D01*
X110069548Y-81359993D01*
X110069219Y-81358788D01*
X110066193Y-81346467D01*
X110065500Y-81340743D01*
X110065500Y-81015596D01*
X110072529Y-80998625D01*
X110078604Y-80994212D01*
X110111186Y-80977611D01*
X110111188Y-80977609D01*
X110112869Y-80976753D01*
X110196753Y-80892869D01*
X110200129Y-80886245D01*
X110249752Y-80788853D01*
X110250610Y-80787169D01*
X110269168Y-80670000D01*
X110268414Y-80665236D01*
X110259761Y-80610610D01*
X110250610Y-80552831D01*
X110217134Y-80487131D01*
X110197611Y-80448814D01*
X110197609Y-80448812D01*
X110196753Y-80447131D01*
X110112869Y-80363247D01*
X110111188Y-80362391D01*
X110111186Y-80362389D01*
X110008853Y-80310248D01*
X110007169Y-80309390D01*
X109905248Y-80293247D01*
X109891863Y-80291127D01*
X109890000Y-80290832D01*
X109888137Y-80291127D01*
X109874752Y-80293247D01*
X109772831Y-80309390D01*
X109771147Y-80310248D01*
X109668814Y-80362389D01*
X109668812Y-80362391D01*
X109667131Y-80363247D01*
X109606960Y-80423418D01*
X109589989Y-80430447D01*
X109573018Y-80423418D01*
X109565989Y-80406447D01*
X109565989Y-80240000D01*
X112004318Y-80240000D01*
X112024956Y-80396762D01*
X112025559Y-80398217D01*
X112025559Y-80398218D01*
X112028968Y-80406447D01*
X112085464Y-80542841D01*
X112181718Y-80668282D01*
X112307159Y-80764536D01*
X112336313Y-80776612D01*
X112451208Y-80824203D01*
X112453238Y-80825044D01*
X112610000Y-80845682D01*
X112766762Y-80825044D01*
X112768793Y-80824203D01*
X112883687Y-80776612D01*
X112912841Y-80764536D01*
X113038282Y-80668282D01*
X113134536Y-80542841D01*
X113191032Y-80406447D01*
X113194441Y-80398218D01*
X113194441Y-80398217D01*
X113195044Y-80396762D01*
X113215682Y-80240000D01*
X113214365Y-80230000D01*
X113334318Y-80230000D01*
X113354956Y-80386762D01*
X113355559Y-80388217D01*
X113355559Y-80388218D01*
X113370139Y-80423418D01*
X113415464Y-80532841D01*
X113511718Y-80658282D01*
X113637159Y-80754536D01*
X113684820Y-80774278D01*
X113739015Y-80796726D01*
X113783238Y-80815044D01*
X113940000Y-80835682D01*
X114096762Y-80815044D01*
X114140986Y-80796726D01*
X114195180Y-80774278D01*
X114242841Y-80754536D01*
X114368282Y-80658282D01*
X114464536Y-80532841D01*
X114509861Y-80423418D01*
X114524441Y-80388218D01*
X114524441Y-80388217D01*
X114525044Y-80386762D01*
X114543049Y-80250000D01*
X114724318Y-80250000D01*
X114744956Y-80406762D01*
X114745559Y-80408217D01*
X114745559Y-80408218D01*
X114767377Y-80460892D01*
X114805464Y-80552841D01*
X114901718Y-80678282D01*
X115027159Y-80774536D01*
X115051301Y-80784536D01*
X115158292Y-80828853D01*
X115173238Y-80835044D01*
X115330000Y-80855682D01*
X115486762Y-80835044D01*
X115501709Y-80828853D01*
X115608699Y-80784536D01*
X115632841Y-80774536D01*
X115758282Y-80678282D01*
X115854536Y-80552841D01*
X115892623Y-80460892D01*
X115914441Y-80408218D01*
X115914441Y-80408217D01*
X115915044Y-80406762D01*
X115934365Y-80260000D01*
X116064318Y-80260000D01*
X116084956Y-80416762D01*
X116085559Y-80418217D01*
X116085559Y-80418218D01*
X116094244Y-80439185D01*
X116145464Y-80562841D01*
X116241718Y-80688282D01*
X116367159Y-80784536D01*
X116423398Y-80807831D01*
X116498647Y-80839000D01*
X116513238Y-80845044D01*
X116670000Y-80865682D01*
X116826762Y-80845044D01*
X116841354Y-80839000D01*
X116916602Y-80807831D01*
X116972841Y-80784536D01*
X117098282Y-80688282D01*
X117194536Y-80562841D01*
X117245756Y-80439185D01*
X117254441Y-80418218D01*
X117254441Y-80418217D01*
X117255044Y-80416762D01*
X117275682Y-80260000D01*
X117255044Y-80103238D01*
X117251549Y-80094799D01*
X117217942Y-80013665D01*
X117194536Y-79957159D01*
X117098282Y-79831718D01*
X116972841Y-79735464D01*
X116875797Y-79695267D01*
X116828218Y-79675559D01*
X116828217Y-79675559D01*
X116826762Y-79674956D01*
X116670000Y-79654318D01*
X116513238Y-79674956D01*
X116511783Y-79675559D01*
X116511782Y-79675559D01*
X116464203Y-79695267D01*
X116367159Y-79735464D01*
X116241718Y-79831718D01*
X116145464Y-79957159D01*
X116122058Y-80013665D01*
X116088452Y-80094799D01*
X116084956Y-80103238D01*
X116064318Y-80260000D01*
X115934365Y-80260000D01*
X115935682Y-80250000D01*
X115915044Y-80093238D01*
X115911549Y-80084799D01*
X115875750Y-79998375D01*
X115854536Y-79947159D01*
X115758282Y-79821718D01*
X115632841Y-79725464D01*
X115486762Y-79664956D01*
X115330000Y-79644318D01*
X115173238Y-79664956D01*
X115027159Y-79725464D01*
X114901718Y-79821718D01*
X114805464Y-79947159D01*
X114784250Y-79998375D01*
X114748452Y-80084799D01*
X114744956Y-80093238D01*
X114724318Y-80250000D01*
X114543049Y-80250000D01*
X114545682Y-80230000D01*
X114525044Y-80073238D01*
X114517329Y-80054611D01*
X114487415Y-79982394D01*
X114464536Y-79927159D01*
X114368282Y-79801718D01*
X114242841Y-79705464D01*
X114096762Y-79644956D01*
X113940000Y-79624318D01*
X113783238Y-79644956D01*
X113637159Y-79705464D01*
X113511718Y-79801718D01*
X113415464Y-79927159D01*
X113392585Y-79982394D01*
X113362672Y-80054611D01*
X113354956Y-80073238D01*
X113334318Y-80230000D01*
X113214365Y-80230000D01*
X113195044Y-80083238D01*
X113194258Y-80081339D01*
X113147709Y-79968962D01*
X113134536Y-79937159D01*
X113038282Y-79811718D01*
X112912841Y-79715464D01*
X112766762Y-79654956D01*
X112610000Y-79634318D01*
X112453238Y-79654956D01*
X112307159Y-79715464D01*
X112181718Y-79811718D01*
X112085464Y-79937159D01*
X112072291Y-79968962D01*
X112025743Y-80081339D01*
X112024956Y-80083238D01*
X112004318Y-80240000D01*
X109565989Y-80240000D01*
X109565989Y-80202147D01*
X109573018Y-80185176D01*
X110233194Y-79525000D01*
X120845832Y-79525000D01*
X120864390Y-79642169D01*
X120865248Y-79643853D01*
X120908441Y-79728623D01*
X120918247Y-79747869D01*
X121002131Y-79831753D01*
X121003812Y-79832609D01*
X121003814Y-79832611D01*
X121086725Y-79874856D01*
X121107831Y-79885610D01*
X121225000Y-79904168D01*
X121342169Y-79885610D01*
X121363275Y-79874856D01*
X121446186Y-79832611D01*
X121446188Y-79832609D01*
X121447869Y-79831753D01*
X121531753Y-79747869D01*
X121541560Y-79728623D01*
X121584752Y-79643853D01*
X121585610Y-79642169D01*
X121604168Y-79525000D01*
X121603111Y-79518323D01*
X121598553Y-79489549D01*
X121585610Y-79407831D01*
X121583442Y-79403576D01*
X121532611Y-79303814D01*
X121532609Y-79303812D01*
X121531753Y-79302131D01*
X121447869Y-79218247D01*
X121446188Y-79217391D01*
X121446186Y-79217389D01*
X121343853Y-79165248D01*
X121342169Y-79164390D01*
X121225000Y-79145832D01*
X121107831Y-79164390D01*
X121106147Y-79165248D01*
X121003814Y-79217389D01*
X121003812Y-79217391D01*
X121002131Y-79218247D01*
X120918247Y-79302131D01*
X120917391Y-79303812D01*
X120917389Y-79303814D01*
X120866558Y-79403576D01*
X120864390Y-79407831D01*
X120851447Y-79489549D01*
X120846890Y-79518323D01*
X120845832Y-79525000D01*
X110233194Y-79525000D01*
X110578287Y-79179907D01*
X110595258Y-79172878D01*
X110599012Y-79173173D01*
X110667952Y-79184092D01*
X110700000Y-79189168D01*
X110817169Y-79170610D01*
X110826913Y-79165645D01*
X110921186Y-79117611D01*
X110921188Y-79117609D01*
X110922869Y-79116753D01*
X111006753Y-79032869D01*
X111009434Y-79027609D01*
X111059752Y-78928853D01*
X111060610Y-78927169D01*
X111069665Y-78870000D01*
X111974318Y-78870000D01*
X111994956Y-79026762D01*
X111995559Y-79028217D01*
X111995559Y-79028218D01*
X112014379Y-79073654D01*
X112055464Y-79172841D01*
X112151718Y-79298282D01*
X112277159Y-79394536D01*
X112314145Y-79409856D01*
X112405675Y-79447769D01*
X112423238Y-79455044D01*
X112580000Y-79475682D01*
X112736762Y-79455044D01*
X112754326Y-79447769D01*
X112845855Y-79409856D01*
X112882841Y-79394536D01*
X113008282Y-79298282D01*
X113104536Y-79172841D01*
X113145621Y-79073654D01*
X113164441Y-79028218D01*
X113164441Y-79028217D01*
X113165044Y-79026762D01*
X113185682Y-78870000D01*
X113184365Y-78860000D01*
X113304318Y-78860000D01*
X113324956Y-79016762D01*
X113325559Y-79018217D01*
X113325559Y-79018218D01*
X113352432Y-79083095D01*
X113385464Y-79162841D01*
X113481718Y-79288282D01*
X113607159Y-79384536D01*
X113677268Y-79413576D01*
X113723604Y-79432769D01*
X113753238Y-79445044D01*
X113910000Y-79465682D01*
X114066762Y-79445044D01*
X114096397Y-79432769D01*
X114142732Y-79413576D01*
X114212841Y-79384536D01*
X114338282Y-79288282D01*
X114434536Y-79162841D01*
X114467568Y-79083095D01*
X114494441Y-79018218D01*
X114494441Y-79018217D01*
X114495044Y-79016762D01*
X114513049Y-78880000D01*
X114694318Y-78880000D01*
X114714956Y-79036762D01*
X114715559Y-79038217D01*
X114715559Y-79038218D01*
X114723393Y-79057131D01*
X114775464Y-79182841D01*
X114871718Y-79308282D01*
X114997159Y-79404536D01*
X115061898Y-79431352D01*
X115133246Y-79460905D01*
X115143238Y-79465044D01*
X115300000Y-79485682D01*
X115456762Y-79465044D01*
X115466755Y-79460905D01*
X115538102Y-79431352D01*
X115602841Y-79404536D01*
X115728282Y-79308282D01*
X115824536Y-79182841D01*
X115876607Y-79057131D01*
X115884441Y-79038218D01*
X115884441Y-79038217D01*
X115885044Y-79036762D01*
X115904365Y-78890000D01*
X116034318Y-78890000D01*
X116054956Y-79046762D01*
X116115464Y-79192841D01*
X116211718Y-79318282D01*
X116337159Y-79414536D01*
X116483238Y-79475044D01*
X116640000Y-79495682D01*
X116796762Y-79475044D01*
X116942841Y-79414536D01*
X117068282Y-79318282D01*
X117164536Y-79192841D01*
X117225044Y-79046762D01*
X117245682Y-78890000D01*
X117225044Y-78733238D01*
X117221549Y-78724799D01*
X117181937Y-78629168D01*
X117164536Y-78587159D01*
X117068282Y-78461718D01*
X116942841Y-78365464D01*
X116796762Y-78304956D01*
X116640000Y-78284318D01*
X116483238Y-78304956D01*
X116337159Y-78365464D01*
X116211718Y-78461718D01*
X116115464Y-78587159D01*
X116098063Y-78629168D01*
X116058452Y-78724799D01*
X116054956Y-78733238D01*
X116034318Y-78890000D01*
X115904365Y-78890000D01*
X115905682Y-78880000D01*
X115885044Y-78723238D01*
X115881549Y-78714799D01*
X115828678Y-78587159D01*
X115824536Y-78577159D01*
X115728282Y-78451718D01*
X115602841Y-78355464D01*
X115472790Y-78301595D01*
X115458218Y-78295559D01*
X115458217Y-78295559D01*
X115456762Y-78294956D01*
X115300000Y-78274318D01*
X115143238Y-78294956D01*
X115141783Y-78295559D01*
X115141782Y-78295559D01*
X115127210Y-78301595D01*
X114997159Y-78355464D01*
X114871718Y-78451718D01*
X114775464Y-78577159D01*
X114771322Y-78587159D01*
X114718452Y-78714799D01*
X114714956Y-78723238D01*
X114694318Y-78880000D01*
X114513049Y-78880000D01*
X114515682Y-78860000D01*
X114495044Y-78703238D01*
X114434536Y-78557159D01*
X114338282Y-78431718D01*
X114212841Y-78335464D01*
X114087696Y-78283627D01*
X114068218Y-78275559D01*
X114068217Y-78275559D01*
X114066762Y-78274956D01*
X113910000Y-78254318D01*
X113753238Y-78274956D01*
X113751783Y-78275559D01*
X113751782Y-78275559D01*
X113732304Y-78283627D01*
X113607159Y-78335464D01*
X113481718Y-78431718D01*
X113385464Y-78557159D01*
X113324956Y-78703238D01*
X113304318Y-78860000D01*
X113184365Y-78860000D01*
X113165044Y-78713238D01*
X113161549Y-78704799D01*
X113134790Y-78640198D01*
X113104536Y-78567159D01*
X113008282Y-78441718D01*
X112882841Y-78345464D01*
X112776932Y-78301595D01*
X112738218Y-78285559D01*
X112738217Y-78285559D01*
X112736762Y-78284956D01*
X112580000Y-78264318D01*
X112423238Y-78284956D01*
X112421783Y-78285559D01*
X112421782Y-78285559D01*
X112383068Y-78301595D01*
X112277159Y-78345464D01*
X112151718Y-78441718D01*
X112055464Y-78567159D01*
X112025210Y-78640198D01*
X111998452Y-78704799D01*
X111994956Y-78713238D01*
X111974318Y-78870000D01*
X111069665Y-78870000D01*
X111079168Y-78810000D01*
X111060610Y-78692831D01*
X111055403Y-78682611D01*
X111007611Y-78588814D01*
X111007609Y-78588812D01*
X111006753Y-78587131D01*
X110930330Y-78510708D01*
X110923301Y-78493737D01*
X110930330Y-78476766D01*
X110940988Y-78470582D01*
X111041609Y-78443149D01*
X111041611Y-78443148D01*
X111043255Y-78442700D01*
X111153224Y-78375179D01*
X111155073Y-78373137D01*
X111226024Y-78294751D01*
X111239822Y-78279507D01*
X111254118Y-78250000D01*
X118040832Y-78250000D01*
X118059390Y-78367169D01*
X118060248Y-78368853D01*
X118112082Y-78470582D01*
X118113247Y-78472869D01*
X118197131Y-78556753D01*
X118198812Y-78557609D01*
X118198814Y-78557611D01*
X118282008Y-78600000D01*
X118302831Y-78610610D01*
X118420000Y-78629168D01*
X118537169Y-78610610D01*
X118557992Y-78600000D01*
X118641186Y-78557611D01*
X118641188Y-78557609D01*
X118642869Y-78556753D01*
X118726753Y-78472869D01*
X118727919Y-78470582D01*
X118744212Y-78438604D01*
X118758180Y-78426675D01*
X118765596Y-78425500D01*
X120080955Y-78425500D01*
X120085452Y-78425925D01*
X120102452Y-78429168D01*
X120109460Y-78430505D01*
X120113888Y-78429168D01*
X120145745Y-78419550D01*
X120146957Y-78419219D01*
X120180921Y-78410876D01*
X120183742Y-78410183D01*
X120185920Y-78408263D01*
X120187729Y-78407317D01*
X120187939Y-78407231D01*
X120187938Y-78407229D01*
X120189897Y-78406218D01*
X120192010Y-78405580D01*
X120193753Y-78404228D01*
X120193755Y-78404227D01*
X120194110Y-78403951D01*
X120194702Y-78403492D01*
X120219271Y-78378923D01*
X120220370Y-78377891D01*
X120225762Y-78373137D01*
X120248424Y-78353158D01*
X120249464Y-78350448D01*
X120251122Y-78348063D01*
X120251409Y-78348262D01*
X120254141Y-78344053D01*
X120534430Y-78063764D01*
X120551401Y-78056735D01*
X120568372Y-78063764D01*
X120575105Y-78076979D01*
X120589390Y-78167169D01*
X120590248Y-78168853D01*
X120640836Y-78268137D01*
X120643247Y-78272869D01*
X120727131Y-78356753D01*
X120728812Y-78357609D01*
X120728814Y-78357611D01*
X120815929Y-78401998D01*
X120832831Y-78410610D01*
X120950000Y-78429168D01*
X121067169Y-78410610D01*
X121084071Y-78401998D01*
X121171186Y-78357611D01*
X121171188Y-78357609D01*
X121172869Y-78356753D01*
X121256753Y-78272869D01*
X121259165Y-78268137D01*
X121309752Y-78168853D01*
X121310610Y-78167169D01*
X121329168Y-78050000D01*
X122420832Y-78050000D01*
X122439390Y-78167169D01*
X122440248Y-78168853D01*
X122490836Y-78268137D01*
X122493247Y-78272869D01*
X122577131Y-78356753D01*
X122578812Y-78357609D01*
X122578814Y-78357611D01*
X122665929Y-78401998D01*
X122682831Y-78410610D01*
X122800000Y-78429168D01*
X122917169Y-78410610D01*
X122934071Y-78401998D01*
X123021186Y-78357611D01*
X123021188Y-78357609D01*
X123022869Y-78356753D01*
X123106753Y-78272869D01*
X123109165Y-78268137D01*
X123159752Y-78168853D01*
X123160610Y-78167169D01*
X123179168Y-78050000D01*
X123177728Y-78040905D01*
X123172080Y-78005249D01*
X123160610Y-77932831D01*
X123151680Y-77915304D01*
X123107611Y-77828814D01*
X123107609Y-77828812D01*
X123106753Y-77827131D01*
X123022869Y-77743247D01*
X123021188Y-77742391D01*
X123021186Y-77742389D01*
X122918853Y-77690248D01*
X122917169Y-77689390D01*
X122800000Y-77670832D01*
X122682831Y-77689390D01*
X122681147Y-77690248D01*
X122578814Y-77742389D01*
X122578812Y-77742391D01*
X122577131Y-77743247D01*
X122493247Y-77827131D01*
X122492391Y-77828812D01*
X122492389Y-77828814D01*
X122448320Y-77915304D01*
X122439390Y-77932831D01*
X122427920Y-78005249D01*
X122422273Y-78040905D01*
X122420832Y-78050000D01*
X121329168Y-78050000D01*
X121327728Y-78040905D01*
X121322080Y-78005249D01*
X121310610Y-77932831D01*
X121301680Y-77915304D01*
X121257611Y-77828814D01*
X121257609Y-77828812D01*
X121256753Y-77827131D01*
X121172869Y-77743247D01*
X121171188Y-77742391D01*
X121171186Y-77742389D01*
X121068853Y-77690248D01*
X121067169Y-77689390D01*
X120976981Y-77675105D01*
X120961320Y-77665508D01*
X120957031Y-77647647D01*
X120963765Y-77634430D01*
X121029217Y-77568978D01*
X121029219Y-77568975D01*
X121115665Y-77482529D01*
X121132636Y-77475500D01*
X123580955Y-77475500D01*
X123585452Y-77475925D01*
X123609460Y-77480505D01*
X123612239Y-77479666D01*
X123645745Y-77469550D01*
X123646957Y-77469219D01*
X123680921Y-77460876D01*
X123683742Y-77460183D01*
X123685920Y-77458263D01*
X123687729Y-77457317D01*
X123687939Y-77457231D01*
X123687938Y-77457229D01*
X123689897Y-77456218D01*
X123692010Y-77455580D01*
X123693753Y-77454228D01*
X123693755Y-77454227D01*
X123694110Y-77453951D01*
X123694702Y-77453492D01*
X123719279Y-77428915D01*
X123720379Y-77427883D01*
X123746245Y-77405079D01*
X123748424Y-77403158D01*
X123749465Y-77400446D01*
X123751123Y-77398061D01*
X123751410Y-77398261D01*
X123754142Y-77394053D01*
X123888289Y-77259907D01*
X123905259Y-77252878D01*
X123909013Y-77253173D01*
X123989323Y-77265893D01*
X124010000Y-77269168D01*
X124127169Y-77250610D01*
X124152824Y-77237538D01*
X124231186Y-77197611D01*
X124231188Y-77197609D01*
X124232869Y-77196753D01*
X124316753Y-77112869D01*
X124319165Y-77108137D01*
X124369752Y-77008853D01*
X124370610Y-77007169D01*
X124370905Y-77005304D01*
X124370907Y-77005299D01*
X124374124Y-76984991D01*
X124383722Y-76969329D01*
X124401583Y-76965042D01*
X124417245Y-76974640D01*
X124421532Y-76984990D01*
X124432542Y-77054500D01*
X124434502Y-77066878D01*
X124430213Y-77084739D01*
X124427768Y-77087603D01*
X122554760Y-78960610D01*
X120683399Y-80831971D01*
X120666428Y-80839000D01*
X119021096Y-80839000D01*
X119004125Y-80831971D01*
X118999712Y-80825896D01*
X118983111Y-80793314D01*
X118983109Y-80793312D01*
X118982253Y-80791631D01*
X118898369Y-80707747D01*
X118896688Y-80706891D01*
X118896686Y-80706889D01*
X118794353Y-80654748D01*
X118792669Y-80653890D01*
X118675500Y-80635332D01*
X118558331Y-80653890D01*
X118556647Y-80654748D01*
X118454314Y-80706889D01*
X118454312Y-80706891D01*
X118452631Y-80707747D01*
X118368747Y-80791631D01*
X118367891Y-80793312D01*
X118367889Y-80793314D01*
X118316484Y-80894203D01*
X118314890Y-80897331D01*
X118296332Y-81014500D01*
X118314890Y-81131669D01*
X118315748Y-81133353D01*
X118366323Y-81232611D01*
X118368747Y-81237369D01*
X118452631Y-81321253D01*
X118454312Y-81322109D01*
X118454314Y-81322111D01*
X118550337Y-81371037D01*
X118558331Y-81375110D01*
X118675500Y-81393668D01*
X118792669Y-81375110D01*
X118800663Y-81371037D01*
X118896686Y-81322111D01*
X118896688Y-81322109D01*
X118898369Y-81321253D01*
X118982253Y-81237369D01*
X118984678Y-81232611D01*
X118999712Y-81203104D01*
X119013680Y-81191175D01*
X119021096Y-81190000D01*
X120730020Y-81190000D01*
X120734517Y-81190425D01*
X120749310Y-81193247D01*
X120758525Y-81195005D01*
X120767186Y-81192390D01*
X120794810Y-81184050D01*
X120796022Y-81183719D01*
X120829986Y-81175376D01*
X120831517Y-81175000D01*
X121470832Y-81175000D01*
X121489390Y-81292169D01*
X121490248Y-81293853D01*
X121541683Y-81394799D01*
X121543247Y-81397869D01*
X121627131Y-81481753D01*
X121628812Y-81482609D01*
X121628814Y-81482611D01*
X121731147Y-81534752D01*
X121732831Y-81535610D01*
X121823685Y-81550000D01*
X121837051Y-81552117D01*
X121850000Y-81554168D01*
X121862950Y-81552117D01*
X121876315Y-81550000D01*
X121967169Y-81535610D01*
X121998123Y-81519838D01*
X122016435Y-81518397D01*
X122030403Y-81530326D01*
X122031844Y-81548638D01*
X122030403Y-81552117D01*
X122024611Y-81563485D01*
X122024610Y-81563488D01*
X122023752Y-81565172D01*
X122005194Y-81682341D01*
X122023752Y-81799510D01*
X122024610Y-81801194D01*
X122076397Y-81902831D01*
X122077609Y-81905210D01*
X122161493Y-81989094D01*
X122163174Y-81989950D01*
X122163176Y-81989952D01*
X122234494Y-82026290D01*
X122267193Y-82042951D01*
X122384362Y-82061509D01*
X122501531Y-82042951D01*
X122531402Y-82027731D01*
X122549713Y-82026290D01*
X122563681Y-82038219D01*
X122565114Y-82056411D01*
X122564390Y-82057831D01*
X122552128Y-82135249D01*
X122546154Y-82172970D01*
X122545832Y-82175000D01*
X122546127Y-82176863D01*
X122546409Y-82178641D01*
X122564390Y-82292169D01*
X122565248Y-82293853D01*
X122615187Y-82391863D01*
X122618247Y-82397869D01*
X122702131Y-82481753D01*
X122703812Y-82482609D01*
X122703814Y-82482611D01*
X122779862Y-82521359D01*
X122807831Y-82535610D01*
X122925000Y-82554168D01*
X123042169Y-82535610D01*
X123070138Y-82521359D01*
X123146186Y-82482611D01*
X123146188Y-82482609D01*
X123147869Y-82481753D01*
X123231753Y-82397869D01*
X123234814Y-82391863D01*
X123284752Y-82293853D01*
X123285610Y-82292169D01*
X123303591Y-82178641D01*
X123303873Y-82176863D01*
X123304168Y-82175000D01*
X123303847Y-82172970D01*
X123298108Y-82136737D01*
X123285610Y-82057831D01*
X123283442Y-82053576D01*
X123232611Y-81953814D01*
X123232609Y-81953812D01*
X123231753Y-81952131D01*
X123147869Y-81868247D01*
X123146188Y-81867391D01*
X123146186Y-81867389D01*
X123112058Y-81850000D01*
X126120832Y-81850000D01*
X126139390Y-81967169D01*
X126140248Y-81968853D01*
X126192370Y-82071147D01*
X126193247Y-82072869D01*
X126277131Y-82156753D01*
X126278812Y-82157609D01*
X126278814Y-82157611D01*
X126364027Y-82201029D01*
X126382831Y-82210610D01*
X126500000Y-82229168D01*
X126617169Y-82210610D01*
X126635973Y-82201029D01*
X126721186Y-82157611D01*
X126721188Y-82157609D01*
X126722869Y-82156753D01*
X126806753Y-82072869D01*
X126807631Y-82071147D01*
X126859752Y-81968853D01*
X126860610Y-81967169D01*
X126879168Y-81850000D01*
X126877804Y-81841385D01*
X126875857Y-81829095D01*
X126860610Y-81732831D01*
X126851311Y-81714581D01*
X126822765Y-81658556D01*
X141812276Y-81658556D01*
X141830834Y-81775725D01*
X141831692Y-81777409D01*
X141883391Y-81878873D01*
X141884691Y-81881425D01*
X141968575Y-81965309D01*
X141970256Y-81966165D01*
X141970258Y-81966167D01*
X142065610Y-82014751D01*
X142074275Y-82019166D01*
X142171479Y-82034562D01*
X142182037Y-82036234D01*
X142191444Y-82037724D01*
X142200852Y-82036234D01*
X142211409Y-82034562D01*
X142308613Y-82019166D01*
X142317278Y-82014751D01*
X142412630Y-81966167D01*
X142412632Y-81966165D01*
X142414313Y-81965309D01*
X142498197Y-81881425D01*
X142499498Y-81878873D01*
X142551196Y-81777409D01*
X142552054Y-81775725D01*
X142570612Y-81658556D01*
X142552054Y-81541387D01*
X142551196Y-81539703D01*
X142499055Y-81437370D01*
X142499053Y-81437368D01*
X142498197Y-81435687D01*
X142414313Y-81351803D01*
X142412632Y-81350947D01*
X142412630Y-81350945D01*
X142310297Y-81298804D01*
X142308613Y-81297946D01*
X142191444Y-81279388D01*
X142074275Y-81297946D01*
X142072591Y-81298804D01*
X141970258Y-81350945D01*
X141970256Y-81350947D01*
X141968575Y-81351803D01*
X141884691Y-81435687D01*
X141883835Y-81437368D01*
X141883833Y-81437370D01*
X141831692Y-81539703D01*
X141830834Y-81541387D01*
X141812276Y-81658556D01*
X126822765Y-81658556D01*
X126807611Y-81628814D01*
X126807609Y-81628812D01*
X126806753Y-81627131D01*
X126722869Y-81543247D01*
X126721188Y-81542391D01*
X126721186Y-81542389D01*
X126618853Y-81490248D01*
X126617169Y-81489390D01*
X126500000Y-81470832D01*
X126382831Y-81489390D01*
X126381147Y-81490248D01*
X126278814Y-81542389D01*
X126278812Y-81542391D01*
X126277131Y-81543247D01*
X126193247Y-81627131D01*
X126192391Y-81628812D01*
X126192389Y-81628814D01*
X126148689Y-81714581D01*
X126139390Y-81732831D01*
X126124143Y-81829095D01*
X126122197Y-81841385D01*
X126120832Y-81850000D01*
X123112058Y-81850000D01*
X123043853Y-81815248D01*
X123042169Y-81814390D01*
X122936447Y-81797645D01*
X122926863Y-81796127D01*
X122925000Y-81795832D01*
X122923137Y-81796127D01*
X122913553Y-81797645D01*
X122807831Y-81814390D01*
X122777960Y-81829610D01*
X122759649Y-81831051D01*
X122745681Y-81819122D01*
X122744248Y-81800930D01*
X122744972Y-81799510D01*
X122763530Y-81682341D01*
X122744972Y-81565172D01*
X122738035Y-81551557D01*
X122691973Y-81461155D01*
X122691971Y-81461153D01*
X122691115Y-81459472D01*
X122607231Y-81375588D01*
X122605550Y-81374732D01*
X122605548Y-81374730D01*
X122503215Y-81322589D01*
X122501531Y-81321731D01*
X122404327Y-81306335D01*
X122386225Y-81303468D01*
X122384362Y-81303173D01*
X122382499Y-81303468D01*
X122364397Y-81306335D01*
X122267193Y-81321731D01*
X122265509Y-81322589D01*
X122236239Y-81337503D01*
X122217927Y-81338944D01*
X122203959Y-81327015D01*
X122202518Y-81308703D01*
X122203959Y-81305224D01*
X122209751Y-81293856D01*
X122209752Y-81293853D01*
X122210610Y-81292169D01*
X122229168Y-81175000D01*
X122210610Y-81057831D01*
X122188532Y-81014500D01*
X122157611Y-80953814D01*
X122157609Y-80953812D01*
X122156753Y-80952131D01*
X122129622Y-80925000D01*
X139520832Y-80925000D01*
X139539390Y-81042169D01*
X139540248Y-81043853D01*
X139592040Y-81145500D01*
X139593247Y-81147869D01*
X139677131Y-81231753D01*
X139678812Y-81232609D01*
X139678814Y-81232611D01*
X139771821Y-81280000D01*
X139782831Y-81285610D01*
X139900000Y-81304168D01*
X140017169Y-81285610D01*
X140028179Y-81280000D01*
X140121186Y-81232611D01*
X140121188Y-81232609D01*
X140122869Y-81231753D01*
X140206753Y-81147869D01*
X140207961Y-81145500D01*
X140259752Y-81043853D01*
X140260610Y-81042169D01*
X140279168Y-80925000D01*
X140278280Y-80919390D01*
X140272880Y-80885298D01*
X140260610Y-80807831D01*
X140254907Y-80796638D01*
X140207611Y-80703814D01*
X140207609Y-80703812D01*
X140206753Y-80702131D01*
X140122869Y-80618247D01*
X140121188Y-80617391D01*
X140121186Y-80617389D01*
X140018853Y-80565248D01*
X140017169Y-80564390D01*
X139900000Y-80545832D01*
X139782831Y-80564390D01*
X139781147Y-80565248D01*
X139678814Y-80617389D01*
X139678812Y-80617391D01*
X139677131Y-80618247D01*
X139593247Y-80702131D01*
X139592391Y-80703812D01*
X139592389Y-80703814D01*
X139545093Y-80796638D01*
X139539390Y-80807831D01*
X139527120Y-80885298D01*
X139521721Y-80919390D01*
X139520832Y-80925000D01*
X122129622Y-80925000D01*
X122072869Y-80868247D01*
X122071188Y-80867391D01*
X122071186Y-80867389D01*
X121968853Y-80815248D01*
X121967169Y-80814390D01*
X121858732Y-80797215D01*
X121851863Y-80796127D01*
X121850000Y-80795832D01*
X121848137Y-80796127D01*
X121841268Y-80797215D01*
X121732831Y-80814390D01*
X121731147Y-80815248D01*
X121628814Y-80867389D01*
X121628812Y-80867391D01*
X121627131Y-80868247D01*
X121543247Y-80952131D01*
X121542391Y-80953812D01*
X121542389Y-80953814D01*
X121511468Y-81014500D01*
X121489390Y-81057831D01*
X121470832Y-81175000D01*
X120831517Y-81175000D01*
X120832807Y-81174683D01*
X120834985Y-81172763D01*
X120836794Y-81171817D01*
X120837004Y-81171731D01*
X120837003Y-81171729D01*
X120838962Y-81170718D01*
X120841075Y-81170080D01*
X120842818Y-81168728D01*
X120842820Y-81168727D01*
X120843175Y-81168451D01*
X120843767Y-81167992D01*
X120868336Y-81143423D01*
X120869435Y-81142391D01*
X120879656Y-81133380D01*
X120897489Y-81117658D01*
X120898529Y-81114948D01*
X120900187Y-81112563D01*
X120900474Y-81112762D01*
X120903206Y-81108553D01*
X122157319Y-79854440D01*
X124274901Y-79854440D01*
X124291633Y-79982394D01*
X124343605Y-80100510D01*
X124393016Y-80159292D01*
X124423183Y-80195179D01*
X124426639Y-80199291D01*
X124450823Y-80215389D01*
X124529289Y-80267620D01*
X124534060Y-80270796D01*
X124561811Y-80279466D01*
X124655603Y-80308769D01*
X124655605Y-80308769D01*
X124657233Y-80309278D01*
X124718005Y-80310392D01*
X124784546Y-80311612D01*
X124784548Y-80311612D01*
X124786255Y-80311643D01*
X124874402Y-80287611D01*
X124909109Y-80278149D01*
X124909111Y-80278148D01*
X124910755Y-80277700D01*
X124955869Y-80250000D01*
X128120832Y-80250000D01*
X128121127Y-80251863D01*
X128123623Y-80267620D01*
X128139390Y-80367169D01*
X128140248Y-80368853D01*
X128189197Y-80464920D01*
X128193247Y-80472869D01*
X128277131Y-80556753D01*
X128278812Y-80557609D01*
X128278814Y-80557611D01*
X128351598Y-80594696D01*
X128382831Y-80610610D01*
X128500000Y-80629168D01*
X128617169Y-80610610D01*
X128648402Y-80594696D01*
X128721186Y-80557611D01*
X128721188Y-80557609D01*
X128722869Y-80556753D01*
X128806753Y-80472869D01*
X128810804Y-80464920D01*
X128859752Y-80368853D01*
X128860610Y-80367169D01*
X128860724Y-80366449D01*
X128872347Y-80352843D01*
X128890659Y-80351403D01*
X128897851Y-80355188D01*
X128902653Y-80358873D01*
X128959767Y-80402698D01*
X128993720Y-80416762D01*
X129092657Y-80457743D01*
X129099764Y-80460687D01*
X129161352Y-80468795D01*
X129211502Y-80475398D01*
X129211508Y-80475398D01*
X129212280Y-80475500D01*
X129587720Y-80475500D01*
X129588492Y-80475398D01*
X129588498Y-80475398D01*
X129638648Y-80468795D01*
X129700236Y-80460687D01*
X129707344Y-80457743D01*
X129806280Y-80416762D01*
X129840233Y-80402698D01*
X129960451Y-80310451D01*
X130052698Y-80190233D01*
X130096161Y-80085304D01*
X130110084Y-80051692D01*
X130110084Y-80051691D01*
X130110687Y-80050236D01*
X130130466Y-79900000D01*
X133669534Y-79900000D01*
X133689313Y-80050236D01*
X133689916Y-80051691D01*
X133689916Y-80051692D01*
X133703839Y-80085304D01*
X133747302Y-80190233D01*
X133839549Y-80310451D01*
X133959767Y-80402698D01*
X133993720Y-80416762D01*
X134092657Y-80457743D01*
X134099764Y-80460687D01*
X134161352Y-80468795D01*
X134211502Y-80475398D01*
X134211508Y-80475398D01*
X134212280Y-80475500D01*
X134587720Y-80475500D01*
X134588492Y-80475398D01*
X134588498Y-80475398D01*
X134638648Y-80468795D01*
X134700236Y-80460687D01*
X134707344Y-80457743D01*
X134806280Y-80416762D01*
X134840233Y-80402698D01*
X134960451Y-80310451D01*
X135052698Y-80190233D01*
X135096161Y-80085304D01*
X135110084Y-80051692D01*
X135110084Y-80051691D01*
X135110687Y-80050236D01*
X135130466Y-79900000D01*
X135123225Y-79845000D01*
X144731190Y-79845000D01*
X144749748Y-79962169D01*
X144750606Y-79963853D01*
X144796850Y-80054611D01*
X144803605Y-80067869D01*
X144887489Y-80151753D01*
X144889170Y-80152609D01*
X144889172Y-80152611D01*
X144990428Y-80204203D01*
X144993189Y-80205610D01*
X145110358Y-80224168D01*
X145227527Y-80205610D01*
X145230288Y-80204203D01*
X145305431Y-80165916D01*
X145323743Y-80164475D01*
X145337711Y-80176404D01*
X145339063Y-80191824D01*
X145339754Y-80191932D01*
X145321301Y-80310451D01*
X145319901Y-80319440D01*
X145336633Y-80447394D01*
X145388605Y-80565510D01*
X145432214Y-80617389D01*
X145467824Y-80659752D01*
X145471639Y-80664291D01*
X145579060Y-80735796D01*
X145631985Y-80752331D01*
X145700603Y-80773769D01*
X145700605Y-80773769D01*
X145702233Y-80774278D01*
X145763005Y-80775392D01*
X145829546Y-80776612D01*
X145829548Y-80776612D01*
X145831255Y-80776643D01*
X145915863Y-80753576D01*
X145954109Y-80743149D01*
X145954111Y-80743148D01*
X145955755Y-80742700D01*
X146065724Y-80675179D01*
X146068726Y-80671863D01*
X146124169Y-80610610D01*
X146152322Y-80579507D01*
X146208588Y-80463375D01*
X146209041Y-80460687D01*
X146225433Y-80363247D01*
X146229997Y-80336120D01*
X146230075Y-80329752D01*
X146230122Y-80325934D01*
X146230122Y-80325929D01*
X146230133Y-80325000D01*
X146223231Y-80276806D01*
X146212081Y-80198947D01*
X146212080Y-80198945D01*
X146211839Y-80197259D01*
X146158428Y-80079788D01*
X146086856Y-79996724D01*
X146075309Y-79983323D01*
X146075308Y-79983322D01*
X146074193Y-79982028D01*
X145965906Y-79911841D01*
X145842273Y-79874866D01*
X145780001Y-79874486D01*
X145714941Y-79874088D01*
X145714938Y-79874088D01*
X145713231Y-79874078D01*
X145711588Y-79874548D01*
X145711585Y-79874548D01*
X145615341Y-79902055D01*
X145589155Y-79909539D01*
X145587704Y-79910454D01*
X145587705Y-79910454D01*
X145511905Y-79958280D01*
X145493801Y-79961391D01*
X145478801Y-79950790D01*
X145475394Y-79934228D01*
X145489231Y-79846868D01*
X145489231Y-79846863D01*
X145489526Y-79845000D01*
X145488645Y-79839440D01*
X146849901Y-79839440D01*
X146866633Y-79967394D01*
X146918605Y-80085510D01*
X146959950Y-80134696D01*
X146999406Y-80181634D01*
X147001639Y-80184291D01*
X147038625Y-80208911D01*
X147103152Y-80251863D01*
X147109060Y-80255796D01*
X147146906Y-80267620D01*
X147230603Y-80293769D01*
X147230605Y-80293769D01*
X147232233Y-80294278D01*
X147293005Y-80295392D01*
X147359546Y-80296612D01*
X147359548Y-80296612D01*
X147361255Y-80296643D01*
X147467709Y-80267620D01*
X147484109Y-80263149D01*
X147484111Y-80263148D01*
X147485755Y-80262700D01*
X147595724Y-80195179D01*
X147599339Y-80191186D01*
X147650470Y-80134696D01*
X147682322Y-80099507D01*
X147738588Y-79983375D01*
X147738878Y-79981655D01*
X147749717Y-79917227D01*
X147759997Y-79856120D01*
X147760110Y-79846868D01*
X147760122Y-79845934D01*
X147760122Y-79845929D01*
X147760133Y-79845000D01*
X147746414Y-79749203D01*
X147742081Y-79718947D01*
X147742080Y-79718945D01*
X147741839Y-79717259D01*
X147688428Y-79599788D01*
X147606067Y-79504203D01*
X147605309Y-79503323D01*
X147605308Y-79503322D01*
X147604193Y-79502028D01*
X147495906Y-79431841D01*
X147372273Y-79394866D01*
X147310001Y-79394486D01*
X147244941Y-79394088D01*
X147244938Y-79394088D01*
X147243231Y-79394078D01*
X147241588Y-79394548D01*
X147241585Y-79394548D01*
X147120803Y-79429068D01*
X147119155Y-79429539D01*
X147010019Y-79498399D01*
X147008891Y-79499677D01*
X147008889Y-79499678D01*
X146928124Y-79591127D01*
X146924596Y-79595122D01*
X146923871Y-79596667D01*
X146923870Y-79596668D01*
X146916828Y-79611668D01*
X146869754Y-79711932D01*
X146856261Y-79798595D01*
X146851306Y-79830419D01*
X146849901Y-79839440D01*
X145488645Y-79839440D01*
X145470968Y-79727831D01*
X145465156Y-79716424D01*
X145417969Y-79623814D01*
X145417967Y-79623812D01*
X145417111Y-79622131D01*
X145333227Y-79538247D01*
X145331546Y-79537391D01*
X145331544Y-79537389D01*
X145229211Y-79485248D01*
X145227527Y-79484390D01*
X145110358Y-79465832D01*
X144993189Y-79484390D01*
X144991505Y-79485248D01*
X144889172Y-79537389D01*
X144889170Y-79537391D01*
X144887489Y-79538247D01*
X144803605Y-79622131D01*
X144802749Y-79623812D01*
X144802747Y-79623814D01*
X144755560Y-79716424D01*
X144749748Y-79727831D01*
X144731190Y-79845000D01*
X135123225Y-79845000D01*
X135110687Y-79749764D01*
X135100905Y-79726147D01*
X135053301Y-79611223D01*
X135052698Y-79609767D01*
X134960451Y-79489549D01*
X134840233Y-79397302D01*
X134700236Y-79339313D01*
X134638648Y-79331205D01*
X134588498Y-79324602D01*
X134588492Y-79324602D01*
X134587720Y-79324500D01*
X134212280Y-79324500D01*
X134211508Y-79324602D01*
X134211502Y-79324602D01*
X134161352Y-79331205D01*
X134099764Y-79339313D01*
X133959767Y-79397302D01*
X133839549Y-79489549D01*
X133747302Y-79609767D01*
X133746699Y-79611223D01*
X133699096Y-79726147D01*
X133689313Y-79749764D01*
X133669534Y-79900000D01*
X130130466Y-79900000D01*
X130110687Y-79749764D01*
X130100905Y-79726147D01*
X130053301Y-79611223D01*
X130052698Y-79609767D01*
X129960451Y-79489549D01*
X129840233Y-79397302D01*
X129700236Y-79339313D01*
X129638648Y-79331205D01*
X129588498Y-79324602D01*
X129588492Y-79324602D01*
X129587720Y-79324500D01*
X129212280Y-79324500D01*
X129211508Y-79324602D01*
X129211502Y-79324602D01*
X129161352Y-79331205D01*
X129099764Y-79339313D01*
X128959767Y-79397302D01*
X128839549Y-79489549D01*
X128747302Y-79609767D01*
X128746699Y-79611223D01*
X128699096Y-79726147D01*
X128689313Y-79749764D01*
X128672843Y-79874866D01*
X128671984Y-79881393D01*
X128662799Y-79897300D01*
X128645056Y-79902055D01*
X128637294Y-79899644D01*
X128617169Y-79889390D01*
X128500000Y-79870832D01*
X128382831Y-79889390D01*
X128381147Y-79890248D01*
X128278814Y-79942389D01*
X128278812Y-79942391D01*
X128277131Y-79943247D01*
X128193247Y-80027131D01*
X128192391Y-80028812D01*
X128192389Y-80028814D01*
X128148080Y-80115776D01*
X128139390Y-80132831D01*
X128120832Y-80250000D01*
X124955869Y-80250000D01*
X125020724Y-80210179D01*
X125025637Y-80204752D01*
X125072832Y-80152611D01*
X125107322Y-80114507D01*
X125163588Y-79998375D01*
X125164227Y-79994581D01*
X125176584Y-79921127D01*
X125184997Y-79871120D01*
X125185076Y-79864696D01*
X125185122Y-79860934D01*
X125185122Y-79860929D01*
X125185133Y-79860000D01*
X125184580Y-79856136D01*
X125167081Y-79733947D01*
X125167080Y-79733945D01*
X125166839Y-79732259D01*
X125113428Y-79614788D01*
X125029193Y-79517028D01*
X124948060Y-79464441D01*
X124922338Y-79447769D01*
X124922337Y-79447769D01*
X124920906Y-79446841D01*
X124797273Y-79409866D01*
X124735001Y-79409486D01*
X124669941Y-79409088D01*
X124669938Y-79409088D01*
X124668231Y-79409078D01*
X124666588Y-79409548D01*
X124666585Y-79409548D01*
X124545803Y-79444068D01*
X124544155Y-79444539D01*
X124435019Y-79513399D01*
X124433891Y-79514677D01*
X124433889Y-79514678D01*
X124357353Y-79601339D01*
X124349596Y-79610122D01*
X124294754Y-79726932D01*
X124291253Y-79749419D01*
X124277237Y-79839440D01*
X124274901Y-79854440D01*
X122157319Y-79854440D01*
X123636759Y-78375000D01*
X128295832Y-78375000D01*
X128296127Y-78376863D01*
X128296290Y-78377891D01*
X128314390Y-78492169D01*
X128315248Y-78493853D01*
X128366572Y-78594581D01*
X128368247Y-78597869D01*
X128452131Y-78681753D01*
X128453812Y-78682609D01*
X128453814Y-78682611D01*
X128536613Y-78724799D01*
X128557831Y-78735610D01*
X128675000Y-78754168D01*
X128792169Y-78735610D01*
X128813387Y-78724799D01*
X128896186Y-78682611D01*
X128896188Y-78682609D01*
X128897869Y-78681753D01*
X128917122Y-78662500D01*
X136333332Y-78662500D01*
X136351890Y-78779669D01*
X136352748Y-78781353D01*
X136403805Y-78881557D01*
X136405747Y-78885369D01*
X136489631Y-78969253D01*
X136491312Y-78970109D01*
X136491314Y-78970111D01*
X136579809Y-79015201D01*
X136595331Y-79023110D01*
X136712500Y-79041668D01*
X136829669Y-79023110D01*
X136845191Y-79015201D01*
X136933686Y-78970111D01*
X136933688Y-78970109D01*
X136935369Y-78969253D01*
X137019253Y-78885369D01*
X137021196Y-78881557D01*
X137072252Y-78781353D01*
X137073110Y-78779669D01*
X137085729Y-78700000D01*
X137170832Y-78700000D01*
X137189390Y-78817169D01*
X137190248Y-78818853D01*
X137241912Y-78920248D01*
X137243247Y-78922869D01*
X137327131Y-79006753D01*
X137328812Y-79007609D01*
X137328814Y-79007611D01*
X137388884Y-79038218D01*
X137432831Y-79060610D01*
X137550000Y-79079168D01*
X137551863Y-79078873D01*
X137551868Y-79078873D01*
X137584817Y-79073654D01*
X137602679Y-79077941D01*
X137612276Y-79093603D01*
X137607989Y-79111465D01*
X137605543Y-79114329D01*
X137554227Y-79165645D01*
X137553371Y-79167326D01*
X137553369Y-79167328D01*
X137540370Y-79192841D01*
X137500370Y-79271345D01*
X137494520Y-79308282D01*
X137482347Y-79385139D01*
X137481812Y-79388514D01*
X137482107Y-79390377D01*
X137483108Y-79396699D01*
X137500370Y-79505683D01*
X137501228Y-79507367D01*
X137553212Y-79609390D01*
X137554227Y-79611383D01*
X137638111Y-79695267D01*
X137639792Y-79696123D01*
X137639794Y-79696125D01*
X137741348Y-79747869D01*
X137743811Y-79749124D01*
X137860980Y-79767682D01*
X137978149Y-79749124D01*
X137980612Y-79747869D01*
X138082166Y-79696125D01*
X138082168Y-79696123D01*
X138083849Y-79695267D01*
X138167733Y-79611383D01*
X138168749Y-79609390D01*
X138220732Y-79507367D01*
X138221590Y-79505683D01*
X138238852Y-79396699D01*
X138239853Y-79390377D01*
X138240148Y-79388514D01*
X138239614Y-79385139D01*
X138227440Y-79308282D01*
X138221590Y-79271345D01*
X138181590Y-79192841D01*
X138168591Y-79167328D01*
X138168589Y-79167326D01*
X138167733Y-79165645D01*
X138083849Y-79081761D01*
X138082168Y-79080905D01*
X138082166Y-79080903D01*
X137979833Y-79028762D01*
X137978149Y-79027904D01*
X137860980Y-79009346D01*
X137859117Y-79009641D01*
X137859112Y-79009641D01*
X137826163Y-79014860D01*
X137808301Y-79010573D01*
X137798704Y-78994911D01*
X137802991Y-78977049D01*
X137805437Y-78974185D01*
X137856753Y-78922869D01*
X137858089Y-78920248D01*
X137909752Y-78818853D01*
X137910610Y-78817169D01*
X137929168Y-78700000D01*
X137913329Y-78600000D01*
X142845832Y-78600000D01*
X142864390Y-78717169D01*
X142865248Y-78718853D01*
X142916201Y-78818853D01*
X142918247Y-78822869D01*
X143002131Y-78906753D01*
X143003812Y-78907609D01*
X143003814Y-78907611D01*
X143106147Y-78959752D01*
X143107831Y-78960610D01*
X143225000Y-78979168D01*
X143342169Y-78960610D01*
X143343853Y-78959752D01*
X143446186Y-78907611D01*
X143446188Y-78907609D01*
X143447869Y-78906753D01*
X143531753Y-78822869D01*
X143533800Y-78818853D01*
X143584752Y-78718853D01*
X143585610Y-78717169D01*
X143604168Y-78600000D01*
X143603831Y-78597869D01*
X143597454Y-78557611D01*
X143592289Y-78525000D01*
X152170832Y-78525000D01*
X152189390Y-78642169D01*
X152190248Y-78643853D01*
X152239364Y-78740248D01*
X152243247Y-78747869D01*
X152327131Y-78831753D01*
X152328812Y-78832609D01*
X152328814Y-78832611D01*
X152429055Y-78883686D01*
X152432831Y-78885610D01*
X152523685Y-78900000D01*
X152547077Y-78903705D01*
X152550000Y-78904168D01*
X152552924Y-78903705D01*
X152576315Y-78900000D01*
X152667169Y-78885610D01*
X152670945Y-78883686D01*
X152771186Y-78832611D01*
X152771188Y-78832609D01*
X152772869Y-78831753D01*
X152856753Y-78747869D01*
X152860637Y-78740248D01*
X152909752Y-78643853D01*
X152910610Y-78642169D01*
X152929168Y-78525000D01*
X152910610Y-78407831D01*
X152907638Y-78401998D01*
X152857611Y-78303814D01*
X152857609Y-78303812D01*
X152856753Y-78302131D01*
X152772869Y-78218247D01*
X152771188Y-78217391D01*
X152771186Y-78217389D01*
X152668853Y-78165248D01*
X152667169Y-78164390D01*
X152550000Y-78145832D01*
X152432831Y-78164390D01*
X152431147Y-78165248D01*
X152328814Y-78217389D01*
X152328812Y-78217391D01*
X152327131Y-78218247D01*
X152243247Y-78302131D01*
X152242391Y-78303812D01*
X152242389Y-78303814D01*
X152192362Y-78401998D01*
X152189390Y-78407831D01*
X152170832Y-78525000D01*
X143592289Y-78525000D01*
X143585610Y-78482831D01*
X143569757Y-78451718D01*
X143532611Y-78378814D01*
X143532609Y-78378812D01*
X143531753Y-78377131D01*
X143447869Y-78293247D01*
X143446188Y-78292391D01*
X143446186Y-78292389D01*
X143343853Y-78240248D01*
X143342169Y-78239390D01*
X143232065Y-78221951D01*
X143226863Y-78221127D01*
X143225000Y-78220832D01*
X143223137Y-78221127D01*
X143217935Y-78221951D01*
X143107831Y-78239390D01*
X143106147Y-78240248D01*
X143003814Y-78292389D01*
X143003812Y-78292391D01*
X143002131Y-78293247D01*
X142918247Y-78377131D01*
X142917391Y-78378812D01*
X142917389Y-78378814D01*
X142880243Y-78451718D01*
X142864390Y-78482831D01*
X142852546Y-78557611D01*
X142846170Y-78597869D01*
X142845832Y-78600000D01*
X137913329Y-78600000D01*
X137910610Y-78582831D01*
X137897760Y-78557611D01*
X137857611Y-78478814D01*
X137857609Y-78478812D01*
X137856753Y-78477131D01*
X137772869Y-78393247D01*
X137771188Y-78392391D01*
X137771186Y-78392389D01*
X137668853Y-78340248D01*
X137667169Y-78339390D01*
X137550000Y-78320832D01*
X137432831Y-78339390D01*
X137431147Y-78340248D01*
X137328814Y-78392389D01*
X137328812Y-78392391D01*
X137327131Y-78393247D01*
X137243247Y-78477131D01*
X137242391Y-78478812D01*
X137242389Y-78478814D01*
X137202240Y-78557611D01*
X137189390Y-78582831D01*
X137170832Y-78700000D01*
X137085729Y-78700000D01*
X137091668Y-78662500D01*
X137073110Y-78545331D01*
X137061802Y-78523137D01*
X137020111Y-78441314D01*
X137020109Y-78441312D01*
X137019253Y-78439631D01*
X136935369Y-78355747D01*
X136933688Y-78354891D01*
X136933686Y-78354889D01*
X136831353Y-78302748D01*
X136829669Y-78301890D01*
X136726561Y-78285559D01*
X136714363Y-78283627D01*
X136712500Y-78283332D01*
X136710637Y-78283627D01*
X136698439Y-78285559D01*
X136595331Y-78301890D01*
X136593647Y-78302748D01*
X136491314Y-78354889D01*
X136491312Y-78354891D01*
X136489631Y-78355747D01*
X136405747Y-78439631D01*
X136404891Y-78441312D01*
X136404889Y-78441314D01*
X136363198Y-78523137D01*
X136351890Y-78545331D01*
X136333332Y-78662500D01*
X128917122Y-78662500D01*
X128981753Y-78597869D01*
X128983429Y-78594581D01*
X129034752Y-78493853D01*
X129035610Y-78492169D01*
X129053710Y-78377891D01*
X129053873Y-78376863D01*
X129054168Y-78375000D01*
X129035610Y-78257831D01*
X129034574Y-78255797D01*
X128982611Y-78153814D01*
X128982609Y-78153812D01*
X128981753Y-78152131D01*
X128897869Y-78068247D01*
X128896188Y-78067391D01*
X128896186Y-78067389D01*
X128793853Y-78015248D01*
X128792169Y-78014390D01*
X128675000Y-77995832D01*
X128557831Y-78014390D01*
X128556147Y-78015248D01*
X128453814Y-78067389D01*
X128453812Y-78067391D01*
X128452131Y-78068247D01*
X128368247Y-78152131D01*
X128367391Y-78153812D01*
X128367389Y-78153814D01*
X128315426Y-78255797D01*
X128314390Y-78257831D01*
X128295832Y-78375000D01*
X123636759Y-78375000D01*
X124111759Y-77900000D01*
X137002307Y-77900000D01*
X137002602Y-77901863D01*
X137003794Y-77909390D01*
X137020865Y-78017169D01*
X137021723Y-78018853D01*
X137073387Y-78120248D01*
X137074722Y-78122869D01*
X137158606Y-78206753D01*
X137160287Y-78207609D01*
X137160289Y-78207611D01*
X137254860Y-78255797D01*
X137264306Y-78260610D01*
X137350128Y-78274203D01*
X137373880Y-78277965D01*
X137381475Y-78279168D01*
X137389071Y-78277965D01*
X137412822Y-78274203D01*
X137498644Y-78260610D01*
X137508090Y-78255797D01*
X137602661Y-78207611D01*
X137602663Y-78207609D01*
X137604344Y-78206753D01*
X137688228Y-78122869D01*
X137689564Y-78120248D01*
X137741227Y-78018853D01*
X137742085Y-78017169D01*
X137759156Y-77909390D01*
X137760348Y-77901863D01*
X137760643Y-77900000D01*
X137754036Y-77858282D01*
X137744648Y-77799012D01*
X137748937Y-77781151D01*
X137751382Y-77778287D01*
X137952539Y-77577131D01*
X138143636Y-77386034D01*
X143399819Y-77386034D01*
X143400992Y-77400000D01*
X143416154Y-77580570D01*
X143469964Y-77768227D01*
X143559199Y-77941859D01*
X143559927Y-77942778D01*
X143559928Y-77942779D01*
X143625836Y-78025934D01*
X143680460Y-78094852D01*
X143829127Y-78221378D01*
X143894352Y-78257831D01*
X143998511Y-78316044D01*
X143998515Y-78316046D01*
X143999539Y-78316618D01*
X144000657Y-78316981D01*
X144000661Y-78316983D01*
X144184084Y-78376581D01*
X144184086Y-78376581D01*
X144185205Y-78376945D01*
X144379052Y-78400060D01*
X144380223Y-78399970D01*
X144380227Y-78399970D01*
X144478746Y-78392389D01*
X144573697Y-78385083D01*
X144761725Y-78332584D01*
X144793332Y-78316618D01*
X144934926Y-78245094D01*
X144934931Y-78245091D01*
X144935976Y-78244563D01*
X145089812Y-78124374D01*
X145217373Y-77976593D01*
X145313800Y-77806850D01*
X145316079Y-77800000D01*
X155245832Y-77800000D01*
X155264390Y-77917169D01*
X155265248Y-77918853D01*
X155316500Y-78019440D01*
X155318247Y-78022869D01*
X155402131Y-78106753D01*
X155403812Y-78107609D01*
X155403814Y-78107611D01*
X155488572Y-78150797D01*
X155507831Y-78160610D01*
X155625000Y-78179168D01*
X155742169Y-78160610D01*
X155761428Y-78150797D01*
X155846186Y-78107611D01*
X155846188Y-78107609D01*
X155847869Y-78106753D01*
X155931753Y-78022869D01*
X155933501Y-78019440D01*
X155984752Y-77918853D01*
X155985610Y-77917169D01*
X156004168Y-77800000D01*
X155985610Y-77682831D01*
X155984752Y-77681147D01*
X155932611Y-77578814D01*
X155932609Y-77578812D01*
X155931753Y-77577131D01*
X155847869Y-77493247D01*
X155846188Y-77492391D01*
X155846186Y-77492389D01*
X155743853Y-77440248D01*
X155742169Y-77439390D01*
X155644965Y-77423994D01*
X155626863Y-77421127D01*
X155625000Y-77420832D01*
X155623137Y-77421127D01*
X155605035Y-77423994D01*
X155507831Y-77439390D01*
X155506147Y-77440248D01*
X155403814Y-77492389D01*
X155403812Y-77492391D01*
X155402131Y-77493247D01*
X155318247Y-77577131D01*
X155317391Y-77578812D01*
X155317389Y-77578814D01*
X155265248Y-77681147D01*
X155264390Y-77682831D01*
X155245832Y-77800000D01*
X145316079Y-77800000D01*
X145316699Y-77798137D01*
X145363445Y-77657611D01*
X145375421Y-77621610D01*
X145390707Y-77500610D01*
X145399807Y-77428581D01*
X145399807Y-77428575D01*
X145399889Y-77427929D01*
X145400064Y-77415419D01*
X145400270Y-77400674D01*
X145400270Y-77400667D01*
X145400279Y-77400000D01*
X145400109Y-77398261D01*
X145381344Y-77206885D01*
X145381229Y-77205711D01*
X145361390Y-77140000D01*
X157620832Y-77140000D01*
X157639390Y-77257169D01*
X157640248Y-77258853D01*
X157686690Y-77350000D01*
X157693247Y-77362869D01*
X157777131Y-77446753D01*
X157778812Y-77447609D01*
X157778814Y-77447611D01*
X157847345Y-77482529D01*
X157882831Y-77500610D01*
X158000000Y-77519168D01*
X158117169Y-77500610D01*
X158152655Y-77482529D01*
X158221186Y-77447611D01*
X158221188Y-77447609D01*
X158222869Y-77446753D01*
X158306753Y-77362869D01*
X158313311Y-77350000D01*
X158359752Y-77258853D01*
X158360610Y-77257169D01*
X158379168Y-77140000D01*
X158360610Y-77022831D01*
X158358039Y-77017785D01*
X158307611Y-76918814D01*
X158307609Y-76918812D01*
X158306753Y-76917131D01*
X158222869Y-76833247D01*
X158221188Y-76832391D01*
X158221186Y-76832389D01*
X158118853Y-76780248D01*
X158117169Y-76779390D01*
X158000000Y-76760832D01*
X157882831Y-76779390D01*
X157881147Y-76780248D01*
X157778814Y-76832389D01*
X157778812Y-76832391D01*
X157777131Y-76833247D01*
X157693247Y-76917131D01*
X157692391Y-76918812D01*
X157692389Y-76918814D01*
X157641961Y-77017785D01*
X157639390Y-77022831D01*
X157620832Y-77140000D01*
X145361390Y-77140000D01*
X145324804Y-77018823D01*
X145233154Y-76846454D01*
X145232418Y-76845552D01*
X145232415Y-76845547D01*
X145110510Y-76696077D01*
X145110507Y-76696074D01*
X145109769Y-76695169D01*
X144979173Y-76587131D01*
X144960257Y-76571482D01*
X144960256Y-76571481D01*
X144959349Y-76570731D01*
X144787624Y-76477880D01*
X144669852Y-76441423D01*
X144602256Y-76420498D01*
X144602253Y-76420497D01*
X144601134Y-76420151D01*
X144599970Y-76420029D01*
X144599967Y-76420028D01*
X144429684Y-76402131D01*
X144406983Y-76399745D01*
X144405818Y-76399851D01*
X144213741Y-76417332D01*
X144213740Y-76417332D01*
X144212566Y-76417439D01*
X144025289Y-76472557D01*
X143951512Y-76511127D01*
X143853322Y-76562459D01*
X143853319Y-76562461D01*
X143852284Y-76563002D01*
X143700141Y-76685328D01*
X143574656Y-76834875D01*
X143574090Y-76835905D01*
X143574087Y-76835909D01*
X143481175Y-77004916D01*
X143480608Y-77005948D01*
X143480254Y-77007063D01*
X143480253Y-77007066D01*
X143465236Y-77054405D01*
X143421579Y-77192030D01*
X143421448Y-77193199D01*
X143421447Y-77193203D01*
X143413966Y-77259907D01*
X143399819Y-77386034D01*
X138143636Y-77386034D01*
X138160635Y-77369035D01*
X138164116Y-77366156D01*
X138181922Y-77354055D01*
X138184325Y-77352422D01*
X138196006Y-77330638D01*
X138202226Y-77319037D01*
X138202848Y-77317946D01*
X138220976Y-77288012D01*
X138222481Y-77285527D01*
X138222663Y-77282629D01*
X138223274Y-77280680D01*
X138223362Y-77280469D01*
X138223361Y-77280469D01*
X138224032Y-77278368D01*
X138225073Y-77276426D01*
X138225500Y-77273046D01*
X138225500Y-77238298D01*
X138225547Y-77236791D01*
X138227713Y-77202367D01*
X138227713Y-77202365D01*
X138227895Y-77199467D01*
X138226713Y-77196813D01*
X138226199Y-77193956D01*
X138226543Y-77193894D01*
X138225500Y-77188986D01*
X138225500Y-76045596D01*
X138232529Y-76028625D01*
X138238604Y-76024212D01*
X138271186Y-76007611D01*
X138271188Y-76007609D01*
X138272869Y-76006753D01*
X138304622Y-75975000D01*
X139245832Y-75975000D01*
X139264390Y-76092169D01*
X139265248Y-76093853D01*
X139317367Y-76196141D01*
X139318247Y-76197869D01*
X139402131Y-76281753D01*
X139403812Y-76282609D01*
X139403814Y-76282611D01*
X139455800Y-76309099D01*
X139507831Y-76335610D01*
X139605035Y-76351006D01*
X139609936Y-76351782D01*
X139625000Y-76354168D01*
X139640065Y-76351782D01*
X139644965Y-76351006D01*
X139742169Y-76335610D01*
X139794200Y-76309099D01*
X139846186Y-76282611D01*
X139846188Y-76282609D01*
X139847869Y-76281753D01*
X139931753Y-76197869D01*
X139932634Y-76196141D01*
X139984752Y-76093853D01*
X139985610Y-76092169D01*
X140000212Y-75999978D01*
X146950439Y-75999978D01*
X146967171Y-76127932D01*
X147019143Y-76246048D01*
X147052646Y-76285905D01*
X147094676Y-76335905D01*
X147102177Y-76344829D01*
X147156241Y-76380817D01*
X147185329Y-76400179D01*
X147209598Y-76416334D01*
X147256003Y-76430832D01*
X147331141Y-76454307D01*
X147331143Y-76454307D01*
X147332771Y-76454816D01*
X147393543Y-76455930D01*
X147460084Y-76457150D01*
X147460086Y-76457150D01*
X147461793Y-76457181D01*
X147560625Y-76430236D01*
X147584647Y-76423687D01*
X147584649Y-76423686D01*
X147586293Y-76423238D01*
X147696262Y-76355717D01*
X147698301Y-76353465D01*
X147733128Y-76314988D01*
X147782860Y-76260045D01*
X147839126Y-76143913D01*
X147840991Y-76132831D01*
X147849879Y-76080000D01*
X147860535Y-76016658D01*
X147860646Y-76007611D01*
X147860660Y-76006472D01*
X147860660Y-76006467D01*
X147860671Y-76005538D01*
X147848832Y-75922869D01*
X147842619Y-75879485D01*
X147842618Y-75879483D01*
X147842377Y-75877797D01*
X147788966Y-75760326D01*
X147736986Y-75700000D01*
X155145832Y-75700000D01*
X155146127Y-75701863D01*
X155146226Y-75702488D01*
X155164390Y-75817169D01*
X155165248Y-75818853D01*
X155216921Y-75920266D01*
X155218247Y-75922869D01*
X155302131Y-76006753D01*
X155303812Y-76007609D01*
X155303814Y-76007611D01*
X155378364Y-76045596D01*
X155407831Y-76060610D01*
X155505035Y-76076006D01*
X155518491Y-76078137D01*
X155525000Y-76079168D01*
X155531510Y-76078137D01*
X155544965Y-76076006D01*
X155642169Y-76060610D01*
X155671636Y-76045596D01*
X155746186Y-76007611D01*
X155746188Y-76007609D01*
X155747869Y-76006753D01*
X155831753Y-75922869D01*
X155833080Y-75920266D01*
X155884752Y-75818853D01*
X155885610Y-75817169D01*
X155903774Y-75702488D01*
X155903873Y-75701863D01*
X155904168Y-75700000D01*
X155885610Y-75582831D01*
X155876064Y-75564095D01*
X155832611Y-75478814D01*
X155832609Y-75478812D01*
X155831753Y-75477131D01*
X155747869Y-75393247D01*
X155746188Y-75392391D01*
X155746186Y-75392389D01*
X155643853Y-75340248D01*
X155642169Y-75339390D01*
X155525000Y-75320832D01*
X155407831Y-75339390D01*
X155406147Y-75340248D01*
X155303814Y-75392389D01*
X155303812Y-75392391D01*
X155302131Y-75393247D01*
X155218247Y-75477131D01*
X155217391Y-75478812D01*
X155217389Y-75478814D01*
X155173936Y-75564095D01*
X155164390Y-75582831D01*
X155145832Y-75700000D01*
X147736986Y-75700000D01*
X147714642Y-75674068D01*
X147705847Y-75663861D01*
X147705846Y-75663860D01*
X147704731Y-75662566D01*
X147606795Y-75599088D01*
X147597876Y-75593307D01*
X147597875Y-75593307D01*
X147596444Y-75592379D01*
X147472811Y-75555404D01*
X147410539Y-75555024D01*
X147345479Y-75554626D01*
X147345476Y-75554626D01*
X147343769Y-75554616D01*
X147342126Y-75555086D01*
X147342123Y-75555086D01*
X147245046Y-75582831D01*
X147219693Y-75590077D01*
X147110557Y-75658937D01*
X147109429Y-75660215D01*
X147109427Y-75660216D01*
X147026764Y-75753814D01*
X147025134Y-75755660D01*
X147024409Y-75757205D01*
X147024408Y-75757206D01*
X147022215Y-75761877D01*
X146970292Y-75872470D01*
X146950439Y-75999978D01*
X140000212Y-75999978D01*
X140004168Y-75975000D01*
X139985610Y-75857831D01*
X139978964Y-75844788D01*
X139932611Y-75753814D01*
X139932609Y-75753812D01*
X139931753Y-75752131D01*
X139847869Y-75668247D01*
X139846188Y-75667391D01*
X139846186Y-75667389D01*
X139743853Y-75615248D01*
X139742169Y-75614390D01*
X139625000Y-75595832D01*
X139507831Y-75614390D01*
X139506147Y-75615248D01*
X139403814Y-75667389D01*
X139403812Y-75667391D01*
X139402131Y-75668247D01*
X139318247Y-75752131D01*
X139317391Y-75753812D01*
X139317389Y-75753814D01*
X139271036Y-75844788D01*
X139264390Y-75857831D01*
X139245832Y-75975000D01*
X138304622Y-75975000D01*
X138356753Y-75922869D01*
X138358080Y-75920266D01*
X138409752Y-75818853D01*
X138410610Y-75817169D01*
X138428774Y-75702488D01*
X138428873Y-75701863D01*
X138429168Y-75700000D01*
X138410610Y-75582831D01*
X138401064Y-75564095D01*
X138357611Y-75478814D01*
X138357609Y-75478812D01*
X138356753Y-75477131D01*
X138272869Y-75393247D01*
X138271188Y-75392391D01*
X138271186Y-75392389D01*
X138168853Y-75340248D01*
X138167169Y-75339390D01*
X138050000Y-75320832D01*
X137932831Y-75339390D01*
X137931147Y-75340248D01*
X137828814Y-75392389D01*
X137828812Y-75392391D01*
X137827131Y-75393247D01*
X137743247Y-75477131D01*
X137742391Y-75478812D01*
X137742389Y-75478814D01*
X137698936Y-75564095D01*
X137689390Y-75582831D01*
X137670832Y-75700000D01*
X137671127Y-75701863D01*
X137671226Y-75702488D01*
X137689390Y-75817169D01*
X137690248Y-75818853D01*
X137741921Y-75920266D01*
X137743247Y-75922869D01*
X137827131Y-76006753D01*
X137828812Y-76007609D01*
X137828814Y-76007611D01*
X137861396Y-76024212D01*
X137873325Y-76038180D01*
X137874500Y-76045596D01*
X137874500Y-77148839D01*
X137867471Y-77165810D01*
X137503187Y-77530093D01*
X137486216Y-77537122D01*
X137482462Y-77536827D01*
X137383338Y-77521127D01*
X137381475Y-77520832D01*
X137264306Y-77539390D01*
X137262622Y-77540248D01*
X137160289Y-77592389D01*
X137160287Y-77592391D01*
X137158606Y-77593247D01*
X137074722Y-77677131D01*
X137073866Y-77678812D01*
X137073864Y-77678814D01*
X137040354Y-77744581D01*
X137020865Y-77782831D01*
X137002307Y-77900000D01*
X124111759Y-77900000D01*
X124675962Y-77335797D01*
X124692933Y-77328768D01*
X124696687Y-77329063D01*
X124739204Y-77335797D01*
X124797675Y-77345058D01*
X124914844Y-77326500D01*
X124946876Y-77310179D01*
X125018861Y-77273501D01*
X125018863Y-77273499D01*
X125020544Y-77272643D01*
X125104428Y-77188759D01*
X125105451Y-77186753D01*
X125157427Y-77084743D01*
X125158285Y-77083059D01*
X125173803Y-76985083D01*
X125176548Y-76967753D01*
X125176843Y-76965890D01*
X125175030Y-76954440D01*
X125171568Y-76932584D01*
X125158285Y-76848721D01*
X125150401Y-76833247D01*
X125105286Y-76744704D01*
X125105284Y-76744702D01*
X125104428Y-76743021D01*
X125020544Y-76659137D01*
X125018863Y-76658281D01*
X125018861Y-76658279D01*
X124916528Y-76606138D01*
X124914844Y-76605280D01*
X124810883Y-76588814D01*
X124799538Y-76587017D01*
X124797675Y-76586722D01*
X124795812Y-76587017D01*
X124784467Y-76588814D01*
X124680506Y-76605280D01*
X124678822Y-76606138D01*
X124576489Y-76658279D01*
X124576487Y-76658281D01*
X124574806Y-76659137D01*
X124490922Y-76743021D01*
X124490066Y-76744702D01*
X124490064Y-76744704D01*
X124444949Y-76833247D01*
X124437065Y-76848721D01*
X124436770Y-76850586D01*
X124436768Y-76850591D01*
X124433551Y-76870899D01*
X124423953Y-76886561D01*
X124406092Y-76890848D01*
X124390430Y-76881250D01*
X124386143Y-76870900D01*
X124370610Y-76772831D01*
X124364657Y-76761147D01*
X124317611Y-76668814D01*
X124317609Y-76668812D01*
X124316753Y-76667131D01*
X124232869Y-76583247D01*
X124231188Y-76582391D01*
X124231186Y-76582389D01*
X124128853Y-76530248D01*
X124127169Y-76529390D01*
X124010000Y-76510832D01*
X123892831Y-76529390D01*
X123891147Y-76530248D01*
X123788814Y-76582389D01*
X123788812Y-76582391D01*
X123787131Y-76583247D01*
X123703247Y-76667131D01*
X123702391Y-76668812D01*
X123702389Y-76668814D01*
X123655343Y-76761147D01*
X123649390Y-76772831D01*
X123639957Y-76832389D01*
X123633858Y-76870898D01*
X123630832Y-76890000D01*
X123631127Y-76891863D01*
X123646827Y-76990987D01*
X123642538Y-77008848D01*
X123640093Y-77011712D01*
X123534334Y-77117471D01*
X123517363Y-77124500D01*
X121503064Y-77124500D01*
X121486093Y-77117471D01*
X121479064Y-77100500D01*
X121486093Y-77083529D01*
X121536753Y-77032869D01*
X121540918Y-77024696D01*
X121589752Y-76928853D01*
X121590610Y-76927169D01*
X121609168Y-76810000D01*
X121590610Y-76692831D01*
X121577515Y-76667131D01*
X121537611Y-76588814D01*
X121537609Y-76588812D01*
X121536753Y-76587131D01*
X121452869Y-76503247D01*
X121451188Y-76502391D01*
X121451186Y-76502389D01*
X121348853Y-76450248D01*
X121347169Y-76449390D01*
X121230000Y-76430832D01*
X121112831Y-76449390D01*
X121111147Y-76450248D01*
X121008814Y-76502389D01*
X121008812Y-76502391D01*
X121007131Y-76503247D01*
X120923247Y-76587131D01*
X120922391Y-76588812D01*
X120922389Y-76588814D01*
X120882485Y-76667131D01*
X120869390Y-76692831D01*
X120850832Y-76810000D01*
X120869390Y-76927169D01*
X120870248Y-76928853D01*
X120919083Y-77024696D01*
X120923247Y-77032869D01*
X120987469Y-77097091D01*
X120994498Y-77114062D01*
X120987469Y-77131033D01*
X120976224Y-77137369D01*
X120969078Y-77139124D01*
X120969077Y-77139125D01*
X120966258Y-77139817D01*
X120964080Y-77141737D01*
X120962271Y-77142683D01*
X120962061Y-77142769D01*
X120962062Y-77142771D01*
X120960103Y-77143782D01*
X120957990Y-77144420D01*
X120956247Y-77145772D01*
X120956245Y-77145773D01*
X120955985Y-77145975D01*
X120955298Y-77146508D01*
X120930721Y-77171085D01*
X120929621Y-77172117D01*
X120901576Y-77196842D01*
X120900535Y-77199553D01*
X120898878Y-77201937D01*
X120898591Y-77201738D01*
X120895860Y-77205945D01*
X120413848Y-77687957D01*
X120396877Y-77694986D01*
X120379906Y-77687957D01*
X120373172Y-77674741D01*
X120362770Y-77609068D01*
X120360121Y-77592342D01*
X120357278Y-77586762D01*
X120307122Y-77488325D01*
X120307120Y-77488323D01*
X120306264Y-77486642D01*
X120222380Y-77402758D01*
X120220699Y-77401902D01*
X120220697Y-77401900D01*
X120118364Y-77349759D01*
X120116680Y-77348901D01*
X120015459Y-77332869D01*
X120001374Y-77330638D01*
X119999511Y-77330343D01*
X119997648Y-77330638D01*
X119983563Y-77332869D01*
X119882342Y-77348901D01*
X119880658Y-77349759D01*
X119778325Y-77401900D01*
X119778323Y-77401902D01*
X119776642Y-77402758D01*
X119692758Y-77486642D01*
X119691902Y-77488323D01*
X119691900Y-77488325D01*
X119641744Y-77586762D01*
X119638901Y-77592342D01*
X119620343Y-77709511D01*
X119638901Y-77826680D01*
X119639759Y-77828364D01*
X119685866Y-77918853D01*
X119692758Y-77932380D01*
X119776642Y-78016264D01*
X119778323Y-78017120D01*
X119778325Y-78017122D01*
X119801865Y-78029116D01*
X119813794Y-78043084D01*
X119812353Y-78061396D01*
X119798385Y-78073325D01*
X119790969Y-78074500D01*
X118765596Y-78074500D01*
X118748625Y-78067471D01*
X118744212Y-78061396D01*
X118727611Y-78028814D01*
X118727609Y-78028812D01*
X118726753Y-78027131D01*
X118642869Y-77943247D01*
X118641188Y-77942391D01*
X118641186Y-77942389D01*
X118538853Y-77890248D01*
X118537169Y-77889390D01*
X118420000Y-77870832D01*
X118302831Y-77889390D01*
X118301147Y-77890248D01*
X118198814Y-77942389D01*
X118198812Y-77942391D01*
X118197131Y-77943247D01*
X118113247Y-78027131D01*
X118112391Y-78028812D01*
X118112389Y-78028814D01*
X118065801Y-78120248D01*
X118059390Y-78132831D01*
X118040832Y-78250000D01*
X111254118Y-78250000D01*
X111296088Y-78163375D01*
X111296554Y-78160610D01*
X111311040Y-78074500D01*
X111317497Y-78036120D01*
X111317583Y-78029116D01*
X111317622Y-78025934D01*
X111317622Y-78025929D01*
X111317633Y-78025000D01*
X111304764Y-77935139D01*
X111299581Y-77898947D01*
X111299580Y-77898945D01*
X111299339Y-77897259D01*
X111245928Y-77779788D01*
X111168776Y-77690248D01*
X111162809Y-77683323D01*
X111162808Y-77683322D01*
X111161693Y-77682028D01*
X111053406Y-77611841D01*
X110929773Y-77574866D01*
X110867501Y-77574486D01*
X110802441Y-77574088D01*
X110802438Y-77574088D01*
X110800731Y-77574078D01*
X110799088Y-77574548D01*
X110799085Y-77574548D01*
X110678303Y-77609068D01*
X110676655Y-77609539D01*
X110567519Y-77678399D01*
X110566391Y-77679677D01*
X110566389Y-77679678D01*
X110483227Y-77773841D01*
X110482096Y-77775122D01*
X110427254Y-77891932D01*
X110421218Y-77930697D01*
X110407755Y-78017169D01*
X110407401Y-78019440D01*
X110424133Y-78147394D01*
X110476105Y-78265510D01*
X110559139Y-78364291D01*
X110615786Y-78401998D01*
X110626018Y-78417254D01*
X110622466Y-78435276D01*
X110606242Y-78445681D01*
X110584701Y-78449093D01*
X110584696Y-78449095D01*
X110582831Y-78449390D01*
X110581147Y-78450248D01*
X110478814Y-78502389D01*
X110478812Y-78502391D01*
X110477131Y-78503247D01*
X110393247Y-78587131D01*
X110392391Y-78588812D01*
X110392389Y-78588814D01*
X110344597Y-78682611D01*
X110339390Y-78692831D01*
X110320832Y-78810000D01*
X110321127Y-78811863D01*
X110336827Y-78910988D01*
X110332538Y-78928849D01*
X110330093Y-78931713D01*
X109292293Y-79969512D01*
X109275322Y-79976541D01*
X109258351Y-79969512D01*
X109253359Y-79961365D01*
X109253278Y-79961406D01*
X109252754Y-79960377D01*
X109252752Y-79960374D01*
X109244705Y-79944581D01*
X109200279Y-79857389D01*
X109200277Y-79857387D01*
X109199421Y-79855706D01*
X109115537Y-79771822D01*
X109113856Y-79770966D01*
X109113854Y-79770964D01*
X109011521Y-79718823D01*
X109009837Y-79717965D01*
X108892668Y-79699407D01*
X108775499Y-79717965D01*
X108773815Y-79718823D01*
X108671482Y-79770964D01*
X108671480Y-79770966D01*
X108669799Y-79771822D01*
X108585915Y-79855706D01*
X108585059Y-79857387D01*
X108585057Y-79857389D01*
X108540631Y-79944581D01*
X108532058Y-79961406D01*
X108513500Y-80078575D01*
X108513795Y-80080438D01*
X108514350Y-80083943D01*
X108532058Y-80195744D01*
X108532916Y-80197428D01*
X108583469Y-80296643D01*
X108585915Y-80301444D01*
X108669799Y-80385328D01*
X108671480Y-80386184D01*
X108671482Y-80386186D01*
X108755076Y-80428779D01*
X108775499Y-80439185D01*
X108892668Y-80457743D01*
X109009837Y-80439185D01*
X109030260Y-80428779D01*
X109113854Y-80386186D01*
X109113856Y-80386184D01*
X109115537Y-80385328D01*
X109174018Y-80326847D01*
X109190989Y-80319818D01*
X109207960Y-80326847D01*
X109214989Y-80343818D01*
X109214989Y-81971444D01*
X109214564Y-81975941D01*
X109209984Y-81999949D01*
X109210823Y-82002728D01*
X109220939Y-82036234D01*
X109221270Y-82037446D01*
X109229548Y-82071147D01*
X109230306Y-82074231D01*
X109232226Y-82076409D01*
X109233172Y-82078218D01*
X109233258Y-82078428D01*
X109233260Y-82078427D01*
X109234271Y-82080386D01*
X109234909Y-82082499D01*
X109236997Y-82085191D01*
X109261566Y-82109760D01*
X109262598Y-82110859D01*
X109287331Y-82138913D01*
X109290041Y-82139953D01*
X109292426Y-82141611D01*
X109292227Y-82141898D01*
X109296436Y-82144630D01*
X110104121Y-82952315D01*
X110111150Y-82969286D01*
X110104121Y-82986257D01*
X110033247Y-83057131D01*
X110032391Y-83058812D01*
X110032389Y-83058814D01*
X109983202Y-83155350D01*
X109979390Y-83162831D01*
X109966996Y-83241083D01*
X109962598Y-83268853D01*
X109960832Y-83280000D01*
X109979390Y-83397169D01*
X109980248Y-83398853D01*
X110021393Y-83479604D01*
X110022834Y-83497916D01*
X110010905Y-83511884D01*
X110000009Y-83514500D01*
X100968117Y-83514500D01*
X100951146Y-83507471D01*
X100684758Y-83241083D01*
X100677729Y-83224112D01*
X100678025Y-83220357D01*
X100688873Y-83151869D01*
X100688873Y-83151862D01*
X100689168Y-83150000D01*
X100674913Y-83060000D01*
X102440832Y-83060000D01*
X102441127Y-83061863D01*
X102441781Y-83065991D01*
X102459390Y-83177169D01*
X102460248Y-83178853D01*
X102512287Y-83280984D01*
X102513247Y-83282869D01*
X102597131Y-83366753D01*
X102598812Y-83367609D01*
X102598814Y-83367611D01*
X102701147Y-83419752D01*
X102702831Y-83420610D01*
X102820000Y-83439168D01*
X102937169Y-83420610D01*
X102938853Y-83419752D01*
X103041186Y-83367611D01*
X103041188Y-83367609D01*
X103042869Y-83366753D01*
X103126753Y-83282869D01*
X103127714Y-83280984D01*
X103179752Y-83178853D01*
X103180610Y-83177169D01*
X103198219Y-83065991D01*
X103198873Y-83061863D01*
X103199168Y-83060000D01*
X103180610Y-82942831D01*
X103173468Y-82928814D01*
X103127611Y-82838814D01*
X103127609Y-82838812D01*
X103126753Y-82837131D01*
X103042869Y-82753247D01*
X103041188Y-82752391D01*
X103041186Y-82752389D01*
X102938853Y-82700248D01*
X102937169Y-82699390D01*
X102832621Y-82682831D01*
X102821863Y-82681127D01*
X102820000Y-82680832D01*
X102818137Y-82681127D01*
X102807379Y-82682831D01*
X102702831Y-82699390D01*
X102701147Y-82700248D01*
X102598814Y-82752389D01*
X102598812Y-82752391D01*
X102597131Y-82753247D01*
X102513247Y-82837131D01*
X102512391Y-82838812D01*
X102512389Y-82838814D01*
X102466532Y-82928814D01*
X102459390Y-82942831D01*
X102440832Y-83060000D01*
X100674913Y-83060000D01*
X100670610Y-83032831D01*
X100663468Y-83018814D01*
X100617611Y-82928814D01*
X100617609Y-82928812D01*
X100616753Y-82927131D01*
X100532869Y-82843247D01*
X100531188Y-82842391D01*
X100531186Y-82842389D01*
X100428853Y-82790248D01*
X100427169Y-82789390D01*
X100319262Y-82772299D01*
X100311863Y-82771127D01*
X100310000Y-82770832D01*
X100308137Y-82771127D01*
X100300738Y-82772299D01*
X100192831Y-82789390D01*
X100191147Y-82790248D01*
X100088814Y-82842389D01*
X100088812Y-82842391D01*
X100087131Y-82843247D01*
X100003247Y-82927131D01*
X100002391Y-82928812D01*
X100002389Y-82928814D01*
X99956532Y-83018814D01*
X99949390Y-83032831D01*
X99930832Y-83150000D01*
X99931127Y-83151863D01*
X99932699Y-83161785D01*
X99949390Y-83267169D01*
X99950248Y-83268853D01*
X100000568Y-83367611D01*
X100003247Y-83372869D01*
X100087131Y-83456753D01*
X100088812Y-83457609D01*
X100088814Y-83457611D01*
X100191145Y-83509751D01*
X100192831Y-83510610D01*
X100280528Y-83524500D01*
X100303491Y-83528137D01*
X100310000Y-83529168D01*
X100311863Y-83528873D01*
X100425301Y-83510906D01*
X100425302Y-83510906D01*
X100427169Y-83510610D01*
X100431988Y-83508155D01*
X100450298Y-83506714D01*
X100459853Y-83512568D01*
X100705814Y-83758529D01*
X100712843Y-83775500D01*
X100705814Y-83792471D01*
X100688843Y-83799500D01*
X76926924Y-83799500D01*
X76909953Y-83792471D01*
X76902924Y-83775500D01*
X76909953Y-83758529D01*
X76920712Y-83752318D01*
X76924936Y-83751186D01*
X76952688Y-83743750D01*
X77161786Y-83646246D01*
X77350775Y-83513914D01*
X77513914Y-83350775D01*
X77646246Y-83161785D01*
X77743750Y-82952688D01*
X77803463Y-82729836D01*
X77823571Y-82500000D01*
X77814822Y-82400000D01*
X82970832Y-82400000D01*
X82989390Y-82517169D01*
X82990248Y-82518853D01*
X83038786Y-82614113D01*
X83043247Y-82622869D01*
X83127131Y-82706753D01*
X83128812Y-82707609D01*
X83128814Y-82707611D01*
X83208351Y-82748137D01*
X83232831Y-82760610D01*
X83350000Y-82779168D01*
X83467169Y-82760610D01*
X83491649Y-82748137D01*
X83571186Y-82707611D01*
X83571188Y-82707609D01*
X83572869Y-82706753D01*
X83656753Y-82622869D01*
X83661215Y-82614113D01*
X83709752Y-82518853D01*
X83710610Y-82517169D01*
X83721249Y-82450000D01*
X83820832Y-82450000D01*
X83839390Y-82567169D01*
X83840248Y-82568853D01*
X83891702Y-82669836D01*
X83893247Y-82672869D01*
X83977131Y-82756753D01*
X83978812Y-82757609D01*
X83978814Y-82757611D01*
X84042868Y-82790248D01*
X84082831Y-82810610D01*
X84200000Y-82829168D01*
X84317169Y-82810610D01*
X84357132Y-82790248D01*
X84421186Y-82757611D01*
X84421188Y-82757609D01*
X84422869Y-82756753D01*
X84506753Y-82672869D01*
X84508299Y-82669836D01*
X84559752Y-82568853D01*
X84560610Y-82567169D01*
X84579168Y-82450000D01*
X84560610Y-82332831D01*
X84550559Y-82313104D01*
X84993798Y-82313104D01*
X84999374Y-82391863D01*
X85003527Y-82450513D01*
X85003673Y-82452582D01*
X85054124Y-82582990D01*
X85055233Y-82584396D01*
X85055233Y-82584397D01*
X85125525Y-82673562D01*
X85140690Y-82692799D01*
X85142166Y-82693819D01*
X85142167Y-82693820D01*
X85254237Y-82771276D01*
X85254240Y-82771277D01*
X85255718Y-82772299D01*
X85389036Y-82814462D01*
X85395871Y-82815000D01*
X85497534Y-82815000D01*
X85498415Y-82814867D01*
X85498422Y-82814867D01*
X85599100Y-82799731D01*
X85599103Y-82799730D01*
X85600873Y-82799464D01*
X85726921Y-82738936D01*
X85829599Y-82644022D01*
X85866021Y-82581316D01*
X85898926Y-82524666D01*
X85898926Y-82524665D01*
X85899829Y-82523111D01*
X85909415Y-82481753D01*
X85930997Y-82388645D01*
X85930997Y-82388642D01*
X85931402Y-82386896D01*
X85921527Y-82247418D01*
X85899314Y-82190000D01*
X86490832Y-82190000D01*
X86509390Y-82307169D01*
X86510248Y-82308853D01*
X86556690Y-82400000D01*
X86563247Y-82412869D01*
X86647131Y-82496753D01*
X86648812Y-82497609D01*
X86648814Y-82497611D01*
X86706751Y-82527131D01*
X86752831Y-82550610D01*
X86870000Y-82569168D01*
X86987169Y-82550610D01*
X87033249Y-82527131D01*
X87091186Y-82497611D01*
X87091188Y-82497609D01*
X87092869Y-82496753D01*
X87176753Y-82412869D01*
X87183311Y-82400000D01*
X87229752Y-82308853D01*
X87230610Y-82307169D01*
X87249168Y-82190000D01*
X104850832Y-82190000D01*
X104869390Y-82307169D01*
X104870248Y-82308853D01*
X104916690Y-82400000D01*
X104923247Y-82412869D01*
X105007131Y-82496753D01*
X105008812Y-82497609D01*
X105008814Y-82497611D01*
X105066751Y-82527131D01*
X105112831Y-82550610D01*
X105230000Y-82569168D01*
X105347169Y-82550610D01*
X105393249Y-82527131D01*
X105451186Y-82497611D01*
X105451188Y-82497609D01*
X105452869Y-82496753D01*
X105536753Y-82412869D01*
X105543311Y-82400000D01*
X105589752Y-82308853D01*
X105590610Y-82307169D01*
X105609168Y-82190000D01*
X105590610Y-82072831D01*
X105589742Y-82071127D01*
X105537611Y-81968814D01*
X105537609Y-81968812D01*
X105536753Y-81967131D01*
X105452869Y-81883247D01*
X105451188Y-81882391D01*
X105451186Y-81882389D01*
X105348853Y-81830248D01*
X105347169Y-81829390D01*
X105230000Y-81810832D01*
X105112831Y-81829390D01*
X105111147Y-81830248D01*
X105008814Y-81882389D01*
X105008812Y-81882391D01*
X105007131Y-81883247D01*
X104923247Y-81967131D01*
X104922391Y-81968812D01*
X104922389Y-81968814D01*
X104870258Y-82071127D01*
X104869390Y-82072831D01*
X104850832Y-82190000D01*
X87249168Y-82190000D01*
X87230610Y-82072831D01*
X87229742Y-82071127D01*
X87177611Y-81968814D01*
X87177609Y-81968812D01*
X87176753Y-81967131D01*
X87092869Y-81883247D01*
X87091188Y-81882391D01*
X87091186Y-81882389D01*
X86988853Y-81830248D01*
X86987169Y-81829390D01*
X86870000Y-81810832D01*
X86752831Y-81829390D01*
X86751147Y-81830248D01*
X86648814Y-81882389D01*
X86648812Y-81882391D01*
X86647131Y-81883247D01*
X86563247Y-81967131D01*
X86562391Y-81968812D01*
X86562389Y-81968814D01*
X86510258Y-82071127D01*
X86509390Y-82072831D01*
X86490832Y-82190000D01*
X85899314Y-82190000D01*
X85871076Y-82117010D01*
X85861805Y-82105249D01*
X85785620Y-82008609D01*
X85784510Y-82007201D01*
X85769891Y-81997097D01*
X85670963Y-81928724D01*
X85670960Y-81928723D01*
X85669482Y-81927701D01*
X85536164Y-81885538D01*
X85529329Y-81885000D01*
X85427666Y-81885000D01*
X85426785Y-81885133D01*
X85426778Y-81885133D01*
X85326100Y-81900269D01*
X85326097Y-81900270D01*
X85324327Y-81900536D01*
X85198279Y-81961064D01*
X85095601Y-82055978D01*
X85094699Y-82057531D01*
X85027646Y-82172973D01*
X85025371Y-82176889D01*
X85024965Y-82178641D01*
X84995174Y-82307169D01*
X84993798Y-82313104D01*
X84550559Y-82313104D01*
X84549969Y-82311947D01*
X84507611Y-82228814D01*
X84507609Y-82228812D01*
X84506753Y-82227131D01*
X84422869Y-82143247D01*
X84421188Y-82142391D01*
X84421186Y-82142389D01*
X84318853Y-82090248D01*
X84317169Y-82089390D01*
X84212621Y-82072831D01*
X84201863Y-82071127D01*
X84200000Y-82070832D01*
X84198137Y-82071127D01*
X84187379Y-82072831D01*
X84082831Y-82089390D01*
X84081147Y-82090248D01*
X83978814Y-82142389D01*
X83978812Y-82142391D01*
X83977131Y-82143247D01*
X83893247Y-82227131D01*
X83892391Y-82228812D01*
X83892389Y-82228814D01*
X83850031Y-82311947D01*
X83839390Y-82332831D01*
X83820832Y-82450000D01*
X83721249Y-82450000D01*
X83729168Y-82400000D01*
X83728831Y-82397869D01*
X83718529Y-82332831D01*
X83710610Y-82282831D01*
X83709752Y-82281147D01*
X83657611Y-82178814D01*
X83657609Y-82178812D01*
X83656753Y-82177131D01*
X83572869Y-82093247D01*
X83571188Y-82092391D01*
X83571186Y-82092389D01*
X83468853Y-82040248D01*
X83467169Y-82039390D01*
X83369965Y-82023994D01*
X83351863Y-82021127D01*
X83350000Y-82020832D01*
X83348137Y-82021127D01*
X83330035Y-82023994D01*
X83232831Y-82039390D01*
X83231147Y-82040248D01*
X83128814Y-82092389D01*
X83128812Y-82092391D01*
X83127131Y-82093247D01*
X83043247Y-82177131D01*
X83042391Y-82178812D01*
X83042389Y-82178814D01*
X82990248Y-82281147D01*
X82989390Y-82282831D01*
X82981471Y-82332831D01*
X82971170Y-82397869D01*
X82970832Y-82400000D01*
X77814822Y-82400000D01*
X77803463Y-82270164D01*
X77743750Y-82047312D01*
X77646246Y-81838215D01*
X77513914Y-81649225D01*
X77376942Y-81512253D01*
X88608579Y-81512253D01*
X88608874Y-81514116D01*
X88610053Y-81521557D01*
X88627137Y-81629422D01*
X88627995Y-81631106D01*
X88679827Y-81732831D01*
X88680994Y-81735122D01*
X88764878Y-81819006D01*
X88766559Y-81819862D01*
X88766561Y-81819864D01*
X88862229Y-81868609D01*
X88870578Y-81872863D01*
X88987747Y-81891421D01*
X89104916Y-81872863D01*
X89113265Y-81868609D01*
X89208933Y-81819864D01*
X89208935Y-81819862D01*
X89210616Y-81819006D01*
X89294500Y-81735122D01*
X89295668Y-81732831D01*
X89347499Y-81631106D01*
X89348357Y-81629422D01*
X89365441Y-81521557D01*
X89366620Y-81514116D01*
X89366915Y-81512253D01*
X89348357Y-81395084D01*
X89341256Y-81381147D01*
X89295358Y-81291067D01*
X89295356Y-81291065D01*
X89294500Y-81289384D01*
X89285116Y-81280000D01*
X107360832Y-81280000D01*
X107361127Y-81281863D01*
X107361767Y-81285905D01*
X107379390Y-81397169D01*
X107380248Y-81398853D01*
X107430836Y-81498137D01*
X107433247Y-81502869D01*
X107517131Y-81586753D01*
X107518812Y-81587609D01*
X107518814Y-81587611D01*
X107596377Y-81627131D01*
X107622831Y-81640610D01*
X107740000Y-81659168D01*
X107857169Y-81640610D01*
X107883623Y-81627131D01*
X107961186Y-81587611D01*
X107961188Y-81587609D01*
X107962869Y-81586753D01*
X108046753Y-81502869D01*
X108049165Y-81498137D01*
X108099752Y-81398853D01*
X108100610Y-81397169D01*
X108118233Y-81285905D01*
X108118873Y-81281863D01*
X108119168Y-81280000D01*
X108100610Y-81162831D01*
X108093000Y-81147896D01*
X108047611Y-81058814D01*
X108047609Y-81058812D01*
X108046753Y-81057131D01*
X107962869Y-80973247D01*
X107961188Y-80972391D01*
X107961186Y-80972389D01*
X107858853Y-80920248D01*
X107857169Y-80919390D01*
X107740000Y-80900832D01*
X107622831Y-80919390D01*
X107621147Y-80920248D01*
X107518814Y-80972389D01*
X107518812Y-80972391D01*
X107517131Y-80973247D01*
X107433247Y-81057131D01*
X107432391Y-81058812D01*
X107432389Y-81058814D01*
X107387000Y-81147896D01*
X107379390Y-81162831D01*
X107360832Y-81280000D01*
X89285116Y-81280000D01*
X89210616Y-81205500D01*
X89208935Y-81204644D01*
X89208933Y-81204642D01*
X89106600Y-81152501D01*
X89104916Y-81151643D01*
X88987747Y-81133085D01*
X88870578Y-81151643D01*
X88868894Y-81152501D01*
X88766561Y-81204642D01*
X88766559Y-81204644D01*
X88764878Y-81205500D01*
X88680994Y-81289384D01*
X88680138Y-81291065D01*
X88680136Y-81291067D01*
X88634238Y-81381147D01*
X88627137Y-81395084D01*
X88608579Y-81512253D01*
X77376942Y-81512253D01*
X77350775Y-81486086D01*
X77161786Y-81353754D01*
X76952688Y-81256250D01*
X76729836Y-81196537D01*
X76500000Y-81176429D01*
X76270164Y-81196537D01*
X76047312Y-81256250D01*
X75838215Y-81353754D01*
X75649225Y-81486086D01*
X75486086Y-81649225D01*
X75353754Y-81838215D01*
X75256250Y-82047312D01*
X75249853Y-82071186D01*
X75247682Y-82079288D01*
X75236500Y-82093861D01*
X75218288Y-82096258D01*
X75203715Y-82085076D01*
X75200500Y-82073076D01*
X75200500Y-80600000D01*
X84770832Y-80600000D01*
X84789390Y-80717169D01*
X84790248Y-80718853D01*
X84840499Y-80817475D01*
X84843247Y-80822869D01*
X84927131Y-80906753D01*
X84928812Y-80907609D01*
X84928814Y-80907611D01*
X85001706Y-80944751D01*
X85032831Y-80960610D01*
X85121039Y-80974581D01*
X85140170Y-80977611D01*
X85150000Y-80979168D01*
X85159831Y-80977611D01*
X85178961Y-80974581D01*
X85267169Y-80960610D01*
X85298294Y-80944751D01*
X85371186Y-80907611D01*
X85371188Y-80907609D01*
X85372869Y-80906753D01*
X85456753Y-80822869D01*
X85459502Y-80817475D01*
X85509752Y-80718853D01*
X85510610Y-80717169D01*
X85529168Y-80600000D01*
X85510610Y-80482831D01*
X85499835Y-80461683D01*
X85457611Y-80378814D01*
X85457609Y-80378812D01*
X85456753Y-80377131D01*
X85372869Y-80293247D01*
X85371188Y-80292391D01*
X85371186Y-80292389D01*
X85268853Y-80240248D01*
X85267169Y-80239390D01*
X85150000Y-80220832D01*
X85032831Y-80239390D01*
X85031147Y-80240248D01*
X84928814Y-80292389D01*
X84928812Y-80292391D01*
X84927131Y-80293247D01*
X84843247Y-80377131D01*
X84842391Y-80378812D01*
X84842389Y-80378814D01*
X84800165Y-80461683D01*
X84789390Y-80482831D01*
X84770832Y-80600000D01*
X75200500Y-80600000D01*
X75200500Y-79280000D01*
X99200832Y-79280000D01*
X99219390Y-79397169D01*
X99220248Y-79398853D01*
X99269481Y-79495477D01*
X99273247Y-79502869D01*
X99357131Y-79586753D01*
X99358812Y-79587609D01*
X99358814Y-79587611D01*
X99405040Y-79611164D01*
X99416969Y-79625132D01*
X99415528Y-79643444D01*
X99405041Y-79653931D01*
X99388441Y-79662389D01*
X99368814Y-79672389D01*
X99368812Y-79672391D01*
X99367131Y-79673247D01*
X99283247Y-79757131D01*
X99282391Y-79758812D01*
X99282389Y-79758814D01*
X99234485Y-79852831D01*
X99229390Y-79862831D01*
X99210832Y-79980000D01*
X99211127Y-79981863D01*
X99211484Y-79984117D01*
X99229390Y-80097169D01*
X99230248Y-80098853D01*
X99282063Y-80200545D01*
X99283247Y-80202869D01*
X99367131Y-80286753D01*
X99368812Y-80287609D01*
X99368814Y-80287611D01*
X99471147Y-80339752D01*
X99472831Y-80340610D01*
X99590000Y-80359168D01*
X99707169Y-80340610D01*
X99708853Y-80339752D01*
X99811186Y-80287611D01*
X99811188Y-80287609D01*
X99812869Y-80286753D01*
X99820156Y-80279466D01*
X99837127Y-80272437D01*
X99854098Y-80279466D01*
X99861127Y-80296437D01*
X99861127Y-80298137D01*
X99860832Y-80300000D01*
X99861127Y-80301863D01*
X99862306Y-80309309D01*
X99879390Y-80417169D01*
X99880248Y-80418853D01*
X99915038Y-80487131D01*
X99933247Y-80522869D01*
X100017131Y-80606753D01*
X100018812Y-80607609D01*
X100018814Y-80607611D01*
X100073220Y-80635332D01*
X100122831Y-80660610D01*
X100240000Y-80679168D01*
X100357169Y-80660610D01*
X100406780Y-80635332D01*
X100461186Y-80607611D01*
X100461188Y-80607609D01*
X100462869Y-80606753D01*
X100546753Y-80522869D01*
X100564963Y-80487131D01*
X100573087Y-80471186D01*
X100578616Y-80460334D01*
X100592584Y-80448405D01*
X100610896Y-80449846D01*
X100621384Y-80460334D01*
X100626913Y-80471186D01*
X100635038Y-80487131D01*
X100653247Y-80522869D01*
X100737131Y-80606753D01*
X100738812Y-80607609D01*
X100738814Y-80607611D01*
X100793220Y-80635332D01*
X100842831Y-80660610D01*
X100960000Y-80679168D01*
X101077169Y-80660610D01*
X101126780Y-80635332D01*
X101181186Y-80607611D01*
X101181188Y-80607609D01*
X101182869Y-80606753D01*
X101266753Y-80522869D01*
X101284963Y-80487131D01*
X101319752Y-80418853D01*
X101320610Y-80417169D01*
X101336295Y-80318139D01*
X101345893Y-80302477D01*
X101354111Y-80300504D01*
X101352466Y-80299496D01*
X101365889Y-80299496D01*
X101379416Y-80307786D01*
X101383705Y-80318139D01*
X101399390Y-80417169D01*
X101400248Y-80418853D01*
X101435038Y-80487131D01*
X101453247Y-80522869D01*
X101537131Y-80606753D01*
X101538812Y-80607609D01*
X101538814Y-80607611D01*
X101593220Y-80635332D01*
X101642831Y-80660610D01*
X101760000Y-80679168D01*
X101877169Y-80660610D01*
X101926780Y-80635332D01*
X101981186Y-80607611D01*
X101981188Y-80607609D01*
X101982869Y-80606753D01*
X102066753Y-80522869D01*
X102084963Y-80487131D01*
X102119752Y-80418853D01*
X102120610Y-80417169D01*
X102136295Y-80318139D01*
X102145893Y-80302477D01*
X102154111Y-80300504D01*
X102152466Y-80299496D01*
X102165889Y-80299496D01*
X102179416Y-80307786D01*
X102183705Y-80318139D01*
X102199390Y-80417169D01*
X102200248Y-80418853D01*
X102235038Y-80487131D01*
X102253247Y-80522869D01*
X102337131Y-80606753D01*
X102338812Y-80607609D01*
X102338814Y-80607611D01*
X102393220Y-80635332D01*
X102442831Y-80660610D01*
X102560000Y-80679168D01*
X102677169Y-80660610D01*
X102726780Y-80635332D01*
X102781186Y-80607611D01*
X102781188Y-80607609D01*
X102782869Y-80606753D01*
X102866753Y-80522869D01*
X102884963Y-80487131D01*
X102919752Y-80418853D01*
X102920610Y-80417169D01*
X102936295Y-80318139D01*
X102945893Y-80302477D01*
X102954111Y-80300504D01*
X102952466Y-80299496D01*
X102965889Y-80299496D01*
X102979416Y-80307786D01*
X102983705Y-80318139D01*
X102999390Y-80417169D01*
X103000248Y-80418853D01*
X103035038Y-80487131D01*
X103053247Y-80522869D01*
X103137131Y-80606753D01*
X103138812Y-80607609D01*
X103138814Y-80607611D01*
X103193220Y-80635332D01*
X103242831Y-80660610D01*
X103360000Y-80679168D01*
X103477169Y-80660610D01*
X103526780Y-80635332D01*
X103581186Y-80607611D01*
X103581188Y-80607609D01*
X103582869Y-80606753D01*
X103666753Y-80522869D01*
X103684963Y-80487131D01*
X103719752Y-80418853D01*
X103720610Y-80417169D01*
X103736295Y-80318139D01*
X103745893Y-80302477D01*
X103754111Y-80300504D01*
X103752466Y-80299496D01*
X103765889Y-80299496D01*
X103779416Y-80307786D01*
X103783705Y-80318139D01*
X103799390Y-80417169D01*
X103800248Y-80418853D01*
X103835038Y-80487131D01*
X103853247Y-80522869D01*
X103937131Y-80606753D01*
X103938812Y-80607609D01*
X103938814Y-80607611D01*
X103993220Y-80635332D01*
X104042831Y-80660610D01*
X104160000Y-80679168D01*
X104277169Y-80660610D01*
X104326780Y-80635332D01*
X104381186Y-80607611D01*
X104381188Y-80607609D01*
X104382869Y-80606753D01*
X104466753Y-80522869D01*
X104484963Y-80487131D01*
X104519752Y-80418853D01*
X104520610Y-80417169D01*
X104536295Y-80318139D01*
X104545893Y-80302477D01*
X104554111Y-80300504D01*
X104552466Y-80299496D01*
X104565889Y-80299496D01*
X104579416Y-80307786D01*
X104583705Y-80318139D01*
X104599390Y-80417169D01*
X104600248Y-80418853D01*
X104635038Y-80487131D01*
X104653247Y-80522869D01*
X104737131Y-80606753D01*
X104738812Y-80607609D01*
X104738814Y-80607611D01*
X104793220Y-80635332D01*
X104842831Y-80660610D01*
X104960000Y-80679168D01*
X105077169Y-80660610D01*
X105126780Y-80635332D01*
X105181186Y-80607611D01*
X105181188Y-80607609D01*
X105182869Y-80606753D01*
X105266753Y-80522869D01*
X105284963Y-80487131D01*
X105319752Y-80418853D01*
X105320610Y-80417169D01*
X105336295Y-80318139D01*
X105345893Y-80302477D01*
X105354111Y-80300504D01*
X105352466Y-80299496D01*
X105365889Y-80299496D01*
X105379416Y-80307786D01*
X105383705Y-80318139D01*
X105399390Y-80417169D01*
X105400248Y-80418853D01*
X105435038Y-80487131D01*
X105453247Y-80522869D01*
X105537131Y-80606753D01*
X105538812Y-80607609D01*
X105538814Y-80607611D01*
X105593220Y-80635332D01*
X105642831Y-80660610D01*
X105760000Y-80679168D01*
X105877169Y-80660610D01*
X105926780Y-80635332D01*
X105981186Y-80607611D01*
X105981188Y-80607609D01*
X105982869Y-80606753D01*
X106066753Y-80522869D01*
X106084963Y-80487131D01*
X106103960Y-80449846D01*
X106108616Y-80440708D01*
X106122584Y-80428779D01*
X106140896Y-80430220D01*
X106151384Y-80440708D01*
X106156040Y-80449846D01*
X106175038Y-80487131D01*
X106193247Y-80522869D01*
X106277131Y-80606753D01*
X106278812Y-80607609D01*
X106278814Y-80607611D01*
X106333220Y-80635332D01*
X106382831Y-80660610D01*
X106500000Y-80679168D01*
X106617169Y-80660610D01*
X106666780Y-80635332D01*
X106721186Y-80607611D01*
X106721188Y-80607609D01*
X106722869Y-80606753D01*
X106806753Y-80522869D01*
X106824963Y-80487131D01*
X106859752Y-80418853D01*
X106860610Y-80417169D01*
X106877694Y-80309309D01*
X106878873Y-80301863D01*
X106879168Y-80300000D01*
X106877322Y-80288345D01*
X106881611Y-80270484D01*
X106897273Y-80260886D01*
X106915134Y-80265175D01*
X106917998Y-80267620D01*
X106927131Y-80276753D01*
X106928812Y-80277609D01*
X106928814Y-80277611D01*
X107014237Y-80321136D01*
X107032831Y-80330610D01*
X107150000Y-80349168D01*
X107267169Y-80330610D01*
X107285763Y-80321136D01*
X107371186Y-80277611D01*
X107371188Y-80277609D01*
X107372869Y-80276753D01*
X107456753Y-80192869D01*
X107458097Y-80190233D01*
X107509752Y-80088853D01*
X107510610Y-80087169D01*
X107529168Y-79970000D01*
X107527578Y-79959958D01*
X107522613Y-79928615D01*
X107510610Y-79852831D01*
X107499362Y-79830755D01*
X107457611Y-79748814D01*
X107457609Y-79748812D01*
X107456753Y-79747131D01*
X107372869Y-79663247D01*
X107371188Y-79662391D01*
X107371186Y-79662389D01*
X107268853Y-79610248D01*
X107267169Y-79609390D01*
X107150000Y-79590832D01*
X107032831Y-79609390D01*
X107031147Y-79610248D01*
X106928814Y-79662389D01*
X106928812Y-79662391D01*
X106927131Y-79663247D01*
X106843247Y-79747131D01*
X106842391Y-79748812D01*
X106842389Y-79748814D01*
X106800638Y-79830755D01*
X106789390Y-79852831D01*
X106777387Y-79928615D01*
X106772423Y-79959958D01*
X106770832Y-79970000D01*
X106771127Y-79971863D01*
X106772678Y-79981655D01*
X106768389Y-79999516D01*
X106752727Y-80009114D01*
X106734866Y-80004825D01*
X106732002Y-80002380D01*
X106722869Y-79993247D01*
X106721188Y-79992391D01*
X106721186Y-79992389D01*
X106618853Y-79940248D01*
X106617169Y-79939390D01*
X106500000Y-79920832D01*
X106382831Y-79939390D01*
X106381147Y-79940248D01*
X106278814Y-79992389D01*
X106278812Y-79992391D01*
X106277131Y-79993247D01*
X106193247Y-80077131D01*
X106192391Y-80078812D01*
X106192389Y-80078814D01*
X106151384Y-80159292D01*
X106137416Y-80171221D01*
X106119104Y-80169780D01*
X106108616Y-80159292D01*
X106067611Y-80078814D01*
X106067609Y-80078812D01*
X106066753Y-80077131D01*
X105982869Y-79993247D01*
X105981188Y-79992391D01*
X105981186Y-79992389D01*
X105878853Y-79940248D01*
X105877169Y-79939390D01*
X105760000Y-79920832D01*
X105642831Y-79939390D01*
X105641147Y-79940248D01*
X105538814Y-79992389D01*
X105538812Y-79992391D01*
X105537131Y-79993247D01*
X105453247Y-80077131D01*
X105452391Y-80078812D01*
X105452389Y-80078814D01*
X105408743Y-80164475D01*
X105399390Y-80182831D01*
X105386740Y-80262700D01*
X105383705Y-80281861D01*
X105374107Y-80297523D01*
X105365889Y-80299496D01*
X105352466Y-80299496D01*
X105340584Y-80292214D01*
X105336295Y-80281861D01*
X105333260Y-80262700D01*
X105320610Y-80182831D01*
X105311257Y-80164475D01*
X105267611Y-80078814D01*
X105267609Y-80078812D01*
X105266753Y-80077131D01*
X105182869Y-79993247D01*
X105181188Y-79992391D01*
X105181186Y-79992389D01*
X105078853Y-79940248D01*
X105077169Y-79939390D01*
X104960000Y-79920832D01*
X104842831Y-79939390D01*
X104841147Y-79940248D01*
X104738814Y-79992389D01*
X104738812Y-79992391D01*
X104737131Y-79993247D01*
X104653247Y-80077131D01*
X104652391Y-80078812D01*
X104652389Y-80078814D01*
X104608743Y-80164475D01*
X104599390Y-80182831D01*
X104586740Y-80262700D01*
X104583705Y-80281861D01*
X104574107Y-80297523D01*
X104565889Y-80299496D01*
X104552466Y-80299496D01*
X104540584Y-80292214D01*
X104536295Y-80281861D01*
X104533260Y-80262700D01*
X104520610Y-80182831D01*
X104511257Y-80164475D01*
X104467611Y-80078814D01*
X104467609Y-80078812D01*
X104466753Y-80077131D01*
X104382869Y-79993247D01*
X104381188Y-79992391D01*
X104381186Y-79992389D01*
X104278853Y-79940248D01*
X104277169Y-79939390D01*
X104160000Y-79920832D01*
X104042831Y-79939390D01*
X104041147Y-79940248D01*
X103938814Y-79992389D01*
X103938812Y-79992391D01*
X103937131Y-79993247D01*
X103853247Y-80077131D01*
X103852391Y-80078812D01*
X103852389Y-80078814D01*
X103808743Y-80164475D01*
X103799390Y-80182831D01*
X103786740Y-80262700D01*
X103783705Y-80281861D01*
X103774107Y-80297523D01*
X103765889Y-80299496D01*
X103752466Y-80299496D01*
X103740584Y-80292214D01*
X103736295Y-80281861D01*
X103733260Y-80262700D01*
X103720610Y-80182831D01*
X103711257Y-80164475D01*
X103667611Y-80078814D01*
X103667609Y-80078812D01*
X103666753Y-80077131D01*
X103582869Y-79993247D01*
X103581188Y-79992391D01*
X103581186Y-79992389D01*
X103478853Y-79940248D01*
X103477169Y-79939390D01*
X103360000Y-79920832D01*
X103242831Y-79939390D01*
X103241147Y-79940248D01*
X103138814Y-79992389D01*
X103138812Y-79992391D01*
X103137131Y-79993247D01*
X103053247Y-80077131D01*
X103052391Y-80078812D01*
X103052389Y-80078814D01*
X103008743Y-80164475D01*
X102999390Y-80182831D01*
X102986740Y-80262700D01*
X102983705Y-80281861D01*
X102974107Y-80297523D01*
X102965889Y-80299496D01*
X102952466Y-80299496D01*
X102940584Y-80292214D01*
X102936295Y-80281861D01*
X102933260Y-80262700D01*
X102920610Y-80182831D01*
X102911257Y-80164475D01*
X102867611Y-80078814D01*
X102867609Y-80078812D01*
X102866753Y-80077131D01*
X102782869Y-79993247D01*
X102781188Y-79992391D01*
X102781186Y-79992389D01*
X102678853Y-79940248D01*
X102677169Y-79939390D01*
X102560000Y-79920832D01*
X102442831Y-79939390D01*
X102441147Y-79940248D01*
X102338814Y-79992389D01*
X102338812Y-79992391D01*
X102337131Y-79993247D01*
X102253247Y-80077131D01*
X102252391Y-80078812D01*
X102252389Y-80078814D01*
X102208743Y-80164475D01*
X102199390Y-80182831D01*
X102186740Y-80262700D01*
X102183705Y-80281861D01*
X102174107Y-80297523D01*
X102165889Y-80299496D01*
X102152466Y-80299496D01*
X102140584Y-80292214D01*
X102136295Y-80281861D01*
X102133260Y-80262700D01*
X102120610Y-80182831D01*
X102111257Y-80164475D01*
X102067611Y-80078814D01*
X102067609Y-80078812D01*
X102066753Y-80077131D01*
X101982869Y-79993247D01*
X101981188Y-79992391D01*
X101981186Y-79992389D01*
X101878853Y-79940248D01*
X101877169Y-79939390D01*
X101760000Y-79920832D01*
X101642831Y-79939390D01*
X101641147Y-79940248D01*
X101538814Y-79992389D01*
X101538812Y-79992391D01*
X101537131Y-79993247D01*
X101453247Y-80077131D01*
X101452391Y-80078812D01*
X101452389Y-80078814D01*
X101408743Y-80164475D01*
X101399390Y-80182831D01*
X101386740Y-80262700D01*
X101383705Y-80281861D01*
X101374107Y-80297523D01*
X101365889Y-80299496D01*
X101352466Y-80299496D01*
X101340584Y-80292214D01*
X101336295Y-80281861D01*
X101333260Y-80262700D01*
X101320610Y-80182831D01*
X101311257Y-80164475D01*
X101267611Y-80078814D01*
X101267609Y-80078812D01*
X101266753Y-80077131D01*
X101182869Y-79993247D01*
X101181188Y-79992391D01*
X101181186Y-79992389D01*
X101078853Y-79940248D01*
X101077169Y-79939390D01*
X100960000Y-79920832D01*
X100842831Y-79939390D01*
X100841147Y-79940248D01*
X100738814Y-79992389D01*
X100738812Y-79992391D01*
X100737131Y-79993247D01*
X100653247Y-80077131D01*
X100652391Y-80078812D01*
X100652389Y-80078814D01*
X100640668Y-80101818D01*
X100624867Y-80132831D01*
X100621384Y-80139666D01*
X100607416Y-80151595D01*
X100589104Y-80150154D01*
X100578616Y-80139666D01*
X100575134Y-80132831D01*
X100559332Y-80101818D01*
X100547611Y-80078814D01*
X100547609Y-80078812D01*
X100546753Y-80077131D01*
X100462869Y-79993247D01*
X100461188Y-79992391D01*
X100461186Y-79992389D01*
X100358853Y-79940248D01*
X100357169Y-79939390D01*
X100240000Y-79920832D01*
X100122831Y-79939390D01*
X100121147Y-79940248D01*
X100018814Y-79992389D01*
X100018812Y-79992391D01*
X100017131Y-79993247D01*
X100009844Y-80000534D01*
X99992873Y-80007563D01*
X99975902Y-80000534D01*
X99968873Y-79983563D01*
X99968873Y-79981863D01*
X99969168Y-79980000D01*
X99950610Y-79862831D01*
X99945515Y-79852831D01*
X99897611Y-79758814D01*
X99897609Y-79758812D01*
X99896753Y-79757131D01*
X99812869Y-79673247D01*
X99811188Y-79672391D01*
X99811186Y-79672389D01*
X99764960Y-79648836D01*
X99753031Y-79634868D01*
X99754472Y-79616556D01*
X99764959Y-79606069D01*
X99788958Y-79593841D01*
X99801186Y-79587611D01*
X99801188Y-79587609D01*
X99802869Y-79586753D01*
X99886753Y-79502869D01*
X99890520Y-79495477D01*
X99939752Y-79398853D01*
X99940610Y-79397169D01*
X99959168Y-79280000D01*
X99940610Y-79162831D01*
X99917132Y-79116753D01*
X99908596Y-79100000D01*
X106770832Y-79100000D01*
X106771127Y-79101863D01*
X106773274Y-79115419D01*
X106789390Y-79217169D01*
X106790248Y-79218853D01*
X106840910Y-79318282D01*
X106843247Y-79322869D01*
X106927131Y-79406753D01*
X106928812Y-79407609D01*
X106928814Y-79407611D01*
X107004848Y-79446352D01*
X107032831Y-79460610D01*
X107150000Y-79479168D01*
X107267169Y-79460610D01*
X107295152Y-79446352D01*
X107371186Y-79407611D01*
X107371188Y-79407609D01*
X107372869Y-79406753D01*
X107456753Y-79322869D01*
X107459091Y-79318282D01*
X107509752Y-79218853D01*
X107510610Y-79217169D01*
X107526726Y-79115419D01*
X107528873Y-79101863D01*
X107529168Y-79100000D01*
X107510610Y-78982831D01*
X107482249Y-78927169D01*
X107457611Y-78878814D01*
X107457609Y-78878812D01*
X107456753Y-78877131D01*
X107372869Y-78793247D01*
X107371188Y-78792391D01*
X107371186Y-78792389D01*
X107268853Y-78740248D01*
X107267169Y-78739390D01*
X107150000Y-78720832D01*
X107032831Y-78739390D01*
X107031147Y-78740248D01*
X106928814Y-78792389D01*
X106928812Y-78792391D01*
X106927131Y-78793247D01*
X106843247Y-78877131D01*
X106842391Y-78878812D01*
X106842389Y-78878814D01*
X106817751Y-78927169D01*
X106789390Y-78982831D01*
X106770832Y-79100000D01*
X99908596Y-79100000D01*
X99887611Y-79058814D01*
X99887609Y-79058812D01*
X99886753Y-79057131D01*
X99802869Y-78973247D01*
X99801188Y-78972391D01*
X99801186Y-78972389D01*
X99698853Y-78920248D01*
X99697169Y-78919390D01*
X99598139Y-78903705D01*
X99582477Y-78894107D01*
X99580504Y-78885889D01*
X99572214Y-78899416D01*
X99561861Y-78903705D01*
X99462831Y-78919390D01*
X99461147Y-78920248D01*
X99358814Y-78972389D01*
X99358812Y-78972391D01*
X99357131Y-78973247D01*
X99273247Y-79057131D01*
X99272391Y-79058812D01*
X99272389Y-79058814D01*
X99242868Y-79116753D01*
X99219390Y-79162831D01*
X99200832Y-79280000D01*
X75200500Y-79280000D01*
X75200500Y-78900000D01*
X96420832Y-78900000D01*
X96439390Y-79017169D01*
X96440248Y-79018853D01*
X96490568Y-79117611D01*
X96493247Y-79122869D01*
X96577131Y-79206753D01*
X96578812Y-79207609D01*
X96578814Y-79207611D01*
X96602307Y-79219581D01*
X96682831Y-79260610D01*
X96780035Y-79276006D01*
X96793491Y-79278137D01*
X96800000Y-79279168D01*
X96806510Y-79278137D01*
X96819965Y-79276006D01*
X96917169Y-79260610D01*
X96997693Y-79219581D01*
X97021186Y-79207611D01*
X97021188Y-79207609D01*
X97022869Y-79206753D01*
X97106753Y-79122869D01*
X97109433Y-79117611D01*
X97159752Y-79018853D01*
X97160610Y-79017169D01*
X97179168Y-78900000D01*
X97160610Y-78782831D01*
X97158049Y-78777804D01*
X97107611Y-78678814D01*
X97107609Y-78678812D01*
X97106753Y-78677131D01*
X97022869Y-78593247D01*
X97021188Y-78592391D01*
X97021186Y-78592389D01*
X96918853Y-78540248D01*
X96917169Y-78539390D01*
X96800000Y-78520832D01*
X96682831Y-78539390D01*
X96681147Y-78540248D01*
X96578814Y-78592389D01*
X96578812Y-78592391D01*
X96577131Y-78593247D01*
X96493247Y-78677131D01*
X96492391Y-78678812D01*
X96492389Y-78678814D01*
X96441951Y-78777804D01*
X96439390Y-78782831D01*
X96420832Y-78900000D01*
X75200500Y-78900000D01*
X75200500Y-78480000D01*
X99200832Y-78480000D01*
X99219390Y-78597169D01*
X99220248Y-78598853D01*
X99270836Y-78698137D01*
X99273247Y-78702869D01*
X99357131Y-78786753D01*
X99358812Y-78787609D01*
X99358814Y-78787611D01*
X99442830Y-78830419D01*
X99462831Y-78840610D01*
X99561861Y-78856295D01*
X99577523Y-78865893D01*
X99579496Y-78874111D01*
X99587786Y-78860584D01*
X99598139Y-78856295D01*
X99697169Y-78840610D01*
X99717170Y-78830419D01*
X99801186Y-78787611D01*
X99801188Y-78787609D01*
X99802869Y-78786753D01*
X99886753Y-78702869D01*
X99889165Y-78698137D01*
X99939752Y-78598853D01*
X99940610Y-78597169D01*
X99959168Y-78480000D01*
X99940610Y-78362831D01*
X99937513Y-78356753D01*
X99893311Y-78270000D01*
X106770832Y-78270000D01*
X106789390Y-78387169D01*
X106790248Y-78388853D01*
X106839083Y-78484696D01*
X106843247Y-78492869D01*
X106927131Y-78576753D01*
X106928812Y-78577609D01*
X106928814Y-78577611D01*
X107029422Y-78628873D01*
X107032831Y-78630610D01*
X107150000Y-78649168D01*
X107267169Y-78630610D01*
X107270578Y-78628873D01*
X107371186Y-78577611D01*
X107371188Y-78577609D01*
X107372869Y-78576753D01*
X107456753Y-78492869D01*
X107460918Y-78484696D01*
X107509752Y-78388853D01*
X107510610Y-78387169D01*
X107529168Y-78270000D01*
X107527728Y-78260905D01*
X107519286Y-78207611D01*
X107510610Y-78152831D01*
X107501370Y-78134696D01*
X107457611Y-78048814D01*
X107457609Y-78048812D01*
X107456753Y-78047131D01*
X107372869Y-77963247D01*
X107371188Y-77962391D01*
X107371186Y-77962389D01*
X107268853Y-77910248D01*
X107267169Y-77909390D01*
X107169965Y-77893994D01*
X107151863Y-77891127D01*
X107150000Y-77890832D01*
X107148137Y-77891127D01*
X107130035Y-77893994D01*
X107032831Y-77909390D01*
X107031147Y-77910248D01*
X106928814Y-77962389D01*
X106928812Y-77962391D01*
X106927131Y-77963247D01*
X106843247Y-78047131D01*
X106842391Y-78048812D01*
X106842389Y-78048814D01*
X106798630Y-78134696D01*
X106789390Y-78152831D01*
X106780714Y-78207611D01*
X106772273Y-78260905D01*
X106770832Y-78270000D01*
X99893311Y-78270000D01*
X99887611Y-78258814D01*
X99887609Y-78258812D01*
X99886753Y-78257131D01*
X99802869Y-78173247D01*
X99801188Y-78172391D01*
X99801186Y-78172389D01*
X99698853Y-78120248D01*
X99697169Y-78119390D01*
X99598139Y-78103705D01*
X99582477Y-78094107D01*
X99580504Y-78085889D01*
X99572214Y-78099416D01*
X99561861Y-78103705D01*
X99462831Y-78119390D01*
X99461147Y-78120248D01*
X99358814Y-78172389D01*
X99358812Y-78172391D01*
X99357131Y-78173247D01*
X99273247Y-78257131D01*
X99272391Y-78258812D01*
X99272389Y-78258814D01*
X99222487Y-78356753D01*
X99219390Y-78362831D01*
X99200832Y-78480000D01*
X75200500Y-78480000D01*
X75200500Y-77350000D01*
X97920832Y-77350000D01*
X97939390Y-77467169D01*
X97940248Y-77468853D01*
X97991263Y-77568975D01*
X97993247Y-77572869D01*
X98077131Y-77656753D01*
X98078812Y-77657609D01*
X98078814Y-77657611D01*
X98142868Y-77690248D01*
X98182831Y-77710610D01*
X98300000Y-77729168D01*
X98417169Y-77710610D01*
X98457132Y-77690248D01*
X98477245Y-77680000D01*
X99200832Y-77680000D01*
X99201127Y-77681863D01*
X99202319Y-77689390D01*
X99219390Y-77797169D01*
X99220248Y-77798853D01*
X99271249Y-77898947D01*
X99273247Y-77902869D01*
X99357131Y-77986753D01*
X99358812Y-77987609D01*
X99358814Y-77987611D01*
X99461147Y-78039752D01*
X99462831Y-78040610D01*
X99561861Y-78056295D01*
X99577523Y-78065893D01*
X99579496Y-78074111D01*
X99587786Y-78060584D01*
X99598139Y-78056295D01*
X99697169Y-78040610D01*
X99698853Y-78039752D01*
X99801186Y-77987611D01*
X99801188Y-77987609D01*
X99802869Y-77986753D01*
X99886753Y-77902869D01*
X99888752Y-77898947D01*
X99939752Y-77798853D01*
X99940610Y-77797169D01*
X99957681Y-77689390D01*
X99958873Y-77681863D01*
X99959168Y-77680000D01*
X99940610Y-77562831D01*
X99919361Y-77521127D01*
X99887611Y-77458814D01*
X99887609Y-77458812D01*
X99886753Y-77457131D01*
X99849622Y-77420000D01*
X111994318Y-77420000D01*
X112014956Y-77576762D01*
X112015559Y-77578217D01*
X112015559Y-77578218D01*
X112022182Y-77594207D01*
X112075464Y-77722841D01*
X112171718Y-77848282D01*
X112297159Y-77944536D01*
X112443238Y-78005044D01*
X112600000Y-78025682D01*
X112756762Y-78005044D01*
X112902841Y-77944536D01*
X113028282Y-77848282D01*
X113124536Y-77722841D01*
X113177818Y-77594207D01*
X113184441Y-77578218D01*
X113184441Y-77578217D01*
X113185044Y-77576762D01*
X113205682Y-77420000D01*
X113204365Y-77410000D01*
X113324318Y-77410000D01*
X113344956Y-77566762D01*
X113345559Y-77568217D01*
X113345559Y-77568218D01*
X113362480Y-77609068D01*
X113405464Y-77712841D01*
X113501718Y-77838282D01*
X113627159Y-77934536D01*
X113773238Y-77995044D01*
X113930000Y-78015682D01*
X114086762Y-77995044D01*
X114232841Y-77934536D01*
X114358282Y-77838282D01*
X114454536Y-77712841D01*
X114497520Y-77609068D01*
X114514441Y-77568218D01*
X114514441Y-77568217D01*
X114515044Y-77566762D01*
X114533049Y-77430000D01*
X114714318Y-77430000D01*
X114734956Y-77586762D01*
X114735559Y-77588217D01*
X114735559Y-77588218D01*
X114749850Y-77622719D01*
X114795464Y-77732841D01*
X114891718Y-77858282D01*
X115017159Y-77954536D01*
X115163238Y-78015044D01*
X115320000Y-78035682D01*
X115476762Y-78015044D01*
X115622841Y-77954536D01*
X115748282Y-77858282D01*
X115844536Y-77732841D01*
X115890150Y-77622719D01*
X115904441Y-77588218D01*
X115904441Y-77588217D01*
X115905044Y-77586762D01*
X115924365Y-77440000D01*
X116054318Y-77440000D01*
X116074956Y-77596762D01*
X116135464Y-77742841D01*
X116231718Y-77868282D01*
X116357159Y-77964536D01*
X116412867Y-77987611D01*
X116501208Y-78024203D01*
X116503238Y-78025044D01*
X116660000Y-78045682D01*
X116816762Y-78025044D01*
X116818793Y-78024203D01*
X116907133Y-77987611D01*
X116962841Y-77964536D01*
X117088282Y-77868282D01*
X117184536Y-77742841D01*
X117245044Y-77596762D01*
X117265682Y-77440000D01*
X117245044Y-77283238D01*
X117243985Y-77280680D01*
X117214790Y-77210199D01*
X117184536Y-77137159D01*
X117163696Y-77110000D01*
X118460832Y-77110000D01*
X118461127Y-77111863D01*
X118463129Y-77124500D01*
X118479390Y-77227169D01*
X118480248Y-77228853D01*
X118531960Y-77330343D01*
X118533247Y-77332869D01*
X118617131Y-77416753D01*
X118618812Y-77417609D01*
X118618814Y-77417611D01*
X118696377Y-77457131D01*
X118722831Y-77470610D01*
X118798084Y-77482529D01*
X118834678Y-77488325D01*
X118840000Y-77489168D01*
X118845323Y-77488325D01*
X118881916Y-77482529D01*
X118957169Y-77470610D01*
X118983623Y-77457131D01*
X119061186Y-77417611D01*
X119061188Y-77417609D01*
X119062869Y-77416753D01*
X119146753Y-77332869D01*
X119148041Y-77330343D01*
X119199752Y-77228853D01*
X119200610Y-77227169D01*
X119216871Y-77124500D01*
X119218873Y-77111863D01*
X119219168Y-77110000D01*
X119217572Y-77099920D01*
X119214796Y-77082394D01*
X119200610Y-76992831D01*
X119193895Y-76979652D01*
X119147611Y-76888814D01*
X119147609Y-76888812D01*
X119146753Y-76887131D01*
X119062869Y-76803247D01*
X119061188Y-76802391D01*
X119061186Y-76802389D01*
X118958853Y-76750248D01*
X118957169Y-76749390D01*
X118840000Y-76730832D01*
X118722831Y-76749390D01*
X118721147Y-76750248D01*
X118618814Y-76802389D01*
X118618812Y-76802391D01*
X118617131Y-76803247D01*
X118533247Y-76887131D01*
X118532391Y-76888812D01*
X118532389Y-76888814D01*
X118486105Y-76979652D01*
X118479390Y-76992831D01*
X118465204Y-77082394D01*
X118462429Y-77099920D01*
X118460832Y-77110000D01*
X117163696Y-77110000D01*
X117088282Y-77011718D01*
X116962841Y-76915464D01*
X116879401Y-76880902D01*
X116818218Y-76855559D01*
X116818217Y-76855559D01*
X116816762Y-76854956D01*
X116660000Y-76834318D01*
X116503238Y-76854956D01*
X116501783Y-76855559D01*
X116501782Y-76855559D01*
X116440599Y-76880902D01*
X116357159Y-76915464D01*
X116231718Y-77011718D01*
X116135464Y-77137159D01*
X116105210Y-77210199D01*
X116076016Y-77280680D01*
X116074956Y-77283238D01*
X116054318Y-77440000D01*
X115924365Y-77440000D01*
X115925682Y-77430000D01*
X115905044Y-77273238D01*
X115901549Y-77264799D01*
X115852551Y-77146508D01*
X115844536Y-77127159D01*
X115748282Y-77001718D01*
X115622841Y-76905464D01*
X115531951Y-76867816D01*
X115478218Y-76845559D01*
X115478217Y-76845559D01*
X115476762Y-76844956D01*
X115320000Y-76824318D01*
X115163238Y-76844956D01*
X115161783Y-76845559D01*
X115161782Y-76845559D01*
X115108049Y-76867816D01*
X115017159Y-76905464D01*
X114891718Y-77001718D01*
X114795464Y-77127159D01*
X114787449Y-77146508D01*
X114738452Y-77264799D01*
X114734956Y-77273238D01*
X114714318Y-77430000D01*
X114533049Y-77430000D01*
X114535682Y-77410000D01*
X114515044Y-77253238D01*
X114513956Y-77250610D01*
X114469286Y-77142769D01*
X114454536Y-77107159D01*
X114358282Y-76981718D01*
X114232841Y-76885464D01*
X114086762Y-76824956D01*
X113930000Y-76804318D01*
X113773238Y-76824956D01*
X113627159Y-76885464D01*
X113501718Y-76981718D01*
X113405464Y-77107159D01*
X113390714Y-77142769D01*
X113346045Y-77250610D01*
X113344956Y-77253238D01*
X113324318Y-77410000D01*
X113204365Y-77410000D01*
X113185044Y-77263238D01*
X113181549Y-77254799D01*
X113128678Y-77127159D01*
X113124536Y-77117159D01*
X113028282Y-76991718D01*
X112902841Y-76895464D01*
X112756762Y-76834956D01*
X112600000Y-76814318D01*
X112443238Y-76834956D01*
X112297159Y-76895464D01*
X112171718Y-76991718D01*
X112075464Y-77117159D01*
X112071322Y-77127159D01*
X112018452Y-77254799D01*
X112014956Y-77263238D01*
X111994318Y-77420000D01*
X99849622Y-77420000D01*
X99802869Y-77373247D01*
X99801188Y-77372391D01*
X99801186Y-77372389D01*
X99698853Y-77320248D01*
X99697169Y-77319390D01*
X99598139Y-77303705D01*
X99582477Y-77294107D01*
X99580504Y-77285889D01*
X99572214Y-77299416D01*
X99561861Y-77303705D01*
X99462831Y-77319390D01*
X99461147Y-77320248D01*
X99358814Y-77372389D01*
X99358812Y-77372391D01*
X99357131Y-77373247D01*
X99273247Y-77457131D01*
X99272391Y-77458812D01*
X99272389Y-77458814D01*
X99240639Y-77521127D01*
X99219390Y-77562831D01*
X99200832Y-77680000D01*
X98477245Y-77680000D01*
X98521186Y-77657611D01*
X98521188Y-77657609D01*
X98522869Y-77656753D01*
X98606753Y-77572869D01*
X98608738Y-77568975D01*
X98659752Y-77468853D01*
X98660610Y-77467169D01*
X98679168Y-77350000D01*
X98660610Y-77232831D01*
X98651920Y-77215776D01*
X98607611Y-77128814D01*
X98607609Y-77128812D01*
X98606753Y-77127131D01*
X98522869Y-77043247D01*
X98521188Y-77042391D01*
X98521186Y-77042389D01*
X98418853Y-76990248D01*
X98417169Y-76989390D01*
X98300000Y-76970832D01*
X98182831Y-76989390D01*
X98181147Y-76990248D01*
X98078814Y-77042389D01*
X98078812Y-77042391D01*
X98077131Y-77043247D01*
X97993247Y-77127131D01*
X97992391Y-77128812D01*
X97992389Y-77128814D01*
X97948080Y-77215776D01*
X97939390Y-77232831D01*
X97920832Y-77350000D01*
X75200500Y-77350000D01*
X75200500Y-76358577D01*
X94941600Y-76358577D01*
X94942273Y-76369272D01*
X94951699Y-76519095D01*
X94951983Y-76523616D01*
X94952449Y-76525049D01*
X94952449Y-76525051D01*
X94977573Y-76602373D01*
X95003084Y-76680887D01*
X95091691Y-76820510D01*
X95092792Y-76821544D01*
X95092793Y-76821545D01*
X95211131Y-76932672D01*
X95211134Y-76932674D01*
X95212237Y-76933710D01*
X95213564Y-76934439D01*
X95213566Y-76934441D01*
X95320036Y-76992973D01*
X95357147Y-77013375D01*
X95358607Y-77013750D01*
X95358610Y-77013751D01*
X95470148Y-77042389D01*
X95517317Y-77054500D01*
X95641178Y-77054500D01*
X95737045Y-77042389D01*
X95762566Y-77039165D01*
X95762567Y-77039165D01*
X95764061Y-77038976D01*
X95765457Y-77038423D01*
X95765462Y-77038422D01*
X95916413Y-76978656D01*
X95916415Y-76978655D01*
X95917814Y-76978101D01*
X95937185Y-76964027D01*
X96050371Y-76881793D01*
X96050372Y-76881792D01*
X96051597Y-76880902D01*
X96052343Y-76880000D01*
X99200832Y-76880000D01*
X99219390Y-76997169D01*
X99220248Y-76998853D01*
X99272040Y-77100500D01*
X99273247Y-77102869D01*
X99357131Y-77186753D01*
X99358812Y-77187609D01*
X99358814Y-77187611D01*
X99444259Y-77231147D01*
X99462831Y-77240610D01*
X99552416Y-77254799D01*
X99561861Y-77256295D01*
X99577523Y-77265893D01*
X99579496Y-77274111D01*
X99587786Y-77260584D01*
X99598139Y-77256295D01*
X99607584Y-77254799D01*
X99697169Y-77240610D01*
X99715741Y-77231147D01*
X99801186Y-77187611D01*
X99801188Y-77187609D01*
X99802869Y-77186753D01*
X99886753Y-77102869D01*
X99887961Y-77100500D01*
X99939752Y-76998853D01*
X99940610Y-76997169D01*
X99959168Y-76880000D01*
X106770832Y-76880000D01*
X106789390Y-76997169D01*
X106790248Y-76998853D01*
X106842040Y-77100500D01*
X106843247Y-77102869D01*
X106927131Y-77186753D01*
X106928812Y-77187609D01*
X106928814Y-77187611D01*
X107014259Y-77231147D01*
X107032831Y-77240610D01*
X107150000Y-77259168D01*
X107267169Y-77240610D01*
X107285741Y-77231147D01*
X107371186Y-77187611D01*
X107371188Y-77187609D01*
X107372869Y-77186753D01*
X107456753Y-77102869D01*
X107457961Y-77100500D01*
X107509752Y-76998853D01*
X107510610Y-76997169D01*
X107529168Y-76880000D01*
X107510610Y-76762831D01*
X107509742Y-76761127D01*
X107457611Y-76658814D01*
X107457609Y-76658812D01*
X107456753Y-76657131D01*
X107372869Y-76573247D01*
X107371188Y-76572391D01*
X107371186Y-76572389D01*
X107268853Y-76520248D01*
X107267169Y-76519390D01*
X107168139Y-76503705D01*
X107152477Y-76494107D01*
X107150504Y-76485889D01*
X107142214Y-76499416D01*
X107131861Y-76503705D01*
X107032831Y-76519390D01*
X107031147Y-76520248D01*
X106928814Y-76572389D01*
X106928812Y-76572391D01*
X106927131Y-76573247D01*
X106843247Y-76657131D01*
X106842391Y-76658812D01*
X106842389Y-76658814D01*
X106790258Y-76761127D01*
X106789390Y-76762831D01*
X106770832Y-76880000D01*
X99959168Y-76880000D01*
X99940610Y-76762831D01*
X99939742Y-76761127D01*
X99887611Y-76658814D01*
X99887609Y-76658812D01*
X99886753Y-76657131D01*
X99802869Y-76573247D01*
X99801188Y-76572391D01*
X99801186Y-76572389D01*
X99698853Y-76520248D01*
X99697169Y-76519390D01*
X99598139Y-76503705D01*
X99582477Y-76494107D01*
X99580504Y-76485889D01*
X99572214Y-76499416D01*
X99561861Y-76503705D01*
X99462831Y-76519390D01*
X99461147Y-76520248D01*
X99358814Y-76572389D01*
X99358812Y-76572391D01*
X99357131Y-76573247D01*
X99273247Y-76657131D01*
X99272391Y-76658812D01*
X99272389Y-76658814D01*
X99220258Y-76761127D01*
X99219390Y-76762831D01*
X99200832Y-76880000D01*
X96052343Y-76880000D01*
X96116549Y-76802389D01*
X96156044Y-76754648D01*
X96156045Y-76754646D01*
X96157005Y-76753486D01*
X96158933Y-76749390D01*
X96191844Y-76679449D01*
X96227414Y-76603859D01*
X96227697Y-76602377D01*
X96227698Y-76602373D01*
X96258117Y-76442908D01*
X96258117Y-76442906D01*
X96258400Y-76441423D01*
X96253861Y-76369272D01*
X96248112Y-76277887D01*
X96248111Y-76277884D01*
X96248017Y-76276384D01*
X96243121Y-76261314D01*
X96210290Y-76160275D01*
X96196916Y-76119113D01*
X96172094Y-76080000D01*
X99200832Y-76080000D01*
X99201127Y-76081863D01*
X99201535Y-76084440D01*
X99219390Y-76197169D01*
X99220248Y-76198853D01*
X99267555Y-76291697D01*
X99273247Y-76302869D01*
X99357131Y-76386753D01*
X99358812Y-76387609D01*
X99358814Y-76387611D01*
X99461147Y-76439752D01*
X99462831Y-76440610D01*
X99552523Y-76454816D01*
X99561861Y-76456295D01*
X99577523Y-76465893D01*
X99579496Y-76474111D01*
X99587786Y-76460584D01*
X99598139Y-76456295D01*
X99607477Y-76454816D01*
X99697169Y-76440610D01*
X99698853Y-76439752D01*
X99801186Y-76387611D01*
X99801188Y-76387609D01*
X99802869Y-76386753D01*
X99886753Y-76302869D01*
X99892446Y-76291697D01*
X99939752Y-76198853D01*
X99940610Y-76197169D01*
X99958465Y-76084440D01*
X99958873Y-76081863D01*
X99959168Y-76080000D01*
X106770832Y-76080000D01*
X106771127Y-76081863D01*
X106771535Y-76084440D01*
X106789390Y-76197169D01*
X106790248Y-76198853D01*
X106837555Y-76291697D01*
X106843247Y-76302869D01*
X106927131Y-76386753D01*
X106928812Y-76387609D01*
X106928814Y-76387611D01*
X107031147Y-76439752D01*
X107032831Y-76440610D01*
X107122523Y-76454816D01*
X107131861Y-76456295D01*
X107147523Y-76465893D01*
X107149496Y-76474111D01*
X107157786Y-76460584D01*
X107168139Y-76456295D01*
X107177477Y-76454816D01*
X107267169Y-76440610D01*
X107268853Y-76439752D01*
X107371186Y-76387611D01*
X107371188Y-76387609D01*
X107372869Y-76386753D01*
X107456753Y-76302869D01*
X107462446Y-76291697D01*
X107509752Y-76198853D01*
X107510610Y-76197169D01*
X107521154Y-76130596D01*
X108809773Y-76130596D01*
X108828331Y-76247765D01*
X108829189Y-76249449D01*
X108877788Y-76344829D01*
X108882188Y-76353465D01*
X108966072Y-76437349D01*
X108967753Y-76438205D01*
X108967755Y-76438207D01*
X109061337Y-76485889D01*
X109071772Y-76491206D01*
X109168976Y-76506602D01*
X109184610Y-76509078D01*
X109188941Y-76509764D01*
X109193273Y-76509078D01*
X109208906Y-76506602D01*
X109306110Y-76491206D01*
X109316545Y-76485889D01*
X109410127Y-76438207D01*
X109410129Y-76438205D01*
X109411810Y-76437349D01*
X109495694Y-76353465D01*
X109500095Y-76344829D01*
X109548412Y-76250000D01*
X109858332Y-76250000D01*
X109876890Y-76367169D01*
X109877748Y-76368853D01*
X109927658Y-76466806D01*
X109930747Y-76472869D01*
X110014631Y-76556753D01*
X110016312Y-76557609D01*
X110016314Y-76557611D01*
X110073448Y-76586722D01*
X110120331Y-76610610D01*
X110237500Y-76629168D01*
X110354669Y-76610610D01*
X110401552Y-76586722D01*
X110458686Y-76557611D01*
X110458688Y-76557609D01*
X110460369Y-76556753D01*
X110544253Y-76472869D01*
X110547343Y-76466806D01*
X110597252Y-76368853D01*
X110598110Y-76367169D01*
X110616668Y-76250000D01*
X110609851Y-76206959D01*
X110606806Y-76187734D01*
X110611095Y-76169873D01*
X110626757Y-76160275D01*
X110644618Y-76164564D01*
X110652476Y-76174311D01*
X110703605Y-76290510D01*
X110759573Y-76357092D01*
X110784506Y-76386753D01*
X110786639Y-76389291D01*
X110825843Y-76415387D01*
X110888583Y-76457150D01*
X110894060Y-76460796D01*
X110927316Y-76471186D01*
X111015603Y-76498769D01*
X111015605Y-76498769D01*
X111017233Y-76499278D01*
X111078005Y-76500392D01*
X111144546Y-76501612D01*
X111144548Y-76501612D01*
X111146255Y-76501643D01*
X111251796Y-76472869D01*
X111269109Y-76468149D01*
X111269111Y-76468148D01*
X111270755Y-76467700D01*
X111380724Y-76400179D01*
X111390580Y-76389291D01*
X111432443Y-76343041D01*
X111467322Y-76304507D01*
X111523588Y-76188375D01*
X111528210Y-76160905D01*
X111534131Y-76125706D01*
X111544997Y-76061120D01*
X111545133Y-76050000D01*
X111538766Y-76005538D01*
X111527081Y-75923947D01*
X111527080Y-75923945D01*
X111526839Y-75922259D01*
X111473428Y-75804788D01*
X111389193Y-75707028D01*
X111285558Y-75639856D01*
X111282338Y-75637769D01*
X111282337Y-75637769D01*
X111280906Y-75636841D01*
X111157273Y-75599866D01*
X111095001Y-75599486D01*
X111029941Y-75599088D01*
X111029938Y-75599088D01*
X111028231Y-75599078D01*
X111026588Y-75599548D01*
X111026585Y-75599548D01*
X110905803Y-75634068D01*
X110904155Y-75634539D01*
X110795019Y-75703399D01*
X110793891Y-75704677D01*
X110793889Y-75704678D01*
X110711349Y-75798137D01*
X110709596Y-75800122D01*
X110708871Y-75801667D01*
X110708870Y-75801668D01*
X110707405Y-75804788D01*
X110654754Y-75916932D01*
X110643995Y-75986034D01*
X110635255Y-76042169D01*
X110634901Y-76044440D01*
X110643162Y-76107611D01*
X110645528Y-76125706D01*
X110640759Y-76143445D01*
X110624843Y-76152615D01*
X110607104Y-76147846D01*
X110598906Y-76136236D01*
X110598405Y-76134696D01*
X110598110Y-76132831D01*
X110561462Y-76060905D01*
X110545111Y-76028814D01*
X110545109Y-76028812D01*
X110544253Y-76027131D01*
X110460369Y-75943247D01*
X110458688Y-75942391D01*
X110458686Y-75942389D01*
X110356353Y-75890248D01*
X110354669Y-75889390D01*
X110237500Y-75870832D01*
X110120331Y-75889390D01*
X110118647Y-75890248D01*
X110016314Y-75942389D01*
X110016312Y-75942391D01*
X110014631Y-75943247D01*
X109930747Y-76027131D01*
X109929891Y-76028812D01*
X109929889Y-76028814D01*
X109892579Y-76102039D01*
X109876890Y-76132831D01*
X109858332Y-76250000D01*
X109548412Y-76250000D01*
X109548693Y-76249449D01*
X109549551Y-76247765D01*
X109568109Y-76130596D01*
X109567335Y-76125706D01*
X109561067Y-76086136D01*
X109549551Y-76013427D01*
X109530921Y-75976863D01*
X109496552Y-75909410D01*
X109496550Y-75909408D01*
X109495694Y-75907727D01*
X109411810Y-75823843D01*
X109410129Y-75822987D01*
X109410127Y-75822985D01*
X109307794Y-75770844D01*
X109306110Y-75769986D01*
X109207573Y-75754379D01*
X109190804Y-75751723D01*
X109188941Y-75751428D01*
X109187078Y-75751723D01*
X109170309Y-75754379D01*
X109071772Y-75769986D01*
X109070088Y-75770844D01*
X108967755Y-75822985D01*
X108967753Y-75822987D01*
X108966072Y-75823843D01*
X108882188Y-75907727D01*
X108881332Y-75909408D01*
X108881330Y-75909410D01*
X108846961Y-75976863D01*
X108828331Y-76013427D01*
X108816815Y-76086136D01*
X108810548Y-76125706D01*
X108809773Y-76130596D01*
X107521154Y-76130596D01*
X107528465Y-76084440D01*
X107528873Y-76081863D01*
X107529168Y-76080000D01*
X107510610Y-75962831D01*
X107501311Y-75944581D01*
X107457611Y-75858814D01*
X107457609Y-75858812D01*
X107456753Y-75857131D01*
X107372869Y-75773247D01*
X107371188Y-75772391D01*
X107371186Y-75772389D01*
X107268853Y-75720248D01*
X107267169Y-75719390D01*
X107162230Y-75702769D01*
X107151863Y-75701127D01*
X107150000Y-75700832D01*
X107148137Y-75701127D01*
X107137770Y-75702769D01*
X107032831Y-75719390D01*
X107031147Y-75720248D01*
X106928814Y-75772389D01*
X106928812Y-75772391D01*
X106927131Y-75773247D01*
X106843247Y-75857131D01*
X106842391Y-75858812D01*
X106842389Y-75858814D01*
X106798689Y-75944581D01*
X106789390Y-75962831D01*
X106770832Y-76080000D01*
X99959168Y-76080000D01*
X99940610Y-75962831D01*
X99931311Y-75944581D01*
X99887611Y-75858814D01*
X99887609Y-75858812D01*
X99886753Y-75857131D01*
X99802869Y-75773247D01*
X99801188Y-75772391D01*
X99801186Y-75772389D01*
X99698853Y-75720248D01*
X99697169Y-75719390D01*
X99592230Y-75702769D01*
X99581863Y-75701127D01*
X99580000Y-75700832D01*
X99578137Y-75701127D01*
X99567770Y-75702769D01*
X99462831Y-75719390D01*
X99461147Y-75720248D01*
X99358814Y-75772389D01*
X99358812Y-75772391D01*
X99357131Y-75773247D01*
X99273247Y-75857131D01*
X99272391Y-75858812D01*
X99272389Y-75858814D01*
X99228689Y-75944581D01*
X99219390Y-75962831D01*
X99200832Y-76080000D01*
X96172094Y-76080000D01*
X96108309Y-75979490D01*
X96092555Y-75964696D01*
X95988869Y-75867328D01*
X95988866Y-75867326D01*
X95987763Y-75866290D01*
X95986436Y-75865561D01*
X95986434Y-75865559D01*
X95844179Y-75787354D01*
X95842853Y-75786625D01*
X95841393Y-75786250D01*
X95841390Y-75786249D01*
X95703313Y-75750797D01*
X95682683Y-75745500D01*
X95558822Y-75745500D01*
X95488539Y-75754379D01*
X95437434Y-75760835D01*
X95437433Y-75760835D01*
X95435939Y-75761024D01*
X95434543Y-75761577D01*
X95434538Y-75761578D01*
X95283587Y-75821344D01*
X95283585Y-75821345D01*
X95282186Y-75821899D01*
X95280966Y-75822786D01*
X95280965Y-75822786D01*
X95153514Y-75915385D01*
X95148403Y-75919098D01*
X95141979Y-75926863D01*
X95044711Y-76044440D01*
X95042995Y-76046514D01*
X95042354Y-76047875D01*
X95042354Y-76047876D01*
X95028114Y-76078137D01*
X94972586Y-76196141D01*
X94972303Y-76197623D01*
X94972302Y-76197627D01*
X94941975Y-76356612D01*
X94941600Y-76358577D01*
X75200500Y-76358577D01*
X75200500Y-75414061D01*
X75205948Y-75398836D01*
X75253292Y-75341147D01*
X75291396Y-75294717D01*
X75294717Y-75291396D01*
X75398836Y-75205948D01*
X75414061Y-75200500D01*
X114403123Y-75200500D01*
X114420094Y-75207529D01*
G37*
%TD.AperFunction*%
%TD*%
M02*
