%TF.GenerationSoftware,KiCad,Pcbnew,6.0.5-a6ca702e91~116~ubuntu22.04.1*%
%TF.CreationDate,2022-07-01T21:08:51-07:00*%
%TF.ProjectId,OSSG_v0p3,4f535347-5f76-4307-9033-2e6b69636164,v0.3*%
%TF.SameCoordinates,Original*%
%TF.FileFunction,Legend,Bot*%
%TF.FilePolarity,Positive*%
%FSLAX46Y46*%
G04 Gerber Fmt 4.6, Leading zero omitted, Abs format (unit mm)*
G04 Created by KiCad (PCBNEW 6.0.5-a6ca702e91~116~ubuntu22.04.1) date 2022-07-01 21:08:51*
%MOMM*%
%LPD*%
G01*
G04 APERTURE LIST*
%ADD10C,0.150000*%
%ADD11C,0.070000*%
%ADD12C,0.060000*%
%ADD13C,0.127000*%
%ADD14C,0.200000*%
%ADD15C,0.120000*%
%ADD16C,0.800000*%
%ADD17C,0.381000*%
%ADD18O,1.250000X0.950000*%
%ADD19O,0.890000X1.550000*%
%ADD20R,1.550000X0.600000*%
%ADD21C,1.500000*%
%ADD22C,1.000000*%
G04 APERTURE END LIST*
D10*
X156090000Y-80360000D02*
X157700000Y-80000000D01*
X157850000Y-79930000D02*
X157690000Y-80160000D01*
X157840000Y-79920000D02*
X157560000Y-79860000D01*
X156230000Y-79810000D02*
X156530000Y-79810000D01*
D11*
X84069047Y-76376190D02*
X83783333Y-76376190D01*
X83926190Y-76876190D02*
X83926190Y-76376190D01*
X83426190Y-76852380D02*
X83473809Y-76876190D01*
X83569047Y-76876190D01*
X83616666Y-76852380D01*
X83640476Y-76804761D01*
X83640476Y-76614285D01*
X83616666Y-76566666D01*
X83569047Y-76542857D01*
X83473809Y-76542857D01*
X83426190Y-76566666D01*
X83402380Y-76614285D01*
X83402380Y-76661904D01*
X83640476Y-76709523D01*
X82973809Y-76876190D02*
X82973809Y-76614285D01*
X82997619Y-76566666D01*
X83045238Y-76542857D01*
X83140476Y-76542857D01*
X83188095Y-76566666D01*
X82973809Y-76852380D02*
X83021428Y-76876190D01*
X83140476Y-76876190D01*
X83188095Y-76852380D01*
X83211904Y-76804761D01*
X83211904Y-76757142D01*
X83188095Y-76709523D01*
X83140476Y-76685714D01*
X83021428Y-76685714D01*
X82973809Y-76661904D01*
X82735714Y-76876190D02*
X82735714Y-76542857D01*
X82735714Y-76590476D02*
X82711904Y-76566666D01*
X82664285Y-76542857D01*
X82592857Y-76542857D01*
X82545238Y-76566666D01*
X82521428Y-76614285D01*
X82521428Y-76876190D01*
X82521428Y-76614285D02*
X82497619Y-76566666D01*
X82450000Y-76542857D01*
X82378571Y-76542857D01*
X82330952Y-76566666D01*
X82307142Y-76614285D01*
X82307142Y-76876190D01*
X81973809Y-76376190D02*
X81878571Y-76376190D01*
X81830952Y-76400000D01*
X81783333Y-76447619D01*
X81759523Y-76542857D01*
X81759523Y-76709523D01*
X81783333Y-76804761D01*
X81830952Y-76852380D01*
X81878571Y-76876190D01*
X81973809Y-76876190D01*
X82021428Y-76852380D01*
X82069047Y-76804761D01*
X82092857Y-76709523D01*
X82092857Y-76542857D01*
X82069047Y-76447619D01*
X82021428Y-76400000D01*
X81973809Y-76376190D01*
X81545238Y-76542857D02*
X81545238Y-77042857D01*
X81545238Y-76566666D02*
X81497619Y-76542857D01*
X81402380Y-76542857D01*
X81354761Y-76566666D01*
X81330952Y-76590476D01*
X81307142Y-76638095D01*
X81307142Y-76780952D01*
X81330952Y-76828571D01*
X81354761Y-76852380D01*
X81402380Y-76876190D01*
X81497619Y-76876190D01*
X81545238Y-76852380D01*
X80902380Y-76852380D02*
X80950000Y-76876190D01*
X81045238Y-76876190D01*
X81092857Y-76852380D01*
X81116666Y-76804761D01*
X81116666Y-76614285D01*
X81092857Y-76566666D01*
X81045238Y-76542857D01*
X80950000Y-76542857D01*
X80902380Y-76566666D01*
X80878571Y-76614285D01*
X80878571Y-76661904D01*
X81116666Y-76709523D01*
X80664285Y-76542857D02*
X80664285Y-76876190D01*
X80664285Y-76590476D02*
X80640476Y-76566666D01*
X80592857Y-76542857D01*
X80521428Y-76542857D01*
X80473809Y-76566666D01*
X80450000Y-76614285D01*
X80450000Y-76876190D01*
X80235714Y-76852380D02*
X80164285Y-76876190D01*
X80045238Y-76876190D01*
X79997619Y-76852380D01*
X79973809Y-76828571D01*
X79950000Y-76780952D01*
X79950000Y-76733333D01*
X79973809Y-76685714D01*
X79997619Y-76661904D01*
X80045238Y-76638095D01*
X80140476Y-76614285D01*
X80188095Y-76590476D01*
X80211904Y-76566666D01*
X80235714Y-76519047D01*
X80235714Y-76471428D01*
X80211904Y-76423809D01*
X80188095Y-76400000D01*
X80140476Y-76376190D01*
X80021428Y-76376190D01*
X79950000Y-76400000D01*
X79735714Y-76876190D02*
X79735714Y-76542857D01*
X79735714Y-76590476D02*
X79711904Y-76566666D01*
X79664285Y-76542857D01*
X79592857Y-76542857D01*
X79545238Y-76566666D01*
X79521428Y-76614285D01*
X79521428Y-76876190D01*
X79521428Y-76614285D02*
X79497619Y-76566666D01*
X79450000Y-76542857D01*
X79378571Y-76542857D01*
X79330952Y-76566666D01*
X79307142Y-76614285D01*
X79307142Y-76876190D01*
X78854761Y-76876190D02*
X78854761Y-76614285D01*
X78878571Y-76566666D01*
X78926190Y-76542857D01*
X79021428Y-76542857D01*
X79069047Y-76566666D01*
X78854761Y-76852380D02*
X78902380Y-76876190D01*
X79021428Y-76876190D01*
X79069047Y-76852380D01*
X79092857Y-76804761D01*
X79092857Y-76757142D01*
X79069047Y-76709523D01*
X79021428Y-76685714D01*
X78902380Y-76685714D01*
X78854761Y-76661904D01*
X78616666Y-76876190D02*
X78616666Y-76542857D01*
X78616666Y-76638095D02*
X78592857Y-76590476D01*
X78569047Y-76566666D01*
X78521428Y-76542857D01*
X78473809Y-76542857D01*
X78378571Y-76542857D02*
X78188095Y-76542857D01*
X78307142Y-76376190D02*
X78307142Y-76804761D01*
X78283333Y-76852380D01*
X78235714Y-76876190D01*
X78188095Y-76876190D01*
X77759523Y-76400000D02*
X77807142Y-76376190D01*
X77878571Y-76376190D01*
X77950000Y-76400000D01*
X77997619Y-76447619D01*
X78021428Y-76495238D01*
X78045238Y-76590476D01*
X78045238Y-76661904D01*
X78021428Y-76757142D01*
X77997619Y-76804761D01*
X77950000Y-76852380D01*
X77878571Y-76876190D01*
X77830952Y-76876190D01*
X77759523Y-76852380D01*
X77735714Y-76828571D01*
X77735714Y-76661904D01*
X77830952Y-76661904D01*
X77450000Y-76876190D02*
X77497619Y-76852380D01*
X77521428Y-76804761D01*
X77521428Y-76376190D01*
X77045238Y-76876190D02*
X77045238Y-76614285D01*
X77069047Y-76566666D01*
X77116666Y-76542857D01*
X77211904Y-76542857D01*
X77259523Y-76566666D01*
X77045238Y-76852380D02*
X77092857Y-76876190D01*
X77211904Y-76876190D01*
X77259523Y-76852380D01*
X77283333Y-76804761D01*
X77283333Y-76757142D01*
X77259523Y-76709523D01*
X77211904Y-76685714D01*
X77092857Y-76685714D01*
X77045238Y-76661904D01*
X76830952Y-76852380D02*
X76783333Y-76876190D01*
X76688095Y-76876190D01*
X76640476Y-76852380D01*
X76616666Y-76804761D01*
X76616666Y-76780952D01*
X76640476Y-76733333D01*
X76688095Y-76709523D01*
X76759523Y-76709523D01*
X76807142Y-76685714D01*
X76830952Y-76638095D01*
X76830952Y-76614285D01*
X76807142Y-76566666D01*
X76759523Y-76542857D01*
X76688095Y-76542857D01*
X76640476Y-76566666D01*
X76426190Y-76852380D02*
X76378571Y-76876190D01*
X76283333Y-76876190D01*
X76235714Y-76852380D01*
X76211904Y-76804761D01*
X76211904Y-76780952D01*
X76235714Y-76733333D01*
X76283333Y-76709523D01*
X76354761Y-76709523D01*
X76402380Y-76685714D01*
X76426190Y-76638095D01*
X76426190Y-76614285D01*
X76402380Y-76566666D01*
X76354761Y-76542857D01*
X76283333Y-76542857D01*
X76235714Y-76566666D01*
X75807142Y-76852380D02*
X75854761Y-76876190D01*
X75950000Y-76876190D01*
X75997619Y-76852380D01*
X76021428Y-76804761D01*
X76021428Y-76614285D01*
X75997619Y-76566666D01*
X75950000Y-76542857D01*
X75854761Y-76542857D01*
X75807142Y-76566666D01*
X75783333Y-76614285D01*
X75783333Y-76661904D01*
X76021428Y-76709523D01*
X75592857Y-76852380D02*
X75545238Y-76876190D01*
X75450000Y-76876190D01*
X75402380Y-76852380D01*
X75378571Y-76804761D01*
X75378571Y-76780952D01*
X75402380Y-76733333D01*
X75450000Y-76709523D01*
X75521428Y-76709523D01*
X75569047Y-76685714D01*
X75592857Y-76638095D01*
X75592857Y-76614285D01*
X75569047Y-76566666D01*
X75521428Y-76542857D01*
X75450000Y-76542857D01*
X75402380Y-76566666D01*
X95591619Y-77592190D02*
X95591619Y-77092190D01*
X95472571Y-77092190D01*
X95401142Y-77116000D01*
X95353523Y-77163619D01*
X95329714Y-77211238D01*
X95305904Y-77306476D01*
X95305904Y-77377904D01*
X95329714Y-77473142D01*
X95353523Y-77520761D01*
X95401142Y-77568380D01*
X95472571Y-77592190D01*
X95591619Y-77592190D01*
X94901142Y-77568380D02*
X94948761Y-77592190D01*
X95044000Y-77592190D01*
X95091619Y-77568380D01*
X95115428Y-77520761D01*
X95115428Y-77330285D01*
X95091619Y-77282666D01*
X95044000Y-77258857D01*
X94948761Y-77258857D01*
X94901142Y-77282666D01*
X94877333Y-77330285D01*
X94877333Y-77377904D01*
X95115428Y-77425523D01*
X94686857Y-77568380D02*
X94639238Y-77592190D01*
X94544000Y-77592190D01*
X94496380Y-77568380D01*
X94472571Y-77520761D01*
X94472571Y-77496952D01*
X94496380Y-77449333D01*
X94544000Y-77425523D01*
X94615428Y-77425523D01*
X94663047Y-77401714D01*
X94686857Y-77354095D01*
X94686857Y-77330285D01*
X94663047Y-77282666D01*
X94615428Y-77258857D01*
X94544000Y-77258857D01*
X94496380Y-77282666D01*
X94258285Y-77592190D02*
X94258285Y-77258857D01*
X94258285Y-77092190D02*
X94282095Y-77116000D01*
X94258285Y-77139809D01*
X94234476Y-77116000D01*
X94258285Y-77092190D01*
X94258285Y-77139809D01*
X93805904Y-77258857D02*
X93805904Y-77663619D01*
X93829714Y-77711238D01*
X93853523Y-77735047D01*
X93901142Y-77758857D01*
X93972571Y-77758857D01*
X94020190Y-77735047D01*
X93805904Y-77568380D02*
X93853523Y-77592190D01*
X93948761Y-77592190D01*
X93996380Y-77568380D01*
X94020190Y-77544571D01*
X94044000Y-77496952D01*
X94044000Y-77354095D01*
X94020190Y-77306476D01*
X93996380Y-77282666D01*
X93948761Y-77258857D01*
X93853523Y-77258857D01*
X93805904Y-77282666D01*
X93567809Y-77258857D02*
X93567809Y-77592190D01*
X93567809Y-77306476D02*
X93544000Y-77282666D01*
X93496380Y-77258857D01*
X93424952Y-77258857D01*
X93377333Y-77282666D01*
X93353523Y-77330285D01*
X93353523Y-77592190D01*
X93115428Y-77544571D02*
X93091619Y-77568380D01*
X93115428Y-77592190D01*
X93139238Y-77568380D01*
X93115428Y-77544571D01*
X93115428Y-77592190D01*
X93115428Y-77282666D02*
X93091619Y-77306476D01*
X93115428Y-77330285D01*
X93139238Y-77306476D01*
X93115428Y-77282666D01*
X93115428Y-77330285D01*
X92210666Y-77544571D02*
X92234476Y-77568380D01*
X92305904Y-77592190D01*
X92353523Y-77592190D01*
X92424952Y-77568380D01*
X92472571Y-77520761D01*
X92496380Y-77473142D01*
X92520190Y-77377904D01*
X92520190Y-77306476D01*
X92496380Y-77211238D01*
X92472571Y-77163619D01*
X92424952Y-77116000D01*
X92353523Y-77092190D01*
X92305904Y-77092190D01*
X92234476Y-77116000D01*
X92210666Y-77139809D01*
X91782095Y-77592190D02*
X91782095Y-77330285D01*
X91805904Y-77282666D01*
X91853523Y-77258857D01*
X91948761Y-77258857D01*
X91996380Y-77282666D01*
X91782095Y-77568380D02*
X91829714Y-77592190D01*
X91948761Y-77592190D01*
X91996380Y-77568380D01*
X92020190Y-77520761D01*
X92020190Y-77473142D01*
X91996380Y-77425523D01*
X91948761Y-77401714D01*
X91829714Y-77401714D01*
X91782095Y-77377904D01*
X91591619Y-77258857D02*
X91472571Y-77592190D01*
X91353523Y-77258857D02*
X91472571Y-77592190D01*
X91520190Y-77711238D01*
X91544000Y-77735047D01*
X91591619Y-77758857D01*
X90948761Y-77592190D02*
X90948761Y-77092190D01*
X90948761Y-77568380D02*
X90996380Y-77592190D01*
X91091619Y-77592190D01*
X91139238Y-77568380D01*
X91163047Y-77544571D01*
X91186857Y-77496952D01*
X91186857Y-77354095D01*
X91163047Y-77306476D01*
X91139238Y-77282666D01*
X91091619Y-77258857D01*
X90996380Y-77258857D01*
X90948761Y-77282666D01*
X90520190Y-77568380D02*
X90567809Y-77592190D01*
X90663047Y-77592190D01*
X90710666Y-77568380D01*
X90734476Y-77520761D01*
X90734476Y-77330285D01*
X90710666Y-77282666D01*
X90663047Y-77258857D01*
X90567809Y-77258857D01*
X90520190Y-77282666D01*
X90496380Y-77330285D01*
X90496380Y-77377904D01*
X90734476Y-77425523D01*
X90282095Y-77258857D02*
X90282095Y-77592190D01*
X90282095Y-77306476D02*
X90258285Y-77282666D01*
X90210666Y-77258857D01*
X90139238Y-77258857D01*
X90091619Y-77282666D01*
X90067809Y-77330285D01*
X90067809Y-77592190D01*
X89448761Y-77592190D02*
X89448761Y-77092190D01*
X89258285Y-77092190D01*
X89210666Y-77116000D01*
X89186857Y-77139809D01*
X89163047Y-77187428D01*
X89163047Y-77258857D01*
X89186857Y-77306476D01*
X89210666Y-77330285D01*
X89258285Y-77354095D01*
X89448761Y-77354095D01*
X88948761Y-77592190D02*
X88948761Y-77258857D01*
X88948761Y-77092190D02*
X88972571Y-77116000D01*
X88948761Y-77139809D01*
X88924952Y-77116000D01*
X88948761Y-77092190D01*
X88948761Y-77139809D01*
X88520190Y-77568380D02*
X88567809Y-77592190D01*
X88663047Y-77592190D01*
X88710666Y-77568380D01*
X88734476Y-77520761D01*
X88734476Y-77330285D01*
X88710666Y-77282666D01*
X88663047Y-77258857D01*
X88567809Y-77258857D01*
X88520190Y-77282666D01*
X88496380Y-77330285D01*
X88496380Y-77377904D01*
X88734476Y-77425523D01*
X88282095Y-77592190D02*
X88282095Y-77258857D01*
X88282095Y-77354095D02*
X88258285Y-77306476D01*
X88234476Y-77282666D01*
X88186857Y-77258857D01*
X88139238Y-77258857D01*
X87758285Y-77568380D02*
X87805904Y-77592190D01*
X87901142Y-77592190D01*
X87948761Y-77568380D01*
X87972571Y-77544571D01*
X87996380Y-77496952D01*
X87996380Y-77354095D01*
X87972571Y-77306476D01*
X87948761Y-77282666D01*
X87901142Y-77258857D01*
X87805904Y-77258857D01*
X87758285Y-77282666D01*
X87353523Y-77568380D02*
X87401142Y-77592190D01*
X87496380Y-77592190D01*
X87544000Y-77568380D01*
X87567809Y-77520761D01*
X87567809Y-77330285D01*
X87544000Y-77282666D01*
X87496380Y-77258857D01*
X87401142Y-77258857D01*
X87353523Y-77282666D01*
X87329714Y-77330285D01*
X87329714Y-77377904D01*
X87567809Y-77425523D01*
X87091619Y-77568380D02*
X87091619Y-77592190D01*
X87115428Y-77639809D01*
X87139238Y-77663619D01*
X86496380Y-77592190D02*
X86496380Y-77092190D01*
X86210666Y-77592190D01*
X86210666Y-77092190D01*
X85972571Y-77592190D02*
X85972571Y-77258857D01*
X85972571Y-77092190D02*
X85996380Y-77116000D01*
X85972571Y-77139809D01*
X85948761Y-77116000D01*
X85972571Y-77092190D01*
X85972571Y-77139809D01*
X85520190Y-77568380D02*
X85567809Y-77592190D01*
X85663047Y-77592190D01*
X85710666Y-77568380D01*
X85734476Y-77544571D01*
X85758285Y-77496952D01*
X85758285Y-77354095D01*
X85734476Y-77306476D01*
X85710666Y-77282666D01*
X85663047Y-77258857D01*
X85567809Y-77258857D01*
X85520190Y-77282666D01*
X85305904Y-77592190D02*
X85305904Y-77092190D01*
X85091619Y-77592190D02*
X85091619Y-77330285D01*
X85115428Y-77282666D01*
X85163047Y-77258857D01*
X85234476Y-77258857D01*
X85282095Y-77282666D01*
X85305904Y-77306476D01*
X84782095Y-77592190D02*
X84829714Y-77568380D01*
X84853523Y-77544571D01*
X84877333Y-77496952D01*
X84877333Y-77354095D01*
X84853523Y-77306476D01*
X84829714Y-77282666D01*
X84782095Y-77258857D01*
X84710666Y-77258857D01*
X84663047Y-77282666D01*
X84639238Y-77306476D01*
X84615428Y-77354095D01*
X84615428Y-77496952D01*
X84639238Y-77544571D01*
X84663047Y-77568380D01*
X84710666Y-77592190D01*
X84782095Y-77592190D01*
X84329714Y-77592190D02*
X84377333Y-77568380D01*
X84401142Y-77520761D01*
X84401142Y-77092190D01*
X83924952Y-77592190D02*
X83924952Y-77330285D01*
X83948761Y-77282666D01*
X83996380Y-77258857D01*
X84091619Y-77258857D01*
X84139238Y-77282666D01*
X83924952Y-77568380D02*
X83972571Y-77592190D01*
X84091619Y-77592190D01*
X84139238Y-77568380D01*
X84163047Y-77520761D01*
X84163047Y-77473142D01*
X84139238Y-77425523D01*
X84091619Y-77401714D01*
X83972571Y-77401714D01*
X83924952Y-77377904D01*
X83710666Y-77568380D02*
X83663047Y-77592190D01*
X83567809Y-77592190D01*
X83520190Y-77568380D01*
X83496380Y-77520761D01*
X83496380Y-77496952D01*
X83520190Y-77449333D01*
X83567809Y-77425523D01*
X83639238Y-77425523D01*
X83686857Y-77401714D01*
X83710666Y-77354095D01*
X83710666Y-77330285D01*
X83686857Y-77282666D01*
X83639238Y-77258857D01*
X83567809Y-77258857D01*
X83520190Y-77282666D01*
X82639238Y-77116000D02*
X82686857Y-77092190D01*
X82758285Y-77092190D01*
X82829714Y-77116000D01*
X82877333Y-77163619D01*
X82901142Y-77211238D01*
X82924952Y-77306476D01*
X82924952Y-77377904D01*
X82901142Y-77473142D01*
X82877333Y-77520761D01*
X82829714Y-77568380D01*
X82758285Y-77592190D01*
X82710666Y-77592190D01*
X82639238Y-77568380D01*
X82615428Y-77544571D01*
X82615428Y-77377904D01*
X82710666Y-77377904D01*
X82401142Y-77592190D02*
X82401142Y-77258857D01*
X82401142Y-77354095D02*
X82377333Y-77306476D01*
X82353523Y-77282666D01*
X82305904Y-77258857D01*
X82258285Y-77258857D01*
X81877333Y-77592190D02*
X81877333Y-77330285D01*
X81901142Y-77282666D01*
X81948761Y-77258857D01*
X82044000Y-77258857D01*
X82091619Y-77282666D01*
X81877333Y-77568380D02*
X81924952Y-77592190D01*
X82044000Y-77592190D01*
X82091619Y-77568380D01*
X82115428Y-77520761D01*
X82115428Y-77473142D01*
X82091619Y-77425523D01*
X82044000Y-77401714D01*
X81924952Y-77401714D01*
X81877333Y-77377904D01*
X81686857Y-77258857D02*
X81567809Y-77592190D01*
X81448761Y-77258857D02*
X81567809Y-77592190D01*
X81615428Y-77711238D01*
X81639238Y-77735047D01*
X81686857Y-77758857D01*
X81234476Y-77568380D02*
X81234476Y-77592190D01*
X81258285Y-77639809D01*
X81282095Y-77663619D01*
X80639238Y-77592190D02*
X80639238Y-77092190D01*
X80448761Y-77092190D01*
X80401142Y-77116000D01*
X80377333Y-77139809D01*
X80353523Y-77187428D01*
X80353523Y-77258857D01*
X80377333Y-77306476D01*
X80401142Y-77330285D01*
X80448761Y-77354095D01*
X80639238Y-77354095D01*
X79924952Y-77592190D02*
X79924952Y-77330285D01*
X79948761Y-77282666D01*
X79996380Y-77258857D01*
X80091619Y-77258857D01*
X80139238Y-77282666D01*
X79924952Y-77568380D02*
X79972571Y-77592190D01*
X80091619Y-77592190D01*
X80139238Y-77568380D01*
X80163047Y-77520761D01*
X80163047Y-77473142D01*
X80139238Y-77425523D01*
X80091619Y-77401714D01*
X79972571Y-77401714D01*
X79924952Y-77377904D01*
X79472571Y-77258857D02*
X79472571Y-77592190D01*
X79686857Y-77258857D02*
X79686857Y-77520761D01*
X79663047Y-77568380D01*
X79615428Y-77592190D01*
X79544000Y-77592190D01*
X79496380Y-77568380D01*
X79472571Y-77544571D01*
X79163047Y-77592190D02*
X79210666Y-77568380D01*
X79234476Y-77520761D01*
X79234476Y-77092190D01*
X78591619Y-77592190D02*
X78591619Y-77092190D01*
X78591619Y-77330285D02*
X78305904Y-77330285D01*
X78305904Y-77592190D02*
X78305904Y-77092190D01*
X77853523Y-77592190D02*
X77853523Y-77330285D01*
X77877333Y-77282666D01*
X77924952Y-77258857D01*
X78020190Y-77258857D01*
X78067809Y-77282666D01*
X77853523Y-77568380D02*
X77901142Y-77592190D01*
X78020190Y-77592190D01*
X78067809Y-77568380D01*
X78091619Y-77520761D01*
X78091619Y-77473142D01*
X78067809Y-77425523D01*
X78020190Y-77401714D01*
X77901142Y-77401714D01*
X77853523Y-77377904D01*
X77615428Y-77592190D02*
X77615428Y-77258857D01*
X77615428Y-77306476D02*
X77591619Y-77282666D01*
X77544000Y-77258857D01*
X77472571Y-77258857D01*
X77424952Y-77282666D01*
X77401142Y-77330285D01*
X77401142Y-77592190D01*
X77401142Y-77330285D02*
X77377333Y-77282666D01*
X77329714Y-77258857D01*
X77258285Y-77258857D01*
X77210666Y-77282666D01*
X77186857Y-77330285D01*
X77186857Y-77592190D01*
X76948761Y-77592190D02*
X76948761Y-77258857D01*
X76948761Y-77092190D02*
X76972571Y-77116000D01*
X76948761Y-77139809D01*
X76924952Y-77116000D01*
X76948761Y-77092190D01*
X76948761Y-77139809D01*
X76639238Y-77592190D02*
X76686857Y-77568380D01*
X76710666Y-77520761D01*
X76710666Y-77092190D01*
X76520190Y-77258857D02*
X76329714Y-77258857D01*
X76448761Y-77092190D02*
X76448761Y-77520761D01*
X76424952Y-77568380D01*
X76377333Y-77592190D01*
X76329714Y-77592190D01*
X76091619Y-77592190D02*
X76139238Y-77568380D01*
X76163047Y-77544571D01*
X76186857Y-77496952D01*
X76186857Y-77354095D01*
X76163047Y-77306476D01*
X76139238Y-77282666D01*
X76091619Y-77258857D01*
X76020190Y-77258857D01*
X75972571Y-77282666D01*
X75948761Y-77306476D01*
X75924952Y-77354095D01*
X75924952Y-77496952D01*
X75948761Y-77544571D01*
X75972571Y-77568380D01*
X76020190Y-77592190D01*
X76091619Y-77592190D01*
X75710666Y-77258857D02*
X75710666Y-77592190D01*
X75710666Y-77306476D02*
X75686857Y-77282666D01*
X75639238Y-77258857D01*
X75567809Y-77258857D01*
X75520190Y-77282666D01*
X75496380Y-77330285D01*
X75496380Y-77592190D01*
D10*
X93871285Y-75431285D02*
X93728428Y-75431285D01*
X93657000Y-75467000D01*
X93585571Y-75538428D01*
X93549857Y-75681285D01*
X93549857Y-75931285D01*
X93585571Y-76074142D01*
X93657000Y-76145571D01*
X93728428Y-76181285D01*
X93871285Y-76181285D01*
X93942714Y-76145571D01*
X94014142Y-76074142D01*
X94049857Y-75931285D01*
X94049857Y-75681285D01*
X94014142Y-75538428D01*
X93942714Y-75467000D01*
X93871285Y-75431285D01*
X93228428Y-75681285D02*
X93228428Y-76431285D01*
X93228428Y-75717000D02*
X93157000Y-75681285D01*
X93014142Y-75681285D01*
X92942714Y-75717000D01*
X92907000Y-75752714D01*
X92871285Y-75824142D01*
X92871285Y-76038428D01*
X92907000Y-76109857D01*
X92942714Y-76145571D01*
X93014142Y-76181285D01*
X93157000Y-76181285D01*
X93228428Y-76145571D01*
X92264142Y-76145571D02*
X92335571Y-76181285D01*
X92478428Y-76181285D01*
X92549857Y-76145571D01*
X92585571Y-76074142D01*
X92585571Y-75788428D01*
X92549857Y-75717000D01*
X92478428Y-75681285D01*
X92335571Y-75681285D01*
X92264142Y-75717000D01*
X92228428Y-75788428D01*
X92228428Y-75859857D01*
X92585571Y-75931285D01*
X91907000Y-75681285D02*
X91907000Y-76181285D01*
X91907000Y-75752714D02*
X91871285Y-75717000D01*
X91799857Y-75681285D01*
X91692714Y-75681285D01*
X91621285Y-75717000D01*
X91585571Y-75788428D01*
X91585571Y-76181285D01*
X90692714Y-76145571D02*
X90585571Y-76181285D01*
X90407000Y-76181285D01*
X90335571Y-76145571D01*
X90299857Y-76109857D01*
X90264142Y-76038428D01*
X90264142Y-75967000D01*
X90299857Y-75895571D01*
X90335571Y-75859857D01*
X90407000Y-75824142D01*
X90549857Y-75788428D01*
X90621285Y-75752714D01*
X90657000Y-75717000D01*
X90692714Y-75645571D01*
X90692714Y-75574142D01*
X90657000Y-75502714D01*
X90621285Y-75467000D01*
X90549857Y-75431285D01*
X90371285Y-75431285D01*
X90264142Y-75467000D01*
X89835571Y-76181285D02*
X89907000Y-76145571D01*
X89942714Y-76109857D01*
X89978428Y-76038428D01*
X89978428Y-75824142D01*
X89942714Y-75752714D01*
X89907000Y-75717000D01*
X89835571Y-75681285D01*
X89728428Y-75681285D01*
X89657000Y-75717000D01*
X89621285Y-75752714D01*
X89585571Y-75824142D01*
X89585571Y-76038428D01*
X89621285Y-76109857D01*
X89657000Y-76145571D01*
X89728428Y-76181285D01*
X89835571Y-76181285D01*
X88942714Y-75681285D02*
X88942714Y-76181285D01*
X89264142Y-75681285D02*
X89264142Y-76074142D01*
X89228428Y-76145571D01*
X89157000Y-76181285D01*
X89049857Y-76181285D01*
X88978428Y-76145571D01*
X88942714Y-76109857D01*
X88585571Y-76181285D02*
X88585571Y-75681285D01*
X88585571Y-75824142D02*
X88549857Y-75752714D01*
X88514142Y-75717000D01*
X88442714Y-75681285D01*
X88371285Y-75681285D01*
X87799857Y-76145571D02*
X87871285Y-76181285D01*
X88014142Y-76181285D01*
X88085571Y-76145571D01*
X88121285Y-76109857D01*
X88157000Y-76038428D01*
X88157000Y-75824142D01*
X88121285Y-75752714D01*
X88085571Y-75717000D01*
X88014142Y-75681285D01*
X87871285Y-75681285D01*
X87799857Y-75717000D01*
X87192714Y-76145571D02*
X87264142Y-76181285D01*
X87407000Y-76181285D01*
X87478428Y-76145571D01*
X87514142Y-76074142D01*
X87514142Y-75788428D01*
X87478428Y-75717000D01*
X87407000Y-75681285D01*
X87264142Y-75681285D01*
X87192714Y-75717000D01*
X87157000Y-75788428D01*
X87157000Y-75859857D01*
X87514142Y-75931285D01*
X86299857Y-76145571D02*
X86192714Y-76181285D01*
X86014142Y-76181285D01*
X85942714Y-76145571D01*
X85907000Y-76109857D01*
X85871285Y-76038428D01*
X85871285Y-75967000D01*
X85907000Y-75895571D01*
X85942714Y-75859857D01*
X86014142Y-75824142D01*
X86157000Y-75788428D01*
X86228428Y-75752714D01*
X86264142Y-75717000D01*
X86299857Y-75645571D01*
X86299857Y-75574142D01*
X86264142Y-75502714D01*
X86228428Y-75467000D01*
X86157000Y-75431285D01*
X85978428Y-75431285D01*
X85871285Y-75467000D01*
X85549857Y-76181285D02*
X85549857Y-75681285D01*
X85549857Y-75752714D02*
X85514142Y-75717000D01*
X85442714Y-75681285D01*
X85335571Y-75681285D01*
X85264142Y-75717000D01*
X85228428Y-75788428D01*
X85228428Y-76181285D01*
X85228428Y-75788428D02*
X85192714Y-75717000D01*
X85121285Y-75681285D01*
X85014142Y-75681285D01*
X84942714Y-75717000D01*
X84907000Y-75788428D01*
X84907000Y-76181285D01*
X84228428Y-76181285D02*
X84228428Y-75788428D01*
X84264142Y-75717000D01*
X84335571Y-75681285D01*
X84478428Y-75681285D01*
X84549857Y-75717000D01*
X84228428Y-76145571D02*
X84299857Y-76181285D01*
X84478428Y-76181285D01*
X84549857Y-76145571D01*
X84585571Y-76074142D01*
X84585571Y-76002714D01*
X84549857Y-75931285D01*
X84478428Y-75895571D01*
X84299857Y-75895571D01*
X84228428Y-75859857D01*
X83871285Y-76181285D02*
X83871285Y-75681285D01*
X83871285Y-75824142D02*
X83835571Y-75752714D01*
X83799857Y-75717000D01*
X83728428Y-75681285D01*
X83657000Y-75681285D01*
X83514142Y-75681285D02*
X83228428Y-75681285D01*
X83407000Y-75431285D02*
X83407000Y-76074142D01*
X83371285Y-76145571D01*
X83299857Y-76181285D01*
X83228428Y-76181285D01*
X82014142Y-75467000D02*
X82085571Y-75431285D01*
X82192714Y-75431285D01*
X82299857Y-75467000D01*
X82371285Y-75538428D01*
X82407000Y-75609857D01*
X82442714Y-75752714D01*
X82442714Y-75859857D01*
X82407000Y-76002714D01*
X82371285Y-76074142D01*
X82299857Y-76145571D01*
X82192714Y-76181285D01*
X82121285Y-76181285D01*
X82014142Y-76145571D01*
X81978428Y-76109857D01*
X81978428Y-75859857D01*
X82121285Y-75859857D01*
X81549857Y-76181285D02*
X81621285Y-76145571D01*
X81657000Y-76074142D01*
X81657000Y-75431285D01*
X80942714Y-76181285D02*
X80942714Y-75788428D01*
X80978428Y-75717000D01*
X81049857Y-75681285D01*
X81192714Y-75681285D01*
X81264142Y-75717000D01*
X80942714Y-76145571D02*
X81014142Y-76181285D01*
X81192714Y-76181285D01*
X81264142Y-76145571D01*
X81299857Y-76074142D01*
X81299857Y-76002714D01*
X81264142Y-75931285D01*
X81192714Y-75895571D01*
X81014142Y-75895571D01*
X80942714Y-75859857D01*
X80621285Y-76145571D02*
X80549857Y-76181285D01*
X80407000Y-76181285D01*
X80335571Y-76145571D01*
X80299857Y-76074142D01*
X80299857Y-76038428D01*
X80335571Y-75967000D01*
X80407000Y-75931285D01*
X80514142Y-75931285D01*
X80585571Y-75895571D01*
X80621285Y-75824142D01*
X80621285Y-75788428D01*
X80585571Y-75717000D01*
X80514142Y-75681285D01*
X80407000Y-75681285D01*
X80335571Y-75717000D01*
X80014142Y-76145571D02*
X79942714Y-76181285D01*
X79799857Y-76181285D01*
X79728428Y-76145571D01*
X79692714Y-76074142D01*
X79692714Y-76038428D01*
X79728428Y-75967000D01*
X79799857Y-75931285D01*
X79907000Y-75931285D01*
X79978428Y-75895571D01*
X80014142Y-75824142D01*
X80014142Y-75788428D01*
X79978428Y-75717000D01*
X79907000Y-75681285D01*
X79799857Y-75681285D01*
X79728428Y-75717000D01*
X79085571Y-76145571D02*
X79157000Y-76181285D01*
X79299857Y-76181285D01*
X79371285Y-76145571D01*
X79407000Y-76074142D01*
X79407000Y-75788428D01*
X79371285Y-75717000D01*
X79299857Y-75681285D01*
X79157000Y-75681285D01*
X79085571Y-75717000D01*
X79049857Y-75788428D01*
X79049857Y-75859857D01*
X79407000Y-75931285D01*
X78764142Y-76145571D02*
X78692714Y-76181285D01*
X78549857Y-76181285D01*
X78478428Y-76145571D01*
X78442714Y-76074142D01*
X78442714Y-76038428D01*
X78478428Y-75967000D01*
X78549857Y-75931285D01*
X78657000Y-75931285D01*
X78728428Y-75895571D01*
X78764142Y-75824142D01*
X78764142Y-75788428D01*
X78728428Y-75717000D01*
X78657000Y-75681285D01*
X78549857Y-75681285D01*
X78478428Y-75717000D01*
X77621285Y-75681285D02*
X77442714Y-76181285D01*
X77264142Y-75681285D01*
X76835571Y-75431285D02*
X76764142Y-75431285D01*
X76692714Y-75467000D01*
X76657000Y-75502714D01*
X76621285Y-75574142D01*
X76585571Y-75717000D01*
X76585571Y-75895571D01*
X76621285Y-76038428D01*
X76657000Y-76109857D01*
X76692714Y-76145571D01*
X76764142Y-76181285D01*
X76835571Y-76181285D01*
X76907000Y-76145571D01*
X76942714Y-76109857D01*
X76978428Y-76038428D01*
X77014142Y-75895571D01*
X77014142Y-75717000D01*
X76978428Y-75574142D01*
X76942714Y-75502714D01*
X76907000Y-75467000D01*
X76835571Y-75431285D01*
X76264142Y-76109857D02*
X76228428Y-76145571D01*
X76264142Y-76181285D01*
X76299857Y-76145571D01*
X76264142Y-76109857D01*
X76264142Y-76181285D01*
X75978428Y-75431285D02*
X75514142Y-75431285D01*
X75764142Y-75717000D01*
X75657000Y-75717000D01*
X75585571Y-75752714D01*
X75549857Y-75788428D01*
X75514142Y-75859857D01*
X75514142Y-76038428D01*
X75549857Y-76109857D01*
X75585571Y-76145571D01*
X75657000Y-76181285D01*
X75871285Y-76181285D01*
X75942714Y-76145571D01*
X75978428Y-76109857D01*
D11*
%TO.C,J2*%
X125441190Y-79628333D02*
X125798333Y-79628333D01*
X125869761Y-79604523D01*
X125917380Y-79556904D01*
X125941190Y-79485476D01*
X125941190Y-79437857D01*
X125488809Y-79842619D02*
X125465000Y-79866428D01*
X125441190Y-79914047D01*
X125441190Y-80033095D01*
X125465000Y-80080714D01*
X125488809Y-80104523D01*
X125536428Y-80128333D01*
X125584047Y-80128333D01*
X125655476Y-80104523D01*
X125941190Y-79818809D01*
X125941190Y-80128333D01*
D12*
X125286428Y-81047380D02*
X125286428Y-80742619D01*
X125134047Y-80895000D02*
X125438809Y-80895000D01*
X125186428Y-80047380D02*
X125186428Y-79742619D01*
X125172142Y-79233095D02*
X125153095Y-79252142D01*
X125134047Y-79309285D01*
X125134047Y-79347380D01*
X125153095Y-79404523D01*
X125191190Y-79442619D01*
X125229285Y-79461666D01*
X125305476Y-79480714D01*
X125362619Y-79480714D01*
X125438809Y-79461666D01*
X125476904Y-79442619D01*
X125515000Y-79404523D01*
X125534047Y-79347380D01*
X125534047Y-79309285D01*
X125515000Y-79252142D01*
X125495952Y-79233095D01*
X125134047Y-78871190D02*
X125134047Y-79061666D01*
X125534047Y-79061666D01*
X125134047Y-78737857D02*
X125534047Y-78737857D01*
X125134047Y-78509285D02*
X125362619Y-78680714D01*
X125534047Y-78509285D02*
X125305476Y-78737857D01*
X125134047Y-78275952D02*
X125534047Y-78275952D01*
X125534047Y-78180714D01*
X125515000Y-78123571D01*
X125476904Y-78085476D01*
X125438809Y-78066428D01*
X125362619Y-78047380D01*
X125305476Y-78047380D01*
X125229285Y-78066428D01*
X125191190Y-78085476D01*
X125153095Y-78123571D01*
X125134047Y-78180714D01*
X125134047Y-78275952D01*
X125134047Y-77818809D02*
X125153095Y-77856904D01*
X125172142Y-77875952D01*
X125210238Y-77895000D01*
X125324523Y-77895000D01*
X125362619Y-77875952D01*
X125381666Y-77856904D01*
X125400714Y-77818809D01*
X125400714Y-77761666D01*
X125381666Y-77723571D01*
X125362619Y-77704523D01*
X125324523Y-77685476D01*
X125210238Y-77685476D01*
X125172142Y-77704523D01*
X125153095Y-77723571D01*
X125134047Y-77761666D01*
X125134047Y-77818809D01*
X125400714Y-77342619D02*
X125134047Y-77342619D01*
X125400714Y-77514047D02*
X125191190Y-77514047D01*
X125153095Y-77495000D01*
X125134047Y-77456904D01*
X125134047Y-77399761D01*
X125153095Y-77361666D01*
X125172142Y-77342619D01*
X125400714Y-77209285D02*
X125400714Y-77056904D01*
X125534047Y-77152142D02*
X125191190Y-77152142D01*
X125153095Y-77133095D01*
X125134047Y-77095000D01*
X125134047Y-77056904D01*
D11*
%TO.C,TP9*%
X119600952Y-81228190D02*
X119315238Y-81228190D01*
X119458095Y-81728190D02*
X119458095Y-81228190D01*
X119148571Y-81728190D02*
X119148571Y-81228190D01*
X118958095Y-81228190D01*
X118910476Y-81252000D01*
X118886666Y-81275809D01*
X118862857Y-81323428D01*
X118862857Y-81394857D01*
X118886666Y-81442476D01*
X118910476Y-81466285D01*
X118958095Y-81490095D01*
X119148571Y-81490095D01*
X118624761Y-81728190D02*
X118529523Y-81728190D01*
X118481904Y-81704380D01*
X118458095Y-81680571D01*
X118410476Y-81609142D01*
X118386666Y-81513904D01*
X118386666Y-81323428D01*
X118410476Y-81275809D01*
X118434285Y-81252000D01*
X118481904Y-81228190D01*
X118577142Y-81228190D01*
X118624761Y-81252000D01*
X118648571Y-81275809D01*
X118672380Y-81323428D01*
X118672380Y-81442476D01*
X118648571Y-81490095D01*
X118624761Y-81513904D01*
X118577142Y-81537714D01*
X118481904Y-81537714D01*
X118434285Y-81513904D01*
X118410476Y-81490095D01*
X118386666Y-81442476D01*
%TO.C,TP4*%
X120970952Y-76906190D02*
X120685238Y-76906190D01*
X120828095Y-77406190D02*
X120828095Y-76906190D01*
X120518571Y-77406190D02*
X120518571Y-76906190D01*
X120328095Y-76906190D01*
X120280476Y-76930000D01*
X120256666Y-76953809D01*
X120232857Y-77001428D01*
X120232857Y-77072857D01*
X120256666Y-77120476D01*
X120280476Y-77144285D01*
X120328095Y-77168095D01*
X120518571Y-77168095D01*
X119804285Y-77072857D02*
X119804285Y-77406190D01*
X119923333Y-76882380D02*
X120042380Y-77239523D01*
X119732857Y-77239523D01*
%TO.C,TP3*%
X124780952Y-75546190D02*
X124495238Y-75546190D01*
X124638095Y-76046190D02*
X124638095Y-75546190D01*
X124328571Y-76046190D02*
X124328571Y-75546190D01*
X124138095Y-75546190D01*
X124090476Y-75570000D01*
X124066666Y-75593809D01*
X124042857Y-75641428D01*
X124042857Y-75712857D01*
X124066666Y-75760476D01*
X124090476Y-75784285D01*
X124138095Y-75808095D01*
X124328571Y-75808095D01*
X123876190Y-75546190D02*
X123566666Y-75546190D01*
X123733333Y-75736666D01*
X123661904Y-75736666D01*
X123614285Y-75760476D01*
X123590476Y-75784285D01*
X123566666Y-75831904D01*
X123566666Y-75950952D01*
X123590476Y-75998571D01*
X123614285Y-76022380D01*
X123661904Y-76046190D01*
X123804761Y-76046190D01*
X123852380Y-76022380D01*
X123876190Y-75998571D01*
%TO.C,TP8*%
X96280952Y-80226190D02*
X95995238Y-80226190D01*
X96138095Y-80726190D02*
X96138095Y-80226190D01*
X95828571Y-80726190D02*
X95828571Y-80226190D01*
X95638095Y-80226190D01*
X95590476Y-80250000D01*
X95566666Y-80273809D01*
X95542857Y-80321428D01*
X95542857Y-80392857D01*
X95566666Y-80440476D01*
X95590476Y-80464285D01*
X95638095Y-80488095D01*
X95828571Y-80488095D01*
X95257142Y-80440476D02*
X95304761Y-80416666D01*
X95328571Y-80392857D01*
X95352380Y-80345238D01*
X95352380Y-80321428D01*
X95328571Y-80273809D01*
X95304761Y-80250000D01*
X95257142Y-80226190D01*
X95161904Y-80226190D01*
X95114285Y-80250000D01*
X95090476Y-80273809D01*
X95066666Y-80321428D01*
X95066666Y-80345238D01*
X95090476Y-80392857D01*
X95114285Y-80416666D01*
X95161904Y-80440476D01*
X95257142Y-80440476D01*
X95304761Y-80464285D01*
X95328571Y-80488095D01*
X95352380Y-80535714D01*
X95352380Y-80630952D01*
X95328571Y-80678571D01*
X95304761Y-80702380D01*
X95257142Y-80726190D01*
X95161904Y-80726190D01*
X95114285Y-80702380D01*
X95090476Y-80678571D01*
X95066666Y-80630952D01*
X95066666Y-80535714D01*
X95090476Y-80488095D01*
X95114285Y-80464285D01*
X95161904Y-80440476D01*
D13*
%TO.C,J2*%
X123335000Y-81045000D02*
X123335000Y-77645000D01*
D14*
X123445000Y-81295000D02*
G75*
G03*
X123445000Y-81295000I-100000J0D01*
G01*
D15*
%TO.C,TP16*%
X159700000Y-76090000D02*
G75*
G03*
X159700000Y-76090000I-850000J0D01*
G01*
%TO.C,TP1*%
X117800000Y-83180000D02*
G75*
G03*
X117800000Y-83180000I-600000J0D01*
G01*
%TO.C,TP9*%
X119670000Y-82950000D02*
G75*
G03*
X119670000Y-82950000I-700000J0D01*
G01*
%TO.C,TP6*%
X102180000Y-82360000D02*
G75*
G03*
X102180000Y-82360000I-600000J0D01*
G01*
%TO.C,TP18*%
X128960000Y-76180000D02*
G75*
G03*
X128960000Y-76180000I-850000J0D01*
G01*
%TO.C,TP11*%
X109660000Y-82210000D02*
G75*
G03*
X109660000Y-82210000I-600000J0D01*
G01*
%TO.C,TP10*%
X107300000Y-82270000D02*
G75*
G03*
X107300000Y-82270000I-600000J0D01*
G01*
%TO.C,TP2*%
X119440000Y-77110000D02*
G75*
G03*
X119440000Y-77110000I-600000J0D01*
G01*
%TO.C,TP20*%
X104790000Y-82350000D02*
G75*
G03*
X104790000Y-82350000I-600000J0D01*
G01*
%TO.C,TP21*%
X120900000Y-80660000D02*
G75*
G03*
X120900000Y-80660000I-600000J0D01*
G01*
%TO.C,TP24*%
X91950000Y-82600000D02*
G75*
G03*
X91950000Y-82600000I-600000J0D01*
G01*
%TO.C,TP19*%
X114460000Y-75930000D02*
G75*
G03*
X114460000Y-75930000I-600000J0D01*
G01*
%TO.C,TP7*%
X99660000Y-82400000D02*
G75*
G03*
X99660000Y-82400000I-600000J0D01*
G01*
%TO.C,TP4*%
X121200000Y-76080000D02*
G75*
G03*
X121200000Y-76080000I-700000J0D01*
G01*
%TO.C,TP14*%
X157650000Y-76090000D02*
G75*
G03*
X157650000Y-76090000I-850000J0D01*
G01*
%TO.C,TP15*%
X159550000Y-79200000D02*
G75*
G03*
X159550000Y-79200000I-850000J0D01*
G01*
%TO.C,TP3*%
X123550000Y-76400000D02*
G75*
G03*
X123550000Y-76400000I-700000J0D01*
G01*
%TO.C,TP17*%
X130710000Y-77810000D02*
G75*
G03*
X130710000Y-77810000I-850000J0D01*
G01*
%TO.C,TP8*%
X96350000Y-79250000D02*
G75*
G03*
X96350000Y-79250000I-700000J0D01*
G01*
%TO.C,TP13*%
X157500000Y-79200000D02*
G75*
G03*
X157500000Y-79200000I-850000J0D01*
G01*
%TO.C,TP22*%
X88840000Y-82930000D02*
G75*
G03*
X88840000Y-82930000I-600000J0D01*
G01*
%TD*%
%LPC*%
D16*
%TO.C,SW1*%
X95600000Y-76400000D03*
%TD*%
D17*
%TO.C,U6*%
X85462600Y-82350000D03*
%TD*%
D18*
%TO.C,J1*%
X129400000Y-79900000D03*
D19*
X128400000Y-82600000D03*
X135400000Y-82600000D03*
D18*
X134400000Y-79900000D03*
%TD*%
D20*
%TO.C,J2*%
X124300000Y-80865000D03*
X124300000Y-79865000D03*
X124300000Y-78865000D03*
X124300000Y-77865000D03*
%TD*%
D21*
%TO.C,TP16*%
X158850000Y-76090000D03*
%TD*%
D22*
%TO.C,TP1*%
X117200000Y-83180000D03*
%TD*%
%TO.C,TP9*%
X118970000Y-82950000D03*
%TD*%
%TO.C,TP6*%
X101580000Y-82360000D03*
%TD*%
D21*
%TO.C,TP18*%
X128110000Y-76180000D03*
%TD*%
D22*
%TO.C,TP11*%
X109060000Y-82210000D03*
%TD*%
%TO.C,TP10*%
X106700000Y-82270000D03*
%TD*%
%TO.C,TP2*%
X118840000Y-77110000D03*
%TD*%
%TO.C,TP20*%
X104190000Y-82350000D03*
%TD*%
%TO.C,TP21*%
X120300000Y-80660000D03*
%TD*%
%TO.C,TP24*%
X91350000Y-82600000D03*
%TD*%
%TO.C,TP19*%
X113860000Y-75930000D03*
%TD*%
%TO.C,TP7*%
X99060000Y-82400000D03*
%TD*%
%TO.C,TP4*%
X120500000Y-76080000D03*
%TD*%
D21*
%TO.C,TP14*%
X156800000Y-76090000D03*
%TD*%
%TO.C,TP15*%
X158700000Y-79200000D03*
%TD*%
D22*
%TO.C,TP3*%
X122850000Y-76400000D03*
%TD*%
D21*
%TO.C,TP17*%
X129860000Y-77810000D03*
%TD*%
D22*
%TO.C,TP8*%
X95650000Y-79250000D03*
%TD*%
D21*
%TO.C,TP13*%
X156650000Y-79200000D03*
%TD*%
D22*
%TO.C,TP22*%
X88240000Y-82930000D03*
%TD*%
G36*
X117192121Y-76910002D02*
G01*
X117238614Y-76963658D01*
X117250000Y-77016000D01*
X117250000Y-81993758D01*
X117229998Y-82061879D01*
X117176342Y-82108372D01*
X117123758Y-82119758D01*
X112165758Y-82110241D01*
X112097676Y-82090108D01*
X112051286Y-82036363D01*
X112040000Y-81984241D01*
X112040000Y-77016000D01*
X112060002Y-76947879D01*
X112113658Y-76901386D01*
X112166000Y-76890000D01*
X117124000Y-76890000D01*
X117192121Y-76910002D01*
G37*
M02*
