M48
; DRILL file {KiCad 6.0.5-a6ca702e91~116~ubuntu22.04.1} date Sun 26 Jun 2022 04:54:08 PM
; FORMAT={-:-/ absolute / inch / decimal}
; #@! TF.CreationDate,2022-06-26T16:54:08-07:00
; #@! TF.GenerationSoftware,Kicad,Pcbnew,6.0.5-a6ca702e91~116~ubuntu22.04.1
; #@! TF.FileFunction,Plated,1,4,PTH
FMAT,2
INCH
; #@! TA.AperFunction,Plated,PTH,ViaDrill
T1C0.0079
; #@! TA.AperFunction,Plated,PTH,ViaDrill
T2C0.0118
; #@! TA.AperFunction,Plated,PTH,ComponentDrill
T3C0.0150
; #@! TA.AperFunction,Plated,PTH,ViaDrill
T4C0.0157
; #@! TA.AperFunction,Plated,PTH,ComponentDrill
T5C0.0197
; #@! TA.AperFunction,Plated,PTH,ComponentDrill
T6C0.0217
%
G90
G05
T1
X3.2756Y-3.187
X3.2815Y-3.2441
X3.2953Y-3.1614
X3.315Y-3.2461
X3.3524Y-3.1732
X3.4201Y-3.2358
X3.4232Y-3.1713
X3.5035Y-3.2091
X3.6787Y-3.1024
X3.811Y-3.1063
X3.8701Y-3.0453
X3.9205Y-2.9953
X3.9205Y-3.0268
X3.9205Y-3.0583
X3.9205Y-3.0898
X3.9205Y-3.1213
X3.9209Y-3.1488
X3.9465Y-3.1614
X3.9492Y-3.2736
X3.9748Y-3.1614
X4.0063Y-3.1614
X4.0378Y-3.1614
X4.048Y-3.2701
X4.0693Y-3.1614
X4.1008Y-3.1614
X4.1323Y-3.1614
X4.1429Y-3.2358
X4.1638Y-3.1614
X4.1929Y-3.1614
X4.2185Y-2.9953
X4.2185Y-3.0268
X4.2185Y-3.0815
X4.2185Y-3.1142
X4.2185Y-3.1484
X4.2417Y-3.2
X4.2871Y-3.1527
X4.2988Y-2.9973
X4.3264Y-3.176
X4.3311Y-3.2232
X4.3401Y-3.002
X4.3441Y-3.2787
X4.3583Y-3.1028
X4.3583Y-3.1776
X4.3598Y-3.2087
X4.361Y-3.2437
X4.4232Y-3.2791
X4.4535Y-3.2846
X4.4843Y-3.2815
X4.5135Y-3.2816
X4.5169Y-2.9709
X4.5626Y-3.2787
X4.6453Y-2.9961
X4.6622Y-3.0807
X4.6723Y-3.1895
X4.6787Y-3.0358
X4.6803Y-3.2756
X4.7181Y-3.2518
X4.7244Y-3.0594
X4.7319Y-3.2772
X4.7394Y-3.2244
X4.7618Y-3.0728
X4.7726Y-3.1309
X4.7726Y-3.253
X4.7728Y-3.024
X4.7736Y-3.2886
X4.7972Y-3.1959
X4.811Y-2.9843
X4.8183Y-3.2158
X4.8346Y-3.0728
X4.8396Y-3.2352
X4.8687Y-3.2548
X4.8823Y-3.0272
X4.9133Y-3.0302
X4.9606Y-3.2559
X4.9803Y-3.2224
X5.0591Y-3.1594
X5.0659Y-3.0856
X5.1654Y-3.0167
X5.2963Y-3.0679
X5.3824Y-3.0969
X5.3868Y-3.0167
X5.3967Y-2.9892
X5.4087Y-3.0669
X5.4154Y-3.0984
X5.4276Y-3.1255
X5.435Y-2.9803
X5.461Y-3.2579
X5.497Y-2.9911
X5.498Y-3.2598
X5.5079Y-3.186
X5.5981Y-3.2149
X5.6388Y-3.0945
X5.6915Y-3.2291
X5.713Y-3.1435
X6.0059Y-3.0915
X6.123Y-2.9803
X6.127Y-3.063
X6.2205Y-3.037
T2
X4.3647Y-3.0719
X4.3736Y-2.9941
X4.9106Y-3.1441
X4.9988Y-3.0299
X5.251Y-3.0383
X5.3004Y-2.9957
X5.7392Y-3.1624
X5.7994Y-3.1435
X5.8034Y-2.9923
T3
X3.3647Y-3.2421
T4
X4.4323Y-3.1051
X4.4327Y-3.2098
X4.4331Y-3.048
X4.4335Y-3.1591
X4.4846Y-3.1047
X4.485Y-3.2094
X4.4854Y-3.0476
X4.4858Y-3.1587
X4.5394Y-3.1055
X4.5398Y-3.2102
X4.5402Y-3.0484
X4.5406Y-3.1594
X4.5921Y-3.1059
X4.5925Y-3.2106
X4.5929Y-3.0488
X4.5933Y-3.1598
X5.1004Y-3.252
X5.1535Y-3.252
X5.2323Y-3.252
X5.2894Y-3.252
T5
G00X5.0551Y-3.2392
M15
G01X5.0551Y-3.2648
M16
G05
G00X5.3307Y-3.2392
M15
G01X5.3307Y-3.2648
M16
G05
T6
G00X5.0886Y-3.1457
M15
G01X5.1004Y-3.1457
M16
G05
G00X5.2854Y-3.1457
M15
G01X5.2972Y-3.1457
M16
G05
T0
M30
