%TF.GenerationSoftware,KiCad,Pcbnew,6.0.5-a6ca702e91~116~ubuntu22.04.1*%
%TF.CreationDate,2022-07-01T18:09:48-07:00*%
%TF.ProjectId,OSSG_v0p3,4f535347-5f76-4307-9033-2e6b69636164,v0.3*%
%TF.SameCoordinates,Original*%
%TF.FileFunction,Soldermask,Bot*%
%TF.FilePolarity,Negative*%
%FSLAX46Y46*%
G04 Gerber Fmt 4.6, Leading zero omitted, Abs format (unit mm)*
G04 Created by KiCad (PCBNEW 6.0.5-a6ca702e91~116~ubuntu22.04.1) date 2022-07-01 18:09:48*
%MOMM*%
%LPD*%
G01*
G04 APERTURE LIST*
%ADD10C,0.800000*%
%ADD11C,0.381000*%
%ADD12O,1.250000X0.950000*%
%ADD13O,0.890000X1.550000*%
%ADD14R,1.550000X0.600000*%
%ADD15C,1.500000*%
%ADD16C,1.000000*%
G04 APERTURE END LIST*
D10*
%TO.C,SW1*%
X95600000Y-76400000D03*
%TD*%
D11*
%TO.C,U6*%
X85462600Y-82350000D03*
%TD*%
D12*
%TO.C,J1*%
X129400000Y-79900000D03*
D13*
X128400000Y-82600000D03*
X135400000Y-82600000D03*
D12*
X134400000Y-79900000D03*
%TD*%
D14*
%TO.C,J2*%
X124300000Y-80865000D03*
X124300000Y-79865000D03*
X124300000Y-78865000D03*
X124300000Y-77865000D03*
%TD*%
D15*
%TO.C,TP16*%
X158850000Y-76090000D03*
%TD*%
D16*
%TO.C,TP1*%
X117200000Y-83180000D03*
%TD*%
%TO.C,TP9*%
X118970000Y-82950000D03*
%TD*%
%TO.C,TP6*%
X101580000Y-82360000D03*
%TD*%
D15*
%TO.C,TP18*%
X128110000Y-76180000D03*
%TD*%
D16*
%TO.C,TP11*%
X109060000Y-82210000D03*
%TD*%
%TO.C,TP10*%
X106700000Y-82270000D03*
%TD*%
%TO.C,TP2*%
X118840000Y-77110000D03*
%TD*%
%TO.C,TP20*%
X104190000Y-82350000D03*
%TD*%
%TO.C,TP21*%
X120300000Y-80660000D03*
%TD*%
%TO.C,TP24*%
X91350000Y-82600000D03*
%TD*%
%TO.C,TP19*%
X113860000Y-75930000D03*
%TD*%
%TO.C,TP7*%
X99060000Y-82400000D03*
%TD*%
%TO.C,TP4*%
X120500000Y-76080000D03*
%TD*%
D15*
%TO.C,TP14*%
X156800000Y-76090000D03*
%TD*%
%TO.C,TP15*%
X158700000Y-79200000D03*
%TD*%
D16*
%TO.C,TP3*%
X122850000Y-76400000D03*
%TD*%
D15*
%TO.C,TP17*%
X129860000Y-77810000D03*
%TD*%
D16*
%TO.C,TP8*%
X95650000Y-79250000D03*
%TD*%
D15*
%TO.C,TP13*%
X156650000Y-79200000D03*
%TD*%
D16*
%TO.C,TP22*%
X88240000Y-82930000D03*
%TD*%
G36*
X117192121Y-76910002D02*
G01*
X117238614Y-76963658D01*
X117250000Y-77016000D01*
X117250000Y-81993758D01*
X117229998Y-82061879D01*
X117176342Y-82108372D01*
X117123758Y-82119758D01*
X112165758Y-82110241D01*
X112097676Y-82090108D01*
X112051286Y-82036363D01*
X112040000Y-81984241D01*
X112040000Y-77016000D01*
X112060002Y-76947879D01*
X112113658Y-76901386D01*
X112166000Y-76890000D01*
X117124000Y-76890000D01*
X117192121Y-76910002D01*
G37*
M02*
