%TF.GenerationSoftware,KiCad,Pcbnew,6.0.5-a6ca702e91~116~ubuntu22.04.1*%
%TF.CreationDate,2022-06-26T16:54:06-07:00*%
%TF.ProjectId,OSSG_v0p3,4f535347-5f76-4307-9033-2e6b69636164,v0.3*%
%TF.SameCoordinates,Original*%
%TF.FileFunction,Soldermask,Top*%
%TF.FilePolarity,Negative*%
%FSLAX46Y46*%
G04 Gerber Fmt 4.6, Leading zero omitted, Abs format (unit mm)*
G04 Created by KiCad (PCBNEW 6.0.5-a6ca702e91~116~ubuntu22.04.1) date 2022-06-26 16:54:06*
%MOMM*%
%LPD*%
G01*
G04 APERTURE LIST*
G04 Aperture macros list*
%AMRoundRect*
0 Rectangle with rounded corners*
0 $1 Rounding radius*
0 $2 $3 $4 $5 $6 $7 $8 $9 X,Y pos of 4 corners*
0 Add a 4 corners polygon primitive as box body*
4,1,4,$2,$3,$4,$5,$6,$7,$8,$9,$2,$3,0*
0 Add four circle primitives for the rounded corners*
1,1,$1+$1,$2,$3*
1,1,$1+$1,$4,$5*
1,1,$1+$1,$6,$7*
1,1,$1+$1,$8,$9*
0 Add four rect primitives between the rounded corners*
20,1,$1+$1,$2,$3,$4,$5,0*
20,1,$1+$1,$4,$5,$6,$7,0*
20,1,$1+$1,$6,$7,$8,$9,0*
20,1,$1+$1,$8,$9,$2,$3,0*%
%AMFreePoly0*
4,1,103,0.919391,0.822403,0.926250,0.818200,0.934269,0.817569,1.160851,0.702119,1.166075,0.696003,1.173507,0.692924,1.353325,0.513107,1.356403,0.505675,1.362519,0.500452,1.477969,0.273869,1.478600,0.265849,1.482803,0.258991,1.508245,0.098357,1.511543,0.091283,1.519917,0.075198,1.519565,0.074081,1.520059,0.073021,1.523152,0.002182,1.522358,0.000000,1.523152,-0.002182,
1.520059,-0.073021,1.519565,-0.074081,1.519917,-0.075198,1.511543,-0.091283,1.508245,-0.098357,1.482803,-0.258991,1.478600,-0.265849,1.477969,-0.273869,1.362519,-0.500452,1.356403,-0.505675,1.353325,-0.513107,1.173507,-0.692924,1.166075,-0.696003,1.160851,-0.702119,0.934269,-0.817569,0.926250,-0.818200,0.919391,-0.822403,0.668222,-0.862184,0.660400,-0.860306,0.652579,-0.862184,
0.401409,-0.822403,0.394551,-0.818200,0.386531,-0.817569,0.159948,-0.702119,0.154725,-0.696003,0.147293,-0.692925,-0.032524,-0.513107,-0.035603,-0.505675,-0.041719,-0.500451,-0.157169,-0.273869,-0.157800,-0.265850,-0.162003,-0.258991,-0.187445,-0.098355,-0.190741,-0.091288,-0.199117,-0.075198,-0.198765,-0.074081,-0.199259,-0.073021,-0.202352,-0.002181,-0.201558,0.000000,0.203023,0.000000,
0.225408,-0.141336,0.290375,-0.268841,0.391559,-0.370025,0.519062,-0.434992,0.660400,-0.457377,0.801736,-0.434992,0.929241,-0.370025,1.030425,-0.268841,1.095392,-0.141338,1.117777,0.000000,1.095392,0.141338,1.030425,0.268841,0.929241,0.370025,0.801736,0.434992,0.660400,0.457377,0.519062,0.434992,0.391559,0.370025,0.290375,0.268841,0.225408,0.141336,0.203023,0.000000,
-0.201558,0.000000,-0.202352,0.002181,-0.199259,0.073021,-0.198765,0.074081,-0.199117,0.075198,-0.190741,0.091288,-0.187445,0.098355,-0.162003,0.258991,-0.157800,0.265850,-0.157169,0.273869,-0.041719,0.500451,-0.035603,0.505675,-0.032524,0.513107,0.147293,0.692925,0.154725,0.696003,0.159948,0.702119,0.386531,0.817569,0.394551,0.818200,0.401409,0.822403,0.652579,0.862184,
0.660400,0.860306,0.668222,0.862184,0.919391,0.822403,0.919391,0.822403,$1*%
G04 Aperture macros list end*
%ADD10C,0.100000*%
%ADD11RoundRect,0.150000X0.512500X0.150000X-0.512500X0.150000X-0.512500X-0.150000X0.512500X-0.150000X0*%
%ADD12RoundRect,0.147500X-0.172500X0.147500X-0.172500X-0.147500X0.172500X-0.147500X0.172500X0.147500X0*%
%ADD13RoundRect,0.140000X0.170000X-0.140000X0.170000X0.140000X-0.170000X0.140000X-0.170000X-0.140000X0*%
%ADD14C,0.800000*%
%ADD15R,0.900000X1.700000*%
%ADD16R,0.400000X0.510000*%
%ADD17RoundRect,0.135000X0.135000X0.185000X-0.135000X0.185000X-0.135000X-0.185000X0.135000X-0.185000X0*%
%ADD18RoundRect,0.140000X-0.140000X-0.170000X0.140000X-0.170000X0.140000X0.170000X-0.140000X0.170000X0*%
%ADD19R,0.450000X0.600000*%
%ADD20RoundRect,0.140000X-0.170000X0.140000X-0.170000X-0.140000X0.170000X-0.140000X0.170000X0.140000X0*%
%ADD21RoundRect,0.135000X0.185000X-0.135000X0.185000X0.135000X-0.185000X0.135000X-0.185000X-0.135000X0*%
%ADD22RoundRect,0.250000X-0.325000X-0.650000X0.325000X-0.650000X0.325000X0.650000X-0.325000X0.650000X0*%
%ADD23R,0.522000X0.725000*%
%ADD24FreePoly0,180.000000*%
%ADD25C,0.381000*%
%ADD26RoundRect,0.140000X0.140000X0.170000X-0.140000X0.170000X-0.140000X-0.170000X0.140000X-0.170000X0*%
%ADD27RoundRect,0.100000X-0.130000X-0.100000X0.130000X-0.100000X0.130000X0.100000X-0.130000X0.100000X0*%
%ADD28RoundRect,0.014000X0.211000X0.161000X-0.211000X0.161000X-0.211000X-0.161000X0.211000X-0.161000X0*%
%ADD29RoundRect,0.014000X-0.161000X0.211000X-0.161000X-0.211000X0.161000X-0.211000X0.161000X0.211000X0*%
%ADD30RoundRect,0.014000X-0.211000X-0.161000X0.211000X-0.161000X0.211000X0.161000X-0.211000X0.161000X0*%
%ADD31RoundRect,0.014000X0.161000X-0.211000X0.161000X0.211000X-0.161000X0.211000X-0.161000X-0.211000X0*%
%ADD32R,5.400000X5.400000*%
%ADD33RoundRect,0.135000X-0.185000X0.135000X-0.185000X-0.135000X0.185000X-0.135000X0.185000X0.135000X0*%
%ADD34R,0.400000X1.350000*%
%ADD35R,1.200000X1.550000*%
%ADD36O,1.250000X0.950000*%
%ADD37O,0.890000X1.550000*%
%ADD38R,1.500000X1.550000*%
%ADD39RoundRect,0.150000X0.650000X0.150000X-0.650000X0.150000X-0.650000X-0.150000X0.650000X-0.150000X0*%
%ADD40RoundRect,0.050000X-0.075000X0.150000X-0.075000X-0.150000X0.075000X-0.150000X0.075000X0.150000X0*%
%ADD41RoundRect,0.050000X-0.300000X0.150000X-0.300000X-0.150000X0.300000X-0.150000X0.300000X0.150000X0*%
%ADD42RoundRect,0.062500X0.062500X-0.350000X0.062500X0.350000X-0.062500X0.350000X-0.062500X-0.350000X0*%
%ADD43RoundRect,0.062500X0.350000X-0.062500X0.350000X0.062500X-0.350000X0.062500X-0.350000X-0.062500X0*%
%ADD44R,2.600000X2.600000*%
%ADD45RoundRect,0.135000X-0.135000X-0.185000X0.135000X-0.185000X0.135000X0.185000X-0.135000X0.185000X0*%
%ADD46RoundRect,0.150000X-0.587500X-0.150000X0.587500X-0.150000X0.587500X0.150000X-0.587500X0.150000X0*%
G04 APERTURE END LIST*
%TO.C,U6*%
G36*
X86275400Y-82350000D02*
G01*
X86235619Y-82601169D01*
X86120169Y-82827752D01*
X85940352Y-83007569D01*
X85713769Y-83123019D01*
X85462600Y-83162800D01*
X85211431Y-83123019D01*
X84984848Y-83007569D01*
X84805031Y-82827752D01*
X84689581Y-82601169D01*
X84649800Y-82350000D01*
X84652893Y-82279160D01*
X84956533Y-82305725D01*
X84954600Y-82350000D01*
X84979463Y-82506981D01*
X85051619Y-82648595D01*
X85164005Y-82760981D01*
X85305619Y-82833137D01*
X85462600Y-82858000D01*
X85619581Y-82833137D01*
X85761195Y-82760981D01*
X85873581Y-82648595D01*
X85945737Y-82506981D01*
X85970600Y-82350000D01*
X85968667Y-82305725D01*
X86272307Y-82279160D01*
X86275400Y-82350000D01*
G37*
D10*
X86275400Y-82350000D02*
X86235619Y-82601169D01*
X86120169Y-82827752D01*
X85940352Y-83007569D01*
X85713769Y-83123019D01*
X85462600Y-83162800D01*
X85211431Y-83123019D01*
X84984848Y-83007569D01*
X84805031Y-82827752D01*
X84689581Y-82601169D01*
X84649800Y-82350000D01*
X84652893Y-82279160D01*
X84956533Y-82305725D01*
X84954600Y-82350000D01*
X84979463Y-82506981D01*
X85051619Y-82648595D01*
X85164005Y-82760981D01*
X85305619Y-82833137D01*
X85462600Y-82858000D01*
X85619581Y-82833137D01*
X85761195Y-82760981D01*
X85873581Y-82648595D01*
X85945737Y-82506981D01*
X85970600Y-82350000D01*
X85968667Y-82305725D01*
X86272307Y-82279160D01*
X86275400Y-82350000D01*
G36*
X85713769Y-81576981D02*
G01*
X85940352Y-81692431D01*
X86120169Y-81872248D01*
X86235619Y-82098831D01*
X86275400Y-82350000D01*
X86272307Y-82420840D01*
X85968667Y-82394275D01*
X85970600Y-82350000D01*
X85945737Y-82193019D01*
X85873581Y-82051405D01*
X85761195Y-81939019D01*
X85619581Y-81866863D01*
X85462600Y-81842000D01*
X85305619Y-81866863D01*
X85164005Y-81939019D01*
X85051619Y-82051405D01*
X84979463Y-82193019D01*
X84954600Y-82350000D01*
X84956533Y-82394275D01*
X84652893Y-82420840D01*
X84649800Y-82350000D01*
X84689581Y-82098831D01*
X84805031Y-81872248D01*
X84984848Y-81692431D01*
X85211431Y-81576981D01*
X85462600Y-81537200D01*
X85713769Y-81576981D01*
G37*
X85713769Y-81576981D02*
X85940352Y-81692431D01*
X86120169Y-81872248D01*
X86235619Y-82098831D01*
X86275400Y-82350000D01*
X86272307Y-82420840D01*
X85968667Y-82394275D01*
X85970600Y-82350000D01*
X85945737Y-82193019D01*
X85873581Y-82051405D01*
X85761195Y-81939019D01*
X85619581Y-81866863D01*
X85462600Y-81842000D01*
X85305619Y-81866863D01*
X85164005Y-81939019D01*
X85051619Y-82051405D01*
X84979463Y-82193019D01*
X84954600Y-82350000D01*
X84956533Y-82394275D01*
X84652893Y-82420840D01*
X84649800Y-82350000D01*
X84689581Y-82098831D01*
X84805031Y-81872248D01*
X84984848Y-81692431D01*
X85211431Y-81576981D01*
X85462600Y-81537200D01*
X85713769Y-81576981D01*
%TD*%
D11*
%TO.C,Q1*%
X158981007Y-77745775D03*
X158981007Y-76795775D03*
X158981007Y-75845775D03*
X156706007Y-75845775D03*
X156706007Y-76795775D03*
X156706007Y-77745775D03*
%TD*%
D12*
%TO.C,D1*%
X140300000Y-76460000D03*
X140300000Y-77430000D03*
%TD*%
D13*
%TO.C,C18*%
X122000000Y-83080000D03*
X122000000Y-82120000D03*
%TD*%
D14*
%TO.C,SW1*%
X95600000Y-76400000D03*
D15*
X93900000Y-76400000D03*
X97300000Y-76400000D03*
%TD*%
D16*
%TO.C,Q3*%
X120074511Y-78754511D03*
X121074511Y-78754511D03*
X120574511Y-77464511D03*
%TD*%
D17*
%TO.C,R4*%
X153260000Y-79025000D03*
X152240000Y-79025000D03*
%TD*%
D18*
%TO.C,C1*%
X96745000Y-78065000D03*
X97705000Y-78065000D03*
%TD*%
D16*
%TO.C,Q2*%
X120915000Y-81305000D03*
X119915000Y-81305000D03*
X120415000Y-82595000D03*
%TD*%
D19*
%TO.C,D5*%
X131575000Y-75625000D03*
X131575000Y-77725000D03*
%TD*%
D20*
%TO.C,C16*%
X84150000Y-79340000D03*
X84150000Y-80300000D03*
%TD*%
D21*
%TO.C,R6*%
X86150000Y-80360000D03*
X86150000Y-79340000D03*
%TD*%
D13*
%TO.C,C7*%
X130150000Y-76455000D03*
X130150000Y-75495000D03*
%TD*%
D22*
%TO.C,AE1*%
X101867000Y-77612000D03*
X104817000Y-77612000D03*
%TD*%
D23*
%TO.C,U6*%
X83388600Y-83187747D03*
X84210600Y-83187747D03*
D24*
X86123000Y-82350000D03*
D23*
X84210600Y-81512253D03*
X83388600Y-81512253D03*
D25*
X85462600Y-82350000D03*
%TD*%
D26*
%TO.C,C4*%
X110360000Y-79980000D03*
X109400000Y-79980000D03*
%TD*%
D27*
%TO.C,R11*%
X137080000Y-75400000D03*
X137720000Y-75400000D03*
%TD*%
D11*
%TO.C,IC1*%
X154431007Y-77745775D03*
X154431007Y-76795775D03*
X154431007Y-75845775D03*
X152156007Y-75845775D03*
X152156007Y-76795775D03*
X152156007Y-77745775D03*
%TD*%
D28*
%TO.C,U1*%
X111385000Y-76750000D03*
X111385000Y-77250000D03*
X111385000Y-77750000D03*
X111385000Y-78250000D03*
X111385000Y-78750000D03*
X111385000Y-79250000D03*
X111385000Y-79750000D03*
X111385000Y-80250000D03*
X111385000Y-80750000D03*
X111385000Y-81250000D03*
X111385000Y-81750000D03*
X111385000Y-82250000D03*
D29*
X111900000Y-82765000D03*
X112400000Y-82765000D03*
X112900000Y-82765000D03*
X113400000Y-82765000D03*
X113900000Y-82765000D03*
X114400000Y-82765000D03*
X114900000Y-82765000D03*
X115400000Y-82765000D03*
X115900000Y-82765000D03*
X116400000Y-82765000D03*
X116900000Y-82765000D03*
X117400000Y-82765000D03*
D30*
X117915000Y-82250000D03*
X117915000Y-81750000D03*
X117915000Y-81250000D03*
X117915000Y-80750000D03*
X117915000Y-80250000D03*
X117915000Y-79750000D03*
X117915000Y-79250000D03*
X117915000Y-78750000D03*
X117915000Y-78250000D03*
X117915000Y-77750000D03*
X117915000Y-77250000D03*
X117915000Y-76750000D03*
D31*
X117400000Y-76235000D03*
X116900000Y-76235000D03*
X116400000Y-76235000D03*
X115900000Y-76235000D03*
X115400000Y-76235000D03*
X114900000Y-76235000D03*
X114400000Y-76235000D03*
X113900000Y-76235000D03*
X113400000Y-76235000D03*
X112900000Y-76235000D03*
X112400000Y-76235000D03*
X111900000Y-76235000D03*
D32*
X114650000Y-79500000D03*
%TD*%
D33*
%TO.C,R7*%
X85150000Y-79340000D03*
X85150000Y-80360000D03*
%TD*%
D11*
%TO.C,U3*%
X135737500Y-77725000D03*
X135737500Y-76775000D03*
X135737500Y-75825000D03*
X133462500Y-75825000D03*
X133462500Y-77725000D03*
%TD*%
D17*
%TO.C,R16*%
X146635000Y-81400000D03*
X145615000Y-81400000D03*
%TD*%
D21*
%TO.C,R9*%
X139300000Y-79400000D03*
X139300000Y-78380000D03*
%TD*%
D20*
%TO.C,C17*%
X140600000Y-81370000D03*
X140600000Y-82330000D03*
%TD*%
D34*
%TO.C,J1*%
X130600000Y-79900000D03*
X131250000Y-79900000D03*
X131900000Y-79900000D03*
X132550000Y-79900000D03*
X133200000Y-79900000D03*
D35*
X129000000Y-82600000D03*
D36*
X129400000Y-79900000D03*
D37*
X128400000Y-82600000D03*
X135400000Y-82600000D03*
D38*
X130900000Y-82600000D03*
X132900000Y-82600000D03*
D35*
X134800000Y-82600000D03*
D36*
X134400000Y-79900000D03*
%TD*%
D18*
%TO.C,C20*%
X143520000Y-81300000D03*
X144480000Y-81300000D03*
%TD*%
D33*
%TO.C,R13*%
X138225000Y-78380000D03*
X138225000Y-79400000D03*
%TD*%
D18*
%TO.C,C2*%
X109482500Y-76600000D03*
X110442500Y-76600000D03*
%TD*%
D21*
%TO.C,R8*%
X140300000Y-79400000D03*
X140300000Y-78380000D03*
%TD*%
D39*
%TO.C,U2*%
X149086075Y-79845000D03*
X149086075Y-78575000D03*
X149086075Y-77305000D03*
X149086075Y-76035000D03*
X141886075Y-76035000D03*
X141886075Y-77305000D03*
X141886075Y-78575000D03*
X141886075Y-79845000D03*
%TD*%
D20*
%TO.C,C12*%
X150686075Y-77475000D03*
X150686075Y-78435000D03*
%TD*%
D21*
%TO.C,R5*%
X150686075Y-80455000D03*
X150686075Y-79435000D03*
%TD*%
D17*
%TO.C,R2*%
X94460000Y-78090000D03*
X93440000Y-78090000D03*
%TD*%
D40*
%TO.C,Q4*%
X137400000Y-76625000D03*
X136950000Y-76625000D03*
D41*
X137175000Y-77325000D03*
%TD*%
D18*
%TO.C,C9*%
X123000000Y-83050000D03*
X123960000Y-83050000D03*
%TD*%
D12*
%TO.C,D2*%
X139300000Y-76460000D03*
X139300000Y-77430000D03*
%TD*%
D13*
%TO.C,C6*%
X109950000Y-78830000D03*
X109950000Y-77870000D03*
%TD*%
D42*
%TO.C,U4*%
X123550000Y-81837500D03*
X124050000Y-81837500D03*
X124550000Y-81837500D03*
X125050000Y-81837500D03*
X125550000Y-81837500D03*
X126050000Y-81837500D03*
D43*
X126737500Y-81150000D03*
X126737500Y-80650000D03*
X126737500Y-80150000D03*
X126737500Y-79650000D03*
X126737500Y-79150000D03*
X126737500Y-78650000D03*
D42*
X126050000Y-77962500D03*
X125550000Y-77962500D03*
X125050000Y-77962500D03*
X124550000Y-77962500D03*
X124050000Y-77962500D03*
X123550000Y-77962500D03*
D43*
X122862500Y-78650000D03*
X122862500Y-79150000D03*
X122862500Y-79650000D03*
X122862500Y-80150000D03*
X122862500Y-80650000D03*
X122862500Y-81150000D03*
D44*
X124800000Y-79900000D03*
%TD*%
D20*
%TO.C,C8*%
X127975000Y-78595000D03*
X127975000Y-79555000D03*
%TD*%
D45*
%TO.C,R14*%
X120690000Y-80270000D03*
X121710000Y-80270000D03*
%TD*%
D26*
%TO.C,C5*%
X108620000Y-76600000D03*
X107660000Y-76600000D03*
%TD*%
D46*
%TO.C,U5*%
X137142500Y-80690000D03*
X137142500Y-82590000D03*
X139017500Y-81640000D03*
%TD*%
D21*
%TO.C,R10*%
X141750000Y-82310000D03*
X141750000Y-81290000D03*
%TD*%
D20*
%TO.C,C15*%
X83200000Y-79340000D03*
X83200000Y-80300000D03*
%TD*%
D33*
%TO.C,R1*%
X150686075Y-75495000D03*
X150686075Y-76515000D03*
%TD*%
%TO.C,R12*%
X138225000Y-77450000D03*
X138225000Y-76430000D03*
%TD*%
D17*
%TO.C,R15*%
X119810000Y-80270000D03*
X118790000Y-80270000D03*
%TD*%
D13*
%TO.C,C3*%
X108950000Y-78830000D03*
X108950000Y-77870000D03*
%TD*%
M02*
