M48
; DRILL file {KiCad 6.0.5-a6ca702e91~116~ubuntu22.04.1} date Fri 01 Jul 2022 06:10:28 PM
; FORMAT={-:-/ absolute / metric / decimal}
; #@! TF.CreationDate,2022-07-01T18:10:28-07:00
; #@! TF.GenerationSoftware,Kicad,Pcbnew,6.0.5-a6ca702e91~116~ubuntu22.04.1
; #@! TF.FileFunction,Plated,1,4,PTH
FMAT,2
METRIC
; #@! TA.AperFunction,Plated,PTH,ViaDrill
T1C0.200
; #@! TA.AperFunction,Plated,PTH,ViaDrill
T2C0.300
; #@! TA.AperFunction,Plated,PTH,ComponentDrill
T3C0.381
; #@! TA.AperFunction,Plated,PTH,ViaDrill
T4C0.400
; #@! TA.AperFunction,Plated,PTH,ComponentDrill
T5C0.500
; #@! TA.AperFunction,Plated,PTH,ComponentDrill
T6C0.550
%
G90
G05
T1
X83.2Y-80.95
X83.35Y-82.4
X83.7Y-80.3
X84.2Y-82.45
X85.6Y-80.8
X86.87Y-82.19
X86.95Y-80.55
X88.988Y-81.512
X93.44Y-78.8
X96.8Y-78.9
X98.3Y-77.35
X99.58Y-76.08
X99.58Y-76.88
X99.58Y-77.68
X99.58Y-78.48
X99.58Y-79.28
X99.59Y-79.98
X100.24Y-80.3
X100.31Y-83.15
X100.96Y-80.3
X101.76Y-80.3
X102.56Y-80.3
X102.82Y-83.06
X103.36Y-80.3
X104.16Y-80.3
X104.96Y-80.3
X105.23Y-82.19
X105.76Y-80.3
X106.5Y-80.3
X107.15Y-76.08
X107.15Y-76.88
X107.15Y-78.27
X107.15Y-79.1
X107.15Y-79.97
X107.74Y-81.28
X108.893Y-80.079
X109.189Y-76.131
X109.89Y-80.67
X110.01Y-81.87
X110.237Y-76.25
X110.34Y-83.28
X110.7Y-78.81
X110.7Y-80.71
X110.74Y-81.5
X110.77Y-82.39
X112.35Y-83.29
X113.12Y-83.43
X113.9Y-83.349
X114.642Y-83.353
X114.73Y-75.46
X115.89Y-83.28
X117.99Y-76.1
X118.25Y-83.3
X118.675Y-81.014
X119.45Y-76.35
X119.84Y-82.595
X119.88Y-76.975
X120.0Y-77.71
X120.19Y-83.24
X121.2Y-77.2
X121.2Y-78.0
X121.225Y-79.525
X121.225Y-82.625
X121.25Y-83.53
X121.5Y-76.0
X121.85Y-81.175
X122.2Y-75.8
X122.384Y-81.682
X122.8Y-78.05
X122.925Y-82.175
X123.665Y-82.672
X124.01Y-76.89
X124.798Y-76.966
X126.0Y-82.7
X126.5Y-81.85
X128.675Y-78.375
X130.3Y-76.4
X133.9Y-75.45
X135.6Y-76.1
X137.075Y-75.925
X137.35Y-78.5
X137.6Y-79.2
X138.05Y-75.7
X138.71Y-80.76
X139.2Y-82.25
X139.625Y-75.975
X139.9Y-80.925
X142.191Y-81.659
X142.6Y-82.3
X143.225Y-78.6
X144.565Y-82.02
X145.11Y-79.845
X152.55Y-78.525
X155.525Y-75.7
X155.625Y-77.8
X158.0Y-77.14
T2
X110.862Y-78.025
X111.09Y-76.05
X125.65Y-79.9
X126.97Y-76.96
X132.9Y-77.9
X133.05Y-76.95
X137.3Y-77.7
X145.775Y-80.325
X147.305Y-79.845
X147.406Y-76.006
T3
X85.463Y-82.35
T4
X112.58Y-78.87
X112.59Y-81.53
X112.6Y-77.42
X112.61Y-80.24
X113.91Y-78.86
X113.92Y-81.52
X113.93Y-77.41
X113.94Y-80.23
X115.3Y-78.88
X115.31Y-81.54
X115.32Y-77.43
X115.33Y-80.25
X116.64Y-78.89
X116.65Y-81.55
X116.66Y-77.44
X116.67Y-80.26
X129.55Y-82.6
X130.9Y-82.6
X132.9Y-82.6
X134.35Y-82.6
T5
X128.4Y-82.275G85X128.4Y-82.925
G05
X135.4Y-82.275G85X135.4Y-82.925
G05
T6
X129.25Y-79.9G85X129.55Y-79.9
G05
X134.25Y-79.9G85X134.55Y-79.9
G05
T0
M30
