%TF.GenerationSoftware,KiCad,Pcbnew,6.0.5-a6ca702e91~116~ubuntu22.04.1*%
%TF.CreationDate,2022-06-26T16:54:06-07:00*%
%TF.ProjectId,OSSG_v0p3,4f535347-5f76-4307-9033-2e6b69636164,v0.3*%
%TF.SameCoordinates,Original*%
%TF.FileFunction,Legend,Top*%
%TF.FilePolarity,Positive*%
%FSLAX46Y46*%
G04 Gerber Fmt 4.6, Leading zero omitted, Abs format (unit mm)*
G04 Created by KiCad (PCBNEW 6.0.5-a6ca702e91~116~ubuntu22.04.1) date 2022-06-26 16:54:06*
%MOMM*%
%LPD*%
G01*
G04 APERTURE LIST*
%ADD10C,0.070000*%
%ADD11C,0.150000*%
%ADD12C,0.120000*%
%ADD13C,0.100000*%
%ADD14C,0.127000*%
%ADD15C,0.200000*%
G04 APERTURE END LIST*
D10*
%TO.C,Q1*%
X158402380Y-79173809D02*
X158354761Y-79150000D01*
X158307142Y-79102380D01*
X158235714Y-79030952D01*
X158188095Y-79007142D01*
X158140476Y-79007142D01*
X158164285Y-79126190D02*
X158116666Y-79102380D01*
X158069047Y-79054761D01*
X158045238Y-78959523D01*
X158045238Y-78792857D01*
X158069047Y-78697619D01*
X158116666Y-78650000D01*
X158164285Y-78626190D01*
X158259523Y-78626190D01*
X158307142Y-78650000D01*
X158354761Y-78697619D01*
X158378571Y-78792857D01*
X158378571Y-78959523D01*
X158354761Y-79054761D01*
X158307142Y-79102380D01*
X158259523Y-79126190D01*
X158164285Y-79126190D01*
X158854761Y-79126190D02*
X158569047Y-79126190D01*
X158711904Y-79126190D02*
X158711904Y-78626190D01*
X158664285Y-78697619D01*
X158616666Y-78745238D01*
X158569047Y-78769047D01*
%TO.C,D1*%
X139980952Y-75626190D02*
X139980952Y-75126190D01*
X140100000Y-75126190D01*
X140171428Y-75150000D01*
X140219047Y-75197619D01*
X140242857Y-75245238D01*
X140266666Y-75340476D01*
X140266666Y-75411904D01*
X140242857Y-75507142D01*
X140219047Y-75554761D01*
X140171428Y-75602380D01*
X140100000Y-75626190D01*
X139980952Y-75626190D01*
X140742857Y-75626190D02*
X140457142Y-75626190D01*
X140600000Y-75626190D02*
X140600000Y-75126190D01*
X140552380Y-75197619D01*
X140504761Y-75245238D01*
X140457142Y-75269047D01*
%TO.C,C18*%
X121848571Y-83898571D02*
X121824761Y-83922380D01*
X121753333Y-83946190D01*
X121705714Y-83946190D01*
X121634285Y-83922380D01*
X121586666Y-83874761D01*
X121562857Y-83827142D01*
X121539047Y-83731904D01*
X121539047Y-83660476D01*
X121562857Y-83565238D01*
X121586666Y-83517619D01*
X121634285Y-83470000D01*
X121705714Y-83446190D01*
X121753333Y-83446190D01*
X121824761Y-83470000D01*
X121848571Y-83493809D01*
X122324761Y-83946190D02*
X122039047Y-83946190D01*
X122181904Y-83946190D02*
X122181904Y-83446190D01*
X122134285Y-83517619D01*
X122086666Y-83565238D01*
X122039047Y-83589047D01*
X122610476Y-83660476D02*
X122562857Y-83636666D01*
X122539047Y-83612857D01*
X122515238Y-83565238D01*
X122515238Y-83541428D01*
X122539047Y-83493809D01*
X122562857Y-83470000D01*
X122610476Y-83446190D01*
X122705714Y-83446190D01*
X122753333Y-83470000D01*
X122777142Y-83493809D01*
X122800952Y-83541428D01*
X122800952Y-83565238D01*
X122777142Y-83612857D01*
X122753333Y-83636666D01*
X122705714Y-83660476D01*
X122610476Y-83660476D01*
X122562857Y-83684285D01*
X122539047Y-83708095D01*
X122515238Y-83755714D01*
X122515238Y-83850952D01*
X122539047Y-83898571D01*
X122562857Y-83922380D01*
X122610476Y-83946190D01*
X122705714Y-83946190D01*
X122753333Y-83922380D01*
X122777142Y-83898571D01*
X122800952Y-83850952D01*
X122800952Y-83755714D01*
X122777142Y-83708095D01*
X122753333Y-83684285D01*
X122705714Y-83660476D01*
%TO.C,SW1*%
X94933333Y-73502380D02*
X95004761Y-73526190D01*
X95123809Y-73526190D01*
X95171428Y-73502380D01*
X95195238Y-73478571D01*
X95219047Y-73430952D01*
X95219047Y-73383333D01*
X95195238Y-73335714D01*
X95171428Y-73311904D01*
X95123809Y-73288095D01*
X95028571Y-73264285D01*
X94980952Y-73240476D01*
X94957142Y-73216666D01*
X94933333Y-73169047D01*
X94933333Y-73121428D01*
X94957142Y-73073809D01*
X94980952Y-73050000D01*
X95028571Y-73026190D01*
X95147619Y-73026190D01*
X95219047Y-73050000D01*
X95385714Y-73026190D02*
X95504761Y-73526190D01*
X95600000Y-73169047D01*
X95695238Y-73526190D01*
X95814285Y-73026190D01*
X96266666Y-73526190D02*
X95980952Y-73526190D01*
X96123809Y-73526190D02*
X96123809Y-73026190D01*
X96076190Y-73097619D01*
X96028571Y-73145238D01*
X95980952Y-73169047D01*
%TO.C,Q3*%
X119102380Y-78583809D02*
X119054761Y-78560000D01*
X119007142Y-78512380D01*
X118935714Y-78440952D01*
X118888095Y-78417142D01*
X118840476Y-78417142D01*
X118864285Y-78536190D02*
X118816666Y-78512380D01*
X118769047Y-78464761D01*
X118745238Y-78369523D01*
X118745238Y-78202857D01*
X118769047Y-78107619D01*
X118816666Y-78060000D01*
X118864285Y-78036190D01*
X118959523Y-78036190D01*
X119007142Y-78060000D01*
X119054761Y-78107619D01*
X119078571Y-78202857D01*
X119078571Y-78369523D01*
X119054761Y-78464761D01*
X119007142Y-78512380D01*
X118959523Y-78536190D01*
X118864285Y-78536190D01*
X119245238Y-78036190D02*
X119554761Y-78036190D01*
X119388095Y-78226666D01*
X119459523Y-78226666D01*
X119507142Y-78250476D01*
X119530952Y-78274285D01*
X119554761Y-78321904D01*
X119554761Y-78440952D01*
X119530952Y-78488571D01*
X119507142Y-78512380D01*
X119459523Y-78536190D01*
X119316666Y-78536190D01*
X119269047Y-78512380D01*
X119245238Y-78488571D01*
%TO.C,R4*%
X152666666Y-80176190D02*
X152500000Y-79938095D01*
X152380952Y-80176190D02*
X152380952Y-79676190D01*
X152571428Y-79676190D01*
X152619047Y-79700000D01*
X152642857Y-79723809D01*
X152666666Y-79771428D01*
X152666666Y-79842857D01*
X152642857Y-79890476D01*
X152619047Y-79914285D01*
X152571428Y-79938095D01*
X152380952Y-79938095D01*
X153095238Y-79842857D02*
X153095238Y-80176190D01*
X152976190Y-79652380D02*
X152857142Y-80009523D01*
X153166666Y-80009523D01*
%TO.C,C1*%
X97766666Y-79128571D02*
X97742857Y-79152380D01*
X97671428Y-79176190D01*
X97623809Y-79176190D01*
X97552380Y-79152380D01*
X97504761Y-79104761D01*
X97480952Y-79057142D01*
X97457142Y-78961904D01*
X97457142Y-78890476D01*
X97480952Y-78795238D01*
X97504761Y-78747619D01*
X97552380Y-78700000D01*
X97623809Y-78676190D01*
X97671428Y-78676190D01*
X97742857Y-78700000D01*
X97766666Y-78723809D01*
X98242857Y-79176190D02*
X97957142Y-79176190D01*
X98100000Y-79176190D02*
X98100000Y-78676190D01*
X98052380Y-78747619D01*
X98004761Y-78795238D01*
X97957142Y-78819047D01*
%TO.C,Q2*%
X118922380Y-82453809D02*
X118874761Y-82430000D01*
X118827142Y-82382380D01*
X118755714Y-82310952D01*
X118708095Y-82287142D01*
X118660476Y-82287142D01*
X118684285Y-82406190D02*
X118636666Y-82382380D01*
X118589047Y-82334761D01*
X118565238Y-82239523D01*
X118565238Y-82072857D01*
X118589047Y-81977619D01*
X118636666Y-81930000D01*
X118684285Y-81906190D01*
X118779523Y-81906190D01*
X118827142Y-81930000D01*
X118874761Y-81977619D01*
X118898571Y-82072857D01*
X118898571Y-82239523D01*
X118874761Y-82334761D01*
X118827142Y-82382380D01*
X118779523Y-82406190D01*
X118684285Y-82406190D01*
X119089047Y-81953809D02*
X119112857Y-81930000D01*
X119160476Y-81906190D01*
X119279523Y-81906190D01*
X119327142Y-81930000D01*
X119350952Y-81953809D01*
X119374761Y-82001428D01*
X119374761Y-82049047D01*
X119350952Y-82120476D01*
X119065238Y-82406190D01*
X119374761Y-82406190D01*
%TO.C,D5*%
X132560952Y-76726190D02*
X132560952Y-76226190D01*
X132680000Y-76226190D01*
X132751428Y-76250000D01*
X132799047Y-76297619D01*
X132822857Y-76345238D01*
X132846666Y-76440476D01*
X132846666Y-76511904D01*
X132822857Y-76607142D01*
X132799047Y-76654761D01*
X132751428Y-76702380D01*
X132680000Y-76726190D01*
X132560952Y-76726190D01*
X133299047Y-76226190D02*
X133060952Y-76226190D01*
X133037142Y-76464285D01*
X133060952Y-76440476D01*
X133108571Y-76416666D01*
X133227619Y-76416666D01*
X133275238Y-76440476D01*
X133299047Y-76464285D01*
X133322857Y-76511904D01*
X133322857Y-76630952D01*
X133299047Y-76678571D01*
X133275238Y-76702380D01*
X133227619Y-76726190D01*
X133108571Y-76726190D01*
X133060952Y-76702380D01*
X133037142Y-76678571D01*
%TO.C,C16*%
X84378571Y-78371428D02*
X84402380Y-78395238D01*
X84426190Y-78466666D01*
X84426190Y-78514285D01*
X84402380Y-78585714D01*
X84354761Y-78633333D01*
X84307142Y-78657142D01*
X84211904Y-78680952D01*
X84140476Y-78680952D01*
X84045238Y-78657142D01*
X83997619Y-78633333D01*
X83950000Y-78585714D01*
X83926190Y-78514285D01*
X83926190Y-78466666D01*
X83950000Y-78395238D01*
X83973809Y-78371428D01*
X84426190Y-77895238D02*
X84426190Y-78180952D01*
X84426190Y-78038095D02*
X83926190Y-78038095D01*
X83997619Y-78085714D01*
X84045238Y-78133333D01*
X84069047Y-78180952D01*
X83926190Y-77466666D02*
X83926190Y-77561904D01*
X83950000Y-77609523D01*
X83973809Y-77633333D01*
X84045238Y-77680952D01*
X84140476Y-77704761D01*
X84330952Y-77704761D01*
X84378571Y-77680952D01*
X84402380Y-77657142D01*
X84426190Y-77609523D01*
X84426190Y-77514285D01*
X84402380Y-77466666D01*
X84378571Y-77442857D01*
X84330952Y-77419047D01*
X84211904Y-77419047D01*
X84164285Y-77442857D01*
X84140476Y-77466666D01*
X84116666Y-77514285D01*
X84116666Y-77609523D01*
X84140476Y-77657142D01*
X84164285Y-77680952D01*
X84211904Y-77704761D01*
%TO.C,R6*%
X85316190Y-78569333D02*
X85078095Y-78736000D01*
X85316190Y-78855047D02*
X84816190Y-78855047D01*
X84816190Y-78664571D01*
X84840000Y-78616952D01*
X84863809Y-78593142D01*
X84911428Y-78569333D01*
X84982857Y-78569333D01*
X85030476Y-78593142D01*
X85054285Y-78616952D01*
X85078095Y-78664571D01*
X85078095Y-78855047D01*
X84816190Y-78140761D02*
X84816190Y-78236000D01*
X84840000Y-78283619D01*
X84863809Y-78307428D01*
X84935238Y-78355047D01*
X85030476Y-78378857D01*
X85220952Y-78378857D01*
X85268571Y-78355047D01*
X85292380Y-78331238D01*
X85316190Y-78283619D01*
X85316190Y-78188380D01*
X85292380Y-78140761D01*
X85268571Y-78116952D01*
X85220952Y-78093142D01*
X85101904Y-78093142D01*
X85054285Y-78116952D01*
X85030476Y-78140761D01*
X85006666Y-78188380D01*
X85006666Y-78283619D01*
X85030476Y-78331238D01*
X85054285Y-78355047D01*
X85101904Y-78378857D01*
%TO.C,C7*%
X129216666Y-75638571D02*
X129192857Y-75662380D01*
X129121428Y-75686190D01*
X129073809Y-75686190D01*
X129002380Y-75662380D01*
X128954761Y-75614761D01*
X128930952Y-75567142D01*
X128907142Y-75471904D01*
X128907142Y-75400476D01*
X128930952Y-75305238D01*
X128954761Y-75257619D01*
X129002380Y-75210000D01*
X129073809Y-75186190D01*
X129121428Y-75186190D01*
X129192857Y-75210000D01*
X129216666Y-75233809D01*
X129383333Y-75186190D02*
X129716666Y-75186190D01*
X129502380Y-75686190D01*
%TO.C,AE1*%
X102758666Y-79195333D02*
X102996761Y-79195333D01*
X102711047Y-79338190D02*
X102877714Y-78838190D01*
X103044380Y-79338190D01*
X103211047Y-79076285D02*
X103377714Y-79076285D01*
X103449142Y-79338190D02*
X103211047Y-79338190D01*
X103211047Y-78838190D01*
X103449142Y-78838190D01*
X103925333Y-79338190D02*
X103639619Y-79338190D01*
X103782476Y-79338190D02*
X103782476Y-78838190D01*
X103734857Y-78909619D01*
X103687238Y-78957238D01*
X103639619Y-78981047D01*
X101794380Y-75738190D02*
X101794380Y-75238190D01*
X102080095Y-75738190D02*
X101865809Y-75452476D01*
X102080095Y-75238190D02*
X101794380Y-75523904D01*
X102294380Y-75476285D02*
X102461047Y-75476285D01*
X102532476Y-75738190D02*
X102294380Y-75738190D01*
X102294380Y-75238190D01*
X102532476Y-75238190D01*
X102746761Y-75476285D02*
X102913428Y-75476285D01*
X102984857Y-75738190D02*
X102746761Y-75738190D01*
X102746761Y-75238190D01*
X102984857Y-75238190D01*
X103199142Y-75738190D02*
X103199142Y-75238190D01*
X103389619Y-75238190D01*
X103437238Y-75262000D01*
X103461047Y-75285809D01*
X103484857Y-75333428D01*
X103484857Y-75404857D01*
X103461047Y-75452476D01*
X103437238Y-75476285D01*
X103389619Y-75500095D01*
X103199142Y-75500095D01*
X103794380Y-75238190D02*
X103889619Y-75238190D01*
X103937238Y-75262000D01*
X103984857Y-75309619D01*
X104008666Y-75404857D01*
X104008666Y-75571523D01*
X103984857Y-75666761D01*
X103937238Y-75714380D01*
X103889619Y-75738190D01*
X103794380Y-75738190D01*
X103746761Y-75714380D01*
X103699142Y-75666761D01*
X103675333Y-75571523D01*
X103675333Y-75404857D01*
X103699142Y-75309619D01*
X103746761Y-75262000D01*
X103794380Y-75238190D01*
X104222952Y-75238190D02*
X104222952Y-75642952D01*
X104246761Y-75690571D01*
X104270571Y-75714380D01*
X104318190Y-75738190D01*
X104413428Y-75738190D01*
X104461047Y-75714380D01*
X104484857Y-75690571D01*
X104508666Y-75642952D01*
X104508666Y-75238190D01*
X104675333Y-75238190D02*
X104961047Y-75238190D01*
X104818190Y-75738190D02*
X104818190Y-75238190D01*
%TO.C,U6*%
X86759047Y-82626190D02*
X86759047Y-83030952D01*
X86782857Y-83078571D01*
X86806666Y-83102380D01*
X86854285Y-83126190D01*
X86949523Y-83126190D01*
X86997142Y-83102380D01*
X87020952Y-83078571D01*
X87044761Y-83030952D01*
X87044761Y-82626190D01*
X87497142Y-82626190D02*
X87401904Y-82626190D01*
X87354285Y-82650000D01*
X87330476Y-82673809D01*
X87282857Y-82745238D01*
X87259047Y-82840476D01*
X87259047Y-83030952D01*
X87282857Y-83078571D01*
X87306666Y-83102380D01*
X87354285Y-83126190D01*
X87449523Y-83126190D01*
X87497142Y-83102380D01*
X87520952Y-83078571D01*
X87544761Y-83030952D01*
X87544761Y-82911904D01*
X87520952Y-82864285D01*
X87497142Y-82840476D01*
X87449523Y-82816666D01*
X87354285Y-82816666D01*
X87306666Y-82840476D01*
X87282857Y-82864285D01*
X87259047Y-82911904D01*
D11*
X82330000Y-82662380D02*
X82330000Y-82900476D01*
X82091904Y-82805238D02*
X82330000Y-82900476D01*
X82568095Y-82805238D01*
X82187142Y-83090952D02*
X82330000Y-82900476D01*
X82472857Y-83090952D01*
D10*
%TO.C,C4*%
X109136666Y-80868571D02*
X109112857Y-80892380D01*
X109041428Y-80916190D01*
X108993809Y-80916190D01*
X108922380Y-80892380D01*
X108874761Y-80844761D01*
X108850952Y-80797142D01*
X108827142Y-80701904D01*
X108827142Y-80630476D01*
X108850952Y-80535238D01*
X108874761Y-80487619D01*
X108922380Y-80440000D01*
X108993809Y-80416190D01*
X109041428Y-80416190D01*
X109112857Y-80440000D01*
X109136666Y-80463809D01*
X109565238Y-80582857D02*
X109565238Y-80916190D01*
X109446190Y-80392380D02*
X109327142Y-80749523D01*
X109636666Y-80749523D01*
%TO.C,R11*%
X138766190Y-75941428D02*
X138528095Y-76108095D01*
X138766190Y-76227142D02*
X138266190Y-76227142D01*
X138266190Y-76036666D01*
X138290000Y-75989047D01*
X138313809Y-75965238D01*
X138361428Y-75941428D01*
X138432857Y-75941428D01*
X138480476Y-75965238D01*
X138504285Y-75989047D01*
X138528095Y-76036666D01*
X138528095Y-76227142D01*
X138766190Y-75465238D02*
X138766190Y-75750952D01*
X138766190Y-75608095D02*
X138266190Y-75608095D01*
X138337619Y-75655714D01*
X138385238Y-75703333D01*
X138409047Y-75750952D01*
X138766190Y-74989047D02*
X138766190Y-75274761D01*
X138766190Y-75131904D02*
X138266190Y-75131904D01*
X138337619Y-75179523D01*
X138385238Y-75227142D01*
X138409047Y-75274761D01*
%TO.C,IC1*%
X154061904Y-79126190D02*
X154061904Y-78626190D01*
X154585714Y-79078571D02*
X154561904Y-79102380D01*
X154490476Y-79126190D01*
X154442857Y-79126190D01*
X154371428Y-79102380D01*
X154323809Y-79054761D01*
X154300000Y-79007142D01*
X154276190Y-78911904D01*
X154276190Y-78840476D01*
X154300000Y-78745238D01*
X154323809Y-78697619D01*
X154371428Y-78650000D01*
X154442857Y-78626190D01*
X154490476Y-78626190D01*
X154561904Y-78650000D01*
X154585714Y-78673809D01*
X155061904Y-79126190D02*
X154776190Y-79126190D01*
X154919047Y-79126190D02*
X154919047Y-78626190D01*
X154871428Y-78697619D01*
X154823809Y-78745238D01*
X154776190Y-78769047D01*
%TO.C,U1*%
X115219047Y-75296190D02*
X115219047Y-75700952D01*
X115242857Y-75748571D01*
X115266666Y-75772380D01*
X115314285Y-75796190D01*
X115409523Y-75796190D01*
X115457142Y-75772380D01*
X115480952Y-75748571D01*
X115504761Y-75700952D01*
X115504761Y-75296190D01*
X116004761Y-75796190D02*
X115719047Y-75796190D01*
X115861904Y-75796190D02*
X115861904Y-75296190D01*
X115814285Y-75367619D01*
X115766666Y-75415238D01*
X115719047Y-75439047D01*
%TO.C,R7*%
X86332190Y-78569333D02*
X86094095Y-78736000D01*
X86332190Y-78855047D02*
X85832190Y-78855047D01*
X85832190Y-78664571D01*
X85856000Y-78616952D01*
X85879809Y-78593142D01*
X85927428Y-78569333D01*
X85998857Y-78569333D01*
X86046476Y-78593142D01*
X86070285Y-78616952D01*
X86094095Y-78664571D01*
X86094095Y-78855047D01*
X85832190Y-78402666D02*
X85832190Y-78069333D01*
X86332190Y-78283619D01*
%TO.C,U3*%
X132889047Y-78351190D02*
X132889047Y-78755952D01*
X132912857Y-78803571D01*
X132936666Y-78827380D01*
X132984285Y-78851190D01*
X133079523Y-78851190D01*
X133127142Y-78827380D01*
X133150952Y-78803571D01*
X133174761Y-78755952D01*
X133174761Y-78351190D01*
X133365238Y-78351190D02*
X133674761Y-78351190D01*
X133508095Y-78541666D01*
X133579523Y-78541666D01*
X133627142Y-78565476D01*
X133650952Y-78589285D01*
X133674761Y-78636904D01*
X133674761Y-78755952D01*
X133650952Y-78803571D01*
X133627142Y-78827380D01*
X133579523Y-78851190D01*
X133436666Y-78851190D01*
X133389047Y-78827380D01*
X133365238Y-78803571D01*
%TO.C,R16*%
X147328571Y-81636190D02*
X147161904Y-81398095D01*
X147042857Y-81636190D02*
X147042857Y-81136190D01*
X147233333Y-81136190D01*
X147280952Y-81160000D01*
X147304761Y-81183809D01*
X147328571Y-81231428D01*
X147328571Y-81302857D01*
X147304761Y-81350476D01*
X147280952Y-81374285D01*
X147233333Y-81398095D01*
X147042857Y-81398095D01*
X147804761Y-81636190D02*
X147519047Y-81636190D01*
X147661904Y-81636190D02*
X147661904Y-81136190D01*
X147614285Y-81207619D01*
X147566666Y-81255238D01*
X147519047Y-81279047D01*
X148233333Y-81136190D02*
X148138095Y-81136190D01*
X148090476Y-81160000D01*
X148066666Y-81183809D01*
X148019047Y-81255238D01*
X147995238Y-81350476D01*
X147995238Y-81540952D01*
X148019047Y-81588571D01*
X148042857Y-81612380D01*
X148090476Y-81636190D01*
X148185714Y-81636190D01*
X148233333Y-81612380D01*
X148257142Y-81588571D01*
X148280952Y-81540952D01*
X148280952Y-81421904D01*
X148257142Y-81374285D01*
X148233333Y-81350476D01*
X148185714Y-81326666D01*
X148090476Y-81326666D01*
X148042857Y-81350476D01*
X148019047Y-81374285D01*
X147995238Y-81421904D01*
%TO.C,R9*%
X139216666Y-80376190D02*
X139050000Y-80138095D01*
X138930952Y-80376190D02*
X138930952Y-79876190D01*
X139121428Y-79876190D01*
X139169047Y-79900000D01*
X139192857Y-79923809D01*
X139216666Y-79971428D01*
X139216666Y-80042857D01*
X139192857Y-80090476D01*
X139169047Y-80114285D01*
X139121428Y-80138095D01*
X138930952Y-80138095D01*
X139454761Y-80376190D02*
X139550000Y-80376190D01*
X139597619Y-80352380D01*
X139621428Y-80328571D01*
X139669047Y-80257142D01*
X139692857Y-80161904D01*
X139692857Y-79971428D01*
X139669047Y-79923809D01*
X139645238Y-79900000D01*
X139597619Y-79876190D01*
X139502380Y-79876190D01*
X139454761Y-79900000D01*
X139430952Y-79923809D01*
X139407142Y-79971428D01*
X139407142Y-80090476D01*
X139430952Y-80138095D01*
X139454761Y-80161904D01*
X139502380Y-80185714D01*
X139597619Y-80185714D01*
X139645238Y-80161904D01*
X139669047Y-80138095D01*
X139692857Y-80090476D01*
%TO.C,C17*%
X141938571Y-82171428D02*
X141962380Y-82195238D01*
X141986190Y-82266666D01*
X141986190Y-82314285D01*
X141962380Y-82385714D01*
X141914761Y-82433333D01*
X141867142Y-82457142D01*
X141771904Y-82480952D01*
X141700476Y-82480952D01*
X141605238Y-82457142D01*
X141557619Y-82433333D01*
X141510000Y-82385714D01*
X141486190Y-82314285D01*
X141486190Y-82266666D01*
X141510000Y-82195238D01*
X141533809Y-82171428D01*
X141986190Y-81695238D02*
X141986190Y-81980952D01*
X141986190Y-81838095D02*
X141486190Y-81838095D01*
X141557619Y-81885714D01*
X141605238Y-81933333D01*
X141629047Y-81980952D01*
X141486190Y-81528571D02*
X141486190Y-81195238D01*
X141986190Y-81409523D01*
%TO.C,J1*%
X135333333Y-78926190D02*
X135333333Y-79283333D01*
X135309523Y-79354761D01*
X135261904Y-79402380D01*
X135190476Y-79426190D01*
X135142857Y-79426190D01*
X135833333Y-79426190D02*
X135547619Y-79426190D01*
X135690476Y-79426190D02*
X135690476Y-78926190D01*
X135642857Y-78997619D01*
X135595238Y-79045238D01*
X135547619Y-79069047D01*
%TO.C,C20*%
X142968571Y-82298571D02*
X142944761Y-82322380D01*
X142873333Y-82346190D01*
X142825714Y-82346190D01*
X142754285Y-82322380D01*
X142706666Y-82274761D01*
X142682857Y-82227142D01*
X142659047Y-82131904D01*
X142659047Y-82060476D01*
X142682857Y-81965238D01*
X142706666Y-81917619D01*
X142754285Y-81870000D01*
X142825714Y-81846190D01*
X142873333Y-81846190D01*
X142944761Y-81870000D01*
X142968571Y-81893809D01*
X143159047Y-81893809D02*
X143182857Y-81870000D01*
X143230476Y-81846190D01*
X143349523Y-81846190D01*
X143397142Y-81870000D01*
X143420952Y-81893809D01*
X143444761Y-81941428D01*
X143444761Y-81989047D01*
X143420952Y-82060476D01*
X143135238Y-82346190D01*
X143444761Y-82346190D01*
X143754285Y-81846190D02*
X143801904Y-81846190D01*
X143849523Y-81870000D01*
X143873333Y-81893809D01*
X143897142Y-81941428D01*
X143920952Y-82036666D01*
X143920952Y-82155714D01*
X143897142Y-82250952D01*
X143873333Y-82298571D01*
X143849523Y-82322380D01*
X143801904Y-82346190D01*
X143754285Y-82346190D01*
X143706666Y-82322380D01*
X143682857Y-82298571D01*
X143659047Y-82250952D01*
X143635238Y-82155714D01*
X143635238Y-82036666D01*
X143659047Y-81941428D01*
X143682857Y-81893809D01*
X143706666Y-81870000D01*
X143754285Y-81846190D01*
%TO.C,R13*%
X136628571Y-79626190D02*
X136461904Y-79388095D01*
X136342857Y-79626190D02*
X136342857Y-79126190D01*
X136533333Y-79126190D01*
X136580952Y-79150000D01*
X136604761Y-79173809D01*
X136628571Y-79221428D01*
X136628571Y-79292857D01*
X136604761Y-79340476D01*
X136580952Y-79364285D01*
X136533333Y-79388095D01*
X136342857Y-79388095D01*
X137104761Y-79626190D02*
X136819047Y-79626190D01*
X136961904Y-79626190D02*
X136961904Y-79126190D01*
X136914285Y-79197619D01*
X136866666Y-79245238D01*
X136819047Y-79269047D01*
X137271428Y-79126190D02*
X137580952Y-79126190D01*
X137414285Y-79316666D01*
X137485714Y-79316666D01*
X137533333Y-79340476D01*
X137557142Y-79364285D01*
X137580952Y-79411904D01*
X137580952Y-79530952D01*
X137557142Y-79578571D01*
X137533333Y-79602380D01*
X137485714Y-79626190D01*
X137342857Y-79626190D01*
X137295238Y-79602380D01*
X137271428Y-79578571D01*
%TO.C,C2*%
X109736666Y-75938571D02*
X109712857Y-75962380D01*
X109641428Y-75986190D01*
X109593809Y-75986190D01*
X109522380Y-75962380D01*
X109474761Y-75914761D01*
X109450952Y-75867142D01*
X109427142Y-75771904D01*
X109427142Y-75700476D01*
X109450952Y-75605238D01*
X109474761Y-75557619D01*
X109522380Y-75510000D01*
X109593809Y-75486190D01*
X109641428Y-75486190D01*
X109712857Y-75510000D01*
X109736666Y-75533809D01*
X109927142Y-75533809D02*
X109950952Y-75510000D01*
X109998571Y-75486190D01*
X110117619Y-75486190D01*
X110165238Y-75510000D01*
X110189047Y-75533809D01*
X110212857Y-75581428D01*
X110212857Y-75629047D01*
X110189047Y-75700476D01*
X109903333Y-75986190D01*
X110212857Y-75986190D01*
%TO.C,R8*%
X141216666Y-79426190D02*
X141050000Y-79188095D01*
X140930952Y-79426190D02*
X140930952Y-78926190D01*
X141121428Y-78926190D01*
X141169047Y-78950000D01*
X141192857Y-78973809D01*
X141216666Y-79021428D01*
X141216666Y-79092857D01*
X141192857Y-79140476D01*
X141169047Y-79164285D01*
X141121428Y-79188095D01*
X140930952Y-79188095D01*
X141502380Y-79140476D02*
X141454761Y-79116666D01*
X141430952Y-79092857D01*
X141407142Y-79045238D01*
X141407142Y-79021428D01*
X141430952Y-78973809D01*
X141454761Y-78950000D01*
X141502380Y-78926190D01*
X141597619Y-78926190D01*
X141645238Y-78950000D01*
X141669047Y-78973809D01*
X141692857Y-79021428D01*
X141692857Y-79045238D01*
X141669047Y-79092857D01*
X141645238Y-79116666D01*
X141597619Y-79140476D01*
X141502380Y-79140476D01*
X141454761Y-79164285D01*
X141430952Y-79188095D01*
X141407142Y-79235714D01*
X141407142Y-79330952D01*
X141430952Y-79378571D01*
X141454761Y-79402380D01*
X141502380Y-79426190D01*
X141597619Y-79426190D01*
X141645238Y-79402380D01*
X141669047Y-79378571D01*
X141692857Y-79330952D01*
X141692857Y-79235714D01*
X141669047Y-79188095D01*
X141645238Y-79164285D01*
X141597619Y-79140476D01*
%TO.C,U2*%
X148779047Y-80596190D02*
X148779047Y-81000952D01*
X148802857Y-81048571D01*
X148826666Y-81072380D01*
X148874285Y-81096190D01*
X148969523Y-81096190D01*
X149017142Y-81072380D01*
X149040952Y-81048571D01*
X149064761Y-81000952D01*
X149064761Y-80596190D01*
X149279047Y-80643809D02*
X149302857Y-80620000D01*
X149350476Y-80596190D01*
X149469523Y-80596190D01*
X149517142Y-80620000D01*
X149540952Y-80643809D01*
X149564761Y-80691428D01*
X149564761Y-80739047D01*
X149540952Y-80810476D01*
X149255238Y-81096190D01*
X149564761Y-81096190D01*
%TO.C,C12*%
X149328571Y-78128571D02*
X149304761Y-78152380D01*
X149233333Y-78176190D01*
X149185714Y-78176190D01*
X149114285Y-78152380D01*
X149066666Y-78104761D01*
X149042857Y-78057142D01*
X149019047Y-77961904D01*
X149019047Y-77890476D01*
X149042857Y-77795238D01*
X149066666Y-77747619D01*
X149114285Y-77700000D01*
X149185714Y-77676190D01*
X149233333Y-77676190D01*
X149304761Y-77700000D01*
X149328571Y-77723809D01*
X149804761Y-78176190D02*
X149519047Y-78176190D01*
X149661904Y-78176190D02*
X149661904Y-77676190D01*
X149614285Y-77747619D01*
X149566666Y-77795238D01*
X149519047Y-77819047D01*
X149995238Y-77723809D02*
X150019047Y-77700000D01*
X150066666Y-77676190D01*
X150185714Y-77676190D01*
X150233333Y-77700000D01*
X150257142Y-77723809D01*
X150280952Y-77771428D01*
X150280952Y-77819047D01*
X150257142Y-77890476D01*
X149971428Y-78176190D01*
X150280952Y-78176190D01*
%TO.C,R5*%
X151466666Y-80626190D02*
X151300000Y-80388095D01*
X151180952Y-80626190D02*
X151180952Y-80126190D01*
X151371428Y-80126190D01*
X151419047Y-80150000D01*
X151442857Y-80173809D01*
X151466666Y-80221428D01*
X151466666Y-80292857D01*
X151442857Y-80340476D01*
X151419047Y-80364285D01*
X151371428Y-80388095D01*
X151180952Y-80388095D01*
X151919047Y-80126190D02*
X151680952Y-80126190D01*
X151657142Y-80364285D01*
X151680952Y-80340476D01*
X151728571Y-80316666D01*
X151847619Y-80316666D01*
X151895238Y-80340476D01*
X151919047Y-80364285D01*
X151942857Y-80411904D01*
X151942857Y-80530952D01*
X151919047Y-80578571D01*
X151895238Y-80602380D01*
X151847619Y-80626190D01*
X151728571Y-80626190D01*
X151680952Y-80602380D01*
X151657142Y-80578571D01*
%TO.C,R2*%
X92366666Y-78276190D02*
X92200000Y-78038095D01*
X92080952Y-78276190D02*
X92080952Y-77776190D01*
X92271428Y-77776190D01*
X92319047Y-77800000D01*
X92342857Y-77823809D01*
X92366666Y-77871428D01*
X92366666Y-77942857D01*
X92342857Y-77990476D01*
X92319047Y-78014285D01*
X92271428Y-78038095D01*
X92080952Y-78038095D01*
X92557142Y-77823809D02*
X92580952Y-77800000D01*
X92628571Y-77776190D01*
X92747619Y-77776190D01*
X92795238Y-77800000D01*
X92819047Y-77823809D01*
X92842857Y-77871428D01*
X92842857Y-77919047D01*
X92819047Y-77990476D01*
X92533333Y-78276190D01*
X92842857Y-78276190D01*
%TO.C,Q4*%
X136752380Y-77973809D02*
X136704761Y-77950000D01*
X136657142Y-77902380D01*
X136585714Y-77830952D01*
X136538095Y-77807142D01*
X136490476Y-77807142D01*
X136514285Y-77926190D02*
X136466666Y-77902380D01*
X136419047Y-77854761D01*
X136395238Y-77759523D01*
X136395238Y-77592857D01*
X136419047Y-77497619D01*
X136466666Y-77450000D01*
X136514285Y-77426190D01*
X136609523Y-77426190D01*
X136657142Y-77450000D01*
X136704761Y-77497619D01*
X136728571Y-77592857D01*
X136728571Y-77759523D01*
X136704761Y-77854761D01*
X136657142Y-77902380D01*
X136609523Y-77926190D01*
X136514285Y-77926190D01*
X137157142Y-77592857D02*
X137157142Y-77926190D01*
X137038095Y-77402380D02*
X136919047Y-77759523D01*
X137228571Y-77759523D01*
%TO.C,C9*%
X123876666Y-83938571D02*
X123852857Y-83962380D01*
X123781428Y-83986190D01*
X123733809Y-83986190D01*
X123662380Y-83962380D01*
X123614761Y-83914761D01*
X123590952Y-83867142D01*
X123567142Y-83771904D01*
X123567142Y-83700476D01*
X123590952Y-83605238D01*
X123614761Y-83557619D01*
X123662380Y-83510000D01*
X123733809Y-83486190D01*
X123781428Y-83486190D01*
X123852857Y-83510000D01*
X123876666Y-83533809D01*
X124114761Y-83986190D02*
X124210000Y-83986190D01*
X124257619Y-83962380D01*
X124281428Y-83938571D01*
X124329047Y-83867142D01*
X124352857Y-83771904D01*
X124352857Y-83581428D01*
X124329047Y-83533809D01*
X124305238Y-83510000D01*
X124257619Y-83486190D01*
X124162380Y-83486190D01*
X124114761Y-83510000D01*
X124090952Y-83533809D01*
X124067142Y-83581428D01*
X124067142Y-83700476D01*
X124090952Y-83748095D01*
X124114761Y-83771904D01*
X124162380Y-83795714D01*
X124257619Y-83795714D01*
X124305238Y-83771904D01*
X124329047Y-83748095D01*
X124352857Y-83700476D01*
%TO.C,D2*%
X138880952Y-75576190D02*
X138880952Y-75076190D01*
X139000000Y-75076190D01*
X139071428Y-75100000D01*
X139119047Y-75147619D01*
X139142857Y-75195238D01*
X139166666Y-75290476D01*
X139166666Y-75361904D01*
X139142857Y-75457142D01*
X139119047Y-75504761D01*
X139071428Y-75552380D01*
X139000000Y-75576190D01*
X138880952Y-75576190D01*
X139357142Y-75123809D02*
X139380952Y-75100000D01*
X139428571Y-75076190D01*
X139547619Y-75076190D01*
X139595238Y-75100000D01*
X139619047Y-75123809D01*
X139642857Y-75171428D01*
X139642857Y-75219047D01*
X139619047Y-75290476D01*
X139333333Y-75576190D01*
X139642857Y-75576190D01*
%TO.C,C6*%
X110396666Y-77558571D02*
X110372857Y-77582380D01*
X110301428Y-77606190D01*
X110253809Y-77606190D01*
X110182380Y-77582380D01*
X110134761Y-77534761D01*
X110110952Y-77487142D01*
X110087142Y-77391904D01*
X110087142Y-77320476D01*
X110110952Y-77225238D01*
X110134761Y-77177619D01*
X110182380Y-77130000D01*
X110253809Y-77106190D01*
X110301428Y-77106190D01*
X110372857Y-77130000D01*
X110396666Y-77153809D01*
X110825238Y-77106190D02*
X110730000Y-77106190D01*
X110682380Y-77130000D01*
X110658571Y-77153809D01*
X110610952Y-77225238D01*
X110587142Y-77320476D01*
X110587142Y-77510952D01*
X110610952Y-77558571D01*
X110634761Y-77582380D01*
X110682380Y-77606190D01*
X110777619Y-77606190D01*
X110825238Y-77582380D01*
X110849047Y-77558571D01*
X110872857Y-77510952D01*
X110872857Y-77391904D01*
X110849047Y-77344285D01*
X110825238Y-77320476D01*
X110777619Y-77296666D01*
X110682380Y-77296666D01*
X110634761Y-77320476D01*
X110610952Y-77344285D01*
X110587142Y-77391904D01*
%TO.C,U4*%
X125219047Y-76856190D02*
X125219047Y-77260952D01*
X125242857Y-77308571D01*
X125266666Y-77332380D01*
X125314285Y-77356190D01*
X125409523Y-77356190D01*
X125457142Y-77332380D01*
X125480952Y-77308571D01*
X125504761Y-77260952D01*
X125504761Y-76856190D01*
X125957142Y-77022857D02*
X125957142Y-77356190D01*
X125838095Y-76832380D02*
X125719047Y-77189523D01*
X126028571Y-77189523D01*
%TO.C,C8*%
X127932666Y-78156571D02*
X127908857Y-78180380D01*
X127837428Y-78204190D01*
X127789809Y-78204190D01*
X127718380Y-78180380D01*
X127670761Y-78132761D01*
X127646952Y-78085142D01*
X127623142Y-77989904D01*
X127623142Y-77918476D01*
X127646952Y-77823238D01*
X127670761Y-77775619D01*
X127718380Y-77728000D01*
X127789809Y-77704190D01*
X127837428Y-77704190D01*
X127908857Y-77728000D01*
X127932666Y-77751809D01*
X128218380Y-77918476D02*
X128170761Y-77894666D01*
X128146952Y-77870857D01*
X128123142Y-77823238D01*
X128123142Y-77799428D01*
X128146952Y-77751809D01*
X128170761Y-77728000D01*
X128218380Y-77704190D01*
X128313619Y-77704190D01*
X128361238Y-77728000D01*
X128385047Y-77751809D01*
X128408857Y-77799428D01*
X128408857Y-77823238D01*
X128385047Y-77870857D01*
X128361238Y-77894666D01*
X128313619Y-77918476D01*
X128218380Y-77918476D01*
X128170761Y-77942285D01*
X128146952Y-77966095D01*
X128123142Y-78013714D01*
X128123142Y-78108952D01*
X128146952Y-78156571D01*
X128170761Y-78180380D01*
X128218380Y-78204190D01*
X128313619Y-78204190D01*
X128361238Y-78180380D01*
X128385047Y-78156571D01*
X128408857Y-78108952D01*
X128408857Y-78013714D01*
X128385047Y-77966095D01*
X128361238Y-77942285D01*
X128313619Y-77918476D01*
%TO.C,R14*%
X120668571Y-79786190D02*
X120501904Y-79548095D01*
X120382857Y-79786190D02*
X120382857Y-79286190D01*
X120573333Y-79286190D01*
X120620952Y-79310000D01*
X120644761Y-79333809D01*
X120668571Y-79381428D01*
X120668571Y-79452857D01*
X120644761Y-79500476D01*
X120620952Y-79524285D01*
X120573333Y-79548095D01*
X120382857Y-79548095D01*
X121144761Y-79786190D02*
X120859047Y-79786190D01*
X121001904Y-79786190D02*
X121001904Y-79286190D01*
X120954285Y-79357619D01*
X120906666Y-79405238D01*
X120859047Y-79429047D01*
X121573333Y-79452857D02*
X121573333Y-79786190D01*
X121454285Y-79262380D02*
X121335238Y-79619523D01*
X121644761Y-79619523D01*
%TO.C,C5*%
X108046666Y-76078571D02*
X108022857Y-76102380D01*
X107951428Y-76126190D01*
X107903809Y-76126190D01*
X107832380Y-76102380D01*
X107784761Y-76054761D01*
X107760952Y-76007142D01*
X107737142Y-75911904D01*
X107737142Y-75840476D01*
X107760952Y-75745238D01*
X107784761Y-75697619D01*
X107832380Y-75650000D01*
X107903809Y-75626190D01*
X107951428Y-75626190D01*
X108022857Y-75650000D01*
X108046666Y-75673809D01*
X108499047Y-75626190D02*
X108260952Y-75626190D01*
X108237142Y-75864285D01*
X108260952Y-75840476D01*
X108308571Y-75816666D01*
X108427619Y-75816666D01*
X108475238Y-75840476D01*
X108499047Y-75864285D01*
X108522857Y-75911904D01*
X108522857Y-76030952D01*
X108499047Y-76078571D01*
X108475238Y-76102380D01*
X108427619Y-76126190D01*
X108308571Y-76126190D01*
X108260952Y-76102380D01*
X108237142Y-76078571D01*
%TO.C,U5*%
X137699047Y-78966190D02*
X137699047Y-79370952D01*
X137722857Y-79418571D01*
X137746666Y-79442380D01*
X137794285Y-79466190D01*
X137889523Y-79466190D01*
X137937142Y-79442380D01*
X137960952Y-79418571D01*
X137984761Y-79370952D01*
X137984761Y-78966190D01*
X138460952Y-78966190D02*
X138222857Y-78966190D01*
X138199047Y-79204285D01*
X138222857Y-79180476D01*
X138270476Y-79156666D01*
X138389523Y-79156666D01*
X138437142Y-79180476D01*
X138460952Y-79204285D01*
X138484761Y-79251904D01*
X138484761Y-79370952D01*
X138460952Y-79418571D01*
X138437142Y-79442380D01*
X138389523Y-79466190D01*
X138270476Y-79466190D01*
X138222857Y-79442380D01*
X138199047Y-79418571D01*
%TO.C,R10*%
X140806190Y-82121428D02*
X140568095Y-82288095D01*
X140806190Y-82407142D02*
X140306190Y-82407142D01*
X140306190Y-82216666D01*
X140330000Y-82169047D01*
X140353809Y-82145238D01*
X140401428Y-82121428D01*
X140472857Y-82121428D01*
X140520476Y-82145238D01*
X140544285Y-82169047D01*
X140568095Y-82216666D01*
X140568095Y-82407142D01*
X140806190Y-81645238D02*
X140806190Y-81930952D01*
X140806190Y-81788095D02*
X140306190Y-81788095D01*
X140377619Y-81835714D01*
X140425238Y-81883333D01*
X140449047Y-81930952D01*
X140306190Y-81335714D02*
X140306190Y-81288095D01*
X140330000Y-81240476D01*
X140353809Y-81216666D01*
X140401428Y-81192857D01*
X140496666Y-81169047D01*
X140615714Y-81169047D01*
X140710952Y-81192857D01*
X140758571Y-81216666D01*
X140782380Y-81240476D01*
X140806190Y-81288095D01*
X140806190Y-81335714D01*
X140782380Y-81383333D01*
X140758571Y-81407142D01*
X140710952Y-81430952D01*
X140615714Y-81454761D01*
X140496666Y-81454761D01*
X140401428Y-81430952D01*
X140353809Y-81407142D01*
X140330000Y-81383333D01*
X140306190Y-81335714D01*
%TO.C,C15*%
X83428571Y-78421428D02*
X83452380Y-78445238D01*
X83476190Y-78516666D01*
X83476190Y-78564285D01*
X83452380Y-78635714D01*
X83404761Y-78683333D01*
X83357142Y-78707142D01*
X83261904Y-78730952D01*
X83190476Y-78730952D01*
X83095238Y-78707142D01*
X83047619Y-78683333D01*
X83000000Y-78635714D01*
X82976190Y-78564285D01*
X82976190Y-78516666D01*
X83000000Y-78445238D01*
X83023809Y-78421428D01*
X83476190Y-77945238D02*
X83476190Y-78230952D01*
X83476190Y-78088095D02*
X82976190Y-78088095D01*
X83047619Y-78135714D01*
X83095238Y-78183333D01*
X83119047Y-78230952D01*
X82976190Y-77492857D02*
X82976190Y-77730952D01*
X83214285Y-77754761D01*
X83190476Y-77730952D01*
X83166666Y-77683333D01*
X83166666Y-77564285D01*
X83190476Y-77516666D01*
X83214285Y-77492857D01*
X83261904Y-77469047D01*
X83380952Y-77469047D01*
X83428571Y-77492857D01*
X83452380Y-77516666D01*
X83476190Y-77564285D01*
X83476190Y-77683333D01*
X83452380Y-77730952D01*
X83428571Y-77754761D01*
%TO.C,R1*%
X149666666Y-76926190D02*
X149500000Y-76688095D01*
X149380952Y-76926190D02*
X149380952Y-76426190D01*
X149571428Y-76426190D01*
X149619047Y-76450000D01*
X149642857Y-76473809D01*
X149666666Y-76521428D01*
X149666666Y-76592857D01*
X149642857Y-76640476D01*
X149619047Y-76664285D01*
X149571428Y-76688095D01*
X149380952Y-76688095D01*
X150142857Y-76926190D02*
X149857142Y-76926190D01*
X150000000Y-76926190D02*
X150000000Y-76426190D01*
X149952380Y-76497619D01*
X149904761Y-76545238D01*
X149857142Y-76569047D01*
%TO.C,R12*%
X138078571Y-77176190D02*
X137911904Y-76938095D01*
X137792857Y-77176190D02*
X137792857Y-76676190D01*
X137983333Y-76676190D01*
X138030952Y-76700000D01*
X138054761Y-76723809D01*
X138078571Y-76771428D01*
X138078571Y-76842857D01*
X138054761Y-76890476D01*
X138030952Y-76914285D01*
X137983333Y-76938095D01*
X137792857Y-76938095D01*
X138554761Y-77176190D02*
X138269047Y-77176190D01*
X138411904Y-77176190D02*
X138411904Y-76676190D01*
X138364285Y-76747619D01*
X138316666Y-76795238D01*
X138269047Y-76819047D01*
X138745238Y-76723809D02*
X138769047Y-76700000D01*
X138816666Y-76676190D01*
X138935714Y-76676190D01*
X138983333Y-76700000D01*
X139007142Y-76723809D01*
X139030952Y-76771428D01*
X139030952Y-76819047D01*
X139007142Y-76890476D01*
X138721428Y-77176190D01*
X139030952Y-77176190D01*
%TO.C,R15*%
X118998571Y-79726190D02*
X118831904Y-79488095D01*
X118712857Y-79726190D02*
X118712857Y-79226190D01*
X118903333Y-79226190D01*
X118950952Y-79250000D01*
X118974761Y-79273809D01*
X118998571Y-79321428D01*
X118998571Y-79392857D01*
X118974761Y-79440476D01*
X118950952Y-79464285D01*
X118903333Y-79488095D01*
X118712857Y-79488095D01*
X119474761Y-79726190D02*
X119189047Y-79726190D01*
X119331904Y-79726190D02*
X119331904Y-79226190D01*
X119284285Y-79297619D01*
X119236666Y-79345238D01*
X119189047Y-79369047D01*
X119927142Y-79226190D02*
X119689047Y-79226190D01*
X119665238Y-79464285D01*
X119689047Y-79440476D01*
X119736666Y-79416666D01*
X119855714Y-79416666D01*
X119903333Y-79440476D01*
X119927142Y-79464285D01*
X119950952Y-79511904D01*
X119950952Y-79630952D01*
X119927142Y-79678571D01*
X119903333Y-79702380D01*
X119855714Y-79726190D01*
X119736666Y-79726190D01*
X119689047Y-79702380D01*
X119665238Y-79678571D01*
%TO.C,C3*%
X107986666Y-78208571D02*
X107962857Y-78232380D01*
X107891428Y-78256190D01*
X107843809Y-78256190D01*
X107772380Y-78232380D01*
X107724761Y-78184761D01*
X107700952Y-78137142D01*
X107677142Y-78041904D01*
X107677142Y-77970476D01*
X107700952Y-77875238D01*
X107724761Y-77827619D01*
X107772380Y-77780000D01*
X107843809Y-77756190D01*
X107891428Y-77756190D01*
X107962857Y-77780000D01*
X107986666Y-77803809D01*
X108153333Y-77756190D02*
X108462857Y-77756190D01*
X108296190Y-77946666D01*
X108367619Y-77946666D01*
X108415238Y-77970476D01*
X108439047Y-77994285D01*
X108462857Y-78041904D01*
X108462857Y-78160952D01*
X108439047Y-78208571D01*
X108415238Y-78232380D01*
X108367619Y-78256190D01*
X108224761Y-78256190D01*
X108177142Y-78232380D01*
X108153333Y-78208571D01*
D12*
%TO.C,Q1*%
X157843507Y-75235775D02*
X157043507Y-75235775D01*
X157843507Y-78355775D02*
X157043507Y-78355775D01*
X157843507Y-75235775D02*
X158643507Y-75235775D01*
X157843507Y-78355775D02*
X159643507Y-78355775D01*
D13*
%TO.C,D1*%
X140350000Y-75855000D02*
G75*
G03*
X140350000Y-75855000I-50000J0D01*
G01*
D12*
%TO.C,C18*%
X121640000Y-82707836D02*
X121640000Y-82492164D01*
X122360000Y-82707836D02*
X122360000Y-82492164D01*
%TO.C,SW1*%
X93950000Y-77800000D02*
X97250000Y-77800000D01*
X95100000Y-74300000D02*
X94600000Y-74680000D01*
X94600000Y-74680000D02*
X94600000Y-75000000D01*
X93950000Y-75000000D02*
X97250000Y-75000000D01*
X97250000Y-75000000D02*
X97250000Y-75300000D01*
X97250000Y-77800000D02*
X97250000Y-77500000D01*
X93950000Y-77500000D02*
X93950000Y-77800000D01*
X93950000Y-75300000D02*
X93950000Y-75000000D01*
X95100000Y-74300000D02*
X96100000Y-74300000D01*
X96100000Y-74300000D02*
X96600000Y-74680000D01*
X96600000Y-74680000D02*
X96600000Y-75000000D01*
%TO.C,Q3*%
X121474511Y-77459511D02*
X121474511Y-78759511D01*
X119674511Y-79109511D02*
X119674511Y-77459511D01*
%TO.C,R4*%
X152903641Y-78645000D02*
X152596359Y-78645000D01*
X152903641Y-79405000D02*
X152596359Y-79405000D01*
%TO.C,C1*%
X97117164Y-77705000D02*
X97332836Y-77705000D01*
X97117164Y-78425000D02*
X97332836Y-78425000D01*
%TO.C,Q2*%
X121315000Y-80950000D02*
X121315000Y-82600000D01*
X119515000Y-82600000D02*
X119515000Y-81300000D01*
%TO.C,D5*%
X132425000Y-75175000D02*
X130725000Y-75175000D01*
X132425000Y-75175000D02*
X132425000Y-77725000D01*
X130725000Y-75175000D02*
X130725000Y-77725000D01*
%TO.C,C16*%
X83790000Y-79712164D02*
X83790000Y-79927836D01*
X84510000Y-79712164D02*
X84510000Y-79927836D01*
%TO.C,R6*%
X86530000Y-80003641D02*
X86530000Y-79696359D01*
X85770000Y-80003641D02*
X85770000Y-79696359D01*
%TO.C,C7*%
X129790000Y-76082836D02*
X129790000Y-75867164D01*
X130510000Y-76082836D02*
X130510000Y-75867164D01*
%TO.C,AE1*%
X106867000Y-75020000D02*
X106867000Y-80020000D01*
X102630748Y-76702000D02*
X104053252Y-76702000D01*
X102630748Y-78522000D02*
X104053252Y-78522000D01*
X99867000Y-80020000D02*
X106867000Y-80020000D01*
X99867000Y-80020000D02*
X99867000Y-75020000D01*
X99867000Y-75020000D02*
X106867000Y-75020000D01*
%TO.C,U6*%
X86629600Y-80902200D02*
X84652833Y-80902200D01*
X86629600Y-83797800D02*
X86629600Y-80902200D01*
X82870400Y-82117355D02*
X82870400Y-82582645D01*
X84652833Y-83797800D02*
X86629600Y-83797800D01*
%TO.C,C4*%
X109987836Y-79620000D02*
X109772164Y-79620000D01*
X109987836Y-80340000D02*
X109772164Y-80340000D01*
%TO.C,IC1*%
X153293507Y-78355775D02*
X155093507Y-78355775D01*
X153293507Y-75235775D02*
X154093507Y-75235775D01*
X153293507Y-78355775D02*
X152493507Y-78355775D01*
X153293507Y-75235775D02*
X152493507Y-75235775D01*
D14*
%TO.C,U1*%
X118150000Y-76000000D02*
X117895000Y-76000000D01*
X111150000Y-76255000D02*
X111150000Y-76000000D01*
X111150000Y-83000000D02*
X111405000Y-83000000D01*
X111150000Y-82745000D02*
X111150000Y-83000000D01*
X118150000Y-82745000D02*
X118150000Y-83000000D01*
X118150000Y-76255000D02*
X118150000Y-76000000D01*
X118150000Y-83000000D02*
X117895000Y-83000000D01*
X111150000Y-76000000D02*
X111405000Y-76000000D01*
D15*
X110550000Y-76700000D02*
G75*
G03*
X110550000Y-76700000I-100000J0D01*
G01*
D12*
%TO.C,R7*%
X85530000Y-79696359D02*
X85530000Y-80003641D01*
X84770000Y-79696359D02*
X84770000Y-80003641D01*
%TO.C,U3*%
X134600000Y-78335000D02*
X133800000Y-78335000D01*
X134600000Y-75215000D02*
X135400000Y-75215000D01*
X134600000Y-75215000D02*
X133800000Y-75215000D01*
X134600000Y-78335000D02*
X136400000Y-78335000D01*
%TO.C,R16*%
X146278641Y-81020000D02*
X145971359Y-81020000D01*
X146278641Y-81780000D02*
X145971359Y-81780000D01*
%TO.C,R9*%
X138920000Y-79043641D02*
X138920000Y-78736359D01*
X139680000Y-79043641D02*
X139680000Y-78736359D01*
%TO.C,C17*%
X140960000Y-81742164D02*
X140960000Y-81957836D01*
X140240000Y-81742164D02*
X140240000Y-81957836D01*
%TO.C,J1*%
X130590000Y-78960000D02*
X130140000Y-78960000D01*
X128140000Y-79640000D02*
X128560000Y-79640000D01*
X135660000Y-79640000D02*
X135240000Y-79640000D01*
X128140000Y-81620000D02*
X128140000Y-79640000D01*
X130140000Y-79410000D02*
X130140000Y-78960000D01*
X135660000Y-81620000D02*
X135660000Y-79640000D01*
X135660000Y-83590000D02*
X135660000Y-83990000D01*
X128140000Y-83990000D02*
X128140000Y-83590000D01*
%TO.C,C20*%
X143892164Y-81660000D02*
X144107836Y-81660000D01*
X143892164Y-80940000D02*
X144107836Y-80940000D01*
%TO.C,R13*%
X137845000Y-78736359D02*
X137845000Y-79043641D01*
X138605000Y-78736359D02*
X138605000Y-79043641D01*
%TO.C,C2*%
X109854664Y-76240000D02*
X110070336Y-76240000D01*
X109854664Y-76960000D02*
X110070336Y-76960000D01*
%TO.C,R8*%
X140680000Y-79043641D02*
X140680000Y-78736359D01*
X139920000Y-79043641D02*
X139920000Y-78736359D01*
%TO.C,U2*%
X148236075Y-80665000D02*
X148236075Y-80405000D01*
X142736075Y-80665000D02*
X142736075Y-80405000D01*
X145486075Y-75215000D02*
X142736075Y-75215000D01*
X145486075Y-75215000D02*
X148236075Y-75215000D01*
X145486075Y-80665000D02*
X142736075Y-80665000D01*
X148236075Y-75215000D02*
X148236075Y-75475000D01*
X145486075Y-80665000D02*
X148236075Y-80665000D01*
X148236075Y-80405000D02*
X149886075Y-80405000D01*
X142736075Y-75215000D02*
X142736075Y-75475000D01*
%TO.C,C12*%
X150326075Y-77847164D02*
X150326075Y-78062836D01*
X151046075Y-77847164D02*
X151046075Y-78062836D01*
%TO.C,R5*%
X150306075Y-80098641D02*
X150306075Y-79791359D01*
X151066075Y-80098641D02*
X151066075Y-79791359D01*
%TO.C,R2*%
X94103641Y-78470000D02*
X93796359Y-78470000D01*
X94103641Y-77710000D02*
X93796359Y-77710000D01*
%TO.C,Q4*%
X137785000Y-76165000D02*
X137785000Y-77325000D01*
X136565000Y-76165000D02*
X137785000Y-76165000D01*
X136565000Y-77325000D02*
X136565000Y-76165000D01*
%TO.C,C9*%
X123372164Y-82690000D02*
X123587836Y-82690000D01*
X123372164Y-83410000D02*
X123587836Y-83410000D01*
D13*
%TO.C,D2*%
X139350000Y-75855000D02*
G75*
G03*
X139350000Y-75855000I-50000J0D01*
G01*
D12*
%TO.C,C6*%
X110310000Y-78457836D02*
X110310000Y-78242164D01*
X109590000Y-78457836D02*
X109590000Y-78242164D01*
%TO.C,U4*%
X122690000Y-78265000D02*
X122690000Y-77790000D01*
X126910000Y-81535000D02*
X126910000Y-82010000D01*
X126910000Y-77790000D02*
X126435000Y-77790000D01*
X126910000Y-82010000D02*
X126435000Y-82010000D01*
X122690000Y-81535000D02*
X122690000Y-82010000D01*
X122690000Y-77790000D02*
X123165000Y-77790000D01*
X126910000Y-78265000D02*
X126910000Y-77790000D01*
%TO.C,C8*%
X127615000Y-78967164D02*
X127615000Y-79182836D01*
X128335000Y-78967164D02*
X128335000Y-79182836D01*
%TO.C,R14*%
X121046359Y-80650000D02*
X121353641Y-80650000D01*
X121046359Y-79890000D02*
X121353641Y-79890000D01*
%TO.C,C5*%
X108247836Y-76960000D02*
X108032164Y-76960000D01*
X108247836Y-76240000D02*
X108032164Y-76240000D01*
%TO.C,U5*%
X138080000Y-83200000D02*
X138730000Y-83200000D01*
X138080000Y-80080000D02*
X136405000Y-80080000D01*
X138080000Y-83200000D02*
X137430000Y-83200000D01*
X138080000Y-80080000D02*
X138730000Y-80080000D01*
%TO.C,R10*%
X141370000Y-81953641D02*
X141370000Y-81646359D01*
X142130000Y-81953641D02*
X142130000Y-81646359D01*
%TO.C,C15*%
X82840000Y-79712164D02*
X82840000Y-79927836D01*
X83560000Y-79712164D02*
X83560000Y-79927836D01*
%TO.C,R1*%
X150306075Y-75851359D02*
X150306075Y-76158641D01*
X151066075Y-75851359D02*
X151066075Y-76158641D01*
%TO.C,R12*%
X137845000Y-76786359D02*
X137845000Y-77093641D01*
X138605000Y-76786359D02*
X138605000Y-77093641D01*
%TO.C,R15*%
X119453641Y-80650000D02*
X119146359Y-80650000D01*
X119453641Y-79890000D02*
X119146359Y-79890000D01*
%TO.C,C3*%
X109310000Y-78457836D02*
X109310000Y-78242164D01*
X108590000Y-78457836D02*
X108590000Y-78242164D01*
%TD*%
M02*
