%TF.GenerationSoftware,KiCad,Pcbnew,6.0.5-a6ca702e91~116~ubuntu22.04.1*%
%TF.CreationDate,2022-07-01T18:09:48-07:00*%
%TF.ProjectId,OSSG_v0p3,4f535347-5f76-4307-9033-2e6b69636164,v0.3*%
%TF.SameCoordinates,Original*%
%TF.FileFunction,Copper,L2,Inr*%
%TF.FilePolarity,Positive*%
%FSLAX46Y46*%
G04 Gerber Fmt 4.6, Leading zero omitted, Abs format (unit mm)*
G04 Created by KiCad (PCBNEW 6.0.5-a6ca702e91~116~ubuntu22.04.1) date 2022-07-01 18:09:48*
%MOMM*%
%LPD*%
G01*
G04 APERTURE LIST*
%TA.AperFunction,ComponentPad*%
%ADD10C,0.381000*%
%TD*%
%TA.AperFunction,ComponentPad*%
%ADD11O,1.250000X0.950000*%
%TD*%
%TA.AperFunction,ComponentPad*%
%ADD12O,0.890000X1.550000*%
%TD*%
%TA.AperFunction,ViaPad*%
%ADD13C,0.450000*%
%TD*%
%TA.AperFunction,ViaPad*%
%ADD14C,1.000000*%
%TD*%
%TA.AperFunction,ViaPad*%
%ADD15C,0.700000*%
%TD*%
%TA.AperFunction,ViaPad*%
%ADD16C,0.500000*%
%TD*%
G04 APERTURE END LIST*
D10*
%TO.N,N/C*%
%TO.C,U6*%
X85462600Y-82350000D03*
%TD*%
D11*
%TO.N,GND*%
%TO.C,J1*%
X129400000Y-79900000D03*
D12*
X128400000Y-82600000D03*
X135400000Y-82600000D03*
D11*
X134400000Y-79900000D03*
%TD*%
D13*
%TO.N,EN*%
X110700000Y-80710000D03*
X119840000Y-82595000D03*
X96800000Y-78900000D03*
D14*
%TO.N,GND*%
X112610000Y-80240000D03*
X112580000Y-78870000D03*
D13*
X135600000Y-76100000D03*
X100960000Y-80300000D03*
X105760000Y-80300000D03*
D14*
X115300000Y-78880000D03*
D13*
X104160000Y-80300000D03*
X99580000Y-79280000D03*
X107150000Y-79100000D03*
X137600000Y-79200000D03*
X99580000Y-78480000D03*
D14*
X112600000Y-77420000D03*
D13*
X99580000Y-76880000D03*
X123664663Y-82671699D03*
X86870000Y-82190000D03*
X106500000Y-80300000D03*
X122384362Y-81682341D03*
X102560000Y-80300000D03*
D14*
X113910000Y-78860000D03*
D13*
X108892668Y-80078575D03*
X107150000Y-76080000D03*
D14*
X116660000Y-77440000D03*
D13*
X152550000Y-78525000D03*
D14*
X115330000Y-80250000D03*
D13*
X101760000Y-80300000D03*
X103360000Y-80300000D03*
D14*
X115310000Y-81540000D03*
D15*
X125650000Y-79900000D03*
X126970000Y-76960000D03*
X145775000Y-80325000D03*
D13*
X99580000Y-76080000D03*
X128675000Y-78375000D03*
D14*
X132900000Y-82600000D03*
D13*
X107150000Y-76880000D03*
X110237500Y-76250000D03*
D14*
X116670000Y-80260000D03*
D13*
X130300000Y-76400000D03*
X98300000Y-77350000D03*
X107150000Y-78270000D03*
D14*
X116650000Y-81550000D03*
D13*
X100240000Y-80300000D03*
D14*
X113940000Y-80230000D03*
D15*
X147305000Y-79845000D03*
D13*
X107150000Y-79970000D03*
D14*
X129550000Y-82600000D03*
D13*
X99580000Y-77680000D03*
X104960000Y-80300000D03*
D14*
X130900000Y-82600000D03*
X113920000Y-81520000D03*
D13*
X99590000Y-79980000D03*
D14*
X134350000Y-82600000D03*
X116640000Y-78890000D03*
X113930000Y-77410000D03*
X115320000Y-77430000D03*
X112590000Y-81530000D03*
D13*
X133900000Y-75450000D03*
D15*
%TO.N,+3.3VA*%
X110862500Y-78025000D03*
D13*
X109188941Y-76130596D03*
D15*
X111090000Y-76050000D03*
D13*
%TO.N,ADC1C0*%
X107740000Y-81280000D03*
%TO.N,ADC1C1*%
X109890000Y-80670000D03*
X110010000Y-81870000D03*
%TO.N,ADC1C2*%
X121250000Y-83530000D03*
X137350000Y-78500000D03*
X110700000Y-78810000D03*
%TO.N,BATT-*%
X158000000Y-77140000D03*
%TO.N,Net-(D2-Pad1)*%
X143225000Y-78600000D03*
X139625000Y-75975000D03*
%TO.N,Net-(C9-Pad1)*%
X126500000Y-81850000D03*
X122925000Y-82175000D03*
%TO.N,RTS*%
X121200000Y-78000000D03*
X122800000Y-78050000D03*
%TO.N,IO0*%
X119999511Y-77709511D03*
X118250000Y-83300000D03*
%TO.N,DTR*%
X121850000Y-81175000D03*
X121225000Y-79525000D03*
%TO.N,BATT+*%
X142191444Y-81658556D03*
D15*
X147405538Y-76005538D03*
D13*
X139900000Y-80925000D03*
X139200000Y-82250000D03*
%TO.N,+3V3*%
X126000000Y-82700000D03*
D15*
X132900000Y-77900000D03*
D13*
X93440000Y-78800000D03*
D16*
X83200000Y-80950000D03*
D13*
X114641757Y-83352982D03*
D16*
X86950000Y-80550000D03*
D13*
X117990000Y-76100000D03*
D16*
X83700000Y-80300000D03*
D13*
X121225000Y-82625000D03*
%TO.N,IO4*%
X120190000Y-83240000D03*
%TO.N,TX_ESP*%
X122200000Y-75800000D03*
%TO.N,RX_ESP*%
X121500000Y-76000000D03*
%TO.N,IO25*%
X102820000Y-83060000D03*
X112350000Y-83290000D03*
X110340000Y-83280000D03*
%TO.N,IO26*%
X100310000Y-83150000D03*
X113120000Y-83430000D03*
%TO.N,IO21*%
X114730000Y-75460000D03*
%TO.N,IO15*%
X115890000Y-83280000D03*
%TO.N,IO14*%
X105230000Y-82190000D03*
X113900000Y-83349020D03*
X110740000Y-81500000D03*
%TO.N,IO32*%
X83350000Y-82400000D03*
X110770000Y-82390000D03*
%TO.N,IO33*%
X88987747Y-81512253D03*
%TO.N,EXT1_MIC_CLK*%
X121200000Y-77200000D03*
X124010000Y-76890000D03*
%TO.N,IO5*%
X119880484Y-76975327D03*
%TO.N,IO18*%
X119450000Y-76350000D03*
%TO.N,Net-(IC1-Pad3)*%
X155625000Y-77800000D03*
X155525000Y-75700000D03*
D15*
%TO.N,V_PSU*%
X133050000Y-76950000D03*
X137300000Y-77700000D03*
D13*
X138050000Y-75700000D03*
%TO.N,PSEN*%
X142600000Y-82300000D03*
X138710000Y-80760000D03*
X137075000Y-75925000D03*
%TO.N,EXT1_MIC_DATA*%
X124797675Y-76965890D03*
X118675500Y-81014500D03*
%TO.N,Net-(R6-Pad1)*%
X85600000Y-80800000D03*
X84200000Y-82450000D03*
%TO.N,V_USB*%
X145110358Y-79845000D03*
X144565343Y-82020000D03*
%TD*%
%TA.AperFunction,Conductor*%
%TO.N,GND*%
G36*
X99842971Y-75207529D02*
G01*
X99850000Y-75224500D01*
X99850000Y-80000000D01*
X106850000Y-80000000D01*
X106850000Y-79525000D01*
X120845832Y-79525000D01*
X120864390Y-79642169D01*
X120918247Y-79747869D01*
X121002131Y-79831753D01*
X121003812Y-79832609D01*
X121003814Y-79832611D01*
X121106147Y-79884752D01*
X121107831Y-79885610D01*
X121225000Y-79904168D01*
X121342169Y-79885610D01*
X121343853Y-79884752D01*
X121421871Y-79845000D01*
X144731190Y-79845000D01*
X144749748Y-79962169D01*
X144750606Y-79963853D01*
X144795142Y-80051259D01*
X144803605Y-80067869D01*
X144887489Y-80151753D01*
X144889170Y-80152609D01*
X144889172Y-80152611D01*
X144963039Y-80190248D01*
X144993189Y-80205610D01*
X145110358Y-80224168D01*
X145227527Y-80205610D01*
X145257677Y-80190248D01*
X145331544Y-80152611D01*
X145331546Y-80152609D01*
X145333227Y-80151753D01*
X145417111Y-80067869D01*
X145425575Y-80051259D01*
X145470110Y-79963853D01*
X145470968Y-79962169D01*
X145489526Y-79845000D01*
X145470968Y-79727831D01*
X145417111Y-79622131D01*
X145333227Y-79538247D01*
X145331546Y-79537391D01*
X145331544Y-79537389D01*
X145229211Y-79485248D01*
X145227527Y-79484390D01*
X145110358Y-79465832D01*
X144993189Y-79484390D01*
X144991505Y-79485248D01*
X144889172Y-79537389D01*
X144889170Y-79537391D01*
X144887489Y-79538247D01*
X144803605Y-79622131D01*
X144749748Y-79727831D01*
X144731190Y-79845000D01*
X121421871Y-79845000D01*
X121446186Y-79832611D01*
X121446188Y-79832609D01*
X121447869Y-79831753D01*
X121531753Y-79747869D01*
X121585610Y-79642169D01*
X121585735Y-79641380D01*
X128301553Y-79641380D01*
X128302056Y-79644999D01*
X128303378Y-79646000D01*
X129141227Y-79646000D01*
X129144602Y-79644602D01*
X129146000Y-79641227D01*
X129654000Y-79641227D01*
X129655398Y-79644602D01*
X129658773Y-79646000D01*
X130499209Y-79646000D01*
X130502584Y-79644602D01*
X130503052Y-79643472D01*
X130502282Y-79641380D01*
X133301553Y-79641380D01*
X133302056Y-79644999D01*
X133303378Y-79646000D01*
X134141227Y-79646000D01*
X134144602Y-79644602D01*
X134146000Y-79641227D01*
X134654000Y-79641227D01*
X134655398Y-79644602D01*
X134658773Y-79646000D01*
X135499209Y-79646000D01*
X135502584Y-79644602D01*
X135503052Y-79643472D01*
X135438491Y-79468000D01*
X135437429Y-79465824D01*
X135333478Y-79298168D01*
X135332002Y-79296251D01*
X135196459Y-79152919D01*
X135194632Y-79151342D01*
X135033032Y-79038188D01*
X135030925Y-79037011D01*
X134849875Y-78958664D01*
X134847575Y-78957934D01*
X134658674Y-78918470D01*
X134655082Y-78919149D01*
X134654000Y-78920735D01*
X134654000Y-79641227D01*
X134146000Y-79641227D01*
X134146000Y-78927268D01*
X134144602Y-78923893D01*
X134142167Y-78922884D01*
X134052530Y-78931989D01*
X134050164Y-78932475D01*
X133861920Y-78991467D01*
X133859692Y-78992422D01*
X133687161Y-79088058D01*
X133685175Y-79089438D01*
X133535387Y-79217820D01*
X133533725Y-79219566D01*
X133412817Y-79375440D01*
X133411531Y-79377499D01*
X133324437Y-79554497D01*
X133323595Y-79556761D01*
X133301553Y-79641380D01*
X130502282Y-79641380D01*
X130438491Y-79468000D01*
X130437429Y-79465824D01*
X130333478Y-79298168D01*
X130332002Y-79296251D01*
X130196459Y-79152919D01*
X130194632Y-79151342D01*
X130033032Y-79038188D01*
X130030925Y-79037011D01*
X129849875Y-78958664D01*
X129847575Y-78957934D01*
X129658674Y-78918470D01*
X129655082Y-78919149D01*
X129654000Y-78920735D01*
X129654000Y-79641227D01*
X129146000Y-79641227D01*
X129146000Y-78927268D01*
X129144602Y-78923893D01*
X129142167Y-78922884D01*
X129052530Y-78931989D01*
X129050164Y-78932475D01*
X128861920Y-78991467D01*
X128859692Y-78992422D01*
X128687161Y-79088058D01*
X128685175Y-79089438D01*
X128535387Y-79217820D01*
X128533725Y-79219566D01*
X128412817Y-79375440D01*
X128411531Y-79377499D01*
X128324437Y-79554497D01*
X128323595Y-79556761D01*
X128301553Y-79641380D01*
X121585735Y-79641380D01*
X121604168Y-79525000D01*
X121585610Y-79407831D01*
X121531753Y-79302131D01*
X121447869Y-79218247D01*
X121446188Y-79217391D01*
X121446186Y-79217389D01*
X121343853Y-79165248D01*
X121342169Y-79164390D01*
X121225000Y-79145832D01*
X121107831Y-79164390D01*
X121106147Y-79165248D01*
X121003814Y-79217389D01*
X121003812Y-79217391D01*
X121002131Y-79218247D01*
X120918247Y-79302131D01*
X120864390Y-79407831D01*
X120845832Y-79525000D01*
X106850000Y-79525000D01*
X106850000Y-78810000D01*
X110320832Y-78810000D01*
X110339390Y-78927169D01*
X110340248Y-78928853D01*
X110388152Y-79022869D01*
X110393247Y-79032869D01*
X110477131Y-79116753D01*
X110478812Y-79117609D01*
X110478814Y-79117611D01*
X110581147Y-79169752D01*
X110582831Y-79170610D01*
X110700000Y-79189168D01*
X110817169Y-79170610D01*
X110818853Y-79169752D01*
X110921186Y-79117611D01*
X110921188Y-79117609D01*
X110922869Y-79116753D01*
X111006753Y-79032869D01*
X111011849Y-79022869D01*
X111059752Y-78928853D01*
X111060610Y-78927169D01*
X111079168Y-78810000D01*
X111060610Y-78692831D01*
X111053468Y-78678814D01*
X111007611Y-78588814D01*
X111007609Y-78588812D01*
X111006753Y-78587131D01*
X110930330Y-78510708D01*
X110923301Y-78493737D01*
X110930330Y-78476766D01*
X110940988Y-78470582D01*
X111041609Y-78443149D01*
X111041611Y-78443148D01*
X111043255Y-78442700D01*
X111153224Y-78375179D01*
X111163080Y-78364291D01*
X111211039Y-78311306D01*
X111239822Y-78279507D01*
X111296088Y-78163375D01*
X111296554Y-78160610D01*
X111314981Y-78051074D01*
X111317497Y-78036120D01*
X111317633Y-78025000D01*
X111305726Y-77941859D01*
X111299581Y-77898947D01*
X111299580Y-77898945D01*
X111299339Y-77897259D01*
X111245928Y-77779788D01*
X111168776Y-77690248D01*
X111162809Y-77683323D01*
X111162808Y-77683322D01*
X111161693Y-77682028D01*
X111053406Y-77611841D01*
X110929773Y-77574866D01*
X110867501Y-77574486D01*
X110802441Y-77574088D01*
X110802438Y-77574088D01*
X110800731Y-77574078D01*
X110799088Y-77574548D01*
X110799085Y-77574548D01*
X110689426Y-77605889D01*
X110676655Y-77609539D01*
X110567519Y-77678399D01*
X110566391Y-77679677D01*
X110566389Y-77679678D01*
X110483227Y-77773841D01*
X110482096Y-77775122D01*
X110481371Y-77776667D01*
X110481370Y-77776668D01*
X110479905Y-77779788D01*
X110427254Y-77891932D01*
X110414444Y-77974206D01*
X110407896Y-78016264D01*
X110407401Y-78019440D01*
X110424133Y-78147394D01*
X110476105Y-78265510D01*
X110511495Y-78307611D01*
X110555324Y-78359752D01*
X110559139Y-78364291D01*
X110615786Y-78401998D01*
X110626018Y-78417254D01*
X110622466Y-78435276D01*
X110606242Y-78445681D01*
X110584701Y-78449093D01*
X110584696Y-78449095D01*
X110582831Y-78449390D01*
X110581147Y-78450248D01*
X110478814Y-78502389D01*
X110478812Y-78502391D01*
X110477131Y-78503247D01*
X110393247Y-78587131D01*
X110392391Y-78588812D01*
X110392389Y-78588814D01*
X110346532Y-78678814D01*
X110339390Y-78692831D01*
X110320832Y-78810000D01*
X106850000Y-78810000D01*
X106850000Y-76130596D01*
X108809773Y-76130596D01*
X108828331Y-76247765D01*
X108829189Y-76249449D01*
X108877788Y-76344829D01*
X108882188Y-76353465D01*
X108966072Y-76437349D01*
X108967753Y-76438205D01*
X108967755Y-76438207D01*
X109047567Y-76478873D01*
X109071772Y-76491206D01*
X109188941Y-76509764D01*
X109306110Y-76491206D01*
X109330315Y-76478873D01*
X109410127Y-76438207D01*
X109410129Y-76438205D01*
X109411810Y-76437349D01*
X109495694Y-76353465D01*
X109500095Y-76344829D01*
X109548693Y-76249449D01*
X109549551Y-76247765D01*
X109568109Y-76130596D01*
X109554463Y-76044440D01*
X110634901Y-76044440D01*
X110651633Y-76172394D01*
X110703605Y-76290510D01*
X110786639Y-76389291D01*
X110825843Y-76415387D01*
X110892492Y-76459752D01*
X110894060Y-76460796D01*
X110919849Y-76468853D01*
X111015603Y-76498769D01*
X111015605Y-76498769D01*
X111017233Y-76499278D01*
X111078005Y-76500392D01*
X111144546Y-76501612D01*
X111144548Y-76501612D01*
X111146255Y-76501643D01*
X111250945Y-76473101D01*
X111269109Y-76468149D01*
X111269111Y-76468148D01*
X111270755Y-76467700D01*
X111380724Y-76400179D01*
X111390580Y-76389291D01*
X111439169Y-76335610D01*
X111467322Y-76304507D01*
X111523588Y-76188375D01*
X111526563Y-76170695D01*
X111533757Y-76127932D01*
X111538456Y-76100000D01*
X117610832Y-76100000D01*
X117629390Y-76217169D01*
X117630248Y-76218853D01*
X117675473Y-76307611D01*
X117683247Y-76322869D01*
X117767131Y-76406753D01*
X117768812Y-76407609D01*
X117768814Y-76407611D01*
X117865218Y-76456731D01*
X117872831Y-76460610D01*
X117951695Y-76473101D01*
X117985385Y-76478437D01*
X117990000Y-76479168D01*
X117994616Y-76478437D01*
X118028305Y-76473101D01*
X118107169Y-76460610D01*
X118114782Y-76456731D01*
X118211186Y-76407611D01*
X118211188Y-76407609D01*
X118212869Y-76406753D01*
X118269622Y-76350000D01*
X119070832Y-76350000D01*
X119089390Y-76467169D01*
X119090248Y-76468853D01*
X119142158Y-76570731D01*
X119143247Y-76572869D01*
X119227131Y-76656753D01*
X119228812Y-76657609D01*
X119228814Y-76657611D01*
X119301056Y-76694420D01*
X119332831Y-76710610D01*
X119450000Y-76729168D01*
X119451863Y-76728873D01*
X119552127Y-76712993D01*
X119569988Y-76717282D01*
X119579586Y-76732944D01*
X119575297Y-76750805D01*
X119575066Y-76751123D01*
X119573731Y-76752458D01*
X119572874Y-76754140D01*
X119525838Y-76846454D01*
X119519874Y-76858158D01*
X119501316Y-76975327D01*
X119519874Y-77092496D01*
X119520732Y-77094180D01*
X119571187Y-77193203D01*
X119573731Y-77198196D01*
X119657615Y-77282080D01*
X119659296Y-77282936D01*
X119659298Y-77282938D01*
X119729786Y-77318853D01*
X119763315Y-77335937D01*
X119765180Y-77336232D01*
X119765185Y-77336234D01*
X119800571Y-77341839D01*
X119816233Y-77351436D01*
X119820520Y-77369298D01*
X119810923Y-77384960D01*
X119807712Y-77386927D01*
X119778325Y-77401900D01*
X119778323Y-77401902D01*
X119776642Y-77402758D01*
X119692758Y-77486642D01*
X119691902Y-77488323D01*
X119691900Y-77488325D01*
X119645494Y-77579402D01*
X119638901Y-77592342D01*
X119620343Y-77709511D01*
X119638901Y-77826680D01*
X119639759Y-77828364D01*
X119685866Y-77918853D01*
X119692758Y-77932380D01*
X119776642Y-78016264D01*
X119778323Y-78017120D01*
X119778325Y-78017122D01*
X119880658Y-78069263D01*
X119882342Y-78070121D01*
X119999511Y-78088679D01*
X120116680Y-78070121D01*
X120118364Y-78069263D01*
X120220697Y-78017122D01*
X120220699Y-78017120D01*
X120222380Y-78016264D01*
X120238644Y-78000000D01*
X120820832Y-78000000D01*
X120839390Y-78117169D01*
X120840248Y-78118853D01*
X120878834Y-78194581D01*
X120893247Y-78222869D01*
X120977131Y-78306753D01*
X120978812Y-78307609D01*
X120978814Y-78307611D01*
X121064349Y-78351193D01*
X121082831Y-78360610D01*
X121166809Y-78373911D01*
X121183667Y-78376581D01*
X121200000Y-78379168D01*
X121216334Y-78376581D01*
X121233191Y-78373911D01*
X121317169Y-78360610D01*
X121335651Y-78351193D01*
X121421186Y-78307611D01*
X121421188Y-78307609D01*
X121422869Y-78306753D01*
X121506753Y-78222869D01*
X121521167Y-78194581D01*
X121559752Y-78118853D01*
X121560610Y-78117169D01*
X121571249Y-78050000D01*
X122420832Y-78050000D01*
X122439390Y-78167169D01*
X122440248Y-78168853D01*
X122490164Y-78266818D01*
X122493247Y-78272869D01*
X122577131Y-78356753D01*
X122578812Y-78357609D01*
X122578814Y-78357611D01*
X122665929Y-78401998D01*
X122682831Y-78410610D01*
X122800000Y-78429168D01*
X122917169Y-78410610D01*
X122934071Y-78401998D01*
X123021186Y-78357611D01*
X123021188Y-78357609D01*
X123022869Y-78356753D01*
X123106753Y-78272869D01*
X123109837Y-78266818D01*
X123159752Y-78168853D01*
X123160610Y-78167169D01*
X123179168Y-78050000D01*
X123177572Y-78039920D01*
X123171249Y-78000000D01*
X123160610Y-77932831D01*
X123151680Y-77915304D01*
X123141049Y-77894440D01*
X132444901Y-77894440D01*
X132461633Y-78022394D01*
X132513605Y-78140510D01*
X132557214Y-78192389D01*
X132581582Y-78221378D01*
X132596639Y-78239291D01*
X132704060Y-78310796D01*
X132756985Y-78327331D01*
X132825603Y-78348769D01*
X132825605Y-78348769D01*
X132827233Y-78349278D01*
X132888005Y-78350392D01*
X132954546Y-78351612D01*
X132954548Y-78351612D01*
X132956255Y-78351643D01*
X133034997Y-78330175D01*
X133079109Y-78318149D01*
X133079111Y-78318148D01*
X133080755Y-78317700D01*
X133190724Y-78250179D01*
X133195808Y-78244563D01*
X133260279Y-78173336D01*
X133277322Y-78154507D01*
X133333588Y-78038375D01*
X133333968Y-78036120D01*
X133349671Y-77942779D01*
X133354997Y-77911120D01*
X133355133Y-77900000D01*
X133344366Y-77824815D01*
X133337081Y-77773947D01*
X133337080Y-77773945D01*
X133336839Y-77772259D01*
X133301457Y-77694440D01*
X136844901Y-77694440D01*
X136861633Y-77822394D01*
X136913605Y-77940510D01*
X136963612Y-78000000D01*
X136979953Y-78019440D01*
X136996639Y-78039291D01*
X137043398Y-78070416D01*
X137080108Y-78094852D01*
X137104060Y-78110796D01*
X137162470Y-78129045D01*
X137176571Y-78140814D01*
X137178220Y-78159109D01*
X137166208Y-78173336D01*
X137128814Y-78192389D01*
X137128812Y-78192391D01*
X137127131Y-78193247D01*
X137043247Y-78277131D01*
X137042391Y-78278812D01*
X137042389Y-78278814D01*
X136992389Y-78376945D01*
X136989390Y-78382831D01*
X136970832Y-78500000D01*
X136989390Y-78617169D01*
X136990248Y-78618853D01*
X137041201Y-78718853D01*
X137043247Y-78722869D01*
X137127131Y-78806753D01*
X137128812Y-78807609D01*
X137128814Y-78807611D01*
X137155457Y-78821186D01*
X137232831Y-78860610D01*
X137350000Y-78879168D01*
X137467169Y-78860610D01*
X137544543Y-78821186D01*
X137571186Y-78807611D01*
X137571188Y-78807609D01*
X137572869Y-78806753D01*
X137656753Y-78722869D01*
X137658800Y-78718853D01*
X137709752Y-78618853D01*
X137710610Y-78617169D01*
X137713329Y-78600000D01*
X142845832Y-78600000D01*
X142864390Y-78717169D01*
X142865248Y-78718853D01*
X142911690Y-78810000D01*
X142918247Y-78822869D01*
X143002131Y-78906753D01*
X143003812Y-78907609D01*
X143003814Y-78907611D01*
X143051659Y-78931989D01*
X143107831Y-78960610D01*
X143225000Y-78979168D01*
X143342169Y-78960610D01*
X143398341Y-78931989D01*
X143446186Y-78907611D01*
X143446188Y-78907609D01*
X143447869Y-78906753D01*
X143531753Y-78822869D01*
X143538311Y-78810000D01*
X143584752Y-78718853D01*
X143585610Y-78717169D01*
X143604168Y-78600000D01*
X143585610Y-78482831D01*
X143563476Y-78439390D01*
X143532611Y-78378814D01*
X143532609Y-78378812D01*
X143531753Y-78377131D01*
X143447869Y-78293247D01*
X143446188Y-78292391D01*
X143446186Y-78292389D01*
X143343853Y-78240248D01*
X143342169Y-78239390D01*
X143232065Y-78221951D01*
X143226863Y-78221127D01*
X143225000Y-78220832D01*
X143223137Y-78221127D01*
X143217935Y-78221951D01*
X143107831Y-78239390D01*
X143106147Y-78240248D01*
X143003814Y-78292389D01*
X143003812Y-78292391D01*
X143002131Y-78293247D01*
X142918247Y-78377131D01*
X142917391Y-78378812D01*
X142917389Y-78378814D01*
X142886524Y-78439390D01*
X142864390Y-78482831D01*
X142845832Y-78600000D01*
X137713329Y-78600000D01*
X137729168Y-78500000D01*
X137710610Y-78382831D01*
X137707611Y-78376945D01*
X137657611Y-78278814D01*
X137657609Y-78278812D01*
X137656753Y-78277131D01*
X137572869Y-78193247D01*
X137571188Y-78192391D01*
X137571186Y-78192389D01*
X137493433Y-78152772D01*
X137481504Y-78138804D01*
X137482945Y-78120492D01*
X137491771Y-78110936D01*
X137491999Y-78110796D01*
X137590724Y-78050179D01*
X137592573Y-78048137D01*
X137637830Y-77998137D01*
X137677322Y-77954507D01*
X137733588Y-77838375D01*
X137735273Y-77828364D01*
X137743682Y-77778373D01*
X137754997Y-77711120D01*
X137755133Y-77700000D01*
X137744207Y-77623705D01*
X137737081Y-77573947D01*
X137737080Y-77573945D01*
X137736839Y-77572259D01*
X137683428Y-77454788D01*
X137624186Y-77386034D01*
X143399819Y-77386034D01*
X143400992Y-77400000D01*
X143416154Y-77580570D01*
X143469964Y-77768227D01*
X143470501Y-77769272D01*
X143472036Y-77772259D01*
X143559199Y-77941859D01*
X143559927Y-77942778D01*
X143559928Y-77942779D01*
X143644911Y-78050000D01*
X143680460Y-78094852D01*
X143829127Y-78221378D01*
X143882262Y-78251074D01*
X143998511Y-78316044D01*
X143998515Y-78316046D01*
X143999539Y-78316618D01*
X144000657Y-78316981D01*
X144000661Y-78316983D01*
X144184084Y-78376581D01*
X144184086Y-78376581D01*
X144185205Y-78376945D01*
X144379052Y-78400060D01*
X144380223Y-78399970D01*
X144380227Y-78399970D01*
X144468137Y-78393205D01*
X144573697Y-78385083D01*
X144761725Y-78332584D01*
X144793332Y-78316618D01*
X144934926Y-78245094D01*
X144934931Y-78245091D01*
X144935976Y-78244563D01*
X145089812Y-78124374D01*
X145217373Y-77976593D01*
X145313800Y-77806850D01*
X145316079Y-77800000D01*
X155245832Y-77800000D01*
X155264390Y-77917169D01*
X155265248Y-77918853D01*
X155316500Y-78019440D01*
X155318247Y-78022869D01*
X155402131Y-78106753D01*
X155403812Y-78107609D01*
X155403814Y-78107611D01*
X155492448Y-78152772D01*
X155507831Y-78160610D01*
X155625000Y-78179168D01*
X155742169Y-78160610D01*
X155757552Y-78152772D01*
X155846186Y-78107611D01*
X155846188Y-78107609D01*
X155847869Y-78106753D01*
X155931753Y-78022869D01*
X155933501Y-78019440D01*
X155984752Y-77918853D01*
X155985610Y-77917169D01*
X156004168Y-77800000D01*
X155985610Y-77682831D01*
X155984752Y-77681147D01*
X155932611Y-77578814D01*
X155932609Y-77578812D01*
X155931753Y-77577131D01*
X155847869Y-77493247D01*
X155846188Y-77492391D01*
X155846186Y-77492389D01*
X155743853Y-77440248D01*
X155742169Y-77439390D01*
X155625000Y-77420832D01*
X155507831Y-77439390D01*
X155506147Y-77440248D01*
X155403814Y-77492389D01*
X155403812Y-77492391D01*
X155402131Y-77493247D01*
X155318247Y-77577131D01*
X155317391Y-77578812D01*
X155317389Y-77578814D01*
X155265248Y-77681147D01*
X155264390Y-77682831D01*
X155245832Y-77800000D01*
X145316079Y-77800000D01*
X145316699Y-77798137D01*
X145369506Y-77639390D01*
X145375421Y-77621610D01*
X145390707Y-77500610D01*
X145399807Y-77428581D01*
X145399807Y-77428575D01*
X145399889Y-77427929D01*
X145400222Y-77404092D01*
X145400270Y-77400674D01*
X145400270Y-77400667D01*
X145400279Y-77400000D01*
X145400212Y-77399309D01*
X145381344Y-77206885D01*
X145381229Y-77205711D01*
X145361390Y-77140000D01*
X157620832Y-77140000D01*
X157639390Y-77257169D01*
X157640248Y-77258853D01*
X157692191Y-77360796D01*
X157693247Y-77362869D01*
X157777131Y-77446753D01*
X157778812Y-77447609D01*
X157778814Y-77447611D01*
X157854848Y-77486352D01*
X157882831Y-77500610D01*
X158000000Y-77519168D01*
X158117169Y-77500610D01*
X158145152Y-77486352D01*
X158221186Y-77447611D01*
X158221188Y-77447609D01*
X158222869Y-77446753D01*
X158306753Y-77362869D01*
X158307810Y-77360796D01*
X158359752Y-77258853D01*
X158360610Y-77257169D01*
X158379168Y-77140000D01*
X158360610Y-77022831D01*
X158358039Y-77017785D01*
X158307611Y-76918814D01*
X158307609Y-76918812D01*
X158306753Y-76917131D01*
X158222869Y-76833247D01*
X158221188Y-76832391D01*
X158221186Y-76832389D01*
X158118853Y-76780248D01*
X158117169Y-76779390D01*
X158000000Y-76760832D01*
X157882831Y-76779390D01*
X157881147Y-76780248D01*
X157778814Y-76832389D01*
X157778812Y-76832391D01*
X157777131Y-76833247D01*
X157693247Y-76917131D01*
X157692391Y-76918812D01*
X157692389Y-76918814D01*
X157641961Y-77017785D01*
X157639390Y-77022831D01*
X157620832Y-77140000D01*
X145361390Y-77140000D01*
X145324804Y-77018823D01*
X145233154Y-76846454D01*
X145232418Y-76845552D01*
X145232415Y-76845547D01*
X145110510Y-76696077D01*
X145110507Y-76696074D01*
X145109769Y-76695169D01*
X144985522Y-76592383D01*
X144960257Y-76571482D01*
X144960256Y-76571481D01*
X144959349Y-76570731D01*
X144787624Y-76477880D01*
X144669852Y-76441423D01*
X144602256Y-76420498D01*
X144602253Y-76420497D01*
X144601134Y-76420151D01*
X144599970Y-76420029D01*
X144599967Y-76420028D01*
X144444211Y-76403658D01*
X144406983Y-76399745D01*
X144405818Y-76399851D01*
X144213741Y-76417332D01*
X144213740Y-76417332D01*
X144212566Y-76417439D01*
X144025289Y-76472557D01*
X143969712Y-76501612D01*
X143853322Y-76562459D01*
X143853319Y-76562461D01*
X143852284Y-76563002D01*
X143700141Y-76685328D01*
X143574656Y-76834875D01*
X143574090Y-76835905D01*
X143574087Y-76835909D01*
X143492029Y-76985173D01*
X143480608Y-77005948D01*
X143480254Y-77007063D01*
X143480253Y-77007066D01*
X143455613Y-77084743D01*
X143421579Y-77192030D01*
X143421448Y-77193199D01*
X143421447Y-77193203D01*
X143411256Y-77284068D01*
X143399819Y-77386034D01*
X137624186Y-77386034D01*
X137617547Y-77378329D01*
X137600309Y-77358323D01*
X137600308Y-77358322D01*
X137599193Y-77357028D01*
X137490906Y-77286841D01*
X137367273Y-77249866D01*
X137305001Y-77249486D01*
X137239941Y-77249088D01*
X137239938Y-77249088D01*
X137238231Y-77249078D01*
X137236588Y-77249548D01*
X137236585Y-77249548D01*
X137155778Y-77272643D01*
X137114155Y-77284539D01*
X137005019Y-77353399D01*
X137003891Y-77354677D01*
X137003889Y-77354678D01*
X136920727Y-77448841D01*
X136919596Y-77450122D01*
X136864754Y-77566932D01*
X136853518Y-77639095D01*
X136846709Y-77682831D01*
X136844901Y-77694440D01*
X133301457Y-77694440D01*
X133283428Y-77654788D01*
X133215365Y-77575797D01*
X133200309Y-77558323D01*
X133200308Y-77558322D01*
X133199193Y-77557028D01*
X133119569Y-77505419D01*
X133092338Y-77487769D01*
X133092337Y-77487769D01*
X133090906Y-77486841D01*
X132967273Y-77449866D01*
X132905001Y-77449486D01*
X132839941Y-77449088D01*
X132839938Y-77449088D01*
X132838231Y-77449078D01*
X132836588Y-77449548D01*
X132836585Y-77449548D01*
X132715803Y-77484068D01*
X132714155Y-77484539D01*
X132605019Y-77553399D01*
X132603891Y-77554677D01*
X132603889Y-77554678D01*
X132529074Y-77639390D01*
X132519596Y-77650122D01*
X132464754Y-77766932D01*
X132455742Y-77824815D01*
X132446709Y-77882831D01*
X132444901Y-77894440D01*
X123141049Y-77894440D01*
X123107611Y-77828814D01*
X123107609Y-77828812D01*
X123106753Y-77827131D01*
X123022869Y-77743247D01*
X123021188Y-77742391D01*
X123021186Y-77742389D01*
X122918853Y-77690248D01*
X122917169Y-77689390D01*
X122800000Y-77670832D01*
X122682831Y-77689390D01*
X122681147Y-77690248D01*
X122578814Y-77742389D01*
X122578812Y-77742391D01*
X122577131Y-77743247D01*
X122493247Y-77827131D01*
X122492391Y-77828812D01*
X122492389Y-77828814D01*
X122448320Y-77915304D01*
X122439390Y-77932831D01*
X122428751Y-78000000D01*
X122422429Y-78039920D01*
X122420832Y-78050000D01*
X121571249Y-78050000D01*
X121579168Y-78000000D01*
X121560610Y-77882831D01*
X121538746Y-77839920D01*
X121507611Y-77778814D01*
X121507609Y-77778812D01*
X121506753Y-77777131D01*
X121422869Y-77693247D01*
X121421188Y-77692391D01*
X121421186Y-77692389D01*
X121318853Y-77640248D01*
X121317169Y-77639390D01*
X121218139Y-77623705D01*
X121202477Y-77614107D01*
X121200504Y-77605889D01*
X121192214Y-77619416D01*
X121181861Y-77623705D01*
X121082831Y-77639390D01*
X121081147Y-77640248D01*
X120978814Y-77692389D01*
X120978812Y-77692391D01*
X120977131Y-77693247D01*
X120893247Y-77777131D01*
X120892391Y-77778812D01*
X120892389Y-77778814D01*
X120861254Y-77839920D01*
X120839390Y-77882831D01*
X120820832Y-78000000D01*
X120238644Y-78000000D01*
X120306264Y-77932380D01*
X120313157Y-77918853D01*
X120359263Y-77828364D01*
X120360121Y-77826680D01*
X120378679Y-77709511D01*
X120360121Y-77592342D01*
X120353528Y-77579402D01*
X120307122Y-77488325D01*
X120307120Y-77488323D01*
X120306264Y-77486642D01*
X120222380Y-77402758D01*
X120220699Y-77401902D01*
X120220697Y-77401900D01*
X120118364Y-77349759D01*
X120116680Y-77348901D01*
X120114815Y-77348606D01*
X120114810Y-77348604D01*
X120079424Y-77342999D01*
X120063762Y-77333402D01*
X120059475Y-77315540D01*
X120069072Y-77299878D01*
X120072283Y-77297911D01*
X120101670Y-77282938D01*
X120101672Y-77282936D01*
X120103353Y-77282080D01*
X120185433Y-77200000D01*
X120820832Y-77200000D01*
X120821127Y-77201863D01*
X120821747Y-77205776D01*
X120839390Y-77317169D01*
X120840248Y-77318853D01*
X120883680Y-77404092D01*
X120893247Y-77422869D01*
X120977131Y-77506753D01*
X120978812Y-77507609D01*
X120978814Y-77507611D01*
X121081147Y-77559752D01*
X121082831Y-77560610D01*
X121172839Y-77574866D01*
X121181861Y-77576295D01*
X121197523Y-77585893D01*
X121199496Y-77594111D01*
X121207786Y-77580584D01*
X121218139Y-77576295D01*
X121227161Y-77574866D01*
X121317169Y-77560610D01*
X121318853Y-77559752D01*
X121421186Y-77507611D01*
X121421188Y-77507609D01*
X121422869Y-77506753D01*
X121506753Y-77422869D01*
X121516321Y-77404092D01*
X121559752Y-77318853D01*
X121560610Y-77317169D01*
X121578253Y-77205776D01*
X121578873Y-77201863D01*
X121579168Y-77200000D01*
X121578092Y-77193203D01*
X121565579Y-77114203D01*
X121560610Y-77082831D01*
X121538265Y-77038976D01*
X121507611Y-76978814D01*
X121507609Y-76978812D01*
X121506753Y-76977131D01*
X121422869Y-76893247D01*
X121421188Y-76892391D01*
X121421186Y-76892389D01*
X121416497Y-76890000D01*
X123630832Y-76890000D01*
X123649390Y-77007169D01*
X123650248Y-77008853D01*
X123698101Y-77102769D01*
X123703247Y-77112869D01*
X123787131Y-77196753D01*
X123788812Y-77197609D01*
X123788814Y-77197611D01*
X123884062Y-77246142D01*
X123892831Y-77250610D01*
X124010000Y-77269168D01*
X124127169Y-77250610D01*
X124135938Y-77246142D01*
X124231186Y-77197611D01*
X124231188Y-77197609D01*
X124232869Y-77196753D01*
X124316753Y-77112869D01*
X124321900Y-77102769D01*
X124369752Y-77008853D01*
X124370610Y-77007169D01*
X124370905Y-77005304D01*
X124370907Y-77005299D01*
X124374124Y-76984991D01*
X124383722Y-76969329D01*
X124401583Y-76965042D01*
X124417245Y-76974640D01*
X124421532Y-76984990D01*
X124437065Y-77083059D01*
X124437923Y-77084743D01*
X124465129Y-77138137D01*
X124490922Y-77188759D01*
X124574806Y-77272643D01*
X124576487Y-77273499D01*
X124576489Y-77273501D01*
X124658996Y-77315540D01*
X124680506Y-77326500D01*
X124797675Y-77345058D01*
X124914844Y-77326500D01*
X124936354Y-77315540D01*
X125018861Y-77273501D01*
X125018863Y-77273499D01*
X125020544Y-77272643D01*
X125104428Y-77188759D01*
X125130222Y-77138137D01*
X125157427Y-77084743D01*
X125158285Y-77083059D01*
X125173803Y-76985083D01*
X125176548Y-76967753D01*
X125176843Y-76965890D01*
X125176088Y-76961120D01*
X125171568Y-76932584D01*
X125158285Y-76848721D01*
X125150401Y-76833247D01*
X125105286Y-76744704D01*
X125105284Y-76744702D01*
X125104428Y-76743021D01*
X125020544Y-76659137D01*
X125018863Y-76658281D01*
X125018861Y-76658279D01*
X124916528Y-76606138D01*
X124914844Y-76605280D01*
X124797675Y-76586722D01*
X124680506Y-76605280D01*
X124678822Y-76606138D01*
X124576489Y-76658279D01*
X124576487Y-76658281D01*
X124574806Y-76659137D01*
X124490922Y-76743021D01*
X124490066Y-76744702D01*
X124490064Y-76744704D01*
X124444949Y-76833247D01*
X124437065Y-76848721D01*
X124436770Y-76850586D01*
X124436768Y-76850591D01*
X124433551Y-76870899D01*
X124423953Y-76886561D01*
X124406092Y-76890848D01*
X124390430Y-76881250D01*
X124386143Y-76870900D01*
X124370610Y-76772831D01*
X124369752Y-76771147D01*
X124317611Y-76668814D01*
X124317609Y-76668812D01*
X124316753Y-76667131D01*
X124232869Y-76583247D01*
X124231188Y-76582391D01*
X124231186Y-76582389D01*
X124128853Y-76530248D01*
X124127169Y-76529390D01*
X124010000Y-76510832D01*
X123892831Y-76529390D01*
X123891147Y-76530248D01*
X123788814Y-76582389D01*
X123788812Y-76582391D01*
X123787131Y-76583247D01*
X123703247Y-76667131D01*
X123702391Y-76668812D01*
X123702389Y-76668814D01*
X123650248Y-76771147D01*
X123649390Y-76772831D01*
X123638029Y-76844563D01*
X123633858Y-76870898D01*
X123630832Y-76890000D01*
X121416497Y-76890000D01*
X121318853Y-76840248D01*
X121317169Y-76839390D01*
X121204502Y-76821545D01*
X121201863Y-76821127D01*
X121200000Y-76820832D01*
X121198137Y-76821127D01*
X121195498Y-76821545D01*
X121082831Y-76839390D01*
X121081147Y-76840248D01*
X120978814Y-76892389D01*
X120978812Y-76892391D01*
X120977131Y-76893247D01*
X120893247Y-76977131D01*
X120892391Y-76978812D01*
X120892389Y-76978814D01*
X120861735Y-77038976D01*
X120839390Y-77082831D01*
X120834421Y-77114203D01*
X120821909Y-77193203D01*
X120820832Y-77200000D01*
X120185433Y-77200000D01*
X120187237Y-77198196D01*
X120189782Y-77193203D01*
X120240236Y-77094180D01*
X120241094Y-77092496D01*
X120259652Y-76975327D01*
X120241094Y-76858158D01*
X120235428Y-76847037D01*
X120188095Y-76754141D01*
X120188093Y-76754139D01*
X120187237Y-76752458D01*
X120103353Y-76668574D01*
X120101672Y-76667718D01*
X120101670Y-76667716D01*
X119999337Y-76615575D01*
X119997653Y-76614717D01*
X119880484Y-76596159D01*
X119878621Y-76596454D01*
X119778357Y-76612334D01*
X119760496Y-76608045D01*
X119750898Y-76592383D01*
X119755187Y-76574522D01*
X119755419Y-76574203D01*
X119756753Y-76572869D01*
X119804496Y-76479168D01*
X119809752Y-76468853D01*
X119810610Y-76467169D01*
X119829168Y-76350000D01*
X119810610Y-76232831D01*
X119792673Y-76197627D01*
X119757611Y-76128814D01*
X119757609Y-76128812D01*
X119756753Y-76127131D01*
X119672869Y-76043247D01*
X119671188Y-76042391D01*
X119671186Y-76042389D01*
X119587992Y-76000000D01*
X121120832Y-76000000D01*
X121139390Y-76117169D01*
X121140248Y-76118853D01*
X121191201Y-76218853D01*
X121193247Y-76222869D01*
X121277131Y-76306753D01*
X121278812Y-76307609D01*
X121278814Y-76307611D01*
X121378841Y-76358577D01*
X121382831Y-76360610D01*
X121500000Y-76379168D01*
X121617169Y-76360610D01*
X121621159Y-76358577D01*
X121721186Y-76307611D01*
X121721188Y-76307609D01*
X121722869Y-76306753D01*
X121806753Y-76222869D01*
X121808800Y-76218853D01*
X121859752Y-76118853D01*
X121860610Y-76117169D01*
X121870598Y-76054111D01*
X121880195Y-76038450D01*
X121898056Y-76034161D01*
X121911273Y-76040895D01*
X121977131Y-76106753D01*
X121978812Y-76107609D01*
X121978814Y-76107611D01*
X122069579Y-76153858D01*
X122082831Y-76160610D01*
X122200000Y-76179168D01*
X122317169Y-76160610D01*
X122330421Y-76153858D01*
X122421186Y-76107611D01*
X122421188Y-76107609D01*
X122422869Y-76106753D01*
X122506753Y-76022869D01*
X122509450Y-76017577D01*
X122559752Y-75918853D01*
X122560610Y-75917169D01*
X122578194Y-75806147D01*
X122578873Y-75801863D01*
X122579168Y-75800000D01*
X122578092Y-75793203D01*
X122571586Y-75752131D01*
X122560610Y-75682831D01*
X122550944Y-75663861D01*
X122507611Y-75578814D01*
X122507609Y-75578812D01*
X122506753Y-75577131D01*
X122422869Y-75493247D01*
X122421188Y-75492391D01*
X122421186Y-75492389D01*
X122318853Y-75440248D01*
X122317169Y-75439390D01*
X122200000Y-75420832D01*
X122082831Y-75439390D01*
X122081147Y-75440248D01*
X121978814Y-75492389D01*
X121978812Y-75492391D01*
X121977131Y-75493247D01*
X121893247Y-75577131D01*
X121892391Y-75578812D01*
X121892389Y-75578814D01*
X121849056Y-75663861D01*
X121839390Y-75682831D01*
X121830479Y-75739095D01*
X121829403Y-75745888D01*
X121819805Y-75761550D01*
X121801944Y-75765839D01*
X121788727Y-75759105D01*
X121722869Y-75693247D01*
X121721188Y-75692391D01*
X121721186Y-75692389D01*
X121618853Y-75640248D01*
X121617169Y-75639390D01*
X121500000Y-75620832D01*
X121382831Y-75639390D01*
X121381147Y-75640248D01*
X121278814Y-75692389D01*
X121278812Y-75692391D01*
X121277131Y-75693247D01*
X121193247Y-75777131D01*
X121192391Y-75778812D01*
X121192389Y-75778814D01*
X121147818Y-75866290D01*
X121139390Y-75882831D01*
X121120832Y-76000000D01*
X119587992Y-76000000D01*
X119568853Y-75990248D01*
X119567169Y-75989390D01*
X119450000Y-75970832D01*
X119332831Y-75989390D01*
X119331147Y-75990248D01*
X119228814Y-76042389D01*
X119228812Y-76042391D01*
X119227131Y-76043247D01*
X119143247Y-76127131D01*
X119142391Y-76128812D01*
X119142389Y-76128814D01*
X119107327Y-76197627D01*
X119089390Y-76232831D01*
X119070832Y-76350000D01*
X118269622Y-76350000D01*
X118296753Y-76322869D01*
X118304528Y-76307611D01*
X118349752Y-76218853D01*
X118350610Y-76217169D01*
X118369168Y-76100000D01*
X118350610Y-75982831D01*
X118345671Y-75973137D01*
X118297611Y-75878814D01*
X118297609Y-75878812D01*
X118296753Y-75877131D01*
X118212869Y-75793247D01*
X118211188Y-75792391D01*
X118211186Y-75792389D01*
X118108853Y-75740248D01*
X118107169Y-75739390D01*
X117990000Y-75720832D01*
X117872831Y-75739390D01*
X117871147Y-75740248D01*
X117768814Y-75792389D01*
X117768812Y-75792391D01*
X117767131Y-75793247D01*
X117683247Y-75877131D01*
X117682391Y-75878812D01*
X117682389Y-75878814D01*
X117634329Y-75973137D01*
X117629390Y-75982831D01*
X117610832Y-76100000D01*
X111538456Y-76100000D01*
X111544997Y-76061120D01*
X111545133Y-76050000D01*
X111538766Y-76005538D01*
X111527081Y-75923947D01*
X111527080Y-75923945D01*
X111526839Y-75922259D01*
X111473428Y-75804788D01*
X111389193Y-75707028D01*
X111309798Y-75655568D01*
X111282338Y-75637769D01*
X111282337Y-75637769D01*
X111280906Y-75636841D01*
X111157273Y-75599866D01*
X111095001Y-75599486D01*
X111029941Y-75599088D01*
X111029938Y-75599088D01*
X111028231Y-75599078D01*
X111026588Y-75599548D01*
X111026585Y-75599548D01*
X110905803Y-75634068D01*
X110904155Y-75634539D01*
X110795019Y-75703399D01*
X110793891Y-75704677D01*
X110793889Y-75704678D01*
X110711349Y-75798137D01*
X110709596Y-75800122D01*
X110708871Y-75801667D01*
X110708870Y-75801668D01*
X110705977Y-75807831D01*
X110654754Y-75916932D01*
X110643995Y-75986034D01*
X110635255Y-76042169D01*
X110634901Y-76044440D01*
X109554463Y-76044440D01*
X109549551Y-76013427D01*
X109533962Y-75982831D01*
X109496552Y-75909410D01*
X109496550Y-75909408D01*
X109495694Y-75907727D01*
X109411810Y-75823843D01*
X109410129Y-75822987D01*
X109410127Y-75822985D01*
X109307794Y-75770844D01*
X109306110Y-75769986D01*
X109207573Y-75754379D01*
X109190804Y-75751723D01*
X109188941Y-75751428D01*
X109187078Y-75751723D01*
X109170309Y-75754379D01*
X109071772Y-75769986D01*
X109070088Y-75770844D01*
X108967755Y-75822985D01*
X108967753Y-75822987D01*
X108966072Y-75823843D01*
X108882188Y-75907727D01*
X108881332Y-75909408D01*
X108881330Y-75909410D01*
X108843920Y-75982831D01*
X108828331Y-76013427D01*
X108809773Y-76130596D01*
X106850000Y-76130596D01*
X106850000Y-75224500D01*
X106857029Y-75207529D01*
X106874000Y-75200500D01*
X114403123Y-75200500D01*
X114420094Y-75207529D01*
X114427123Y-75224500D01*
X114423052Y-75237032D01*
X114423247Y-75237131D01*
X114422391Y-75238811D01*
X114395598Y-75291396D01*
X114369390Y-75342831D01*
X114354811Y-75434875D01*
X114352978Y-75446454D01*
X114350832Y-75460000D01*
X114369390Y-75577169D01*
X114370248Y-75578853D01*
X114422370Y-75681147D01*
X114423247Y-75682869D01*
X114507131Y-75766753D01*
X114508812Y-75767609D01*
X114508814Y-75767611D01*
X114585894Y-75806885D01*
X114612831Y-75820610D01*
X114730000Y-75839168D01*
X114847169Y-75820610D01*
X114874106Y-75806885D01*
X114951186Y-75767611D01*
X114951188Y-75767609D01*
X114952869Y-75766753D01*
X115036753Y-75682869D01*
X115037631Y-75681147D01*
X115089752Y-75578853D01*
X115090610Y-75577169D01*
X115109168Y-75460000D01*
X115107023Y-75446454D01*
X115105189Y-75434875D01*
X115090610Y-75342831D01*
X115064403Y-75291396D01*
X115037609Y-75238811D01*
X115036753Y-75237131D01*
X115037067Y-75236971D01*
X115033173Y-75220741D01*
X115042774Y-75205081D01*
X115056877Y-75200500D01*
X125337495Y-75200500D01*
X125354466Y-75207529D01*
X125361495Y-75224500D01*
X125354466Y-75241471D01*
X125352535Y-75243203D01*
X125300141Y-75285328D01*
X125174656Y-75434875D01*
X125174090Y-75435905D01*
X125174087Y-75435909D01*
X125081175Y-75604916D01*
X125080608Y-75605948D01*
X125080254Y-75607063D01*
X125080253Y-75607066D01*
X125053187Y-75692389D01*
X125021579Y-75792030D01*
X125021448Y-75793199D01*
X125021447Y-75793203D01*
X125011185Y-75884696D01*
X124999819Y-75986034D01*
X125000992Y-76000000D01*
X125016154Y-76180570D01*
X125069964Y-76368227D01*
X125159199Y-76541859D01*
X125159927Y-76542778D01*
X125159928Y-76542779D01*
X125207162Y-76602373D01*
X125280460Y-76694852D01*
X125429127Y-76821378D01*
X125475847Y-76847489D01*
X125598511Y-76916044D01*
X125598515Y-76916046D01*
X125599539Y-76916618D01*
X125600657Y-76916981D01*
X125600661Y-76916983D01*
X125784084Y-76976581D01*
X125784086Y-76976581D01*
X125785205Y-76976945D01*
X125979052Y-77000060D01*
X125980223Y-76999970D01*
X125980227Y-76999970D01*
X126068137Y-76993205D01*
X126173697Y-76985083D01*
X126319262Y-76944440D01*
X132594901Y-76944440D01*
X132611633Y-77072394D01*
X132663605Y-77190510D01*
X132713499Y-77249866D01*
X132745360Y-77287769D01*
X132746639Y-77289291D01*
X132785718Y-77315304D01*
X132847004Y-77356099D01*
X132854060Y-77360796D01*
X132881273Y-77369298D01*
X132975603Y-77398769D01*
X132975605Y-77398769D01*
X132977233Y-77399278D01*
X133038005Y-77400392D01*
X133104546Y-77401612D01*
X133104548Y-77401612D01*
X133106255Y-77401643D01*
X133224894Y-77369298D01*
X133229109Y-77368149D01*
X133229111Y-77368148D01*
X133230755Y-77367700D01*
X133340724Y-77300179D01*
X133350580Y-77289291D01*
X133389636Y-77246142D01*
X133427322Y-77204507D01*
X133483588Y-77088375D01*
X133484483Y-77083059D01*
X133495464Y-77017785D01*
X133504997Y-76961120D01*
X133505133Y-76950000D01*
X133496540Y-76890000D01*
X133487081Y-76823947D01*
X133487080Y-76823945D01*
X133486839Y-76822259D01*
X133433428Y-76704788D01*
X133349193Y-76607028D01*
X133269798Y-76555568D01*
X133242338Y-76537769D01*
X133242337Y-76537769D01*
X133240906Y-76536841D01*
X133117273Y-76499866D01*
X133055001Y-76499486D01*
X132989941Y-76499088D01*
X132989938Y-76499088D01*
X132988231Y-76499078D01*
X132986588Y-76499548D01*
X132986585Y-76499548D01*
X132897353Y-76525051D01*
X132864155Y-76534539D01*
X132755019Y-76603399D01*
X132753891Y-76604677D01*
X132753889Y-76604678D01*
X132674250Y-76694852D01*
X132669596Y-76700122D01*
X132614754Y-76816932D01*
X132594901Y-76944440D01*
X126319262Y-76944440D01*
X126361725Y-76932584D01*
X126393332Y-76916618D01*
X126534926Y-76845094D01*
X126534931Y-76845091D01*
X126535976Y-76844563D01*
X126689812Y-76724374D01*
X126817373Y-76576593D01*
X126913800Y-76406850D01*
X126975421Y-76221610D01*
X126991561Y-76093853D01*
X126999807Y-76028581D01*
X126999807Y-76028575D01*
X126999889Y-76027929D01*
X127000059Y-76015728D01*
X127000270Y-76000674D01*
X127000270Y-76000667D01*
X127000279Y-76000000D01*
X127000112Y-75998288D01*
X126992926Y-75925000D01*
X136695832Y-75925000D01*
X136714390Y-76042169D01*
X136715248Y-76043853D01*
X136767019Y-76145458D01*
X136768247Y-76147869D01*
X136852131Y-76231753D01*
X136853812Y-76232609D01*
X136853814Y-76232611D01*
X136939724Y-76276384D01*
X136957831Y-76285610D01*
X137055035Y-76301006D01*
X137067405Y-76302965D01*
X137075000Y-76304168D01*
X137082596Y-76302965D01*
X137094965Y-76301006D01*
X137192169Y-76285610D01*
X137210276Y-76276384D01*
X137296186Y-76232611D01*
X137296188Y-76232609D01*
X137297869Y-76231753D01*
X137381753Y-76147869D01*
X137382982Y-76145458D01*
X137434752Y-76043853D01*
X137435610Y-76042169D01*
X137454168Y-75925000D01*
X137453831Y-75922869D01*
X137445603Y-75870923D01*
X137435610Y-75807831D01*
X137426988Y-75790909D01*
X137382611Y-75703814D01*
X137382609Y-75703812D01*
X137381753Y-75702131D01*
X137379622Y-75700000D01*
X137670832Y-75700000D01*
X137671127Y-75701863D01*
X137671226Y-75702488D01*
X137689390Y-75817169D01*
X137690248Y-75818853D01*
X137741921Y-75920266D01*
X137743247Y-75922869D01*
X137827131Y-76006753D01*
X137828812Y-76007609D01*
X137828814Y-76007611D01*
X137904424Y-76046136D01*
X137932831Y-76060610D01*
X138050000Y-76079168D01*
X138167169Y-76060610D01*
X138195576Y-76046136D01*
X138271186Y-76007611D01*
X138271188Y-76007609D01*
X138272869Y-76006753D01*
X138304622Y-75975000D01*
X139245832Y-75975000D01*
X139264390Y-76092169D01*
X139265248Y-76093853D01*
X139317367Y-76196141D01*
X139318247Y-76197869D01*
X139402131Y-76281753D01*
X139403812Y-76282609D01*
X139403814Y-76282611D01*
X139506147Y-76334752D01*
X139507831Y-76335610D01*
X139598685Y-76350000D01*
X139609936Y-76351782D01*
X139625000Y-76354168D01*
X139640065Y-76351782D01*
X139651315Y-76350000D01*
X139742169Y-76335610D01*
X139743853Y-76334752D01*
X139846186Y-76282611D01*
X139846188Y-76282609D01*
X139847869Y-76281753D01*
X139931753Y-76197869D01*
X139932634Y-76196141D01*
X139984752Y-76093853D01*
X139985610Y-76092169D01*
X140000212Y-75999978D01*
X146950439Y-75999978D01*
X146967171Y-76127932D01*
X147019143Y-76246048D01*
X147069350Y-76305776D01*
X147094676Y-76335905D01*
X147102177Y-76344829D01*
X147153321Y-76378873D01*
X147196494Y-76407611D01*
X147209598Y-76416334D01*
X147262523Y-76432869D01*
X147331141Y-76454307D01*
X147331143Y-76454307D01*
X147332771Y-76454816D01*
X147393543Y-76455930D01*
X147460084Y-76457150D01*
X147460086Y-76457150D01*
X147461793Y-76457181D01*
X147540535Y-76435713D01*
X147584647Y-76423687D01*
X147584649Y-76423686D01*
X147586293Y-76423238D01*
X147696262Y-76355717D01*
X147698301Y-76353465D01*
X147749201Y-76297231D01*
X147782860Y-76260045D01*
X147839126Y-76143913D01*
X147841367Y-76130596D01*
X147849220Y-76083911D01*
X147860535Y-76016658D01*
X147860646Y-76007611D01*
X147860660Y-76006472D01*
X147860660Y-76006467D01*
X147860671Y-76005538D01*
X147848832Y-75922869D01*
X147842619Y-75879485D01*
X147842618Y-75879483D01*
X147842377Y-75877797D01*
X147788966Y-75760326D01*
X147736986Y-75700000D01*
X155145832Y-75700000D01*
X155146127Y-75701863D01*
X155146226Y-75702488D01*
X155164390Y-75817169D01*
X155165248Y-75818853D01*
X155216921Y-75920266D01*
X155218247Y-75922869D01*
X155302131Y-76006753D01*
X155303812Y-76007609D01*
X155303814Y-76007611D01*
X155379424Y-76046136D01*
X155407831Y-76060610D01*
X155525000Y-76079168D01*
X155642169Y-76060610D01*
X155670576Y-76046136D01*
X155746186Y-76007611D01*
X155746188Y-76007609D01*
X155747869Y-76006753D01*
X155831753Y-75922869D01*
X155833080Y-75920266D01*
X155884752Y-75818853D01*
X155885610Y-75817169D01*
X155903774Y-75702488D01*
X155903873Y-75701863D01*
X155904168Y-75700000D01*
X155885610Y-75582831D01*
X155876064Y-75564095D01*
X155832611Y-75478814D01*
X155832609Y-75478812D01*
X155831753Y-75477131D01*
X155747869Y-75393247D01*
X155746188Y-75392391D01*
X155746186Y-75392389D01*
X155643853Y-75340248D01*
X155642169Y-75339390D01*
X155525000Y-75320832D01*
X155407831Y-75339390D01*
X155406147Y-75340248D01*
X155303814Y-75392389D01*
X155303812Y-75392391D01*
X155302131Y-75393247D01*
X155218247Y-75477131D01*
X155217391Y-75478812D01*
X155217389Y-75478814D01*
X155173936Y-75564095D01*
X155164390Y-75582831D01*
X155145832Y-75700000D01*
X147736986Y-75700000D01*
X147720741Y-75681147D01*
X147705847Y-75663861D01*
X147705846Y-75663860D01*
X147704731Y-75662566D01*
X147606795Y-75599088D01*
X147597876Y-75593307D01*
X147597875Y-75593307D01*
X147596444Y-75592379D01*
X147472811Y-75555404D01*
X147410539Y-75555024D01*
X147345479Y-75554626D01*
X147345476Y-75554626D01*
X147343769Y-75554616D01*
X147342126Y-75555086D01*
X147342123Y-75555086D01*
X147245046Y-75582831D01*
X147219693Y-75590077D01*
X147110557Y-75658937D01*
X147109429Y-75660215D01*
X147109427Y-75660216D01*
X147026764Y-75753814D01*
X147025134Y-75755660D01*
X147024409Y-75757205D01*
X147024408Y-75757206D01*
X147022215Y-75761877D01*
X146970292Y-75872470D01*
X146962707Y-75921186D01*
X146952088Y-75989390D01*
X146950439Y-75999978D01*
X140000212Y-75999978D01*
X140004168Y-75975000D01*
X139985610Y-75857831D01*
X139976101Y-75839168D01*
X139932611Y-75753814D01*
X139932609Y-75753812D01*
X139931753Y-75752131D01*
X139847869Y-75668247D01*
X139846188Y-75667391D01*
X139846186Y-75667389D01*
X139743853Y-75615248D01*
X139742169Y-75614390D01*
X139625000Y-75595832D01*
X139507831Y-75614390D01*
X139506147Y-75615248D01*
X139403814Y-75667389D01*
X139403812Y-75667391D01*
X139402131Y-75668247D01*
X139318247Y-75752131D01*
X139317391Y-75753812D01*
X139317389Y-75753814D01*
X139273899Y-75839168D01*
X139264390Y-75857831D01*
X139245832Y-75975000D01*
X138304622Y-75975000D01*
X138356753Y-75922869D01*
X138358080Y-75920266D01*
X138409752Y-75818853D01*
X138410610Y-75817169D01*
X138428774Y-75702488D01*
X138428873Y-75701863D01*
X138429168Y-75700000D01*
X138410610Y-75582831D01*
X138401064Y-75564095D01*
X138357611Y-75478814D01*
X138357609Y-75478812D01*
X138356753Y-75477131D01*
X138272869Y-75393247D01*
X138271188Y-75392391D01*
X138271186Y-75392389D01*
X138168853Y-75340248D01*
X138167169Y-75339390D01*
X138050000Y-75320832D01*
X137932831Y-75339390D01*
X137931147Y-75340248D01*
X137828814Y-75392389D01*
X137828812Y-75392391D01*
X137827131Y-75393247D01*
X137743247Y-75477131D01*
X137742391Y-75478812D01*
X137742389Y-75478814D01*
X137698936Y-75564095D01*
X137689390Y-75582831D01*
X137670832Y-75700000D01*
X137379622Y-75700000D01*
X137297869Y-75618247D01*
X137296188Y-75617391D01*
X137296186Y-75617389D01*
X137193853Y-75565248D01*
X137192169Y-75564390D01*
X137075000Y-75545832D01*
X136957831Y-75564390D01*
X136956147Y-75565248D01*
X136853814Y-75617389D01*
X136853812Y-75617391D01*
X136852131Y-75618247D01*
X136768247Y-75702131D01*
X136767391Y-75703812D01*
X136767389Y-75703814D01*
X136723012Y-75790909D01*
X136714390Y-75807831D01*
X136704397Y-75870923D01*
X136696170Y-75922869D01*
X136695832Y-75925000D01*
X126992926Y-75925000D01*
X126982606Y-75819752D01*
X126981229Y-75805711D01*
X126924804Y-75618823D01*
X126833154Y-75446454D01*
X126832418Y-75445552D01*
X126832415Y-75445547D01*
X126710510Y-75296077D01*
X126710507Y-75296074D01*
X126709769Y-75295169D01*
X126646698Y-75242992D01*
X126638103Y-75226759D01*
X126643504Y-75209202D01*
X126659737Y-75200607D01*
X126661996Y-75200500D01*
X159585939Y-75200500D01*
X159601164Y-75205948D01*
X159705283Y-75291396D01*
X159708604Y-75294717D01*
X159746708Y-75341147D01*
X159794052Y-75398836D01*
X159799500Y-75414061D01*
X159799500Y-79734206D01*
X159793762Y-79749778D01*
X159720338Y-79835884D01*
X159705868Y-79844011D01*
X156229387Y-80400248D01*
X144932818Y-82207699D01*
X144914951Y-82203439D01*
X144905328Y-82187792D01*
X144907643Y-82173104D01*
X144910687Y-82167131D01*
X144925953Y-82137169D01*
X144943024Y-82029390D01*
X144944216Y-82021863D01*
X144944511Y-82020000D01*
X144925953Y-81902831D01*
X144919542Y-81890248D01*
X144872954Y-81798814D01*
X144872952Y-81798812D01*
X144872096Y-81797131D01*
X144788212Y-81713247D01*
X144786531Y-81712391D01*
X144786529Y-81712389D01*
X144684196Y-81660248D01*
X144682512Y-81659390D01*
X144565343Y-81640832D01*
X144448174Y-81659390D01*
X144446490Y-81660248D01*
X144344157Y-81712389D01*
X144344155Y-81712391D01*
X144342474Y-81713247D01*
X144258590Y-81797131D01*
X144257734Y-81798812D01*
X144257732Y-81798814D01*
X144211144Y-81890248D01*
X144204733Y-81902831D01*
X144186175Y-82020000D01*
X144186470Y-82021863D01*
X144187662Y-82029390D01*
X144204733Y-82137169D01*
X144205591Y-82138853D01*
X144254707Y-82235248D01*
X144258590Y-82242869D01*
X144288025Y-82272304D01*
X144295054Y-82289275D01*
X144288025Y-82306246D01*
X144274846Y-82312974D01*
X142948362Y-82525212D01*
X142930494Y-82520952D01*
X142920871Y-82505305D01*
X142923186Y-82490617D01*
X142927266Y-82482611D01*
X142960610Y-82417169D01*
X142979168Y-82300000D01*
X142977307Y-82288247D01*
X142971070Y-82248873D01*
X142960610Y-82182831D01*
X142953468Y-82168814D01*
X142907611Y-82078814D01*
X142907609Y-82078812D01*
X142906753Y-82077131D01*
X142822869Y-81993247D01*
X142821188Y-81992391D01*
X142821186Y-81992389D01*
X142718853Y-81940248D01*
X142717169Y-81939390D01*
X142600000Y-81920832D01*
X142598137Y-81921127D01*
X142598132Y-81921127D01*
X142505172Y-81935851D01*
X142487310Y-81931563D01*
X142477713Y-81915902D01*
X142482001Y-81898040D01*
X142484446Y-81895176D01*
X142498197Y-81881425D01*
X142499498Y-81878873D01*
X142551196Y-81777409D01*
X142552054Y-81775725D01*
X142570612Y-81658556D01*
X142552054Y-81541387D01*
X142549261Y-81535905D01*
X142499055Y-81437370D01*
X142499053Y-81437368D01*
X142498197Y-81435687D01*
X142414313Y-81351803D01*
X142412632Y-81350947D01*
X142412630Y-81350945D01*
X142310297Y-81298804D01*
X142308613Y-81297946D01*
X142191444Y-81279388D01*
X142074275Y-81297946D01*
X142072591Y-81298804D01*
X141970258Y-81350945D01*
X141970256Y-81350947D01*
X141968575Y-81351803D01*
X141884691Y-81435687D01*
X141883835Y-81437368D01*
X141883833Y-81437370D01*
X141833627Y-81535905D01*
X141830834Y-81541387D01*
X141812276Y-81658556D01*
X141830834Y-81775725D01*
X141831692Y-81777409D01*
X141883391Y-81878873D01*
X141884691Y-81881425D01*
X141968575Y-81965309D01*
X141970256Y-81966165D01*
X141970258Y-81966167D01*
X142072255Y-82018137D01*
X142074275Y-82019166D01*
X142191444Y-82037724D01*
X142193307Y-82037429D01*
X142193312Y-82037429D01*
X142286272Y-82022705D01*
X142304134Y-82026993D01*
X142313731Y-82042654D01*
X142309443Y-82060516D01*
X142306998Y-82063380D01*
X142293247Y-82077131D01*
X142292391Y-82078812D01*
X142292389Y-82078814D01*
X142246532Y-82168814D01*
X142239390Y-82182831D01*
X142228930Y-82248873D01*
X142222694Y-82288247D01*
X142220832Y-82300000D01*
X142239390Y-82417169D01*
X142240248Y-82418853D01*
X142291201Y-82518853D01*
X142293247Y-82522869D01*
X142352384Y-82582006D01*
X142359413Y-82598977D01*
X142352384Y-82615948D01*
X142339205Y-82622676D01*
X136124259Y-83617068D01*
X136106391Y-83612808D01*
X136096768Y-83597161D01*
X136101028Y-83579293D01*
X136103977Y-83575931D01*
X136124255Y-83556755D01*
X136125832Y-83554928D01*
X136235490Y-83398321D01*
X136236667Y-83396214D01*
X136312594Y-83220758D01*
X136313324Y-83218459D01*
X136352480Y-83031025D01*
X136352715Y-83029213D01*
X136352983Y-83024103D01*
X136353000Y-83023450D01*
X136353000Y-82858773D01*
X136351602Y-82855398D01*
X136348227Y-82854000D01*
X134451773Y-82854000D01*
X134448398Y-82855398D01*
X134447000Y-82858773D01*
X134447000Y-82977783D01*
X134447061Y-82978991D01*
X134461527Y-83121407D01*
X134462013Y-83123773D01*
X134519185Y-83306210D01*
X134520132Y-83308420D01*
X134612823Y-83475638D01*
X134614195Y-83477611D01*
X134738615Y-83622776D01*
X134740361Y-83624438D01*
X134891419Y-83741611D01*
X134893478Y-83742897D01*
X134915973Y-83753966D01*
X134928097Y-83767765D01*
X134926911Y-83786096D01*
X134913112Y-83798220D01*
X134905377Y-83799500D01*
X128890413Y-83799500D01*
X128873442Y-83792471D01*
X128866413Y-83775500D01*
X128873442Y-83758529D01*
X128877766Y-83755103D01*
X128983433Y-83689587D01*
X128985350Y-83688111D01*
X129124255Y-83556755D01*
X129125832Y-83554928D01*
X129235490Y-83398321D01*
X129236667Y-83396214D01*
X129312594Y-83220758D01*
X129313324Y-83218459D01*
X129352480Y-83031025D01*
X129352715Y-83029213D01*
X129352983Y-83024103D01*
X129353000Y-83023450D01*
X129353000Y-82858773D01*
X129351602Y-82855398D01*
X129348227Y-82854000D01*
X127451773Y-82854000D01*
X127448398Y-82855398D01*
X127447000Y-82858773D01*
X127447000Y-82977783D01*
X127447061Y-82978991D01*
X127461527Y-83121407D01*
X127462013Y-83123773D01*
X127519185Y-83306210D01*
X127520132Y-83308420D01*
X127612823Y-83475638D01*
X127614195Y-83477611D01*
X127738615Y-83622776D01*
X127740361Y-83624438D01*
X127891419Y-83741611D01*
X127893478Y-83742897D01*
X127915973Y-83753966D01*
X127928097Y-83767765D01*
X127926911Y-83786096D01*
X127913112Y-83798220D01*
X127905377Y-83799500D01*
X121568064Y-83799500D01*
X121551093Y-83792471D01*
X121544064Y-83775500D01*
X121551093Y-83758529D01*
X121556753Y-83752869D01*
X121562490Y-83741611D01*
X121609752Y-83648853D01*
X121610610Y-83647169D01*
X121629168Y-83530000D01*
X121610610Y-83412831D01*
X121587132Y-83366753D01*
X121557611Y-83308814D01*
X121557609Y-83308812D01*
X121556753Y-83307131D01*
X121472869Y-83223247D01*
X121471188Y-83222391D01*
X121471186Y-83222389D01*
X121368853Y-83170248D01*
X121367169Y-83169390D01*
X121269965Y-83153994D01*
X121251863Y-83151127D01*
X121250000Y-83150832D01*
X121248137Y-83151127D01*
X121230035Y-83153994D01*
X121132831Y-83169390D01*
X121131147Y-83170248D01*
X121028814Y-83222389D01*
X121028812Y-83222391D01*
X121027131Y-83223247D01*
X120943247Y-83307131D01*
X120942391Y-83308812D01*
X120942389Y-83308814D01*
X120912868Y-83366753D01*
X120889390Y-83412831D01*
X120870832Y-83530000D01*
X120889390Y-83647169D01*
X120890248Y-83648853D01*
X120937511Y-83741611D01*
X120943247Y-83752869D01*
X120948907Y-83758529D01*
X120955936Y-83775500D01*
X120948907Y-83792471D01*
X120931936Y-83799500D01*
X113319688Y-83799500D01*
X113302717Y-83792471D01*
X113295688Y-83775500D01*
X113302717Y-83758529D01*
X113308792Y-83754116D01*
X113309087Y-83753966D01*
X113333335Y-83741611D01*
X113341186Y-83737611D01*
X113341188Y-83737609D01*
X113342869Y-83736753D01*
X113426753Y-83652869D01*
X113428342Y-83649752D01*
X113479752Y-83548853D01*
X113480610Y-83547169D01*
X113492959Y-83469202D01*
X113502557Y-83453540D01*
X113520418Y-83449251D01*
X113536080Y-83458849D01*
X113539196Y-83464963D01*
X113539390Y-83466189D01*
X113558759Y-83504203D01*
X113585536Y-83556755D01*
X113593247Y-83571889D01*
X113677131Y-83655773D01*
X113678812Y-83656629D01*
X113678814Y-83656631D01*
X113780817Y-83708604D01*
X113782831Y-83709630D01*
X113900000Y-83728188D01*
X114017169Y-83709630D01*
X114019183Y-83708604D01*
X114121186Y-83656631D01*
X114121188Y-83656629D01*
X114122869Y-83655773D01*
X114206753Y-83571889D01*
X114214465Y-83556755D01*
X114241241Y-83504203D01*
X114248486Y-83489985D01*
X114262453Y-83478056D01*
X114280765Y-83479497D01*
X114291253Y-83489985D01*
X114332128Y-83570206D01*
X114335004Y-83575851D01*
X114418888Y-83659735D01*
X114420569Y-83660591D01*
X114420571Y-83660593D01*
X114515128Y-83708772D01*
X114524588Y-83713592D01*
X114641757Y-83732150D01*
X114758926Y-83713592D01*
X114768386Y-83708772D01*
X114862943Y-83660593D01*
X114862945Y-83660591D01*
X114864626Y-83659735D01*
X114948510Y-83575851D01*
X114951387Y-83570206D01*
X115001509Y-83471835D01*
X115002367Y-83470151D01*
X115020925Y-83352982D01*
X115020298Y-83349020D01*
X115013517Y-83306210D01*
X115009366Y-83280000D01*
X115510832Y-83280000D01*
X115529390Y-83397169D01*
X115530248Y-83398853D01*
X115566093Y-83469202D01*
X115583247Y-83502869D01*
X115667131Y-83586753D01*
X115668812Y-83587609D01*
X115668814Y-83587611D01*
X115771147Y-83639752D01*
X115772831Y-83640610D01*
X115890000Y-83659168D01*
X116007169Y-83640610D01*
X116008853Y-83639752D01*
X116111186Y-83587611D01*
X116111188Y-83587609D01*
X116112869Y-83586753D01*
X116196753Y-83502869D01*
X116213908Y-83469202D01*
X116249752Y-83398853D01*
X116250610Y-83397169D01*
X116266000Y-83300000D01*
X117870832Y-83300000D01*
X117889390Y-83417169D01*
X117890248Y-83418853D01*
X117938152Y-83512869D01*
X117943247Y-83522869D01*
X118027131Y-83606753D01*
X118028812Y-83607609D01*
X118028814Y-83607611D01*
X118129422Y-83658873D01*
X118132831Y-83660610D01*
X118250000Y-83679168D01*
X118367169Y-83660610D01*
X118370578Y-83658873D01*
X118471186Y-83607611D01*
X118471188Y-83607609D01*
X118472869Y-83606753D01*
X118556753Y-83522869D01*
X118561849Y-83512869D01*
X118609752Y-83418853D01*
X118610610Y-83417169D01*
X118629168Y-83300000D01*
X118610610Y-83182831D01*
X118604199Y-83170248D01*
X118557611Y-83078814D01*
X118557609Y-83078812D01*
X118556753Y-83077131D01*
X118472869Y-82993247D01*
X118471188Y-82992391D01*
X118471186Y-82992389D01*
X118368853Y-82940248D01*
X118367169Y-82939390D01*
X118250000Y-82920832D01*
X118132831Y-82939390D01*
X118131147Y-82940248D01*
X118028814Y-82992389D01*
X118028812Y-82992391D01*
X118027131Y-82993247D01*
X117943247Y-83077131D01*
X117942391Y-83078812D01*
X117942389Y-83078814D01*
X117895801Y-83170248D01*
X117889390Y-83182831D01*
X117870832Y-83300000D01*
X116266000Y-83300000D01*
X116269168Y-83280000D01*
X116267403Y-83268853D01*
X116263128Y-83241863D01*
X116250610Y-83162831D01*
X116245022Y-83151863D01*
X116197611Y-83058814D01*
X116197609Y-83058812D01*
X116196753Y-83057131D01*
X116112869Y-82973247D01*
X116111188Y-82972391D01*
X116111186Y-82972389D01*
X116008853Y-82920248D01*
X116007169Y-82919390D01*
X115890000Y-82900832D01*
X115772831Y-82919390D01*
X115771147Y-82920248D01*
X115668814Y-82972389D01*
X115668812Y-82972391D01*
X115667131Y-82973247D01*
X115583247Y-83057131D01*
X115582391Y-83058812D01*
X115582389Y-83058814D01*
X115534978Y-83151863D01*
X115529390Y-83162831D01*
X115516872Y-83241863D01*
X115512598Y-83268853D01*
X115510832Y-83280000D01*
X115009366Y-83280000D01*
X115002367Y-83235813D01*
X114996644Y-83224581D01*
X114949368Y-83131796D01*
X114949366Y-83131794D01*
X114948510Y-83130113D01*
X114864626Y-83046229D01*
X114862945Y-83045373D01*
X114862943Y-83045371D01*
X114760610Y-82993230D01*
X114758926Y-82992372D01*
X114641757Y-82973814D01*
X114524588Y-82992372D01*
X114522904Y-82993230D01*
X114420571Y-83045371D01*
X114420569Y-83045373D01*
X114418888Y-83046229D01*
X114335004Y-83130113D01*
X114295762Y-83207131D01*
X114293272Y-83212017D01*
X114279304Y-83223946D01*
X114260992Y-83222505D01*
X114250504Y-83212017D01*
X114207611Y-83127834D01*
X114207609Y-83127832D01*
X114206753Y-83126151D01*
X114122869Y-83042267D01*
X114121188Y-83041411D01*
X114121186Y-83041409D01*
X114018853Y-82989268D01*
X114017169Y-82988410D01*
X113900000Y-82969852D01*
X113782831Y-82988410D01*
X113781147Y-82989268D01*
X113678814Y-83041409D01*
X113678812Y-83041411D01*
X113677131Y-83042267D01*
X113593247Y-83126151D01*
X113592391Y-83127832D01*
X113592389Y-83127834D01*
X113545042Y-83220758D01*
X113539390Y-83231851D01*
X113531230Y-83283372D01*
X113527041Y-83309818D01*
X113517443Y-83325480D01*
X113499582Y-83329769D01*
X113483920Y-83320171D01*
X113480804Y-83314057D01*
X113480610Y-83312831D01*
X113443501Y-83240000D01*
X113427611Y-83208814D01*
X113427609Y-83208812D01*
X113426753Y-83207131D01*
X113342869Y-83123247D01*
X113341188Y-83122391D01*
X113341186Y-83122389D01*
X113238853Y-83070248D01*
X113237169Y-83069390D01*
X113120000Y-83050832D01*
X113002831Y-83069390D01*
X113001147Y-83070248D01*
X112898814Y-83122389D01*
X112898812Y-83122391D01*
X112897131Y-83123247D01*
X112813247Y-83207131D01*
X112812391Y-83208812D01*
X112812389Y-83208814D01*
X112772627Y-83286852D01*
X112758659Y-83298781D01*
X112740347Y-83297340D01*
X112728418Y-83283372D01*
X112727538Y-83279710D01*
X112727289Y-83278137D01*
X112710610Y-83172831D01*
X112688844Y-83130113D01*
X112657611Y-83068814D01*
X112657609Y-83068812D01*
X112656753Y-83067131D01*
X112572869Y-82983247D01*
X112571188Y-82982391D01*
X112571186Y-82982389D01*
X112468853Y-82930248D01*
X112467169Y-82929390D01*
X112350000Y-82910832D01*
X112232831Y-82929390D01*
X112231147Y-82930248D01*
X112128814Y-82982389D01*
X112128812Y-82982391D01*
X112127131Y-82983247D01*
X112043247Y-83067131D01*
X112042391Y-83068812D01*
X112042389Y-83068814D01*
X112011156Y-83130113D01*
X111989390Y-83172831D01*
X111970832Y-83290000D01*
X111989390Y-83407169D01*
X111990248Y-83408853D01*
X112041659Y-83509752D01*
X112043247Y-83512869D01*
X112127131Y-83596753D01*
X112128812Y-83597609D01*
X112128814Y-83597611D01*
X112211521Y-83639752D01*
X112232831Y-83650610D01*
X112350000Y-83669168D01*
X112467169Y-83650610D01*
X112488479Y-83639752D01*
X112571186Y-83597611D01*
X112571188Y-83597609D01*
X112572869Y-83596753D01*
X112656753Y-83512869D01*
X112658342Y-83509752D01*
X112697373Y-83433148D01*
X112711341Y-83421219D01*
X112729653Y-83422660D01*
X112741582Y-83436628D01*
X112742461Y-83440288D01*
X112759390Y-83547169D01*
X112760248Y-83548853D01*
X112811659Y-83649752D01*
X112813247Y-83652869D01*
X112897131Y-83736753D01*
X112898812Y-83737609D01*
X112898814Y-83737611D01*
X112906665Y-83741611D01*
X112930914Y-83753966D01*
X112931208Y-83754116D01*
X112943137Y-83768084D01*
X112941696Y-83786396D01*
X112927728Y-83798325D01*
X112920312Y-83799500D01*
X75414061Y-83799500D01*
X75398836Y-83794052D01*
X75389507Y-83786396D01*
X75294717Y-83708604D01*
X75291396Y-83705283D01*
X75205948Y-83601164D01*
X75200500Y-83585939D01*
X75200500Y-82050000D01*
X75658396Y-82050000D01*
X75678504Y-82279836D01*
X75738217Y-82502688D01*
X75835721Y-82711785D01*
X75968053Y-82900775D01*
X76131192Y-83063914D01*
X76320181Y-83196246D01*
X76529279Y-83293750D01*
X76752131Y-83353463D01*
X76981967Y-83373571D01*
X77211803Y-83353463D01*
X77434655Y-83293750D01*
X77643753Y-83196246D01*
X77709799Y-83150000D01*
X99930832Y-83150000D01*
X99931127Y-83151863D01*
X99932864Y-83162831D01*
X99949390Y-83267169D01*
X99950248Y-83268853D01*
X100000568Y-83367611D01*
X100003247Y-83372869D01*
X100087131Y-83456753D01*
X100088812Y-83457609D01*
X100088814Y-83457611D01*
X100191147Y-83509752D01*
X100192831Y-83510610D01*
X100278653Y-83524203D01*
X100303491Y-83528137D01*
X100310000Y-83529168D01*
X100316510Y-83528137D01*
X100341347Y-83524203D01*
X100427169Y-83510610D01*
X100428853Y-83509752D01*
X100531186Y-83457611D01*
X100531188Y-83457609D01*
X100532869Y-83456753D01*
X100616753Y-83372869D01*
X100619433Y-83367611D01*
X100669752Y-83268853D01*
X100670610Y-83267169D01*
X100687136Y-83162831D01*
X100688873Y-83151863D01*
X100689168Y-83150000D01*
X100674913Y-83060000D01*
X102440832Y-83060000D01*
X102441127Y-83061863D01*
X102442319Y-83069390D01*
X102459390Y-83177169D01*
X102460248Y-83178853D01*
X102510836Y-83278137D01*
X102513247Y-83282869D01*
X102597131Y-83366753D01*
X102598812Y-83367609D01*
X102598814Y-83367611D01*
X102684259Y-83411147D01*
X102702831Y-83420610D01*
X102820000Y-83439168D01*
X102937169Y-83420610D01*
X102955741Y-83411147D01*
X103041186Y-83367611D01*
X103041188Y-83367609D01*
X103042869Y-83366753D01*
X103126753Y-83282869D01*
X103128215Y-83280000D01*
X109960832Y-83280000D01*
X109979390Y-83397169D01*
X109980248Y-83398853D01*
X110016093Y-83469202D01*
X110033247Y-83502869D01*
X110117131Y-83586753D01*
X110118812Y-83587609D01*
X110118814Y-83587611D01*
X110221147Y-83639752D01*
X110222831Y-83640610D01*
X110340000Y-83659168D01*
X110457169Y-83640610D01*
X110458853Y-83639752D01*
X110561186Y-83587611D01*
X110561188Y-83587609D01*
X110562869Y-83586753D01*
X110646753Y-83502869D01*
X110663908Y-83469202D01*
X110699752Y-83398853D01*
X110700610Y-83397169D01*
X110719168Y-83280000D01*
X110717403Y-83268853D01*
X110713128Y-83241863D01*
X110700610Y-83162831D01*
X110695022Y-83151863D01*
X110647611Y-83058814D01*
X110647609Y-83058812D01*
X110646753Y-83057131D01*
X110562869Y-82973247D01*
X110561188Y-82972391D01*
X110561186Y-82972389D01*
X110458853Y-82920248D01*
X110457169Y-82919390D01*
X110340000Y-82900832D01*
X110222831Y-82919390D01*
X110221147Y-82920248D01*
X110118814Y-82972389D01*
X110118812Y-82972391D01*
X110117131Y-82973247D01*
X110033247Y-83057131D01*
X110032391Y-83058812D01*
X110032389Y-83058814D01*
X109984978Y-83151863D01*
X109979390Y-83162831D01*
X109966872Y-83241863D01*
X109962598Y-83268853D01*
X109960832Y-83280000D01*
X103128215Y-83280000D01*
X103129165Y-83278137D01*
X103179752Y-83178853D01*
X103180610Y-83177169D01*
X103197681Y-83069390D01*
X103198873Y-83061863D01*
X103199168Y-83060000D01*
X103180610Y-82942831D01*
X103175290Y-82932389D01*
X103127611Y-82838814D01*
X103127609Y-82838812D01*
X103126753Y-82837131D01*
X103042869Y-82753247D01*
X103041188Y-82752391D01*
X103041186Y-82752389D01*
X102938853Y-82700248D01*
X102937169Y-82699390D01*
X102820000Y-82680832D01*
X102702831Y-82699390D01*
X102701147Y-82700248D01*
X102598814Y-82752389D01*
X102598812Y-82752391D01*
X102597131Y-82753247D01*
X102513247Y-82837131D01*
X102512391Y-82838812D01*
X102512389Y-82838814D01*
X102464710Y-82932389D01*
X102459390Y-82942831D01*
X102440832Y-83060000D01*
X100674913Y-83060000D01*
X100670610Y-83032831D01*
X100663468Y-83018814D01*
X100617611Y-82928814D01*
X100617609Y-82928812D01*
X100616753Y-82927131D01*
X100532869Y-82843247D01*
X100531188Y-82842391D01*
X100531186Y-82842389D01*
X100428853Y-82790248D01*
X100427169Y-82789390D01*
X100319262Y-82772299D01*
X100311863Y-82771127D01*
X100310000Y-82770832D01*
X100308137Y-82771127D01*
X100300738Y-82772299D01*
X100192831Y-82789390D01*
X100191147Y-82790248D01*
X100088814Y-82842389D01*
X100088812Y-82842391D01*
X100087131Y-82843247D01*
X100003247Y-82927131D01*
X100002391Y-82928812D01*
X100002389Y-82928814D01*
X99956532Y-83018814D01*
X99949390Y-83032831D01*
X99930832Y-83150000D01*
X77709799Y-83150000D01*
X77832742Y-83063914D01*
X77995881Y-82900775D01*
X78128213Y-82711785D01*
X78225717Y-82502688D01*
X78253232Y-82400000D01*
X82970832Y-82400000D01*
X82971127Y-82401863D01*
X82971436Y-82403814D01*
X82989390Y-82517169D01*
X82990248Y-82518853D01*
X83039721Y-82615948D01*
X83043247Y-82622869D01*
X83127131Y-82706753D01*
X83128812Y-82707609D01*
X83128814Y-82707611D01*
X83211521Y-82749752D01*
X83232831Y-82760610D01*
X83350000Y-82779168D01*
X83467169Y-82760610D01*
X83488479Y-82749752D01*
X83571186Y-82707611D01*
X83571188Y-82707609D01*
X83572869Y-82706753D01*
X83656753Y-82622869D01*
X83660280Y-82615948D01*
X83709752Y-82518853D01*
X83710610Y-82517169D01*
X83721249Y-82450000D01*
X83820832Y-82450000D01*
X83839390Y-82567169D01*
X83840248Y-82568853D01*
X83878549Y-82644022D01*
X83893247Y-82672869D01*
X83977131Y-82756753D01*
X83978812Y-82757609D01*
X83978814Y-82757611D01*
X84042868Y-82790248D01*
X84082831Y-82810610D01*
X84200000Y-82829168D01*
X84317169Y-82810610D01*
X84357132Y-82790248D01*
X84421186Y-82757611D01*
X84421188Y-82757609D01*
X84422869Y-82756753D01*
X84506753Y-82672869D01*
X84521452Y-82644022D01*
X84559752Y-82568853D01*
X84560610Y-82567169D01*
X84579168Y-82450000D01*
X84560610Y-82332831D01*
X84559752Y-82331147D01*
X84550559Y-82313104D01*
X84993798Y-82313104D01*
X85003673Y-82452582D01*
X85054124Y-82582990D01*
X85055233Y-82584396D01*
X85055233Y-82584397D01*
X85126030Y-82674203D01*
X85140690Y-82692799D01*
X85142166Y-82693819D01*
X85142167Y-82693820D01*
X85254237Y-82771276D01*
X85254240Y-82771277D01*
X85255718Y-82772299D01*
X85389036Y-82814462D01*
X85395871Y-82815000D01*
X85497534Y-82815000D01*
X85498415Y-82814867D01*
X85498422Y-82814867D01*
X85599100Y-82799731D01*
X85599103Y-82799730D01*
X85600873Y-82799464D01*
X85726921Y-82738936D01*
X85829599Y-82644022D01*
X85879790Y-82557611D01*
X85898926Y-82524666D01*
X85898926Y-82524665D01*
X85899829Y-82523111D01*
X85909415Y-82481753D01*
X85930997Y-82388645D01*
X85930997Y-82388642D01*
X85931402Y-82386896D01*
X85921527Y-82247418D01*
X85899314Y-82190000D01*
X104850832Y-82190000D01*
X104869390Y-82307169D01*
X104870248Y-82308853D01*
X104917776Y-82402131D01*
X104923247Y-82412869D01*
X105007131Y-82496753D01*
X105008812Y-82497609D01*
X105008814Y-82497611D01*
X105081708Y-82534752D01*
X105112831Y-82550610D01*
X105230000Y-82569168D01*
X105347169Y-82550610D01*
X105378292Y-82534752D01*
X105451186Y-82497611D01*
X105451188Y-82497609D01*
X105452869Y-82496753D01*
X105536753Y-82412869D01*
X105542225Y-82402131D01*
X105548406Y-82390000D01*
X110390832Y-82390000D01*
X110409390Y-82507169D01*
X110410248Y-82508853D01*
X110461659Y-82609752D01*
X110463247Y-82612869D01*
X110547131Y-82696753D01*
X110548812Y-82697609D01*
X110548814Y-82697611D01*
X110639570Y-82743853D01*
X110652831Y-82750610D01*
X110770000Y-82769168D01*
X110887169Y-82750610D01*
X110900430Y-82743853D01*
X110991186Y-82697611D01*
X110991188Y-82697609D01*
X110992869Y-82696753D01*
X111076753Y-82612869D01*
X111078342Y-82609752D01*
X111085858Y-82595000D01*
X119460832Y-82595000D01*
X119461127Y-82596863D01*
X119463304Y-82610610D01*
X119479390Y-82712169D01*
X119480248Y-82713853D01*
X119531767Y-82814964D01*
X119533247Y-82817869D01*
X119617131Y-82901753D01*
X119618812Y-82902609D01*
X119618814Y-82902611D01*
X119692681Y-82940248D01*
X119722831Y-82955610D01*
X119812750Y-82969852D01*
X119837601Y-82973788D01*
X119840000Y-82974168D01*
X119869478Y-82969499D01*
X119887339Y-82973788D01*
X119896937Y-82989449D01*
X119892648Y-83007311D01*
X119890203Y-83010175D01*
X119883247Y-83017131D01*
X119882391Y-83018812D01*
X119882389Y-83018814D01*
X119856182Y-83070248D01*
X119829390Y-83122831D01*
X119810832Y-83240000D01*
X119829390Y-83357169D01*
X119830248Y-83358853D01*
X119881199Y-83458849D01*
X119883247Y-83462869D01*
X119967131Y-83546753D01*
X119968812Y-83547609D01*
X119968814Y-83547611D01*
X120045635Y-83586753D01*
X120072831Y-83600610D01*
X120190000Y-83619168D01*
X120307169Y-83600610D01*
X120334365Y-83586753D01*
X120411186Y-83547611D01*
X120411188Y-83547609D01*
X120412869Y-83546753D01*
X120496753Y-83462869D01*
X120498802Y-83458849D01*
X120549752Y-83358853D01*
X120550610Y-83357169D01*
X120569168Y-83240000D01*
X120550610Y-83122831D01*
X120523818Y-83070248D01*
X120497611Y-83018814D01*
X120497609Y-83018812D01*
X120496753Y-83017131D01*
X120412869Y-82933247D01*
X120411188Y-82932391D01*
X120411186Y-82932389D01*
X120308853Y-82880248D01*
X120307169Y-82879390D01*
X120209965Y-82863994D01*
X120191863Y-82861127D01*
X120190000Y-82860832D01*
X120160522Y-82865501D01*
X120142661Y-82861212D01*
X120133063Y-82845551D01*
X120137352Y-82827689D01*
X120139797Y-82824825D01*
X120146753Y-82817869D01*
X120148234Y-82814964D01*
X120199752Y-82713853D01*
X120200610Y-82712169D01*
X120214417Y-82625000D01*
X120845832Y-82625000D01*
X120864390Y-82742169D01*
X120865248Y-82743853D01*
X120917066Y-82845551D01*
X120918247Y-82847869D01*
X121002131Y-82931753D01*
X121003812Y-82932609D01*
X121003814Y-82932611D01*
X121101509Y-82982389D01*
X121107831Y-82985610D01*
X121225000Y-83004168D01*
X121342169Y-82985610D01*
X121348491Y-82982389D01*
X121446186Y-82932611D01*
X121446188Y-82932609D01*
X121447869Y-82931753D01*
X121531753Y-82847869D01*
X121532935Y-82845551D01*
X121584752Y-82743853D01*
X121585610Y-82742169D01*
X121592289Y-82700000D01*
X125620832Y-82700000D01*
X125639390Y-82817169D01*
X125640248Y-82818853D01*
X125691912Y-82920248D01*
X125693247Y-82922869D01*
X125777131Y-83006753D01*
X125778812Y-83007609D01*
X125778814Y-83007611D01*
X125873385Y-83055797D01*
X125882831Y-83060610D01*
X126000000Y-83079168D01*
X126117169Y-83060610D01*
X126126615Y-83055797D01*
X126221186Y-83007611D01*
X126221188Y-83007609D01*
X126222869Y-83006753D01*
X126306753Y-82922869D01*
X126308089Y-82920248D01*
X126359752Y-82818853D01*
X126360610Y-82817169D01*
X126379168Y-82700000D01*
X126378028Y-82692799D01*
X126365579Y-82614203D01*
X126360610Y-82582831D01*
X126346643Y-82555419D01*
X126307611Y-82478814D01*
X126307609Y-82478812D01*
X126306753Y-82477131D01*
X126222869Y-82393247D01*
X126221188Y-82392391D01*
X126221186Y-82392389D01*
X126120774Y-82341227D01*
X127447000Y-82341227D01*
X127448398Y-82344602D01*
X127451773Y-82346000D01*
X128141227Y-82346000D01*
X128144602Y-82344602D01*
X128146000Y-82341227D01*
X128654000Y-82341227D01*
X128655398Y-82344602D01*
X128658773Y-82346000D01*
X129348227Y-82346000D01*
X129351602Y-82344602D01*
X129353000Y-82341227D01*
X134447000Y-82341227D01*
X134448398Y-82344602D01*
X134451773Y-82346000D01*
X135141227Y-82346000D01*
X135144602Y-82344602D01*
X135146000Y-82341227D01*
X135654000Y-82341227D01*
X135655398Y-82344602D01*
X135658773Y-82346000D01*
X136348227Y-82346000D01*
X136351602Y-82344602D01*
X136353000Y-82341227D01*
X136353000Y-82250000D01*
X138820832Y-82250000D01*
X138839390Y-82367169D01*
X138840248Y-82368853D01*
X138883765Y-82454259D01*
X138893247Y-82472869D01*
X138977131Y-82556753D01*
X138978812Y-82557609D01*
X138978814Y-82557611D01*
X139055851Y-82596863D01*
X139082831Y-82610610D01*
X139200000Y-82629168D01*
X139317169Y-82610610D01*
X139344149Y-82596863D01*
X139421186Y-82557611D01*
X139421188Y-82557609D01*
X139422869Y-82556753D01*
X139506753Y-82472869D01*
X139516236Y-82454259D01*
X139559752Y-82368853D01*
X139560610Y-82367169D01*
X139579168Y-82250000D01*
X139577706Y-82240766D01*
X139568529Y-82182831D01*
X139560610Y-82132831D01*
X139538476Y-82089390D01*
X139507611Y-82028814D01*
X139507609Y-82028812D01*
X139506753Y-82027131D01*
X139422869Y-81943247D01*
X139421188Y-81942391D01*
X139421186Y-81942389D01*
X139318853Y-81890248D01*
X139317169Y-81889390D01*
X139207406Y-81872005D01*
X139201863Y-81871127D01*
X139200000Y-81870832D01*
X139198137Y-81871127D01*
X139192594Y-81872005D01*
X139082831Y-81889390D01*
X139081147Y-81890248D01*
X138978814Y-81942389D01*
X138978812Y-81942391D01*
X138977131Y-81943247D01*
X138893247Y-82027131D01*
X138892391Y-82028812D01*
X138892389Y-82028814D01*
X138861524Y-82089390D01*
X138839390Y-82132831D01*
X138831471Y-82182831D01*
X138822295Y-82240766D01*
X138820832Y-82250000D01*
X136353000Y-82250000D01*
X136353000Y-82222217D01*
X136352939Y-82221009D01*
X136338473Y-82078593D01*
X136337987Y-82076227D01*
X136280815Y-81893790D01*
X136279868Y-81891580D01*
X136187177Y-81724362D01*
X136185805Y-81722389D01*
X136061385Y-81577224D01*
X136059639Y-81575562D01*
X135908581Y-81458389D01*
X135906522Y-81457103D01*
X135734992Y-81372700D01*
X135732728Y-81371858D01*
X135658620Y-81352554D01*
X135655001Y-81353057D01*
X135654000Y-81354379D01*
X135654000Y-82341227D01*
X135146000Y-82341227D01*
X135146000Y-81352757D01*
X135144602Y-81349382D01*
X135143472Y-81348914D01*
X134981219Y-81408612D01*
X134979043Y-81409674D01*
X134816567Y-81510413D01*
X134814650Y-81511889D01*
X134675745Y-81643245D01*
X134674168Y-81645072D01*
X134564510Y-81801679D01*
X134563333Y-81803786D01*
X134487406Y-81979242D01*
X134486676Y-81981541D01*
X134447520Y-82168975D01*
X134447285Y-82170787D01*
X134447017Y-82175897D01*
X134447000Y-82176550D01*
X134447000Y-82341227D01*
X129353000Y-82341227D01*
X129353000Y-82222217D01*
X129352939Y-82221009D01*
X129338473Y-82078593D01*
X129337987Y-82076227D01*
X129280815Y-81893790D01*
X129279868Y-81891580D01*
X129187177Y-81724362D01*
X129185805Y-81722389D01*
X129061385Y-81577224D01*
X129059639Y-81575562D01*
X128908581Y-81458389D01*
X128906522Y-81457103D01*
X128734992Y-81372700D01*
X128732728Y-81371858D01*
X128658620Y-81352554D01*
X128655001Y-81353057D01*
X128654000Y-81354379D01*
X128654000Y-82341227D01*
X128146000Y-82341227D01*
X128146000Y-81352757D01*
X128144602Y-81349382D01*
X128143472Y-81348914D01*
X127981219Y-81408612D01*
X127979043Y-81409674D01*
X127816567Y-81510413D01*
X127814650Y-81511889D01*
X127675745Y-81643245D01*
X127674168Y-81645072D01*
X127564510Y-81801679D01*
X127563333Y-81803786D01*
X127487406Y-81979242D01*
X127486676Y-81981541D01*
X127447520Y-82168975D01*
X127447285Y-82170787D01*
X127447017Y-82175897D01*
X127447000Y-82176550D01*
X127447000Y-82341227D01*
X126120774Y-82341227D01*
X126118853Y-82340248D01*
X126117169Y-82339390D01*
X126000000Y-82320832D01*
X125882831Y-82339390D01*
X125881147Y-82340248D01*
X125778814Y-82392389D01*
X125778812Y-82392391D01*
X125777131Y-82393247D01*
X125693247Y-82477131D01*
X125692391Y-82478812D01*
X125692389Y-82478814D01*
X125653357Y-82555419D01*
X125639390Y-82582831D01*
X125634421Y-82614203D01*
X125621973Y-82692799D01*
X125620832Y-82700000D01*
X121592289Y-82700000D01*
X121604168Y-82625000D01*
X121603831Y-82622869D01*
X121593494Y-82557611D01*
X121585610Y-82507831D01*
X121580403Y-82497611D01*
X121532611Y-82403814D01*
X121532609Y-82403812D01*
X121531753Y-82402131D01*
X121447869Y-82318247D01*
X121446188Y-82317391D01*
X121446186Y-82317389D01*
X121343853Y-82265248D01*
X121342169Y-82264390D01*
X121239553Y-82248137D01*
X121226863Y-82246127D01*
X121225000Y-82245832D01*
X121223137Y-82246127D01*
X121210447Y-82248137D01*
X121107831Y-82264390D01*
X121106147Y-82265248D01*
X121003814Y-82317389D01*
X121003812Y-82317391D01*
X121002131Y-82318247D01*
X120918247Y-82402131D01*
X120917391Y-82403812D01*
X120917389Y-82403814D01*
X120869597Y-82497611D01*
X120864390Y-82507831D01*
X120856506Y-82557611D01*
X120846170Y-82622869D01*
X120845832Y-82625000D01*
X120214417Y-82625000D01*
X120216696Y-82610610D01*
X120218873Y-82596863D01*
X120219168Y-82595000D01*
X120200610Y-82477831D01*
X120197224Y-82471186D01*
X120147611Y-82373814D01*
X120147609Y-82373812D01*
X120146753Y-82372131D01*
X120062869Y-82288247D01*
X120061188Y-82287391D01*
X120061186Y-82287389D01*
X119958853Y-82235248D01*
X119957169Y-82234390D01*
X119840000Y-82215832D01*
X119722831Y-82234390D01*
X119721147Y-82235248D01*
X119618814Y-82287389D01*
X119618812Y-82287391D01*
X119617131Y-82288247D01*
X119533247Y-82372131D01*
X119532391Y-82373812D01*
X119532389Y-82373814D01*
X119482776Y-82471186D01*
X119479390Y-82477831D01*
X119460832Y-82595000D01*
X111085858Y-82595000D01*
X111129752Y-82508853D01*
X111130610Y-82507169D01*
X111149168Y-82390000D01*
X111130610Y-82272831D01*
X111118028Y-82248137D01*
X111080763Y-82175000D01*
X122545832Y-82175000D01*
X122546127Y-82176863D01*
X122546409Y-82178641D01*
X122564390Y-82292169D01*
X122565248Y-82293853D01*
X122616572Y-82394581D01*
X122618247Y-82397869D01*
X122702131Y-82481753D01*
X122703812Y-82482609D01*
X122703814Y-82482611D01*
X122786352Y-82524666D01*
X122807831Y-82535610D01*
X122925000Y-82554168D01*
X123042169Y-82535610D01*
X123063648Y-82524666D01*
X123146186Y-82482611D01*
X123146188Y-82482609D01*
X123147869Y-82481753D01*
X123231753Y-82397869D01*
X123233429Y-82394581D01*
X123284752Y-82293853D01*
X123285610Y-82292169D01*
X123303591Y-82178641D01*
X123303873Y-82176863D01*
X123304168Y-82175000D01*
X123285610Y-82057831D01*
X123269288Y-82025797D01*
X123232611Y-81953814D01*
X123232609Y-81953812D01*
X123231753Y-81952131D01*
X123147869Y-81868247D01*
X123146188Y-81867391D01*
X123146186Y-81867389D01*
X123112058Y-81850000D01*
X126120832Y-81850000D01*
X126121127Y-81851863D01*
X126122377Y-81859752D01*
X126139390Y-81967169D01*
X126140248Y-81968853D01*
X126192370Y-82071147D01*
X126193247Y-82072869D01*
X126277131Y-82156753D01*
X126278812Y-82157609D01*
X126278814Y-82157611D01*
X126346038Y-82191863D01*
X126382831Y-82210610D01*
X126500000Y-82229168D01*
X126617169Y-82210610D01*
X126653962Y-82191863D01*
X126721186Y-82157611D01*
X126721188Y-82157609D01*
X126722869Y-82156753D01*
X126806753Y-82072869D01*
X126807631Y-82071147D01*
X126859752Y-81968853D01*
X126860610Y-81967169D01*
X126877623Y-81859752D01*
X126878873Y-81851863D01*
X126879168Y-81850000D01*
X126860610Y-81732831D01*
X126851311Y-81714581D01*
X126807611Y-81628814D01*
X126807609Y-81628812D01*
X126806753Y-81627131D01*
X126722869Y-81543247D01*
X126721188Y-81542391D01*
X126721186Y-81542389D01*
X126618853Y-81490248D01*
X126617169Y-81489390D01*
X126500000Y-81470832D01*
X126382831Y-81489390D01*
X126381147Y-81490248D01*
X126278814Y-81542389D01*
X126278812Y-81542391D01*
X126277131Y-81543247D01*
X126193247Y-81627131D01*
X126192391Y-81628812D01*
X126192389Y-81628814D01*
X126148689Y-81714581D01*
X126139390Y-81732831D01*
X126120832Y-81850000D01*
X123112058Y-81850000D01*
X123043853Y-81815248D01*
X123042169Y-81814390D01*
X122943827Y-81798814D01*
X122926863Y-81796127D01*
X122925000Y-81795832D01*
X122923137Y-81796127D01*
X122906173Y-81798814D01*
X122807831Y-81814390D01*
X122806147Y-81815248D01*
X122703814Y-81867389D01*
X122703812Y-81867391D01*
X122702131Y-81868247D01*
X122618247Y-81952131D01*
X122617391Y-81953812D01*
X122617389Y-81953814D01*
X122580712Y-82025797D01*
X122564390Y-82057831D01*
X122545832Y-82175000D01*
X111080763Y-82175000D01*
X111077611Y-82168814D01*
X111077609Y-82168812D01*
X111076753Y-82167131D01*
X110992869Y-82083247D01*
X110991188Y-82082391D01*
X110991186Y-82082389D01*
X110888853Y-82030248D01*
X110887169Y-82029390D01*
X110770000Y-82010832D01*
X110652831Y-82029390D01*
X110651147Y-82030248D01*
X110548814Y-82082389D01*
X110548812Y-82082391D01*
X110547131Y-82083247D01*
X110463247Y-82167131D01*
X110462391Y-82168812D01*
X110462389Y-82168814D01*
X110421972Y-82248137D01*
X110409390Y-82272831D01*
X110390832Y-82390000D01*
X105548406Y-82390000D01*
X105589752Y-82308853D01*
X105590610Y-82307169D01*
X105609168Y-82190000D01*
X105590610Y-82072831D01*
X105589742Y-82071127D01*
X105537611Y-81968814D01*
X105537609Y-81968812D01*
X105536753Y-81967131D01*
X105452869Y-81883247D01*
X105451188Y-81882391D01*
X105451186Y-81882389D01*
X105426871Y-81870000D01*
X109630832Y-81870000D01*
X109631127Y-81871863D01*
X109633229Y-81885133D01*
X109649390Y-81987169D01*
X109650248Y-81988853D01*
X109701912Y-82090248D01*
X109703247Y-82092869D01*
X109787131Y-82176753D01*
X109788812Y-82177609D01*
X109788814Y-82177611D01*
X109873988Y-82221009D01*
X109892831Y-82230610D01*
X109978653Y-82244203D01*
X110003491Y-82248137D01*
X110010000Y-82249168D01*
X110016510Y-82248137D01*
X110041347Y-82244203D01*
X110127169Y-82230610D01*
X110146012Y-82221009D01*
X110231186Y-82177611D01*
X110231188Y-82177609D01*
X110232869Y-82176753D01*
X110316753Y-82092869D01*
X110318089Y-82090248D01*
X110369752Y-81988853D01*
X110370610Y-81987169D01*
X110386771Y-81885133D01*
X110388873Y-81871863D01*
X110389168Y-81870000D01*
X110388755Y-81867389D01*
X110379843Y-81811127D01*
X110370610Y-81752831D01*
X110369752Y-81751147D01*
X110317611Y-81648814D01*
X110317609Y-81648812D01*
X110316753Y-81647131D01*
X110232869Y-81563247D01*
X110231188Y-81562391D01*
X110231186Y-81562389D01*
X110128853Y-81510248D01*
X110127169Y-81509390D01*
X110010000Y-81490832D01*
X109892831Y-81509390D01*
X109891147Y-81510248D01*
X109788814Y-81562389D01*
X109788812Y-81562391D01*
X109787131Y-81563247D01*
X109703247Y-81647131D01*
X109702391Y-81648812D01*
X109702389Y-81648814D01*
X109650248Y-81751147D01*
X109649390Y-81752831D01*
X109640157Y-81811127D01*
X109631246Y-81867389D01*
X109630832Y-81870000D01*
X105426871Y-81870000D01*
X105348853Y-81830248D01*
X105347169Y-81829390D01*
X105230000Y-81810832D01*
X105112831Y-81829390D01*
X105111147Y-81830248D01*
X105008814Y-81882389D01*
X105008812Y-81882391D01*
X105007131Y-81883247D01*
X104923247Y-81967131D01*
X104922391Y-81968812D01*
X104922389Y-81968814D01*
X104870258Y-82071127D01*
X104869390Y-82072831D01*
X104850832Y-82190000D01*
X85899314Y-82190000D01*
X85871076Y-82117010D01*
X85853395Y-82094581D01*
X85785620Y-82008609D01*
X85784510Y-82007201D01*
X85783033Y-82006180D01*
X85670963Y-81928724D01*
X85670960Y-81928723D01*
X85669482Y-81927701D01*
X85536164Y-81885538D01*
X85529329Y-81885000D01*
X85427666Y-81885000D01*
X85426785Y-81885133D01*
X85426778Y-81885133D01*
X85326100Y-81900269D01*
X85326097Y-81900270D01*
X85324327Y-81900536D01*
X85198279Y-81961064D01*
X85095601Y-82055978D01*
X85094699Y-82057531D01*
X85031814Y-82165797D01*
X85025371Y-82176889D01*
X85022844Y-82187792D01*
X84995174Y-82307169D01*
X84993798Y-82313104D01*
X84550559Y-82313104D01*
X84507611Y-82228814D01*
X84507609Y-82228812D01*
X84506753Y-82227131D01*
X84422869Y-82143247D01*
X84421188Y-82142391D01*
X84421186Y-82142389D01*
X84318853Y-82090248D01*
X84317169Y-82089390D01*
X84200000Y-82070832D01*
X84082831Y-82089390D01*
X84081147Y-82090248D01*
X83978814Y-82142389D01*
X83978812Y-82142391D01*
X83977131Y-82143247D01*
X83893247Y-82227131D01*
X83892391Y-82228812D01*
X83892389Y-82228814D01*
X83840248Y-82331147D01*
X83839390Y-82332831D01*
X83820832Y-82450000D01*
X83721249Y-82450000D01*
X83728564Y-82403814D01*
X83728873Y-82401863D01*
X83729168Y-82400000D01*
X83728831Y-82397869D01*
X83718529Y-82332831D01*
X83710610Y-82282831D01*
X83693458Y-82249168D01*
X83657611Y-82178814D01*
X83657609Y-82178812D01*
X83656753Y-82177131D01*
X83572869Y-82093247D01*
X83571188Y-82092391D01*
X83571186Y-82092389D01*
X83468853Y-82040248D01*
X83467169Y-82039390D01*
X83369965Y-82023994D01*
X83351863Y-82021127D01*
X83350000Y-82020832D01*
X83348137Y-82021127D01*
X83330035Y-82023994D01*
X83232831Y-82039390D01*
X83231147Y-82040248D01*
X83128814Y-82092389D01*
X83128812Y-82092391D01*
X83127131Y-82093247D01*
X83043247Y-82177131D01*
X83042391Y-82178812D01*
X83042389Y-82178814D01*
X83006542Y-82249168D01*
X82989390Y-82282831D01*
X82981471Y-82332831D01*
X82971170Y-82397869D01*
X82970832Y-82400000D01*
X78253232Y-82400000D01*
X78285430Y-82279836D01*
X78305538Y-82050000D01*
X78285430Y-81820164D01*
X78225717Y-81597312D01*
X78186053Y-81512253D01*
X88608579Y-81512253D01*
X88627137Y-81629422D01*
X88627995Y-81631106D01*
X88679827Y-81732831D01*
X88680994Y-81735122D01*
X88764878Y-81819006D01*
X88766559Y-81819862D01*
X88766561Y-81819864D01*
X88864137Y-81869581D01*
X88870578Y-81872863D01*
X88987747Y-81891421D01*
X89104916Y-81872863D01*
X89111357Y-81869581D01*
X89208933Y-81819864D01*
X89208935Y-81819862D01*
X89210616Y-81819006D01*
X89294500Y-81735122D01*
X89295668Y-81732831D01*
X89347499Y-81631106D01*
X89348357Y-81629422D01*
X89366915Y-81512253D01*
X89366598Y-81510248D01*
X89358180Y-81457103D01*
X89348357Y-81395084D01*
X89344857Y-81388215D01*
X89295358Y-81291067D01*
X89295356Y-81291065D01*
X89294500Y-81289384D01*
X89285116Y-81280000D01*
X107360832Y-81280000D01*
X107361127Y-81281863D01*
X107361767Y-81285905D01*
X107379390Y-81397169D01*
X107380248Y-81398853D01*
X107430836Y-81498137D01*
X107433247Y-81502869D01*
X107517131Y-81586753D01*
X107518812Y-81587609D01*
X107518814Y-81587611D01*
X107593759Y-81625797D01*
X107622831Y-81640610D01*
X107740000Y-81659168D01*
X107857169Y-81640610D01*
X107886241Y-81625797D01*
X107961186Y-81587611D01*
X107961188Y-81587609D01*
X107962869Y-81586753D01*
X108046753Y-81502869D01*
X108049165Y-81498137D01*
X108099752Y-81398853D01*
X108100610Y-81397169D01*
X108118233Y-81285905D01*
X108118873Y-81281863D01*
X108119168Y-81280000D01*
X108100610Y-81162831D01*
X108093666Y-81149203D01*
X108047611Y-81058814D01*
X108047609Y-81058812D01*
X108046753Y-81057131D01*
X107962869Y-80973247D01*
X107961188Y-80972391D01*
X107961186Y-80972389D01*
X107858853Y-80920248D01*
X107857169Y-80919390D01*
X107740000Y-80900832D01*
X107622831Y-80919390D01*
X107621147Y-80920248D01*
X107518814Y-80972389D01*
X107518812Y-80972391D01*
X107517131Y-80973247D01*
X107433247Y-81057131D01*
X107432391Y-81058812D01*
X107432389Y-81058814D01*
X107386334Y-81149203D01*
X107379390Y-81162831D01*
X107360832Y-81280000D01*
X89285116Y-81280000D01*
X89210616Y-81205500D01*
X89208935Y-81204644D01*
X89208933Y-81204642D01*
X89106600Y-81152501D01*
X89104916Y-81151643D01*
X88987747Y-81133085D01*
X88870578Y-81151643D01*
X88868894Y-81152501D01*
X88766561Y-81204642D01*
X88766559Y-81204644D01*
X88764878Y-81205500D01*
X88680994Y-81289384D01*
X88680138Y-81291065D01*
X88680136Y-81291067D01*
X88630637Y-81388215D01*
X88627137Y-81395084D01*
X88617314Y-81457103D01*
X88608897Y-81510248D01*
X88608579Y-81512253D01*
X78186053Y-81512253D01*
X78128213Y-81388215D01*
X77995881Y-81199225D01*
X77832742Y-81036086D01*
X77709799Y-80950000D01*
X82820832Y-80950000D01*
X82821127Y-80951863D01*
X82821436Y-80953814D01*
X82839390Y-81067169D01*
X82840248Y-81068853D01*
X82889083Y-81164696D01*
X82893247Y-81172869D01*
X82977131Y-81256753D01*
X82978812Y-81257609D01*
X82978814Y-81257611D01*
X83059660Y-81298804D01*
X83082831Y-81310610D01*
X83200000Y-81329168D01*
X83317169Y-81310610D01*
X83340340Y-81298804D01*
X83421186Y-81257611D01*
X83421188Y-81257609D01*
X83422869Y-81256753D01*
X83506753Y-81172869D01*
X83510918Y-81164696D01*
X83559752Y-81068853D01*
X83560610Y-81067169D01*
X83578564Y-80953814D01*
X83578873Y-80951863D01*
X83579168Y-80950000D01*
X83560610Y-80832831D01*
X83547743Y-80807578D01*
X83543882Y-80800000D01*
X85220832Y-80800000D01*
X85221127Y-80801863D01*
X85222368Y-80809696D01*
X85239390Y-80917169D01*
X85240248Y-80918853D01*
X85290568Y-81017611D01*
X85293247Y-81022869D01*
X85377131Y-81106753D01*
X85378812Y-81107609D01*
X85378814Y-81107611D01*
X85464653Y-81151348D01*
X85482831Y-81160610D01*
X85600000Y-81179168D01*
X85717169Y-81160610D01*
X85735347Y-81151348D01*
X85821186Y-81107611D01*
X85821188Y-81107609D01*
X85822869Y-81106753D01*
X85906753Y-81022869D01*
X85909433Y-81017611D01*
X85959752Y-80918853D01*
X85960610Y-80917169D01*
X85977632Y-80809696D01*
X85978873Y-80801863D01*
X85979168Y-80800000D01*
X85977843Y-80791631D01*
X85973128Y-80761863D01*
X85960610Y-80682831D01*
X85945864Y-80653890D01*
X85907611Y-80578814D01*
X85907609Y-80578812D01*
X85906753Y-80577131D01*
X85879622Y-80550000D01*
X86570832Y-80550000D01*
X86589390Y-80667169D01*
X86590248Y-80668853D01*
X86638213Y-80762989D01*
X86643247Y-80772869D01*
X86727131Y-80856753D01*
X86728812Y-80857609D01*
X86728814Y-80857611D01*
X86818508Y-80903312D01*
X86832831Y-80910610D01*
X86950000Y-80929168D01*
X87067169Y-80910610D01*
X87081492Y-80903312D01*
X87171186Y-80857611D01*
X87171188Y-80857609D01*
X87172869Y-80856753D01*
X87256753Y-80772869D01*
X87261788Y-80762989D01*
X87309168Y-80670000D01*
X109510832Y-80670000D01*
X109511127Y-80671863D01*
X109512864Y-80682831D01*
X109529390Y-80787169D01*
X109530248Y-80788853D01*
X109577124Y-80880851D01*
X109583247Y-80892869D01*
X109667131Y-80976753D01*
X109668812Y-80977609D01*
X109668814Y-80977611D01*
X109771147Y-81029752D01*
X109772831Y-81030610D01*
X109890000Y-81049168D01*
X110007169Y-81030610D01*
X110008853Y-81029752D01*
X110111186Y-80977611D01*
X110111188Y-80977609D01*
X110112869Y-80976753D01*
X110196753Y-80892869D01*
X110202877Y-80880851D01*
X110249752Y-80788853D01*
X110250610Y-80787169D01*
X110262833Y-80710000D01*
X110320832Y-80710000D01*
X110339390Y-80827169D01*
X110340248Y-80828853D01*
X110391211Y-80928873D01*
X110393247Y-80932869D01*
X110477131Y-81016753D01*
X110478812Y-81017609D01*
X110478814Y-81017611D01*
X110553759Y-81055797D01*
X110582831Y-81070610D01*
X110630291Y-81078127D01*
X110670294Y-81084463D01*
X110685955Y-81094061D01*
X110690244Y-81111923D01*
X110680646Y-81127584D01*
X110670294Y-81131872D01*
X110622831Y-81139390D01*
X110621147Y-81140248D01*
X110518814Y-81192389D01*
X110518812Y-81192391D01*
X110517131Y-81193247D01*
X110433247Y-81277131D01*
X110432391Y-81278812D01*
X110432389Y-81278814D01*
X110394520Y-81353137D01*
X110379390Y-81382831D01*
X110360832Y-81500000D01*
X110361127Y-81501863D01*
X110362319Y-81509390D01*
X110379390Y-81617169D01*
X110380248Y-81618853D01*
X110400790Y-81659168D01*
X110433247Y-81722869D01*
X110517131Y-81806753D01*
X110518812Y-81807609D01*
X110518814Y-81807611D01*
X110561558Y-81829390D01*
X110622831Y-81860610D01*
X110740000Y-81879168D01*
X110857169Y-81860610D01*
X110918442Y-81829390D01*
X110961186Y-81807611D01*
X110961188Y-81807609D01*
X110962869Y-81806753D01*
X111046753Y-81722869D01*
X111079211Y-81659168D01*
X111099752Y-81618853D01*
X111100610Y-81617169D01*
X111117681Y-81509390D01*
X111118873Y-81501863D01*
X111119168Y-81500000D01*
X111100610Y-81382831D01*
X111085480Y-81353137D01*
X111047611Y-81278814D01*
X111047609Y-81278812D01*
X111046753Y-81277131D01*
X110962869Y-81193247D01*
X110961188Y-81192391D01*
X110961186Y-81192389D01*
X110858853Y-81140248D01*
X110857169Y-81139390D01*
X110769706Y-81125537D01*
X110754045Y-81115939D01*
X110749756Y-81098077D01*
X110759354Y-81082416D01*
X110769706Y-81078128D01*
X110817169Y-81070610D01*
X110846241Y-81055797D01*
X110921186Y-81017611D01*
X110921188Y-81017609D01*
X110922869Y-81016753D01*
X110925122Y-81014500D01*
X118296332Y-81014500D01*
X118296627Y-81016363D01*
X118297869Y-81024203D01*
X118314890Y-81131669D01*
X118315748Y-81133353D01*
X118366323Y-81232611D01*
X118368747Y-81237369D01*
X118452631Y-81321253D01*
X118454312Y-81322109D01*
X118454314Y-81322111D01*
X118553601Y-81372700D01*
X118558331Y-81375110D01*
X118675500Y-81393668D01*
X118792669Y-81375110D01*
X118797399Y-81372700D01*
X118896686Y-81322111D01*
X118896688Y-81322109D01*
X118898369Y-81321253D01*
X118982253Y-81237369D01*
X118984678Y-81232611D01*
X119014032Y-81175000D01*
X121470832Y-81175000D01*
X121489390Y-81292169D01*
X121490248Y-81293853D01*
X121540970Y-81393400D01*
X121543247Y-81397869D01*
X121627131Y-81481753D01*
X121628812Y-81482609D01*
X121628814Y-81482611D01*
X121731147Y-81534752D01*
X121732831Y-81535610D01*
X121850000Y-81554168D01*
X121967169Y-81535610D01*
X121968853Y-81534752D01*
X122071186Y-81482611D01*
X122071188Y-81482609D01*
X122072869Y-81481753D01*
X122156753Y-81397869D01*
X122159031Y-81393400D01*
X122209752Y-81293853D01*
X122210610Y-81292169D01*
X122229168Y-81175000D01*
X122228831Y-81172869D01*
X122222305Y-81131669D01*
X122210610Y-81057831D01*
X122199225Y-81035487D01*
X122157611Y-80953814D01*
X122157609Y-80953812D01*
X122156753Y-80952131D01*
X122072869Y-80868247D01*
X122071188Y-80867391D01*
X122071186Y-80867389D01*
X121968853Y-80815248D01*
X121967169Y-80814390D01*
X121850000Y-80795832D01*
X121732831Y-80814390D01*
X121731147Y-80815248D01*
X121628814Y-80867389D01*
X121628812Y-80867391D01*
X121627131Y-80868247D01*
X121543247Y-80952131D01*
X121542391Y-80953812D01*
X121542389Y-80953814D01*
X121500775Y-81035487D01*
X121489390Y-81057831D01*
X121477695Y-81131669D01*
X121471170Y-81172869D01*
X121470832Y-81175000D01*
X119014032Y-81175000D01*
X119035252Y-81133353D01*
X119036110Y-81131669D01*
X119053131Y-81024203D01*
X119054373Y-81016363D01*
X119054668Y-81014500D01*
X119036110Y-80897331D01*
X119034516Y-80894203D01*
X118983111Y-80793314D01*
X118983109Y-80793312D01*
X118982253Y-80791631D01*
X118898369Y-80707747D01*
X118896688Y-80706891D01*
X118896686Y-80706889D01*
X118794353Y-80654748D01*
X118792669Y-80653890D01*
X118675500Y-80635332D01*
X118558331Y-80653890D01*
X118556647Y-80654748D01*
X118454314Y-80706889D01*
X118454312Y-80706891D01*
X118452631Y-80707747D01*
X118368747Y-80791631D01*
X118367891Y-80793312D01*
X118367889Y-80793314D01*
X118316484Y-80894203D01*
X118314890Y-80897331D01*
X118296332Y-81014500D01*
X110925122Y-81014500D01*
X111006753Y-80932869D01*
X111008790Y-80928873D01*
X111059752Y-80828853D01*
X111060610Y-80827169D01*
X111079168Y-80710000D01*
X111060610Y-80592831D01*
X111053468Y-80578814D01*
X111007611Y-80488814D01*
X111007609Y-80488812D01*
X111006753Y-80487131D01*
X110922869Y-80403247D01*
X110921188Y-80402391D01*
X110921186Y-80402389D01*
X110818853Y-80350248D01*
X110817169Y-80349390D01*
X110719965Y-80333994D01*
X110701863Y-80331127D01*
X110700000Y-80330832D01*
X110698137Y-80331127D01*
X110680035Y-80333994D01*
X110582831Y-80349390D01*
X110581147Y-80350248D01*
X110478814Y-80402389D01*
X110478812Y-80402391D01*
X110477131Y-80403247D01*
X110393247Y-80487131D01*
X110392391Y-80488812D01*
X110392389Y-80488814D01*
X110346532Y-80578814D01*
X110339390Y-80592831D01*
X110320832Y-80710000D01*
X110262833Y-80710000D01*
X110267136Y-80682831D01*
X110268873Y-80671863D01*
X110269168Y-80670000D01*
X110267728Y-80660905D01*
X110259286Y-80607611D01*
X110250610Y-80552831D01*
X110243468Y-80538814D01*
X110197611Y-80448814D01*
X110197609Y-80448812D01*
X110196753Y-80447131D01*
X110112869Y-80363247D01*
X110111188Y-80362391D01*
X110111186Y-80362389D01*
X110008853Y-80310248D01*
X110007169Y-80309390D01*
X109890000Y-80290832D01*
X109772831Y-80309390D01*
X109771147Y-80310248D01*
X109668814Y-80362389D01*
X109668812Y-80362391D01*
X109667131Y-80363247D01*
X109583247Y-80447131D01*
X109582391Y-80448812D01*
X109582389Y-80448814D01*
X109536532Y-80538814D01*
X109529390Y-80552831D01*
X109520714Y-80607611D01*
X109512273Y-80660905D01*
X109510832Y-80670000D01*
X87309168Y-80670000D01*
X87309752Y-80668853D01*
X87310610Y-80667169D01*
X87329168Y-80550000D01*
X87310610Y-80432831D01*
X87305347Y-80422501D01*
X87257611Y-80328814D01*
X87257609Y-80328812D01*
X87256753Y-80327131D01*
X87172869Y-80243247D01*
X87171188Y-80242391D01*
X87171186Y-80242389D01*
X87068853Y-80190248D01*
X87067169Y-80189390D01*
X86950000Y-80170832D01*
X86832831Y-80189390D01*
X86831147Y-80190248D01*
X86728814Y-80242389D01*
X86728812Y-80242391D01*
X86727131Y-80243247D01*
X86643247Y-80327131D01*
X86642391Y-80328812D01*
X86642389Y-80328814D01*
X86594653Y-80422501D01*
X86589390Y-80432831D01*
X86570832Y-80550000D01*
X85879622Y-80550000D01*
X85822869Y-80493247D01*
X85821188Y-80492391D01*
X85821186Y-80492389D01*
X85718853Y-80440248D01*
X85717169Y-80439390D01*
X85600000Y-80420832D01*
X85482831Y-80439390D01*
X85481147Y-80440248D01*
X85378814Y-80492389D01*
X85378812Y-80492391D01*
X85377131Y-80493247D01*
X85293247Y-80577131D01*
X85292391Y-80578812D01*
X85292389Y-80578814D01*
X85254136Y-80653890D01*
X85239390Y-80682831D01*
X85226872Y-80761863D01*
X85222158Y-80791631D01*
X85220832Y-80800000D01*
X83543882Y-80800000D01*
X83507611Y-80728814D01*
X83507609Y-80728812D01*
X83506753Y-80727131D01*
X83422869Y-80643247D01*
X83421188Y-80642391D01*
X83421186Y-80642389D01*
X83318853Y-80590248D01*
X83317169Y-80589390D01*
X83200000Y-80570832D01*
X83082831Y-80589390D01*
X83081147Y-80590248D01*
X82978814Y-80642389D01*
X82978812Y-80642391D01*
X82977131Y-80643247D01*
X82893247Y-80727131D01*
X82892391Y-80728812D01*
X82892389Y-80728814D01*
X82852257Y-80807578D01*
X82839390Y-80832831D01*
X82820832Y-80950000D01*
X77709799Y-80950000D01*
X77643753Y-80903754D01*
X77434655Y-80806250D01*
X77211803Y-80746537D01*
X76981967Y-80726429D01*
X76752131Y-80746537D01*
X76529279Y-80806250D01*
X76320182Y-80903754D01*
X76131192Y-81036086D01*
X75968053Y-81199225D01*
X75835721Y-81388215D01*
X75738217Y-81597312D01*
X75678504Y-81820164D01*
X75658396Y-82050000D01*
X75200500Y-82050000D01*
X75200500Y-80300000D01*
X83320832Y-80300000D01*
X83321127Y-80301863D01*
X83322319Y-80309390D01*
X83339390Y-80417169D01*
X83340248Y-80418853D01*
X83383505Y-80503749D01*
X83393247Y-80522869D01*
X83477131Y-80606753D01*
X83478812Y-80607609D01*
X83478814Y-80607611D01*
X83548754Y-80643247D01*
X83582831Y-80660610D01*
X83700000Y-80679168D01*
X83817169Y-80660610D01*
X83851246Y-80643247D01*
X83921186Y-80607611D01*
X83921188Y-80607609D01*
X83922869Y-80606753D01*
X84006753Y-80522869D01*
X84016496Y-80503749D01*
X84059752Y-80418853D01*
X84060610Y-80417169D01*
X84077681Y-80309390D01*
X84078873Y-80301863D01*
X84079168Y-80300000D01*
X84060610Y-80182831D01*
X84059752Y-80181147D01*
X84047208Y-80156528D01*
X128296948Y-80156528D01*
X128361509Y-80332000D01*
X128362571Y-80334176D01*
X128466522Y-80501832D01*
X128467998Y-80503749D01*
X128603541Y-80647081D01*
X128605368Y-80648658D01*
X128766968Y-80761812D01*
X128769075Y-80762989D01*
X128950125Y-80841336D01*
X128952425Y-80842066D01*
X129141326Y-80881530D01*
X129144918Y-80880851D01*
X129146000Y-80879265D01*
X129146000Y-80872732D01*
X129654000Y-80872732D01*
X129655398Y-80876107D01*
X129657833Y-80877116D01*
X129747470Y-80868011D01*
X129749836Y-80867525D01*
X129938080Y-80808533D01*
X129940308Y-80807578D01*
X130112839Y-80711942D01*
X130114825Y-80710562D01*
X130264613Y-80582180D01*
X130266275Y-80580434D01*
X130387183Y-80424560D01*
X130388469Y-80422501D01*
X130475563Y-80245503D01*
X130476405Y-80243239D01*
X130498447Y-80158620D01*
X130498156Y-80156528D01*
X133296948Y-80156528D01*
X133361509Y-80332000D01*
X133362571Y-80334176D01*
X133466522Y-80501832D01*
X133467998Y-80503749D01*
X133603541Y-80647081D01*
X133605368Y-80648658D01*
X133766968Y-80761812D01*
X133769075Y-80762989D01*
X133950125Y-80841336D01*
X133952425Y-80842066D01*
X134141326Y-80881530D01*
X134144918Y-80880851D01*
X134146000Y-80879265D01*
X134146000Y-80872732D01*
X134654000Y-80872732D01*
X134655398Y-80876107D01*
X134657833Y-80877116D01*
X134747470Y-80868011D01*
X134749836Y-80867525D01*
X134938080Y-80808533D01*
X134940308Y-80807578D01*
X135026141Y-80760000D01*
X138330832Y-80760000D01*
X138349390Y-80877169D01*
X138350248Y-80878853D01*
X138400568Y-80977611D01*
X138403247Y-80982869D01*
X138487131Y-81066753D01*
X138488812Y-81067609D01*
X138488814Y-81067611D01*
X138563017Y-81105419D01*
X138592831Y-81120610D01*
X138710000Y-81139168D01*
X138827169Y-81120610D01*
X138856983Y-81105419D01*
X138931186Y-81067611D01*
X138931188Y-81067609D01*
X138932869Y-81066753D01*
X139016753Y-80982869D01*
X139019433Y-80977611D01*
X139046239Y-80925000D01*
X139520832Y-80925000D01*
X139539390Y-81042169D01*
X139540248Y-81043853D01*
X139589364Y-81140248D01*
X139593247Y-81147869D01*
X139677131Y-81231753D01*
X139678812Y-81232609D01*
X139678814Y-81232611D01*
X139771821Y-81280000D01*
X139782831Y-81285610D01*
X139900000Y-81304168D01*
X140017169Y-81285610D01*
X140028179Y-81280000D01*
X140121186Y-81232611D01*
X140121188Y-81232609D01*
X140122869Y-81231753D01*
X140206753Y-81147869D01*
X140210637Y-81140248D01*
X140259752Y-81043853D01*
X140260610Y-81042169D01*
X140279168Y-80925000D01*
X140278280Y-80919390D01*
X140268494Y-80857611D01*
X140260610Y-80807831D01*
X140255671Y-80798137D01*
X140207611Y-80703814D01*
X140207609Y-80703812D01*
X140206753Y-80702131D01*
X140122869Y-80618247D01*
X140121188Y-80617391D01*
X140121186Y-80617389D01*
X140018853Y-80565248D01*
X140017169Y-80564390D01*
X139900000Y-80545832D01*
X139782831Y-80564390D01*
X139781147Y-80565248D01*
X139678814Y-80617389D01*
X139678812Y-80617391D01*
X139677131Y-80618247D01*
X139593247Y-80702131D01*
X139592391Y-80703812D01*
X139592389Y-80703814D01*
X139544329Y-80798137D01*
X139539390Y-80807831D01*
X139531506Y-80857611D01*
X139521721Y-80919390D01*
X139520832Y-80925000D01*
X139046239Y-80925000D01*
X139069752Y-80878853D01*
X139070610Y-80877169D01*
X139089168Y-80760000D01*
X139070610Y-80642831D01*
X139066789Y-80635332D01*
X139017611Y-80538814D01*
X139017609Y-80538812D01*
X139016753Y-80537131D01*
X138932869Y-80453247D01*
X138931188Y-80452391D01*
X138931186Y-80452389D01*
X138828853Y-80400248D01*
X138827169Y-80399390D01*
X138710000Y-80380832D01*
X138592831Y-80399390D01*
X138591147Y-80400248D01*
X138488814Y-80452389D01*
X138488812Y-80452391D01*
X138487131Y-80453247D01*
X138403247Y-80537131D01*
X138402391Y-80538812D01*
X138402389Y-80538814D01*
X138353211Y-80635332D01*
X138349390Y-80642831D01*
X138330832Y-80760000D01*
X135026141Y-80760000D01*
X135112839Y-80711942D01*
X135114825Y-80710562D01*
X135264613Y-80582180D01*
X135266275Y-80580434D01*
X135387183Y-80424560D01*
X135388469Y-80422501D01*
X135475563Y-80245503D01*
X135476405Y-80243239D01*
X135498447Y-80158620D01*
X135497944Y-80155001D01*
X135496622Y-80154000D01*
X134658773Y-80154000D01*
X134655398Y-80155398D01*
X134654000Y-80158773D01*
X134654000Y-80872732D01*
X134146000Y-80872732D01*
X134146000Y-80158773D01*
X134144602Y-80155398D01*
X134141227Y-80154000D01*
X133300791Y-80154000D01*
X133297416Y-80155398D01*
X133296948Y-80156528D01*
X130498156Y-80156528D01*
X130497944Y-80155001D01*
X130496622Y-80154000D01*
X129658773Y-80154000D01*
X129655398Y-80155398D01*
X129654000Y-80158773D01*
X129654000Y-80872732D01*
X129146000Y-80872732D01*
X129146000Y-80158773D01*
X129144602Y-80155398D01*
X129141227Y-80154000D01*
X128300791Y-80154000D01*
X128297416Y-80155398D01*
X128296948Y-80156528D01*
X84047208Y-80156528D01*
X84007611Y-80078814D01*
X84007609Y-80078812D01*
X84006753Y-80077131D01*
X83922869Y-79993247D01*
X83921188Y-79992391D01*
X83921186Y-79992389D01*
X83818853Y-79940248D01*
X83817169Y-79939390D01*
X83700000Y-79920832D01*
X83582831Y-79939390D01*
X83581147Y-79940248D01*
X83478814Y-79992389D01*
X83478812Y-79992391D01*
X83477131Y-79993247D01*
X83393247Y-80077131D01*
X83392391Y-80078812D01*
X83392389Y-80078814D01*
X83340248Y-80181147D01*
X83339390Y-80182831D01*
X83320832Y-80300000D01*
X75200500Y-80300000D01*
X75200500Y-78800000D01*
X93060832Y-78800000D01*
X93079390Y-78917169D01*
X93080248Y-78918853D01*
X93131201Y-79018853D01*
X93133247Y-79022869D01*
X93217131Y-79106753D01*
X93218812Y-79107609D01*
X93218814Y-79107611D01*
X93321147Y-79159752D01*
X93322831Y-79160610D01*
X93440000Y-79179168D01*
X93557169Y-79160610D01*
X93558853Y-79159752D01*
X93661186Y-79107611D01*
X93661188Y-79107609D01*
X93662869Y-79106753D01*
X93746753Y-79022869D01*
X93748800Y-79018853D01*
X93799752Y-78918853D01*
X93800610Y-78917169D01*
X93803329Y-78900000D01*
X96420832Y-78900000D01*
X96439390Y-79017169D01*
X96440248Y-79018853D01*
X96490568Y-79117611D01*
X96493247Y-79122869D01*
X96577131Y-79206753D01*
X96578812Y-79207609D01*
X96578814Y-79207611D01*
X96602307Y-79219581D01*
X96682831Y-79260610D01*
X96800000Y-79279168D01*
X96917169Y-79260610D01*
X96997693Y-79219581D01*
X97021186Y-79207611D01*
X97021188Y-79207609D01*
X97022869Y-79206753D01*
X97106753Y-79122869D01*
X97109433Y-79117611D01*
X97159752Y-79018853D01*
X97160610Y-79017169D01*
X97179168Y-78900000D01*
X97160610Y-78782831D01*
X97159752Y-78781147D01*
X97107611Y-78678814D01*
X97107609Y-78678812D01*
X97106753Y-78677131D01*
X97022869Y-78593247D01*
X97021188Y-78592391D01*
X97021186Y-78592389D01*
X96918853Y-78540248D01*
X96917169Y-78539390D01*
X96800000Y-78520832D01*
X96682831Y-78539390D01*
X96681147Y-78540248D01*
X96578814Y-78592389D01*
X96578812Y-78592391D01*
X96577131Y-78593247D01*
X96493247Y-78677131D01*
X96492391Y-78678812D01*
X96492389Y-78678814D01*
X96440248Y-78781147D01*
X96439390Y-78782831D01*
X96420832Y-78900000D01*
X93803329Y-78900000D01*
X93819168Y-78800000D01*
X93800610Y-78682831D01*
X93797026Y-78675797D01*
X93747611Y-78578814D01*
X93747609Y-78578812D01*
X93746753Y-78577131D01*
X93662869Y-78493247D01*
X93661188Y-78492391D01*
X93661186Y-78492389D01*
X93558853Y-78440248D01*
X93557169Y-78439390D01*
X93440000Y-78420832D01*
X93322831Y-78439390D01*
X93321147Y-78440248D01*
X93218814Y-78492389D01*
X93218812Y-78492391D01*
X93217131Y-78493247D01*
X93133247Y-78577131D01*
X93132391Y-78578812D01*
X93132389Y-78578814D01*
X93082974Y-78675797D01*
X93079390Y-78682831D01*
X93060832Y-78800000D01*
X75200500Y-78800000D01*
X75200500Y-76358577D01*
X94941600Y-76358577D01*
X94943450Y-76387985D01*
X94951430Y-76514819D01*
X94951983Y-76523616D01*
X94952449Y-76525049D01*
X94952449Y-76525051D01*
X94975554Y-76596159D01*
X95003084Y-76680887D01*
X95091691Y-76820510D01*
X95092792Y-76821544D01*
X95092793Y-76821545D01*
X95211131Y-76932672D01*
X95211134Y-76932674D01*
X95212237Y-76933710D01*
X95213564Y-76934439D01*
X95213566Y-76934441D01*
X95305684Y-76985083D01*
X95357147Y-77013375D01*
X95358607Y-77013750D01*
X95358610Y-77013751D01*
X95480362Y-77045012D01*
X95517317Y-77054500D01*
X95641178Y-77054500D01*
X95730914Y-77043163D01*
X95762566Y-77039165D01*
X95762567Y-77039165D01*
X95764061Y-77038976D01*
X95765457Y-77038423D01*
X95765462Y-77038422D01*
X95916413Y-76978656D01*
X95916415Y-76978655D01*
X95917814Y-76978101D01*
X95937185Y-76964027D01*
X96050371Y-76881793D01*
X96050372Y-76881792D01*
X96051597Y-76880902D01*
X96113944Y-76805538D01*
X96156044Y-76754648D01*
X96156045Y-76754646D01*
X96157005Y-76753486D01*
X96158117Y-76751124D01*
X96196334Y-76669908D01*
X96227414Y-76603859D01*
X96227697Y-76602377D01*
X96227698Y-76602373D01*
X96258117Y-76442908D01*
X96258117Y-76442906D01*
X96258400Y-76441423D01*
X96253724Y-76367096D01*
X96248112Y-76277887D01*
X96248111Y-76277884D01*
X96248017Y-76276384D01*
X96243121Y-76261314D01*
X96210399Y-76160610D01*
X96196916Y-76119113D01*
X96108309Y-75979490D01*
X96050283Y-75925000D01*
X95988869Y-75867328D01*
X95988866Y-75867326D01*
X95987763Y-75866290D01*
X95986436Y-75865561D01*
X95986434Y-75865559D01*
X95844179Y-75787354D01*
X95842853Y-75786625D01*
X95841393Y-75786250D01*
X95841390Y-75786249D01*
X95684147Y-75745876D01*
X95684148Y-75745876D01*
X95682683Y-75745500D01*
X95558822Y-75745500D01*
X95488539Y-75754379D01*
X95437434Y-75760835D01*
X95437433Y-75760835D01*
X95435939Y-75761024D01*
X95434543Y-75761577D01*
X95434538Y-75761578D01*
X95283587Y-75821344D01*
X95283585Y-75821345D01*
X95282186Y-75821899D01*
X95280966Y-75822786D01*
X95280965Y-75822786D01*
X95153514Y-75915385D01*
X95148403Y-75919098D01*
X95141979Y-75926863D01*
X95044711Y-76044440D01*
X95042995Y-76046514D01*
X95042354Y-76047875D01*
X95042354Y-76047876D01*
X95027768Y-76078873D01*
X94972586Y-76196141D01*
X94972303Y-76197623D01*
X94972302Y-76197627D01*
X94941975Y-76356612D01*
X94941600Y-76358577D01*
X75200500Y-76358577D01*
X75200500Y-75414061D01*
X75205948Y-75398836D01*
X75253292Y-75341147D01*
X75291396Y-75294717D01*
X75294717Y-75291396D01*
X75398836Y-75205948D01*
X75414061Y-75200500D01*
X99826000Y-75200500D01*
X99842971Y-75207529D01*
G37*
%TD.AperFunction*%
%TD*%
M02*
