%TF.GenerationSoftware,KiCad,Pcbnew,6.0.5-a6ca702e91~116~ubuntu22.04.1*%
%TF.CreationDate,2022-07-01T18:09:48-07:00*%
%TF.ProjectId,OSSG_v0p3,4f535347-5f76-4307-9033-2e6b69636164,v0.3*%
%TF.SameCoordinates,Original*%
%TF.FileFunction,Copper,L4,Bot*%
%TF.FilePolarity,Positive*%
%FSLAX46Y46*%
G04 Gerber Fmt 4.6, Leading zero omitted, Abs format (unit mm)*
G04 Created by KiCad (PCBNEW 6.0.5-a6ca702e91~116~ubuntu22.04.1) date 2022-07-01 18:09:48*
%MOMM*%
%LPD*%
G01*
G04 APERTURE LIST*
%TA.AperFunction,ComponentPad*%
%ADD10C,0.381000*%
%TD*%
%TA.AperFunction,ComponentPad*%
%ADD11O,1.250000X0.950000*%
%TD*%
%TA.AperFunction,ComponentPad*%
%ADD12O,0.890000X1.550000*%
%TD*%
%TA.AperFunction,SMDPad,CuDef*%
%ADD13R,1.550000X0.600000*%
%TD*%
%TA.AperFunction,SMDPad,CuDef*%
%ADD14C,1.500000*%
%TD*%
%TA.AperFunction,SMDPad,CuDef*%
%ADD15C,1.000000*%
%TD*%
%TA.AperFunction,ViaPad*%
%ADD16C,0.450000*%
%TD*%
%TA.AperFunction,ViaPad*%
%ADD17C,1.000000*%
%TD*%
%TA.AperFunction,ViaPad*%
%ADD18C,0.700000*%
%TD*%
%TA.AperFunction,ViaPad*%
%ADD19C,0.500000*%
%TD*%
%TA.AperFunction,Conductor*%
%ADD20C,0.250000*%
%TD*%
%TA.AperFunction,Conductor*%
%ADD21C,0.150000*%
%TD*%
%TA.AperFunction,Conductor*%
%ADD22C,0.300000*%
%TD*%
%TA.AperFunction,Conductor*%
%ADD23C,0.200000*%
%TD*%
G04 APERTURE END LIST*
D10*
%TO.P,U6,6*%
%TO.N,N/C*%
X85462600Y-82350000D03*
%TD*%
D11*
%TO.P,J1,6,Shield*%
%TO.N,GND*%
X129400000Y-79900000D03*
D12*
X128400000Y-82600000D03*
X135400000Y-82600000D03*
D11*
X134400000Y-79900000D03*
%TD*%
D13*
%TO.P,J2,1,Pin_1*%
%TO.N,+3V3*%
X124300000Y-80865000D03*
%TO.P,J2,2,Pin_2*%
%TO.N,GND*%
X124300000Y-79865000D03*
%TO.P,J2,3,Pin_3*%
%TO.N,EXT1_MIC_CLK*%
X124300000Y-78865000D03*
%TO.P,J2,4,Pin_4*%
%TO.N,EXT1_MIC_DATA*%
X124300000Y-77865000D03*
%TD*%
D14*
%TO.P,TP16,1,1*%
%TO.N,BATT-*%
X158850000Y-76090000D03*
%TD*%
D15*
%TO.P,TP1,1,1*%
%TO.N,IO4*%
X117200000Y-83180000D03*
%TD*%
%TO.P,TP9,1,1*%
%TO.N,IO0*%
X118970000Y-82950000D03*
%TD*%
%TO.P,TP6,1,1*%
%TO.N,IO25*%
X101580000Y-82360000D03*
%TD*%
D14*
%TO.P,TP18,1,1*%
%TO.N,GND*%
X128110000Y-76180000D03*
%TD*%
D15*
%TO.P,TP11,1,1*%
%TO.N,ADC1C1*%
X109060000Y-82210000D03*
%TD*%
%TO.P,TP10,1,1*%
%TO.N,ADC1C0*%
X106700000Y-82270000D03*
%TD*%
%TO.P,TP2,1,1*%
%TO.N,IO18*%
X118840000Y-77110000D03*
%TD*%
%TO.P,TP20,1,1*%
%TO.N,IO14*%
X104190000Y-82350000D03*
%TD*%
%TO.P,TP21,1,1*%
%TO.N,IO5*%
X120300000Y-80660000D03*
%TD*%
%TO.P,TP24,1,1*%
%TO.N,IO33*%
X91350000Y-82600000D03*
%TD*%
%TO.P,TP19,1,1*%
%TO.N,IO21*%
X113860000Y-75930000D03*
%TD*%
%TO.P,TP7,1,1*%
%TO.N,IO26*%
X99060000Y-82400000D03*
%TD*%
%TO.P,TP4,1,1*%
%TO.N,RX_ESP*%
X120500000Y-76080000D03*
%TD*%
D14*
%TO.P,TP14,1,1*%
%TO.N,BATT-*%
X156800000Y-76090000D03*
%TD*%
%TO.P,TP15,1,1*%
%TO.N,BATT+*%
X158700000Y-79200000D03*
%TD*%
D15*
%TO.P,TP3,1,1*%
%TO.N,TX_ESP*%
X122850000Y-76400000D03*
%TD*%
D14*
%TO.P,TP17,1,1*%
%TO.N,+3V3*%
X129860000Y-77810000D03*
%TD*%
D15*
%TO.P,TP8,1,1*%
%TO.N,EN*%
X95650000Y-79250000D03*
%TD*%
D14*
%TO.P,TP13,1,1*%
%TO.N,BATT+*%
X156650000Y-79200000D03*
%TD*%
D15*
%TO.P,TP22,1,1*%
%TO.N,IO32*%
X88240000Y-82930000D03*
%TD*%
D16*
%TO.N,EN*%
X110700000Y-80710000D03*
X119840000Y-82595000D03*
X96800000Y-78900000D03*
D17*
%TO.N,GND*%
X112610000Y-80240000D03*
X112580000Y-78870000D03*
D16*
X135600000Y-76100000D03*
X100960000Y-80300000D03*
X105760000Y-80300000D03*
D17*
X115300000Y-78880000D03*
D16*
X104160000Y-80300000D03*
X99580000Y-79280000D03*
X107150000Y-79100000D03*
X137600000Y-79200000D03*
X99580000Y-78480000D03*
D17*
X112600000Y-77420000D03*
D16*
X99580000Y-76880000D03*
X123664663Y-82671699D03*
X86870000Y-82190000D03*
X106500000Y-80300000D03*
X122384362Y-81682341D03*
X102560000Y-80300000D03*
D17*
X113910000Y-78860000D03*
D16*
X108892668Y-80078575D03*
X107150000Y-76080000D03*
D17*
X116660000Y-77440000D03*
D16*
X152550000Y-78525000D03*
D17*
X115330000Y-80250000D03*
D16*
X101760000Y-80300000D03*
X103360000Y-80300000D03*
D17*
X115310000Y-81540000D03*
D18*
X125650000Y-79900000D03*
X126970000Y-76960000D03*
X145775000Y-80325000D03*
D16*
X99580000Y-76080000D03*
X128675000Y-78375000D03*
D17*
X132900000Y-82600000D03*
D16*
X107150000Y-76880000D03*
X110237500Y-76250000D03*
D17*
X116670000Y-80260000D03*
D16*
X130300000Y-76400000D03*
X98300000Y-77350000D03*
X107150000Y-78270000D03*
D17*
X116650000Y-81550000D03*
D16*
X100240000Y-80300000D03*
D17*
X113940000Y-80230000D03*
D18*
X147305000Y-79845000D03*
D16*
X107150000Y-79970000D03*
D17*
X129550000Y-82600000D03*
D16*
X99580000Y-77680000D03*
X104960000Y-80300000D03*
D17*
X130900000Y-82600000D03*
X113920000Y-81520000D03*
D16*
X99590000Y-79980000D03*
D17*
X134350000Y-82600000D03*
X116640000Y-78890000D03*
X113930000Y-77410000D03*
X115320000Y-77430000D03*
X112590000Y-81530000D03*
D16*
X133900000Y-75450000D03*
D18*
%TO.N,+3.3VA*%
X110862500Y-78025000D03*
D16*
X109188941Y-76130596D03*
D18*
X111090000Y-76050000D03*
D16*
%TO.N,ADC1C0*%
X107740000Y-81280000D03*
%TO.N,ADC1C1*%
X109890000Y-80670000D03*
X110010000Y-81870000D03*
%TO.N,ADC1C2*%
X121250000Y-83530000D03*
X137350000Y-78500000D03*
X110700000Y-78810000D03*
%TO.N,BATT-*%
X158000000Y-77140000D03*
%TO.N,Net-(D2-Pad1)*%
X143225000Y-78600000D03*
X139625000Y-75975000D03*
%TO.N,Net-(C9-Pad1)*%
X126500000Y-81850000D03*
X122925000Y-82175000D03*
%TO.N,RTS*%
X121200000Y-78000000D03*
X122800000Y-78050000D03*
%TO.N,IO0*%
X119999511Y-77709511D03*
X118250000Y-83300000D03*
%TO.N,DTR*%
X121850000Y-81175000D03*
X121225000Y-79525000D03*
%TO.N,BATT+*%
X142191444Y-81658556D03*
D18*
X147405538Y-76005538D03*
D16*
X139900000Y-80925000D03*
X139200000Y-82250000D03*
%TO.N,+3V3*%
X126000000Y-82700000D03*
D18*
X132900000Y-77900000D03*
D16*
X93440000Y-78800000D03*
D19*
X83200000Y-80950000D03*
D16*
X114641757Y-83352982D03*
D19*
X86950000Y-80550000D03*
D16*
X117990000Y-76100000D03*
D19*
X83700000Y-80300000D03*
D16*
X121225000Y-82625000D03*
%TO.N,IO4*%
X120190000Y-83240000D03*
%TO.N,TX_ESP*%
X122200000Y-75800000D03*
%TO.N,RX_ESP*%
X121500000Y-76000000D03*
%TO.N,IO25*%
X102820000Y-83060000D03*
X112350000Y-83290000D03*
X110340000Y-83280000D03*
%TO.N,IO26*%
X100310000Y-83150000D03*
X113120000Y-83430000D03*
%TO.N,IO21*%
X114730000Y-75460000D03*
%TO.N,IO15*%
X115890000Y-83280000D03*
%TO.N,IO14*%
X105230000Y-82190000D03*
X113900000Y-83349020D03*
X110740000Y-81500000D03*
%TO.N,IO32*%
X83350000Y-82400000D03*
X110770000Y-82390000D03*
%TO.N,IO33*%
X88987747Y-81512253D03*
%TO.N,EXT1_MIC_CLK*%
X121200000Y-77200000D03*
X124010000Y-76890000D03*
%TO.N,IO5*%
X119880484Y-76975327D03*
%TO.N,IO18*%
X119450000Y-76350000D03*
%TO.N,Net-(IC1-Pad3)*%
X155625000Y-77800000D03*
X155525000Y-75700000D03*
D18*
%TO.N,V_PSU*%
X133050000Y-76950000D03*
X137300000Y-77700000D03*
D16*
X138050000Y-75700000D03*
%TO.N,PSEN*%
X142600000Y-82300000D03*
X138710000Y-80760000D03*
X137075000Y-75925000D03*
%TO.N,EXT1_MIC_DATA*%
X124797675Y-76965890D03*
X118675500Y-81014500D03*
%TO.N,Net-(R6-Pad1)*%
X85600000Y-80800000D03*
X84200000Y-82450000D03*
%TO.N,V_USB*%
X145110358Y-79845000D03*
X144565343Y-82020000D03*
%TD*%
D20*
%TO.N,EN*%
X96000000Y-78900000D02*
X95650000Y-79250000D01*
D21*
X96750000Y-78850000D02*
X96800000Y-78900000D01*
X96800000Y-78900000D02*
X96050000Y-78900000D01*
X96800000Y-78900000D02*
X98724511Y-80824511D01*
X98779022Y-80770000D02*
X98724511Y-80824511D01*
X108950000Y-80770000D02*
X98779022Y-80770000D01*
X110700000Y-80710000D02*
X110240489Y-81169511D01*
D20*
X96050000Y-78900000D02*
X96000000Y-78900000D01*
D21*
X110240489Y-81169511D02*
X109349511Y-81169511D01*
X109349511Y-81169511D02*
X108950000Y-80770000D01*
D20*
%TO.N,GND*%
X124300000Y-79865000D02*
X125615000Y-79865000D01*
X127750000Y-76180000D02*
X126970000Y-76960000D01*
X128110000Y-76180000D02*
X127750000Y-76180000D01*
X125615000Y-79865000D02*
X125650000Y-79900000D01*
D21*
%TO.N,+3.3VA*%
X111762500Y-76250000D02*
X111762500Y-77550000D01*
X111762500Y-77550000D02*
X111287500Y-78025000D01*
X111437500Y-75925000D02*
X111762500Y-76250000D01*
X111287500Y-78025000D02*
X110862500Y-78025000D01*
%TO.N,ADC1C0*%
X106750000Y-82270000D02*
X107740000Y-81280000D01*
X106700000Y-82270000D02*
X106750000Y-82270000D01*
%TO.N,ADC1C1*%
X109900000Y-81580000D02*
X109900000Y-81760000D01*
X109810989Y-81669011D02*
X109900000Y-81580000D01*
X109600989Y-81669011D02*
X109810989Y-81669011D01*
X109900000Y-81760000D02*
X110010000Y-81870000D01*
X109600989Y-81669011D02*
X109060000Y-82210000D01*
%TO.N,ADC1C2*%
X137050000Y-81375000D02*
X137050000Y-78800000D01*
X127450000Y-83489760D02*
X127249520Y-83690240D01*
X121250000Y-83530000D02*
X121020000Y-83530000D01*
X127450000Y-83450000D02*
X127450000Y-81951772D01*
X121000000Y-83550000D02*
X121075480Y-83625480D01*
X127247020Y-83680000D02*
X121072980Y-83680000D01*
X136874520Y-81550480D02*
X137050000Y-81375000D01*
X121075480Y-83625480D02*
X121075480Y-83700000D01*
X127450000Y-81951772D02*
X127851292Y-81550480D01*
X137050000Y-78800000D02*
X137350000Y-78500000D01*
X121020000Y-83530000D02*
X121000000Y-83550000D01*
X127851292Y-81550480D02*
X136874520Y-81550480D01*
%TO.N,BATT-*%
X158700000Y-76550000D02*
X158700000Y-76750000D01*
D22*
X157850000Y-77140000D02*
X156800000Y-76090000D01*
X158850000Y-76290000D02*
X158000000Y-77140000D01*
D21*
%TO.N,Net-(D2-Pad1)*%
X139625000Y-75975000D02*
X142250000Y-78600000D01*
X142250000Y-78600000D02*
X143225000Y-78600000D01*
%TO.N,Net-(C9-Pad1)*%
X123250000Y-81850000D02*
X122925000Y-82175000D01*
X126500000Y-81850000D02*
X123250000Y-81850000D01*
%TO.N,RTS*%
X121350000Y-77850000D02*
X122600000Y-77850000D01*
X122800000Y-78050000D02*
X122600000Y-77850000D01*
X121200000Y-78000000D02*
X121350000Y-77850000D01*
%TO.N,IO0*%
X119175000Y-78534022D02*
X119999511Y-77709511D01*
X119175000Y-82900000D02*
X119175000Y-78534022D01*
X118250000Y-83300000D02*
X118620000Y-83300000D01*
X118620000Y-83300000D02*
X118970000Y-82950000D01*
%TO.N,DTR*%
X121225000Y-80550000D02*
X121225000Y-79525000D01*
X121850000Y-81175000D02*
X121225000Y-80550000D01*
%TO.N,BATT+*%
X139801444Y-81658556D02*
X142191444Y-81658556D01*
X139791444Y-81658556D02*
X139200000Y-82250000D01*
X139801444Y-81658556D02*
X139791444Y-81658556D01*
X142486076Y-80925000D02*
X139900000Y-80925000D01*
D22*
X147405538Y-76005538D02*
X152974122Y-76005538D01*
X155768584Y-78800000D02*
X158700000Y-78800000D01*
D21*
X147405538Y-76005538D02*
X142486076Y-80925000D01*
D22*
X152974122Y-76005538D02*
X155768584Y-78800000D01*
D21*
%TO.N,+3V3*%
X127020000Y-82040000D02*
X127020000Y-81530000D01*
D22*
X132810000Y-77810000D02*
X132900000Y-77900000D01*
X132739020Y-77810000D02*
X132810000Y-77810000D01*
D21*
X126360000Y-82700000D02*
X127020000Y-82040000D01*
X126355000Y-80865000D02*
X124300000Y-80865000D01*
X126000000Y-82700000D02*
X126360000Y-82700000D01*
D22*
X132739020Y-77810000D02*
X129860000Y-77810000D01*
D21*
X127020000Y-81530000D02*
X126355000Y-80865000D01*
%TO.N,IO4*%
X117730000Y-83700000D02*
X117000000Y-82970000D01*
X120084520Y-83240000D02*
X120040000Y-83284520D01*
X119624520Y-83700000D02*
X117730000Y-83700000D01*
X120040000Y-83240000D02*
X120040000Y-83284520D01*
X120190000Y-83240000D02*
X120084520Y-83240000D01*
X120040000Y-83284520D02*
X119624520Y-83700000D01*
%TO.N,TX_ESP*%
X122800000Y-76400000D02*
X122200000Y-75800000D01*
X122850000Y-76400000D02*
X122800000Y-76400000D01*
%TO.N,RX_ESP*%
X120500000Y-76080000D02*
X121420000Y-76080000D01*
X121420000Y-76080000D02*
X121500000Y-76000000D01*
%TO.N,IO25*%
X110340000Y-83280000D02*
X112330980Y-83280000D01*
X101580000Y-82360000D02*
X102280000Y-83060000D01*
X102280000Y-83060000D02*
X102820000Y-83060000D01*
X112330980Y-83280000D02*
X112400000Y-83349020D01*
X110330000Y-83280000D02*
X110340000Y-83280000D01*
%TO.N,IO26*%
X99060000Y-82400000D02*
X99810000Y-83150000D01*
X99810000Y-83150000D02*
X100310000Y-83150000D01*
%TO.N,IO21*%
X114730000Y-75460000D02*
X114410000Y-75460000D01*
X114410000Y-75460000D02*
X113950000Y-75920000D01*
%TO.N,IO14*%
X104350000Y-82190000D02*
X104190000Y-82350000D01*
X110870000Y-81500000D02*
X111010000Y-81640000D01*
X111674511Y-82304511D02*
X111010000Y-81640000D01*
X105230000Y-82190000D02*
X104350000Y-82190000D01*
X113900000Y-83349020D02*
X112855491Y-82304511D01*
X112855491Y-82304511D02*
X111674511Y-82304511D01*
X111010000Y-81640000D02*
X110800000Y-81430000D01*
X110850000Y-81500000D02*
X110870000Y-81500000D01*
D23*
%TO.N,IO32*%
X83349520Y-83389520D02*
X83650000Y-83690000D01*
D21*
X88070000Y-83100000D02*
X88240000Y-82930000D01*
D23*
X83349520Y-82389520D02*
X83349520Y-83389520D01*
D21*
X110460000Y-82390000D02*
X110770000Y-82390000D01*
X109160000Y-83690000D02*
X110420000Y-82430000D01*
X109149040Y-83690000D02*
X108709040Y-83690000D01*
X88070000Y-83690000D02*
X88070000Y-83100000D01*
X88070000Y-83690000D02*
X108709040Y-83690000D01*
X109149040Y-83690000D02*
X109160000Y-83690000D01*
X110420000Y-82430000D02*
X110460000Y-82390000D01*
X83650000Y-83690000D02*
X88070000Y-83690000D01*
%TO.N,IO33*%
X90100000Y-82600000D02*
X89012253Y-81512253D01*
X89012253Y-81512253D02*
X88987747Y-81512253D01*
X90100000Y-82600000D02*
X91350000Y-82600000D01*
%TO.N,EXT1_MIC_CLK*%
X121200000Y-77200000D02*
X122200000Y-77200000D01*
X123270000Y-77470978D02*
X123270000Y-78310000D01*
X122470978Y-77470978D02*
X123270000Y-77470978D01*
X123270000Y-78310000D02*
X123825000Y-78865000D01*
X123825000Y-78865000D02*
X124300000Y-78865000D01*
X122200000Y-77200000D02*
X122470978Y-77470978D01*
X123850978Y-76890000D02*
X123270000Y-77470978D01*
X124010000Y-76890000D02*
X123850978Y-76890000D01*
%TO.N,IO5*%
X120850000Y-77500000D02*
X120550000Y-77200000D01*
X120550000Y-77200000D02*
X120325327Y-76975327D01*
X120300000Y-78050000D02*
X120850000Y-77500000D01*
X120300000Y-80660000D02*
X120300000Y-78050000D01*
X120325327Y-76975327D02*
X119880484Y-76975327D01*
%TO.N,IO18*%
X119450000Y-76350000D02*
X119450000Y-76500000D01*
X119450000Y-76500000D02*
X118840000Y-77110000D01*
D23*
%TO.N,Net-(IC1-Pad3)*%
X155525000Y-77850000D02*
X155525000Y-75700000D01*
X155625000Y-77950000D02*
X155525000Y-77850000D01*
D20*
%TO.N,V_PSU*%
X137300000Y-77700000D02*
X133800000Y-77700000D01*
X133800000Y-77700000D02*
X133050000Y-76950000D01*
D21*
%TO.N,PSEN*%
X142400000Y-82500000D02*
X139850000Y-82500000D01*
X142600000Y-82300000D02*
X142400000Y-82500000D01*
X139850000Y-82500000D02*
X139600000Y-82750000D01*
X139600000Y-82750000D02*
X138700000Y-82750000D01*
X138000000Y-81450000D02*
X138690000Y-80760000D01*
X137450000Y-76300000D02*
X137075000Y-75925000D01*
X138000000Y-82050000D02*
X138000000Y-81450000D01*
X138710000Y-76440000D02*
X138570000Y-76300000D01*
X138710000Y-80760000D02*
X138710000Y-76440000D01*
X138700000Y-82750000D02*
X138000000Y-82050000D01*
X138570000Y-76300000D02*
X137450000Y-76300000D01*
X138690000Y-80760000D02*
X138710000Y-80760000D01*
%TO.N,EXT1_MIC_DATA*%
X124797675Y-76965890D02*
X124797675Y-77367325D01*
X124797675Y-77367325D02*
X124300000Y-77865000D01*
D23*
%TO.N,Net-(R6-Pad1)*%
X84200000Y-81850000D02*
X85250000Y-80800000D01*
X84200000Y-82450000D02*
X84200000Y-81850000D01*
X85250000Y-80800000D02*
X85600000Y-80800000D01*
D21*
%TO.N,V_USB*%
X144565343Y-80390015D02*
X145110358Y-79845000D01*
X144565343Y-82039645D02*
X144565343Y-80390015D01*
%TD*%
%TA.AperFunction,Conductor*%
%TO.N,GND*%
G36*
X99842971Y-75207529D02*
G01*
X99850000Y-75224500D01*
X99850000Y-80000000D01*
X106850000Y-80000000D01*
X106850000Y-78810000D01*
X110320832Y-78810000D01*
X110339390Y-78927169D01*
X110340248Y-78928853D01*
X110388447Y-79023448D01*
X110393247Y-79032869D01*
X110477131Y-79116753D01*
X110478812Y-79117609D01*
X110478814Y-79117611D01*
X110581147Y-79169752D01*
X110582831Y-79170610D01*
X110700000Y-79189168D01*
X110817169Y-79170610D01*
X110818853Y-79169752D01*
X110921186Y-79117611D01*
X110921188Y-79117609D01*
X110922869Y-79116753D01*
X111006753Y-79032869D01*
X111011554Y-79023448D01*
X111059752Y-78928853D01*
X111060610Y-78927169D01*
X111079168Y-78810000D01*
X111060610Y-78692831D01*
X111052758Y-78677420D01*
X111007611Y-78588814D01*
X111007609Y-78588812D01*
X111006753Y-78587131D01*
X110930330Y-78510708D01*
X110923301Y-78493737D01*
X110930330Y-78476766D01*
X110940988Y-78470582D01*
X111041609Y-78443149D01*
X111041611Y-78443148D01*
X111043255Y-78442700D01*
X111153224Y-78375179D01*
X111159234Y-78368540D01*
X111205900Y-78316983D01*
X111239822Y-78279507D01*
X111240974Y-78277131D01*
X111269455Y-78218346D01*
X111283180Y-78206139D01*
X111291230Y-78205552D01*
X111291207Y-78205113D01*
X111294109Y-78204961D01*
X111296960Y-78205505D01*
X111309271Y-78201788D01*
X111333245Y-78194550D01*
X111334457Y-78194219D01*
X111368421Y-78185876D01*
X111371242Y-78185183D01*
X111373420Y-78183263D01*
X111375229Y-78182317D01*
X111375439Y-78182231D01*
X111375438Y-78182229D01*
X111377397Y-78181218D01*
X111379510Y-78180580D01*
X111381253Y-78179228D01*
X111381255Y-78179227D01*
X111381610Y-78178951D01*
X111382202Y-78178492D01*
X111406771Y-78153923D01*
X111407870Y-78152891D01*
X111408005Y-78152772D01*
X111435924Y-78128158D01*
X111436964Y-78125448D01*
X111438622Y-78123063D01*
X111438909Y-78123262D01*
X111441641Y-78119053D01*
X111873132Y-77687562D01*
X111876613Y-77684683D01*
X111886603Y-77677894D01*
X111896825Y-77670947D01*
X111914725Y-77637563D01*
X111915347Y-77636471D01*
X111933477Y-77606536D01*
X111933477Y-77606535D01*
X111934981Y-77604052D01*
X111935163Y-77601154D01*
X111935774Y-77599205D01*
X111935862Y-77598994D01*
X111935861Y-77598994D01*
X111936532Y-77596893D01*
X111937573Y-77594951D01*
X111938000Y-77591571D01*
X111938000Y-77556823D01*
X111938047Y-77555316D01*
X111940213Y-77520892D01*
X111940213Y-77520890D01*
X111940395Y-77517992D01*
X111939213Y-77515338D01*
X111938699Y-77512481D01*
X111939043Y-77512419D01*
X111938000Y-77507511D01*
X111938000Y-76269041D01*
X111938425Y-76264544D01*
X111942460Y-76243392D01*
X111943004Y-76240540D01*
X111941057Y-76234092D01*
X111932052Y-76204266D01*
X111931721Y-76203054D01*
X111923376Y-76169079D01*
X111922683Y-76166258D01*
X111920763Y-76164080D01*
X111919817Y-76162271D01*
X111919731Y-76162061D01*
X111919729Y-76162062D01*
X111918718Y-76160103D01*
X111918080Y-76157990D01*
X111915992Y-76155298D01*
X111891415Y-76130721D01*
X111890383Y-76129621D01*
X111875469Y-76112704D01*
X111865658Y-76101576D01*
X111862947Y-76100535D01*
X111860561Y-76098877D01*
X111860760Y-76098590D01*
X111856553Y-76095859D01*
X111547497Y-75786802D01*
X111546478Y-75785783D01*
X111516472Y-75767611D01*
X111494036Y-75754023D01*
X111494035Y-75754023D01*
X111491552Y-75752519D01*
X111453260Y-75750110D01*
X111434851Y-75748952D01*
X111418176Y-75740665D01*
X111390309Y-75708323D01*
X111390308Y-75708322D01*
X111389193Y-75707028D01*
X111303859Y-75651718D01*
X111282338Y-75637769D01*
X111282337Y-75637769D01*
X111280906Y-75636841D01*
X111157273Y-75599866D01*
X111095001Y-75599486D01*
X111029941Y-75599088D01*
X111029938Y-75599088D01*
X111028231Y-75599078D01*
X111026588Y-75599548D01*
X111026585Y-75599548D01*
X110905803Y-75634068D01*
X110904155Y-75634539D01*
X110795019Y-75703399D01*
X110793891Y-75704677D01*
X110793889Y-75704678D01*
X110711349Y-75798137D01*
X110709596Y-75800122D01*
X110708871Y-75801667D01*
X110708870Y-75801668D01*
X110700821Y-75818813D01*
X110654754Y-75916932D01*
X110643995Y-75986034D01*
X110635255Y-76042169D01*
X110634901Y-76044440D01*
X110651633Y-76172394D01*
X110703605Y-76290510D01*
X110786639Y-76389291D01*
X110823933Y-76414116D01*
X110892492Y-76459752D01*
X110894060Y-76460796D01*
X110941275Y-76475547D01*
X111015603Y-76498769D01*
X111015605Y-76498769D01*
X111017233Y-76499278D01*
X111078005Y-76500392D01*
X111144546Y-76501612D01*
X111144548Y-76501612D01*
X111146255Y-76501643D01*
X111238320Y-76476543D01*
X111269109Y-76468149D01*
X111269111Y-76468148D01*
X111270755Y-76467700D01*
X111380724Y-76400179D01*
X111382296Y-76398443D01*
X111436849Y-76338173D01*
X111467322Y-76304507D01*
X111468069Y-76302966D01*
X111485735Y-76266504D01*
X111499460Y-76254297D01*
X111517798Y-76255371D01*
X111524304Y-76259998D01*
X111579971Y-76315665D01*
X111587000Y-76332636D01*
X111587000Y-77467364D01*
X111579971Y-77484335D01*
X111281912Y-77782393D01*
X111264941Y-77789422D01*
X111247970Y-77782393D01*
X111245995Y-77779935D01*
X111245928Y-77779788D01*
X111245168Y-77778906D01*
X111245160Y-77778896D01*
X111162809Y-77683323D01*
X111162808Y-77683322D01*
X111161693Y-77682028D01*
X111053406Y-77611841D01*
X110929773Y-77574866D01*
X110867501Y-77574486D01*
X110802441Y-77574088D01*
X110802438Y-77574088D01*
X110800731Y-77574078D01*
X110799088Y-77574548D01*
X110799085Y-77574548D01*
X110689426Y-77605889D01*
X110676655Y-77609539D01*
X110567519Y-77678399D01*
X110566391Y-77679677D01*
X110566389Y-77679678D01*
X110483268Y-77773795D01*
X110482096Y-77775122D01*
X110481371Y-77776667D01*
X110481370Y-77776668D01*
X110480324Y-77778896D01*
X110427254Y-77891932D01*
X110407401Y-78019440D01*
X110424133Y-78147394D01*
X110476105Y-78265510D01*
X110521455Y-78319460D01*
X110555324Y-78359752D01*
X110559139Y-78364291D01*
X110615786Y-78401998D01*
X110626018Y-78417254D01*
X110622466Y-78435276D01*
X110606242Y-78445681D01*
X110584701Y-78449093D01*
X110584696Y-78449095D01*
X110582831Y-78449390D01*
X110581147Y-78450248D01*
X110478814Y-78502389D01*
X110478812Y-78502391D01*
X110477131Y-78503247D01*
X110393247Y-78587131D01*
X110392391Y-78588812D01*
X110392389Y-78588814D01*
X110347242Y-78677420D01*
X110339390Y-78692831D01*
X110320832Y-78810000D01*
X106850000Y-78810000D01*
X106850000Y-76130596D01*
X108809773Y-76130596D01*
X108828331Y-76247765D01*
X108829189Y-76249449D01*
X108878510Y-76346246D01*
X108882188Y-76353465D01*
X108966072Y-76437349D01*
X108967753Y-76438205D01*
X108967755Y-76438207D01*
X109047567Y-76478873D01*
X109071772Y-76491206D01*
X109188941Y-76509764D01*
X109306110Y-76491206D01*
X109330315Y-76478873D01*
X109410127Y-76438207D01*
X109410129Y-76438205D01*
X109411810Y-76437349D01*
X109495694Y-76353465D01*
X109499373Y-76346246D01*
X109548693Y-76249449D01*
X109549551Y-76247765D01*
X109568109Y-76130596D01*
X109567574Y-76127215D01*
X109554823Y-76046713D01*
X109549551Y-76013427D01*
X109533962Y-75982831D01*
X109496552Y-75909410D01*
X109496550Y-75909408D01*
X109495694Y-75907727D01*
X109411810Y-75823843D01*
X109410129Y-75822987D01*
X109410127Y-75822985D01*
X109307794Y-75770844D01*
X109306110Y-75769986D01*
X109205325Y-75754023D01*
X109190804Y-75751723D01*
X109188941Y-75751428D01*
X109187078Y-75751723D01*
X109172557Y-75754023D01*
X109071772Y-75769986D01*
X109070088Y-75770844D01*
X108967755Y-75822985D01*
X108967753Y-75822987D01*
X108966072Y-75823843D01*
X108882188Y-75907727D01*
X108881332Y-75909408D01*
X108881330Y-75909410D01*
X108843920Y-75982831D01*
X108828331Y-76013427D01*
X108823059Y-76046713D01*
X108810309Y-76127215D01*
X108809773Y-76130596D01*
X106850000Y-76130596D01*
X106850000Y-75224500D01*
X106857029Y-75207529D01*
X106874000Y-75200500D01*
X114403123Y-75200500D01*
X114420094Y-75207529D01*
X114427123Y-75224500D01*
X114423053Y-75237031D01*
X114423247Y-75237130D01*
X114422622Y-75238357D01*
X114422391Y-75238811D01*
X114422390Y-75238813D01*
X114406513Y-75269974D01*
X114392067Y-75282054D01*
X114378247Y-75286227D01*
X114364266Y-75290448D01*
X114363054Y-75290779D01*
X114329079Y-75299124D01*
X114326258Y-75299817D01*
X114324080Y-75301737D01*
X114322271Y-75302683D01*
X114322061Y-75302769D01*
X114322062Y-75302771D01*
X114320103Y-75303782D01*
X114317990Y-75304420D01*
X114316247Y-75305772D01*
X114316245Y-75305773D01*
X114315897Y-75306043D01*
X114315893Y-75306046D01*
X114315298Y-75306508D01*
X114314763Y-75307043D01*
X114290727Y-75331078D01*
X114289629Y-75332109D01*
X114261576Y-75356842D01*
X114260536Y-75359551D01*
X114258877Y-75361938D01*
X114258591Y-75361739D01*
X114255859Y-75365947D01*
X114207995Y-75413811D01*
X114191024Y-75420840D01*
X114176417Y-75415881D01*
X114162841Y-75405464D01*
X114045457Y-75356842D01*
X114018218Y-75345559D01*
X114018217Y-75345559D01*
X114016762Y-75344956D01*
X113860000Y-75324318D01*
X113703238Y-75344956D01*
X113701783Y-75345559D01*
X113701782Y-75345559D01*
X113674543Y-75356842D01*
X113557159Y-75405464D01*
X113431718Y-75501718D01*
X113335464Y-75627159D01*
X113322301Y-75658937D01*
X113275560Y-75771781D01*
X113274956Y-75773238D01*
X113254318Y-75930000D01*
X113274956Y-76086762D01*
X113275559Y-76088217D01*
X113275559Y-76088218D01*
X113292660Y-76129503D01*
X113335464Y-76232841D01*
X113431718Y-76358282D01*
X113557159Y-76454536D01*
X113607884Y-76475547D01*
X113693782Y-76511127D01*
X113703238Y-76515044D01*
X113860000Y-76535682D01*
X114016762Y-76515044D01*
X114026219Y-76511127D01*
X114112116Y-76475547D01*
X114162841Y-76454536D01*
X114288282Y-76358282D01*
X114384536Y-76232841D01*
X114427340Y-76129503D01*
X114439561Y-76100000D01*
X117610832Y-76100000D01*
X117629390Y-76217169D01*
X117630248Y-76218853D01*
X117682153Y-76320721D01*
X117683247Y-76322869D01*
X117767131Y-76406753D01*
X117768812Y-76407609D01*
X117768814Y-76407611D01*
X117865218Y-76456731D01*
X117872831Y-76460610D01*
X117967138Y-76475547D01*
X117985385Y-76478437D01*
X117990000Y-76479168D01*
X117994616Y-76478437D01*
X118012862Y-76475547D01*
X118107169Y-76460610D01*
X118114782Y-76456731D01*
X118211186Y-76407611D01*
X118211188Y-76407609D01*
X118212869Y-76406753D01*
X118296753Y-76322869D01*
X118297848Y-76320721D01*
X118349752Y-76218853D01*
X118350610Y-76217169D01*
X118369168Y-76100000D01*
X118367782Y-76091246D01*
X118360728Y-76046713D01*
X118350610Y-75982831D01*
X118344948Y-75971718D01*
X118297611Y-75878814D01*
X118297609Y-75878812D01*
X118296753Y-75877131D01*
X118212869Y-75793247D01*
X118211188Y-75792391D01*
X118211186Y-75792389D01*
X118108853Y-75740248D01*
X118107169Y-75739390D01*
X117990000Y-75720832D01*
X117872831Y-75739390D01*
X117871147Y-75740248D01*
X117768814Y-75792389D01*
X117768812Y-75792391D01*
X117767131Y-75793247D01*
X117683247Y-75877131D01*
X117682391Y-75878812D01*
X117682389Y-75878814D01*
X117635052Y-75971718D01*
X117629390Y-75982831D01*
X117619272Y-76046713D01*
X117612219Y-76091246D01*
X117610832Y-76100000D01*
X114439561Y-76100000D01*
X114444441Y-76088218D01*
X114444441Y-76088217D01*
X114445044Y-76086762D01*
X114465682Y-75930000D01*
X114445044Y-75773238D01*
X114444441Y-75771782D01*
X114444441Y-75771781D01*
X114442730Y-75767651D01*
X114442730Y-75749282D01*
X114455719Y-75736294D01*
X114474088Y-75736294D01*
X114481874Y-75741496D01*
X114507131Y-75766753D01*
X114508812Y-75767609D01*
X114508814Y-75767611D01*
X114572621Y-75800122D01*
X114612831Y-75820610D01*
X114710035Y-75836006D01*
X114717474Y-75837184D01*
X114730000Y-75839168D01*
X114742527Y-75837184D01*
X114749965Y-75836006D01*
X114847169Y-75820610D01*
X114887379Y-75800122D01*
X114951186Y-75767611D01*
X114951188Y-75767609D01*
X114952869Y-75766753D01*
X115036753Y-75682869D01*
X115037631Y-75681147D01*
X115089752Y-75578853D01*
X115090610Y-75577169D01*
X115109168Y-75460000D01*
X115108442Y-75455413D01*
X115105189Y-75434875D01*
X115090610Y-75342831D01*
X115064403Y-75291396D01*
X115037609Y-75238811D01*
X115036753Y-75237131D01*
X115037067Y-75236971D01*
X115033173Y-75220741D01*
X115042774Y-75205081D01*
X115056877Y-75200500D01*
X125337495Y-75200500D01*
X125354466Y-75207529D01*
X125361495Y-75224500D01*
X125354466Y-75241471D01*
X125352535Y-75243203D01*
X125300141Y-75285328D01*
X125174656Y-75434875D01*
X125174090Y-75435905D01*
X125174087Y-75435909D01*
X125081175Y-75604916D01*
X125080608Y-75605948D01*
X125080254Y-75607063D01*
X125080253Y-75607066D01*
X125054291Y-75688908D01*
X125021579Y-75792030D01*
X125021448Y-75793199D01*
X125021447Y-75793203D01*
X125011005Y-75886300D01*
X124999819Y-75986034D01*
X125000992Y-76000000D01*
X125016154Y-76180570D01*
X125069964Y-76368227D01*
X125159199Y-76541859D01*
X125159927Y-76542778D01*
X125159928Y-76542779D01*
X125250263Y-76656753D01*
X125280460Y-76694852D01*
X125429127Y-76821378D01*
X125475847Y-76847489D01*
X125598511Y-76916044D01*
X125598515Y-76916046D01*
X125599539Y-76916618D01*
X125600657Y-76916981D01*
X125600661Y-76916983D01*
X125784084Y-76976581D01*
X125784086Y-76976581D01*
X125785205Y-76976945D01*
X125979052Y-77000060D01*
X125980223Y-76999970D01*
X125980227Y-76999970D01*
X126068137Y-76993205D01*
X126173697Y-76985083D01*
X126361725Y-76932584D01*
X126393332Y-76916618D01*
X126534926Y-76845094D01*
X126534931Y-76845091D01*
X126535976Y-76844563D01*
X126689812Y-76724374D01*
X126817373Y-76576593D01*
X126817954Y-76575570D01*
X126817957Y-76575566D01*
X126854051Y-76512028D01*
X126868545Y-76500744D01*
X126886773Y-76503014D01*
X126898101Y-76517670D01*
X126923080Y-76610892D01*
X126923795Y-76612857D01*
X127015937Y-76810454D01*
X127016977Y-76812256D01*
X127056063Y-76868077D01*
X127059145Y-76870041D01*
X127061205Y-76869584D01*
X127747416Y-76183374D01*
X127748813Y-76180000D01*
X128471187Y-76180000D01*
X128472584Y-76183374D01*
X129157825Y-76868614D01*
X129161199Y-76870011D01*
X129163149Y-76869204D01*
X129203023Y-76812256D01*
X129204063Y-76810454D01*
X129296205Y-76612857D01*
X129296920Y-76610892D01*
X129353348Y-76400299D01*
X129353711Y-76398240D01*
X129372714Y-76181040D01*
X129372714Y-76178960D01*
X129353711Y-75961760D01*
X129353348Y-75959701D01*
X129296920Y-75749108D01*
X129296205Y-75747143D01*
X129204063Y-75549546D01*
X129203023Y-75547744D01*
X129163937Y-75491923D01*
X129160855Y-75489959D01*
X129158795Y-75490416D01*
X128472584Y-76176626D01*
X128471187Y-76180000D01*
X127748813Y-76180000D01*
X127747416Y-76176626D01*
X127062175Y-75491386D01*
X127058801Y-75489989D01*
X127056851Y-75490796D01*
X127016977Y-75547744D01*
X127015937Y-75549546D01*
X126974485Y-75638438D01*
X126960942Y-75650848D01*
X126942591Y-75650046D01*
X126929758Y-75635232D01*
X126926943Y-75625908D01*
X126924804Y-75618823D01*
X126833154Y-75446454D01*
X126832418Y-75445552D01*
X126832415Y-75445547D01*
X126710510Y-75296077D01*
X126710507Y-75296074D01*
X126709769Y-75295169D01*
X126646698Y-75242992D01*
X126638103Y-75226759D01*
X126643504Y-75209202D01*
X126659737Y-75200607D01*
X126661996Y-75200500D01*
X127479769Y-75200500D01*
X127496740Y-75207529D01*
X128106626Y-75817416D01*
X128110000Y-75818813D01*
X128113374Y-75817416D01*
X128723260Y-75207529D01*
X128740231Y-75200500D01*
X156665743Y-75200500D01*
X156682714Y-75207529D01*
X156689743Y-75224500D01*
X156682714Y-75241471D01*
X156670733Y-75247976D01*
X156535733Y-75276671D01*
X156454071Y-75313029D01*
X156373557Y-75348876D01*
X156373554Y-75348878D01*
X156372408Y-75349388D01*
X156371391Y-75350127D01*
X156371389Y-75350128D01*
X156237384Y-75447489D01*
X156227770Y-75454474D01*
X156108141Y-75587335D01*
X156107515Y-75588419D01*
X156107513Y-75588422D01*
X156019616Y-75740665D01*
X156018750Y-75742165D01*
X156004067Y-75787354D01*
X155964409Y-75909410D01*
X155963503Y-75912197D01*
X155963372Y-75913443D01*
X155963371Y-75913448D01*
X155949589Y-76044581D01*
X155944815Y-76090000D01*
X155944946Y-76091246D01*
X155963371Y-76266552D01*
X155963372Y-76266557D01*
X155963503Y-76267803D01*
X155963893Y-76269002D01*
X155963893Y-76269004D01*
X155988556Y-76344907D01*
X156018750Y-76437835D01*
X156019378Y-76438923D01*
X156019379Y-76438925D01*
X156107513Y-76591578D01*
X156107515Y-76591581D01*
X156108141Y-76592665D01*
X156227770Y-76725526D01*
X156228790Y-76726267D01*
X156228791Y-76726268D01*
X156367473Y-76827027D01*
X156372407Y-76830612D01*
X156535733Y-76903329D01*
X156536961Y-76903590D01*
X156709380Y-76940239D01*
X156709382Y-76940239D01*
X156710609Y-76940500D01*
X156889391Y-76940500D01*
X156890618Y-76940239D01*
X156890620Y-76940239D01*
X157063039Y-76903590D01*
X157064267Y-76903329D01*
X157183988Y-76850026D01*
X157202350Y-76849545D01*
X157210720Y-76854980D01*
X157664214Y-77308474D01*
X157668627Y-77314549D01*
X157692191Y-77360796D01*
X157693247Y-77362869D01*
X157777131Y-77446753D01*
X157778812Y-77447609D01*
X157778814Y-77447611D01*
X157868380Y-77493247D01*
X157882831Y-77500610D01*
X158000000Y-77519168D01*
X158117169Y-77500610D01*
X158131620Y-77493247D01*
X158221186Y-77447611D01*
X158221188Y-77447609D01*
X158222869Y-77446753D01*
X158306753Y-77362869D01*
X158307810Y-77360796D01*
X158359752Y-77258853D01*
X158360610Y-77257169D01*
X158379168Y-77140000D01*
X158377675Y-77130577D01*
X158381962Y-77112718D01*
X158384408Y-77109852D01*
X158580806Y-76913454D01*
X158597777Y-76906425D01*
X158602768Y-76906950D01*
X158637413Y-76914315D01*
X158641023Y-76915384D01*
X158644238Y-76916618D01*
X158677346Y-76929327D01*
X158680233Y-76928993D01*
X158693319Y-76927479D01*
X158701067Y-76927844D01*
X158759380Y-76940239D01*
X158759382Y-76940239D01*
X158760609Y-76940500D01*
X158939391Y-76940500D01*
X158940618Y-76940239D01*
X158940620Y-76940239D01*
X159113039Y-76903590D01*
X159114267Y-76903329D01*
X159277593Y-76830612D01*
X159282528Y-76827027D01*
X159421209Y-76726268D01*
X159421210Y-76726267D01*
X159422230Y-76725526D01*
X159541859Y-76592665D01*
X159542485Y-76591581D01*
X159542487Y-76591578D01*
X159630621Y-76438925D01*
X159630622Y-76438923D01*
X159631250Y-76437835D01*
X159661444Y-76344907D01*
X159686107Y-76269004D01*
X159686107Y-76269002D01*
X159686497Y-76267803D01*
X159686628Y-76266557D01*
X159686629Y-76266552D01*
X159705054Y-76091246D01*
X159705185Y-76090000D01*
X159700411Y-76044581D01*
X159686629Y-75913448D01*
X159686628Y-75913443D01*
X159686497Y-75912197D01*
X159685592Y-75909410D01*
X159645933Y-75787354D01*
X159631250Y-75742165D01*
X159630384Y-75740665D01*
X159542487Y-75588422D01*
X159542485Y-75588419D01*
X159541859Y-75587335D01*
X159422230Y-75454474D01*
X159382756Y-75425794D01*
X159278612Y-75350128D01*
X159278610Y-75350127D01*
X159277593Y-75349388D01*
X159114267Y-75276671D01*
X158979267Y-75247976D01*
X158964129Y-75237571D01*
X158960781Y-75219510D01*
X158971186Y-75204372D01*
X158984257Y-75200500D01*
X159585939Y-75200500D01*
X159601164Y-75205948D01*
X159705283Y-75291396D01*
X159708604Y-75294717D01*
X159763771Y-75361938D01*
X159794052Y-75398836D01*
X159799500Y-75414061D01*
X159799500Y-79734206D01*
X159793762Y-79749778D01*
X159720338Y-79835884D01*
X159705868Y-79844011D01*
X159233844Y-79919535D01*
X159215976Y-79915275D01*
X159206353Y-79899628D01*
X159210613Y-79881760D01*
X159215945Y-79876420D01*
X159271209Y-79836268D01*
X159271210Y-79836267D01*
X159272230Y-79835526D01*
X159391859Y-79702665D01*
X159425153Y-79644999D01*
X159480621Y-79548925D01*
X159480622Y-79548923D01*
X159481250Y-79547835D01*
X159511938Y-79453388D01*
X159536107Y-79379004D01*
X159536107Y-79379002D01*
X159536497Y-79377803D01*
X159536628Y-79376557D01*
X159536629Y-79376552D01*
X159555054Y-79201246D01*
X159555185Y-79200000D01*
X159549492Y-79145832D01*
X159536629Y-79023448D01*
X159536628Y-79023443D01*
X159536497Y-79022197D01*
X159529606Y-79000987D01*
X159507344Y-78932475D01*
X159481250Y-78852165D01*
X159472718Y-78837387D01*
X159392487Y-78698422D01*
X159392485Y-78698419D01*
X159391859Y-78697335D01*
X159272230Y-78564474D01*
X159253151Y-78550612D01*
X159128612Y-78460128D01*
X159128610Y-78460127D01*
X159127593Y-78459388D01*
X158964267Y-78386671D01*
X158913109Y-78375797D01*
X158790620Y-78349761D01*
X158790618Y-78349761D01*
X158789391Y-78349500D01*
X158610609Y-78349500D01*
X158609382Y-78349761D01*
X158609380Y-78349761D01*
X158486891Y-78375797D01*
X158435733Y-78386671D01*
X158366555Y-78417471D01*
X158273557Y-78458876D01*
X158273554Y-78458878D01*
X158272408Y-78459388D01*
X158271391Y-78460127D01*
X158271389Y-78460128D01*
X158154689Y-78544916D01*
X158140582Y-78549500D01*
X157209418Y-78549500D01*
X157195311Y-78544916D01*
X157078612Y-78460128D01*
X157078610Y-78460127D01*
X157077593Y-78459388D01*
X156914267Y-78386671D01*
X156863109Y-78375797D01*
X156740620Y-78349761D01*
X156740618Y-78349761D01*
X156739391Y-78349500D01*
X156560609Y-78349500D01*
X156559382Y-78349761D01*
X156559380Y-78349761D01*
X156436891Y-78375797D01*
X156385733Y-78386671D01*
X156316555Y-78417471D01*
X156223557Y-78458876D01*
X156223554Y-78458878D01*
X156222408Y-78459388D01*
X156221391Y-78460127D01*
X156221389Y-78460128D01*
X156104689Y-78544916D01*
X156090582Y-78549500D01*
X155882286Y-78549500D01*
X155865315Y-78542471D01*
X155531098Y-78208254D01*
X155524069Y-78191283D01*
X155531098Y-78174312D01*
X155548069Y-78167283D01*
X155551823Y-78167578D01*
X155623137Y-78178873D01*
X155625000Y-78179168D01*
X155742169Y-78160610D01*
X155747615Y-78157835D01*
X155846186Y-78107611D01*
X155846188Y-78107609D01*
X155847869Y-78106753D01*
X155931753Y-78022869D01*
X155933501Y-78019440D01*
X155984752Y-77918853D01*
X155985610Y-77917169D01*
X156002584Y-77810000D01*
X156003873Y-77801863D01*
X156004168Y-77800000D01*
X155985610Y-77682831D01*
X155984752Y-77681147D01*
X155932611Y-77578814D01*
X155932609Y-77578812D01*
X155931753Y-77577131D01*
X155847869Y-77493247D01*
X155846188Y-77492391D01*
X155846186Y-77492389D01*
X155743850Y-77440246D01*
X155743847Y-77440245D01*
X155742169Y-77439390D01*
X155741656Y-77439309D01*
X155728114Y-77427739D01*
X155725500Y-77416847D01*
X155725500Y-76032858D01*
X155732529Y-76015887D01*
X155738604Y-76011474D01*
X155746186Y-76007611D01*
X155746188Y-76007610D01*
X155747869Y-76006753D01*
X155831753Y-75922869D01*
X155833080Y-75920266D01*
X155884752Y-75818853D01*
X155885610Y-75817169D01*
X155903778Y-75702465D01*
X155903873Y-75701863D01*
X155904168Y-75700000D01*
X155885610Y-75582831D01*
X155872155Y-75556424D01*
X155832611Y-75478814D01*
X155832609Y-75478812D01*
X155831753Y-75477131D01*
X155747869Y-75393247D01*
X155746188Y-75392391D01*
X155746186Y-75392389D01*
X155643853Y-75340248D01*
X155642169Y-75339390D01*
X155525000Y-75320832D01*
X155407831Y-75339390D01*
X155406147Y-75340248D01*
X155303814Y-75392389D01*
X155303812Y-75392391D01*
X155302131Y-75393247D01*
X155218247Y-75477131D01*
X155217391Y-75478812D01*
X155217389Y-75478814D01*
X155177845Y-75556424D01*
X155164390Y-75582831D01*
X155145832Y-75700000D01*
X155146127Y-75701863D01*
X155146222Y-75702465D01*
X155164390Y-75817169D01*
X155165248Y-75818853D01*
X155216921Y-75920266D01*
X155218247Y-75922869D01*
X155302131Y-76006753D01*
X155303812Y-76007610D01*
X155303814Y-76007611D01*
X155311396Y-76011474D01*
X155323326Y-76025442D01*
X155324500Y-76032858D01*
X155324500Y-77561228D01*
X155319918Y-77575333D01*
X155319581Y-77575797D01*
X155318247Y-77577131D01*
X155317391Y-77578812D01*
X155317389Y-77578814D01*
X155265248Y-77681147D01*
X155264390Y-77682831D01*
X155245832Y-77800000D01*
X155246127Y-77801863D01*
X155257422Y-77873177D01*
X155253133Y-77891038D01*
X155237471Y-77900636D01*
X155219610Y-77896347D01*
X155216746Y-77893902D01*
X153170368Y-75847524D01*
X153167384Y-75843886D01*
X153164232Y-75839168D01*
X153154723Y-75824937D01*
X153096124Y-75785783D01*
X153071863Y-75769572D01*
X152986132Y-75752519D01*
X152976440Y-75750591D01*
X152974122Y-75750130D01*
X152971804Y-75750591D01*
X152964062Y-75752131D01*
X152955602Y-75753814D01*
X152951766Y-75754577D01*
X152947084Y-75755038D01*
X147795411Y-75755038D01*
X147777229Y-75746704D01*
X147754936Y-75720832D01*
X147704731Y-75662566D01*
X147606795Y-75599088D01*
X147597876Y-75593307D01*
X147597875Y-75593307D01*
X147596444Y-75592379D01*
X147472811Y-75555404D01*
X147410539Y-75555024D01*
X147345479Y-75554626D01*
X147345476Y-75554626D01*
X147343769Y-75554616D01*
X147342126Y-75555086D01*
X147342123Y-75555086D01*
X147245046Y-75582831D01*
X147219693Y-75590077D01*
X147110557Y-75658937D01*
X147109429Y-75660215D01*
X147109427Y-75660216D01*
X147026265Y-75754379D01*
X147025134Y-75755660D01*
X147024409Y-75757205D01*
X147024408Y-75757206D01*
X147020552Y-75765419D01*
X146970292Y-75872470D01*
X146962237Y-75924203D01*
X146952088Y-75989390D01*
X146950439Y-75999978D01*
X146967171Y-76127932D01*
X146967859Y-76129495D01*
X146967861Y-76129503D01*
X146981268Y-76159972D01*
X146981669Y-76178336D01*
X146976272Y-76186609D01*
X146123717Y-77039165D01*
X145364540Y-77798342D01*
X145347569Y-77805371D01*
X145330598Y-77798342D01*
X145323569Y-77781371D01*
X145324796Y-77773795D01*
X145366920Y-77647165D01*
X145375421Y-77621610D01*
X145390784Y-77500000D01*
X145399807Y-77428581D01*
X145399807Y-77428575D01*
X145399889Y-77427929D01*
X145400138Y-77410091D01*
X145400270Y-77400674D01*
X145400270Y-77400667D01*
X145400279Y-77400000D01*
X145400212Y-77399309D01*
X145381344Y-77206885D01*
X145381229Y-77205711D01*
X145324804Y-77018823D01*
X145233154Y-76846454D01*
X145232418Y-76845552D01*
X145232415Y-76845547D01*
X145110510Y-76696077D01*
X145110507Y-76696074D01*
X145109769Y-76695169D01*
X144984549Y-76591578D01*
X144960257Y-76571482D01*
X144960256Y-76571481D01*
X144959349Y-76570731D01*
X144787624Y-76477880D01*
X144669852Y-76441423D01*
X144602256Y-76420498D01*
X144602253Y-76420497D01*
X144601134Y-76420151D01*
X144599970Y-76420029D01*
X144599967Y-76420028D01*
X144424223Y-76401557D01*
X144406983Y-76399745D01*
X144405818Y-76399851D01*
X144213741Y-76417332D01*
X144213740Y-76417332D01*
X144212566Y-76417439D01*
X144025289Y-76472557D01*
X143954683Y-76509469D01*
X143853322Y-76562459D01*
X143853319Y-76562461D01*
X143852284Y-76563002D01*
X143700141Y-76685328D01*
X143574656Y-76834875D01*
X143574090Y-76835905D01*
X143574087Y-76835909D01*
X143483922Y-76999920D01*
X143480608Y-77005948D01*
X143480254Y-77007063D01*
X143480253Y-77007066D01*
X143455613Y-77084743D01*
X143421579Y-77192030D01*
X143421448Y-77193199D01*
X143421447Y-77193203D01*
X143411256Y-77284068D01*
X143399819Y-77386034D01*
X143400992Y-77400000D01*
X143416154Y-77580570D01*
X143469964Y-77768227D01*
X143470501Y-77769272D01*
X143472036Y-77772259D01*
X143559199Y-77941859D01*
X143559927Y-77942778D01*
X143559928Y-77942779D01*
X143644514Y-78049500D01*
X143680460Y-78094852D01*
X143829127Y-78221378D01*
X143882262Y-78251074D01*
X143998511Y-78316044D01*
X143998515Y-78316046D01*
X143999539Y-78316618D01*
X144000657Y-78316981D01*
X144000661Y-78316983D01*
X144184084Y-78376581D01*
X144184086Y-78376581D01*
X144185205Y-78376945D01*
X144379052Y-78400060D01*
X144380223Y-78399970D01*
X144380227Y-78399970D01*
X144468137Y-78393205D01*
X144573697Y-78385083D01*
X144761725Y-78332584D01*
X144766550Y-78330147D01*
X144784865Y-78328769D01*
X144798792Y-78340747D01*
X144800170Y-78359064D01*
X144794341Y-78368540D01*
X142420410Y-80742471D01*
X142403439Y-80749500D01*
X140245596Y-80749500D01*
X140228625Y-80742471D01*
X140224212Y-80736396D01*
X140207611Y-80703814D01*
X140207609Y-80703812D01*
X140206753Y-80702131D01*
X140122869Y-80618247D01*
X140121188Y-80617391D01*
X140121186Y-80617389D01*
X140018853Y-80565248D01*
X140017169Y-80564390D01*
X139900000Y-80545832D01*
X139782831Y-80564390D01*
X139781147Y-80565248D01*
X139678814Y-80617389D01*
X139678812Y-80617391D01*
X139677131Y-80618247D01*
X139593247Y-80702131D01*
X139592391Y-80703812D01*
X139592389Y-80703814D01*
X139544329Y-80798137D01*
X139539390Y-80807831D01*
X139520832Y-80925000D01*
X139521127Y-80926863D01*
X139522078Y-80932869D01*
X139539390Y-81042169D01*
X139540248Y-81043853D01*
X139589364Y-81140248D01*
X139593247Y-81147869D01*
X139677131Y-81231753D01*
X139678812Y-81232609D01*
X139678814Y-81232611D01*
X139771821Y-81280000D01*
X139782831Y-81285610D01*
X139878603Y-81300779D01*
X139897904Y-81303836D01*
X139900000Y-81304168D01*
X139902097Y-81303836D01*
X139921397Y-81300779D01*
X140017169Y-81285610D01*
X140028179Y-81280000D01*
X140121186Y-81232611D01*
X140121188Y-81232609D01*
X140122869Y-81231753D01*
X140206753Y-81147869D01*
X140211074Y-81139390D01*
X140224212Y-81113604D01*
X140238180Y-81101675D01*
X140245596Y-81100500D01*
X142467031Y-81100500D01*
X142471528Y-81100925D01*
X142495536Y-81105505D01*
X142498315Y-81104666D01*
X142531821Y-81094550D01*
X142533033Y-81094219D01*
X142566997Y-81085876D01*
X142569818Y-81085183D01*
X142571996Y-81083263D01*
X142573805Y-81082317D01*
X142574015Y-81082231D01*
X142574014Y-81082229D01*
X142575973Y-81081218D01*
X142578086Y-81080580D01*
X142579829Y-81079228D01*
X142579831Y-81079227D01*
X142580186Y-81078951D01*
X142580778Y-81078492D01*
X142605347Y-81053923D01*
X142606446Y-81052891D01*
X142612528Y-81047529D01*
X142634500Y-81028158D01*
X142635540Y-81025448D01*
X142637198Y-81023063D01*
X142637485Y-81023262D01*
X142640217Y-81019053D01*
X147224734Y-76434537D01*
X147241705Y-76427508D01*
X147248859Y-76428599D01*
X147294657Y-76442908D01*
X147331141Y-76454307D01*
X147331143Y-76454307D01*
X147332771Y-76454816D01*
X147393543Y-76455930D01*
X147460084Y-76457150D01*
X147460086Y-76457150D01*
X147461793Y-76457181D01*
X147566626Y-76428600D01*
X147584647Y-76423687D01*
X147584649Y-76423686D01*
X147586293Y-76423238D01*
X147696262Y-76355717D01*
X147697931Y-76353873D01*
X147779342Y-76263932D01*
X147797135Y-76256038D01*
X152860420Y-76256038D01*
X152877391Y-76263067D01*
X155572338Y-78958014D01*
X155575322Y-78961652D01*
X155587983Y-78980601D01*
X155628723Y-79007822D01*
X155670843Y-79035966D01*
X155673163Y-79036427D01*
X155673164Y-79036428D01*
X155766266Y-79054947D01*
X155768584Y-79055408D01*
X155778940Y-79053348D01*
X155796956Y-79056932D01*
X155807161Y-79072205D01*
X155807491Y-79079395D01*
X155794815Y-79200000D01*
X155794946Y-79201246D01*
X155813371Y-79376552D01*
X155813372Y-79376557D01*
X155813503Y-79377803D01*
X155813893Y-79379002D01*
X155813893Y-79379004D01*
X155838062Y-79453388D01*
X155868750Y-79547835D01*
X155869378Y-79548923D01*
X155869379Y-79548925D01*
X155924848Y-79644999D01*
X155958141Y-79702665D01*
X156077770Y-79835526D01*
X156078790Y-79836267D01*
X156078791Y-79836268D01*
X156090810Y-79845000D01*
X156222407Y-79940612D01*
X156385733Y-80013329D01*
X156386961Y-80013590D01*
X156559380Y-80050239D01*
X156559382Y-80050239D01*
X156560609Y-80050500D01*
X156739391Y-80050500D01*
X156740618Y-80050239D01*
X156740620Y-80050239D01*
X156913039Y-80013590D01*
X156914267Y-80013329D01*
X157077593Y-79940612D01*
X157209191Y-79845000D01*
X157221209Y-79836268D01*
X157221210Y-79836267D01*
X157222230Y-79835526D01*
X157341859Y-79702665D01*
X157375153Y-79644999D01*
X157430621Y-79548925D01*
X157430622Y-79548923D01*
X157431250Y-79547835D01*
X157461938Y-79453388D01*
X157486107Y-79379004D01*
X157486107Y-79379002D01*
X157486497Y-79377803D01*
X157486628Y-79376557D01*
X157486629Y-79376552D01*
X157505054Y-79201246D01*
X157505185Y-79200000D01*
X157492258Y-79077009D01*
X157497475Y-79059396D01*
X157513618Y-79050631D01*
X157516127Y-79050500D01*
X157833873Y-79050500D01*
X157850844Y-79057529D01*
X157857873Y-79074500D01*
X157857742Y-79077005D01*
X157844815Y-79200000D01*
X157844946Y-79201246D01*
X157863371Y-79376552D01*
X157863372Y-79376557D01*
X157863503Y-79377803D01*
X157863893Y-79379002D01*
X157863893Y-79379004D01*
X157888062Y-79453388D01*
X157918750Y-79547835D01*
X157919378Y-79548923D01*
X157919379Y-79548925D01*
X157974848Y-79644999D01*
X158008141Y-79702665D01*
X158127770Y-79835526D01*
X158128790Y-79836267D01*
X158128791Y-79836268D01*
X158140810Y-79845000D01*
X158272407Y-79940612D01*
X158273553Y-79941122D01*
X158273556Y-79941124D01*
X158417946Y-80005410D01*
X158430590Y-80018734D01*
X158430109Y-80037097D01*
X158416785Y-80049741D01*
X158411980Y-80051033D01*
X144932818Y-82207699D01*
X144914951Y-82203439D01*
X144905328Y-82187792D01*
X144907643Y-82173104D01*
X144907906Y-82172589D01*
X144925953Y-82137169D01*
X144942064Y-82035452D01*
X144944216Y-82021863D01*
X144944511Y-82020000D01*
X144925953Y-81902831D01*
X144919542Y-81890248D01*
X144872954Y-81798814D01*
X144872952Y-81798812D01*
X144872096Y-81797131D01*
X144788212Y-81713247D01*
X144786531Y-81712391D01*
X144786529Y-81712389D01*
X144753947Y-81695788D01*
X144742018Y-81681820D01*
X144740843Y-81674404D01*
X144740843Y-80472651D01*
X144747872Y-80455680D01*
X144988646Y-80214907D01*
X145005617Y-80207878D01*
X145009371Y-80208173D01*
X145110358Y-80224168D01*
X145227527Y-80205610D01*
X145257677Y-80190248D01*
X145331544Y-80152611D01*
X145331546Y-80152609D01*
X145333227Y-80151753D01*
X145417111Y-80067869D01*
X145425575Y-80051259D01*
X145470110Y-79963853D01*
X145470968Y-79962169D01*
X145489526Y-79845000D01*
X145470968Y-79727831D01*
X145458145Y-79702665D01*
X145417969Y-79623814D01*
X145417967Y-79623812D01*
X145417111Y-79622131D01*
X145333227Y-79538247D01*
X145331546Y-79537391D01*
X145331544Y-79537389D01*
X145229211Y-79485248D01*
X145227527Y-79484390D01*
X145110358Y-79465832D01*
X144993189Y-79484390D01*
X144991505Y-79485248D01*
X144889172Y-79537389D01*
X144889170Y-79537391D01*
X144887489Y-79538247D01*
X144803605Y-79622131D01*
X144802749Y-79623812D01*
X144802747Y-79623814D01*
X144762571Y-79702665D01*
X144749748Y-79727831D01*
X144731190Y-79845000D01*
X144731485Y-79846863D01*
X144747185Y-79945987D01*
X144742896Y-79963848D01*
X144740451Y-79966712D01*
X144454708Y-80252455D01*
X144451227Y-80255334D01*
X144431018Y-80269068D01*
X144429645Y-80271629D01*
X144429644Y-80271630D01*
X144413117Y-80302453D01*
X144412495Y-80303544D01*
X144392862Y-80335963D01*
X144392680Y-80338861D01*
X144392069Y-80340810D01*
X144391981Y-80341021D01*
X144391982Y-80341021D01*
X144391311Y-80343122D01*
X144390270Y-80345064D01*
X144389843Y-80348444D01*
X144389843Y-80383192D01*
X144389796Y-80384699D01*
X144387871Y-80415304D01*
X144387448Y-80422023D01*
X144388630Y-80424677D01*
X144389144Y-80427534D01*
X144388800Y-80427596D01*
X144389843Y-80432504D01*
X144389843Y-81674404D01*
X144382814Y-81691375D01*
X144376739Y-81695788D01*
X144344157Y-81712389D01*
X144344155Y-81712391D01*
X144342474Y-81713247D01*
X144258590Y-81797131D01*
X144257734Y-81798812D01*
X144257732Y-81798814D01*
X144211144Y-81890248D01*
X144204733Y-81902831D01*
X144186175Y-82020000D01*
X144186470Y-82021863D01*
X144188622Y-82035452D01*
X144204733Y-82137169D01*
X144205591Y-82138853D01*
X144255616Y-82237032D01*
X144258590Y-82242869D01*
X144288025Y-82272304D01*
X144295054Y-82289275D01*
X144288025Y-82306246D01*
X144274846Y-82312974D01*
X142948362Y-82525212D01*
X142930494Y-82520952D01*
X142920871Y-82505305D01*
X142923186Y-82490617D01*
X142927266Y-82482611D01*
X142960610Y-82417169D01*
X142979168Y-82300000D01*
X142977307Y-82288247D01*
X142971070Y-82248873D01*
X142960610Y-82182831D01*
X142955587Y-82172973D01*
X142907611Y-82078814D01*
X142907609Y-82078812D01*
X142906753Y-82077131D01*
X142822869Y-81993247D01*
X142821188Y-81992391D01*
X142821186Y-81992389D01*
X142718853Y-81940248D01*
X142717169Y-81939390D01*
X142600000Y-81920832D01*
X142598137Y-81921127D01*
X142598132Y-81921127D01*
X142505172Y-81935851D01*
X142487310Y-81931563D01*
X142477713Y-81915902D01*
X142482001Y-81898040D01*
X142484446Y-81895176D01*
X142498197Y-81881425D01*
X142499498Y-81878873D01*
X142551196Y-81777409D01*
X142552054Y-81775725D01*
X142570612Y-81658556D01*
X142552054Y-81541387D01*
X142549261Y-81535905D01*
X142499055Y-81437370D01*
X142499053Y-81437368D01*
X142498197Y-81435687D01*
X142414313Y-81351803D01*
X142412632Y-81350947D01*
X142412630Y-81350945D01*
X142310297Y-81298804D01*
X142308613Y-81297946D01*
X142191444Y-81279388D01*
X142074275Y-81297946D01*
X142072591Y-81298804D01*
X141970258Y-81350945D01*
X141970256Y-81350947D01*
X141968575Y-81351803D01*
X141884691Y-81435687D01*
X141883835Y-81437368D01*
X141883833Y-81437370D01*
X141875962Y-81452819D01*
X141867608Y-81469215D01*
X141867232Y-81469952D01*
X141853264Y-81481881D01*
X141845848Y-81483056D01*
X139810485Y-81483056D01*
X139805988Y-81482631D01*
X139784836Y-81478596D01*
X139781984Y-81478052D01*
X139779205Y-81478891D01*
X139745710Y-81489004D01*
X139744498Y-81489335D01*
X139710523Y-81497680D01*
X139707702Y-81498373D01*
X139705524Y-81500293D01*
X139703715Y-81501239D01*
X139703505Y-81501325D01*
X139703506Y-81501327D01*
X139701547Y-81502338D01*
X139699434Y-81502976D01*
X139697691Y-81504328D01*
X139697689Y-81504329D01*
X139697429Y-81504531D01*
X139696742Y-81505064D01*
X139672173Y-81529633D01*
X139671074Y-81530665D01*
X139643020Y-81555398D01*
X139641980Y-81558108D01*
X139640322Y-81560493D01*
X139640035Y-81560294D01*
X139637303Y-81564503D01*
X139321712Y-81880093D01*
X139304741Y-81887122D01*
X139300987Y-81886827D01*
X139201863Y-81871127D01*
X139200000Y-81870832D01*
X139198137Y-81871127D01*
X139192594Y-81872005D01*
X139082831Y-81889390D01*
X139081147Y-81890248D01*
X138978814Y-81942389D01*
X138978812Y-81942391D01*
X138977131Y-81943247D01*
X138893247Y-82027131D01*
X138892391Y-82028812D01*
X138892389Y-82028814D01*
X138841360Y-82128964D01*
X138839390Y-82132831D01*
X138827071Y-82210610D01*
X138822295Y-82240766D01*
X138820832Y-82250000D01*
X138839390Y-82367169D01*
X138840248Y-82368853D01*
X138885344Y-82457358D01*
X138893247Y-82472869D01*
X138953907Y-82533529D01*
X138960936Y-82550500D01*
X138953907Y-82567471D01*
X138936936Y-82574500D01*
X138782636Y-82574500D01*
X138765665Y-82567471D01*
X138182529Y-81984334D01*
X138175500Y-81967363D01*
X138175500Y-81532636D01*
X138182529Y-81515665D01*
X138571158Y-81127036D01*
X138588129Y-81120007D01*
X138592809Y-81120748D01*
X138592831Y-81120610D01*
X138673457Y-81133380D01*
X138710000Y-81139168D01*
X138827169Y-81120610D01*
X138866637Y-81100500D01*
X138931186Y-81067611D01*
X138931188Y-81067609D01*
X138932869Y-81066753D01*
X139016753Y-80982869D01*
X139018169Y-80980091D01*
X139069752Y-80878853D01*
X139070610Y-80877169D01*
X139089168Y-80760000D01*
X139088276Y-80754365D01*
X139081641Y-80712475D01*
X139070610Y-80642831D01*
X139064542Y-80630921D01*
X139017611Y-80538814D01*
X139017609Y-80538812D01*
X139016753Y-80537131D01*
X138932869Y-80453247D01*
X138931188Y-80452391D01*
X138931186Y-80452389D01*
X138898604Y-80435788D01*
X138886675Y-80421820D01*
X138885500Y-80414404D01*
X138885500Y-76459046D01*
X138885925Y-76454549D01*
X138886250Y-76452848D01*
X138888904Y-76438933D01*
X138889961Y-76433392D01*
X138890505Y-76430540D01*
X138888300Y-76423238D01*
X138879548Y-76394248D01*
X138879217Y-76393036D01*
X138870876Y-76359080D01*
X138870183Y-76356258D01*
X138868262Y-76354079D01*
X138867317Y-76352271D01*
X138867231Y-76352061D01*
X138867230Y-76352061D01*
X138866219Y-76350103D01*
X138865581Y-76347990D01*
X138863492Y-76345298D01*
X138838915Y-76320721D01*
X138837883Y-76319621D01*
X138815079Y-76293755D01*
X138813158Y-76291576D01*
X138810447Y-76290535D01*
X138808063Y-76288878D01*
X138808262Y-76288591D01*
X138804055Y-76285860D01*
X138707560Y-76189365D01*
X138704681Y-76185884D01*
X138692580Y-76168078D01*
X138690947Y-76165675D01*
X138688386Y-76164302D01*
X138688385Y-76164301D01*
X138657562Y-76147774D01*
X138656471Y-76147152D01*
X138626537Y-76129024D01*
X138624052Y-76127519D01*
X138621154Y-76127337D01*
X138619205Y-76126726D01*
X138618994Y-76126638D01*
X138618994Y-76126639D01*
X138616893Y-76125968D01*
X138614951Y-76124927D01*
X138611571Y-76124500D01*
X138576823Y-76124500D01*
X138575316Y-76124453D01*
X138540892Y-76122287D01*
X138540890Y-76122287D01*
X138537992Y-76122105D01*
X138535338Y-76123287D01*
X138532481Y-76123801D01*
X138532419Y-76123457D01*
X138527511Y-76124500D01*
X138068736Y-76124500D01*
X138051765Y-76117471D01*
X138049791Y-76112704D01*
X138045371Y-76119916D01*
X138031264Y-76124500D01*
X137532636Y-76124500D01*
X137515665Y-76117471D01*
X137444907Y-76046713D01*
X137437878Y-76029742D01*
X137438173Y-76025988D01*
X137453873Y-75926863D01*
X137454168Y-75925000D01*
X137453831Y-75922869D01*
X137445603Y-75870923D01*
X137435610Y-75807831D01*
X137426988Y-75790909D01*
X137382611Y-75703814D01*
X137382609Y-75703812D01*
X137381753Y-75702131D01*
X137379622Y-75700000D01*
X137670832Y-75700000D01*
X137671127Y-75701863D01*
X137671222Y-75702465D01*
X137689390Y-75817169D01*
X137690248Y-75818853D01*
X137741921Y-75920266D01*
X137743247Y-75922869D01*
X137827131Y-76006753D01*
X137828812Y-76007609D01*
X137828814Y-76007611D01*
X137907839Y-76047876D01*
X137932831Y-76060610D01*
X138035018Y-76076795D01*
X138050599Y-76086344D01*
X138051765Y-76083529D01*
X138064982Y-76076795D01*
X138167169Y-76060610D01*
X138192161Y-76047876D01*
X138271186Y-76007611D01*
X138271188Y-76007609D01*
X138272869Y-76006753D01*
X138304622Y-75975000D01*
X139245832Y-75975000D01*
X139264390Y-76092169D01*
X139265248Y-76093853D01*
X139317367Y-76196141D01*
X139318247Y-76197869D01*
X139402131Y-76281753D01*
X139403812Y-76282609D01*
X139403814Y-76282611D01*
X139501994Y-76332636D01*
X139507831Y-76335610D01*
X139598685Y-76350000D01*
X139609936Y-76351782D01*
X139625000Y-76354168D01*
X139636978Y-76352271D01*
X139725988Y-76338173D01*
X139743849Y-76342462D01*
X139746713Y-76344907D01*
X140929912Y-77528107D01*
X142112440Y-78710635D01*
X142115319Y-78714116D01*
X142129053Y-78734325D01*
X142131614Y-78735698D01*
X142131615Y-78735699D01*
X142162438Y-78752226D01*
X142163529Y-78752848D01*
X142171508Y-78757680D01*
X142195948Y-78772481D01*
X142198846Y-78772663D01*
X142200795Y-78773274D01*
X142201006Y-78773362D01*
X142201006Y-78773361D01*
X142203107Y-78774032D01*
X142205049Y-78775073D01*
X142208429Y-78775500D01*
X142243169Y-78775500D01*
X142244676Y-78775547D01*
X142279109Y-78777714D01*
X142279111Y-78777714D01*
X142282008Y-78777896D01*
X142284662Y-78776714D01*
X142287519Y-78776200D01*
X142287581Y-78776544D01*
X142292491Y-78775500D01*
X142879404Y-78775500D01*
X142896375Y-78782529D01*
X142900788Y-78788604D01*
X142917170Y-78820755D01*
X142918247Y-78822869D01*
X143002131Y-78906753D01*
X143003812Y-78907609D01*
X143003814Y-78907611D01*
X143102579Y-78957934D01*
X143107831Y-78960610D01*
X143225000Y-78979168D01*
X143342169Y-78960610D01*
X143347421Y-78957934D01*
X143446186Y-78907611D01*
X143446188Y-78907609D01*
X143447869Y-78906753D01*
X143531753Y-78822869D01*
X143532831Y-78820755D01*
X143584752Y-78718853D01*
X143585610Y-78717169D01*
X143604168Y-78600000D01*
X143585610Y-78482831D01*
X143563476Y-78439390D01*
X143532611Y-78378814D01*
X143532609Y-78378812D01*
X143531753Y-78377131D01*
X143447869Y-78293247D01*
X143446188Y-78292391D01*
X143446186Y-78292389D01*
X143343853Y-78240248D01*
X143342169Y-78239390D01*
X143232065Y-78221951D01*
X143226863Y-78221127D01*
X143225000Y-78220832D01*
X143223137Y-78221127D01*
X143217935Y-78221951D01*
X143107831Y-78239390D01*
X143106147Y-78240248D01*
X143003814Y-78292389D01*
X143003812Y-78292391D01*
X143002131Y-78293247D01*
X142918247Y-78377131D01*
X142917391Y-78378812D01*
X142917389Y-78378814D01*
X142900788Y-78411396D01*
X142886820Y-78423325D01*
X142879404Y-78424500D01*
X142332637Y-78424500D01*
X142315666Y-78417471D01*
X139994907Y-76096712D01*
X139987878Y-76079741D01*
X139988173Y-76075987D01*
X140003873Y-75976863D01*
X140004168Y-75975000D01*
X139985610Y-75857831D01*
X139976101Y-75839168D01*
X139932611Y-75753814D01*
X139932609Y-75753812D01*
X139931753Y-75752131D01*
X139847869Y-75668247D01*
X139846188Y-75667391D01*
X139846186Y-75667389D01*
X139743853Y-75615248D01*
X139742169Y-75614390D01*
X139625000Y-75595832D01*
X139507831Y-75614390D01*
X139506147Y-75615248D01*
X139403814Y-75667389D01*
X139403812Y-75667391D01*
X139402131Y-75668247D01*
X139318247Y-75752131D01*
X139317391Y-75753812D01*
X139317389Y-75753814D01*
X139273899Y-75839168D01*
X139264390Y-75857831D01*
X139245832Y-75975000D01*
X138304622Y-75975000D01*
X138356753Y-75922869D01*
X138358080Y-75920266D01*
X138409752Y-75818853D01*
X138410610Y-75817169D01*
X138428778Y-75702465D01*
X138428873Y-75701863D01*
X138429168Y-75700000D01*
X138410610Y-75582831D01*
X138397155Y-75556424D01*
X138357611Y-75478814D01*
X138357609Y-75478812D01*
X138356753Y-75477131D01*
X138272869Y-75393247D01*
X138271188Y-75392391D01*
X138271186Y-75392389D01*
X138168853Y-75340248D01*
X138167169Y-75339390D01*
X138050000Y-75320832D01*
X137932831Y-75339390D01*
X137931147Y-75340248D01*
X137828814Y-75392389D01*
X137828812Y-75392391D01*
X137827131Y-75393247D01*
X137743247Y-75477131D01*
X137742391Y-75478812D01*
X137742389Y-75478814D01*
X137702845Y-75556424D01*
X137689390Y-75582831D01*
X137670832Y-75700000D01*
X137379622Y-75700000D01*
X137297869Y-75618247D01*
X137296188Y-75617391D01*
X137296186Y-75617389D01*
X137193853Y-75565248D01*
X137192169Y-75564390D01*
X137075000Y-75545832D01*
X136957831Y-75564390D01*
X136956147Y-75565248D01*
X136853814Y-75617389D01*
X136853812Y-75617391D01*
X136852131Y-75618247D01*
X136768247Y-75702131D01*
X136767391Y-75703812D01*
X136767389Y-75703814D01*
X136723012Y-75790909D01*
X136714390Y-75807831D01*
X136704397Y-75870923D01*
X136696170Y-75922869D01*
X136695832Y-75925000D01*
X136696127Y-75926863D01*
X136698994Y-75944965D01*
X136714390Y-76042169D01*
X136715248Y-76043853D01*
X136759510Y-76130721D01*
X136768247Y-76147869D01*
X136852131Y-76231753D01*
X136853812Y-76232609D01*
X136853814Y-76232611D01*
X136939724Y-76276384D01*
X136957831Y-76285610D01*
X137075000Y-76304168D01*
X137171126Y-76288943D01*
X137175987Y-76288173D01*
X137193848Y-76292462D01*
X137196712Y-76294907D01*
X137312440Y-76410635D01*
X137315319Y-76414116D01*
X137329053Y-76434325D01*
X137331614Y-76435698D01*
X137331615Y-76435699D01*
X137362438Y-76452226D01*
X137363529Y-76452848D01*
X137376346Y-76460610D01*
X137395948Y-76472481D01*
X137398846Y-76472663D01*
X137400795Y-76473274D01*
X137401006Y-76473362D01*
X137401006Y-76473361D01*
X137403107Y-76474032D01*
X137405049Y-76475073D01*
X137408429Y-76475500D01*
X137443177Y-76475500D01*
X137444684Y-76475547D01*
X137479108Y-76477713D01*
X137479110Y-76477713D01*
X137482008Y-76477895D01*
X137484662Y-76476713D01*
X137487519Y-76476199D01*
X137487581Y-76476543D01*
X137492489Y-76475500D01*
X138487365Y-76475500D01*
X138504336Y-76482530D01*
X138527471Y-76505666D01*
X138534500Y-76522636D01*
X138534500Y-80414404D01*
X138527471Y-80431375D01*
X138521396Y-80435788D01*
X138488814Y-80452389D01*
X138488812Y-80452391D01*
X138487131Y-80453247D01*
X138403247Y-80537131D01*
X138402391Y-80538812D01*
X138402389Y-80538814D01*
X138355458Y-80630921D01*
X138349390Y-80642831D01*
X138338359Y-80712475D01*
X138331725Y-80754365D01*
X138330832Y-80760000D01*
X138331127Y-80761863D01*
X138344092Y-80843722D01*
X138339803Y-80861583D01*
X138337358Y-80864447D01*
X137889365Y-81312440D01*
X137885884Y-81315319D01*
X137865675Y-81329053D01*
X137864302Y-81331614D01*
X137864301Y-81331615D01*
X137847774Y-81362438D01*
X137847152Y-81363529D01*
X137837857Y-81378878D01*
X137827519Y-81395948D01*
X137827337Y-81398846D01*
X137826726Y-81400795D01*
X137826638Y-81401006D01*
X137826639Y-81401006D01*
X137825968Y-81403107D01*
X137824927Y-81405049D01*
X137824500Y-81408429D01*
X137824500Y-81443177D01*
X137824453Y-81444684D01*
X137822320Y-81478596D01*
X137822105Y-81482008D01*
X137823287Y-81484662D01*
X137823801Y-81487519D01*
X137823457Y-81487581D01*
X137824500Y-81492489D01*
X137824500Y-82030955D01*
X137824075Y-82035452D01*
X137819495Y-82059460D01*
X137820334Y-82062239D01*
X137830450Y-82095745D01*
X137830781Y-82096957D01*
X137836118Y-82118684D01*
X137839817Y-82133742D01*
X137841737Y-82135920D01*
X137842683Y-82137729D01*
X137842769Y-82137939D01*
X137842771Y-82137938D01*
X137843782Y-82139897D01*
X137844420Y-82142010D01*
X137846508Y-82144702D01*
X137871077Y-82169271D01*
X137872109Y-82170370D01*
X137896842Y-82198424D01*
X137899552Y-82199464D01*
X137901937Y-82201122D01*
X137901738Y-82201409D01*
X137905947Y-82204141D01*
X138562438Y-82860632D01*
X138565317Y-82864113D01*
X138579053Y-82884325D01*
X138602133Y-82896700D01*
X138612437Y-82902225D01*
X138613529Y-82902847D01*
X138643464Y-82920977D01*
X138643465Y-82920977D01*
X138645948Y-82922481D01*
X138648846Y-82922663D01*
X138650795Y-82923274D01*
X138651006Y-82923362D01*
X138651006Y-82923361D01*
X138653107Y-82924032D01*
X138655049Y-82925073D01*
X138658429Y-82925500D01*
X138693177Y-82925500D01*
X138694684Y-82925547D01*
X138729108Y-82927713D01*
X138729110Y-82927713D01*
X138732008Y-82927895D01*
X138734662Y-82926713D01*
X138737519Y-82926199D01*
X138737581Y-82926543D01*
X138742489Y-82925500D01*
X139580955Y-82925500D01*
X139585452Y-82925925D01*
X139609460Y-82930505D01*
X139615061Y-82928814D01*
X139645745Y-82919550D01*
X139646957Y-82919219D01*
X139680921Y-82910876D01*
X139683742Y-82910183D01*
X139685920Y-82908263D01*
X139687729Y-82907317D01*
X139687939Y-82907231D01*
X139687938Y-82907229D01*
X139689897Y-82906218D01*
X139692010Y-82905580D01*
X139693753Y-82904228D01*
X139693755Y-82904227D01*
X139694110Y-82903951D01*
X139694702Y-82903492D01*
X139719271Y-82878923D01*
X139720370Y-82877891D01*
X139723146Y-82875444D01*
X139748424Y-82853158D01*
X139749464Y-82850448D01*
X139751122Y-82848063D01*
X139751409Y-82848262D01*
X139754141Y-82844053D01*
X139915665Y-82682529D01*
X139932636Y-82675500D01*
X141707150Y-82675500D01*
X141724121Y-82682529D01*
X141731150Y-82699500D01*
X141724121Y-82716471D01*
X141710942Y-82723199D01*
X136124259Y-83617068D01*
X136106391Y-83612808D01*
X136096768Y-83597161D01*
X136101028Y-83579293D01*
X136103977Y-83575931D01*
X136124255Y-83556755D01*
X136125832Y-83554928D01*
X136235490Y-83398321D01*
X136236667Y-83396214D01*
X136312594Y-83220758D01*
X136313324Y-83218459D01*
X136352480Y-83031025D01*
X136352715Y-83029213D01*
X136352983Y-83024103D01*
X136353000Y-83023450D01*
X136353000Y-82858773D01*
X136351602Y-82855398D01*
X136348227Y-82854000D01*
X134451773Y-82854000D01*
X134448398Y-82855398D01*
X134447000Y-82858773D01*
X134447000Y-82977783D01*
X134447061Y-82978991D01*
X134461527Y-83121407D01*
X134462013Y-83123773D01*
X134519185Y-83306210D01*
X134520132Y-83308420D01*
X134612823Y-83475638D01*
X134614195Y-83477611D01*
X134738615Y-83622776D01*
X134740361Y-83624438D01*
X134891419Y-83741611D01*
X134893478Y-83742897D01*
X134915973Y-83753966D01*
X134928097Y-83767765D01*
X134926911Y-83786096D01*
X134913112Y-83798220D01*
X134905377Y-83799500D01*
X128890413Y-83799500D01*
X128873442Y-83792471D01*
X128866413Y-83775500D01*
X128873442Y-83758529D01*
X128877766Y-83755103D01*
X128983433Y-83689587D01*
X128985350Y-83688111D01*
X129124255Y-83556755D01*
X129125832Y-83554928D01*
X129235490Y-83398321D01*
X129236667Y-83396214D01*
X129312594Y-83220758D01*
X129313324Y-83218459D01*
X129352480Y-83031025D01*
X129352715Y-83029213D01*
X129352983Y-83024103D01*
X129353000Y-83023450D01*
X129353000Y-82858773D01*
X129351602Y-82855398D01*
X129348227Y-82854000D01*
X128170000Y-82854000D01*
X128153029Y-82846971D01*
X128146000Y-82830000D01*
X128146000Y-81749980D01*
X128153029Y-81733009D01*
X128170000Y-81725980D01*
X128630000Y-81725980D01*
X128646971Y-81733009D01*
X128654000Y-81749980D01*
X128654000Y-82341227D01*
X128655398Y-82344602D01*
X128658773Y-82346000D01*
X129348227Y-82346000D01*
X129351602Y-82344602D01*
X129353000Y-82341227D01*
X129353000Y-82222217D01*
X129352939Y-82221009D01*
X129338473Y-82078593D01*
X129337987Y-82076227D01*
X129280818Y-81893799D01*
X129279863Y-81891571D01*
X129207827Y-81761615D01*
X129205748Y-81743365D01*
X129217183Y-81728989D01*
X129228818Y-81725980D01*
X134571411Y-81725980D01*
X134588382Y-81733009D01*
X134595411Y-81749980D01*
X134591071Y-81763746D01*
X134564510Y-81801679D01*
X134563333Y-81803786D01*
X134487406Y-81979242D01*
X134486676Y-81981541D01*
X134447520Y-82168975D01*
X134447285Y-82170787D01*
X134447017Y-82175897D01*
X134447000Y-82176550D01*
X134447000Y-82341227D01*
X134448398Y-82344602D01*
X134451773Y-82346000D01*
X135141227Y-82346000D01*
X135144602Y-82344602D01*
X135146000Y-82341227D01*
X135146000Y-81749980D01*
X135153029Y-81733009D01*
X135170000Y-81725980D01*
X135630000Y-81725980D01*
X135646971Y-81733009D01*
X135654000Y-81749980D01*
X135654000Y-82341227D01*
X135655398Y-82344602D01*
X135658773Y-82346000D01*
X136348227Y-82346000D01*
X136351602Y-82344602D01*
X136353000Y-82341227D01*
X136353000Y-82222217D01*
X136352939Y-82221009D01*
X136338473Y-82078593D01*
X136337987Y-82076227D01*
X136280818Y-81893799D01*
X136279863Y-81891571D01*
X136207827Y-81761615D01*
X136205748Y-81743365D01*
X136217183Y-81728989D01*
X136228818Y-81725980D01*
X136855475Y-81725980D01*
X136859972Y-81726405D01*
X136883980Y-81730985D01*
X136890591Y-81728989D01*
X136920265Y-81720030D01*
X136921477Y-81719699D01*
X136955441Y-81711356D01*
X136958262Y-81710663D01*
X136960440Y-81708743D01*
X136962249Y-81707797D01*
X136962459Y-81707711D01*
X136962458Y-81707709D01*
X136964417Y-81706698D01*
X136966530Y-81706060D01*
X136968273Y-81704708D01*
X136968275Y-81704707D01*
X136968630Y-81704431D01*
X136969222Y-81703972D01*
X136993791Y-81679403D01*
X136994890Y-81678371D01*
X137000536Y-81673393D01*
X137022944Y-81653638D01*
X137023984Y-81650928D01*
X137025642Y-81648543D01*
X137025929Y-81648742D01*
X137028661Y-81644533D01*
X137160632Y-81512562D01*
X137164113Y-81509683D01*
X137166391Y-81508135D01*
X137184325Y-81495947D01*
X137202225Y-81462563D01*
X137202847Y-81461471D01*
X137220977Y-81431536D01*
X137220977Y-81431535D01*
X137222481Y-81429052D01*
X137222663Y-81426154D01*
X137223274Y-81424205D01*
X137223362Y-81423994D01*
X137223361Y-81423994D01*
X137224032Y-81421893D01*
X137225073Y-81419951D01*
X137225500Y-81416571D01*
X137225500Y-81381823D01*
X137225547Y-81380316D01*
X137227713Y-81345892D01*
X137227713Y-81345890D01*
X137227895Y-81342992D01*
X137226713Y-81340338D01*
X137226199Y-81337481D01*
X137226543Y-81337419D01*
X137225500Y-81332511D01*
X137225500Y-78887550D01*
X137232529Y-78870579D01*
X137249500Y-78863550D01*
X137253254Y-78863845D01*
X137348137Y-78878873D01*
X137350000Y-78879168D01*
X137467169Y-78860610D01*
X137483743Y-78852165D01*
X137571186Y-78807611D01*
X137571188Y-78807609D01*
X137572869Y-78806753D01*
X137656753Y-78722869D01*
X137658800Y-78718853D01*
X137709752Y-78618853D01*
X137710610Y-78617169D01*
X137729168Y-78500000D01*
X137710610Y-78382831D01*
X137707611Y-78376945D01*
X137657611Y-78278814D01*
X137657609Y-78278812D01*
X137656753Y-78277131D01*
X137572869Y-78193247D01*
X137571188Y-78192391D01*
X137571186Y-78192389D01*
X137493433Y-78152772D01*
X137481504Y-78138804D01*
X137482945Y-78120492D01*
X137491771Y-78110936D01*
X137491999Y-78110796D01*
X137590724Y-78050179D01*
X137600580Y-78039291D01*
X137637830Y-77998137D01*
X137677322Y-77954507D01*
X137733588Y-77838375D01*
X137734792Y-77831223D01*
X137743682Y-77778373D01*
X137754997Y-77711120D01*
X137755133Y-77700000D01*
X137747036Y-77643459D01*
X137737081Y-77573947D01*
X137737080Y-77573945D01*
X137736839Y-77572259D01*
X137683428Y-77454788D01*
X137612653Y-77372649D01*
X137600309Y-77358323D01*
X137600308Y-77358322D01*
X137599193Y-77357028D01*
X137505119Y-77296053D01*
X137492338Y-77287769D01*
X137492337Y-77287769D01*
X137490906Y-77286841D01*
X137367273Y-77249866D01*
X137305001Y-77249486D01*
X137239941Y-77249088D01*
X137239938Y-77249088D01*
X137238231Y-77249078D01*
X137236588Y-77249548D01*
X137236585Y-77249548D01*
X137127426Y-77280746D01*
X137114155Y-77284539D01*
X137005019Y-77353399D01*
X137003891Y-77354677D01*
X137003889Y-77354678D01*
X136922571Y-77446753D01*
X136919596Y-77450122D01*
X136914630Y-77460700D01*
X136901054Y-77473074D01*
X136892905Y-77474500D01*
X133903347Y-77474500D01*
X133886376Y-77467471D01*
X133495749Y-77076844D01*
X133488720Y-77059873D01*
X133489053Y-77055891D01*
X133493974Y-77026639D01*
X133504997Y-76961120D01*
X133505074Y-76954799D01*
X133505122Y-76950934D01*
X133505122Y-76950929D01*
X133505133Y-76950000D01*
X133493678Y-76870011D01*
X133487081Y-76823947D01*
X133487080Y-76823945D01*
X133486839Y-76822259D01*
X133433428Y-76704788D01*
X133352656Y-76611047D01*
X133350309Y-76608323D01*
X133350308Y-76608322D01*
X133349193Y-76607028D01*
X133260275Y-76549395D01*
X133242338Y-76537769D01*
X133242337Y-76537769D01*
X133240906Y-76536841D01*
X133117273Y-76499866D01*
X133055001Y-76499486D01*
X132989941Y-76499088D01*
X132989938Y-76499088D01*
X132988231Y-76499078D01*
X132986588Y-76499548D01*
X132986585Y-76499548D01*
X132883203Y-76529095D01*
X132864155Y-76534539D01*
X132755019Y-76603399D01*
X132753891Y-76604677D01*
X132753889Y-76604678D01*
X132674250Y-76694852D01*
X132669596Y-76700122D01*
X132668871Y-76701667D01*
X132668870Y-76701668D01*
X132661540Y-76717281D01*
X132614754Y-76816932D01*
X132606351Y-76870899D01*
X132598150Y-76923576D01*
X132594901Y-76944440D01*
X132611633Y-77072394D01*
X132663605Y-77190510D01*
X132713499Y-77249866D01*
X132745360Y-77287769D01*
X132746639Y-77289291D01*
X132779493Y-77311160D01*
X132847004Y-77356099D01*
X132854060Y-77360796D01*
X132904885Y-77376675D01*
X132975603Y-77398769D01*
X132975605Y-77398769D01*
X132977233Y-77399278D01*
X133038005Y-77400392D01*
X133104546Y-77401612D01*
X133104548Y-77401612D01*
X133106255Y-77401643D01*
X133107900Y-77401194D01*
X133107904Y-77401194D01*
X133144415Y-77391239D01*
X133152917Y-77388921D01*
X133171138Y-77391239D01*
X133176200Y-77395105D01*
X133635937Y-77854842D01*
X133636801Y-77855754D01*
X133664493Y-77886509D01*
X133681099Y-77893902D01*
X133690337Y-77898015D01*
X133693647Y-77899812D01*
X133694916Y-77900636D01*
X133717382Y-77915226D01*
X133729651Y-77917169D01*
X133732283Y-77917586D01*
X133738292Y-77919366D01*
X133752068Y-77925500D01*
X133780360Y-77925500D01*
X133784114Y-77925795D01*
X133809575Y-77929828D01*
X133809577Y-77929828D01*
X133812065Y-77930222D01*
X133826635Y-77926318D01*
X133832847Y-77925500D01*
X136891341Y-77925500D01*
X136908312Y-77932529D01*
X136911799Y-77937630D01*
X136912015Y-77937496D01*
X136912915Y-77938942D01*
X136913605Y-77940510D01*
X136963612Y-78000000D01*
X136979953Y-78019440D01*
X136996639Y-78039291D01*
X137043931Y-78070771D01*
X137080108Y-78094852D01*
X137104060Y-78110796D01*
X137162470Y-78129045D01*
X137176571Y-78140814D01*
X137178220Y-78159109D01*
X137166208Y-78173336D01*
X137128814Y-78192389D01*
X137128812Y-78192391D01*
X137127131Y-78193247D01*
X137043247Y-78277131D01*
X137042391Y-78278812D01*
X137042389Y-78278814D01*
X136992389Y-78376945D01*
X136989390Y-78382831D01*
X136970832Y-78500000D01*
X136971127Y-78501863D01*
X136986827Y-78600987D01*
X136982538Y-78618848D01*
X136980093Y-78621712D01*
X136939365Y-78662440D01*
X136935884Y-78665319D01*
X136915675Y-78679053D01*
X136914302Y-78681614D01*
X136914301Y-78681615D01*
X136897774Y-78712438D01*
X136897152Y-78713529D01*
X136877519Y-78745948D01*
X136877337Y-78748846D01*
X136876726Y-78750795D01*
X136876638Y-78751006D01*
X136876639Y-78751006D01*
X136875968Y-78753107D01*
X136874927Y-78755049D01*
X136874500Y-78758429D01*
X136874500Y-78793177D01*
X136874453Y-78794684D01*
X136872786Y-78821186D01*
X136872105Y-78832008D01*
X136873287Y-78834662D01*
X136873801Y-78837519D01*
X136873457Y-78837581D01*
X136874500Y-78842489D01*
X136874500Y-81292365D01*
X136867470Y-81309336D01*
X136808854Y-81367951D01*
X136791884Y-81374980D01*
X135745209Y-81374980D01*
X135736219Y-81372887D01*
X135736131Y-81373124D01*
X135732728Y-81371858D01*
X135658620Y-81352554D01*
X135655001Y-81353057D01*
X135652570Y-81356270D01*
X135644726Y-81369968D01*
X135630048Y-81374980D01*
X135170000Y-81374980D01*
X135153029Y-81367951D01*
X135148455Y-81356908D01*
X135147827Y-81357168D01*
X135144602Y-81349382D01*
X135143472Y-81348914D01*
X135076640Y-81373504D01*
X135068353Y-81374980D01*
X128745209Y-81374980D01*
X128736219Y-81372887D01*
X128736131Y-81373124D01*
X128732728Y-81371858D01*
X128658620Y-81352554D01*
X128655001Y-81353057D01*
X128652570Y-81356270D01*
X128644726Y-81369968D01*
X128630048Y-81374980D01*
X128170000Y-81374980D01*
X128153029Y-81367951D01*
X128148455Y-81356908D01*
X128147827Y-81357168D01*
X128144602Y-81349382D01*
X128143472Y-81348914D01*
X128076640Y-81373504D01*
X128068353Y-81374980D01*
X127870339Y-81374980D01*
X127865842Y-81374555D01*
X127844685Y-81370519D01*
X127841833Y-81369975D01*
X127839054Y-81370814D01*
X127839053Y-81370814D01*
X127805542Y-81380931D01*
X127804331Y-81381262D01*
X127794195Y-81383752D01*
X127767550Y-81390297D01*
X127765371Y-81392218D01*
X127763563Y-81393163D01*
X127763351Y-81393250D01*
X127763352Y-81393251D01*
X127761395Y-81394261D01*
X127759282Y-81394899D01*
X127757539Y-81396251D01*
X127757537Y-81396252D01*
X127757277Y-81396454D01*
X127756590Y-81396987D01*
X127732005Y-81421572D01*
X127730920Y-81422590D01*
X127702868Y-81447322D01*
X127701826Y-81450036D01*
X127700170Y-81452419D01*
X127699883Y-81452219D01*
X127697152Y-81456425D01*
X127339365Y-81814212D01*
X127335884Y-81817091D01*
X127315675Y-81830825D01*
X127314302Y-81833386D01*
X127314301Y-81833387D01*
X127297774Y-81864210D01*
X127297152Y-81865301D01*
X127284647Y-81885950D01*
X127277519Y-81897720D01*
X127277337Y-81900618D01*
X127276726Y-81902567D01*
X127276638Y-81902778D01*
X127276639Y-81902778D01*
X127275968Y-81904879D01*
X127274927Y-81906821D01*
X127274500Y-81910201D01*
X127274500Y-81944949D01*
X127274453Y-81946456D01*
X127272864Y-81971718D01*
X127272105Y-81983780D01*
X127273287Y-81986434D01*
X127273801Y-81989291D01*
X127273457Y-81989353D01*
X127274500Y-81994261D01*
X127274500Y-83407123D01*
X127267471Y-83424094D01*
X127194094Y-83497471D01*
X127177123Y-83504500D01*
X121645627Y-83504500D01*
X121628656Y-83497471D01*
X121621922Y-83484254D01*
X121610610Y-83412831D01*
X121608890Y-83409455D01*
X121557611Y-83308814D01*
X121557609Y-83308812D01*
X121556753Y-83307131D01*
X121472869Y-83223247D01*
X121471188Y-83222391D01*
X121471186Y-83222389D01*
X121368853Y-83170248D01*
X121367169Y-83169390D01*
X121269965Y-83153994D01*
X121251863Y-83151127D01*
X121250000Y-83150832D01*
X121248137Y-83151127D01*
X121230035Y-83153994D01*
X121132831Y-83169390D01*
X121131147Y-83170248D01*
X121028814Y-83222389D01*
X121028812Y-83222391D01*
X121027131Y-83223247D01*
X120943247Y-83307131D01*
X120942391Y-83308812D01*
X120942389Y-83308814D01*
X120895964Y-83399929D01*
X120890404Y-83406649D01*
X120889215Y-83407178D01*
X120887412Y-83409452D01*
X120887409Y-83409455D01*
X120879720Y-83419156D01*
X120876784Y-83422250D01*
X120875921Y-83423011D01*
X120871576Y-83426842D01*
X120870535Y-83429554D01*
X120868877Y-83431939D01*
X120868591Y-83431741D01*
X120865859Y-83435947D01*
X120860783Y-83441022D01*
X120860034Y-83442259D01*
X120856360Y-83448326D01*
X120854642Y-83450799D01*
X120845345Y-83462529D01*
X120838908Y-83470651D01*
X120835654Y-83474756D01*
X120835110Y-83477607D01*
X120834302Y-83481843D01*
X120831256Y-83489776D01*
X120829024Y-83493462D01*
X120829023Y-83493464D01*
X120827519Y-83495948D01*
X120825734Y-83524330D01*
X120825601Y-83526446D01*
X120825224Y-83529433D01*
X120819495Y-83559460D01*
X120820334Y-83562238D01*
X120820334Y-83562241D01*
X120821580Y-83566367D01*
X120822558Y-83574812D01*
X120822105Y-83582008D01*
X120830519Y-83600905D01*
X120834535Y-83609926D01*
X120835584Y-83612747D01*
X120844420Y-83642010D01*
X120846508Y-83644702D01*
X120849690Y-83647884D01*
X120854643Y-83655092D01*
X120857178Y-83660785D01*
X120859453Y-83662588D01*
X120882188Y-83680608D01*
X120884251Y-83682446D01*
X120892258Y-83690453D01*
X120899128Y-83704666D01*
X120899821Y-83710656D01*
X120899980Y-83713414D01*
X120899980Y-83721382D01*
X120900326Y-83722790D01*
X120901665Y-83728244D01*
X120902199Y-83731209D01*
X120902940Y-83737611D01*
X120903564Y-83743005D01*
X120905197Y-83745407D01*
X120906209Y-83748129D01*
X120905980Y-83748214D01*
X120907299Y-83751179D01*
X120911452Y-83768084D01*
X120911867Y-83769775D01*
X120909089Y-83787932D01*
X120894285Y-83798807D01*
X120888560Y-83799500D01*
X119831156Y-83799500D01*
X119814185Y-83792471D01*
X119807156Y-83775500D01*
X119814185Y-83758529D01*
X119993773Y-83578941D01*
X120010744Y-83571912D01*
X120021639Y-83574528D01*
X120071144Y-83599751D01*
X120071147Y-83599752D01*
X120072831Y-83600610D01*
X120190000Y-83619168D01*
X120307169Y-83600610D01*
X120334365Y-83586753D01*
X120411186Y-83547611D01*
X120411188Y-83547609D01*
X120412869Y-83546753D01*
X120496753Y-83462869D01*
X120498498Y-83459446D01*
X120549752Y-83358853D01*
X120550610Y-83357169D01*
X120568490Y-83244279D01*
X120568873Y-83241863D01*
X120569168Y-83240000D01*
X120568621Y-83236543D01*
X120560464Y-83185044D01*
X120550610Y-83122831D01*
X120543164Y-83108218D01*
X120497611Y-83018814D01*
X120497609Y-83018812D01*
X120496753Y-83017131D01*
X120412869Y-82933247D01*
X120411188Y-82932391D01*
X120411186Y-82932389D01*
X120308853Y-82880248D01*
X120307169Y-82879390D01*
X120198852Y-82862234D01*
X120191863Y-82861127D01*
X120190000Y-82860832D01*
X120160522Y-82865501D01*
X120142661Y-82861212D01*
X120133063Y-82845551D01*
X120137352Y-82827689D01*
X120139797Y-82824825D01*
X120146753Y-82817869D01*
X120147868Y-82815682D01*
X120199752Y-82713853D01*
X120200610Y-82712169D01*
X120214416Y-82625000D01*
X120845832Y-82625000D01*
X120864390Y-82742169D01*
X120865248Y-82743853D01*
X120917066Y-82845551D01*
X120918247Y-82847869D01*
X121002131Y-82931753D01*
X121003812Y-82932609D01*
X121003814Y-82932611D01*
X121101509Y-82982389D01*
X121107831Y-82985610D01*
X121225000Y-83004168D01*
X121342169Y-82985610D01*
X121348491Y-82982389D01*
X121446186Y-82932611D01*
X121446188Y-82932609D01*
X121447869Y-82931753D01*
X121531753Y-82847869D01*
X121532935Y-82845551D01*
X121584752Y-82743853D01*
X121585610Y-82742169D01*
X121604168Y-82625000D01*
X121603831Y-82622869D01*
X121593591Y-82558219D01*
X121585610Y-82507831D01*
X121580403Y-82497611D01*
X121532611Y-82403814D01*
X121532609Y-82403812D01*
X121531753Y-82402131D01*
X121447869Y-82318247D01*
X121446188Y-82317391D01*
X121446186Y-82317389D01*
X121343853Y-82265248D01*
X121342169Y-82264390D01*
X121239553Y-82248137D01*
X121226863Y-82246127D01*
X121225000Y-82245832D01*
X121223137Y-82246127D01*
X121210447Y-82248137D01*
X121107831Y-82264390D01*
X121106147Y-82265248D01*
X121003814Y-82317389D01*
X121003812Y-82317391D01*
X121002131Y-82318247D01*
X120918247Y-82402131D01*
X120917391Y-82403812D01*
X120917389Y-82403814D01*
X120869597Y-82497611D01*
X120864390Y-82507831D01*
X120856409Y-82558219D01*
X120846170Y-82622869D01*
X120845832Y-82625000D01*
X120214416Y-82625000D01*
X120217524Y-82605377D01*
X120218873Y-82596863D01*
X120219168Y-82595000D01*
X120200610Y-82477831D01*
X120197224Y-82471186D01*
X120147611Y-82373814D01*
X120147609Y-82373812D01*
X120146753Y-82372131D01*
X120062869Y-82288247D01*
X120061188Y-82287391D01*
X120061186Y-82287389D01*
X119958853Y-82235248D01*
X119957169Y-82234390D01*
X119840000Y-82215832D01*
X119722831Y-82234390D01*
X119721147Y-82235248D01*
X119618814Y-82287389D01*
X119618812Y-82287391D01*
X119617131Y-82288247D01*
X119533247Y-82372131D01*
X119532391Y-82373812D01*
X119532389Y-82373814D01*
X119482776Y-82471186D01*
X119479390Y-82477831D01*
X119470239Y-82535610D01*
X119468490Y-82546652D01*
X119458892Y-82562314D01*
X119441031Y-82566603D01*
X119425745Y-82557508D01*
X119399241Y-82522968D01*
X119398282Y-82521718D01*
X119388344Y-82514092D01*
X119359890Y-82492259D01*
X119350705Y-82476351D01*
X119350500Y-82473218D01*
X119350500Y-82175000D01*
X122545832Y-82175000D01*
X122546127Y-82176863D01*
X122546409Y-82178641D01*
X122564390Y-82292169D01*
X122565248Y-82293853D01*
X122616745Y-82394921D01*
X122618247Y-82397869D01*
X122702131Y-82481753D01*
X122703812Y-82482609D01*
X122703814Y-82482611D01*
X122783300Y-82523111D01*
X122807831Y-82535610D01*
X122925000Y-82554168D01*
X123042169Y-82535610D01*
X123066700Y-82523111D01*
X123146186Y-82482611D01*
X123146188Y-82482609D01*
X123147869Y-82481753D01*
X123231753Y-82397869D01*
X123233256Y-82394921D01*
X123284752Y-82293853D01*
X123285610Y-82292169D01*
X123303591Y-82178641D01*
X123303873Y-82176863D01*
X123304168Y-82175000D01*
X123299276Y-82144110D01*
X123288173Y-82074012D01*
X123292462Y-82056151D01*
X123294907Y-82053287D01*
X123315665Y-82032529D01*
X123332636Y-82025500D01*
X126154404Y-82025500D01*
X126171375Y-82032529D01*
X126175788Y-82038604D01*
X126192370Y-82071147D01*
X126193247Y-82072869D01*
X126277131Y-82156753D01*
X126278812Y-82157609D01*
X126278814Y-82157611D01*
X126368757Y-82203439D01*
X126382831Y-82210610D01*
X126500000Y-82229168D01*
X126501863Y-82228873D01*
X126501864Y-82228873D01*
X126525233Y-82225172D01*
X126543094Y-82229461D01*
X126552692Y-82245123D01*
X126548403Y-82262984D01*
X126545963Y-82265842D01*
X126453363Y-82358443D01*
X126337685Y-82474121D01*
X126320714Y-82481150D01*
X126303743Y-82474121D01*
X126222869Y-82393247D01*
X126221188Y-82392391D01*
X126221186Y-82392389D01*
X126118853Y-82340248D01*
X126117169Y-82339390D01*
X126000000Y-82320832D01*
X125882831Y-82339390D01*
X125881147Y-82340248D01*
X125778814Y-82392389D01*
X125778812Y-82392391D01*
X125777131Y-82393247D01*
X125693247Y-82477131D01*
X125692391Y-82478812D01*
X125692389Y-82478814D01*
X125653468Y-82555201D01*
X125639390Y-82582831D01*
X125626519Y-82664092D01*
X125621973Y-82692799D01*
X125620832Y-82700000D01*
X125621127Y-82701863D01*
X125622688Y-82711718D01*
X125639390Y-82817169D01*
X125640248Y-82818853D01*
X125691912Y-82920248D01*
X125693247Y-82922869D01*
X125777131Y-83006753D01*
X125778812Y-83007609D01*
X125778814Y-83007611D01*
X125873385Y-83055797D01*
X125882831Y-83060610D01*
X126000000Y-83079168D01*
X126117169Y-83060610D01*
X126126615Y-83055797D01*
X126221186Y-83007611D01*
X126221188Y-83007609D01*
X126222869Y-83006753D01*
X126306753Y-82922869D01*
X126308089Y-82920248D01*
X126323801Y-82889411D01*
X126337769Y-82877482D01*
X126349682Y-82876732D01*
X126359553Y-82878615D01*
X126369460Y-82880505D01*
X126378118Y-82877891D01*
X126405745Y-82869550D01*
X126406957Y-82869219D01*
X126440921Y-82860876D01*
X126443742Y-82860183D01*
X126445920Y-82858263D01*
X126447729Y-82857317D01*
X126447939Y-82857231D01*
X126447938Y-82857229D01*
X126449897Y-82856218D01*
X126452010Y-82855580D01*
X126453753Y-82854228D01*
X126453755Y-82854227D01*
X126454110Y-82853951D01*
X126454702Y-82853492D01*
X126479271Y-82828923D01*
X126480370Y-82827891D01*
X126483848Y-82824825D01*
X126508424Y-82803158D01*
X126509464Y-82800448D01*
X126511122Y-82798063D01*
X126511409Y-82798262D01*
X126514141Y-82794053D01*
X127130635Y-82177560D01*
X127134116Y-82174681D01*
X127136388Y-82173137D01*
X127154325Y-82160947D01*
X127163101Y-82144581D01*
X127172226Y-82127562D01*
X127172848Y-82126470D01*
X127190977Y-82096536D01*
X127190977Y-82096535D01*
X127192481Y-82094052D01*
X127192663Y-82091154D01*
X127193274Y-82089205D01*
X127193362Y-82088994D01*
X127193361Y-82088994D01*
X127194032Y-82086893D01*
X127195073Y-82084951D01*
X127195500Y-82081571D01*
X127195500Y-82046823D01*
X127195547Y-82045316D01*
X127197713Y-82010892D01*
X127197713Y-82010890D01*
X127197895Y-82007992D01*
X127196713Y-82005338D01*
X127196199Y-82002481D01*
X127196543Y-82002419D01*
X127195500Y-81997511D01*
X127195500Y-81549045D01*
X127195925Y-81544548D01*
X127199961Y-81523392D01*
X127200505Y-81520540D01*
X127198989Y-81515519D01*
X127189550Y-81484255D01*
X127189219Y-81483043D01*
X127180876Y-81449079D01*
X127180183Y-81446258D01*
X127178263Y-81444080D01*
X127177317Y-81442271D01*
X127177231Y-81442061D01*
X127177229Y-81442062D01*
X127176218Y-81440103D01*
X127175580Y-81437990D01*
X127173492Y-81435298D01*
X127148923Y-81410729D01*
X127147891Y-81409630D01*
X127137522Y-81397869D01*
X127123158Y-81381576D01*
X127120448Y-81380536D01*
X127118063Y-81378878D01*
X127118262Y-81378591D01*
X127114053Y-81375859D01*
X126803614Y-81065419D01*
X126492560Y-80754365D01*
X126489681Y-80750884D01*
X126477580Y-80733078D01*
X126475947Y-80730675D01*
X126473386Y-80729302D01*
X126473385Y-80729301D01*
X126442562Y-80712774D01*
X126441471Y-80712152D01*
X126411537Y-80694024D01*
X126409052Y-80692519D01*
X126406154Y-80692337D01*
X126404205Y-80691726D01*
X126403994Y-80691638D01*
X126403994Y-80691639D01*
X126401893Y-80690968D01*
X126399951Y-80689927D01*
X126396571Y-80689500D01*
X126361823Y-80689500D01*
X126360316Y-80689453D01*
X126325892Y-80687287D01*
X126325890Y-80687287D01*
X126322992Y-80687105D01*
X126320338Y-80688287D01*
X126317481Y-80688801D01*
X126317419Y-80688457D01*
X126312511Y-80689500D01*
X125255584Y-80689500D01*
X125238613Y-80682471D01*
X125231584Y-80665500D01*
X125238613Y-80648529D01*
X125247159Y-80643027D01*
X125319860Y-80615772D01*
X125322832Y-80614145D01*
X125436531Y-80528933D01*
X125438933Y-80526531D01*
X125524145Y-80412832D01*
X125525772Y-80409860D01*
X125575725Y-80276614D01*
X125576414Y-80273714D01*
X125582931Y-80213728D01*
X125583000Y-80212443D01*
X125583000Y-80156528D01*
X128296948Y-80156528D01*
X128361509Y-80332000D01*
X128362571Y-80334176D01*
X128466522Y-80501832D01*
X128467998Y-80503749D01*
X128603541Y-80647081D01*
X128605368Y-80648658D01*
X128766968Y-80761812D01*
X128769075Y-80762989D01*
X128950125Y-80841336D01*
X128952425Y-80842066D01*
X129141326Y-80881530D01*
X129144918Y-80880851D01*
X129146000Y-80879265D01*
X129146000Y-80872732D01*
X129654000Y-80872732D01*
X129655398Y-80876107D01*
X129657833Y-80877116D01*
X129747470Y-80868011D01*
X129749836Y-80867525D01*
X129938080Y-80808533D01*
X129940308Y-80807578D01*
X130112839Y-80711942D01*
X130114825Y-80710562D01*
X130264613Y-80582180D01*
X130266275Y-80580434D01*
X130387183Y-80424560D01*
X130388469Y-80422501D01*
X130475563Y-80245503D01*
X130476405Y-80243239D01*
X130498447Y-80158620D01*
X130498156Y-80156528D01*
X133296948Y-80156528D01*
X133361509Y-80332000D01*
X133362571Y-80334176D01*
X133466522Y-80501832D01*
X133467998Y-80503749D01*
X133603541Y-80647081D01*
X133605368Y-80648658D01*
X133766968Y-80761812D01*
X133769075Y-80762989D01*
X133950125Y-80841336D01*
X133952425Y-80842066D01*
X134141326Y-80881530D01*
X134144918Y-80880851D01*
X134146000Y-80879265D01*
X134146000Y-80872732D01*
X134654000Y-80872732D01*
X134655398Y-80876107D01*
X134657833Y-80877116D01*
X134747470Y-80868011D01*
X134749836Y-80867525D01*
X134938080Y-80808533D01*
X134940308Y-80807578D01*
X135112839Y-80711942D01*
X135114825Y-80710562D01*
X135264613Y-80582180D01*
X135266275Y-80580434D01*
X135387183Y-80424560D01*
X135388469Y-80422501D01*
X135475563Y-80245503D01*
X135476405Y-80243239D01*
X135498447Y-80158620D01*
X135497944Y-80155001D01*
X135496622Y-80154000D01*
X134658773Y-80154000D01*
X134655398Y-80155398D01*
X134654000Y-80158773D01*
X134654000Y-80872732D01*
X134146000Y-80872732D01*
X134146000Y-80158773D01*
X134144602Y-80155398D01*
X134141227Y-80154000D01*
X133300791Y-80154000D01*
X133297416Y-80155398D01*
X133296948Y-80156528D01*
X130498156Y-80156528D01*
X130497944Y-80155001D01*
X130496622Y-80154000D01*
X129658773Y-80154000D01*
X129655398Y-80155398D01*
X129654000Y-80158773D01*
X129654000Y-80872732D01*
X129146000Y-80872732D01*
X129146000Y-80158773D01*
X129144602Y-80155398D01*
X129141227Y-80154000D01*
X128300791Y-80154000D01*
X128297416Y-80155398D01*
X128296948Y-80156528D01*
X125583000Y-80156528D01*
X125583000Y-80123773D01*
X125581602Y-80120398D01*
X125578227Y-80119000D01*
X123021774Y-80119000D01*
X123018399Y-80120398D01*
X123017001Y-80123773D01*
X123017001Y-80212441D01*
X123017071Y-80213729D01*
X123023586Y-80273715D01*
X123024275Y-80276612D01*
X123074228Y-80409860D01*
X123075855Y-80412832D01*
X123161067Y-80526531D01*
X123163469Y-80528933D01*
X123277168Y-80614145D01*
X123280140Y-80615772D01*
X123408925Y-80664052D01*
X123422348Y-80676592D01*
X123424500Y-80686525D01*
X123424501Y-80931186D01*
X123424501Y-81174898D01*
X123424730Y-81176049D01*
X123424730Y-81176050D01*
X123425350Y-81179168D01*
X123430331Y-81204213D01*
X123452543Y-81237457D01*
X123485787Y-81259669D01*
X123488102Y-81260129D01*
X123488103Y-81260130D01*
X123509809Y-81264447D01*
X123515101Y-81265500D01*
X123516285Y-81265500D01*
X124303328Y-81265499D01*
X125084898Y-81265499D01*
X125086049Y-81265270D01*
X125086050Y-81265270D01*
X125091475Y-81264191D01*
X125114213Y-81259669D01*
X125147457Y-81237457D01*
X125169669Y-81204213D01*
X125170131Y-81201893D01*
X125174651Y-81179168D01*
X125175500Y-81174899D01*
X125175500Y-81064500D01*
X125182529Y-81047529D01*
X125199500Y-81040500D01*
X126272364Y-81040500D01*
X126289335Y-81047529D01*
X126742501Y-81500696D01*
X126749530Y-81517667D01*
X126742501Y-81534638D01*
X126725530Y-81541667D01*
X126714634Y-81539051D01*
X126618853Y-81490248D01*
X126617169Y-81489390D01*
X126519965Y-81473994D01*
X126501863Y-81471127D01*
X126500000Y-81470832D01*
X126498137Y-81471127D01*
X126480035Y-81473994D01*
X126382831Y-81489390D01*
X126381147Y-81490248D01*
X126278814Y-81542389D01*
X126278812Y-81542391D01*
X126277131Y-81543247D01*
X126193247Y-81627131D01*
X126192391Y-81628812D01*
X126192389Y-81628814D01*
X126182199Y-81648814D01*
X126177074Y-81658873D01*
X126175788Y-81661396D01*
X126161820Y-81673325D01*
X126154404Y-81674500D01*
X123269041Y-81674500D01*
X123264544Y-81674075D01*
X123243392Y-81670040D01*
X123240540Y-81669496D01*
X123237761Y-81670335D01*
X123204266Y-81680448D01*
X123203054Y-81680779D01*
X123169132Y-81689111D01*
X123166258Y-81689817D01*
X123164080Y-81691737D01*
X123162271Y-81692683D01*
X123162061Y-81692769D01*
X123162062Y-81692771D01*
X123160103Y-81693782D01*
X123157990Y-81694420D01*
X123156247Y-81695772D01*
X123156245Y-81695773D01*
X123156226Y-81695788D01*
X123155298Y-81696508D01*
X123130721Y-81721085D01*
X123129621Y-81722117D01*
X123101576Y-81746842D01*
X123100535Y-81749554D01*
X123098877Y-81751939D01*
X123098590Y-81751740D01*
X123095859Y-81755947D01*
X123046713Y-81805093D01*
X123029742Y-81812122D01*
X123025988Y-81811827D01*
X122926863Y-81796127D01*
X122925000Y-81795832D01*
X122923137Y-81796127D01*
X122906173Y-81798814D01*
X122807831Y-81814390D01*
X122806147Y-81815248D01*
X122703814Y-81867389D01*
X122703812Y-81867391D01*
X122702131Y-81868247D01*
X122618247Y-81952131D01*
X122617391Y-81953812D01*
X122617389Y-81953814D01*
X122580712Y-82025797D01*
X122564390Y-82057831D01*
X122545832Y-82175000D01*
X119350500Y-82175000D01*
X119350500Y-78616658D01*
X119357529Y-78599687D01*
X119877799Y-78079418D01*
X119894770Y-78072389D01*
X119898524Y-78072684D01*
X119991354Y-78087387D01*
X119999511Y-78088679D01*
X120096746Y-78073278D01*
X120114607Y-78077567D01*
X120124205Y-78093228D01*
X120124500Y-78096983D01*
X120124500Y-80066682D01*
X120117471Y-80083653D01*
X120109684Y-80088855D01*
X119997159Y-80135464D01*
X119871718Y-80231718D01*
X119775464Y-80357159D01*
X119748596Y-80422023D01*
X119728587Y-80470331D01*
X119714956Y-80503238D01*
X119694318Y-80660000D01*
X119714956Y-80816762D01*
X119715559Y-80818217D01*
X119715559Y-80818218D01*
X119725135Y-80841336D01*
X119775464Y-80962841D01*
X119871718Y-81088282D01*
X119997159Y-81184536D01*
X120143238Y-81245044D01*
X120300000Y-81265682D01*
X120456762Y-81245044D01*
X120602841Y-81184536D01*
X120728282Y-81088282D01*
X120824536Y-80962841D01*
X120874865Y-80841336D01*
X120884441Y-80818218D01*
X120884441Y-80818217D01*
X120885044Y-80816762D01*
X120905682Y-80660000D01*
X120885044Y-80503238D01*
X120871414Y-80470331D01*
X120851404Y-80422023D01*
X120824536Y-80357159D01*
X120728282Y-80231718D01*
X120602841Y-80135464D01*
X120490316Y-80088855D01*
X120477327Y-80075866D01*
X120475500Y-80066682D01*
X120475500Y-79525000D01*
X120845832Y-79525000D01*
X120864390Y-79642169D01*
X120865248Y-79643853D01*
X120882791Y-79678282D01*
X120918247Y-79747869D01*
X121002131Y-79831753D01*
X121003812Y-79832609D01*
X121003814Y-79832611D01*
X121036396Y-79849212D01*
X121048325Y-79863180D01*
X121049500Y-79870596D01*
X121049500Y-80530955D01*
X121049075Y-80535452D01*
X121045327Y-80555101D01*
X121044495Y-80559460D01*
X121045334Y-80562239D01*
X121055450Y-80595745D01*
X121055781Y-80596957D01*
X121064124Y-80630921D01*
X121064817Y-80633742D01*
X121066737Y-80635920D01*
X121067683Y-80637729D01*
X121067769Y-80637939D01*
X121067771Y-80637938D01*
X121068782Y-80639897D01*
X121069420Y-80642010D01*
X121071508Y-80644702D01*
X121096077Y-80669271D01*
X121097109Y-80670370D01*
X121121842Y-80698424D01*
X121124552Y-80699464D01*
X121126937Y-80701122D01*
X121126738Y-80701409D01*
X121130947Y-80704141D01*
X121480093Y-81053287D01*
X121487122Y-81070258D01*
X121486827Y-81074012D01*
X121471170Y-81172869D01*
X121470832Y-81175000D01*
X121489390Y-81292169D01*
X121490248Y-81293853D01*
X121541734Y-81394899D01*
X121543247Y-81397869D01*
X121627131Y-81481753D01*
X121628812Y-81482609D01*
X121628814Y-81482611D01*
X121723126Y-81530665D01*
X121732831Y-81535610D01*
X121850000Y-81554168D01*
X121967169Y-81535610D01*
X121976874Y-81530665D01*
X122071186Y-81482611D01*
X122071188Y-81482609D01*
X122072869Y-81481753D01*
X122156753Y-81397869D01*
X122158267Y-81394899D01*
X122209752Y-81293853D01*
X122210610Y-81292169D01*
X122229168Y-81175000D01*
X122228831Y-81172869D01*
X122222305Y-81131669D01*
X122210610Y-81057831D01*
X122199225Y-81035487D01*
X122157611Y-80953814D01*
X122157609Y-80953812D01*
X122156753Y-80952131D01*
X122072869Y-80868247D01*
X122071188Y-80867391D01*
X122071186Y-80867389D01*
X121968853Y-80815248D01*
X121967169Y-80814390D01*
X121850000Y-80795832D01*
X121848137Y-80796127D01*
X121754316Y-80810987D01*
X121749012Y-80811827D01*
X121731151Y-80807538D01*
X121728287Y-80805093D01*
X121568422Y-80645227D01*
X121407529Y-80484334D01*
X121400500Y-80467363D01*
X121400500Y-79870596D01*
X121407529Y-79853625D01*
X121413604Y-79849212D01*
X121446186Y-79832611D01*
X121446188Y-79832609D01*
X121447869Y-79831753D01*
X121531753Y-79747869D01*
X121567210Y-79678282D01*
X121584752Y-79643853D01*
X121585610Y-79642169D01*
X121585735Y-79641380D01*
X128301553Y-79641380D01*
X128302056Y-79644999D01*
X128303378Y-79646000D01*
X129141227Y-79646000D01*
X129144602Y-79644602D01*
X129146000Y-79641227D01*
X129654000Y-79641227D01*
X129655398Y-79644602D01*
X129658773Y-79646000D01*
X130499209Y-79646000D01*
X130502584Y-79644602D01*
X130503052Y-79643472D01*
X130502282Y-79641380D01*
X133301553Y-79641380D01*
X133302056Y-79644999D01*
X133303378Y-79646000D01*
X134141227Y-79646000D01*
X134144602Y-79644602D01*
X134146000Y-79641227D01*
X134654000Y-79641227D01*
X134655398Y-79644602D01*
X134658773Y-79646000D01*
X135499209Y-79646000D01*
X135502584Y-79644602D01*
X135503052Y-79643472D01*
X135438491Y-79468000D01*
X135437429Y-79465824D01*
X135333478Y-79298168D01*
X135332002Y-79296251D01*
X135196459Y-79152919D01*
X135194632Y-79151342D01*
X135033032Y-79038188D01*
X135030925Y-79037011D01*
X134849875Y-78958664D01*
X134847575Y-78957934D01*
X134658674Y-78918470D01*
X134655082Y-78919149D01*
X134654000Y-78920735D01*
X134654000Y-79641227D01*
X134146000Y-79641227D01*
X134146000Y-78927268D01*
X134144602Y-78923893D01*
X134142167Y-78922884D01*
X134052530Y-78931989D01*
X134050164Y-78932475D01*
X133861920Y-78991467D01*
X133859692Y-78992422D01*
X133687161Y-79088058D01*
X133685175Y-79089438D01*
X133535387Y-79217820D01*
X133533725Y-79219566D01*
X133412817Y-79375440D01*
X133411531Y-79377499D01*
X133324437Y-79554497D01*
X133323595Y-79556761D01*
X133301553Y-79641380D01*
X130502282Y-79641380D01*
X130438491Y-79468000D01*
X130437429Y-79465824D01*
X130333478Y-79298168D01*
X130332002Y-79296251D01*
X130196459Y-79152919D01*
X130194632Y-79151342D01*
X130033032Y-79038188D01*
X130030925Y-79037011D01*
X129849875Y-78958664D01*
X129847575Y-78957934D01*
X129658674Y-78918470D01*
X129655082Y-78919149D01*
X129654000Y-78920735D01*
X129654000Y-79641227D01*
X129146000Y-79641227D01*
X129146000Y-78927268D01*
X129144602Y-78923893D01*
X129142167Y-78922884D01*
X129052530Y-78931989D01*
X129050164Y-78932475D01*
X128861920Y-78991467D01*
X128859692Y-78992422D01*
X128687161Y-79088058D01*
X128685175Y-79089438D01*
X128535387Y-79217820D01*
X128533725Y-79219566D01*
X128412817Y-79375440D01*
X128411531Y-79377499D01*
X128324437Y-79554497D01*
X128323595Y-79556761D01*
X128301553Y-79641380D01*
X121585735Y-79641380D01*
X121604168Y-79525000D01*
X121585610Y-79407831D01*
X121531753Y-79302131D01*
X121447869Y-79218247D01*
X121446188Y-79217391D01*
X121446186Y-79217389D01*
X121343853Y-79165248D01*
X121342169Y-79164390D01*
X121225000Y-79145832D01*
X121107831Y-79164390D01*
X121106147Y-79165248D01*
X121003814Y-79217389D01*
X121003812Y-79217391D01*
X121002131Y-79218247D01*
X120918247Y-79302131D01*
X120864390Y-79407831D01*
X120845832Y-79525000D01*
X120475500Y-79525000D01*
X120475500Y-78132636D01*
X120482529Y-78115665D01*
X120947885Y-77650309D01*
X120955093Y-77645356D01*
X120960784Y-77642822D01*
X120980606Y-77617813D01*
X120982444Y-77615750D01*
X120989216Y-77608978D01*
X120993648Y-77601661D01*
X120995355Y-77599205D01*
X121014346Y-77575244D01*
X121015698Y-77568157D01*
X121018743Y-77560225D01*
X121022123Y-77554643D01*
X121036926Y-77543767D01*
X121053549Y-77545690D01*
X121081147Y-77559752D01*
X121082831Y-77560610D01*
X121172839Y-77574866D01*
X121181861Y-77576295D01*
X121197523Y-77585893D01*
X121199496Y-77594111D01*
X121207786Y-77580584D01*
X121218139Y-77576295D01*
X121227161Y-77574866D01*
X121317169Y-77560610D01*
X121318853Y-77559752D01*
X121421186Y-77507611D01*
X121421188Y-77507609D01*
X121422869Y-77506753D01*
X121506753Y-77422869D01*
X121509822Y-77416847D01*
X121522869Y-77391239D01*
X121524212Y-77388604D01*
X121538180Y-77376675D01*
X121545596Y-77375500D01*
X122117364Y-77375500D01*
X122134335Y-77382529D01*
X122333418Y-77581613D01*
X122336297Y-77585094D01*
X122350031Y-77605303D01*
X122352592Y-77606676D01*
X122352593Y-77606677D01*
X122383416Y-77623204D01*
X122384507Y-77623826D01*
X122394654Y-77629971D01*
X122405529Y-77644775D01*
X122402751Y-77662932D01*
X122387947Y-77673807D01*
X122382222Y-77674500D01*
X121391838Y-77674500D01*
X121380942Y-77671884D01*
X121318853Y-77640248D01*
X121317169Y-77639390D01*
X121218139Y-77623705D01*
X121202477Y-77614107D01*
X121200504Y-77605889D01*
X121192214Y-77619416D01*
X121181861Y-77623705D01*
X121082831Y-77639390D01*
X121081147Y-77640248D01*
X120978814Y-77692389D01*
X120978812Y-77692391D01*
X120977131Y-77693247D01*
X120893247Y-77777131D01*
X120892391Y-77778812D01*
X120892389Y-77778814D01*
X120861254Y-77839920D01*
X120839390Y-77882831D01*
X120820832Y-78000000D01*
X120839390Y-78117169D01*
X120840248Y-78118853D01*
X120884723Y-78206139D01*
X120893247Y-78222869D01*
X120977131Y-78306753D01*
X120978812Y-78307609D01*
X120978814Y-78307611D01*
X121076945Y-78357611D01*
X121082831Y-78360610D01*
X121166809Y-78373911D01*
X121183667Y-78376581D01*
X121200000Y-78379168D01*
X121216334Y-78376581D01*
X121233191Y-78373911D01*
X121317169Y-78360610D01*
X121323055Y-78357611D01*
X121421186Y-78307611D01*
X121421188Y-78307609D01*
X121422869Y-78306753D01*
X121506753Y-78222869D01*
X121515278Y-78206139D01*
X121559752Y-78118853D01*
X121560610Y-78117169D01*
X121571922Y-78045745D01*
X121581520Y-78030084D01*
X121595627Y-78025500D01*
X122397127Y-78025500D01*
X122414098Y-78032529D01*
X122420971Y-78049123D01*
X122420832Y-78050000D01*
X122439390Y-78167169D01*
X122440248Y-78168853D01*
X122490164Y-78266818D01*
X122493247Y-78272869D01*
X122577131Y-78356753D01*
X122578812Y-78357609D01*
X122578814Y-78357611D01*
X122669377Y-78403755D01*
X122682831Y-78410610D01*
X122800000Y-78429168D01*
X122917169Y-78410610D01*
X122930623Y-78403755D01*
X123021186Y-78357611D01*
X123021188Y-78357609D01*
X123022869Y-78356753D01*
X123054336Y-78325286D01*
X123071307Y-78318257D01*
X123088278Y-78325286D01*
X123094283Y-78335320D01*
X123100450Y-78355745D01*
X123100781Y-78356957D01*
X123106237Y-78379168D01*
X123109817Y-78393742D01*
X123111737Y-78395920D01*
X123112683Y-78397729D01*
X123112769Y-78397939D01*
X123112771Y-78397938D01*
X123113782Y-78399897D01*
X123114420Y-78402010D01*
X123116508Y-78404702D01*
X123141077Y-78429271D01*
X123142109Y-78430370D01*
X123166842Y-78458424D01*
X123169552Y-78459464D01*
X123171937Y-78461122D01*
X123171738Y-78461409D01*
X123175947Y-78464141D01*
X123417471Y-78705666D01*
X123424500Y-78722637D01*
X123424501Y-78932475D01*
X123424501Y-79043474D01*
X123417472Y-79060445D01*
X123408926Y-79065947D01*
X123280140Y-79114228D01*
X123277168Y-79115855D01*
X123163469Y-79201067D01*
X123161067Y-79203469D01*
X123075855Y-79317168D01*
X123074228Y-79320140D01*
X123024275Y-79453386D01*
X123023586Y-79456286D01*
X123017069Y-79516272D01*
X123017000Y-79517557D01*
X123017000Y-79606227D01*
X123018398Y-79609602D01*
X123021773Y-79611000D01*
X125578226Y-79611000D01*
X125581601Y-79609602D01*
X125582999Y-79606227D01*
X125582999Y-79517559D01*
X125582929Y-79516271D01*
X125576414Y-79456285D01*
X125575725Y-79453388D01*
X125525772Y-79320140D01*
X125524145Y-79317168D01*
X125438933Y-79203469D01*
X125436531Y-79201067D01*
X125322832Y-79115855D01*
X125319860Y-79114228D01*
X125191075Y-79065948D01*
X125177652Y-79053408D01*
X125175500Y-79043475D01*
X125175499Y-78556276D01*
X125175499Y-78555102D01*
X125169669Y-78525787D01*
X125147457Y-78492543D01*
X125114213Y-78470331D01*
X125111898Y-78469871D01*
X125111897Y-78469870D01*
X125086060Y-78464731D01*
X125086061Y-78464731D01*
X125084899Y-78464500D01*
X124934616Y-78464500D01*
X123682638Y-78464501D01*
X123665667Y-78457472D01*
X123514666Y-78306471D01*
X123507637Y-78289500D01*
X123514666Y-78272529D01*
X123531637Y-78265500D01*
X124980836Y-78265499D01*
X125084898Y-78265499D01*
X125086049Y-78265270D01*
X125086050Y-78265270D01*
X125099540Y-78262587D01*
X125114213Y-78259669D01*
X125144712Y-78239291D01*
X125145489Y-78238772D01*
X125147457Y-78237457D01*
X125169669Y-78204213D01*
X125170152Y-78201788D01*
X125174694Y-78178951D01*
X125175500Y-78174899D01*
X125175499Y-77810000D01*
X129004815Y-77810000D01*
X129004946Y-77811246D01*
X129023371Y-77986552D01*
X129023372Y-77986557D01*
X129023503Y-77987803D01*
X129023893Y-77989002D01*
X129023893Y-77989004D01*
X129040437Y-78039920D01*
X129078750Y-78157835D01*
X129079378Y-78158923D01*
X129079379Y-78158925D01*
X129164728Y-78306753D01*
X129168141Y-78312665D01*
X129287770Y-78445526D01*
X129288790Y-78446267D01*
X129288791Y-78446268D01*
X129401432Y-78528107D01*
X129432407Y-78550612D01*
X129595733Y-78623329D01*
X129596961Y-78623590D01*
X129769380Y-78660239D01*
X129769382Y-78660239D01*
X129770609Y-78660500D01*
X129949391Y-78660500D01*
X129950618Y-78660239D01*
X129950620Y-78660239D01*
X130123039Y-78623590D01*
X130124267Y-78623329D01*
X130287593Y-78550612D01*
X130318569Y-78528107D01*
X130431209Y-78446268D01*
X130431210Y-78446267D01*
X130432230Y-78445526D01*
X130551859Y-78312665D01*
X130555273Y-78306753D01*
X130640621Y-78158925D01*
X130640622Y-78158923D01*
X130641250Y-78157835D01*
X130667488Y-78077083D01*
X130679417Y-78063116D01*
X130690313Y-78060500D01*
X132462739Y-78060500D01*
X132479710Y-78067529D01*
X132484706Y-78074834D01*
X132512914Y-78138943D01*
X132512919Y-78138951D01*
X132513605Y-78140510D01*
X132514701Y-78141814D01*
X132514703Y-78141817D01*
X132595097Y-78237457D01*
X132596639Y-78239291D01*
X132644554Y-78271186D01*
X132697563Y-78306471D01*
X132704060Y-78310796D01*
X132727941Y-78318257D01*
X132825603Y-78348769D01*
X132825605Y-78348769D01*
X132827233Y-78349278D01*
X132888005Y-78350392D01*
X132954546Y-78351612D01*
X132954548Y-78351612D01*
X132956255Y-78351643D01*
X133040155Y-78328769D01*
X133079109Y-78318149D01*
X133079111Y-78318148D01*
X133080755Y-78317700D01*
X133190724Y-78250179D01*
X133200580Y-78239291D01*
X133249555Y-78185183D01*
X133277322Y-78154507D01*
X133333588Y-78038375D01*
X133335973Y-78024203D01*
X133349671Y-77942779D01*
X133354997Y-77911120D01*
X133355062Y-77905846D01*
X133355122Y-77900934D01*
X133355122Y-77900929D01*
X133355133Y-77900000D01*
X133342943Y-77814878D01*
X133337081Y-77773947D01*
X133337080Y-77773945D01*
X133336839Y-77772259D01*
X133283428Y-77654788D01*
X133215365Y-77575797D01*
X133200309Y-77558323D01*
X133200308Y-77558322D01*
X133199193Y-77557028D01*
X133119569Y-77505419D01*
X133092338Y-77487769D01*
X133092337Y-77487769D01*
X133090906Y-77486841D01*
X132967273Y-77449866D01*
X132905001Y-77449486D01*
X132839941Y-77449088D01*
X132839938Y-77449088D01*
X132838231Y-77449078D01*
X132836588Y-77449548D01*
X132836585Y-77449548D01*
X132739463Y-77477306D01*
X132714155Y-77484539D01*
X132690044Y-77499752D01*
X132606467Y-77552485D01*
X132606465Y-77552486D01*
X132605019Y-77553399D01*
X132604557Y-77553922D01*
X132589394Y-77559500D01*
X130690313Y-77559500D01*
X130673342Y-77552471D01*
X130667488Y-77542917D01*
X130653837Y-77500905D01*
X130641250Y-77462165D01*
X130640404Y-77460700D01*
X130552487Y-77308422D01*
X130552485Y-77308419D01*
X130551859Y-77307335D01*
X130432230Y-77174474D01*
X130409358Y-77157856D01*
X130288612Y-77070128D01*
X130288610Y-77070127D01*
X130287593Y-77069388D01*
X130124267Y-76996671D01*
X130069317Y-76984991D01*
X129950620Y-76959761D01*
X129950618Y-76959761D01*
X129949391Y-76959500D01*
X129770609Y-76959500D01*
X129769382Y-76959761D01*
X129769380Y-76959761D01*
X129650683Y-76984991D01*
X129595733Y-76996671D01*
X129527130Y-77027215D01*
X129433557Y-77068876D01*
X129433554Y-77068878D01*
X129432408Y-77069388D01*
X129431391Y-77070127D01*
X129431389Y-77070128D01*
X129302281Y-77163931D01*
X129287770Y-77174474D01*
X129168141Y-77307335D01*
X129167515Y-77308419D01*
X129167513Y-77308422D01*
X129079596Y-77460700D01*
X129078750Y-77462165D01*
X129062401Y-77512481D01*
X129026583Y-77622719D01*
X129023503Y-77632197D01*
X129023372Y-77633443D01*
X129023371Y-77633448D01*
X129008604Y-77773947D01*
X129004815Y-77810000D01*
X125175499Y-77810000D01*
X125175499Y-77555102D01*
X125169669Y-77525787D01*
X125147457Y-77492543D01*
X125114213Y-77470331D01*
X125111898Y-77469871D01*
X125111897Y-77469870D01*
X125086060Y-77464731D01*
X125086061Y-77464731D01*
X125084899Y-77464500D01*
X124986633Y-77464500D01*
X124969662Y-77457471D01*
X124962633Y-77440500D01*
X124966104Y-77428068D01*
X124968651Y-77423862D01*
X124970156Y-77421377D01*
X124970338Y-77418479D01*
X124970949Y-77416530D01*
X124971037Y-77416319D01*
X124971036Y-77416319D01*
X124971707Y-77414218D01*
X124972748Y-77412276D01*
X124973175Y-77408896D01*
X124973175Y-77374156D01*
X124973222Y-77372649D01*
X124975389Y-77338216D01*
X124975389Y-77338214D01*
X124975571Y-77335317D01*
X124974389Y-77332663D01*
X124973875Y-77329806D01*
X124974219Y-77329744D01*
X124973175Y-77324834D01*
X124973175Y-77311486D01*
X124980204Y-77294515D01*
X124986279Y-77290102D01*
X125018861Y-77273501D01*
X125018863Y-77273499D01*
X125020544Y-77272643D01*
X125061988Y-77231199D01*
X127419989Y-77231199D01*
X127420796Y-77233149D01*
X127477744Y-77273023D01*
X127479545Y-77274063D01*
X127677143Y-77366205D01*
X127679108Y-77366920D01*
X127889701Y-77423348D01*
X127891760Y-77423711D01*
X128108960Y-77442714D01*
X128111040Y-77442714D01*
X128328240Y-77423711D01*
X128330299Y-77423348D01*
X128540892Y-77366920D01*
X128542857Y-77366205D01*
X128740455Y-77274063D01*
X128742256Y-77273023D01*
X128798077Y-77233937D01*
X128800041Y-77230855D01*
X128799584Y-77228795D01*
X128113374Y-76542584D01*
X128110000Y-76541187D01*
X128106626Y-76542584D01*
X127421386Y-77227825D01*
X127419989Y-77231199D01*
X125061988Y-77231199D01*
X125104428Y-77188759D01*
X125105715Y-77186235D01*
X125157427Y-77084743D01*
X125158285Y-77083059D01*
X125173809Y-76985044D01*
X125176548Y-76967753D01*
X125176843Y-76965890D01*
X125176088Y-76961120D01*
X125171568Y-76932584D01*
X125158285Y-76848721D01*
X125142088Y-76816932D01*
X125105286Y-76744704D01*
X125105284Y-76744702D01*
X125104428Y-76743021D01*
X125020544Y-76659137D01*
X125018863Y-76658281D01*
X125018861Y-76658279D01*
X124916528Y-76606138D01*
X124914844Y-76605280D01*
X124797675Y-76586722D01*
X124680506Y-76605280D01*
X124678822Y-76606138D01*
X124576489Y-76658279D01*
X124576487Y-76658281D01*
X124574806Y-76659137D01*
X124490922Y-76743021D01*
X124490066Y-76744702D01*
X124490064Y-76744704D01*
X124453262Y-76816932D01*
X124437065Y-76848721D01*
X124436770Y-76850586D01*
X124436768Y-76850591D01*
X124433551Y-76870899D01*
X124423953Y-76886561D01*
X124406092Y-76890848D01*
X124390430Y-76881250D01*
X124386143Y-76870900D01*
X124370610Y-76772831D01*
X124364647Y-76761128D01*
X124317611Y-76668814D01*
X124317609Y-76668812D01*
X124316753Y-76667131D01*
X124232869Y-76583247D01*
X124231188Y-76582391D01*
X124231186Y-76582389D01*
X124128853Y-76530248D01*
X124127169Y-76529390D01*
X124029965Y-76513994D01*
X124011863Y-76511127D01*
X124010000Y-76510832D01*
X124008137Y-76511127D01*
X123990035Y-76513994D01*
X123892831Y-76529390D01*
X123891147Y-76530248D01*
X123788814Y-76582389D01*
X123788812Y-76582391D01*
X123787131Y-76583247D01*
X123703247Y-76667131D01*
X123702391Y-76668812D01*
X123702389Y-76668814D01*
X123655353Y-76761128D01*
X123649390Y-76772831D01*
X123637652Y-76846941D01*
X123637331Y-76848970D01*
X123630597Y-76862187D01*
X123204334Y-77288449D01*
X123187363Y-77295478D01*
X122553615Y-77295478D01*
X122536644Y-77288449D01*
X122337560Y-77089365D01*
X122334681Y-77085884D01*
X122322580Y-77068078D01*
X122320947Y-77065675D01*
X122318386Y-77064302D01*
X122318385Y-77064301D01*
X122287562Y-77047774D01*
X122286471Y-77047152D01*
X122256537Y-77029024D01*
X122254052Y-77027519D01*
X122251154Y-77027337D01*
X122249205Y-77026726D01*
X122248994Y-77026638D01*
X122248994Y-77026639D01*
X122246893Y-77025968D01*
X122244951Y-77024927D01*
X122241571Y-77024500D01*
X122206823Y-77024500D01*
X122205316Y-77024453D01*
X122170892Y-77022287D01*
X122170890Y-77022287D01*
X122167992Y-77022105D01*
X122165338Y-77023287D01*
X122162481Y-77023801D01*
X122162419Y-77023457D01*
X122157511Y-77024500D01*
X121545596Y-77024500D01*
X121528625Y-77017471D01*
X121524212Y-77011396D01*
X121507611Y-76978814D01*
X121507609Y-76978812D01*
X121506753Y-76977131D01*
X121422869Y-76893247D01*
X121421188Y-76892391D01*
X121421186Y-76892389D01*
X121318853Y-76840248D01*
X121317169Y-76839390D01*
X121204502Y-76821545D01*
X121201863Y-76821127D01*
X121200000Y-76820832D01*
X121198137Y-76821127D01*
X121195498Y-76821545D01*
X121082831Y-76839390D01*
X121081147Y-76840248D01*
X120978814Y-76892389D01*
X120978812Y-76892391D01*
X120977131Y-76893247D01*
X120893247Y-76977131D01*
X120892391Y-76978812D01*
X120892389Y-76978814D01*
X120840248Y-77081147D01*
X120839390Y-77082831D01*
X120828435Y-77152002D01*
X120825106Y-77173018D01*
X120815508Y-77188680D01*
X120797647Y-77192969D01*
X120784430Y-77186235D01*
X120462887Y-76864692D01*
X120460008Y-76861211D01*
X120451520Y-76848721D01*
X120446274Y-76841002D01*
X120443713Y-76839629D01*
X120443712Y-76839628D01*
X120412889Y-76823101D01*
X120411798Y-76822479D01*
X120381864Y-76804351D01*
X120379379Y-76802846D01*
X120376481Y-76802664D01*
X120374532Y-76802053D01*
X120374321Y-76801965D01*
X120374321Y-76801966D01*
X120372220Y-76801295D01*
X120370278Y-76800254D01*
X120366898Y-76799827D01*
X120332150Y-76799827D01*
X120330643Y-76799780D01*
X120296219Y-76797614D01*
X120296217Y-76797614D01*
X120293319Y-76797432D01*
X120290665Y-76798614D01*
X120287808Y-76799128D01*
X120287746Y-76798784D01*
X120282838Y-76799827D01*
X120226080Y-76799827D01*
X120209109Y-76792798D01*
X120204696Y-76786723D01*
X120204399Y-76786139D01*
X120196760Y-76771147D01*
X120188095Y-76754141D01*
X120188093Y-76754139D01*
X120187237Y-76752458D01*
X120103353Y-76668574D01*
X120101672Y-76667718D01*
X120101670Y-76667716D01*
X119999337Y-76615575D01*
X119997653Y-76614717D01*
X119880484Y-76596159D01*
X119878621Y-76596454D01*
X119778357Y-76612334D01*
X119760496Y-76608045D01*
X119750898Y-76592383D01*
X119755187Y-76574522D01*
X119755418Y-76574204D01*
X119756753Y-76572869D01*
X119804496Y-76479168D01*
X119809752Y-76468853D01*
X119810610Y-76467169D01*
X119829168Y-76350000D01*
X119810610Y-76232831D01*
X119801680Y-76215304D01*
X119757611Y-76128814D01*
X119757609Y-76128812D01*
X119756753Y-76127131D01*
X119709622Y-76080000D01*
X119894318Y-76080000D01*
X119914956Y-76236762D01*
X119915559Y-76238217D01*
X119915559Y-76238218D01*
X119930774Y-76274949D01*
X119975464Y-76382841D01*
X120071718Y-76508282D01*
X120197159Y-76604536D01*
X120343238Y-76665044D01*
X120500000Y-76685682D01*
X120656762Y-76665044D01*
X120802841Y-76604536D01*
X120928282Y-76508282D01*
X121024536Y-76382841D01*
X121071145Y-76270316D01*
X121084134Y-76257327D01*
X121093318Y-76255500D01*
X121215936Y-76255500D01*
X121232907Y-76262529D01*
X121277131Y-76306753D01*
X121278812Y-76307609D01*
X121278814Y-76307611D01*
X121378262Y-76358282D01*
X121382831Y-76360610D01*
X121500000Y-76379168D01*
X121617169Y-76360610D01*
X121621738Y-76358282D01*
X121721186Y-76307611D01*
X121721188Y-76307609D01*
X121722869Y-76306753D01*
X121806753Y-76222869D01*
X121808800Y-76218853D01*
X121859752Y-76118853D01*
X121860610Y-76117169D01*
X121870598Y-76054111D01*
X121880195Y-76038450D01*
X121898056Y-76034161D01*
X121911273Y-76040895D01*
X121977131Y-76106753D01*
X121978812Y-76107609D01*
X121978814Y-76107611D01*
X122074264Y-76156245D01*
X122082831Y-76160610D01*
X122200000Y-76179168D01*
X122216050Y-76176626D01*
X122255592Y-76170363D01*
X122273453Y-76174652D01*
X122283051Y-76190314D01*
X122281519Y-76203251D01*
X122264956Y-76243238D01*
X122244318Y-76400000D01*
X122264956Y-76556762D01*
X122265559Y-76558217D01*
X122265559Y-76558218D01*
X122280213Y-76593596D01*
X122325464Y-76702841D01*
X122421718Y-76828282D01*
X122547159Y-76924536D01*
X122599306Y-76946136D01*
X122680221Y-76979652D01*
X122693238Y-76985044D01*
X122850000Y-77005682D01*
X123006762Y-76985044D01*
X123019780Y-76979652D01*
X123100694Y-76946136D01*
X123152841Y-76924536D01*
X123278282Y-76828282D01*
X123374536Y-76702841D01*
X123419787Y-76593596D01*
X123434441Y-76558218D01*
X123434441Y-76558217D01*
X123435044Y-76556762D01*
X123455682Y-76400000D01*
X123435044Y-76243238D01*
X123433927Y-76240540D01*
X123401419Y-76162061D01*
X123374536Y-76097159D01*
X123278282Y-75971718D01*
X123152841Y-75875464D01*
X123028217Y-75823843D01*
X123008218Y-75815559D01*
X123008217Y-75815559D01*
X123006762Y-75814956D01*
X122850000Y-75794318D01*
X122693238Y-75814956D01*
X122691783Y-75815559D01*
X122691782Y-75815559D01*
X122608217Y-75850173D01*
X122589849Y-75850173D01*
X122576860Y-75837184D01*
X122575328Y-75824246D01*
X122578873Y-75801863D01*
X122579168Y-75800000D01*
X122578092Y-75793203D01*
X122571586Y-75752131D01*
X122560610Y-75682831D01*
X122550945Y-75663862D01*
X122507611Y-75578814D01*
X122507609Y-75578812D01*
X122506753Y-75577131D01*
X122422869Y-75493247D01*
X122421188Y-75492391D01*
X122421186Y-75492389D01*
X122318853Y-75440248D01*
X122317169Y-75439390D01*
X122200000Y-75420832D01*
X122082831Y-75439390D01*
X122081147Y-75440248D01*
X121978814Y-75492389D01*
X121978812Y-75492391D01*
X121977131Y-75493247D01*
X121893247Y-75577131D01*
X121892391Y-75578812D01*
X121892389Y-75578814D01*
X121849055Y-75663862D01*
X121839390Y-75682831D01*
X121829802Y-75743366D01*
X121829403Y-75745888D01*
X121819805Y-75761550D01*
X121801944Y-75765839D01*
X121788727Y-75759105D01*
X121722869Y-75693247D01*
X121721188Y-75692391D01*
X121721186Y-75692389D01*
X121618853Y-75640248D01*
X121617169Y-75639390D01*
X121500000Y-75620832D01*
X121382831Y-75639390D01*
X121381147Y-75640248D01*
X121278814Y-75692389D01*
X121278812Y-75692391D01*
X121277131Y-75693247D01*
X121193247Y-75777131D01*
X121192391Y-75778812D01*
X121192389Y-75778814D01*
X121142294Y-75877131D01*
X121139390Y-75882831D01*
X121139095Y-75884696D01*
X121138510Y-75886495D01*
X121137909Y-75886300D01*
X121129572Y-75899913D01*
X121115460Y-75904500D01*
X121093318Y-75904500D01*
X121076347Y-75897471D01*
X121071145Y-75889684D01*
X121045141Y-75826904D01*
X121024536Y-75777159D01*
X120928282Y-75651718D01*
X120802841Y-75555464D01*
X120656762Y-75494956D01*
X120500000Y-75474318D01*
X120343238Y-75494956D01*
X120197159Y-75555464D01*
X120071718Y-75651718D01*
X119975464Y-75777159D01*
X119968272Y-75794523D01*
X119922718Y-75904500D01*
X119914956Y-75923238D01*
X119894318Y-76080000D01*
X119709622Y-76080000D01*
X119672869Y-76043247D01*
X119671188Y-76042391D01*
X119671186Y-76042389D01*
X119568853Y-75990248D01*
X119567169Y-75989390D01*
X119450000Y-75970832D01*
X119332831Y-75989390D01*
X119331147Y-75990248D01*
X119228814Y-76042389D01*
X119228812Y-76042391D01*
X119227131Y-76043247D01*
X119143247Y-76127131D01*
X119142391Y-76128812D01*
X119142389Y-76128814D01*
X119098320Y-76215304D01*
X119089390Y-76232831D01*
X119070832Y-76350000D01*
X119089390Y-76467169D01*
X119090248Y-76468853D01*
X119121956Y-76531083D01*
X119123397Y-76549395D01*
X119111468Y-76563363D01*
X119093156Y-76564804D01*
X119091400Y-76564157D01*
X118996762Y-76524956D01*
X118840000Y-76504318D01*
X118683238Y-76524956D01*
X118681783Y-76525559D01*
X118681782Y-76525559D01*
X118624237Y-76549395D01*
X118537159Y-76585464D01*
X118411718Y-76681718D01*
X118315464Y-76807159D01*
X118293567Y-76860023D01*
X118263732Y-76932052D01*
X118254956Y-76953238D01*
X118234318Y-77110000D01*
X118254956Y-77266762D01*
X118255559Y-77268217D01*
X118255559Y-77268218D01*
X118257747Y-77273501D01*
X118315464Y-77412841D01*
X118411718Y-77538282D01*
X118537159Y-77634536D01*
X118567648Y-77647165D01*
X118678900Y-77693247D01*
X118683238Y-77695044D01*
X118840000Y-77715682D01*
X118996762Y-77695044D01*
X119001101Y-77693247D01*
X119112352Y-77647165D01*
X119142841Y-77634536D01*
X119268282Y-77538282D01*
X119364536Y-77412841D01*
X119422253Y-77273501D01*
X119424441Y-77268218D01*
X119424441Y-77268217D01*
X119425044Y-77266762D01*
X119445682Y-77110000D01*
X119425044Y-76953238D01*
X119378434Y-76840713D01*
X119378434Y-76822345D01*
X119383636Y-76814558D01*
X119467093Y-76731101D01*
X119480309Y-76724367D01*
X119552127Y-76712992D01*
X119569988Y-76717281D01*
X119579586Y-76732942D01*
X119575299Y-76750802D01*
X119575065Y-76751124D01*
X119573731Y-76752458D01*
X119572875Y-76754139D01*
X119572873Y-76754141D01*
X119524017Y-76850026D01*
X119519874Y-76858158D01*
X119501316Y-76975327D01*
X119501611Y-76977190D01*
X119504478Y-76995292D01*
X119519874Y-77092496D01*
X119520732Y-77094180D01*
X119571187Y-77193203D01*
X119573731Y-77198196D01*
X119657615Y-77282080D01*
X119659296Y-77282936D01*
X119659298Y-77282938D01*
X119751282Y-77329806D01*
X119763315Y-77335937D01*
X119765180Y-77336232D01*
X119765185Y-77336234D01*
X119800571Y-77341839D01*
X119816233Y-77351436D01*
X119820520Y-77369298D01*
X119810923Y-77384960D01*
X119807712Y-77386927D01*
X119778325Y-77401900D01*
X119778323Y-77401902D01*
X119776642Y-77402758D01*
X119692758Y-77486642D01*
X119691902Y-77488323D01*
X119691900Y-77488325D01*
X119645494Y-77579402D01*
X119638901Y-77592342D01*
X119620343Y-77709511D01*
X119620638Y-77711374D01*
X119636338Y-77810498D01*
X119632049Y-77828359D01*
X119629604Y-77831223D01*
X119064365Y-78396462D01*
X119060884Y-78399341D01*
X119040675Y-78413075D01*
X119039302Y-78415636D01*
X119039301Y-78415637D01*
X119022774Y-78446460D01*
X119022152Y-78447551D01*
X119013760Y-78461409D01*
X119002519Y-78479970D01*
X119002337Y-78482868D01*
X119001726Y-78484817D01*
X119001638Y-78485028D01*
X119001639Y-78485028D01*
X119000968Y-78487129D01*
X118999927Y-78489071D01*
X118999500Y-78492451D01*
X118999500Y-78527199D01*
X118999453Y-78528706D01*
X118997719Y-78556276D01*
X118997105Y-78566030D01*
X118998287Y-78568684D01*
X118998801Y-78571541D01*
X118998457Y-78571603D01*
X118999500Y-78576511D01*
X118999500Y-80750936D01*
X118992471Y-80767907D01*
X118975500Y-80774936D01*
X118958529Y-80767907D01*
X118898369Y-80707747D01*
X118896688Y-80706891D01*
X118896686Y-80706889D01*
X118794353Y-80654748D01*
X118792669Y-80653890D01*
X118691960Y-80637939D01*
X118677363Y-80635627D01*
X118675500Y-80635332D01*
X118673637Y-80635627D01*
X118659040Y-80637939D01*
X118558331Y-80653890D01*
X118556647Y-80654748D01*
X118454314Y-80706889D01*
X118454312Y-80706891D01*
X118452631Y-80707747D01*
X118368747Y-80791631D01*
X118367891Y-80793312D01*
X118367889Y-80793314D01*
X118316484Y-80894203D01*
X118314890Y-80897331D01*
X118296332Y-81014500D01*
X118296627Y-81016363D01*
X118297688Y-81023063D01*
X118314890Y-81131669D01*
X118315748Y-81133353D01*
X118366323Y-81232611D01*
X118368747Y-81237369D01*
X118452631Y-81321253D01*
X118454312Y-81322109D01*
X118454314Y-81322111D01*
X118553968Y-81372887D01*
X118558331Y-81375110D01*
X118641072Y-81388215D01*
X118672861Y-81393250D01*
X118675500Y-81393668D01*
X118678140Y-81393250D01*
X118709928Y-81388215D01*
X118792669Y-81375110D01*
X118797032Y-81372887D01*
X118896686Y-81322111D01*
X118896688Y-81322109D01*
X118898369Y-81321253D01*
X118958529Y-81261093D01*
X118975500Y-81254064D01*
X118992471Y-81261093D01*
X118999500Y-81278064D01*
X118999500Y-82320835D01*
X118992471Y-82337806D01*
X118975500Y-82344835D01*
X118972364Y-82344629D01*
X118971560Y-82344523D01*
X118971557Y-82344523D01*
X118970000Y-82344318D01*
X118813238Y-82364956D01*
X118811783Y-82365559D01*
X118811782Y-82365559D01*
X118748279Y-82391863D01*
X118667159Y-82425464D01*
X118541718Y-82521718D01*
X118445464Y-82647159D01*
X118424921Y-82696753D01*
X118386195Y-82790248D01*
X118384956Y-82793238D01*
X118384751Y-82794797D01*
X118384750Y-82794800D01*
X118376018Y-82861127D01*
X118369344Y-82911831D01*
X118368961Y-82914737D01*
X118359776Y-82930645D01*
X118341412Y-82935310D01*
X118251863Y-82921127D01*
X118250000Y-82920832D01*
X118132831Y-82939390D01*
X118131147Y-82940248D01*
X118028814Y-82992389D01*
X118028812Y-82992391D01*
X118027131Y-82993247D01*
X117943247Y-83077131D01*
X117942391Y-83078812D01*
X117942389Y-83078814D01*
X117895801Y-83170248D01*
X117889390Y-83182831D01*
X117870832Y-83300000D01*
X117871127Y-83301863D01*
X117871283Y-83302847D01*
X117889390Y-83417169D01*
X117923203Y-83483529D01*
X117926298Y-83489604D01*
X117927739Y-83507916D01*
X117915810Y-83521884D01*
X117904914Y-83524500D01*
X117812636Y-83524500D01*
X117795665Y-83517471D01*
X117746565Y-83468371D01*
X117739536Y-83451400D01*
X117741363Y-83442216D01*
X117748870Y-83424094D01*
X117777554Y-83354845D01*
X117784441Y-83338218D01*
X117784441Y-83338217D01*
X117785044Y-83336762D01*
X117805682Y-83180000D01*
X117785044Y-83023238D01*
X117761204Y-82965682D01*
X117744579Y-82925547D01*
X117724536Y-82877159D01*
X117628282Y-82751718D01*
X117502841Y-82655464D01*
X117395945Y-82611186D01*
X117358218Y-82595559D01*
X117358217Y-82595559D01*
X117356762Y-82594956D01*
X117200000Y-82574318D01*
X117043238Y-82594956D01*
X117041783Y-82595559D01*
X117041782Y-82595559D01*
X117004055Y-82611186D01*
X116897159Y-82655464D01*
X116771718Y-82751718D01*
X116675464Y-82877159D01*
X116655421Y-82925547D01*
X116638797Y-82965682D01*
X116614956Y-83023238D01*
X116594318Y-83180000D01*
X116614956Y-83336762D01*
X116615559Y-83338217D01*
X116615559Y-83338218D01*
X116626826Y-83365419D01*
X116675464Y-83482841D01*
X116771718Y-83608282D01*
X116772973Y-83609245D01*
X116775662Y-83611308D01*
X116897159Y-83704536D01*
X116990032Y-83743005D01*
X117014951Y-83753327D01*
X117027940Y-83766316D01*
X117027940Y-83784684D01*
X117014951Y-83797673D01*
X117005767Y-83799500D01*
X113319688Y-83799500D01*
X113302717Y-83792471D01*
X113295688Y-83775500D01*
X113302717Y-83758529D01*
X113308792Y-83754116D01*
X113309087Y-83753966D01*
X113320376Y-83748214D01*
X113341186Y-83737611D01*
X113341188Y-83737609D01*
X113342869Y-83736753D01*
X113426753Y-83652869D01*
X113427692Y-83651028D01*
X113479752Y-83548853D01*
X113480610Y-83547169D01*
X113492959Y-83469202D01*
X113502557Y-83453540D01*
X113520418Y-83449251D01*
X113536080Y-83458849D01*
X113539196Y-83464963D01*
X113539390Y-83466189D01*
X113558914Y-83504506D01*
X113590558Y-83566611D01*
X113593247Y-83571889D01*
X113677131Y-83655773D01*
X113678812Y-83656629D01*
X113678814Y-83656631D01*
X113780817Y-83708604D01*
X113782831Y-83709630D01*
X113900000Y-83728188D01*
X114017169Y-83709630D01*
X114019183Y-83708604D01*
X114121186Y-83656631D01*
X114121188Y-83656629D01*
X114122869Y-83655773D01*
X114206753Y-83571889D01*
X114209443Y-83566611D01*
X114241086Y-83504506D01*
X114248486Y-83489985D01*
X114262453Y-83478056D01*
X114280765Y-83479497D01*
X114291253Y-83489985D01*
X114332279Y-83570502D01*
X114335004Y-83575851D01*
X114418888Y-83659735D01*
X114420569Y-83660591D01*
X114420571Y-83660593D01*
X114515128Y-83708772D01*
X114524588Y-83713592D01*
X114614880Y-83727893D01*
X114635816Y-83731209D01*
X114641757Y-83732150D01*
X114647699Y-83731209D01*
X114668634Y-83727893D01*
X114758926Y-83713592D01*
X114768386Y-83708772D01*
X114862943Y-83660593D01*
X114862945Y-83660591D01*
X114864626Y-83659735D01*
X114948510Y-83575851D01*
X114951236Y-83570502D01*
X115001509Y-83471835D01*
X115002367Y-83470151D01*
X115020925Y-83352982D01*
X115020298Y-83349020D01*
X115014299Y-83311148D01*
X115009366Y-83280000D01*
X115510832Y-83280000D01*
X115529390Y-83397169D01*
X115530248Y-83398853D01*
X115582040Y-83500500D01*
X115583247Y-83502869D01*
X115667131Y-83586753D01*
X115668812Y-83587609D01*
X115668814Y-83587611D01*
X115771147Y-83639752D01*
X115772831Y-83640610D01*
X115890000Y-83659168D01*
X116007169Y-83640610D01*
X116008853Y-83639752D01*
X116111186Y-83587611D01*
X116111188Y-83587609D01*
X116112869Y-83586753D01*
X116196753Y-83502869D01*
X116197961Y-83500500D01*
X116249752Y-83398853D01*
X116250610Y-83397169D01*
X116269168Y-83280000D01*
X116267403Y-83268853D01*
X116266006Y-83260035D01*
X116250610Y-83162831D01*
X116245022Y-83151863D01*
X116197611Y-83058814D01*
X116197609Y-83058812D01*
X116196753Y-83057131D01*
X116112869Y-82973247D01*
X116111188Y-82972391D01*
X116111186Y-82972389D01*
X116008853Y-82920248D01*
X116007169Y-82919390D01*
X115901232Y-82902611D01*
X115891863Y-82901127D01*
X115890000Y-82900832D01*
X115888137Y-82901127D01*
X115878768Y-82902611D01*
X115772831Y-82919390D01*
X115771147Y-82920248D01*
X115668814Y-82972389D01*
X115668812Y-82972391D01*
X115667131Y-82973247D01*
X115583247Y-83057131D01*
X115582391Y-83058812D01*
X115582389Y-83058814D01*
X115534978Y-83151863D01*
X115529390Y-83162831D01*
X115513994Y-83260035D01*
X115512598Y-83268853D01*
X115510832Y-83280000D01*
X115009366Y-83280000D01*
X115002367Y-83235813D01*
X114999903Y-83230977D01*
X114949368Y-83131796D01*
X114949366Y-83131794D01*
X114948510Y-83130113D01*
X114864626Y-83046229D01*
X114862945Y-83045373D01*
X114862943Y-83045371D01*
X114760610Y-82993230D01*
X114758926Y-82992372D01*
X114646600Y-82974581D01*
X114643620Y-82974109D01*
X114641757Y-82973814D01*
X114639894Y-82974109D01*
X114636914Y-82974581D01*
X114524588Y-82992372D01*
X114522904Y-82993230D01*
X114420571Y-83045371D01*
X114420569Y-83045373D01*
X114418888Y-83046229D01*
X114335004Y-83130113D01*
X114334148Y-83131794D01*
X114334146Y-83131796D01*
X114319191Y-83161147D01*
X114295762Y-83207131D01*
X114293272Y-83212017D01*
X114279304Y-83223946D01*
X114260992Y-83222505D01*
X114250504Y-83212017D01*
X114207611Y-83127834D01*
X114207609Y-83127832D01*
X114206753Y-83126151D01*
X114122869Y-83042267D01*
X114121188Y-83041411D01*
X114121186Y-83041409D01*
X114018853Y-82989268D01*
X114017169Y-82988410D01*
X113900000Y-82969852D01*
X113898137Y-82970147D01*
X113807890Y-82984441D01*
X113799013Y-82985847D01*
X113781152Y-82981558D01*
X113778288Y-82979113D01*
X112993051Y-82193876D01*
X112990172Y-82190395D01*
X112986299Y-82184696D01*
X112976438Y-82170186D01*
X112973877Y-82168813D01*
X112973876Y-82168812D01*
X112943053Y-82152285D01*
X112941962Y-82151663D01*
X112913945Y-82134696D01*
X112909543Y-82132030D01*
X112906645Y-82131848D01*
X112904696Y-82131237D01*
X112904485Y-82131149D01*
X112904485Y-82131150D01*
X112902384Y-82130479D01*
X112900442Y-82129438D01*
X112897062Y-82129011D01*
X112862314Y-82129011D01*
X112860807Y-82128964D01*
X112826383Y-82126798D01*
X112826381Y-82126798D01*
X112823483Y-82126616D01*
X112820829Y-82127798D01*
X112817972Y-82128312D01*
X112817910Y-82127968D01*
X112813002Y-82129011D01*
X111757147Y-82129011D01*
X111740176Y-82121982D01*
X111433001Y-81814806D01*
X111124865Y-81506670D01*
X111118131Y-81493453D01*
X111117623Y-81490248D01*
X111100610Y-81382831D01*
X111087402Y-81356908D01*
X111047611Y-81278814D01*
X111047609Y-81278812D01*
X111046753Y-81277131D01*
X110962869Y-81193247D01*
X110961188Y-81192391D01*
X110961186Y-81192389D01*
X110858853Y-81140248D01*
X110857169Y-81139390D01*
X110769706Y-81125537D01*
X110754045Y-81115939D01*
X110749756Y-81098077D01*
X110759354Y-81082416D01*
X110769706Y-81078128D01*
X110817169Y-81070610D01*
X110850965Y-81053390D01*
X110921186Y-81017611D01*
X110921188Y-81017609D01*
X110922869Y-81016753D01*
X111006753Y-80932869D01*
X111008790Y-80928873D01*
X111059752Y-80828853D01*
X111060610Y-80827169D01*
X111079168Y-80710000D01*
X111060610Y-80592831D01*
X111054293Y-80580434D01*
X111007611Y-80488814D01*
X111007609Y-80488812D01*
X111006753Y-80487131D01*
X110922869Y-80403247D01*
X110921188Y-80402391D01*
X110921186Y-80402389D01*
X110818853Y-80350248D01*
X110817169Y-80349390D01*
X110716706Y-80333478D01*
X110701863Y-80331127D01*
X110700000Y-80330832D01*
X110698137Y-80331127D01*
X110683294Y-80333478D01*
X110582831Y-80349390D01*
X110581147Y-80350248D01*
X110478814Y-80402389D01*
X110478812Y-80402391D01*
X110477131Y-80403247D01*
X110393247Y-80487131D01*
X110392391Y-80488812D01*
X110392389Y-80488814D01*
X110345707Y-80580434D01*
X110339390Y-80592831D01*
X110320832Y-80710000D01*
X110321127Y-80711863D01*
X110336827Y-80810987D01*
X110332538Y-80828848D01*
X110330093Y-80831712D01*
X110174823Y-80986982D01*
X110157852Y-80994011D01*
X110153553Y-80994011D01*
X110136582Y-80986982D01*
X110129553Y-80970011D01*
X110136582Y-80953040D01*
X110196753Y-80892869D01*
X110202877Y-80880851D01*
X110249752Y-80788853D01*
X110250610Y-80787169D01*
X110267223Y-80682281D01*
X110268873Y-80671863D01*
X110269168Y-80670000D01*
X110267728Y-80660905D01*
X110263913Y-80636820D01*
X110250610Y-80552831D01*
X110243468Y-80538814D01*
X110197611Y-80448814D01*
X110197609Y-80448812D01*
X110196753Y-80447131D01*
X110112869Y-80363247D01*
X110111188Y-80362391D01*
X110111186Y-80362389D01*
X110008853Y-80310248D01*
X110007169Y-80309390D01*
X109890000Y-80290832D01*
X109772831Y-80309390D01*
X109771147Y-80310248D01*
X109668814Y-80362389D01*
X109668812Y-80362391D01*
X109667131Y-80363247D01*
X109583247Y-80447131D01*
X109582391Y-80448812D01*
X109582389Y-80448814D01*
X109536532Y-80538814D01*
X109529390Y-80552831D01*
X109516087Y-80636820D01*
X109512273Y-80660905D01*
X109510832Y-80670000D01*
X109511127Y-80671863D01*
X109512777Y-80682281D01*
X109529390Y-80787169D01*
X109530248Y-80788853D01*
X109577124Y-80880851D01*
X109583247Y-80892869D01*
X109643418Y-80953040D01*
X109650447Y-80970011D01*
X109643418Y-80986982D01*
X109626447Y-80994011D01*
X109432147Y-80994011D01*
X109415176Y-80986982D01*
X109253675Y-80825480D01*
X109087560Y-80659365D01*
X109084681Y-80655884D01*
X109079683Y-80648529D01*
X109070947Y-80635675D01*
X109068386Y-80634302D01*
X109068385Y-80634301D01*
X109037562Y-80617774D01*
X109036471Y-80617152D01*
X109006537Y-80599024D01*
X109004052Y-80597519D01*
X109001154Y-80597337D01*
X108999205Y-80596726D01*
X108998994Y-80596638D01*
X108998994Y-80596639D01*
X108996893Y-80595968D01*
X108994951Y-80594927D01*
X108991571Y-80594500D01*
X108956823Y-80594500D01*
X108955316Y-80594453D01*
X108920892Y-80592287D01*
X108920890Y-80592287D01*
X108917992Y-80592105D01*
X108915338Y-80593287D01*
X108912481Y-80593801D01*
X108912419Y-80593457D01*
X108907511Y-80594500D01*
X98798063Y-80594500D01*
X98793566Y-80594075D01*
X98772414Y-80590040D01*
X98769562Y-80589496D01*
X98766783Y-80590335D01*
X98766782Y-80590335D01*
X98758832Y-80592735D01*
X98740554Y-80590910D01*
X98734925Y-80586730D01*
X97169907Y-79021712D01*
X97162878Y-79004741D01*
X97163173Y-79000987D01*
X97178873Y-78901863D01*
X97179168Y-78900000D01*
X97160610Y-78782831D01*
X97159752Y-78781147D01*
X97107611Y-78678814D01*
X97107609Y-78678812D01*
X97106753Y-78677131D01*
X97022869Y-78593247D01*
X97021188Y-78592391D01*
X97021186Y-78592389D01*
X96918853Y-78540248D01*
X96917169Y-78539390D01*
X96800000Y-78520832D01*
X96682831Y-78539390D01*
X96681147Y-78540248D01*
X96578814Y-78592389D01*
X96578812Y-78592391D01*
X96577131Y-78593247D01*
X96493247Y-78677131D01*
X96492391Y-78678812D01*
X96492389Y-78678814D01*
X96475788Y-78711396D01*
X96461820Y-78723325D01*
X96454404Y-78724500D01*
X96206105Y-78724500D01*
X96188269Y-78716558D01*
X96187195Y-78715366D01*
X96185507Y-78713491D01*
X96182691Y-78712237D01*
X96100239Y-78675527D01*
X96100238Y-78675527D01*
X96097932Y-78674500D01*
X96006541Y-78674500D01*
X96005285Y-78674467D01*
X95966457Y-78672432D01*
X95966456Y-78672432D01*
X95963936Y-78672300D01*
X95940257Y-78681390D01*
X95937521Y-78682440D01*
X95933910Y-78683510D01*
X95908695Y-78688869D01*
X95908693Y-78688870D01*
X95906232Y-78689393D01*
X95904196Y-78690872D01*
X95904192Y-78690874D01*
X95902407Y-78692171D01*
X95884545Y-78696457D01*
X95879118Y-78694926D01*
X95808219Y-78665559D01*
X95808216Y-78665558D01*
X95806762Y-78664956D01*
X95650000Y-78644318D01*
X95493238Y-78664956D01*
X95491783Y-78665559D01*
X95491782Y-78665559D01*
X95430007Y-78691147D01*
X95347159Y-78725464D01*
X95221718Y-78821718D01*
X95125464Y-78947159D01*
X95120277Y-78959681D01*
X95070690Y-79079396D01*
X95064956Y-79093238D01*
X95044318Y-79250000D01*
X95064956Y-79406762D01*
X95125464Y-79552841D01*
X95221718Y-79678282D01*
X95347159Y-79774536D01*
X95493238Y-79835044D01*
X95650000Y-79855682D01*
X95806762Y-79835044D01*
X95952841Y-79774536D01*
X96078282Y-79678282D01*
X96174536Y-79552841D01*
X96235044Y-79406762D01*
X96255682Y-79250000D01*
X96244411Y-79164390D01*
X96236281Y-79102633D01*
X96241036Y-79084890D01*
X96256943Y-79075705D01*
X96260076Y-79075500D01*
X96454404Y-79075500D01*
X96471375Y-79082529D01*
X96475788Y-79088604D01*
X96490568Y-79117611D01*
X96493247Y-79122869D01*
X96577131Y-79206753D01*
X96578812Y-79207609D01*
X96578814Y-79207611D01*
X96680984Y-79259669D01*
X96682831Y-79260610D01*
X96800000Y-79279168D01*
X96858472Y-79269907D01*
X96900988Y-79263173D01*
X96918849Y-79267462D01*
X96921713Y-79269907D01*
X97753106Y-80101301D01*
X98574202Y-80922397D01*
X98579155Y-80929605D01*
X98581689Y-80935296D01*
X98583965Y-80937100D01*
X98606691Y-80955112D01*
X98608755Y-80956950D01*
X98615533Y-80963728D01*
X98617728Y-80965057D01*
X98622837Y-80968151D01*
X98625310Y-80969869D01*
X98629572Y-80973247D01*
X98646257Y-80986471D01*
X98649267Y-80988857D01*
X98652118Y-80989401D01*
X98656354Y-80990209D01*
X98664287Y-80993255D01*
X98667973Y-80995487D01*
X98667975Y-80995488D01*
X98670459Y-80996992D01*
X98700967Y-80998912D01*
X98703945Y-80999288D01*
X98733971Y-81005016D01*
X98736749Y-81004177D01*
X98736752Y-81004177D01*
X98740875Y-81002932D01*
X98749319Y-81001954D01*
X98750445Y-81002025D01*
X98753620Y-81002225D01*
X98753622Y-81002225D01*
X98756519Y-81002407D01*
X98784445Y-80989973D01*
X98787262Y-80988926D01*
X98807321Y-80982869D01*
X98814412Y-80980728D01*
X98814413Y-80980728D01*
X98816521Y-80980091D01*
X98819213Y-80978003D01*
X98822395Y-80974821D01*
X98829604Y-80969867D01*
X98830429Y-80969500D01*
X98835296Y-80967333D01*
X98838856Y-80962841D01*
X98845395Y-80954592D01*
X98861445Y-80945659D01*
X98864203Y-80945500D01*
X107486936Y-80945500D01*
X107503907Y-80952529D01*
X107510936Y-80969500D01*
X107503907Y-80986471D01*
X107433247Y-81057131D01*
X107432391Y-81058812D01*
X107432389Y-81058814D01*
X107385241Y-81151348D01*
X107379390Y-81162831D01*
X107360832Y-81280000D01*
X107361127Y-81281863D01*
X107376827Y-81380988D01*
X107372538Y-81398849D01*
X107370093Y-81401713D01*
X107030611Y-81741194D01*
X107013640Y-81748223D01*
X107002891Y-81745344D01*
X107002841Y-81745464D01*
X106871754Y-81691166D01*
X106858218Y-81685559D01*
X106858217Y-81685559D01*
X106856762Y-81684956D01*
X106700000Y-81664318D01*
X106543238Y-81684956D01*
X106541783Y-81685559D01*
X106541782Y-81685559D01*
X106488911Y-81707459D01*
X106397159Y-81745464D01*
X106271718Y-81841718D01*
X106175464Y-81967159D01*
X106164105Y-81994581D01*
X106122841Y-82094203D01*
X106114956Y-82113238D01*
X106094318Y-82270000D01*
X106114956Y-82426762D01*
X106115559Y-82428217D01*
X106115559Y-82428218D01*
X106137484Y-82481150D01*
X106175464Y-82572841D01*
X106271718Y-82698282D01*
X106397159Y-82794536D01*
X106446563Y-82815000D01*
X106541266Y-82854227D01*
X106543238Y-82855044D01*
X106700000Y-82875682D01*
X106856762Y-82855044D01*
X106858735Y-82854227D01*
X106953437Y-82815000D01*
X107002841Y-82794536D01*
X107128282Y-82698282D01*
X107224536Y-82572841D01*
X107262516Y-82481150D01*
X107284441Y-82428218D01*
X107284441Y-82428217D01*
X107285044Y-82426762D01*
X107305682Y-82270000D01*
X107297783Y-82210000D01*
X108454318Y-82210000D01*
X108474956Y-82366762D01*
X108475559Y-82368217D01*
X108475559Y-82368218D01*
X108488724Y-82400000D01*
X108535464Y-82512841D01*
X108631718Y-82638282D01*
X108757159Y-82734536D01*
X108810817Y-82756762D01*
X108900846Y-82794053D01*
X108903238Y-82795044D01*
X109060000Y-82815682D01*
X109216762Y-82795044D01*
X109219155Y-82794053D01*
X109309183Y-82756762D01*
X109362841Y-82734536D01*
X109488282Y-82638282D01*
X109584536Y-82512841D01*
X109631276Y-82400000D01*
X109644441Y-82368218D01*
X109644441Y-82368217D01*
X109645044Y-82366762D01*
X109665682Y-82210000D01*
X109650032Y-82091127D01*
X109654787Y-82073384D01*
X109670694Y-82064199D01*
X109688437Y-82068954D01*
X109695211Y-82077098D01*
X109701387Y-82089218D01*
X109703247Y-82092869D01*
X109787131Y-82176753D01*
X109788812Y-82177609D01*
X109788814Y-82177611D01*
X109890001Y-82229168D01*
X109892831Y-82230610D01*
X109972560Y-82243238D01*
X110003491Y-82248137D01*
X110010000Y-82249168D01*
X110016510Y-82248137D01*
X110047440Y-82243238D01*
X110127169Y-82230610D01*
X110129999Y-82229168D01*
X110231186Y-82177611D01*
X110231188Y-82177609D01*
X110232869Y-82176753D01*
X110316753Y-82092869D01*
X110318614Y-82089218D01*
X110369752Y-81988853D01*
X110370610Y-81987169D01*
X110386771Y-81885133D01*
X110388873Y-81871863D01*
X110389168Y-81870000D01*
X110388755Y-81867389D01*
X110384887Y-81842973D01*
X110370610Y-81752831D01*
X110368262Y-81748223D01*
X110317611Y-81648814D01*
X110317609Y-81648812D01*
X110316753Y-81647131D01*
X110232869Y-81563247D01*
X110231188Y-81562391D01*
X110231186Y-81562389D01*
X110128856Y-81510249D01*
X110128853Y-81510248D01*
X110127169Y-81509390D01*
X110071301Y-81500541D01*
X110057053Y-81492708D01*
X110051863Y-81486821D01*
X110047941Y-81480712D01*
X110044003Y-81471866D01*
X110044001Y-81471864D01*
X110042822Y-81469215D01*
X110022986Y-81453493D01*
X110019892Y-81450556D01*
X110005080Y-81433755D01*
X110005078Y-81433753D01*
X110003158Y-81431576D01*
X109991412Y-81427067D01*
X109985106Y-81423470D01*
X109977520Y-81417457D01*
X109975244Y-81415653D01*
X109966382Y-81413963D01*
X109950381Y-81410910D01*
X109946277Y-81409741D01*
X109925366Y-81401714D01*
X109922654Y-81400673D01*
X109910157Y-81402119D01*
X109902902Y-81401853D01*
X109902174Y-81401714D01*
X109890541Y-81399495D01*
X109887762Y-81400334D01*
X109887761Y-81400334D01*
X109866310Y-81406810D01*
X109862133Y-81407675D01*
X109839881Y-81410250D01*
X109836995Y-81410584D01*
X109834591Y-81412218D01*
X109834590Y-81412218D01*
X109826587Y-81417656D01*
X109820035Y-81420781D01*
X109810104Y-81423780D01*
X109810101Y-81423782D01*
X109807990Y-81424419D01*
X109805298Y-81426507D01*
X109789365Y-81442440D01*
X109785884Y-81445319D01*
X109765675Y-81459053D01*
X109761193Y-81467413D01*
X109759170Y-81471185D01*
X109754990Y-81476815D01*
X109745323Y-81486482D01*
X109728352Y-81493511D01*
X109620034Y-81493511D01*
X109615537Y-81493086D01*
X109594381Y-81489050D01*
X109591529Y-81488506D01*
X109588750Y-81489345D01*
X109555244Y-81499461D01*
X109554032Y-81499792D01*
X109520068Y-81508135D01*
X109517247Y-81508828D01*
X109515069Y-81510748D01*
X109513260Y-81511694D01*
X109513050Y-81511780D01*
X109513051Y-81511782D01*
X109511092Y-81512793D01*
X109508979Y-81513431D01*
X109507236Y-81514783D01*
X109507234Y-81514784D01*
X109506974Y-81514986D01*
X109506287Y-81515519D01*
X109481718Y-81540088D01*
X109480619Y-81541120D01*
X109452565Y-81565853D01*
X109451525Y-81568563D01*
X109449867Y-81570948D01*
X109449580Y-81570749D01*
X109446848Y-81574958D01*
X109355442Y-81666364D01*
X109338471Y-81673393D01*
X109329288Y-81671566D01*
X109216762Y-81624956D01*
X109060000Y-81604318D01*
X108903238Y-81624956D01*
X108901783Y-81625559D01*
X108901782Y-81625559D01*
X108859258Y-81643173D01*
X108757159Y-81685464D01*
X108631718Y-81781718D01*
X108535464Y-81907159D01*
X108520516Y-81943247D01*
X108489425Y-82018308D01*
X108474956Y-82053238D01*
X108454318Y-82210000D01*
X107297783Y-82210000D01*
X107285044Y-82113238D01*
X107271614Y-82080814D01*
X107253079Y-82036068D01*
X107253079Y-82017700D01*
X107258281Y-82009913D01*
X107618287Y-81649907D01*
X107635258Y-81642878D01*
X107639012Y-81643173D01*
X107724374Y-81656693D01*
X107740000Y-81659168D01*
X107857169Y-81640610D01*
X107888294Y-81624751D01*
X107961186Y-81587611D01*
X107961188Y-81587609D01*
X107962869Y-81586753D01*
X108046753Y-81502869D01*
X108047861Y-81500696D01*
X108099752Y-81398853D01*
X108100610Y-81397169D01*
X108118233Y-81285905D01*
X108118873Y-81281863D01*
X108119168Y-81280000D01*
X108100610Y-81162831D01*
X108094759Y-81151348D01*
X108047611Y-81058814D01*
X108047609Y-81058812D01*
X108046753Y-81057131D01*
X107976093Y-80986471D01*
X107969064Y-80969500D01*
X107976093Y-80952529D01*
X107993064Y-80945500D01*
X108867364Y-80945500D01*
X108884335Y-80952529D01*
X109051557Y-81119752D01*
X109211951Y-81280146D01*
X109214830Y-81283627D01*
X109228564Y-81303836D01*
X109231125Y-81305209D01*
X109231126Y-81305210D01*
X109261949Y-81321737D01*
X109263040Y-81322359D01*
X109275152Y-81329694D01*
X109295459Y-81341992D01*
X109298357Y-81342174D01*
X109300306Y-81342785D01*
X109300517Y-81342873D01*
X109300517Y-81342872D01*
X109302618Y-81343543D01*
X109304560Y-81344584D01*
X109307940Y-81345011D01*
X109342688Y-81345011D01*
X109344195Y-81345058D01*
X109378619Y-81347224D01*
X109378621Y-81347224D01*
X109381519Y-81347406D01*
X109384173Y-81346224D01*
X109387030Y-81345710D01*
X109387092Y-81346054D01*
X109392000Y-81345011D01*
X110221444Y-81345011D01*
X110225941Y-81345436D01*
X110246626Y-81349382D01*
X110249949Y-81350016D01*
X110253599Y-81348914D01*
X110286234Y-81339061D01*
X110287446Y-81338730D01*
X110321410Y-81330387D01*
X110324231Y-81329694D01*
X110326409Y-81327774D01*
X110328218Y-81326828D01*
X110328428Y-81326742D01*
X110328427Y-81326740D01*
X110330386Y-81325729D01*
X110332499Y-81325091D01*
X110334242Y-81323739D01*
X110334244Y-81323738D01*
X110334592Y-81323468D01*
X110334596Y-81323465D01*
X110335191Y-81323003D01*
X110359762Y-81298433D01*
X110360843Y-81297417D01*
X110379159Y-81281269D01*
X110396537Y-81275319D01*
X110413033Y-81283400D01*
X110418983Y-81300779D01*
X110416414Y-81310167D01*
X110379390Y-81382831D01*
X110360832Y-81500000D01*
X110379390Y-81617169D01*
X110380248Y-81618853D01*
X110431632Y-81719699D01*
X110433247Y-81722869D01*
X110517131Y-81806753D01*
X110518812Y-81807609D01*
X110518814Y-81807611D01*
X110596434Y-81847160D01*
X110622831Y-81860610D01*
X110740000Y-81879168D01*
X110857169Y-81860610D01*
X110883566Y-81847160D01*
X110924603Y-81826251D01*
X110942915Y-81824810D01*
X110952470Y-81830664D01*
X111536949Y-82415143D01*
X111539828Y-82418624D01*
X111553564Y-82438836D01*
X111586238Y-82456355D01*
X111586948Y-82456736D01*
X111588040Y-82457358D01*
X111617975Y-82475488D01*
X111617976Y-82475488D01*
X111620459Y-82476992D01*
X111623357Y-82477174D01*
X111625306Y-82477785D01*
X111625517Y-82477873D01*
X111625517Y-82477872D01*
X111627618Y-82478543D01*
X111629560Y-82479584D01*
X111632940Y-82480011D01*
X111667688Y-82480011D01*
X111669195Y-82480058D01*
X111703619Y-82482224D01*
X111703621Y-82482224D01*
X111706519Y-82482406D01*
X111709173Y-82481224D01*
X111712030Y-82480710D01*
X111712092Y-82481054D01*
X111717000Y-82480011D01*
X112772855Y-82480011D01*
X112789826Y-82487040D01*
X113530093Y-83227308D01*
X113537122Y-83244279D01*
X113536827Y-83248032D01*
X113528891Y-83298137D01*
X113527041Y-83309819D01*
X113517443Y-83325480D01*
X113499581Y-83329769D01*
X113483920Y-83320171D01*
X113480804Y-83314057D01*
X113480610Y-83312831D01*
X113450681Y-83254092D01*
X113427611Y-83208814D01*
X113427609Y-83208812D01*
X113426753Y-83207131D01*
X113342869Y-83123247D01*
X113341188Y-83122391D01*
X113341186Y-83122389D01*
X113238853Y-83070248D01*
X113237169Y-83069390D01*
X113120000Y-83050832D01*
X113002831Y-83069390D01*
X113001147Y-83070248D01*
X112898814Y-83122389D01*
X112898812Y-83122391D01*
X112897131Y-83123247D01*
X112813247Y-83207131D01*
X112812391Y-83208812D01*
X112812389Y-83208814D01*
X112772627Y-83286852D01*
X112758659Y-83298781D01*
X112740347Y-83297340D01*
X112728418Y-83283372D01*
X112727538Y-83279710D01*
X112726104Y-83270654D01*
X112710610Y-83172831D01*
X112688844Y-83130113D01*
X112657611Y-83068814D01*
X112657609Y-83068812D01*
X112656753Y-83067131D01*
X112572869Y-82983247D01*
X112571188Y-82982391D01*
X112571186Y-82982389D01*
X112468853Y-82930248D01*
X112467169Y-82929390D01*
X112369965Y-82913994D01*
X112351863Y-82911127D01*
X112350000Y-82910832D01*
X112348137Y-82911127D01*
X112330035Y-82913994D01*
X112232831Y-82929390D01*
X112231147Y-82930248D01*
X112128814Y-82982389D01*
X112128812Y-82982391D01*
X112127131Y-82983247D01*
X112043247Y-83067131D01*
X112042390Y-83068812D01*
X112042389Y-83068814D01*
X112030883Y-83091396D01*
X112016915Y-83103325D01*
X112009499Y-83104500D01*
X110685596Y-83104500D01*
X110668625Y-83097471D01*
X110664212Y-83091396D01*
X110647611Y-83058814D01*
X110647609Y-83058812D01*
X110646753Y-83057131D01*
X110562869Y-82973247D01*
X110561188Y-82972391D01*
X110561186Y-82972389D01*
X110458853Y-82920248D01*
X110457169Y-82919390D01*
X110351232Y-82902611D01*
X110341863Y-82901127D01*
X110340000Y-82900832D01*
X110338137Y-82901127D01*
X110243476Y-82916120D01*
X110225615Y-82911831D01*
X110216017Y-82896169D01*
X110220306Y-82878308D01*
X110222751Y-82875444D01*
X110457315Y-82640879D01*
X110474286Y-82633850D01*
X110491257Y-82640879D01*
X110547131Y-82696753D01*
X110548812Y-82697609D01*
X110548814Y-82697611D01*
X110639570Y-82743853D01*
X110652831Y-82750610D01*
X110770000Y-82769168D01*
X110887169Y-82750610D01*
X110900430Y-82743853D01*
X110991186Y-82697611D01*
X110991188Y-82697609D01*
X110992869Y-82696753D01*
X111076753Y-82612869D01*
X111080571Y-82605377D01*
X111129752Y-82508853D01*
X111130610Y-82507169D01*
X111149168Y-82390000D01*
X111130610Y-82272831D01*
X111125593Y-82262984D01*
X111077611Y-82168814D01*
X111077609Y-82168812D01*
X111076753Y-82167131D01*
X110992869Y-82083247D01*
X110991188Y-82082391D01*
X110991186Y-82082389D01*
X110888853Y-82030248D01*
X110887169Y-82029390D01*
X110770000Y-82010832D01*
X110652831Y-82029390D01*
X110651147Y-82030248D01*
X110548814Y-82082389D01*
X110548812Y-82082391D01*
X110547131Y-82083247D01*
X110463247Y-82167131D01*
X110462391Y-82168812D01*
X110462389Y-82168814D01*
X110457933Y-82177560D01*
X110444694Y-82203543D01*
X110430246Y-82215622D01*
X110414248Y-82220451D01*
X110413038Y-82220782D01*
X110387660Y-82227016D01*
X110376258Y-82229817D01*
X110374079Y-82231738D01*
X110372271Y-82232683D01*
X110372059Y-82232770D01*
X110372060Y-82232771D01*
X110370103Y-82233781D01*
X110367990Y-82234419D01*
X110366247Y-82235771D01*
X110366245Y-82235772D01*
X110365985Y-82235974D01*
X110365298Y-82236507D01*
X110340713Y-82261092D01*
X110339628Y-82262110D01*
X110311576Y-82286842D01*
X110310534Y-82289556D01*
X110308878Y-82291939D01*
X110308591Y-82291739D01*
X110305860Y-82295945D01*
X110280783Y-82321022D01*
X110280782Y-82321024D01*
X109094334Y-83507471D01*
X109077363Y-83514500D01*
X100519501Y-83514500D01*
X100502530Y-83507471D01*
X100495501Y-83490500D01*
X100502530Y-83473529D01*
X100508605Y-83469116D01*
X100531186Y-83457611D01*
X100531188Y-83457609D01*
X100532869Y-83456753D01*
X100616753Y-83372869D01*
X100618763Y-83368926D01*
X100669752Y-83268853D01*
X100670610Y-83267169D01*
X100687148Y-83162751D01*
X100688873Y-83151863D01*
X100689168Y-83150000D01*
X100670610Y-83032831D01*
X100667653Y-83027027D01*
X100617611Y-82928814D01*
X100617609Y-82928812D01*
X100616753Y-82927131D01*
X100532869Y-82843247D01*
X100531188Y-82842391D01*
X100531186Y-82842389D01*
X100428853Y-82790248D01*
X100427169Y-82789390D01*
X100315998Y-82771782D01*
X100311863Y-82771127D01*
X100310000Y-82770832D01*
X100308137Y-82771127D01*
X100304002Y-82771782D01*
X100192831Y-82789390D01*
X100191147Y-82790248D01*
X100088814Y-82842389D01*
X100088812Y-82842391D01*
X100087131Y-82843247D01*
X100003247Y-82927131D01*
X100002391Y-82928812D01*
X100002389Y-82928814D01*
X99985788Y-82961396D01*
X99971820Y-82973325D01*
X99964404Y-82974500D01*
X99892636Y-82974500D01*
X99875665Y-82967471D01*
X99603637Y-82695442D01*
X99596608Y-82678471D01*
X99598435Y-82669287D01*
X99644441Y-82558219D01*
X99644442Y-82558216D01*
X99645044Y-82556762D01*
X99665682Y-82400000D01*
X99660416Y-82360000D01*
X100974318Y-82360000D01*
X100994956Y-82516762D01*
X100995559Y-82518217D01*
X100995559Y-82518218D01*
X101018872Y-82574500D01*
X101055464Y-82662841D01*
X101151718Y-82788282D01*
X101277159Y-82884536D01*
X101332157Y-82907317D01*
X101394758Y-82933247D01*
X101423238Y-82945044D01*
X101580000Y-82965682D01*
X101736762Y-82945044D01*
X101849287Y-82898434D01*
X101867655Y-82898434D01*
X101875442Y-82903636D01*
X102142438Y-83170632D01*
X102145317Y-83174113D01*
X102159053Y-83194325D01*
X102191727Y-83211844D01*
X102192437Y-83212225D01*
X102193529Y-83212847D01*
X102223464Y-83230977D01*
X102223465Y-83230977D01*
X102225948Y-83232481D01*
X102228846Y-83232663D01*
X102230795Y-83233274D01*
X102231006Y-83233362D01*
X102231006Y-83233361D01*
X102233107Y-83234032D01*
X102235049Y-83235073D01*
X102238429Y-83235500D01*
X102273177Y-83235500D01*
X102274684Y-83235547D01*
X102309108Y-83237713D01*
X102309110Y-83237713D01*
X102312008Y-83237895D01*
X102314662Y-83236713D01*
X102317519Y-83236199D01*
X102317581Y-83236543D01*
X102322489Y-83235500D01*
X102474404Y-83235500D01*
X102491375Y-83242529D01*
X102495788Y-83248604D01*
X102510836Y-83278137D01*
X102513247Y-83282869D01*
X102597131Y-83366753D01*
X102598812Y-83367609D01*
X102598814Y-83367611D01*
X102696078Y-83417169D01*
X102702831Y-83420610D01*
X102820000Y-83439168D01*
X102937169Y-83420610D01*
X102943922Y-83417169D01*
X103041186Y-83367611D01*
X103041188Y-83367609D01*
X103042869Y-83366753D01*
X103126753Y-83282869D01*
X103129165Y-83278137D01*
X103179752Y-83178853D01*
X103180610Y-83177169D01*
X103197681Y-83069390D01*
X103198873Y-83061863D01*
X103199168Y-83060000D01*
X103180610Y-82942831D01*
X103175243Y-82932297D01*
X103127611Y-82838814D01*
X103127609Y-82838812D01*
X103126753Y-82837131D01*
X103042869Y-82753247D01*
X103041188Y-82752391D01*
X103041186Y-82752389D01*
X102938853Y-82700248D01*
X102937169Y-82699390D01*
X102839965Y-82683994D01*
X102821863Y-82681127D01*
X102820000Y-82680832D01*
X102818137Y-82681127D01*
X102800035Y-82683994D01*
X102702831Y-82699390D01*
X102701147Y-82700248D01*
X102598814Y-82752389D01*
X102598812Y-82752391D01*
X102597131Y-82753247D01*
X102513247Y-82837131D01*
X102512391Y-82838812D01*
X102512389Y-82838814D01*
X102502220Y-82858773D01*
X102496729Y-82869550D01*
X102495788Y-82871396D01*
X102481820Y-82883325D01*
X102474404Y-82884500D01*
X102362636Y-82884500D01*
X102345665Y-82877471D01*
X102123637Y-82655442D01*
X102116608Y-82638471D01*
X102118435Y-82629287D01*
X102164441Y-82518219D01*
X102164442Y-82518216D01*
X102165044Y-82516762D01*
X102185682Y-82360000D01*
X102184365Y-82350000D01*
X103584318Y-82350000D01*
X103604956Y-82506762D01*
X103605559Y-82508217D01*
X103605559Y-82508218D01*
X103608494Y-82515304D01*
X103665464Y-82652841D01*
X103761718Y-82778282D01*
X103887159Y-82874536D01*
X103948439Y-82899919D01*
X104028900Y-82933247D01*
X104033238Y-82935044D01*
X104190000Y-82955682D01*
X104346762Y-82935044D01*
X104351101Y-82933247D01*
X104431561Y-82899919D01*
X104492841Y-82874536D01*
X104618282Y-82778282D01*
X104714536Y-82652841D01*
X104771506Y-82515304D01*
X104774441Y-82508218D01*
X104774441Y-82508217D01*
X104775044Y-82506762D01*
X104790894Y-82386367D01*
X104800079Y-82370460D01*
X104814689Y-82365500D01*
X104884404Y-82365500D01*
X104901375Y-82372529D01*
X104905788Y-82378604D01*
X104919167Y-82404861D01*
X104923247Y-82412869D01*
X105007131Y-82496753D01*
X105008812Y-82497609D01*
X105008814Y-82497611D01*
X105081708Y-82534752D01*
X105112831Y-82550610D01*
X105205604Y-82565304D01*
X105219286Y-82567471D01*
X105230000Y-82569168D01*
X105240715Y-82567471D01*
X105254396Y-82565304D01*
X105347169Y-82550610D01*
X105378292Y-82534752D01*
X105451186Y-82497611D01*
X105451188Y-82497609D01*
X105452869Y-82496753D01*
X105536753Y-82412869D01*
X105540834Y-82404861D01*
X105589752Y-82308853D01*
X105590610Y-82307169D01*
X105609168Y-82190000D01*
X105590610Y-82072831D01*
X105586212Y-82064199D01*
X105537611Y-81968814D01*
X105537609Y-81968812D01*
X105536753Y-81967131D01*
X105452869Y-81883247D01*
X105451188Y-81882391D01*
X105451186Y-81882389D01*
X105348853Y-81830248D01*
X105347169Y-81829390D01*
X105230000Y-81810832D01*
X105112831Y-81829390D01*
X105111147Y-81830248D01*
X105008814Y-81882389D01*
X105008812Y-81882391D01*
X105007131Y-81883247D01*
X104923247Y-81967131D01*
X104922391Y-81968812D01*
X104922389Y-81968814D01*
X104905788Y-82001396D01*
X104891820Y-82013325D01*
X104884404Y-82014500D01*
X104701311Y-82014500D01*
X104684340Y-82007471D01*
X104682271Y-82005110D01*
X104619245Y-81922973D01*
X104618282Y-81921718D01*
X104492841Y-81825464D01*
X104346762Y-81764956D01*
X104190000Y-81744318D01*
X104033238Y-81764956D01*
X103887159Y-81825464D01*
X103761718Y-81921718D01*
X103665464Y-82047159D01*
X103645094Y-82096336D01*
X103614256Y-82170787D01*
X103604956Y-82193238D01*
X103584318Y-82350000D01*
X102184365Y-82350000D01*
X102165044Y-82203238D01*
X102161549Y-82194799D01*
X102121021Y-82096957D01*
X102104536Y-82057159D01*
X102008282Y-81931718D01*
X101882841Y-81835464D01*
X101736762Y-81774956D01*
X101580000Y-81754318D01*
X101423238Y-81774956D01*
X101277159Y-81835464D01*
X101151718Y-81931718D01*
X101055464Y-82057159D01*
X101038979Y-82096957D01*
X100998452Y-82194799D01*
X100994956Y-82203238D01*
X100974318Y-82360000D01*
X99660416Y-82360000D01*
X99645044Y-82243238D01*
X99641952Y-82235772D01*
X99597769Y-82129106D01*
X99584536Y-82097159D01*
X99488282Y-81971718D01*
X99362841Y-81875464D01*
X99255073Y-81830825D01*
X99218218Y-81815559D01*
X99218217Y-81815559D01*
X99216762Y-81814956D01*
X99060000Y-81794318D01*
X98903238Y-81814956D01*
X98901783Y-81815559D01*
X98901782Y-81815559D01*
X98864927Y-81830825D01*
X98757159Y-81875464D01*
X98631718Y-81971718D01*
X98535464Y-82097159D01*
X98522231Y-82129106D01*
X98478049Y-82235772D01*
X98474956Y-82243238D01*
X98454318Y-82400000D01*
X98474956Y-82556762D01*
X98475559Y-82558217D01*
X98475559Y-82558218D01*
X98480095Y-82569168D01*
X98535464Y-82702841D01*
X98631718Y-82828282D01*
X98757159Y-82924536D01*
X98806670Y-82945044D01*
X98898900Y-82983247D01*
X98903238Y-82985044D01*
X99060000Y-83005682D01*
X99216762Y-82985044D01*
X99329287Y-82938434D01*
X99347655Y-82938434D01*
X99355442Y-82943636D01*
X99672438Y-83260632D01*
X99675317Y-83264113D01*
X99689053Y-83284325D01*
X99714813Y-83298137D01*
X99722437Y-83302225D01*
X99723529Y-83302847D01*
X99753464Y-83320977D01*
X99753465Y-83320977D01*
X99755948Y-83322481D01*
X99758846Y-83322663D01*
X99760795Y-83323274D01*
X99761006Y-83323362D01*
X99761006Y-83323361D01*
X99763107Y-83324032D01*
X99765049Y-83325073D01*
X99768429Y-83325500D01*
X99803177Y-83325500D01*
X99804684Y-83325547D01*
X99839108Y-83327713D01*
X99839110Y-83327713D01*
X99842008Y-83327895D01*
X99844662Y-83326713D01*
X99847519Y-83326199D01*
X99847581Y-83326543D01*
X99852489Y-83325500D01*
X99964404Y-83325500D01*
X99981375Y-83332529D01*
X99985788Y-83338604D01*
X100001238Y-83368926D01*
X100003247Y-83372869D01*
X100087131Y-83456753D01*
X100088812Y-83457609D01*
X100088814Y-83457611D01*
X100111395Y-83469116D01*
X100123324Y-83483083D01*
X100121883Y-83501396D01*
X100107916Y-83513325D01*
X100100499Y-83514500D01*
X88518731Y-83514500D01*
X88501760Y-83507471D01*
X88494731Y-83490500D01*
X88501760Y-83473529D01*
X88509545Y-83468328D01*
X88530987Y-83459446D01*
X88541388Y-83455138D01*
X88541389Y-83455137D01*
X88542841Y-83454536D01*
X88668282Y-83358282D01*
X88764536Y-83232841D01*
X88809379Y-83124581D01*
X88824441Y-83088218D01*
X88824441Y-83088217D01*
X88825044Y-83086762D01*
X88845682Y-82930000D01*
X88825044Y-82773238D01*
X88816764Y-82753247D01*
X88785790Y-82678471D01*
X88764536Y-82627159D01*
X88668282Y-82501718D01*
X88542841Y-82405464D01*
X88433081Y-82360000D01*
X88398218Y-82345559D01*
X88398217Y-82345559D01*
X88396762Y-82344956D01*
X88240000Y-82324318D01*
X88083238Y-82344956D01*
X88081783Y-82345559D01*
X88081782Y-82345559D01*
X88046919Y-82360000D01*
X87937159Y-82405464D01*
X87811718Y-82501718D01*
X87715464Y-82627159D01*
X87694210Y-82678471D01*
X87663237Y-82753247D01*
X87654956Y-82773238D01*
X87634318Y-82930000D01*
X87654956Y-83086762D01*
X87655559Y-83088217D01*
X87655559Y-83088218D01*
X87670621Y-83124581D01*
X87715464Y-83232841D01*
X87811718Y-83358282D01*
X87812973Y-83359245D01*
X87885110Y-83414598D01*
X87894295Y-83430505D01*
X87894500Y-83433638D01*
X87894500Y-83490500D01*
X87887471Y-83507471D01*
X87870500Y-83514500D01*
X83767992Y-83514500D01*
X83751021Y-83507471D01*
X83557049Y-83313499D01*
X83550020Y-83296528D01*
X83550020Y-82733102D01*
X83557049Y-82716131D01*
X83563125Y-82711718D01*
X83571184Y-82707612D01*
X83571186Y-82707610D01*
X83572869Y-82706753D01*
X83656753Y-82622869D01*
X83661849Y-82612869D01*
X83709752Y-82518853D01*
X83710610Y-82517169D01*
X83721249Y-82450000D01*
X83820832Y-82450000D01*
X83839390Y-82567169D01*
X83840248Y-82568853D01*
X83891422Y-82669287D01*
X83893247Y-82672869D01*
X83977131Y-82756753D01*
X83978812Y-82757609D01*
X83978814Y-82757611D01*
X84071970Y-82805076D01*
X84082831Y-82810610D01*
X84200000Y-82829168D01*
X84317169Y-82810610D01*
X84328030Y-82805076D01*
X84421186Y-82757611D01*
X84421188Y-82757609D01*
X84422869Y-82756753D01*
X84506753Y-82672869D01*
X84508579Y-82669287D01*
X84559752Y-82568853D01*
X84560610Y-82567169D01*
X84579168Y-82450000D01*
X84560610Y-82332831D01*
X84556149Y-82324075D01*
X84550559Y-82313104D01*
X84993798Y-82313104D01*
X85003673Y-82452582D01*
X85054124Y-82582990D01*
X85055233Y-82584396D01*
X85055233Y-82584397D01*
X85126030Y-82674203D01*
X85140690Y-82692799D01*
X85142166Y-82693819D01*
X85142167Y-82693820D01*
X85254237Y-82771276D01*
X85254240Y-82771277D01*
X85255718Y-82772299D01*
X85389036Y-82814462D01*
X85395871Y-82815000D01*
X85497534Y-82815000D01*
X85498415Y-82814867D01*
X85498422Y-82814867D01*
X85599100Y-82799731D01*
X85599103Y-82799730D01*
X85600873Y-82799464D01*
X85726921Y-82738936D01*
X85829599Y-82644022D01*
X85879437Y-82558219D01*
X85898926Y-82524666D01*
X85898926Y-82524665D01*
X85899829Y-82523111D01*
X85909657Y-82480710D01*
X85930997Y-82388645D01*
X85930997Y-82388642D01*
X85931402Y-82386896D01*
X85921527Y-82247418D01*
X85871076Y-82117010D01*
X85868103Y-82113238D01*
X85785620Y-82008609D01*
X85784510Y-82007201D01*
X85770490Y-81997511D01*
X85670963Y-81928724D01*
X85670960Y-81928723D01*
X85669482Y-81927701D01*
X85536164Y-81885538D01*
X85529329Y-81885000D01*
X85427666Y-81885000D01*
X85426785Y-81885133D01*
X85426778Y-81885133D01*
X85326100Y-81900269D01*
X85326097Y-81900270D01*
X85324327Y-81900536D01*
X85198279Y-81961064D01*
X85095601Y-82055978D01*
X85094699Y-82057531D01*
X85027646Y-82172973D01*
X85025371Y-82176889D01*
X85021434Y-82193876D01*
X84995174Y-82307169D01*
X84993798Y-82313104D01*
X84550559Y-82313104D01*
X84507611Y-82228814D01*
X84507609Y-82228812D01*
X84506753Y-82227131D01*
X84422869Y-82143247D01*
X84421188Y-82142390D01*
X84421186Y-82142389D01*
X84413604Y-82138526D01*
X84401674Y-82124558D01*
X84400500Y-82117142D01*
X84400500Y-81942992D01*
X84407529Y-81926021D01*
X84821297Y-81512253D01*
X88608579Y-81512253D01*
X88608874Y-81514116D01*
X88609451Y-81517761D01*
X88627137Y-81629422D01*
X88627995Y-81631106D01*
X88679668Y-81732519D01*
X88680994Y-81735122D01*
X88764878Y-81819006D01*
X88766559Y-81819862D01*
X88766561Y-81819864D01*
X88864137Y-81869581D01*
X88870578Y-81872863D01*
X88987747Y-81891421D01*
X89104916Y-81872863D01*
X89105914Y-81872355D01*
X89123913Y-81873770D01*
X89129989Y-81878184D01*
X89962440Y-82710635D01*
X89965319Y-82714116D01*
X89979053Y-82734325D01*
X89981614Y-82735698D01*
X89981615Y-82735699D01*
X90012438Y-82752226D01*
X90013529Y-82752848D01*
X90019977Y-82756753D01*
X90045948Y-82772481D01*
X90048846Y-82772663D01*
X90050795Y-82773274D01*
X90051006Y-82773362D01*
X90051006Y-82773361D01*
X90053107Y-82774032D01*
X90055049Y-82775073D01*
X90058429Y-82775500D01*
X90093169Y-82775500D01*
X90094676Y-82775547D01*
X90129109Y-82777714D01*
X90129111Y-82777714D01*
X90132008Y-82777896D01*
X90134662Y-82776714D01*
X90137519Y-82776200D01*
X90137581Y-82776544D01*
X90142491Y-82775500D01*
X90756682Y-82775500D01*
X90773653Y-82782529D01*
X90778855Y-82790316D01*
X90825464Y-82902841D01*
X90921718Y-83028282D01*
X91047159Y-83124536D01*
X91060623Y-83130113D01*
X91189453Y-83183476D01*
X91193238Y-83185044D01*
X91350000Y-83205682D01*
X91506762Y-83185044D01*
X91510548Y-83183476D01*
X91639377Y-83130113D01*
X91652841Y-83124536D01*
X91778282Y-83028282D01*
X91874536Y-82902841D01*
X91910430Y-82816186D01*
X91934441Y-82758218D01*
X91934441Y-82758217D01*
X91935044Y-82756762D01*
X91955682Y-82600000D01*
X91935044Y-82443238D01*
X91927283Y-82424500D01*
X91895679Y-82348202D01*
X91874536Y-82297159D01*
X91778282Y-82171718D01*
X91652841Y-82075464D01*
X91535822Y-82026993D01*
X91508218Y-82015559D01*
X91508217Y-82015559D01*
X91506762Y-82014956D01*
X91350000Y-81994318D01*
X91193238Y-82014956D01*
X91191783Y-82015559D01*
X91191782Y-82015559D01*
X91164178Y-82026993D01*
X91047159Y-82075464D01*
X90921718Y-82171718D01*
X90825464Y-82297159D01*
X90781286Y-82403814D01*
X90778855Y-82409684D01*
X90765866Y-82422673D01*
X90756682Y-82424500D01*
X90182637Y-82424500D01*
X90165666Y-82417471D01*
X89361005Y-81612810D01*
X89353976Y-81595839D01*
X89354271Y-81592085D01*
X89366620Y-81514116D01*
X89366915Y-81512253D01*
X89365185Y-81501327D01*
X89362291Y-81483056D01*
X89348357Y-81395084D01*
X89344857Y-81388215D01*
X89295358Y-81291067D01*
X89295356Y-81291065D01*
X89294500Y-81289384D01*
X89210616Y-81205500D01*
X89208935Y-81204644D01*
X89208933Y-81204642D01*
X89106600Y-81152501D01*
X89104916Y-81151643D01*
X88987747Y-81133085D01*
X88870578Y-81151643D01*
X88868894Y-81152501D01*
X88766561Y-81204642D01*
X88766559Y-81204644D01*
X88764878Y-81205500D01*
X88680994Y-81289384D01*
X88680138Y-81291065D01*
X88680136Y-81291067D01*
X88630637Y-81388215D01*
X88627137Y-81395084D01*
X88613203Y-81483056D01*
X88610310Y-81501327D01*
X88608579Y-81512253D01*
X84821297Y-81512253D01*
X85284993Y-81048557D01*
X85301964Y-81041528D01*
X85318935Y-81048557D01*
X85377131Y-81106753D01*
X85378812Y-81107609D01*
X85378814Y-81107611D01*
X85461739Y-81149863D01*
X85482831Y-81160610D01*
X85568653Y-81174203D01*
X85596812Y-81178663D01*
X85600000Y-81179168D01*
X85603189Y-81178663D01*
X85631347Y-81174203D01*
X85717169Y-81160610D01*
X85738261Y-81149863D01*
X85821186Y-81107611D01*
X85821188Y-81107609D01*
X85822869Y-81106753D01*
X85906753Y-81022869D01*
X85908698Y-81019053D01*
X85959752Y-80918853D01*
X85960610Y-80917169D01*
X85977632Y-80809696D01*
X85978873Y-80801863D01*
X85979168Y-80800000D01*
X85977843Y-80791631D01*
X85973128Y-80761863D01*
X85960610Y-80682831D01*
X85948851Y-80659752D01*
X85907611Y-80578814D01*
X85907609Y-80578812D01*
X85906753Y-80577131D01*
X85879622Y-80550000D01*
X86570832Y-80550000D01*
X86589390Y-80667169D01*
X86590248Y-80668853D01*
X86640719Y-80767907D01*
X86643247Y-80772869D01*
X86727131Y-80856753D01*
X86728812Y-80857609D01*
X86728814Y-80857611D01*
X86810430Y-80899196D01*
X86832831Y-80910610D01*
X86950000Y-80929168D01*
X87067169Y-80910610D01*
X87089570Y-80899196D01*
X87171186Y-80857611D01*
X87171188Y-80857609D01*
X87172869Y-80856753D01*
X87256753Y-80772869D01*
X87259282Y-80767907D01*
X87309752Y-80668853D01*
X87310610Y-80667169D01*
X87329168Y-80550000D01*
X87310610Y-80432831D01*
X87305000Y-80421820D01*
X87257611Y-80328814D01*
X87257609Y-80328812D01*
X87256753Y-80327131D01*
X87172869Y-80243247D01*
X87171188Y-80242391D01*
X87171186Y-80242389D01*
X87068853Y-80190248D01*
X87067169Y-80189390D01*
X86950000Y-80170832D01*
X86832831Y-80189390D01*
X86831147Y-80190248D01*
X86728814Y-80242389D01*
X86728812Y-80242391D01*
X86727131Y-80243247D01*
X86643247Y-80327131D01*
X86642391Y-80328812D01*
X86642389Y-80328814D01*
X86595000Y-80421820D01*
X86589390Y-80432831D01*
X86570832Y-80550000D01*
X85879622Y-80550000D01*
X85822869Y-80493247D01*
X85821188Y-80492391D01*
X85821186Y-80492389D01*
X85718853Y-80440248D01*
X85717169Y-80439390D01*
X85600000Y-80420832D01*
X85482831Y-80439390D01*
X85481147Y-80440248D01*
X85378814Y-80492389D01*
X85378812Y-80492391D01*
X85377131Y-80493247D01*
X85293247Y-80577131D01*
X85292390Y-80578813D01*
X85292387Y-80578817D01*
X85290307Y-80582899D01*
X85276339Y-80594828D01*
X85271579Y-80595855D01*
X85247003Y-80598590D01*
X85240147Y-80599353D01*
X85237494Y-80599500D01*
X85227397Y-80599500D01*
X85226089Y-80599798D01*
X85226083Y-80599799D01*
X85217841Y-80601679D01*
X85215160Y-80602133D01*
X85185049Y-80605484D01*
X85185047Y-80605485D01*
X85182366Y-80605783D01*
X85180077Y-80607216D01*
X85175785Y-80609903D01*
X85168389Y-80612960D01*
X85163448Y-80614087D01*
X85163447Y-80614088D01*
X85160815Y-80614688D01*
X85135013Y-80635250D01*
X85132795Y-80636820D01*
X85125483Y-80641397D01*
X85125479Y-80641400D01*
X85124334Y-80642117D01*
X85117209Y-80649242D01*
X85115195Y-80651041D01*
X85102817Y-80660905D01*
X85089276Y-80671695D01*
X85088102Y-80674129D01*
X85085938Y-80678615D01*
X85081292Y-80685159D01*
X84085299Y-81681151D01*
X84078717Y-81685815D01*
X84071976Y-81689052D01*
X84070286Y-81691165D01*
X84070285Y-81691166D01*
X84051165Y-81715075D01*
X84049393Y-81717057D01*
X84042242Y-81724208D01*
X84041527Y-81725345D01*
X84041525Y-81725348D01*
X84037018Y-81732519D01*
X84035450Y-81734726D01*
X84014844Y-81760492D01*
X84014238Y-81763125D01*
X84014238Y-81763126D01*
X84013104Y-81768058D01*
X84010035Y-81775449D01*
X84007339Y-81779738D01*
X84007337Y-81779742D01*
X84005901Y-81782028D01*
X84005598Y-81784710D01*
X84005597Y-81784712D01*
X84002195Y-81814806D01*
X84001737Y-81817487D01*
X83999804Y-81825896D01*
X83999500Y-81827219D01*
X83999500Y-81837302D01*
X83999348Y-81839998D01*
X83995929Y-81870239D01*
X83995929Y-81870241D01*
X83995626Y-81872924D01*
X83996517Y-81875475D01*
X83998158Y-81880175D01*
X83999500Y-81888087D01*
X83999500Y-82117142D01*
X83992471Y-82134113D01*
X83986396Y-82138526D01*
X83978814Y-82142389D01*
X83978812Y-82142390D01*
X83977131Y-82143247D01*
X83893247Y-82227131D01*
X83892391Y-82228812D01*
X83892389Y-82228814D01*
X83843851Y-82324075D01*
X83839390Y-82332831D01*
X83820832Y-82450000D01*
X83721249Y-82450000D01*
X83728797Y-82402341D01*
X83728873Y-82401863D01*
X83729168Y-82400000D01*
X83728831Y-82397869D01*
X83723968Y-82367169D01*
X83710610Y-82282831D01*
X83701064Y-82264095D01*
X83657611Y-82178814D01*
X83657609Y-82178812D01*
X83656753Y-82177131D01*
X83572869Y-82093247D01*
X83571188Y-82092391D01*
X83571186Y-82092389D01*
X83468853Y-82040248D01*
X83467169Y-82039390D01*
X83369965Y-82023994D01*
X83351863Y-82021127D01*
X83350000Y-82020832D01*
X83348137Y-82021127D01*
X83330035Y-82023994D01*
X83232831Y-82039390D01*
X83231147Y-82040248D01*
X83128814Y-82092389D01*
X83128812Y-82092391D01*
X83127131Y-82093247D01*
X83043247Y-82177131D01*
X83042391Y-82178812D01*
X83042389Y-82178814D01*
X82998936Y-82264095D01*
X82989390Y-82282831D01*
X82976032Y-82367169D01*
X82971170Y-82397869D01*
X82970832Y-82400000D01*
X82971127Y-82401863D01*
X82971203Y-82402341D01*
X82989390Y-82517169D01*
X82990248Y-82518853D01*
X83038152Y-82612869D01*
X83043247Y-82622869D01*
X83127131Y-82706753D01*
X83128814Y-82707610D01*
X83128816Y-82707612D01*
X83135915Y-82711229D01*
X83147845Y-82725196D01*
X83149020Y-82732613D01*
X83149020Y-83351230D01*
X83147665Y-83359178D01*
X83145186Y-83366239D01*
X83145485Y-83368926D01*
X83148873Y-83399371D01*
X83149020Y-83402025D01*
X83149020Y-83412123D01*
X83151096Y-83421219D01*
X83151201Y-83421681D01*
X83151654Y-83424362D01*
X83155303Y-83457153D01*
X83156739Y-83459446D01*
X83159423Y-83463734D01*
X83162480Y-83471131D01*
X83164208Y-83478705D01*
X83165891Y-83480817D01*
X83165892Y-83480819D01*
X83184767Y-83504506D01*
X83186340Y-83506727D01*
X83191636Y-83515186D01*
X83198766Y-83522316D01*
X83200565Y-83524330D01*
X83219117Y-83547611D01*
X83221215Y-83550244D01*
X83228133Y-83553581D01*
X83234676Y-83558226D01*
X83434979Y-83758529D01*
X83442008Y-83775500D01*
X83434979Y-83792471D01*
X83418008Y-83799500D01*
X75414061Y-83799500D01*
X75398836Y-83794052D01*
X75389507Y-83786396D01*
X75294717Y-83708604D01*
X75291396Y-83705283D01*
X75205948Y-83601164D01*
X75200500Y-83585939D01*
X75200500Y-82050000D01*
X75658396Y-82050000D01*
X75678504Y-82279836D01*
X75738217Y-82502688D01*
X75835721Y-82711785D01*
X75968053Y-82900775D01*
X76131192Y-83063914D01*
X76320181Y-83196246D01*
X76529279Y-83293750D01*
X76752131Y-83353463D01*
X76981967Y-83373571D01*
X77211803Y-83353463D01*
X77434655Y-83293750D01*
X77643753Y-83196246D01*
X77832742Y-83063914D01*
X77995881Y-82900775D01*
X78128213Y-82711785D01*
X78225717Y-82502688D01*
X78285430Y-82279836D01*
X78305538Y-82050000D01*
X78285430Y-81820164D01*
X78225717Y-81597312D01*
X78128213Y-81388215D01*
X77995881Y-81199225D01*
X77832742Y-81036086D01*
X77709799Y-80950000D01*
X82820832Y-80950000D01*
X82821127Y-80951863D01*
X82821933Y-80956950D01*
X82839390Y-81067169D01*
X82840248Y-81068853D01*
X82889083Y-81164696D01*
X82893247Y-81172869D01*
X82977131Y-81256753D01*
X82978812Y-81257609D01*
X82978814Y-81257611D01*
X83069536Y-81303836D01*
X83082831Y-81310610D01*
X83165717Y-81323738D01*
X83188964Y-81327420D01*
X83200000Y-81329168D01*
X83211037Y-81327420D01*
X83234283Y-81323738D01*
X83317169Y-81310610D01*
X83330464Y-81303836D01*
X83421186Y-81257611D01*
X83421188Y-81257609D01*
X83422869Y-81256753D01*
X83506753Y-81172869D01*
X83510918Y-81164696D01*
X83559752Y-81068853D01*
X83560610Y-81067169D01*
X83578067Y-80956950D01*
X83578873Y-80951863D01*
X83579168Y-80950000D01*
X83578481Y-80945659D01*
X83570559Y-80895647D01*
X83560610Y-80832831D01*
X83557725Y-80827169D01*
X83507611Y-80728814D01*
X83507609Y-80728812D01*
X83506753Y-80727131D01*
X83422869Y-80643247D01*
X83421188Y-80642391D01*
X83421186Y-80642389D01*
X83318853Y-80590248D01*
X83317169Y-80589390D01*
X83200000Y-80570832D01*
X83082831Y-80589390D01*
X83081147Y-80590248D01*
X82978814Y-80642389D01*
X82978812Y-80642391D01*
X82977131Y-80643247D01*
X82893247Y-80727131D01*
X82892391Y-80728812D01*
X82892389Y-80728814D01*
X82842275Y-80827169D01*
X82839390Y-80832831D01*
X82829441Y-80895647D01*
X82821520Y-80945659D01*
X82820832Y-80950000D01*
X77709799Y-80950000D01*
X77643753Y-80903754D01*
X77434655Y-80806250D01*
X77211803Y-80746537D01*
X76981967Y-80726429D01*
X76752131Y-80746537D01*
X76529279Y-80806250D01*
X76320182Y-80903754D01*
X76131192Y-81036086D01*
X75968053Y-81199225D01*
X75835721Y-81388215D01*
X75738217Y-81597312D01*
X75678504Y-81820164D01*
X75658396Y-82050000D01*
X75200500Y-82050000D01*
X75200500Y-80300000D01*
X83320832Y-80300000D01*
X83321127Y-80301863D01*
X83322319Y-80309390D01*
X83339390Y-80417169D01*
X83340248Y-80418853D01*
X83384040Y-80504799D01*
X83393247Y-80522869D01*
X83477131Y-80606753D01*
X83478812Y-80607609D01*
X83478814Y-80607611D01*
X83581147Y-80659752D01*
X83582831Y-80660610D01*
X83680035Y-80676006D01*
X83696509Y-80678615D01*
X83700000Y-80679168D01*
X83703492Y-80678615D01*
X83719965Y-80676006D01*
X83817169Y-80660610D01*
X83818853Y-80659752D01*
X83921186Y-80607611D01*
X83921188Y-80607609D01*
X83922869Y-80606753D01*
X84006753Y-80522869D01*
X84015961Y-80504799D01*
X84059752Y-80418853D01*
X84060610Y-80417169D01*
X84077681Y-80309390D01*
X84078873Y-80301863D01*
X84079168Y-80300000D01*
X84060610Y-80182831D01*
X84059752Y-80181147D01*
X84007611Y-80078814D01*
X84007609Y-80078812D01*
X84006753Y-80077131D01*
X83922869Y-79993247D01*
X83921188Y-79992391D01*
X83921186Y-79992389D01*
X83818853Y-79940248D01*
X83817169Y-79939390D01*
X83700000Y-79920832D01*
X83582831Y-79939390D01*
X83581147Y-79940248D01*
X83478814Y-79992389D01*
X83478812Y-79992391D01*
X83477131Y-79993247D01*
X83393247Y-80077131D01*
X83392391Y-80078812D01*
X83392389Y-80078814D01*
X83340248Y-80181147D01*
X83339390Y-80182831D01*
X83320832Y-80300000D01*
X75200500Y-80300000D01*
X75200500Y-78800000D01*
X93060832Y-78800000D01*
X93079390Y-78917169D01*
X93080248Y-78918853D01*
X93132293Y-79020996D01*
X93133247Y-79022869D01*
X93217131Y-79106753D01*
X93218812Y-79107609D01*
X93218814Y-79107611D01*
X93321147Y-79159752D01*
X93322831Y-79160610D01*
X93440000Y-79179168D01*
X93557169Y-79160610D01*
X93558853Y-79159752D01*
X93661186Y-79107611D01*
X93661188Y-79107609D01*
X93662869Y-79106753D01*
X93746753Y-79022869D01*
X93747708Y-79020996D01*
X93799752Y-78918853D01*
X93800610Y-78917169D01*
X93819168Y-78800000D01*
X93800610Y-78682831D01*
X93795705Y-78673205D01*
X93747611Y-78578814D01*
X93747609Y-78578812D01*
X93746753Y-78577131D01*
X93662869Y-78493247D01*
X93661188Y-78492391D01*
X93661186Y-78492389D01*
X93558853Y-78440248D01*
X93557169Y-78439390D01*
X93440000Y-78420832D01*
X93322831Y-78439390D01*
X93321147Y-78440248D01*
X93218814Y-78492389D01*
X93218812Y-78492391D01*
X93217131Y-78493247D01*
X93133247Y-78577131D01*
X93132391Y-78578812D01*
X93132389Y-78578814D01*
X93084295Y-78673205D01*
X93079390Y-78682831D01*
X93060832Y-78800000D01*
X75200500Y-78800000D01*
X75200500Y-76358577D01*
X94941600Y-76358577D01*
X94943035Y-76381385D01*
X94951609Y-76517670D01*
X94951983Y-76523616D01*
X94952449Y-76525049D01*
X94952449Y-76525051D01*
X94975053Y-76594617D01*
X95003084Y-76680887D01*
X95091691Y-76820510D01*
X95092792Y-76821544D01*
X95092793Y-76821545D01*
X95211131Y-76932672D01*
X95211134Y-76932674D01*
X95212237Y-76933710D01*
X95213564Y-76934439D01*
X95213566Y-76934441D01*
X95327694Y-76997183D01*
X95357147Y-77013375D01*
X95358607Y-77013750D01*
X95358610Y-77013751D01*
X95480362Y-77045012D01*
X95517317Y-77054500D01*
X95641178Y-77054500D01*
X95730914Y-77043163D01*
X95762566Y-77039165D01*
X95762567Y-77039165D01*
X95764061Y-77038976D01*
X95765457Y-77038423D01*
X95765462Y-77038422D01*
X95916413Y-76978656D01*
X95916415Y-76978655D01*
X95917814Y-76978101D01*
X95937185Y-76964027D01*
X96050371Y-76881793D01*
X96050372Y-76881792D01*
X96051597Y-76880902D01*
X96135575Y-76779390D01*
X96156044Y-76754648D01*
X96156045Y-76754646D01*
X96157005Y-76753486D01*
X96158117Y-76751124D01*
X96188911Y-76685682D01*
X96227414Y-76603859D01*
X96227697Y-76602377D01*
X96227698Y-76602373D01*
X96258117Y-76442908D01*
X96258117Y-76442906D01*
X96258400Y-76441423D01*
X96254793Y-76384092D01*
X96248112Y-76277887D01*
X96248111Y-76277884D01*
X96248017Y-76276384D01*
X96246046Y-76270316D01*
X96220051Y-76190314D01*
X96196916Y-76119113D01*
X96108309Y-75979490D01*
X96099007Y-75970755D01*
X95988869Y-75867328D01*
X95988866Y-75867326D01*
X95987763Y-75866290D01*
X95986436Y-75865561D01*
X95986434Y-75865559D01*
X95844179Y-75787354D01*
X95842853Y-75786625D01*
X95841393Y-75786250D01*
X95841390Y-75786249D01*
X95702511Y-75750591D01*
X95682683Y-75745500D01*
X95558822Y-75745500D01*
X95478399Y-75755660D01*
X95437434Y-75760835D01*
X95437433Y-75760835D01*
X95435939Y-75761024D01*
X95434543Y-75761577D01*
X95434538Y-75761578D01*
X95283587Y-75821344D01*
X95283585Y-75821345D01*
X95282186Y-75821899D01*
X95280966Y-75822786D01*
X95280965Y-75822786D01*
X95153514Y-75915385D01*
X95148403Y-75919098D01*
X95105605Y-75970832D01*
X95044711Y-76044440D01*
X95042995Y-76046514D01*
X94972586Y-76196141D01*
X94972303Y-76197623D01*
X94972302Y-76197627D01*
X94941883Y-76357092D01*
X94941600Y-76358577D01*
X75200500Y-76358577D01*
X75200500Y-75414061D01*
X75205948Y-75398836D01*
X75236229Y-75361938D01*
X75291396Y-75294717D01*
X75294717Y-75291396D01*
X75398836Y-75205948D01*
X75414061Y-75200500D01*
X99826000Y-75200500D01*
X99842971Y-75207529D01*
G37*
%TD.AperFunction*%
%TD*%
M02*
