%TF.GenerationSoftware,KiCad,Pcbnew,6.0.4-6f826c9f35~116~ubuntu20.04.1*%
%TF.CreationDate,2022-03-30T16:20:37-04:00*%
%TF.ProjectId,msa,6d73612e-6b69-4636-9164-5f7063625858,rev?*%
%TF.SameCoordinates,Original*%
%TF.FileFunction,Copper,L2,Bot*%
%TF.FilePolarity,Positive*%
%FSLAX46Y46*%
G04 Gerber Fmt 4.6, Leading zero omitted, Abs format (unit mm)*
G04 Created by KiCad (PCBNEW 6.0.4-6f826c9f35~116~ubuntu20.04.1) date 2022-03-30 16:20:37*
%MOMM*%
%LPD*%
G01*
G04 APERTURE LIST*
%TA.AperFunction,ViaPad*%
%ADD10C,0.600000*%
%TD*%
%TA.AperFunction,Conductor*%
%ADD11C,0.150000*%
%TD*%
G04 APERTURE END LIST*
D10*
%TO.N,GND*%
X148300000Y-92350000D03*
X62100000Y-92750000D03*
X103450000Y-92400000D03*
X67000000Y-92400000D03*
X193400000Y-92200000D03*
X227750000Y-93029002D03*
X56550000Y-92250000D03*
%TO.N,+3V3*%
X189550000Y-90500000D03*
X65350000Y-90500000D03*
X183250000Y-90600000D03*
X60400000Y-92300000D03*
X99550000Y-90450000D03*
X227680000Y-90180000D03*
X142300000Y-92200000D03*
X97000000Y-92150000D03*
X186300000Y-92250000D03*
X144500000Y-90450000D03*
%TO.N,Net-(R13-Pad2)*%
X64500000Y-90600000D03*
X60450000Y-91200000D03*
%TD*%
D11*
%TO.N,GND*%
X147536000Y-93114000D02*
X148300000Y-92350000D01*
X174328136Y-93265689D02*
X181852189Y-93265689D01*
X62249500Y-93349500D02*
X67199500Y-93349500D01*
X103150500Y-93349500D02*
X103150500Y-92699500D01*
X141236000Y-93249500D02*
X147536000Y-93249500D01*
X147536000Y-93249500D02*
X147536000Y-93114000D01*
X137836000Y-93249500D02*
X141236000Y-93249500D01*
X103150500Y-92699500D02*
X103450000Y-92400000D01*
X192765689Y-93265689D02*
X214519811Y-93265689D01*
X107636000Y-93249500D02*
X137836000Y-93249500D01*
X67199500Y-92599500D02*
X67000000Y-92400000D01*
X192765689Y-93265689D02*
X192765689Y-92834311D01*
X56550000Y-92250000D02*
X57436000Y-93136000D01*
X62249500Y-93349500D02*
X62249500Y-92899500D01*
X174311947Y-93249500D02*
X174328136Y-93265689D01*
X57436000Y-93136000D02*
X57436000Y-93349500D01*
X192765689Y-92834311D02*
X193400000Y-92200000D01*
X103150500Y-93349500D02*
X107536000Y-93349500D01*
X67199500Y-93349500D02*
X103150500Y-93349500D01*
X199536000Y-93249500D02*
X223636000Y-93249500D01*
X62249500Y-92899500D02*
X62100000Y-92750000D01*
X227529502Y-93249500D02*
X227750000Y-93029002D01*
X67199500Y-93349500D02*
X67199500Y-92599500D01*
X223636000Y-93249500D02*
X227529502Y-93249500D01*
X57436000Y-93349500D02*
X62249500Y-93349500D01*
X147536000Y-93249500D02*
X174311947Y-93249500D01*
X214519811Y-93265689D02*
X214536000Y-93249500D01*
X181852189Y-93265689D02*
X192552189Y-93265689D01*
X107536000Y-93349500D02*
X107636000Y-93249500D01*
X192552189Y-93265689D02*
X192765689Y-93265689D01*
%TO.N,+3V3*%
X225400000Y-89900000D02*
X225680000Y-90180000D01*
X189550000Y-89900000D02*
X198700000Y-89900000D01*
X99550000Y-90450000D02*
X98700000Y-90450000D01*
X65300000Y-89900000D02*
X65300000Y-90450000D01*
X189550000Y-89900000D02*
X189550000Y-90500000D01*
X187800000Y-92250000D02*
X186300000Y-92250000D01*
X144500000Y-90450000D02*
X144500000Y-89900000D01*
X144500000Y-90450000D02*
X144050000Y-90450000D01*
X97785500Y-89900000D02*
X65300000Y-89900000D01*
X183700000Y-90150000D02*
X183250000Y-90600000D01*
X183700000Y-89900000D02*
X225400000Y-89900000D01*
X99400000Y-89900000D02*
X142986500Y-89900000D01*
X189550000Y-90500000D02*
X187800000Y-92250000D01*
X99550000Y-90450000D02*
X99550000Y-90050000D01*
X188086500Y-89900000D02*
X189550000Y-89900000D01*
X144050000Y-90450000D02*
X142300000Y-92200000D01*
X183700000Y-89900000D02*
X183700000Y-90150000D01*
X59250000Y-91150000D02*
X60400000Y-92300000D01*
X65300000Y-90450000D02*
X65350000Y-90500000D01*
X142986500Y-89900000D02*
X144500000Y-89900000D01*
X99550000Y-90050000D02*
X99400000Y-89900000D01*
X59250000Y-89900000D02*
X59250000Y-91150000D01*
X225680000Y-90180000D02*
X227680000Y-90180000D01*
X65300000Y-89900000D02*
X59250000Y-89900000D01*
X98700000Y-90450000D02*
X97000000Y-92150000D01*
X97785500Y-89900000D02*
X99400000Y-89900000D01*
X144500000Y-89900000D02*
X188086500Y-89900000D01*
%TO.N,Net-(R13-Pad2)*%
X61050000Y-90600000D02*
X64500000Y-90600000D01*
X60450000Y-91200000D02*
X61050000Y-90600000D01*
%TD*%
M02*
