%TF.GenerationSoftware,KiCad,Pcbnew,6.0.4-6f826c9f35~116~ubuntu20.04.1*%
%TF.CreationDate,2022-03-30T16:20:37-04:00*%
%TF.ProjectId,msa,6d73612e-6b69-4636-9164-5f7063625858,rev?*%
%TF.SameCoordinates,Original*%
%TF.FileFunction,Other,User*%
%FSLAX46Y46*%
G04 Gerber Fmt 4.6, Leading zero omitted, Abs format (unit mm)*
G04 Created by KiCad (PCBNEW 6.0.4-6f826c9f35~116~ubuntu20.04.1) date 2022-03-30 16:20:37*
%MOMM*%
%LPD*%
G01*
G04 APERTURE LIST*
%ADD10C,0.150000*%
%ADD11C,1.500000*%
G04 APERTURE END LIST*
D10*
X94000000Y-89675000D02*
X103975000Y-89675000D01*
X103975000Y-89675000D02*
X103975000Y-92950000D01*
X103975000Y-92950000D02*
X94000000Y-92950000D01*
X94000000Y-92950000D02*
X94000000Y-89675000D01*
X184410000Y-89750000D02*
X193855000Y-89750000D01*
X193855000Y-89750000D02*
X193855000Y-92885000D01*
X193855000Y-92885000D02*
X184410000Y-92885000D01*
X184410000Y-92885000D02*
X184410000Y-89750000D01*
X67437500Y-93185000D02*
X55662500Y-93185000D01*
X55662500Y-93185000D02*
X55662500Y-89600000D01*
X55662500Y-89600000D02*
X67437500Y-89600000D01*
X67437500Y-89600000D02*
X67437500Y-93185000D01*
X223860000Y-89755000D02*
X228230000Y-89755000D01*
X228230000Y-89755000D02*
X228230000Y-93425000D01*
X228230000Y-93425000D02*
X223860000Y-93425000D01*
X223860000Y-93425000D02*
X223860000Y-89755000D01*
X139560000Y-89715000D02*
X148835000Y-89715000D01*
X148835000Y-89715000D02*
X148835000Y-92920000D01*
X148835000Y-92920000D02*
X139560000Y-92920000D01*
X139560000Y-92920000D02*
X139560000Y-89715000D01*
D11*
X73910000Y-68967619D02*
X75338571Y-69443809D01*
X77719523Y-69443809D01*
X78671904Y-68967619D01*
X79148095Y-68491428D01*
X79624285Y-67539047D01*
X79624285Y-66586666D01*
X79148095Y-65634285D01*
X78671904Y-65158095D01*
X77719523Y-64681904D01*
X75814761Y-64205714D01*
X74862380Y-63729523D01*
X74386190Y-63253333D01*
X73910000Y-62300952D01*
X73910000Y-61348571D01*
X74386190Y-60396190D01*
X74862380Y-59920000D01*
X75814761Y-59443809D01*
X78195714Y-59443809D01*
X79624285Y-59920000D01*
X82481428Y-62777142D02*
X86290952Y-62777142D01*
X83910000Y-59443809D02*
X83910000Y-68015238D01*
X84386190Y-68967619D01*
X85338571Y-69443809D01*
X86290952Y-69443809D01*
X89624285Y-69443809D02*
X89624285Y-62777142D01*
X89624285Y-59443809D02*
X89148095Y-59920000D01*
X89624285Y-60396190D01*
X90100476Y-59920000D01*
X89624285Y-59443809D01*
X89624285Y-60396190D01*
X92957619Y-62777142D02*
X96767142Y-62777142D01*
X94386190Y-69443809D02*
X94386190Y-60872380D01*
X94862380Y-59920000D01*
X95814761Y-59443809D01*
X96767142Y-59443809D01*
X98671904Y-62777142D02*
X102481428Y-62777142D01*
X100100476Y-69443809D02*
X100100476Y-60872380D01*
X100576666Y-59920000D01*
X101529047Y-59443809D01*
X102481428Y-59443809D01*
X109624285Y-68967619D02*
X108671904Y-69443809D01*
X106767142Y-69443809D01*
X105814761Y-68967619D01*
X105338571Y-68015238D01*
X105338571Y-64205714D01*
X105814761Y-63253333D01*
X106767142Y-62777142D01*
X108671904Y-62777142D01*
X109624285Y-63253333D01*
X110100476Y-64205714D01*
X110100476Y-65158095D01*
X105338571Y-66110476D01*
X114386190Y-62777142D02*
X114386190Y-69443809D01*
X114386190Y-63729523D02*
X114862380Y-63253333D01*
X115814761Y-62777142D01*
X117243333Y-62777142D01*
X118195714Y-63253333D01*
X118671904Y-64205714D01*
X118671904Y-69443809D01*
X127243333Y-68967619D02*
X126290952Y-69443809D01*
X124386190Y-69443809D01*
X123433809Y-68967619D01*
X122957619Y-68015238D01*
X122957619Y-64205714D01*
X123433809Y-63253333D01*
X124386190Y-62777142D01*
X126290952Y-62777142D01*
X127243333Y-63253333D01*
X127719523Y-64205714D01*
X127719523Y-65158095D01*
X122957619Y-66110476D01*
X132005238Y-69443809D02*
X132005238Y-62777142D01*
X132005238Y-64681904D02*
X132481428Y-63729523D01*
X132957619Y-63253333D01*
X133910000Y-62777142D01*
X134862380Y-62777142D01*
M02*
