M48
; DRILL file {KiCad 5.1.5+dfsg1-2build2} date Tue 08 Feb 2022 01:34:07 PM
; FORMAT={-:-/ absolute / metric / decimal}
; #@! TF.CreationDate,2022-02-08T13:34:07-05:00
; #@! TF.GenerationSoftware,Kicad,Pcbnew,5.1.5+dfsg1-2build2
; #@! TF.FileFunction,Plated,1,2,PTH
FMAT,2
METRIC
T1C0.300
T2C0.920
T3C1.000
%
G90
G05
T1
X118.872Y-48.26
X119.38Y-132.588
X119.634Y-88.138
X119.719Y-87.207
X119.831Y-174.413
X119.888Y-91.948
X119.888Y-136.144
X119.888Y-175.26
X119.888Y-179.324
X120.057Y-131.233
X120.904Y-44.196
X121.2Y-108.2
X121.92Y-89.408
X121.92Y-133.096
X121.92Y-176.276
X122.428Y-45.212
X123.4Y-106.0
X123.92Y-109.48
X124.39Y-105.2
X124.4Y-108.0
X124.6Y-112.0
X124.65Y-111.0
X124.714Y-114.046
X124.714Y-114.808
X124.968Y-47.244
X124.968Y-84.836
X124.968Y-89.916
X125.6Y-109.4
X125.65Y-119.0
X125.65Y-128.858
X125.65Y-133.43
X125.65Y-172.038
X125.65Y-176.61
X125.66Y-105.2
X127.0Y-113.792
X127.0Y-113.792
X127.103Y-106.495
X127.508Y-45.212
X128.524Y-114.554
X129.15Y-104.5
X129.4Y-109.0
X129.4Y-111.0
X130.15Y-117.5
X130.4Y-110.0
X130.556Y-103.124
X130.6Y-105.62
X131.064Y-114.554
X131.4Y-109.0
X131.4Y-111.0
X131.572Y-103.124
X131.572Y-105.664
X131.908Y-115.539
X133.0Y-119.2
X134.2Y-117.4
X134.9Y-105.25
X135.15Y-107.25
X135.65Y-110.5
X135.9Y-109.75
X136.4Y-106.0
X136.65Y-113.25
X137.0Y-104.6
X137.4Y-116.6
X138.025Y-110.125
X139.0Y-111.0
X139.8Y-107.0
T2
X141.9Y-108.5
X141.9Y-111.0
X141.9Y-113.0
X141.9Y-115.5
T3
X143.25Y-106.15G85X144.75Y-106.15
G05
X143.25Y-117.85G85X144.75Y-117.85
G05
T0
M30
