G04 #@! TF.GenerationSoftware,KiCad,Pcbnew,(5.1.12)-1*
G04 #@! TF.CreationDate,2021-12-03T13:24:37+05:30*
G04 #@! TF.ProjectId,mico,6d69636f-2e6b-4696-9361-645f70636258,rev?*
G04 #@! TF.SameCoordinates,Original*
G04 #@! TF.FileFunction,Copper,L2,Bot*
G04 #@! TF.FilePolarity,Positive*
%FSLAX46Y46*%
G04 Gerber Fmt 4.6, Leading zero omitted, Abs format (unit mm)*
G04 Created by KiCad (PCBNEW (5.1.12)-1) date 2021-12-03 13:24:37*
%MOMM*%
%LPD*%
G01*
G04 APERTURE LIST*
G04 #@! TA.AperFunction,SMDPad,CuDef*
%ADD10R,3.200000X3.200000*%
G04 #@! TD*
G04 #@! TA.AperFunction,SMDPad,CuDef*
%ADD11C,0.100000*%
G04 #@! TD*
G04 #@! TA.AperFunction,SMDPad,CuDef*
%ADD12R,0.522000X0.725000*%
G04 #@! TD*
G04 #@! TA.AperFunction,ComponentPad*
%ADD13C,1.428000*%
G04 #@! TD*
G04 #@! TA.AperFunction,ComponentPad*
%ADD14R,1.428000X1.428000*%
G04 #@! TD*
G04 #@! TA.AperFunction,ComponentPad*
%ADD15O,3.500000X1.508000*%
G04 #@! TD*
G04 #@! TA.AperFunction,SMDPad,CuDef*
%ADD16R,1.600000X0.200000*%
G04 #@! TD*
G04 #@! TA.AperFunction,SMDPad,CuDef*
%ADD17R,0.300000X0.500000*%
G04 #@! TD*
G04 #@! TA.AperFunction,SMDPad,CuDef*
%ADD18R,0.800000X0.900000*%
G04 #@! TD*
G04 #@! TA.AperFunction,SMDPad,CuDef*
%ADD19R,1.600000X1.300000*%
G04 #@! TD*
G04 #@! TA.AperFunction,SMDPad,CuDef*
%ADD20C,0.500000*%
G04 #@! TD*
G04 #@! TA.AperFunction,ViaPad*
%ADD21C,0.600000*%
G04 #@! TD*
G04 #@! TA.AperFunction,Conductor*
%ADD22C,0.400000*%
G04 #@! TD*
G04 #@! TA.AperFunction,Conductor*
%ADD23C,0.200000*%
G04 #@! TD*
G04 #@! TA.AperFunction,Conductor*
%ADD24C,0.160000*%
G04 #@! TD*
G04 #@! TA.AperFunction,Conductor*
%ADD25C,0.100000*%
G04 #@! TD*
G04 APERTURE END LIST*
D10*
X130400000Y-110000000D03*
G04 #@! TA.AperFunction,SMDPad,CuDef*
G36*
G01*
X133094000Y-106985000D02*
X132906000Y-106985000D01*
G75*
G02*
X132900000Y-106979000I0J6000D01*
G01*
X132900000Y-106151000D01*
G75*
G02*
X132906000Y-106145000I6000J0D01*
G01*
X133094000Y-106145000D01*
G75*
G02*
X133100000Y-106151000I0J-6000D01*
G01*
X133100000Y-106979000D01*
G75*
G02*
X133094000Y-106985000I-6000J0D01*
G01*
G37*
G04 #@! TD.AperFunction*
G04 #@! TA.AperFunction,SMDPad,CuDef*
G36*
G01*
X132694000Y-106985000D02*
X132506000Y-106985000D01*
G75*
G02*
X132500000Y-106979000I0J6000D01*
G01*
X132500000Y-106151000D01*
G75*
G02*
X132506000Y-106145000I6000J0D01*
G01*
X132694000Y-106145000D01*
G75*
G02*
X132700000Y-106151000I0J-6000D01*
G01*
X132700000Y-106979000D01*
G75*
G02*
X132694000Y-106985000I-6000J0D01*
G01*
G37*
G04 #@! TD.AperFunction*
G04 #@! TA.AperFunction,SMDPad,CuDef*
G36*
G01*
X132294000Y-106985000D02*
X132106000Y-106985000D01*
G75*
G02*
X132100000Y-106979000I0J6000D01*
G01*
X132100000Y-106151000D01*
G75*
G02*
X132106000Y-106145000I6000J0D01*
G01*
X132294000Y-106145000D01*
G75*
G02*
X132300000Y-106151000I0J-6000D01*
G01*
X132300000Y-106979000D01*
G75*
G02*
X132294000Y-106985000I-6000J0D01*
G01*
G37*
G04 #@! TD.AperFunction*
G04 #@! TA.AperFunction,SMDPad,CuDef*
G36*
G01*
X131894000Y-106985000D02*
X131706000Y-106985000D01*
G75*
G02*
X131700000Y-106979000I0J6000D01*
G01*
X131700000Y-106151000D01*
G75*
G02*
X131706000Y-106145000I6000J0D01*
G01*
X131894000Y-106145000D01*
G75*
G02*
X131900000Y-106151000I0J-6000D01*
G01*
X131900000Y-106979000D01*
G75*
G02*
X131894000Y-106985000I-6000J0D01*
G01*
G37*
G04 #@! TD.AperFunction*
G04 #@! TA.AperFunction,SMDPad,CuDef*
G36*
G01*
X131494000Y-106985000D02*
X131306000Y-106985000D01*
G75*
G02*
X131300000Y-106979000I0J6000D01*
G01*
X131300000Y-106151000D01*
G75*
G02*
X131306000Y-106145000I6000J0D01*
G01*
X131494000Y-106145000D01*
G75*
G02*
X131500000Y-106151000I0J-6000D01*
G01*
X131500000Y-106979000D01*
G75*
G02*
X131494000Y-106985000I-6000J0D01*
G01*
G37*
G04 #@! TD.AperFunction*
G04 #@! TA.AperFunction,SMDPad,CuDef*
G36*
G01*
X131094000Y-106985000D02*
X130906000Y-106985000D01*
G75*
G02*
X130900000Y-106979000I0J6000D01*
G01*
X130900000Y-106151000D01*
G75*
G02*
X130906000Y-106145000I6000J0D01*
G01*
X131094000Y-106145000D01*
G75*
G02*
X131100000Y-106151000I0J-6000D01*
G01*
X131100000Y-106979000D01*
G75*
G02*
X131094000Y-106985000I-6000J0D01*
G01*
G37*
G04 #@! TD.AperFunction*
G04 #@! TA.AperFunction,SMDPad,CuDef*
G36*
G01*
X130694000Y-106985000D02*
X130506000Y-106985000D01*
G75*
G02*
X130500000Y-106979000I0J6000D01*
G01*
X130500000Y-106151000D01*
G75*
G02*
X130506000Y-106145000I6000J0D01*
G01*
X130694000Y-106145000D01*
G75*
G02*
X130700000Y-106151000I0J-6000D01*
G01*
X130700000Y-106979000D01*
G75*
G02*
X130694000Y-106985000I-6000J0D01*
G01*
G37*
G04 #@! TD.AperFunction*
G04 #@! TA.AperFunction,SMDPad,CuDef*
G36*
G01*
X130294000Y-106985000D02*
X130106000Y-106985000D01*
G75*
G02*
X130100000Y-106979000I0J6000D01*
G01*
X130100000Y-106151000D01*
G75*
G02*
X130106000Y-106145000I6000J0D01*
G01*
X130294000Y-106145000D01*
G75*
G02*
X130300000Y-106151000I0J-6000D01*
G01*
X130300000Y-106979000D01*
G75*
G02*
X130294000Y-106985000I-6000J0D01*
G01*
G37*
G04 #@! TD.AperFunction*
G04 #@! TA.AperFunction,SMDPad,CuDef*
G36*
G01*
X129894000Y-106985000D02*
X129706000Y-106985000D01*
G75*
G02*
X129700000Y-106979000I0J6000D01*
G01*
X129700000Y-106151000D01*
G75*
G02*
X129706000Y-106145000I6000J0D01*
G01*
X129894000Y-106145000D01*
G75*
G02*
X129900000Y-106151000I0J-6000D01*
G01*
X129900000Y-106979000D01*
G75*
G02*
X129894000Y-106985000I-6000J0D01*
G01*
G37*
G04 #@! TD.AperFunction*
G04 #@! TA.AperFunction,SMDPad,CuDef*
G36*
G01*
X129494000Y-106985000D02*
X129306000Y-106985000D01*
G75*
G02*
X129300000Y-106979000I0J6000D01*
G01*
X129300000Y-106151000D01*
G75*
G02*
X129306000Y-106145000I6000J0D01*
G01*
X129494000Y-106145000D01*
G75*
G02*
X129500000Y-106151000I0J-6000D01*
G01*
X129500000Y-106979000D01*
G75*
G02*
X129494000Y-106985000I-6000J0D01*
G01*
G37*
G04 #@! TD.AperFunction*
G04 #@! TA.AperFunction,SMDPad,CuDef*
G36*
G01*
X129094000Y-106985000D02*
X128906000Y-106985000D01*
G75*
G02*
X128900000Y-106979000I0J6000D01*
G01*
X128900000Y-106151000D01*
G75*
G02*
X128906000Y-106145000I6000J0D01*
G01*
X129094000Y-106145000D01*
G75*
G02*
X129100000Y-106151000I0J-6000D01*
G01*
X129100000Y-106979000D01*
G75*
G02*
X129094000Y-106985000I-6000J0D01*
G01*
G37*
G04 #@! TD.AperFunction*
G04 #@! TA.AperFunction,SMDPad,CuDef*
G36*
G01*
X128694000Y-106985000D02*
X128506000Y-106985000D01*
G75*
G02*
X128500000Y-106979000I0J6000D01*
G01*
X128500000Y-106151000D01*
G75*
G02*
X128506000Y-106145000I6000J0D01*
G01*
X128694000Y-106145000D01*
G75*
G02*
X128700000Y-106151000I0J-6000D01*
G01*
X128700000Y-106979000D01*
G75*
G02*
X128694000Y-106985000I-6000J0D01*
G01*
G37*
G04 #@! TD.AperFunction*
G04 #@! TA.AperFunction,SMDPad,CuDef*
G36*
G01*
X128294000Y-106985000D02*
X128106000Y-106985000D01*
G75*
G02*
X128100000Y-106979000I0J6000D01*
G01*
X128100000Y-106151000D01*
G75*
G02*
X128106000Y-106145000I6000J0D01*
G01*
X128294000Y-106145000D01*
G75*
G02*
X128300000Y-106151000I0J-6000D01*
G01*
X128300000Y-106979000D01*
G75*
G02*
X128294000Y-106985000I-6000J0D01*
G01*
G37*
G04 #@! TD.AperFunction*
G04 #@! TA.AperFunction,SMDPad,CuDef*
G36*
G01*
X127894000Y-106985000D02*
X127706000Y-106985000D01*
G75*
G02*
X127700000Y-106979000I0J6000D01*
G01*
X127700000Y-106151000D01*
G75*
G02*
X127706000Y-106145000I6000J0D01*
G01*
X127894000Y-106145000D01*
G75*
G02*
X127900000Y-106151000I0J-6000D01*
G01*
X127900000Y-106979000D01*
G75*
G02*
X127894000Y-106985000I-6000J0D01*
G01*
G37*
G04 #@! TD.AperFunction*
G04 #@! TA.AperFunction,SMDPad,CuDef*
G36*
G01*
X127894000Y-113855000D02*
X127706000Y-113855000D01*
G75*
G02*
X127700000Y-113849000I0J6000D01*
G01*
X127700000Y-113021000D01*
G75*
G02*
X127706000Y-113015000I6000J0D01*
G01*
X127894000Y-113015000D01*
G75*
G02*
X127900000Y-113021000I0J-6000D01*
G01*
X127900000Y-113849000D01*
G75*
G02*
X127894000Y-113855000I-6000J0D01*
G01*
G37*
G04 #@! TD.AperFunction*
G04 #@! TA.AperFunction,SMDPad,CuDef*
G36*
G01*
X128294000Y-113855000D02*
X128106000Y-113855000D01*
G75*
G02*
X128100000Y-113849000I0J6000D01*
G01*
X128100000Y-113021000D01*
G75*
G02*
X128106000Y-113015000I6000J0D01*
G01*
X128294000Y-113015000D01*
G75*
G02*
X128300000Y-113021000I0J-6000D01*
G01*
X128300000Y-113849000D01*
G75*
G02*
X128294000Y-113855000I-6000J0D01*
G01*
G37*
G04 #@! TD.AperFunction*
G04 #@! TA.AperFunction,SMDPad,CuDef*
G36*
G01*
X128694000Y-113855000D02*
X128506000Y-113855000D01*
G75*
G02*
X128500000Y-113849000I0J6000D01*
G01*
X128500000Y-113021000D01*
G75*
G02*
X128506000Y-113015000I6000J0D01*
G01*
X128694000Y-113015000D01*
G75*
G02*
X128700000Y-113021000I0J-6000D01*
G01*
X128700000Y-113849000D01*
G75*
G02*
X128694000Y-113855000I-6000J0D01*
G01*
G37*
G04 #@! TD.AperFunction*
G04 #@! TA.AperFunction,SMDPad,CuDef*
G36*
G01*
X129094000Y-113855000D02*
X128906000Y-113855000D01*
G75*
G02*
X128900000Y-113849000I0J6000D01*
G01*
X128900000Y-113021000D01*
G75*
G02*
X128906000Y-113015000I6000J0D01*
G01*
X129094000Y-113015000D01*
G75*
G02*
X129100000Y-113021000I0J-6000D01*
G01*
X129100000Y-113849000D01*
G75*
G02*
X129094000Y-113855000I-6000J0D01*
G01*
G37*
G04 #@! TD.AperFunction*
G04 #@! TA.AperFunction,SMDPad,CuDef*
G36*
G01*
X129494000Y-113855000D02*
X129306000Y-113855000D01*
G75*
G02*
X129300000Y-113849000I0J6000D01*
G01*
X129300000Y-113021000D01*
G75*
G02*
X129306000Y-113015000I6000J0D01*
G01*
X129494000Y-113015000D01*
G75*
G02*
X129500000Y-113021000I0J-6000D01*
G01*
X129500000Y-113849000D01*
G75*
G02*
X129494000Y-113855000I-6000J0D01*
G01*
G37*
G04 #@! TD.AperFunction*
G04 #@! TA.AperFunction,SMDPad,CuDef*
G36*
G01*
X129894000Y-113855000D02*
X129706000Y-113855000D01*
G75*
G02*
X129700000Y-113849000I0J6000D01*
G01*
X129700000Y-113021000D01*
G75*
G02*
X129706000Y-113015000I6000J0D01*
G01*
X129894000Y-113015000D01*
G75*
G02*
X129900000Y-113021000I0J-6000D01*
G01*
X129900000Y-113849000D01*
G75*
G02*
X129894000Y-113855000I-6000J0D01*
G01*
G37*
G04 #@! TD.AperFunction*
G04 #@! TA.AperFunction,SMDPad,CuDef*
G36*
G01*
X130294000Y-113855000D02*
X130106000Y-113855000D01*
G75*
G02*
X130100000Y-113849000I0J6000D01*
G01*
X130100000Y-113021000D01*
G75*
G02*
X130106000Y-113015000I6000J0D01*
G01*
X130294000Y-113015000D01*
G75*
G02*
X130300000Y-113021000I0J-6000D01*
G01*
X130300000Y-113849000D01*
G75*
G02*
X130294000Y-113855000I-6000J0D01*
G01*
G37*
G04 #@! TD.AperFunction*
G04 #@! TA.AperFunction,SMDPad,CuDef*
G36*
G01*
X130694000Y-113855000D02*
X130506000Y-113855000D01*
G75*
G02*
X130500000Y-113849000I0J6000D01*
G01*
X130500000Y-113021000D01*
G75*
G02*
X130506000Y-113015000I6000J0D01*
G01*
X130694000Y-113015000D01*
G75*
G02*
X130700000Y-113021000I0J-6000D01*
G01*
X130700000Y-113849000D01*
G75*
G02*
X130694000Y-113855000I-6000J0D01*
G01*
G37*
G04 #@! TD.AperFunction*
G04 #@! TA.AperFunction,SMDPad,CuDef*
G36*
G01*
X131094000Y-113855000D02*
X130906000Y-113855000D01*
G75*
G02*
X130900000Y-113849000I0J6000D01*
G01*
X130900000Y-113021000D01*
G75*
G02*
X130906000Y-113015000I6000J0D01*
G01*
X131094000Y-113015000D01*
G75*
G02*
X131100000Y-113021000I0J-6000D01*
G01*
X131100000Y-113849000D01*
G75*
G02*
X131094000Y-113855000I-6000J0D01*
G01*
G37*
G04 #@! TD.AperFunction*
G04 #@! TA.AperFunction,SMDPad,CuDef*
G36*
G01*
X131494000Y-113855000D02*
X131306000Y-113855000D01*
G75*
G02*
X131300000Y-113849000I0J6000D01*
G01*
X131300000Y-113021000D01*
G75*
G02*
X131306000Y-113015000I6000J0D01*
G01*
X131494000Y-113015000D01*
G75*
G02*
X131500000Y-113021000I0J-6000D01*
G01*
X131500000Y-113849000D01*
G75*
G02*
X131494000Y-113855000I-6000J0D01*
G01*
G37*
G04 #@! TD.AperFunction*
G04 #@! TA.AperFunction,SMDPad,CuDef*
G36*
G01*
X131894000Y-113855000D02*
X131706000Y-113855000D01*
G75*
G02*
X131700000Y-113849000I0J6000D01*
G01*
X131700000Y-113021000D01*
G75*
G02*
X131706000Y-113015000I6000J0D01*
G01*
X131894000Y-113015000D01*
G75*
G02*
X131900000Y-113021000I0J-6000D01*
G01*
X131900000Y-113849000D01*
G75*
G02*
X131894000Y-113855000I-6000J0D01*
G01*
G37*
G04 #@! TD.AperFunction*
G04 #@! TA.AperFunction,SMDPad,CuDef*
G36*
G01*
X132294000Y-113855000D02*
X132106000Y-113855000D01*
G75*
G02*
X132100000Y-113849000I0J6000D01*
G01*
X132100000Y-113021000D01*
G75*
G02*
X132106000Y-113015000I6000J0D01*
G01*
X132294000Y-113015000D01*
G75*
G02*
X132300000Y-113021000I0J-6000D01*
G01*
X132300000Y-113849000D01*
G75*
G02*
X132294000Y-113855000I-6000J0D01*
G01*
G37*
G04 #@! TD.AperFunction*
G04 #@! TA.AperFunction,SMDPad,CuDef*
G36*
G01*
X132694000Y-113855000D02*
X132506000Y-113855000D01*
G75*
G02*
X132500000Y-113849000I0J6000D01*
G01*
X132500000Y-113021000D01*
G75*
G02*
X132506000Y-113015000I6000J0D01*
G01*
X132694000Y-113015000D01*
G75*
G02*
X132700000Y-113021000I0J-6000D01*
G01*
X132700000Y-113849000D01*
G75*
G02*
X132694000Y-113855000I-6000J0D01*
G01*
G37*
G04 #@! TD.AperFunction*
G04 #@! TA.AperFunction,SMDPad,CuDef*
G36*
G01*
X133094000Y-113855000D02*
X132906000Y-113855000D01*
G75*
G02*
X132900000Y-113849000I0J6000D01*
G01*
X132900000Y-113021000D01*
G75*
G02*
X132906000Y-113015000I6000J0D01*
G01*
X133094000Y-113015000D01*
G75*
G02*
X133100000Y-113021000I0J-6000D01*
G01*
X133100000Y-113849000D01*
G75*
G02*
X133094000Y-113855000I-6000J0D01*
G01*
G37*
G04 #@! TD.AperFunction*
G04 #@! TA.AperFunction,SMDPad,CuDef*
G36*
G01*
X134235000Y-112700000D02*
X133435000Y-112700000D01*
G75*
G02*
X133415000Y-112680000I0J20000D01*
G01*
X133415000Y-112520000D01*
G75*
G02*
X133435000Y-112500000I20000J0D01*
G01*
X134235000Y-112500000D01*
G75*
G02*
X134255000Y-112520000I0J-20000D01*
G01*
X134255000Y-112680000D01*
G75*
G02*
X134235000Y-112700000I-20000J0D01*
G01*
G37*
G04 #@! TD.AperFunction*
G04 #@! TA.AperFunction,SMDPad,CuDef*
G36*
G01*
X134235000Y-112300000D02*
X133435000Y-112300000D01*
G75*
G02*
X133415000Y-112280000I0J20000D01*
G01*
X133415000Y-112120000D01*
G75*
G02*
X133435000Y-112100000I20000J0D01*
G01*
X134235000Y-112100000D01*
G75*
G02*
X134255000Y-112120000I0J-20000D01*
G01*
X134255000Y-112280000D01*
G75*
G02*
X134235000Y-112300000I-20000J0D01*
G01*
G37*
G04 #@! TD.AperFunction*
G04 #@! TA.AperFunction,SMDPad,CuDef*
G36*
G01*
X134235000Y-111900000D02*
X133435000Y-111900000D01*
G75*
G02*
X133415000Y-111880000I0J20000D01*
G01*
X133415000Y-111720000D01*
G75*
G02*
X133435000Y-111700000I20000J0D01*
G01*
X134235000Y-111700000D01*
G75*
G02*
X134255000Y-111720000I0J-20000D01*
G01*
X134255000Y-111880000D01*
G75*
G02*
X134235000Y-111900000I-20000J0D01*
G01*
G37*
G04 #@! TD.AperFunction*
G04 #@! TA.AperFunction,SMDPad,CuDef*
G36*
G01*
X134235000Y-111500000D02*
X133435000Y-111500000D01*
G75*
G02*
X133415000Y-111480000I0J20000D01*
G01*
X133415000Y-111320000D01*
G75*
G02*
X133435000Y-111300000I20000J0D01*
G01*
X134235000Y-111300000D01*
G75*
G02*
X134255000Y-111320000I0J-20000D01*
G01*
X134255000Y-111480000D01*
G75*
G02*
X134235000Y-111500000I-20000J0D01*
G01*
G37*
G04 #@! TD.AperFunction*
G04 #@! TA.AperFunction,SMDPad,CuDef*
G36*
G01*
X134235000Y-111100000D02*
X133435000Y-111100000D01*
G75*
G02*
X133415000Y-111080000I0J20000D01*
G01*
X133415000Y-110920000D01*
G75*
G02*
X133435000Y-110900000I20000J0D01*
G01*
X134235000Y-110900000D01*
G75*
G02*
X134255000Y-110920000I0J-20000D01*
G01*
X134255000Y-111080000D01*
G75*
G02*
X134235000Y-111100000I-20000J0D01*
G01*
G37*
G04 #@! TD.AperFunction*
G04 #@! TA.AperFunction,SMDPad,CuDef*
G36*
G01*
X134235000Y-110700000D02*
X133435000Y-110700000D01*
G75*
G02*
X133415000Y-110680000I0J20000D01*
G01*
X133415000Y-110520000D01*
G75*
G02*
X133435000Y-110500000I20000J0D01*
G01*
X134235000Y-110500000D01*
G75*
G02*
X134255000Y-110520000I0J-20000D01*
G01*
X134255000Y-110680000D01*
G75*
G02*
X134235000Y-110700000I-20000J0D01*
G01*
G37*
G04 #@! TD.AperFunction*
G04 #@! TA.AperFunction,SMDPad,CuDef*
G36*
G01*
X134235000Y-110300000D02*
X133435000Y-110300000D01*
G75*
G02*
X133415000Y-110280000I0J20000D01*
G01*
X133415000Y-110120000D01*
G75*
G02*
X133435000Y-110100000I20000J0D01*
G01*
X134235000Y-110100000D01*
G75*
G02*
X134255000Y-110120000I0J-20000D01*
G01*
X134255000Y-110280000D01*
G75*
G02*
X134235000Y-110300000I-20000J0D01*
G01*
G37*
G04 #@! TD.AperFunction*
G04 #@! TA.AperFunction,SMDPad,CuDef*
G36*
G01*
X134235000Y-109900000D02*
X133435000Y-109900000D01*
G75*
G02*
X133415000Y-109880000I0J20000D01*
G01*
X133415000Y-109720000D01*
G75*
G02*
X133435000Y-109700000I20000J0D01*
G01*
X134235000Y-109700000D01*
G75*
G02*
X134255000Y-109720000I0J-20000D01*
G01*
X134255000Y-109880000D01*
G75*
G02*
X134235000Y-109900000I-20000J0D01*
G01*
G37*
G04 #@! TD.AperFunction*
G04 #@! TA.AperFunction,SMDPad,CuDef*
G36*
G01*
X134235000Y-109500000D02*
X133435000Y-109500000D01*
G75*
G02*
X133415000Y-109480000I0J20000D01*
G01*
X133415000Y-109320000D01*
G75*
G02*
X133435000Y-109300000I20000J0D01*
G01*
X134235000Y-109300000D01*
G75*
G02*
X134255000Y-109320000I0J-20000D01*
G01*
X134255000Y-109480000D01*
G75*
G02*
X134235000Y-109500000I-20000J0D01*
G01*
G37*
G04 #@! TD.AperFunction*
G04 #@! TA.AperFunction,SMDPad,CuDef*
G36*
G01*
X134235000Y-109100000D02*
X133435000Y-109100000D01*
G75*
G02*
X133415000Y-109080000I0J20000D01*
G01*
X133415000Y-108920000D01*
G75*
G02*
X133435000Y-108900000I20000J0D01*
G01*
X134235000Y-108900000D01*
G75*
G02*
X134255000Y-108920000I0J-20000D01*
G01*
X134255000Y-109080000D01*
G75*
G02*
X134235000Y-109100000I-20000J0D01*
G01*
G37*
G04 #@! TD.AperFunction*
G04 #@! TA.AperFunction,SMDPad,CuDef*
G36*
G01*
X134235000Y-108700000D02*
X133435000Y-108700000D01*
G75*
G02*
X133415000Y-108680000I0J20000D01*
G01*
X133415000Y-108520000D01*
G75*
G02*
X133435000Y-108500000I20000J0D01*
G01*
X134235000Y-108500000D01*
G75*
G02*
X134255000Y-108520000I0J-20000D01*
G01*
X134255000Y-108680000D01*
G75*
G02*
X134235000Y-108700000I-20000J0D01*
G01*
G37*
G04 #@! TD.AperFunction*
G04 #@! TA.AperFunction,SMDPad,CuDef*
G36*
G01*
X134235000Y-108300000D02*
X133435000Y-108300000D01*
G75*
G02*
X133415000Y-108280000I0J20000D01*
G01*
X133415000Y-108120000D01*
G75*
G02*
X133435000Y-108100000I20000J0D01*
G01*
X134235000Y-108100000D01*
G75*
G02*
X134255000Y-108120000I0J-20000D01*
G01*
X134255000Y-108280000D01*
G75*
G02*
X134235000Y-108300000I-20000J0D01*
G01*
G37*
G04 #@! TD.AperFunction*
G04 #@! TA.AperFunction,SMDPad,CuDef*
G36*
G01*
X134235000Y-107900000D02*
X133435000Y-107900000D01*
G75*
G02*
X133415000Y-107880000I0J20000D01*
G01*
X133415000Y-107720000D01*
G75*
G02*
X133435000Y-107700000I20000J0D01*
G01*
X134235000Y-107700000D01*
G75*
G02*
X134255000Y-107720000I0J-20000D01*
G01*
X134255000Y-107880000D01*
G75*
G02*
X134235000Y-107900000I-20000J0D01*
G01*
G37*
G04 #@! TD.AperFunction*
G04 #@! TA.AperFunction,SMDPad,CuDef*
G36*
G01*
X134235000Y-107500000D02*
X133435000Y-107500000D01*
G75*
G02*
X133415000Y-107480000I0J20000D01*
G01*
X133415000Y-107320000D01*
G75*
G02*
X133435000Y-107300000I20000J0D01*
G01*
X134235000Y-107300000D01*
G75*
G02*
X134255000Y-107320000I0J-20000D01*
G01*
X134255000Y-107480000D01*
G75*
G02*
X134235000Y-107500000I-20000J0D01*
G01*
G37*
G04 #@! TD.AperFunction*
G04 #@! TA.AperFunction,SMDPad,CuDef*
G36*
G01*
X127365000Y-107500000D02*
X126565000Y-107500000D01*
G75*
G02*
X126545000Y-107480000I0J20000D01*
G01*
X126545000Y-107320000D01*
G75*
G02*
X126565000Y-107300000I20000J0D01*
G01*
X127365000Y-107300000D01*
G75*
G02*
X127385000Y-107320000I0J-20000D01*
G01*
X127385000Y-107480000D01*
G75*
G02*
X127365000Y-107500000I-20000J0D01*
G01*
G37*
G04 #@! TD.AperFunction*
G04 #@! TA.AperFunction,SMDPad,CuDef*
G36*
G01*
X127365000Y-107900000D02*
X126565000Y-107900000D01*
G75*
G02*
X126545000Y-107880000I0J20000D01*
G01*
X126545000Y-107720000D01*
G75*
G02*
X126565000Y-107700000I20000J0D01*
G01*
X127365000Y-107700000D01*
G75*
G02*
X127385000Y-107720000I0J-20000D01*
G01*
X127385000Y-107880000D01*
G75*
G02*
X127365000Y-107900000I-20000J0D01*
G01*
G37*
G04 #@! TD.AperFunction*
G04 #@! TA.AperFunction,SMDPad,CuDef*
G36*
G01*
X127365000Y-108300000D02*
X126565000Y-108300000D01*
G75*
G02*
X126545000Y-108280000I0J20000D01*
G01*
X126545000Y-108120000D01*
G75*
G02*
X126565000Y-108100000I20000J0D01*
G01*
X127365000Y-108100000D01*
G75*
G02*
X127385000Y-108120000I0J-20000D01*
G01*
X127385000Y-108280000D01*
G75*
G02*
X127365000Y-108300000I-20000J0D01*
G01*
G37*
G04 #@! TD.AperFunction*
G04 #@! TA.AperFunction,SMDPad,CuDef*
G36*
G01*
X127365000Y-108700000D02*
X126565000Y-108700000D01*
G75*
G02*
X126545000Y-108680000I0J20000D01*
G01*
X126545000Y-108520000D01*
G75*
G02*
X126565000Y-108500000I20000J0D01*
G01*
X127365000Y-108500000D01*
G75*
G02*
X127385000Y-108520000I0J-20000D01*
G01*
X127385000Y-108680000D01*
G75*
G02*
X127365000Y-108700000I-20000J0D01*
G01*
G37*
G04 #@! TD.AperFunction*
G04 #@! TA.AperFunction,SMDPad,CuDef*
G36*
G01*
X127365000Y-109100000D02*
X126565000Y-109100000D01*
G75*
G02*
X126545000Y-109080000I0J20000D01*
G01*
X126545000Y-108920000D01*
G75*
G02*
X126565000Y-108900000I20000J0D01*
G01*
X127365000Y-108900000D01*
G75*
G02*
X127385000Y-108920000I0J-20000D01*
G01*
X127385000Y-109080000D01*
G75*
G02*
X127365000Y-109100000I-20000J0D01*
G01*
G37*
G04 #@! TD.AperFunction*
G04 #@! TA.AperFunction,SMDPad,CuDef*
G36*
G01*
X127365000Y-109500000D02*
X126565000Y-109500000D01*
G75*
G02*
X126545000Y-109480000I0J20000D01*
G01*
X126545000Y-109320000D01*
G75*
G02*
X126565000Y-109300000I20000J0D01*
G01*
X127365000Y-109300000D01*
G75*
G02*
X127385000Y-109320000I0J-20000D01*
G01*
X127385000Y-109480000D01*
G75*
G02*
X127365000Y-109500000I-20000J0D01*
G01*
G37*
G04 #@! TD.AperFunction*
G04 #@! TA.AperFunction,SMDPad,CuDef*
G36*
G01*
X127365000Y-109900000D02*
X126565000Y-109900000D01*
G75*
G02*
X126545000Y-109880000I0J20000D01*
G01*
X126545000Y-109720000D01*
G75*
G02*
X126565000Y-109700000I20000J0D01*
G01*
X127365000Y-109700000D01*
G75*
G02*
X127385000Y-109720000I0J-20000D01*
G01*
X127385000Y-109880000D01*
G75*
G02*
X127365000Y-109900000I-20000J0D01*
G01*
G37*
G04 #@! TD.AperFunction*
G04 #@! TA.AperFunction,SMDPad,CuDef*
G36*
G01*
X127365000Y-110300000D02*
X126565000Y-110300000D01*
G75*
G02*
X126545000Y-110280000I0J20000D01*
G01*
X126545000Y-110120000D01*
G75*
G02*
X126565000Y-110100000I20000J0D01*
G01*
X127365000Y-110100000D01*
G75*
G02*
X127385000Y-110120000I0J-20000D01*
G01*
X127385000Y-110280000D01*
G75*
G02*
X127365000Y-110300000I-20000J0D01*
G01*
G37*
G04 #@! TD.AperFunction*
G04 #@! TA.AperFunction,SMDPad,CuDef*
G36*
G01*
X127365000Y-110700000D02*
X126565000Y-110700000D01*
G75*
G02*
X126545000Y-110680000I0J20000D01*
G01*
X126545000Y-110520000D01*
G75*
G02*
X126565000Y-110500000I20000J0D01*
G01*
X127365000Y-110500000D01*
G75*
G02*
X127385000Y-110520000I0J-20000D01*
G01*
X127385000Y-110680000D01*
G75*
G02*
X127365000Y-110700000I-20000J0D01*
G01*
G37*
G04 #@! TD.AperFunction*
G04 #@! TA.AperFunction,SMDPad,CuDef*
G36*
G01*
X127365000Y-111100000D02*
X126565000Y-111100000D01*
G75*
G02*
X126545000Y-111080000I0J20000D01*
G01*
X126545000Y-110920000D01*
G75*
G02*
X126565000Y-110900000I20000J0D01*
G01*
X127365000Y-110900000D01*
G75*
G02*
X127385000Y-110920000I0J-20000D01*
G01*
X127385000Y-111080000D01*
G75*
G02*
X127365000Y-111100000I-20000J0D01*
G01*
G37*
G04 #@! TD.AperFunction*
G04 #@! TA.AperFunction,SMDPad,CuDef*
G36*
G01*
X127365000Y-111500000D02*
X126565000Y-111500000D01*
G75*
G02*
X126545000Y-111480000I0J20000D01*
G01*
X126545000Y-111320000D01*
G75*
G02*
X126565000Y-111300000I20000J0D01*
G01*
X127365000Y-111300000D01*
G75*
G02*
X127385000Y-111320000I0J-20000D01*
G01*
X127385000Y-111480000D01*
G75*
G02*
X127365000Y-111500000I-20000J0D01*
G01*
G37*
G04 #@! TD.AperFunction*
G04 #@! TA.AperFunction,SMDPad,CuDef*
G36*
G01*
X127365000Y-111900000D02*
X126565000Y-111900000D01*
G75*
G02*
X126545000Y-111880000I0J20000D01*
G01*
X126545000Y-111720000D01*
G75*
G02*
X126565000Y-111700000I20000J0D01*
G01*
X127365000Y-111700000D01*
G75*
G02*
X127385000Y-111720000I0J-20000D01*
G01*
X127385000Y-111880000D01*
G75*
G02*
X127365000Y-111900000I-20000J0D01*
G01*
G37*
G04 #@! TD.AperFunction*
G04 #@! TA.AperFunction,SMDPad,CuDef*
G36*
G01*
X127365000Y-112300000D02*
X126565000Y-112300000D01*
G75*
G02*
X126545000Y-112280000I0J20000D01*
G01*
X126545000Y-112120000D01*
G75*
G02*
X126565000Y-112100000I20000J0D01*
G01*
X127365000Y-112100000D01*
G75*
G02*
X127385000Y-112120000I0J-20000D01*
G01*
X127385000Y-112280000D01*
G75*
G02*
X127365000Y-112300000I-20000J0D01*
G01*
G37*
G04 #@! TD.AperFunction*
G04 #@! TA.AperFunction,SMDPad,CuDef*
G36*
G01*
X127365000Y-112700000D02*
X126565000Y-112700000D01*
G75*
G02*
X126545000Y-112680000I0J20000D01*
G01*
X126545000Y-112520000D01*
G75*
G02*
X126565000Y-112500000I20000J0D01*
G01*
X127365000Y-112500000D01*
G75*
G02*
X127385000Y-112520000I0J-20000D01*
G01*
X127385000Y-112680000D01*
G75*
G02*
X127365000Y-112700000I-20000J0D01*
G01*
G37*
G04 #@! TD.AperFunction*
G04 #@! TA.AperFunction,SMDPad,CuDef*
D11*
G36*
X120690500Y-111957988D02*
G01*
X120690501Y-111957965D01*
X120693501Y-111914965D01*
X120693505Y-111914929D01*
X120699505Y-111872929D01*
X120699509Y-111872904D01*
X120707509Y-111831904D01*
X120707514Y-111831884D01*
X120717514Y-111789884D01*
X120717521Y-111789856D01*
X120729521Y-111749856D01*
X120729528Y-111749835D01*
X120743528Y-111709835D01*
X120743537Y-111709810D01*
X120759537Y-111670810D01*
X120759546Y-111670790D01*
X120777546Y-111631790D01*
X120777565Y-111631753D01*
X120798565Y-111594753D01*
X120798573Y-111594739D01*
X120820573Y-111558739D01*
X120820588Y-111558717D01*
X120844588Y-111523717D01*
X120844603Y-111523696D01*
X120870603Y-111489696D01*
X120870618Y-111489678D01*
X120897618Y-111457678D01*
X120897635Y-111457658D01*
X120926635Y-111426658D01*
X120926658Y-111426635D01*
X120957658Y-111397635D01*
X120957678Y-111397618D01*
X120989678Y-111370618D01*
X120989696Y-111370603D01*
X121023696Y-111344603D01*
X121023717Y-111344588D01*
X121058717Y-111320588D01*
X121058739Y-111320573D01*
X121094739Y-111298573D01*
X121094753Y-111298565D01*
X121131753Y-111277565D01*
X121131790Y-111277546D01*
X121170790Y-111259546D01*
X121170810Y-111259537D01*
X121209810Y-111243537D01*
X121209835Y-111243528D01*
X121249835Y-111229528D01*
X121249856Y-111229521D01*
X121289856Y-111217521D01*
X121289884Y-111217514D01*
X121331884Y-111207514D01*
X121331904Y-111207509D01*
X121372904Y-111199509D01*
X121372929Y-111199505D01*
X121414929Y-111193505D01*
X121414965Y-111193501D01*
X121457965Y-111190501D01*
X121457988Y-111190500D01*
X121499988Y-111189500D01*
X121510013Y-111189500D01*
X121549013Y-111190500D01*
X121549036Y-111190501D01*
X121591036Y-111193501D01*
X121591071Y-111193505D01*
X121633071Y-111199505D01*
X121633096Y-111199509D01*
X121674096Y-111207509D01*
X121674107Y-111207512D01*
X121715107Y-111216512D01*
X121715144Y-111216521D01*
X121755144Y-111228521D01*
X121755165Y-111228528D01*
X121795165Y-111242528D01*
X121795190Y-111242537D01*
X121834190Y-111258537D01*
X121834214Y-111258548D01*
X121872214Y-111276548D01*
X121872247Y-111276565D01*
X121909247Y-111297565D01*
X121909252Y-111297568D01*
X121945252Y-111318568D01*
X121945288Y-111318592D01*
X121979288Y-111342592D01*
X121979304Y-111342603D01*
X122013304Y-111368603D01*
X122013328Y-111368623D01*
X122044328Y-111395623D01*
X122044342Y-111395635D01*
X122075342Y-111424635D01*
X122075365Y-111424658D01*
X122104365Y-111455658D01*
X122104377Y-111455672D01*
X122131377Y-111486672D01*
X122131397Y-111486696D01*
X122157397Y-111520696D01*
X122157408Y-111520712D01*
X122181408Y-111554712D01*
X122181432Y-111554748D01*
X122202432Y-111590748D01*
X122202435Y-111590753D01*
X122223435Y-111627753D01*
X122223452Y-111627786D01*
X122241452Y-111665786D01*
X122241463Y-111665810D01*
X122257463Y-111704810D01*
X122257472Y-111704835D01*
X122271472Y-111744835D01*
X122271479Y-111744856D01*
X122283479Y-111784856D01*
X122283488Y-111784893D01*
X122292488Y-111825893D01*
X122292491Y-111825904D01*
X122300491Y-111866904D01*
X122300495Y-111866929D01*
X122306495Y-111908929D01*
X122306499Y-111908964D01*
X122309499Y-111950964D01*
X122309500Y-111950989D01*
X122310500Y-111994989D01*
X122310492Y-111995086D01*
X122310466Y-111995181D01*
X122310422Y-111995268D01*
X122310361Y-111995345D01*
X122310287Y-111995409D01*
X122310202Y-111995457D01*
X122310109Y-111995488D01*
X122310000Y-111995500D01*
X122010000Y-111995500D01*
X122009902Y-111995490D01*
X122009809Y-111995462D01*
X122009722Y-111995416D01*
X122009646Y-111995354D01*
X122009584Y-111995278D01*
X122009538Y-111995191D01*
X122009510Y-111995098D01*
X122009500Y-111995000D01*
X122009500Y-111980022D01*
X122006504Y-111951057D01*
X122006503Y-111951057D01*
X122003505Y-111925071D01*
X121998513Y-111900112D01*
X121992518Y-111875135D01*
X121976535Y-111827184D01*
X121966541Y-111803200D01*
X121944555Y-111757229D01*
X121931586Y-111735282D01*
X121901599Y-111693300D01*
X121885627Y-111674333D01*
X121868627Y-111655333D01*
X121850650Y-111636358D01*
X121831667Y-111619373D01*
X121812697Y-111603398D01*
X121791704Y-111587403D01*
X121770723Y-111573416D01*
X121726771Y-111547445D01*
X121703800Y-111536459D01*
X121679808Y-111526462D01*
X121655842Y-111517475D01*
X121631860Y-111510480D01*
X121606885Y-111503487D01*
X121581921Y-111498494D01*
X121556921Y-111494494D01*
X121531958Y-111491498D01*
X121510000Y-111490500D01*
X121487023Y-111490500D01*
X121460037Y-111492499D01*
X121433055Y-111495497D01*
X121407092Y-111499491D01*
X121380130Y-111505483D01*
X121354141Y-111512480D01*
X121329186Y-111521464D01*
X121304201Y-111531458D01*
X121279221Y-111542449D01*
X121255238Y-111555440D01*
X121232268Y-111568423D01*
X121210282Y-111583413D01*
X121188315Y-111599389D01*
X121167319Y-111616386D01*
X121147353Y-111635353D01*
X121147354Y-111635354D01*
X121128354Y-111654354D01*
X121110388Y-111674317D01*
X121094398Y-111695303D01*
X121078418Y-111717275D01*
X121050438Y-111763242D01*
X121038454Y-111787209D01*
X121027461Y-111812195D01*
X121018478Y-111837147D01*
X121010481Y-111863136D01*
X121003489Y-111889109D01*
X120998492Y-111916091D01*
X120994496Y-111942060D01*
X120991499Y-111969033D01*
X120990500Y-112000016D01*
X120990500Y-112009983D01*
X120991499Y-112039967D01*
X120994496Y-112066940D01*
X120998492Y-112092912D01*
X121003488Y-112118889D01*
X121017473Y-112168837D01*
X121027462Y-112193808D01*
X121037457Y-112217796D01*
X121049444Y-112241769D01*
X121062427Y-112264740D01*
X121076416Y-112286722D01*
X121092398Y-112308697D01*
X121108382Y-112329676D01*
X121144351Y-112367643D01*
X121164324Y-112385619D01*
X121184313Y-112402609D01*
X121205289Y-112418592D01*
X121227268Y-112432578D01*
X121250242Y-112446562D01*
X121274208Y-112458545D01*
X121298208Y-112469545D01*
X121322180Y-112479533D01*
X121347130Y-112487517D01*
X121373130Y-112494517D01*
X121399093Y-112500509D01*
X121425057Y-112504503D01*
X121451038Y-112507501D01*
X121477025Y-112509500D01*
X121499983Y-112509500D01*
X121528963Y-112508501D01*
X121555956Y-112506502D01*
X121581921Y-112503506D01*
X121607902Y-112498510D01*
X121633868Y-112492518D01*
X121658845Y-112484525D01*
X121683814Y-112475536D01*
X121708792Y-112465545D01*
X121732778Y-112454551D01*
X121755740Y-112441573D01*
X121778726Y-112427581D01*
X121800706Y-112412596D01*
X121821687Y-112396609D01*
X121841656Y-112379636D01*
X121879636Y-112341656D01*
X121896609Y-112321687D01*
X121912596Y-112300706D01*
X121927581Y-112278726D01*
X121941572Y-112255742D01*
X121954551Y-112232778D01*
X121965543Y-112208795D01*
X121975536Y-112183814D01*
X121984524Y-112158848D01*
X121992518Y-112133868D01*
X121998510Y-112107902D01*
X122003505Y-112081929D01*
X122006502Y-112055956D01*
X122008500Y-112028973D01*
X122009500Y-112004979D01*
X122009514Y-112004882D01*
X122009546Y-112004790D01*
X122009596Y-112004705D01*
X122009661Y-112004632D01*
X122009740Y-112004573D01*
X122009828Y-112004530D01*
X122009923Y-112004506D01*
X122010000Y-112004500D01*
X122310000Y-112004500D01*
X122310098Y-112004510D01*
X122310191Y-112004538D01*
X122310278Y-112004584D01*
X122310354Y-112004646D01*
X122310416Y-112004722D01*
X122310462Y-112004809D01*
X122310490Y-112004902D01*
X122310500Y-112005011D01*
X122309500Y-112049011D01*
X122309499Y-112049036D01*
X122306499Y-112091036D01*
X122306495Y-112091071D01*
X122300495Y-112133071D01*
X122300491Y-112133096D01*
X122292491Y-112174096D01*
X122292488Y-112174107D01*
X122283488Y-112215107D01*
X122283479Y-112215144D01*
X122271479Y-112255144D01*
X122271472Y-112255165D01*
X122257472Y-112295165D01*
X122257463Y-112295190D01*
X122241463Y-112334190D01*
X122241452Y-112334214D01*
X122223452Y-112372214D01*
X122223435Y-112372247D01*
X122202435Y-112409247D01*
X122202432Y-112409252D01*
X122181432Y-112445252D01*
X122181408Y-112445288D01*
X122157408Y-112479288D01*
X122157397Y-112479304D01*
X122131397Y-112513304D01*
X122131377Y-112513328D01*
X122104377Y-112544328D01*
X122104365Y-112544342D01*
X122075365Y-112575342D01*
X122075342Y-112575365D01*
X122044342Y-112604365D01*
X122044328Y-112604377D01*
X122013328Y-112631377D01*
X122013304Y-112631397D01*
X121979304Y-112657397D01*
X121979288Y-112657408D01*
X121945288Y-112681408D01*
X121945252Y-112681432D01*
X121909252Y-112702432D01*
X121909247Y-112702435D01*
X121872247Y-112723435D01*
X121872214Y-112723452D01*
X121834214Y-112741452D01*
X121834190Y-112741463D01*
X121795190Y-112757463D01*
X121795165Y-112757472D01*
X121755165Y-112771472D01*
X121755144Y-112771479D01*
X121715144Y-112783479D01*
X121715107Y-112783488D01*
X121674107Y-112792488D01*
X121674096Y-112792491D01*
X121633096Y-112800491D01*
X121633071Y-112800495D01*
X121591071Y-112806495D01*
X121591036Y-112806499D01*
X121549036Y-112809499D01*
X121549013Y-112809500D01*
X121510013Y-112810500D01*
X121440000Y-112810500D01*
X121439953Y-112810498D01*
X121407953Y-112807498D01*
X121407948Y-112807497D01*
X121369948Y-112803497D01*
X121369909Y-112803492D01*
X121331909Y-112796492D01*
X121331885Y-112796487D01*
X121293885Y-112787487D01*
X121293870Y-112787483D01*
X121256870Y-112777483D01*
X121256846Y-112777476D01*
X121219846Y-112765476D01*
X121219819Y-112765466D01*
X121183819Y-112751466D01*
X121183803Y-112751460D01*
X121148803Y-112736460D01*
X121148771Y-112736445D01*
X121113771Y-112718445D01*
X121113761Y-112718439D01*
X121080761Y-112700439D01*
X121080732Y-112700422D01*
X121047732Y-112679422D01*
X121047717Y-112679412D01*
X121015717Y-112657412D01*
X121015688Y-112657390D01*
X120985688Y-112633390D01*
X120985680Y-112633384D01*
X120955680Y-112608384D01*
X120955660Y-112608366D01*
X120927660Y-112582366D01*
X120927640Y-112582347D01*
X120900640Y-112554347D01*
X120900628Y-112554334D01*
X120874628Y-112525334D01*
X120874610Y-112525312D01*
X120850610Y-112495312D01*
X120850592Y-112495289D01*
X120828592Y-112464289D01*
X120828578Y-112464268D01*
X120807578Y-112431268D01*
X120807572Y-112431259D01*
X120787572Y-112398259D01*
X120787558Y-112398234D01*
X120769558Y-112364234D01*
X120769545Y-112364208D01*
X120753545Y-112329208D01*
X120753534Y-112329181D01*
X120739534Y-112293181D01*
X120739528Y-112293166D01*
X120726528Y-112256166D01*
X120726521Y-112256142D01*
X120715521Y-112219142D01*
X120715514Y-112219118D01*
X120706514Y-112182118D01*
X120706508Y-112182091D01*
X120699508Y-112144091D01*
X120699506Y-112144076D01*
X120693506Y-112105076D01*
X120693502Y-112105044D01*
X120689502Y-112060044D01*
X120689500Y-112060000D01*
X120689500Y-111999988D01*
X120690500Y-111957988D01*
G37*
G04 #@! TD.AperFunction*
D12*
X122752000Y-111162500D03*
X123574000Y-111162500D03*
X122752000Y-112837500D03*
X123574000Y-112837500D03*
D13*
X141900000Y-115500000D03*
X141900000Y-113000000D03*
X141900000Y-111000000D03*
D14*
X141900000Y-108500000D03*
D15*
X144000000Y-106150000D03*
X144000000Y-117850000D03*
D16*
X135400000Y-116200000D03*
D17*
X136150000Y-114980000D03*
X135650000Y-114980000D03*
X135150000Y-114980000D03*
X134650000Y-114980000D03*
X134650000Y-117420000D03*
X135150000Y-117420000D03*
X135650000Y-117420000D03*
X136150000Y-117420000D03*
D18*
X138800000Y-113400000D03*
X137850000Y-115400000D03*
X139750000Y-115400000D03*
G04 #@! TA.AperFunction,SMDPad,CuDef*
G36*
G01*
X138800000Y-118170000D02*
X138800000Y-117830000D01*
G75*
G02*
X138940000Y-117690000I140000J0D01*
G01*
X139220000Y-117690000D01*
G75*
G02*
X139360000Y-117830000I0J-140000D01*
G01*
X139360000Y-118170000D01*
G75*
G02*
X139220000Y-118310000I-140000J0D01*
G01*
X138940000Y-118310000D01*
G75*
G02*
X138800000Y-118170000I0J140000D01*
G01*
G37*
G04 #@! TD.AperFunction*
G04 #@! TA.AperFunction,SMDPad,CuDef*
G36*
G01*
X137840000Y-118170000D02*
X137840000Y-117830000D01*
G75*
G02*
X137980000Y-117690000I140000J0D01*
G01*
X138260000Y-117690000D01*
G75*
G02*
X138400000Y-117830000I0J-140000D01*
G01*
X138400000Y-118170000D01*
G75*
G02*
X138260000Y-118310000I-140000J0D01*
G01*
X137980000Y-118310000D01*
G75*
G02*
X137840000Y-118170000I0J140000D01*
G01*
G37*
G04 #@! TD.AperFunction*
G04 #@! TA.AperFunction,SMDPad,CuDef*
G36*
G01*
X129230000Y-117240000D02*
X129570000Y-117240000D01*
G75*
G02*
X129710000Y-117380000I0J-140000D01*
G01*
X129710000Y-117660000D01*
G75*
G02*
X129570000Y-117800000I-140000J0D01*
G01*
X129230000Y-117800000D01*
G75*
G02*
X129090000Y-117660000I0J140000D01*
G01*
X129090000Y-117380000D01*
G75*
G02*
X129230000Y-117240000I140000J0D01*
G01*
G37*
G04 #@! TD.AperFunction*
G04 #@! TA.AperFunction,SMDPad,CuDef*
G36*
G01*
X129230000Y-118200000D02*
X129570000Y-118200000D01*
G75*
G02*
X129710000Y-118340000I0J-140000D01*
G01*
X129710000Y-118620000D01*
G75*
G02*
X129570000Y-118760000I-140000J0D01*
G01*
X129230000Y-118760000D01*
G75*
G02*
X129090000Y-118620000I0J140000D01*
G01*
X129090000Y-118340000D01*
G75*
G02*
X129230000Y-118200000I140000J0D01*
G01*
G37*
G04 #@! TD.AperFunction*
G04 #@! TA.AperFunction,SMDPad,CuDef*
G36*
G01*
X131780000Y-105065000D02*
X131780000Y-105435000D01*
G75*
G02*
X131645000Y-105570000I-135000J0D01*
G01*
X131375000Y-105570000D01*
G75*
G02*
X131240000Y-105435000I0J135000D01*
G01*
X131240000Y-105065000D01*
G75*
G02*
X131375000Y-104930000I135000J0D01*
G01*
X131645000Y-104930000D01*
G75*
G02*
X131780000Y-105065000I0J-135000D01*
G01*
G37*
G04 #@! TD.AperFunction*
G04 #@! TA.AperFunction,SMDPad,CuDef*
G36*
G01*
X130760000Y-105065000D02*
X130760000Y-105435000D01*
G75*
G02*
X130625000Y-105570000I-135000J0D01*
G01*
X130355000Y-105570000D01*
G75*
G02*
X130220000Y-105435000I0J135000D01*
G01*
X130220000Y-105065000D01*
G75*
G02*
X130355000Y-104930000I135000J0D01*
G01*
X130625000Y-104930000D01*
G75*
G02*
X130760000Y-105065000I0J-135000D01*
G01*
G37*
G04 #@! TD.AperFunction*
G04 #@! TA.AperFunction,SMDPad,CuDef*
G36*
G01*
X122585000Y-109160000D02*
X122215000Y-109160000D01*
G75*
G02*
X122080000Y-109025000I0J135000D01*
G01*
X122080000Y-108755000D01*
G75*
G02*
X122215000Y-108620000I135000J0D01*
G01*
X122585000Y-108620000D01*
G75*
G02*
X122720000Y-108755000I0J-135000D01*
G01*
X122720000Y-109025000D01*
G75*
G02*
X122585000Y-109160000I-135000J0D01*
G01*
G37*
G04 #@! TD.AperFunction*
G04 #@! TA.AperFunction,SMDPad,CuDef*
G36*
G01*
X122585000Y-110180000D02*
X122215000Y-110180000D01*
G75*
G02*
X122080000Y-110045000I0J135000D01*
G01*
X122080000Y-109775000D01*
G75*
G02*
X122215000Y-109640000I135000J0D01*
G01*
X122585000Y-109640000D01*
G75*
G02*
X122720000Y-109775000I0J-135000D01*
G01*
X122720000Y-110045000D01*
G75*
G02*
X122585000Y-110180000I-135000J0D01*
G01*
G37*
G04 #@! TD.AperFunction*
G04 #@! TA.AperFunction,SMDPad,CuDef*
G36*
G01*
X125160000Y-109630000D02*
X125160000Y-109970000D01*
G75*
G02*
X125020000Y-110110000I-140000J0D01*
G01*
X124740000Y-110110000D01*
G75*
G02*
X124600000Y-109970000I0J140000D01*
G01*
X124600000Y-109630000D01*
G75*
G02*
X124740000Y-109490000I140000J0D01*
G01*
X125020000Y-109490000D01*
G75*
G02*
X125160000Y-109630000I0J-140000D01*
G01*
G37*
G04 #@! TD.AperFunction*
G04 #@! TA.AperFunction,SMDPad,CuDef*
G36*
G01*
X124200000Y-109630000D02*
X124200000Y-109970000D01*
G75*
G02*
X124060000Y-110110000I-140000J0D01*
G01*
X123780000Y-110110000D01*
G75*
G02*
X123640000Y-109970000I0J140000D01*
G01*
X123640000Y-109630000D01*
G75*
G02*
X123780000Y-109490000I140000J0D01*
G01*
X124060000Y-109490000D01*
G75*
G02*
X124200000Y-109630000I0J-140000D01*
G01*
G37*
G04 #@! TD.AperFunction*
G04 #@! TA.AperFunction,SMDPad,CuDef*
G36*
G01*
X129230000Y-116000000D02*
X129570000Y-116000000D01*
G75*
G02*
X129710000Y-116140000I0J-140000D01*
G01*
X129710000Y-116420000D01*
G75*
G02*
X129570000Y-116560000I-140000J0D01*
G01*
X129230000Y-116560000D01*
G75*
G02*
X129090000Y-116420000I0J140000D01*
G01*
X129090000Y-116140000D01*
G75*
G02*
X129230000Y-116000000I140000J0D01*
G01*
G37*
G04 #@! TD.AperFunction*
G04 #@! TA.AperFunction,SMDPad,CuDef*
G36*
G01*
X129230000Y-115040000D02*
X129570000Y-115040000D01*
G75*
G02*
X129710000Y-115180000I0J-140000D01*
G01*
X129710000Y-115460000D01*
G75*
G02*
X129570000Y-115600000I-140000J0D01*
G01*
X129230000Y-115600000D01*
G75*
G02*
X129090000Y-115460000I0J140000D01*
G01*
X129090000Y-115180000D01*
G75*
G02*
X129230000Y-115040000I140000J0D01*
G01*
G37*
G04 #@! TD.AperFunction*
G04 #@! TA.AperFunction,SMDPad,CuDef*
G36*
G01*
X137580000Y-119015000D02*
X137580000Y-119385000D01*
G75*
G02*
X137445000Y-119520000I-135000J0D01*
G01*
X137175000Y-119520000D01*
G75*
G02*
X137040000Y-119385000I0J135000D01*
G01*
X137040000Y-119015000D01*
G75*
G02*
X137175000Y-118880000I135000J0D01*
G01*
X137445000Y-118880000D01*
G75*
G02*
X137580000Y-119015000I0J-135000D01*
G01*
G37*
G04 #@! TD.AperFunction*
G04 #@! TA.AperFunction,SMDPad,CuDef*
G36*
G01*
X136560000Y-119015000D02*
X136560000Y-119385000D01*
G75*
G02*
X136425000Y-119520000I-135000J0D01*
G01*
X136155000Y-119520000D01*
G75*
G02*
X136020000Y-119385000I0J135000D01*
G01*
X136020000Y-119015000D01*
G75*
G02*
X136155000Y-118880000I135000J0D01*
G01*
X136425000Y-118880000D01*
G75*
G02*
X136560000Y-119015000I0J-135000D01*
G01*
G37*
G04 #@! TD.AperFunction*
G04 #@! TA.AperFunction,SMDPad,CuDef*
G36*
G01*
X137840000Y-106670000D02*
X137840000Y-106330000D01*
G75*
G02*
X137980000Y-106190000I140000J0D01*
G01*
X138260000Y-106190000D01*
G75*
G02*
X138400000Y-106330000I0J-140000D01*
G01*
X138400000Y-106670000D01*
G75*
G02*
X138260000Y-106810000I-140000J0D01*
G01*
X137980000Y-106810000D01*
G75*
G02*
X137840000Y-106670000I0J140000D01*
G01*
G37*
G04 #@! TD.AperFunction*
G04 #@! TA.AperFunction,SMDPad,CuDef*
G36*
G01*
X138800000Y-106670000D02*
X138800000Y-106330000D01*
G75*
G02*
X138940000Y-106190000I140000J0D01*
G01*
X139220000Y-106190000D01*
G75*
G02*
X139360000Y-106330000I0J-140000D01*
G01*
X139360000Y-106670000D01*
G75*
G02*
X139220000Y-106810000I-140000J0D01*
G01*
X138940000Y-106810000D01*
G75*
G02*
X138800000Y-106670000I0J140000D01*
G01*
G37*
G04 #@! TD.AperFunction*
G04 #@! TA.AperFunction,SMDPad,CuDef*
G36*
G01*
X132630000Y-115040000D02*
X132970000Y-115040000D01*
G75*
G02*
X133110000Y-115180000I0J-140000D01*
G01*
X133110000Y-115460000D01*
G75*
G02*
X132970000Y-115600000I-140000J0D01*
G01*
X132630000Y-115600000D01*
G75*
G02*
X132490000Y-115460000I0J140000D01*
G01*
X132490000Y-115180000D01*
G75*
G02*
X132630000Y-115040000I140000J0D01*
G01*
G37*
G04 #@! TD.AperFunction*
G04 #@! TA.AperFunction,SMDPad,CuDef*
G36*
G01*
X132630000Y-116000000D02*
X132970000Y-116000000D01*
G75*
G02*
X133110000Y-116140000I0J-140000D01*
G01*
X133110000Y-116420000D01*
G75*
G02*
X132970000Y-116560000I-140000J0D01*
G01*
X132630000Y-116560000D01*
G75*
G02*
X132490000Y-116420000I0J140000D01*
G01*
X132490000Y-116140000D01*
G75*
G02*
X132630000Y-116000000I140000J0D01*
G01*
G37*
G04 #@! TD.AperFunction*
G04 #@! TA.AperFunction,SMDPad,CuDef*
G36*
G01*
X125160000Y-108630000D02*
X125160000Y-108970000D01*
G75*
G02*
X125020000Y-109110000I-140000J0D01*
G01*
X124740000Y-109110000D01*
G75*
G02*
X124600000Y-108970000I0J140000D01*
G01*
X124600000Y-108630000D01*
G75*
G02*
X124740000Y-108490000I140000J0D01*
G01*
X125020000Y-108490000D01*
G75*
G02*
X125160000Y-108630000I0J-140000D01*
G01*
G37*
G04 #@! TD.AperFunction*
G04 #@! TA.AperFunction,SMDPad,CuDef*
G36*
G01*
X124200000Y-108630000D02*
X124200000Y-108970000D01*
G75*
G02*
X124060000Y-109110000I-140000J0D01*
G01*
X123780000Y-109110000D01*
G75*
G02*
X123640000Y-108970000I0J140000D01*
G01*
X123640000Y-108630000D01*
G75*
G02*
X123780000Y-108490000I140000J0D01*
G01*
X124060000Y-108490000D01*
G75*
G02*
X124200000Y-108630000I0J-140000D01*
G01*
G37*
G04 #@! TD.AperFunction*
G04 #@! TA.AperFunction,SMDPad,CuDef*
G36*
G01*
X138840000Y-109085000D02*
X138840000Y-108715000D01*
G75*
G02*
X138975000Y-108580000I135000J0D01*
G01*
X139245000Y-108580000D01*
G75*
G02*
X139380000Y-108715000I0J-135000D01*
G01*
X139380000Y-109085000D01*
G75*
G02*
X139245000Y-109220000I-135000J0D01*
G01*
X138975000Y-109220000D01*
G75*
G02*
X138840000Y-109085000I0J135000D01*
G01*
G37*
G04 #@! TD.AperFunction*
G04 #@! TA.AperFunction,SMDPad,CuDef*
G36*
G01*
X137820000Y-109085000D02*
X137820000Y-108715000D01*
G75*
G02*
X137955000Y-108580000I135000J0D01*
G01*
X138225000Y-108580000D01*
G75*
G02*
X138360000Y-108715000I0J-135000D01*
G01*
X138360000Y-109085000D01*
G75*
G02*
X138225000Y-109220000I-135000J0D01*
G01*
X137955000Y-109220000D01*
G75*
G02*
X137820000Y-109085000I0J135000D01*
G01*
G37*
G04 #@! TD.AperFunction*
G04 #@! TA.AperFunction,SMDPad,CuDef*
G36*
G01*
X125580000Y-114015000D02*
X125580000Y-114385000D01*
G75*
G02*
X125445000Y-114520000I-135000J0D01*
G01*
X125175000Y-114520000D01*
G75*
G02*
X125040000Y-114385000I0J135000D01*
G01*
X125040000Y-114015000D01*
G75*
G02*
X125175000Y-113880000I135000J0D01*
G01*
X125445000Y-113880000D01*
G75*
G02*
X125580000Y-114015000I0J-135000D01*
G01*
G37*
G04 #@! TD.AperFunction*
G04 #@! TA.AperFunction,SMDPad,CuDef*
G36*
G01*
X124560000Y-114015000D02*
X124560000Y-114385000D01*
G75*
G02*
X124425000Y-114520000I-135000J0D01*
G01*
X124155000Y-114520000D01*
G75*
G02*
X124020000Y-114385000I0J135000D01*
G01*
X124020000Y-114015000D01*
G75*
G02*
X124155000Y-113880000I135000J0D01*
G01*
X124425000Y-113880000D01*
G75*
G02*
X124560000Y-114015000I0J-135000D01*
G01*
G37*
G04 #@! TD.AperFunction*
G04 #@! TA.AperFunction,SMDPad,CuDef*
G36*
G01*
X128000000Y-105080000D02*
X128000000Y-105420000D01*
G75*
G02*
X127860000Y-105560000I-140000J0D01*
G01*
X127580000Y-105560000D01*
G75*
G02*
X127440000Y-105420000I0J140000D01*
G01*
X127440000Y-105080000D01*
G75*
G02*
X127580000Y-104940000I140000J0D01*
G01*
X127860000Y-104940000D01*
G75*
G02*
X128000000Y-105080000I0J-140000D01*
G01*
G37*
G04 #@! TD.AperFunction*
G04 #@! TA.AperFunction,SMDPad,CuDef*
G36*
G01*
X128960000Y-105080000D02*
X128960000Y-105420000D01*
G75*
G02*
X128820000Y-105560000I-140000J0D01*
G01*
X128540000Y-105560000D01*
G75*
G02*
X128400000Y-105420000I0J140000D01*
G01*
X128400000Y-105080000D01*
G75*
G02*
X128540000Y-104940000I140000J0D01*
G01*
X128820000Y-104940000D01*
G75*
G02*
X128960000Y-105080000I0J-140000D01*
G01*
G37*
G04 #@! TD.AperFunction*
G04 #@! TA.AperFunction,SMDPad,CuDef*
G36*
G01*
X139360000Y-111830000D02*
X139360000Y-112170000D01*
G75*
G02*
X139220000Y-112310000I-140000J0D01*
G01*
X138940000Y-112310000D01*
G75*
G02*
X138800000Y-112170000I0J140000D01*
G01*
X138800000Y-111830000D01*
G75*
G02*
X138940000Y-111690000I140000J0D01*
G01*
X139220000Y-111690000D01*
G75*
G02*
X139360000Y-111830000I0J-140000D01*
G01*
G37*
G04 #@! TD.AperFunction*
G04 #@! TA.AperFunction,SMDPad,CuDef*
G36*
G01*
X138400000Y-111830000D02*
X138400000Y-112170000D01*
G75*
G02*
X138260000Y-112310000I-140000J0D01*
G01*
X137980000Y-112310000D01*
G75*
G02*
X137840000Y-112170000I0J140000D01*
G01*
X137840000Y-111830000D01*
G75*
G02*
X137980000Y-111690000I140000J0D01*
G01*
X138260000Y-111690000D01*
G75*
G02*
X138400000Y-111830000I0J-140000D01*
G01*
G37*
G04 #@! TD.AperFunction*
G04 #@! TA.AperFunction,SMDPad,CuDef*
G36*
G01*
X124970000Y-107960000D02*
X124630000Y-107960000D01*
G75*
G02*
X124490000Y-107820000I0J140000D01*
G01*
X124490000Y-107540000D01*
G75*
G02*
X124630000Y-107400000I140000J0D01*
G01*
X124970000Y-107400000D01*
G75*
G02*
X125110000Y-107540000I0J-140000D01*
G01*
X125110000Y-107820000D01*
G75*
G02*
X124970000Y-107960000I-140000J0D01*
G01*
G37*
G04 #@! TD.AperFunction*
G04 #@! TA.AperFunction,SMDPad,CuDef*
G36*
G01*
X124970000Y-107000000D02*
X124630000Y-107000000D01*
G75*
G02*
X124490000Y-106860000I0J140000D01*
G01*
X124490000Y-106580000D01*
G75*
G02*
X124630000Y-106440000I140000J0D01*
G01*
X124970000Y-106440000D01*
G75*
G02*
X125110000Y-106580000I0J-140000D01*
G01*
X125110000Y-106860000D01*
G75*
G02*
X124970000Y-107000000I-140000J0D01*
G01*
G37*
G04 #@! TD.AperFunction*
G04 #@! TA.AperFunction,SMDPad,CuDef*
G36*
G01*
X135640000Y-105420000D02*
X135640000Y-105080000D01*
G75*
G02*
X135780000Y-104940000I140000J0D01*
G01*
X136060000Y-104940000D01*
G75*
G02*
X136200000Y-105080000I0J-140000D01*
G01*
X136200000Y-105420000D01*
G75*
G02*
X136060000Y-105560000I-140000J0D01*
G01*
X135780000Y-105560000D01*
G75*
G02*
X135640000Y-105420000I0J140000D01*
G01*
G37*
G04 #@! TD.AperFunction*
G04 #@! TA.AperFunction,SMDPad,CuDef*
G36*
G01*
X136600000Y-105420000D02*
X136600000Y-105080000D01*
G75*
G02*
X136740000Y-104940000I140000J0D01*
G01*
X137020000Y-104940000D01*
G75*
G02*
X137160000Y-105080000I0J-140000D01*
G01*
X137160000Y-105420000D01*
G75*
G02*
X137020000Y-105560000I-140000J0D01*
G01*
X136740000Y-105560000D01*
G75*
G02*
X136600000Y-105420000I0J140000D01*
G01*
G37*
G04 #@! TD.AperFunction*
G04 #@! TA.AperFunction,SMDPad,CuDef*
G36*
G01*
X137840000Y-105420000D02*
X137840000Y-105080000D01*
G75*
G02*
X137980000Y-104940000I140000J0D01*
G01*
X138260000Y-104940000D01*
G75*
G02*
X138400000Y-105080000I0J-140000D01*
G01*
X138400000Y-105420000D01*
G75*
G02*
X138260000Y-105560000I-140000J0D01*
G01*
X137980000Y-105560000D01*
G75*
G02*
X137840000Y-105420000I0J140000D01*
G01*
G37*
G04 #@! TD.AperFunction*
G04 #@! TA.AperFunction,SMDPad,CuDef*
G36*
G01*
X138800000Y-105420000D02*
X138800000Y-105080000D01*
G75*
G02*
X138940000Y-104940000I140000J0D01*
G01*
X139220000Y-104940000D01*
G75*
G02*
X139360000Y-105080000I0J-140000D01*
G01*
X139360000Y-105420000D01*
G75*
G02*
X139220000Y-105560000I-140000J0D01*
G01*
X138940000Y-105560000D01*
G75*
G02*
X138800000Y-105420000I0J140000D01*
G01*
G37*
G04 #@! TD.AperFunction*
D19*
X124350000Y-118000000D03*
X127650000Y-118000000D03*
X127650000Y-116000000D03*
X124350000Y-116000000D03*
G04 #@! TA.AperFunction,SMDPad,CuDef*
G36*
G01*
X122230000Y-107400000D02*
X122570000Y-107400000D01*
G75*
G02*
X122710000Y-107540000I0J-140000D01*
G01*
X122710000Y-107820000D01*
G75*
G02*
X122570000Y-107960000I-140000J0D01*
G01*
X122230000Y-107960000D01*
G75*
G02*
X122090000Y-107820000I0J140000D01*
G01*
X122090000Y-107540000D01*
G75*
G02*
X122230000Y-107400000I140000J0D01*
G01*
G37*
G04 #@! TD.AperFunction*
G04 #@! TA.AperFunction,SMDPad,CuDef*
G36*
G01*
X122230000Y-106440000D02*
X122570000Y-106440000D01*
G75*
G02*
X122710000Y-106580000I0J-140000D01*
G01*
X122710000Y-106860000D01*
G75*
G02*
X122570000Y-107000000I-140000J0D01*
G01*
X122230000Y-107000000D01*
G75*
G02*
X122090000Y-106860000I0J140000D01*
G01*
X122090000Y-106580000D01*
G75*
G02*
X122230000Y-106440000I140000J0D01*
G01*
G37*
G04 #@! TD.AperFunction*
G04 #@! TA.AperFunction,SMDPad,CuDef*
G36*
G01*
X123430000Y-107400000D02*
X123770000Y-107400000D01*
G75*
G02*
X123910000Y-107540000I0J-140000D01*
G01*
X123910000Y-107820000D01*
G75*
G02*
X123770000Y-107960000I-140000J0D01*
G01*
X123430000Y-107960000D01*
G75*
G02*
X123290000Y-107820000I0J140000D01*
G01*
X123290000Y-107540000D01*
G75*
G02*
X123430000Y-107400000I140000J0D01*
G01*
G37*
G04 #@! TD.AperFunction*
G04 #@! TA.AperFunction,SMDPad,CuDef*
G36*
G01*
X123430000Y-106440000D02*
X123770000Y-106440000D01*
G75*
G02*
X123910000Y-106580000I0J-140000D01*
G01*
X123910000Y-106860000D01*
G75*
G02*
X123770000Y-107000000I-140000J0D01*
G01*
X123430000Y-107000000D01*
G75*
G02*
X123290000Y-106860000I0J140000D01*
G01*
X123290000Y-106580000D01*
G75*
G02*
X123430000Y-106440000I140000J0D01*
G01*
G37*
G04 #@! TD.AperFunction*
G04 #@! TA.AperFunction,SMDPad,CuDef*
G36*
G01*
X137000000Y-111170000D02*
X137000000Y-110830000D01*
G75*
G02*
X137140000Y-110690000I140000J0D01*
G01*
X137420000Y-110690000D01*
G75*
G02*
X137560000Y-110830000I0J-140000D01*
G01*
X137560000Y-111170000D01*
G75*
G02*
X137420000Y-111310000I-140000J0D01*
G01*
X137140000Y-111310000D01*
G75*
G02*
X137000000Y-111170000I0J140000D01*
G01*
G37*
G04 #@! TD.AperFunction*
G04 #@! TA.AperFunction,SMDPad,CuDef*
G36*
G01*
X136040000Y-111170000D02*
X136040000Y-110830000D01*
G75*
G02*
X136180000Y-110690000I140000J0D01*
G01*
X136460000Y-110690000D01*
G75*
G02*
X136600000Y-110830000I0J-140000D01*
G01*
X136600000Y-111170000D01*
G75*
G02*
X136460000Y-111310000I-140000J0D01*
G01*
X136180000Y-111310000D01*
G75*
G02*
X136040000Y-111170000I0J140000D01*
G01*
G37*
G04 #@! TD.AperFunction*
G04 #@! TA.AperFunction,SMDPad,CuDef*
G36*
G01*
X130830000Y-116000000D02*
X131170000Y-116000000D01*
G75*
G02*
X131310000Y-116140000I0J-140000D01*
G01*
X131310000Y-116420000D01*
G75*
G02*
X131170000Y-116560000I-140000J0D01*
G01*
X130830000Y-116560000D01*
G75*
G02*
X130690000Y-116420000I0J140000D01*
G01*
X130690000Y-116140000D01*
G75*
G02*
X130830000Y-116000000I140000J0D01*
G01*
G37*
G04 #@! TD.AperFunction*
G04 #@! TA.AperFunction,SMDPad,CuDef*
G36*
G01*
X130830000Y-115040000D02*
X131170000Y-115040000D01*
G75*
G02*
X131310000Y-115180000I0J-140000D01*
G01*
X131310000Y-115460000D01*
G75*
G02*
X131170000Y-115600000I-140000J0D01*
G01*
X130830000Y-115600000D01*
G75*
G02*
X130690000Y-115460000I0J140000D01*
G01*
X130690000Y-115180000D01*
G75*
G02*
X130830000Y-115040000I140000J0D01*
G01*
G37*
G04 #@! TD.AperFunction*
G04 #@! TA.AperFunction,SMDPad,CuDef*
G36*
G01*
X137000000Y-110070000D02*
X137000000Y-109730000D01*
G75*
G02*
X137140000Y-109590000I140000J0D01*
G01*
X137420000Y-109590000D01*
G75*
G02*
X137560000Y-109730000I0J-140000D01*
G01*
X137560000Y-110070000D01*
G75*
G02*
X137420000Y-110210000I-140000J0D01*
G01*
X137140000Y-110210000D01*
G75*
G02*
X137000000Y-110070000I0J140000D01*
G01*
G37*
G04 #@! TD.AperFunction*
G04 #@! TA.AperFunction,SMDPad,CuDef*
G36*
G01*
X136040000Y-110070000D02*
X136040000Y-109730000D01*
G75*
G02*
X136180000Y-109590000I140000J0D01*
G01*
X136460000Y-109590000D01*
G75*
G02*
X136600000Y-109730000I0J-140000D01*
G01*
X136600000Y-110070000D01*
G75*
G02*
X136460000Y-110210000I-140000J0D01*
G01*
X136180000Y-110210000D01*
G75*
G02*
X136040000Y-110070000I0J140000D01*
G01*
G37*
G04 #@! TD.AperFunction*
G04 #@! TA.AperFunction,SMDPad,CuDef*
G36*
G01*
X134160000Y-119015000D02*
X134160000Y-119385000D01*
G75*
G02*
X134025000Y-119520000I-135000J0D01*
G01*
X133755000Y-119520000D01*
G75*
G02*
X133620000Y-119385000I0J135000D01*
G01*
X133620000Y-119015000D01*
G75*
G02*
X133755000Y-118880000I135000J0D01*
G01*
X134025000Y-118880000D01*
G75*
G02*
X134160000Y-119015000I0J-135000D01*
G01*
G37*
G04 #@! TD.AperFunction*
G04 #@! TA.AperFunction,SMDPad,CuDef*
G36*
G01*
X135180000Y-119015000D02*
X135180000Y-119385000D01*
G75*
G02*
X135045000Y-119520000I-135000J0D01*
G01*
X134775000Y-119520000D01*
G75*
G02*
X134640000Y-119385000I0J135000D01*
G01*
X134640000Y-119015000D01*
G75*
G02*
X134775000Y-118880000I135000J0D01*
G01*
X135045000Y-118880000D01*
G75*
G02*
X135180000Y-119015000I0J-135000D01*
G01*
G37*
G04 #@! TD.AperFunction*
G04 #@! TA.AperFunction,SMDPad,CuDef*
G36*
G01*
X133410000Y-105077500D02*
X133410000Y-105422500D01*
G75*
G02*
X133262500Y-105570000I-147500J0D01*
G01*
X132967500Y-105570000D01*
G75*
G02*
X132820000Y-105422500I0J147500D01*
G01*
X132820000Y-105077500D01*
G75*
G02*
X132967500Y-104930000I147500J0D01*
G01*
X133262500Y-104930000D01*
G75*
G02*
X133410000Y-105077500I0J-147500D01*
G01*
G37*
G04 #@! TD.AperFunction*
G04 #@! TA.AperFunction,SMDPad,CuDef*
G36*
G01*
X134380000Y-105077500D02*
X134380000Y-105422500D01*
G75*
G02*
X134232500Y-105570000I-147500J0D01*
G01*
X133937500Y-105570000D01*
G75*
G02*
X133790000Y-105422500I0J147500D01*
G01*
X133790000Y-105077500D01*
G75*
G02*
X133937500Y-104930000I147500J0D01*
G01*
X134232500Y-104930000D01*
G75*
G02*
X134380000Y-105077500I0J-147500D01*
G01*
G37*
G04 #@! TD.AperFunction*
G04 #@! TA.AperFunction,SMDPad,CuDef*
G36*
G01*
X138840000Y-107885000D02*
X138840000Y-107515000D01*
G75*
G02*
X138975000Y-107380000I135000J0D01*
G01*
X139245000Y-107380000D01*
G75*
G02*
X139380000Y-107515000I0J-135000D01*
G01*
X139380000Y-107885000D01*
G75*
G02*
X139245000Y-108020000I-135000J0D01*
G01*
X138975000Y-108020000D01*
G75*
G02*
X138840000Y-107885000I0J135000D01*
G01*
G37*
G04 #@! TD.AperFunction*
G04 #@! TA.AperFunction,SMDPad,CuDef*
G36*
G01*
X137820000Y-107885000D02*
X137820000Y-107515000D01*
G75*
G02*
X137955000Y-107380000I135000J0D01*
G01*
X138225000Y-107380000D01*
G75*
G02*
X138360000Y-107515000I0J-135000D01*
G01*
X138360000Y-107885000D01*
G75*
G02*
X138225000Y-108020000I-135000J0D01*
G01*
X137955000Y-108020000D01*
G75*
G02*
X137820000Y-107885000I0J135000D01*
G01*
G37*
G04 #@! TD.AperFunction*
G04 #@! TA.AperFunction,SMDPad,CuDef*
G36*
G01*
X121015000Y-108620000D02*
X121385000Y-108620000D01*
G75*
G02*
X121520000Y-108755000I0J-135000D01*
G01*
X121520000Y-109025000D01*
G75*
G02*
X121385000Y-109160000I-135000J0D01*
G01*
X121015000Y-109160000D01*
G75*
G02*
X120880000Y-109025000I0J135000D01*
G01*
X120880000Y-108755000D01*
G75*
G02*
X121015000Y-108620000I135000J0D01*
G01*
G37*
G04 #@! TD.AperFunction*
G04 #@! TA.AperFunction,SMDPad,CuDef*
G36*
G01*
X121015000Y-109640000D02*
X121385000Y-109640000D01*
G75*
G02*
X121520000Y-109775000I0J-135000D01*
G01*
X121520000Y-110045000D01*
G75*
G02*
X121385000Y-110180000I-135000J0D01*
G01*
X121015000Y-110180000D01*
G75*
G02*
X120880000Y-110045000I0J135000D01*
G01*
X120880000Y-109775000D01*
G75*
G02*
X121015000Y-109640000I135000J0D01*
G01*
G37*
G04 #@! TD.AperFunction*
G04 #@! TA.AperFunction,SMDPad,CuDef*
G36*
G01*
X138800000Y-116970000D02*
X138800000Y-116630000D01*
G75*
G02*
X138940000Y-116490000I140000J0D01*
G01*
X139220000Y-116490000D01*
G75*
G02*
X139360000Y-116630000I0J-140000D01*
G01*
X139360000Y-116970000D01*
G75*
G02*
X139220000Y-117110000I-140000J0D01*
G01*
X138940000Y-117110000D01*
G75*
G02*
X138800000Y-116970000I0J140000D01*
G01*
G37*
G04 #@! TD.AperFunction*
G04 #@! TA.AperFunction,SMDPad,CuDef*
G36*
G01*
X137840000Y-116970000D02*
X137840000Y-116630000D01*
G75*
G02*
X137980000Y-116490000I140000J0D01*
G01*
X138260000Y-116490000D01*
G75*
G02*
X138400000Y-116630000I0J-140000D01*
G01*
X138400000Y-116970000D01*
G75*
G02*
X138260000Y-117110000I-140000J0D01*
G01*
X137980000Y-117110000D01*
G75*
G02*
X137840000Y-116970000I0J140000D01*
G01*
G37*
G04 #@! TD.AperFunction*
G04 #@! TA.AperFunction,SMDPad,CuDef*
G36*
G01*
X122570000Y-116000000D02*
X122230000Y-116000000D01*
G75*
G02*
X122090000Y-115860000I0J140000D01*
G01*
X122090000Y-115580000D01*
G75*
G02*
X122230000Y-115440000I140000J0D01*
G01*
X122570000Y-115440000D01*
G75*
G02*
X122710000Y-115580000I0J-140000D01*
G01*
X122710000Y-115860000D01*
G75*
G02*
X122570000Y-116000000I-140000J0D01*
G01*
G37*
G04 #@! TD.AperFunction*
G04 #@! TA.AperFunction,SMDPad,CuDef*
G36*
G01*
X122570000Y-116960000D02*
X122230000Y-116960000D01*
G75*
G02*
X122090000Y-116820000I0J140000D01*
G01*
X122090000Y-116540000D01*
G75*
G02*
X122230000Y-116400000I140000J0D01*
G01*
X122570000Y-116400000D01*
G75*
G02*
X122710000Y-116540000I0J-140000D01*
G01*
X122710000Y-116820000D01*
G75*
G02*
X122570000Y-116960000I-140000J0D01*
G01*
G37*
G04 #@! TD.AperFunction*
D20*
X141000000Y-118000000D03*
X141000000Y-106000000D03*
X131200000Y-119000000D03*
D21*
X139000000Y-111000000D03*
X131400000Y-111000000D03*
X131400000Y-109000000D03*
X129400000Y-109000000D03*
X130400000Y-110000000D03*
X125650000Y-119000000D03*
X130150000Y-117500000D03*
X123400000Y-106000000D03*
X134900000Y-105250000D03*
X122150000Y-108500000D03*
X123920000Y-109480000D03*
X127102507Y-106495032D03*
X136650000Y-113250000D03*
X138025000Y-110125000D03*
X121650000Y-110750000D03*
X121500000Y-115800000D03*
X129400000Y-111000000D03*
X137000000Y-104600000D03*
X134200000Y-117400000D03*
X139800000Y-107000000D03*
X135900000Y-109750000D03*
X124650000Y-111000000D03*
X131907866Y-115539330D03*
X137400000Y-116600000D03*
X136400000Y-106000000D03*
X124400000Y-108000000D03*
X125600000Y-109400000D03*
X135650000Y-110500000D03*
X135150000Y-107250000D03*
X124390000Y-105200000D03*
X125660000Y-105200000D03*
X120650000Y-110500000D03*
X121900000Y-114600000D03*
X133000000Y-119200000D03*
X129150000Y-104500000D03*
X132200000Y-114600000D03*
X124400000Y-113000000D03*
X131000000Y-114400000D03*
X124600000Y-112000000D03*
D22*
X139080000Y-111080000D02*
X139000000Y-111000000D01*
X139080000Y-112000000D02*
X139080000Y-111080000D01*
X138800000Y-113400000D02*
X138800000Y-113000000D01*
X139080000Y-112720000D02*
X139080000Y-112000000D01*
X138800000Y-113000000D02*
X139080000Y-112720000D01*
X124350000Y-118000000D02*
X123150000Y-118000000D01*
X122400000Y-117250000D02*
X122400000Y-116680000D01*
X123150000Y-118000000D02*
X122400000Y-117250000D01*
X124350000Y-118000000D02*
X125150000Y-118000000D01*
X125650000Y-118500000D02*
X125650000Y-119000000D01*
X125150000Y-118000000D02*
X125650000Y-118500000D01*
X130130000Y-117520000D02*
X130150000Y-117500000D01*
X129400000Y-117520000D02*
X130130000Y-117520000D01*
X123920000Y-108800000D02*
X123920000Y-109480000D01*
X122400000Y-106720000D02*
X124800000Y-106720000D01*
X123600000Y-106200000D02*
X123400000Y-106000000D01*
X123600000Y-106720000D02*
X123600000Y-106200000D01*
D23*
X134085000Y-105250000D02*
X134900000Y-105250000D01*
X122400000Y-108750000D02*
X122150000Y-108500000D01*
X122400000Y-108890000D02*
X122400000Y-108750000D01*
X129400000Y-111000000D02*
X130400000Y-110000000D01*
X126965000Y-111000000D02*
X129400000Y-111000000D01*
D22*
X138025000Y-110125000D02*
X137900000Y-110000000D01*
X137280000Y-111200000D02*
X137280000Y-112120000D01*
X136650000Y-112750000D02*
X136650000Y-113250000D01*
X137280000Y-112120000D02*
X136650000Y-112750000D01*
X122400000Y-116680000D02*
X121980000Y-116680000D01*
X121500000Y-116200000D02*
X121500000Y-115800000D01*
X121980000Y-116680000D02*
X121500000Y-116200000D01*
X127102507Y-105497493D02*
X127102507Y-106495032D01*
X127350000Y-105250000D02*
X127102507Y-105497493D01*
X127720000Y-105250000D02*
X127350000Y-105250000D01*
X136880000Y-104720000D02*
X137000000Y-104600000D01*
X136880000Y-105250000D02*
X136880000Y-104720000D01*
X123920000Y-109480000D02*
X123920000Y-109800000D01*
D24*
X134220000Y-117420000D02*
X134200000Y-117400000D01*
X134650000Y-117420000D02*
X134220000Y-117420000D01*
D22*
X129400000Y-116280000D02*
X131000000Y-116280000D01*
X132800000Y-116280000D02*
X131000000Y-116280000D01*
X127650000Y-116000000D02*
X128400000Y-116000000D01*
X128680000Y-116280000D02*
X129400000Y-116280000D01*
X128400000Y-116000000D02*
X128680000Y-116280000D01*
X139080000Y-105250000D02*
X139080000Y-106500000D01*
X139800000Y-107000000D02*
X139800000Y-106600000D01*
X139700000Y-106500000D02*
X139800000Y-106600000D01*
X139080000Y-106500000D02*
X139700000Y-106500000D01*
X137800000Y-109900000D02*
X138025000Y-110125000D01*
X137280000Y-109900000D02*
X137800000Y-109900000D01*
X137280000Y-109900000D02*
X137280000Y-111000000D01*
D23*
X121512500Y-110887500D02*
X121650000Y-110750000D01*
X121512500Y-111343750D02*
X121512500Y-110887500D01*
D24*
X133835000Y-107400000D02*
X134400000Y-107400000D01*
X134400000Y-107400000D02*
X134600000Y-107200000D01*
X134600000Y-107200000D02*
X134600000Y-106800000D01*
X134600000Y-106800000D02*
X134800000Y-106600000D01*
X133835000Y-107800000D02*
X134400000Y-107800000D01*
X134600000Y-107600000D02*
X134600000Y-107200000D01*
X134400000Y-107800000D02*
X134600000Y-107600000D01*
X125080000Y-110000000D02*
X125400000Y-110000000D01*
X124880000Y-110000000D02*
X124880000Y-108800000D01*
X124880000Y-110000000D02*
X125400000Y-110000000D01*
X126200000Y-109800000D02*
X126965000Y-109800000D01*
X126000000Y-110000000D02*
X125400000Y-110000000D01*
X126200000Y-109800000D02*
X126000000Y-110000000D01*
X133000000Y-115120000D02*
X132800000Y-115320000D01*
X133000000Y-113435000D02*
X133000000Y-115120000D01*
X129400000Y-115320000D02*
X129400000Y-113435000D01*
D23*
X122400000Y-107680000D02*
X123600000Y-107680000D01*
X123600000Y-107680000D02*
X123600000Y-107800000D01*
X123600000Y-107800000D02*
X123200000Y-108200000D01*
X123200000Y-108200000D02*
X123200000Y-110400000D01*
X123561400Y-110761400D02*
X123561400Y-111162253D01*
X123200000Y-110400000D02*
X123561400Y-110761400D01*
X121200000Y-108890000D02*
X121200000Y-108200000D01*
X121720000Y-107680000D02*
X122400000Y-107680000D01*
X121200000Y-108200000D02*
X121720000Y-107680000D01*
X136900000Y-116500000D02*
X136900000Y-115250000D01*
X136900000Y-115250000D02*
X136630000Y-114980000D01*
X136630000Y-114980000D02*
X136350000Y-114980000D01*
X133835000Y-109400000D02*
X134550000Y-109400000D01*
X134550000Y-109400000D02*
X134950000Y-109800000D01*
X134235000Y-109800000D02*
X134950000Y-109800000D01*
X135850000Y-109800000D02*
X135900000Y-109750000D01*
X135200000Y-109800000D02*
X135850000Y-109800000D01*
X134950000Y-109800000D02*
X135200000Y-109800000D01*
X136150000Y-110000000D02*
X135900000Y-109750000D01*
X136320000Y-110000000D02*
X136150000Y-110000000D01*
X129400000Y-106565000D02*
X129400000Y-105750000D01*
X128900000Y-105250000D02*
X128680000Y-105250000D01*
X129400000Y-105750000D02*
X128900000Y-105250000D01*
X135920000Y-104770000D02*
X135650000Y-104500000D01*
D22*
X124880000Y-110770000D02*
X124650000Y-111000000D01*
X124880000Y-110000000D02*
X124880000Y-110770000D01*
X124487747Y-111162253D02*
X124650000Y-111000000D01*
X123561400Y-111162253D02*
X124487747Y-111162253D01*
D23*
X128680000Y-105250000D02*
X129650000Y-105250000D01*
X129650000Y-105250000D02*
X129900000Y-105000000D01*
X129900000Y-104750000D02*
X130150000Y-104500000D01*
X129900000Y-105000000D02*
X129900000Y-104750000D01*
X130150000Y-104500000D02*
X135650000Y-104500000D01*
D22*
X132127196Y-115320000D02*
X131907866Y-115539330D01*
X132800000Y-115320000D02*
X132127196Y-115320000D01*
D23*
X135920000Y-105250000D02*
X135920000Y-104770000D01*
X136150000Y-114980000D02*
X136630000Y-114980000D01*
X136900000Y-117100000D02*
X136900000Y-116500000D01*
D22*
X129400000Y-115320000D02*
X131000000Y-115320000D01*
X131688536Y-115320000D02*
X131907866Y-115539330D01*
X131000000Y-115320000D02*
X131688536Y-115320000D01*
D24*
X134800000Y-106600000D02*
X135600000Y-106600000D01*
D23*
X138120000Y-118000000D02*
X137200000Y-118000000D01*
X136900000Y-117700000D02*
X136900000Y-117100000D01*
X137200000Y-118000000D02*
X136900000Y-117700000D01*
D22*
X138120000Y-116800000D02*
X138120000Y-118000000D01*
X137310000Y-119200000D02*
X137600000Y-119200000D01*
X138120000Y-118680000D02*
X138120000Y-118000000D01*
X137600000Y-119200000D02*
X138120000Y-118680000D01*
X138120000Y-116800000D02*
X138120000Y-116520000D01*
X137850000Y-116250000D02*
X137850000Y-115400000D01*
X138120000Y-116520000D02*
X137850000Y-116250000D01*
X137400000Y-116600000D02*
X137600000Y-116800000D01*
X137600000Y-116800000D02*
X138120000Y-116800000D01*
D23*
X133400000Y-106000000D02*
X133000000Y-106400000D01*
X135400000Y-106000000D02*
X133400000Y-106000000D01*
X133000000Y-106400000D02*
X133000000Y-106565000D01*
X136400000Y-106400000D02*
X136200000Y-106600000D01*
X136400000Y-106000000D02*
X136400000Y-106400000D01*
X136200000Y-106600000D02*
X135600000Y-106600000D01*
X136800000Y-106600000D02*
X136200000Y-106600000D01*
X135920000Y-105520000D02*
X136400000Y-106000000D01*
X135920000Y-105250000D02*
X135920000Y-105520000D01*
X135920000Y-105480000D02*
X135500000Y-105900000D01*
X135500000Y-105900000D02*
X135400000Y-106000000D01*
X135920000Y-105250000D02*
X135920000Y-105480000D01*
X135670000Y-105730000D02*
X135500000Y-105900000D01*
X138120000Y-105250000D02*
X137750000Y-105250000D01*
X137500000Y-105500000D02*
X137500000Y-105900000D01*
X137750000Y-105250000D02*
X137500000Y-105500000D01*
X137500000Y-105900000D02*
X136800000Y-106600000D01*
D22*
X136050000Y-109900000D02*
X135900000Y-109750000D01*
X136320000Y-109900000D02*
X136050000Y-109900000D01*
D24*
X126965000Y-109400000D02*
X125600000Y-109400000D01*
D23*
X124720000Y-107680000D02*
X124400000Y-108000000D01*
X124800000Y-107680000D02*
X124720000Y-107680000D01*
X135350000Y-110200000D02*
X135650000Y-110500000D01*
X133835000Y-110200000D02*
X135350000Y-110200000D01*
X135150000Y-108050000D02*
X135000000Y-108200000D01*
X135150000Y-107250000D02*
X135150000Y-108050000D01*
X133835000Y-108200000D02*
X135000000Y-108200000D01*
X136320000Y-111200000D02*
X136000000Y-111200000D01*
X135650000Y-110850000D02*
X135650000Y-110500000D01*
X136000000Y-111200000D02*
X135650000Y-110850000D01*
X137700000Y-106500000D02*
X138120000Y-106500000D01*
X136950000Y-107250000D02*
X137700000Y-106500000D01*
X135150000Y-107250000D02*
X136950000Y-107250000D01*
D24*
X126000000Y-117400000D02*
X126200000Y-117600000D01*
X126600000Y-118000000D02*
X126000000Y-117400000D01*
X127650000Y-118000000D02*
X126600000Y-118000000D01*
X129400000Y-118480000D02*
X128880000Y-118480000D01*
X128400000Y-118000000D02*
X127650000Y-118000000D01*
X128880000Y-118480000D02*
X128400000Y-118000000D01*
X126965000Y-110600000D02*
X126333412Y-110600000D01*
X126333412Y-110600000D02*
X126000000Y-110933412D01*
X126000000Y-110933412D02*
X126000000Y-117400000D01*
X124350000Y-116000000D02*
X123200000Y-116000000D01*
X122920000Y-115720000D02*
X122400000Y-115720000D01*
X123200000Y-116000000D02*
X122920000Y-115720000D01*
X124350000Y-114950000D02*
X124350000Y-116000000D01*
X124290000Y-114890000D02*
X124350000Y-114950000D01*
X124290000Y-114200000D02*
X124290000Y-114890000D01*
D23*
X131510000Y-105250000D02*
X133115000Y-105250000D01*
D24*
X126014002Y-109000000D02*
X126965000Y-109000000D01*
X124390000Y-105200000D02*
X125469989Y-106279989D01*
X125469989Y-106279989D02*
X125469989Y-108455987D01*
X125469989Y-108455987D02*
X126014002Y-109000000D01*
X125800000Y-108266706D02*
X125800000Y-105340000D01*
X126965000Y-108600000D02*
X126133294Y-108600000D01*
X126133294Y-108600000D02*
X125800000Y-108266706D01*
X125800000Y-105340000D02*
X125660000Y-105200000D01*
D23*
X122400000Y-109910000D02*
X121200000Y-109910000D01*
X121200000Y-109950000D02*
X120650000Y-110500000D01*
X121200000Y-109910000D02*
X121200000Y-109950000D01*
D24*
X121900000Y-114600000D02*
X122500000Y-114600000D01*
X122739400Y-114360600D02*
X122739400Y-113660600D01*
X122500000Y-114600000D02*
X122739400Y-114360600D01*
X122739400Y-112837747D02*
X122739400Y-113660600D01*
D23*
X133890000Y-119200000D02*
X133000000Y-119200000D01*
D24*
X134910000Y-119200000D02*
X136290000Y-119200000D01*
X136150000Y-118170000D02*
X136290000Y-118310000D01*
X136150000Y-117420000D02*
X136150000Y-118170000D01*
X136290000Y-119200000D02*
X136290000Y-118310000D01*
X134310000Y-118600000D02*
X134910000Y-119200000D01*
X133800000Y-118600000D02*
X134310000Y-118600000D01*
X133351987Y-118151987D02*
X133800000Y-118600000D01*
X133351987Y-113083013D02*
X133351987Y-118151987D01*
X133835000Y-112600000D02*
X133351987Y-113083013D01*
X131000000Y-106565000D02*
X131000000Y-105800000D01*
D23*
X131000000Y-105760000D02*
X130490000Y-105250000D01*
X131000000Y-106565000D02*
X131000000Y-105760000D01*
D24*
X126266706Y-110200000D02*
X125310000Y-111156706D01*
X126965000Y-110200000D02*
X126266706Y-110200000D01*
X125310000Y-114200000D02*
X125310000Y-113690000D01*
X125310000Y-113690000D02*
X125310000Y-114000000D01*
X125310000Y-111156706D02*
X125310000Y-113690000D01*
X126200000Y-108000000D02*
X126400000Y-108200000D01*
X126400000Y-108200000D02*
X126965000Y-108200000D01*
X129050000Y-104400000D02*
X129150000Y-104500000D01*
X127750000Y-104400000D02*
X129050000Y-104400000D01*
X126200000Y-107000000D02*
X126200000Y-105400000D01*
X126200000Y-107000000D02*
X126200000Y-108000000D01*
X127200000Y-104400000D02*
X128000000Y-104400000D01*
X126200000Y-105400000D02*
X127200000Y-104400000D01*
X128000000Y-104400000D02*
X127750000Y-104400000D01*
X129000000Y-104400000D02*
X128000000Y-104400000D01*
X131800000Y-114200000D02*
X131800000Y-113435000D01*
X132200000Y-114600000D02*
X131800000Y-114200000D01*
X124237747Y-112837747D02*
X124400000Y-113000000D01*
X123561400Y-112837747D02*
X124237747Y-112837747D01*
X131400000Y-114000000D02*
X131000000Y-114400000D01*
X131400000Y-113435000D02*
X131400000Y-114000000D01*
X122752000Y-111162500D02*
X122752000Y-111752000D01*
X123000000Y-112000000D02*
X124600000Y-112000000D01*
X122752000Y-111752000D02*
X123000000Y-112000000D01*
D23*
X134000000Y-118200000D02*
X135600000Y-118200000D01*
X135684010Y-117558351D02*
X135684010Y-117420000D01*
X135650000Y-117592361D02*
X135684010Y-117558351D01*
X135650000Y-118150000D02*
X135650000Y-117592361D01*
X135600000Y-118200000D02*
X135650000Y-118150000D01*
D24*
X133665998Y-117143678D02*
X133665998Y-117865998D01*
X133800000Y-114155922D02*
X133800000Y-117009676D01*
X133665998Y-117865998D02*
X134000000Y-118200000D01*
X134560011Y-113395911D02*
X133800000Y-114155922D01*
X134560011Y-112420731D02*
X134560011Y-113395911D01*
X133800000Y-117009676D02*
X133665998Y-117143678D01*
X134339280Y-112200000D02*
X134560011Y-112420731D01*
X133835000Y-112200000D02*
X134339280Y-112200000D01*
X135150000Y-116750000D02*
X135150000Y-117420000D01*
X135000000Y-116600000D02*
X135150000Y-116750000D01*
X134478798Y-116600000D02*
X135000000Y-116600000D01*
X134200000Y-116321202D02*
X134478798Y-116600000D01*
X134200000Y-114400000D02*
X134200000Y-116321202D01*
X134920021Y-113679979D02*
X134200000Y-114400000D01*
X134920021Y-112271609D02*
X134920021Y-113679979D01*
X134448412Y-111800000D02*
X134920021Y-112271609D01*
X133835000Y-111800000D02*
X134448412Y-111800000D01*
X133835000Y-111400000D02*
X134557542Y-111400000D01*
X134557542Y-111400000D02*
X135280031Y-112122489D01*
X135280031Y-113944969D02*
X135280031Y-113719969D01*
X134650000Y-114575000D02*
X135280031Y-113944969D01*
X134650000Y-114980000D02*
X134650000Y-114575000D01*
X135280031Y-112122489D02*
X135280031Y-113719969D01*
X134666673Y-111000000D02*
X133835000Y-111000000D01*
X135640041Y-111973368D02*
X134666673Y-111000000D01*
X135150000Y-114575000D02*
X135640041Y-114084959D01*
X135640041Y-114084959D02*
X135640041Y-113959959D01*
X135150000Y-114980000D02*
X135150000Y-114575000D01*
X135640041Y-113959959D02*
X135640041Y-111973368D01*
X134775804Y-110600000D02*
X136000051Y-111824247D01*
X133835000Y-110600000D02*
X134775804Y-110600000D01*
X136000051Y-114224949D02*
X136000051Y-114199949D01*
X135650000Y-114575000D02*
X136000051Y-114224949D01*
X135650000Y-114980000D02*
X135650000Y-114575000D01*
X136000051Y-111824247D02*
X136000051Y-114199949D01*
D23*
X135306800Y-108575000D02*
X133860000Y-108575000D01*
X133860000Y-108575000D02*
X133835000Y-108600000D01*
X135806800Y-108075000D02*
X135306800Y-108575000D01*
X138090000Y-107700000D02*
X137715000Y-108075000D01*
X137715000Y-108075000D02*
X135806800Y-108075000D01*
X135993200Y-108525000D02*
X135493200Y-109025000D01*
X133860000Y-109025000D02*
X133835000Y-109000000D01*
X135493200Y-109025000D02*
X133860000Y-109025000D01*
X137715000Y-108525000D02*
X135993200Y-108525000D01*
X138090000Y-108900000D02*
X137715000Y-108525000D01*
X141125000Y-111775000D02*
X141900000Y-111000000D01*
X139842717Y-108075000D02*
X140425000Y-108657283D01*
X139485000Y-108075000D02*
X139842717Y-108075000D01*
X139110000Y-107700000D02*
X139485000Y-108075000D01*
X140425000Y-111696762D02*
X140503238Y-111775000D01*
X140425000Y-108657283D02*
X140425000Y-111696762D01*
X140503238Y-111775000D02*
X141125000Y-111775000D01*
X139656317Y-108525000D02*
X139975000Y-108843683D01*
X139110000Y-108900000D02*
X139485000Y-108525000D01*
X139485000Y-108525000D02*
X139656317Y-108525000D01*
X139975000Y-108843683D02*
X139975000Y-111883162D01*
X140316838Y-112225000D02*
X141125000Y-112225000D01*
X141125000Y-112225000D02*
X141900000Y-113000000D01*
X139975000Y-111883162D02*
X140316838Y-112225000D01*
X139533689Y-104329861D02*
X139566090Y-104339644D01*
X139595982Y-104355537D01*
X139622213Y-104376932D01*
X139642302Y-104401215D01*
X139605693Y-104380639D01*
X139491846Y-104343454D01*
X139386000Y-104332000D01*
X139234000Y-104484000D01*
X139234000Y-105096000D01*
X139816000Y-105096000D01*
X139875891Y-105036109D01*
X139897266Y-105061948D01*
X139918192Y-105082728D01*
X139938775Y-105103747D01*
X139942271Y-105106640D01*
X140017892Y-105168316D01*
X140042439Y-105184625D01*
X140066736Y-105201261D01*
X140070727Y-105203420D01*
X140156888Y-105249232D01*
X140184139Y-105260464D01*
X140211193Y-105272059D01*
X140215528Y-105273401D01*
X140308946Y-105301606D01*
X140337845Y-105307328D01*
X140366657Y-105313452D01*
X140371170Y-105313927D01*
X140468287Y-105323449D01*
X140468292Y-105323449D01*
X140484039Y-105325000D01*
X141913128Y-105325000D01*
X141785980Y-105521360D01*
X141691486Y-105786199D01*
X141803840Y-105996000D01*
X143846000Y-105996000D01*
X143846000Y-105976000D01*
X144154000Y-105976000D01*
X144154000Y-105996000D01*
X146196160Y-105996000D01*
X146308514Y-105786199D01*
X146214020Y-105521360D01*
X146086872Y-105325000D01*
X146425001Y-105325000D01*
X146425000Y-118675000D01*
X146086872Y-118675000D01*
X146214020Y-118478640D01*
X146308514Y-118213801D01*
X146196160Y-118004000D01*
X144154000Y-118004000D01*
X144154000Y-118024000D01*
X143846000Y-118024000D01*
X143846000Y-118004000D01*
X141803840Y-118004000D01*
X141691486Y-118213801D01*
X141785980Y-118478640D01*
X141913128Y-118675000D01*
X140484039Y-118675000D01*
X140470116Y-118676371D01*
X140467055Y-118676350D01*
X140462538Y-118676792D01*
X140365490Y-118686992D01*
X140336629Y-118692917D01*
X140307701Y-118698435D01*
X140303356Y-118699746D01*
X140210137Y-118728602D01*
X140182950Y-118740031D01*
X140155669Y-118751053D01*
X140151662Y-118753183D01*
X140065825Y-118799596D01*
X140041411Y-118816064D01*
X140016758Y-118832197D01*
X140013241Y-118835065D01*
X139938052Y-118897267D01*
X139917292Y-118918173D01*
X139896253Y-118938775D01*
X139893360Y-118942272D01*
X139893356Y-118942276D01*
X139831684Y-119017892D01*
X139815385Y-119042424D01*
X139798739Y-119066736D01*
X139796580Y-119070727D01*
X139750768Y-119156888D01*
X139739536Y-119184139D01*
X139727941Y-119211193D01*
X139726599Y-119215528D01*
X139698394Y-119308946D01*
X139692674Y-119337837D01*
X139686548Y-119366656D01*
X139686073Y-119371170D01*
X139676551Y-119468284D01*
X139676551Y-119468287D01*
X139670139Y-119533689D01*
X139660356Y-119566090D01*
X139644462Y-119595984D01*
X139623068Y-119622214D01*
X139596989Y-119643789D01*
X139567213Y-119659889D01*
X139534875Y-119669899D01*
X139486342Y-119675000D01*
X137768896Y-119675000D01*
X137772978Y-119670026D01*
X137792267Y-119664175D01*
X137879129Y-119617746D01*
X137955264Y-119555264D01*
X137970929Y-119536176D01*
X138456181Y-119050925D01*
X138475264Y-119035264D01*
X138537746Y-118959129D01*
X138581058Y-118878098D01*
X138668154Y-118906546D01*
X138774000Y-118918000D01*
X138926000Y-118766000D01*
X138926000Y-118154000D01*
X139234000Y-118154000D01*
X139234000Y-118766000D01*
X139386000Y-118918000D01*
X139491846Y-118906546D01*
X139605693Y-118869361D01*
X139710098Y-118810681D01*
X139801049Y-118732760D01*
X139875051Y-118638592D01*
X139929259Y-118531797D01*
X139961592Y-118416478D01*
X139968000Y-118306000D01*
X139816000Y-118154000D01*
X139234000Y-118154000D01*
X138926000Y-118154000D01*
X138906000Y-118154000D01*
X138906000Y-117940905D01*
X140400000Y-117940905D01*
X140400000Y-118059095D01*
X140423058Y-118175014D01*
X140468287Y-118284207D01*
X140533950Y-118382478D01*
X140617522Y-118466050D01*
X140715793Y-118531713D01*
X140824986Y-118576942D01*
X140940905Y-118600000D01*
X141059095Y-118600000D01*
X141175014Y-118576942D01*
X141284207Y-118531713D01*
X141382478Y-118466050D01*
X141466050Y-118382478D01*
X141531713Y-118284207D01*
X141576942Y-118175014D01*
X141600000Y-118059095D01*
X141600000Y-117940905D01*
X141576942Y-117824986D01*
X141531713Y-117715793D01*
X141466050Y-117617522D01*
X141382478Y-117533950D01*
X141284207Y-117468287D01*
X141175014Y-117423058D01*
X141059095Y-117400000D01*
X140940905Y-117400000D01*
X140824986Y-117423058D01*
X140715793Y-117468287D01*
X140617522Y-117533950D01*
X140533950Y-117617522D01*
X140468287Y-117715793D01*
X140423058Y-117824986D01*
X140400000Y-117940905D01*
X138906000Y-117940905D01*
X138906000Y-117846000D01*
X138926000Y-117846000D01*
X138926000Y-116954000D01*
X139234000Y-116954000D01*
X139234000Y-117846000D01*
X139816000Y-117846000D01*
X139968000Y-117694000D01*
X139961592Y-117583522D01*
X139929259Y-117468203D01*
X139894640Y-117400000D01*
X139929259Y-117331797D01*
X139961592Y-117216478D01*
X139968000Y-117106000D01*
X139816000Y-116954000D01*
X139234000Y-116954000D01*
X138926000Y-116954000D01*
X138906000Y-116954000D01*
X138906000Y-116646000D01*
X138926000Y-116646000D01*
X138926000Y-116626000D01*
X139234000Y-116626000D01*
X139234000Y-116646000D01*
X139816000Y-116646000D01*
X139968000Y-116494000D01*
X139961592Y-116383522D01*
X139953827Y-116355827D01*
X140056000Y-116458000D01*
X140150000Y-116460942D01*
X140269189Y-116449203D01*
X140320707Y-116433575D01*
X141184214Y-116433575D01*
X141249041Y-116657969D01*
X141487457Y-116762715D01*
X141741727Y-116818935D01*
X142002080Y-116824470D01*
X142118513Y-116803872D01*
X141932026Y-116995815D01*
X141785980Y-117221360D01*
X141691486Y-117486199D01*
X141803840Y-117696000D01*
X143846000Y-117696000D01*
X143846000Y-116488000D01*
X144154000Y-116488000D01*
X144154000Y-117696000D01*
X146196160Y-117696000D01*
X146308514Y-117486199D01*
X146214020Y-117221360D01*
X146067974Y-116995815D01*
X145880733Y-116803096D01*
X145659492Y-116650609D01*
X145412754Y-116544214D01*
X145150000Y-116488000D01*
X144154000Y-116488000D01*
X143846000Y-116488000D01*
X142850000Y-116488000D01*
X142587246Y-116544214D01*
X142583335Y-116545900D01*
X142615786Y-116433575D01*
X141900000Y-115717789D01*
X141184214Y-116433575D01*
X140320707Y-116433575D01*
X140383797Y-116414437D01*
X140489421Y-116357980D01*
X140582001Y-116282001D01*
X140657980Y-116189421D01*
X140711089Y-116090060D01*
X140715414Y-116101163D01*
X140742031Y-116150959D01*
X140966425Y-116215786D01*
X141682211Y-115500000D01*
X142117789Y-115500000D01*
X142833575Y-116215786D01*
X143057969Y-116150959D01*
X143162715Y-115912543D01*
X143218935Y-115658273D01*
X143224470Y-115397920D01*
X143179105Y-115141490D01*
X143084586Y-114898837D01*
X143057969Y-114849041D01*
X142833575Y-114784214D01*
X142117789Y-115500000D01*
X141682211Y-115500000D01*
X140966425Y-114784214D01*
X140750750Y-114846522D01*
X140749203Y-114830811D01*
X140714437Y-114716203D01*
X140657980Y-114610579D01*
X140621744Y-114566425D01*
X141184214Y-114566425D01*
X141900000Y-115282211D01*
X142615786Y-114566425D01*
X142550959Y-114342031D01*
X142312543Y-114237285D01*
X142217552Y-114216282D01*
X143150000Y-114216282D01*
X143150000Y-114383718D01*
X143182665Y-114547936D01*
X143246740Y-114702626D01*
X143339762Y-114841844D01*
X143458156Y-114960238D01*
X143597374Y-115053260D01*
X143752064Y-115117335D01*
X143916282Y-115150000D01*
X144083718Y-115150000D01*
X144247936Y-115117335D01*
X144402626Y-115053260D01*
X144541844Y-114960238D01*
X144660238Y-114841844D01*
X144753260Y-114702626D01*
X144817335Y-114547936D01*
X144850000Y-114383718D01*
X144850000Y-114216282D01*
X144817335Y-114052064D01*
X144753260Y-113897374D01*
X144660238Y-113758156D01*
X144541844Y-113639762D01*
X144402626Y-113546740D01*
X144247936Y-113482665D01*
X144083718Y-113450000D01*
X143916282Y-113450000D01*
X143752064Y-113482665D01*
X143597374Y-113546740D01*
X143458156Y-113639762D01*
X143339762Y-113758156D01*
X143246740Y-113897374D01*
X143182665Y-114052064D01*
X143150000Y-114216282D01*
X142217552Y-114216282D01*
X142058273Y-114181065D01*
X141797920Y-114175530D01*
X141541490Y-114220895D01*
X141298837Y-114315414D01*
X141249041Y-114342031D01*
X141184214Y-114566425D01*
X140621744Y-114566425D01*
X140582001Y-114517999D01*
X140489421Y-114442020D01*
X140383797Y-114385563D01*
X140269189Y-114350797D01*
X140150000Y-114339058D01*
X140056000Y-114342000D01*
X139904000Y-114494000D01*
X139904000Y-115246000D01*
X139924000Y-115246000D01*
X139924000Y-115554000D01*
X139904000Y-115554000D01*
X139904000Y-115574000D01*
X139596000Y-115574000D01*
X139596000Y-115554000D01*
X138894000Y-115554000D01*
X138742000Y-115706000D01*
X138739058Y-115850000D01*
X138742545Y-115885404D01*
X138668154Y-115893454D01*
X138554307Y-115930639D01*
X138535898Y-115940985D01*
X138545659Y-115908810D01*
X138551451Y-115850000D01*
X138551451Y-114950000D01*
X138739058Y-114950000D01*
X138742000Y-115094000D01*
X138894000Y-115246000D01*
X139596000Y-115246000D01*
X139596000Y-114494000D01*
X139444000Y-114342000D01*
X139350000Y-114339058D01*
X139230811Y-114350797D01*
X139116203Y-114385563D01*
X139010579Y-114442020D01*
X138917999Y-114517999D01*
X138842020Y-114610579D01*
X138785563Y-114716203D01*
X138750797Y-114830811D01*
X138739058Y-114950000D01*
X138551451Y-114950000D01*
X138545659Y-114891190D01*
X138528504Y-114834640D01*
X138500647Y-114782523D01*
X138463158Y-114736842D01*
X138417477Y-114699353D01*
X138365360Y-114671496D01*
X138308810Y-114654341D01*
X138250000Y-114648549D01*
X137450000Y-114648549D01*
X137391190Y-114654341D01*
X137334640Y-114671496D01*
X137282523Y-114699353D01*
X137236842Y-114736842D01*
X137199353Y-114782523D01*
X137171496Y-114834640D01*
X137154341Y-114891190D01*
X137150085Y-114934400D01*
X136926737Y-114711052D01*
X136914211Y-114695789D01*
X136853303Y-114645803D01*
X136783814Y-114608660D01*
X136708414Y-114585788D01*
X136649647Y-114580000D01*
X136649646Y-114580000D01*
X136630000Y-114578065D01*
X136610354Y-114580000D01*
X136559989Y-114580000D01*
X136550647Y-114562523D01*
X136513158Y-114516842D01*
X136467477Y-114479353D01*
X136415360Y-114451496D01*
X136358810Y-114434341D01*
X136320996Y-114430617D01*
X136352823Y-114371072D01*
X136374552Y-114299442D01*
X136380051Y-114243610D01*
X136380051Y-114243603D01*
X136381888Y-114224949D01*
X136380051Y-114206295D01*
X136380051Y-111842901D01*
X136381888Y-111824247D01*
X136380051Y-111805593D01*
X136380051Y-111805586D01*
X136374552Y-111749754D01*
X136352823Y-111678124D01*
X136317538Y-111612109D01*
X136316998Y-111611451D01*
X136460000Y-111611451D01*
X136470641Y-111610403D01*
X136484949Y-111638592D01*
X136558951Y-111732760D01*
X136649902Y-111810681D01*
X136754307Y-111869361D01*
X136868154Y-111906546D01*
X136974000Y-111918000D01*
X137126000Y-111766000D01*
X137126000Y-111694000D01*
X137232000Y-111694000D01*
X137384000Y-111846000D01*
X137514000Y-111846000D01*
X137586000Y-111918000D01*
X137691846Y-111906546D01*
X137805693Y-111869361D01*
X137847258Y-111846000D01*
X137966000Y-111846000D01*
X137966000Y-111762788D01*
X138001049Y-111732760D01*
X138075051Y-111638592D01*
X138129259Y-111531797D01*
X138161592Y-111416478D01*
X138168000Y-111306000D01*
X138016000Y-111154000D01*
X137886000Y-111154000D01*
X137814000Y-111082000D01*
X137708154Y-111093454D01*
X137594307Y-111130639D01*
X137552742Y-111154000D01*
X137434000Y-111154000D01*
X137434000Y-111237212D01*
X137398951Y-111267240D01*
X137324949Y-111361408D01*
X137270741Y-111468203D01*
X137238408Y-111583522D01*
X137232000Y-111694000D01*
X137126000Y-111694000D01*
X137126000Y-111154000D01*
X137106000Y-111154000D01*
X137106000Y-110846000D01*
X137126000Y-110846000D01*
X137126000Y-110054000D01*
X137434000Y-110054000D01*
X137434000Y-110846000D01*
X138016000Y-110846000D01*
X138168000Y-110694000D01*
X138161592Y-110583522D01*
X138129259Y-110468203D01*
X138120019Y-110450000D01*
X138129259Y-110431797D01*
X138161592Y-110316478D01*
X138168000Y-110206000D01*
X138016000Y-110054000D01*
X137434000Y-110054000D01*
X137126000Y-110054000D01*
X137106000Y-110054000D01*
X137106000Y-109746000D01*
X137126000Y-109746000D01*
X137126000Y-109134000D01*
X136974000Y-108982000D01*
X136868154Y-108993454D01*
X136754307Y-109030639D01*
X136649902Y-109089319D01*
X136558951Y-109167240D01*
X136484949Y-109261408D01*
X136470641Y-109289597D01*
X136460000Y-109288549D01*
X136287077Y-109288549D01*
X136282478Y-109283950D01*
X136184207Y-109218287D01*
X136075014Y-109173058D01*
X135959095Y-109150000D01*
X135933885Y-109150000D01*
X136158886Y-108925000D01*
X137518549Y-108925000D01*
X137518549Y-109049451D01*
X137434000Y-109134000D01*
X137434000Y-109746000D01*
X138016000Y-109746000D01*
X138168000Y-109594000D01*
X138163792Y-109521451D01*
X138225000Y-109521451D01*
X138310147Y-109513065D01*
X138392023Y-109488228D01*
X138467479Y-109447896D01*
X138533617Y-109393617D01*
X138587896Y-109327479D01*
X138600000Y-109304834D01*
X138612104Y-109327479D01*
X138666383Y-109393617D01*
X138732521Y-109447896D01*
X138807977Y-109488228D01*
X138889853Y-109513065D01*
X138975000Y-109521451D01*
X139245000Y-109521451D01*
X139330147Y-109513065D01*
X139412023Y-109488228D01*
X139487479Y-109447896D01*
X139553617Y-109393617D01*
X139575000Y-109367562D01*
X139575001Y-110820299D01*
X139531713Y-110715793D01*
X139466050Y-110617522D01*
X139382478Y-110533950D01*
X139284207Y-110468287D01*
X139175014Y-110423058D01*
X139059095Y-110400000D01*
X138940905Y-110400000D01*
X138824986Y-110423058D01*
X138715793Y-110468287D01*
X138617522Y-110533950D01*
X138533950Y-110617522D01*
X138468287Y-110715793D01*
X138423058Y-110824986D01*
X138400000Y-110940905D01*
X138400000Y-111059095D01*
X138408114Y-111099886D01*
X138274000Y-111234000D01*
X138274000Y-111846000D01*
X138294000Y-111846000D01*
X138294000Y-112154000D01*
X138274000Y-112154000D01*
X138274000Y-112174000D01*
X137966000Y-112174000D01*
X137966000Y-112154000D01*
X137384000Y-112154000D01*
X137232000Y-112306000D01*
X137238408Y-112416478D01*
X137270741Y-112531797D01*
X137324949Y-112638592D01*
X137398951Y-112732760D01*
X137489902Y-112810681D01*
X137594307Y-112869361D01*
X137708154Y-112906546D01*
X137814000Y-112918000D01*
X137965998Y-112766002D01*
X137965998Y-112918000D01*
X138101701Y-112918000D01*
X138098549Y-112950000D01*
X138098549Y-113850000D01*
X138104341Y-113908810D01*
X138121496Y-113965360D01*
X138149353Y-114017477D01*
X138186842Y-114063158D01*
X138232523Y-114100647D01*
X138284640Y-114128504D01*
X138341190Y-114145659D01*
X138400000Y-114151451D01*
X139200000Y-114151451D01*
X139258810Y-114145659D01*
X139315360Y-114128504D01*
X139367477Y-114100647D01*
X139413158Y-114063158D01*
X139450647Y-114017477D01*
X139478504Y-113965360D01*
X139495659Y-113908810D01*
X139501451Y-113850000D01*
X139501451Y-112992197D01*
X139544175Y-112912267D01*
X139572765Y-112818017D01*
X139580000Y-112744560D01*
X139580000Y-112744559D01*
X139582419Y-112720000D01*
X139580000Y-112695440D01*
X139580000Y-112423851D01*
X139587053Y-112415257D01*
X139627848Y-112338936D01*
X139652969Y-112256123D01*
X139661451Y-112170000D01*
X139661451Y-112131624D01*
X139678265Y-112152112D01*
X139678268Y-112152115D01*
X139690790Y-112167373D01*
X139706047Y-112179894D01*
X140020105Y-112493953D01*
X140032627Y-112509211D01*
X140047885Y-112521733D01*
X140047887Y-112521735D01*
X140093535Y-112559197D01*
X140163023Y-112596340D01*
X140238424Y-112619212D01*
X140316838Y-112626935D01*
X140336484Y-112625000D01*
X140957785Y-112625000D01*
X140924968Y-112704227D01*
X140886000Y-112900130D01*
X140886000Y-113099870D01*
X140924968Y-113295773D01*
X141001405Y-113480309D01*
X141112375Y-113646387D01*
X141253613Y-113787625D01*
X141419691Y-113898595D01*
X141604227Y-113975032D01*
X141800130Y-114014000D01*
X141999870Y-114014000D01*
X142195773Y-113975032D01*
X142380309Y-113898595D01*
X142546387Y-113787625D01*
X142687625Y-113646387D01*
X142798595Y-113480309D01*
X142875032Y-113295773D01*
X142914000Y-113099870D01*
X142914000Y-112900130D01*
X142875032Y-112704227D01*
X142798595Y-112519691D01*
X142687625Y-112353613D01*
X142546387Y-112212375D01*
X142380309Y-112101405D01*
X142195773Y-112024968D01*
X142070252Y-112000000D01*
X142195773Y-111975032D01*
X142380309Y-111898595D01*
X142546387Y-111787625D01*
X142687625Y-111646387D01*
X142798595Y-111480309D01*
X142875032Y-111295773D01*
X142914000Y-111099870D01*
X142914000Y-110900130D01*
X142875032Y-110704227D01*
X142798595Y-110519691D01*
X142687625Y-110353613D01*
X142546387Y-110212375D01*
X142380309Y-110101405D01*
X142195773Y-110024968D01*
X141999870Y-109986000D01*
X141800130Y-109986000D01*
X141604227Y-110024968D01*
X141419691Y-110101405D01*
X141253613Y-110212375D01*
X141112375Y-110353613D01*
X141001405Y-110519691D01*
X140924968Y-110704227D01*
X140886000Y-110900130D01*
X140886000Y-111099870D01*
X140924968Y-111295773D01*
X140957785Y-111375000D01*
X140825000Y-111375000D01*
X140825000Y-109616282D01*
X143150000Y-109616282D01*
X143150000Y-109783718D01*
X143182665Y-109947936D01*
X143246740Y-110102626D01*
X143339762Y-110241844D01*
X143458156Y-110360238D01*
X143597374Y-110453260D01*
X143752064Y-110517335D01*
X143916282Y-110550000D01*
X144083718Y-110550000D01*
X144247936Y-110517335D01*
X144402626Y-110453260D01*
X144541844Y-110360238D01*
X144660238Y-110241844D01*
X144753260Y-110102626D01*
X144817335Y-109947936D01*
X144850000Y-109783718D01*
X144850000Y-109616282D01*
X144817335Y-109452064D01*
X144753260Y-109297374D01*
X144660238Y-109158156D01*
X144541844Y-109039762D01*
X144402626Y-108946740D01*
X144247936Y-108882665D01*
X144083718Y-108850000D01*
X143916282Y-108850000D01*
X143752064Y-108882665D01*
X143597374Y-108946740D01*
X143458156Y-109039762D01*
X143339762Y-109158156D01*
X143246740Y-109297374D01*
X143182665Y-109452064D01*
X143150000Y-109616282D01*
X140825000Y-109616282D01*
X140825000Y-108676930D01*
X140826935Y-108657283D01*
X140819212Y-108578869D01*
X140796340Y-108503469D01*
X140759197Y-108433980D01*
X140750434Y-108423302D01*
X140709211Y-108373072D01*
X140693949Y-108360547D01*
X140139452Y-107806050D01*
X140126928Y-107790789D01*
X140121093Y-107786000D01*
X140884549Y-107786000D01*
X140884549Y-109214000D01*
X140890341Y-109272810D01*
X140907496Y-109329360D01*
X140935353Y-109381477D01*
X140972842Y-109427158D01*
X141018523Y-109464647D01*
X141070640Y-109492504D01*
X141127190Y-109509659D01*
X141186000Y-109515451D01*
X142614000Y-109515451D01*
X142672810Y-109509659D01*
X142729360Y-109492504D01*
X142781477Y-109464647D01*
X142827158Y-109427158D01*
X142864647Y-109381477D01*
X142892504Y-109329360D01*
X142909659Y-109272810D01*
X142915451Y-109214000D01*
X142915451Y-107786000D01*
X142909659Y-107727190D01*
X142892504Y-107670640D01*
X142864647Y-107618523D01*
X142827158Y-107572842D01*
X142781477Y-107535353D01*
X142729360Y-107507496D01*
X142672810Y-107490341D01*
X142614000Y-107484549D01*
X141186000Y-107484549D01*
X141127190Y-107490341D01*
X141070640Y-107507496D01*
X141018523Y-107535353D01*
X140972842Y-107572842D01*
X140935353Y-107618523D01*
X140907496Y-107670640D01*
X140890341Y-107727190D01*
X140884549Y-107786000D01*
X140121093Y-107786000D01*
X140066020Y-107740803D01*
X139996531Y-107703660D01*
X139921131Y-107680788D01*
X139862364Y-107675000D01*
X139862363Y-107675000D01*
X139842717Y-107673065D01*
X139823071Y-107675000D01*
X139681451Y-107675000D01*
X139681451Y-107515000D01*
X139673065Y-107429853D01*
X139648228Y-107347977D01*
X139647191Y-107346037D01*
X139710098Y-107310681D01*
X139801049Y-107232760D01*
X139875051Y-107138592D01*
X139929259Y-107031797D01*
X139961592Y-106916478D01*
X139968000Y-106806000D01*
X139816000Y-106654000D01*
X139234000Y-106654000D01*
X139234000Y-106674000D01*
X138926000Y-106674000D01*
X138926000Y-106654000D01*
X138906000Y-106654000D01*
X138906000Y-106346000D01*
X138926000Y-106346000D01*
X138926000Y-105404000D01*
X139234000Y-105404000D01*
X139234000Y-106346000D01*
X139816000Y-106346000D01*
X139968000Y-106194000D01*
X139961592Y-106083522D01*
X139929259Y-105968203D01*
X139915403Y-105940905D01*
X140400000Y-105940905D01*
X140400000Y-106059095D01*
X140423058Y-106175014D01*
X140468287Y-106284207D01*
X140533950Y-106382478D01*
X140617522Y-106466050D01*
X140715793Y-106531713D01*
X140824986Y-106576942D01*
X140940905Y-106600000D01*
X141059095Y-106600000D01*
X141175014Y-106576942D01*
X141284207Y-106531713D01*
X141311014Y-106513801D01*
X141691486Y-106513801D01*
X141785980Y-106778640D01*
X141932026Y-107004185D01*
X142119267Y-107196904D01*
X142340508Y-107349391D01*
X142587246Y-107455786D01*
X142850000Y-107512000D01*
X143846000Y-107512000D01*
X143846000Y-106304000D01*
X144154000Y-106304000D01*
X144154000Y-107512000D01*
X145150000Y-107512000D01*
X145412754Y-107455786D01*
X145659492Y-107349391D01*
X145880733Y-107196904D01*
X146067974Y-107004185D01*
X146214020Y-106778640D01*
X146308514Y-106513801D01*
X146196160Y-106304000D01*
X144154000Y-106304000D01*
X143846000Y-106304000D01*
X141803840Y-106304000D01*
X141691486Y-106513801D01*
X141311014Y-106513801D01*
X141382478Y-106466050D01*
X141466050Y-106382478D01*
X141531713Y-106284207D01*
X141576942Y-106175014D01*
X141600000Y-106059095D01*
X141600000Y-105940905D01*
X141576942Y-105824986D01*
X141531713Y-105715793D01*
X141466050Y-105617522D01*
X141382478Y-105533950D01*
X141284207Y-105468287D01*
X141175014Y-105423058D01*
X141059095Y-105400000D01*
X140940905Y-105400000D01*
X140824986Y-105423058D01*
X140715793Y-105468287D01*
X140617522Y-105533950D01*
X140533950Y-105617522D01*
X140468287Y-105715793D01*
X140423058Y-105824986D01*
X140400000Y-105940905D01*
X139915403Y-105940905D01*
X139881950Y-105875000D01*
X139929259Y-105781797D01*
X139961592Y-105666478D01*
X139968000Y-105556000D01*
X139816000Y-105404000D01*
X139234000Y-105404000D01*
X138926000Y-105404000D01*
X138906000Y-105404000D01*
X138906000Y-105096000D01*
X138926000Y-105096000D01*
X138926000Y-104484000D01*
X138774000Y-104332000D01*
X138668154Y-104343454D01*
X138554307Y-104380639D01*
X138449902Y-104439319D01*
X138358951Y-104517240D01*
X138284949Y-104611408D01*
X138270641Y-104639597D01*
X138260000Y-104638549D01*
X137980000Y-104638549D01*
X137893877Y-104647031D01*
X137811064Y-104672152D01*
X137734743Y-104712947D01*
X137728988Y-104717670D01*
X137675051Y-104611408D01*
X137601049Y-104517240D01*
X137510098Y-104439319D01*
X137405693Y-104380639D01*
X137291846Y-104343454D01*
X137186000Y-104332000D01*
X137034000Y-104484000D01*
X137034000Y-105096000D01*
X137054000Y-105096000D01*
X137054000Y-105404000D01*
X137034000Y-105404000D01*
X137034000Y-105424000D01*
X136726000Y-105424000D01*
X136726000Y-105404000D01*
X136706000Y-105404000D01*
X136706000Y-105096000D01*
X136726000Y-105096000D01*
X136726000Y-104484000D01*
X136574000Y-104332000D01*
X136468154Y-104343454D01*
X136354307Y-104380639D01*
X136249902Y-104439319D01*
X136199844Y-104482205D01*
X136188948Y-104473263D01*
X136040685Y-104325000D01*
X139484106Y-104325000D01*
X139533689Y-104329861D01*
G04 #@! TA.AperFunction,Conductor*
D25*
G36*
X139533689Y-104329861D02*
G01*
X139566090Y-104339644D01*
X139595982Y-104355537D01*
X139622213Y-104376932D01*
X139642302Y-104401215D01*
X139605693Y-104380639D01*
X139491846Y-104343454D01*
X139386000Y-104332000D01*
X139234000Y-104484000D01*
X139234000Y-105096000D01*
X139816000Y-105096000D01*
X139875891Y-105036109D01*
X139897266Y-105061948D01*
X139918192Y-105082728D01*
X139938775Y-105103747D01*
X139942271Y-105106640D01*
X140017892Y-105168316D01*
X140042439Y-105184625D01*
X140066736Y-105201261D01*
X140070727Y-105203420D01*
X140156888Y-105249232D01*
X140184139Y-105260464D01*
X140211193Y-105272059D01*
X140215528Y-105273401D01*
X140308946Y-105301606D01*
X140337845Y-105307328D01*
X140366657Y-105313452D01*
X140371170Y-105313927D01*
X140468287Y-105323449D01*
X140468292Y-105323449D01*
X140484039Y-105325000D01*
X141913128Y-105325000D01*
X141785980Y-105521360D01*
X141691486Y-105786199D01*
X141803840Y-105996000D01*
X143846000Y-105996000D01*
X143846000Y-105976000D01*
X144154000Y-105976000D01*
X144154000Y-105996000D01*
X146196160Y-105996000D01*
X146308514Y-105786199D01*
X146214020Y-105521360D01*
X146086872Y-105325000D01*
X146425001Y-105325000D01*
X146425000Y-118675000D01*
X146086872Y-118675000D01*
X146214020Y-118478640D01*
X146308514Y-118213801D01*
X146196160Y-118004000D01*
X144154000Y-118004000D01*
X144154000Y-118024000D01*
X143846000Y-118024000D01*
X143846000Y-118004000D01*
X141803840Y-118004000D01*
X141691486Y-118213801D01*
X141785980Y-118478640D01*
X141913128Y-118675000D01*
X140484039Y-118675000D01*
X140470116Y-118676371D01*
X140467055Y-118676350D01*
X140462538Y-118676792D01*
X140365490Y-118686992D01*
X140336629Y-118692917D01*
X140307701Y-118698435D01*
X140303356Y-118699746D01*
X140210137Y-118728602D01*
X140182950Y-118740031D01*
X140155669Y-118751053D01*
X140151662Y-118753183D01*
X140065825Y-118799596D01*
X140041411Y-118816064D01*
X140016758Y-118832197D01*
X140013241Y-118835065D01*
X139938052Y-118897267D01*
X139917292Y-118918173D01*
X139896253Y-118938775D01*
X139893360Y-118942272D01*
X139893356Y-118942276D01*
X139831684Y-119017892D01*
X139815385Y-119042424D01*
X139798739Y-119066736D01*
X139796580Y-119070727D01*
X139750768Y-119156888D01*
X139739536Y-119184139D01*
X139727941Y-119211193D01*
X139726599Y-119215528D01*
X139698394Y-119308946D01*
X139692674Y-119337837D01*
X139686548Y-119366656D01*
X139686073Y-119371170D01*
X139676551Y-119468284D01*
X139676551Y-119468287D01*
X139670139Y-119533689D01*
X139660356Y-119566090D01*
X139644462Y-119595984D01*
X139623068Y-119622214D01*
X139596989Y-119643789D01*
X139567213Y-119659889D01*
X139534875Y-119669899D01*
X139486342Y-119675000D01*
X137768896Y-119675000D01*
X137772978Y-119670026D01*
X137792267Y-119664175D01*
X137879129Y-119617746D01*
X137955264Y-119555264D01*
X137970929Y-119536176D01*
X138456181Y-119050925D01*
X138475264Y-119035264D01*
X138537746Y-118959129D01*
X138581058Y-118878098D01*
X138668154Y-118906546D01*
X138774000Y-118918000D01*
X138926000Y-118766000D01*
X138926000Y-118154000D01*
X139234000Y-118154000D01*
X139234000Y-118766000D01*
X139386000Y-118918000D01*
X139491846Y-118906546D01*
X139605693Y-118869361D01*
X139710098Y-118810681D01*
X139801049Y-118732760D01*
X139875051Y-118638592D01*
X139929259Y-118531797D01*
X139961592Y-118416478D01*
X139968000Y-118306000D01*
X139816000Y-118154000D01*
X139234000Y-118154000D01*
X138926000Y-118154000D01*
X138906000Y-118154000D01*
X138906000Y-117940905D01*
X140400000Y-117940905D01*
X140400000Y-118059095D01*
X140423058Y-118175014D01*
X140468287Y-118284207D01*
X140533950Y-118382478D01*
X140617522Y-118466050D01*
X140715793Y-118531713D01*
X140824986Y-118576942D01*
X140940905Y-118600000D01*
X141059095Y-118600000D01*
X141175014Y-118576942D01*
X141284207Y-118531713D01*
X141382478Y-118466050D01*
X141466050Y-118382478D01*
X141531713Y-118284207D01*
X141576942Y-118175014D01*
X141600000Y-118059095D01*
X141600000Y-117940905D01*
X141576942Y-117824986D01*
X141531713Y-117715793D01*
X141466050Y-117617522D01*
X141382478Y-117533950D01*
X141284207Y-117468287D01*
X141175014Y-117423058D01*
X141059095Y-117400000D01*
X140940905Y-117400000D01*
X140824986Y-117423058D01*
X140715793Y-117468287D01*
X140617522Y-117533950D01*
X140533950Y-117617522D01*
X140468287Y-117715793D01*
X140423058Y-117824986D01*
X140400000Y-117940905D01*
X138906000Y-117940905D01*
X138906000Y-117846000D01*
X138926000Y-117846000D01*
X138926000Y-116954000D01*
X139234000Y-116954000D01*
X139234000Y-117846000D01*
X139816000Y-117846000D01*
X139968000Y-117694000D01*
X139961592Y-117583522D01*
X139929259Y-117468203D01*
X139894640Y-117400000D01*
X139929259Y-117331797D01*
X139961592Y-117216478D01*
X139968000Y-117106000D01*
X139816000Y-116954000D01*
X139234000Y-116954000D01*
X138926000Y-116954000D01*
X138906000Y-116954000D01*
X138906000Y-116646000D01*
X138926000Y-116646000D01*
X138926000Y-116626000D01*
X139234000Y-116626000D01*
X139234000Y-116646000D01*
X139816000Y-116646000D01*
X139968000Y-116494000D01*
X139961592Y-116383522D01*
X139953827Y-116355827D01*
X140056000Y-116458000D01*
X140150000Y-116460942D01*
X140269189Y-116449203D01*
X140320707Y-116433575D01*
X141184214Y-116433575D01*
X141249041Y-116657969D01*
X141487457Y-116762715D01*
X141741727Y-116818935D01*
X142002080Y-116824470D01*
X142118513Y-116803872D01*
X141932026Y-116995815D01*
X141785980Y-117221360D01*
X141691486Y-117486199D01*
X141803840Y-117696000D01*
X143846000Y-117696000D01*
X143846000Y-116488000D01*
X144154000Y-116488000D01*
X144154000Y-117696000D01*
X146196160Y-117696000D01*
X146308514Y-117486199D01*
X146214020Y-117221360D01*
X146067974Y-116995815D01*
X145880733Y-116803096D01*
X145659492Y-116650609D01*
X145412754Y-116544214D01*
X145150000Y-116488000D01*
X144154000Y-116488000D01*
X143846000Y-116488000D01*
X142850000Y-116488000D01*
X142587246Y-116544214D01*
X142583335Y-116545900D01*
X142615786Y-116433575D01*
X141900000Y-115717789D01*
X141184214Y-116433575D01*
X140320707Y-116433575D01*
X140383797Y-116414437D01*
X140489421Y-116357980D01*
X140582001Y-116282001D01*
X140657980Y-116189421D01*
X140711089Y-116090060D01*
X140715414Y-116101163D01*
X140742031Y-116150959D01*
X140966425Y-116215786D01*
X141682211Y-115500000D01*
X142117789Y-115500000D01*
X142833575Y-116215786D01*
X143057969Y-116150959D01*
X143162715Y-115912543D01*
X143218935Y-115658273D01*
X143224470Y-115397920D01*
X143179105Y-115141490D01*
X143084586Y-114898837D01*
X143057969Y-114849041D01*
X142833575Y-114784214D01*
X142117789Y-115500000D01*
X141682211Y-115500000D01*
X140966425Y-114784214D01*
X140750750Y-114846522D01*
X140749203Y-114830811D01*
X140714437Y-114716203D01*
X140657980Y-114610579D01*
X140621744Y-114566425D01*
X141184214Y-114566425D01*
X141900000Y-115282211D01*
X142615786Y-114566425D01*
X142550959Y-114342031D01*
X142312543Y-114237285D01*
X142217552Y-114216282D01*
X143150000Y-114216282D01*
X143150000Y-114383718D01*
X143182665Y-114547936D01*
X143246740Y-114702626D01*
X143339762Y-114841844D01*
X143458156Y-114960238D01*
X143597374Y-115053260D01*
X143752064Y-115117335D01*
X143916282Y-115150000D01*
X144083718Y-115150000D01*
X144247936Y-115117335D01*
X144402626Y-115053260D01*
X144541844Y-114960238D01*
X144660238Y-114841844D01*
X144753260Y-114702626D01*
X144817335Y-114547936D01*
X144850000Y-114383718D01*
X144850000Y-114216282D01*
X144817335Y-114052064D01*
X144753260Y-113897374D01*
X144660238Y-113758156D01*
X144541844Y-113639762D01*
X144402626Y-113546740D01*
X144247936Y-113482665D01*
X144083718Y-113450000D01*
X143916282Y-113450000D01*
X143752064Y-113482665D01*
X143597374Y-113546740D01*
X143458156Y-113639762D01*
X143339762Y-113758156D01*
X143246740Y-113897374D01*
X143182665Y-114052064D01*
X143150000Y-114216282D01*
X142217552Y-114216282D01*
X142058273Y-114181065D01*
X141797920Y-114175530D01*
X141541490Y-114220895D01*
X141298837Y-114315414D01*
X141249041Y-114342031D01*
X141184214Y-114566425D01*
X140621744Y-114566425D01*
X140582001Y-114517999D01*
X140489421Y-114442020D01*
X140383797Y-114385563D01*
X140269189Y-114350797D01*
X140150000Y-114339058D01*
X140056000Y-114342000D01*
X139904000Y-114494000D01*
X139904000Y-115246000D01*
X139924000Y-115246000D01*
X139924000Y-115554000D01*
X139904000Y-115554000D01*
X139904000Y-115574000D01*
X139596000Y-115574000D01*
X139596000Y-115554000D01*
X138894000Y-115554000D01*
X138742000Y-115706000D01*
X138739058Y-115850000D01*
X138742545Y-115885404D01*
X138668154Y-115893454D01*
X138554307Y-115930639D01*
X138535898Y-115940985D01*
X138545659Y-115908810D01*
X138551451Y-115850000D01*
X138551451Y-114950000D01*
X138739058Y-114950000D01*
X138742000Y-115094000D01*
X138894000Y-115246000D01*
X139596000Y-115246000D01*
X139596000Y-114494000D01*
X139444000Y-114342000D01*
X139350000Y-114339058D01*
X139230811Y-114350797D01*
X139116203Y-114385563D01*
X139010579Y-114442020D01*
X138917999Y-114517999D01*
X138842020Y-114610579D01*
X138785563Y-114716203D01*
X138750797Y-114830811D01*
X138739058Y-114950000D01*
X138551451Y-114950000D01*
X138545659Y-114891190D01*
X138528504Y-114834640D01*
X138500647Y-114782523D01*
X138463158Y-114736842D01*
X138417477Y-114699353D01*
X138365360Y-114671496D01*
X138308810Y-114654341D01*
X138250000Y-114648549D01*
X137450000Y-114648549D01*
X137391190Y-114654341D01*
X137334640Y-114671496D01*
X137282523Y-114699353D01*
X137236842Y-114736842D01*
X137199353Y-114782523D01*
X137171496Y-114834640D01*
X137154341Y-114891190D01*
X137150085Y-114934400D01*
X136926737Y-114711052D01*
X136914211Y-114695789D01*
X136853303Y-114645803D01*
X136783814Y-114608660D01*
X136708414Y-114585788D01*
X136649647Y-114580000D01*
X136649646Y-114580000D01*
X136630000Y-114578065D01*
X136610354Y-114580000D01*
X136559989Y-114580000D01*
X136550647Y-114562523D01*
X136513158Y-114516842D01*
X136467477Y-114479353D01*
X136415360Y-114451496D01*
X136358810Y-114434341D01*
X136320996Y-114430617D01*
X136352823Y-114371072D01*
X136374552Y-114299442D01*
X136380051Y-114243610D01*
X136380051Y-114243603D01*
X136381888Y-114224949D01*
X136380051Y-114206295D01*
X136380051Y-111842901D01*
X136381888Y-111824247D01*
X136380051Y-111805593D01*
X136380051Y-111805586D01*
X136374552Y-111749754D01*
X136352823Y-111678124D01*
X136317538Y-111612109D01*
X136316998Y-111611451D01*
X136460000Y-111611451D01*
X136470641Y-111610403D01*
X136484949Y-111638592D01*
X136558951Y-111732760D01*
X136649902Y-111810681D01*
X136754307Y-111869361D01*
X136868154Y-111906546D01*
X136974000Y-111918000D01*
X137126000Y-111766000D01*
X137126000Y-111694000D01*
X137232000Y-111694000D01*
X137384000Y-111846000D01*
X137514000Y-111846000D01*
X137586000Y-111918000D01*
X137691846Y-111906546D01*
X137805693Y-111869361D01*
X137847258Y-111846000D01*
X137966000Y-111846000D01*
X137966000Y-111762788D01*
X138001049Y-111732760D01*
X138075051Y-111638592D01*
X138129259Y-111531797D01*
X138161592Y-111416478D01*
X138168000Y-111306000D01*
X138016000Y-111154000D01*
X137886000Y-111154000D01*
X137814000Y-111082000D01*
X137708154Y-111093454D01*
X137594307Y-111130639D01*
X137552742Y-111154000D01*
X137434000Y-111154000D01*
X137434000Y-111237212D01*
X137398951Y-111267240D01*
X137324949Y-111361408D01*
X137270741Y-111468203D01*
X137238408Y-111583522D01*
X137232000Y-111694000D01*
X137126000Y-111694000D01*
X137126000Y-111154000D01*
X137106000Y-111154000D01*
X137106000Y-110846000D01*
X137126000Y-110846000D01*
X137126000Y-110054000D01*
X137434000Y-110054000D01*
X137434000Y-110846000D01*
X138016000Y-110846000D01*
X138168000Y-110694000D01*
X138161592Y-110583522D01*
X138129259Y-110468203D01*
X138120019Y-110450000D01*
X138129259Y-110431797D01*
X138161592Y-110316478D01*
X138168000Y-110206000D01*
X138016000Y-110054000D01*
X137434000Y-110054000D01*
X137126000Y-110054000D01*
X137106000Y-110054000D01*
X137106000Y-109746000D01*
X137126000Y-109746000D01*
X137126000Y-109134000D01*
X136974000Y-108982000D01*
X136868154Y-108993454D01*
X136754307Y-109030639D01*
X136649902Y-109089319D01*
X136558951Y-109167240D01*
X136484949Y-109261408D01*
X136470641Y-109289597D01*
X136460000Y-109288549D01*
X136287077Y-109288549D01*
X136282478Y-109283950D01*
X136184207Y-109218287D01*
X136075014Y-109173058D01*
X135959095Y-109150000D01*
X135933885Y-109150000D01*
X136158886Y-108925000D01*
X137518549Y-108925000D01*
X137518549Y-109049451D01*
X137434000Y-109134000D01*
X137434000Y-109746000D01*
X138016000Y-109746000D01*
X138168000Y-109594000D01*
X138163792Y-109521451D01*
X138225000Y-109521451D01*
X138310147Y-109513065D01*
X138392023Y-109488228D01*
X138467479Y-109447896D01*
X138533617Y-109393617D01*
X138587896Y-109327479D01*
X138600000Y-109304834D01*
X138612104Y-109327479D01*
X138666383Y-109393617D01*
X138732521Y-109447896D01*
X138807977Y-109488228D01*
X138889853Y-109513065D01*
X138975000Y-109521451D01*
X139245000Y-109521451D01*
X139330147Y-109513065D01*
X139412023Y-109488228D01*
X139487479Y-109447896D01*
X139553617Y-109393617D01*
X139575000Y-109367562D01*
X139575001Y-110820299D01*
X139531713Y-110715793D01*
X139466050Y-110617522D01*
X139382478Y-110533950D01*
X139284207Y-110468287D01*
X139175014Y-110423058D01*
X139059095Y-110400000D01*
X138940905Y-110400000D01*
X138824986Y-110423058D01*
X138715793Y-110468287D01*
X138617522Y-110533950D01*
X138533950Y-110617522D01*
X138468287Y-110715793D01*
X138423058Y-110824986D01*
X138400000Y-110940905D01*
X138400000Y-111059095D01*
X138408114Y-111099886D01*
X138274000Y-111234000D01*
X138274000Y-111846000D01*
X138294000Y-111846000D01*
X138294000Y-112154000D01*
X138274000Y-112154000D01*
X138274000Y-112174000D01*
X137966000Y-112174000D01*
X137966000Y-112154000D01*
X137384000Y-112154000D01*
X137232000Y-112306000D01*
X137238408Y-112416478D01*
X137270741Y-112531797D01*
X137324949Y-112638592D01*
X137398951Y-112732760D01*
X137489902Y-112810681D01*
X137594307Y-112869361D01*
X137708154Y-112906546D01*
X137814000Y-112918000D01*
X137965998Y-112766002D01*
X137965998Y-112918000D01*
X138101701Y-112918000D01*
X138098549Y-112950000D01*
X138098549Y-113850000D01*
X138104341Y-113908810D01*
X138121496Y-113965360D01*
X138149353Y-114017477D01*
X138186842Y-114063158D01*
X138232523Y-114100647D01*
X138284640Y-114128504D01*
X138341190Y-114145659D01*
X138400000Y-114151451D01*
X139200000Y-114151451D01*
X139258810Y-114145659D01*
X139315360Y-114128504D01*
X139367477Y-114100647D01*
X139413158Y-114063158D01*
X139450647Y-114017477D01*
X139478504Y-113965360D01*
X139495659Y-113908810D01*
X139501451Y-113850000D01*
X139501451Y-112992197D01*
X139544175Y-112912267D01*
X139572765Y-112818017D01*
X139580000Y-112744560D01*
X139580000Y-112744559D01*
X139582419Y-112720000D01*
X139580000Y-112695440D01*
X139580000Y-112423851D01*
X139587053Y-112415257D01*
X139627848Y-112338936D01*
X139652969Y-112256123D01*
X139661451Y-112170000D01*
X139661451Y-112131624D01*
X139678265Y-112152112D01*
X139678268Y-112152115D01*
X139690790Y-112167373D01*
X139706047Y-112179894D01*
X140020105Y-112493953D01*
X140032627Y-112509211D01*
X140047885Y-112521733D01*
X140047887Y-112521735D01*
X140093535Y-112559197D01*
X140163023Y-112596340D01*
X140238424Y-112619212D01*
X140316838Y-112626935D01*
X140336484Y-112625000D01*
X140957785Y-112625000D01*
X140924968Y-112704227D01*
X140886000Y-112900130D01*
X140886000Y-113099870D01*
X140924968Y-113295773D01*
X141001405Y-113480309D01*
X141112375Y-113646387D01*
X141253613Y-113787625D01*
X141419691Y-113898595D01*
X141604227Y-113975032D01*
X141800130Y-114014000D01*
X141999870Y-114014000D01*
X142195773Y-113975032D01*
X142380309Y-113898595D01*
X142546387Y-113787625D01*
X142687625Y-113646387D01*
X142798595Y-113480309D01*
X142875032Y-113295773D01*
X142914000Y-113099870D01*
X142914000Y-112900130D01*
X142875032Y-112704227D01*
X142798595Y-112519691D01*
X142687625Y-112353613D01*
X142546387Y-112212375D01*
X142380309Y-112101405D01*
X142195773Y-112024968D01*
X142070252Y-112000000D01*
X142195773Y-111975032D01*
X142380309Y-111898595D01*
X142546387Y-111787625D01*
X142687625Y-111646387D01*
X142798595Y-111480309D01*
X142875032Y-111295773D01*
X142914000Y-111099870D01*
X142914000Y-110900130D01*
X142875032Y-110704227D01*
X142798595Y-110519691D01*
X142687625Y-110353613D01*
X142546387Y-110212375D01*
X142380309Y-110101405D01*
X142195773Y-110024968D01*
X141999870Y-109986000D01*
X141800130Y-109986000D01*
X141604227Y-110024968D01*
X141419691Y-110101405D01*
X141253613Y-110212375D01*
X141112375Y-110353613D01*
X141001405Y-110519691D01*
X140924968Y-110704227D01*
X140886000Y-110900130D01*
X140886000Y-111099870D01*
X140924968Y-111295773D01*
X140957785Y-111375000D01*
X140825000Y-111375000D01*
X140825000Y-109616282D01*
X143150000Y-109616282D01*
X143150000Y-109783718D01*
X143182665Y-109947936D01*
X143246740Y-110102626D01*
X143339762Y-110241844D01*
X143458156Y-110360238D01*
X143597374Y-110453260D01*
X143752064Y-110517335D01*
X143916282Y-110550000D01*
X144083718Y-110550000D01*
X144247936Y-110517335D01*
X144402626Y-110453260D01*
X144541844Y-110360238D01*
X144660238Y-110241844D01*
X144753260Y-110102626D01*
X144817335Y-109947936D01*
X144850000Y-109783718D01*
X144850000Y-109616282D01*
X144817335Y-109452064D01*
X144753260Y-109297374D01*
X144660238Y-109158156D01*
X144541844Y-109039762D01*
X144402626Y-108946740D01*
X144247936Y-108882665D01*
X144083718Y-108850000D01*
X143916282Y-108850000D01*
X143752064Y-108882665D01*
X143597374Y-108946740D01*
X143458156Y-109039762D01*
X143339762Y-109158156D01*
X143246740Y-109297374D01*
X143182665Y-109452064D01*
X143150000Y-109616282D01*
X140825000Y-109616282D01*
X140825000Y-108676930D01*
X140826935Y-108657283D01*
X140819212Y-108578869D01*
X140796340Y-108503469D01*
X140759197Y-108433980D01*
X140750434Y-108423302D01*
X140709211Y-108373072D01*
X140693949Y-108360547D01*
X140139452Y-107806050D01*
X140126928Y-107790789D01*
X140121093Y-107786000D01*
X140884549Y-107786000D01*
X140884549Y-109214000D01*
X140890341Y-109272810D01*
X140907496Y-109329360D01*
X140935353Y-109381477D01*
X140972842Y-109427158D01*
X141018523Y-109464647D01*
X141070640Y-109492504D01*
X141127190Y-109509659D01*
X141186000Y-109515451D01*
X142614000Y-109515451D01*
X142672810Y-109509659D01*
X142729360Y-109492504D01*
X142781477Y-109464647D01*
X142827158Y-109427158D01*
X142864647Y-109381477D01*
X142892504Y-109329360D01*
X142909659Y-109272810D01*
X142915451Y-109214000D01*
X142915451Y-107786000D01*
X142909659Y-107727190D01*
X142892504Y-107670640D01*
X142864647Y-107618523D01*
X142827158Y-107572842D01*
X142781477Y-107535353D01*
X142729360Y-107507496D01*
X142672810Y-107490341D01*
X142614000Y-107484549D01*
X141186000Y-107484549D01*
X141127190Y-107490341D01*
X141070640Y-107507496D01*
X141018523Y-107535353D01*
X140972842Y-107572842D01*
X140935353Y-107618523D01*
X140907496Y-107670640D01*
X140890341Y-107727190D01*
X140884549Y-107786000D01*
X140121093Y-107786000D01*
X140066020Y-107740803D01*
X139996531Y-107703660D01*
X139921131Y-107680788D01*
X139862364Y-107675000D01*
X139862363Y-107675000D01*
X139842717Y-107673065D01*
X139823071Y-107675000D01*
X139681451Y-107675000D01*
X139681451Y-107515000D01*
X139673065Y-107429853D01*
X139648228Y-107347977D01*
X139647191Y-107346037D01*
X139710098Y-107310681D01*
X139801049Y-107232760D01*
X139875051Y-107138592D01*
X139929259Y-107031797D01*
X139961592Y-106916478D01*
X139968000Y-106806000D01*
X139816000Y-106654000D01*
X139234000Y-106654000D01*
X139234000Y-106674000D01*
X138926000Y-106674000D01*
X138926000Y-106654000D01*
X138906000Y-106654000D01*
X138906000Y-106346000D01*
X138926000Y-106346000D01*
X138926000Y-105404000D01*
X139234000Y-105404000D01*
X139234000Y-106346000D01*
X139816000Y-106346000D01*
X139968000Y-106194000D01*
X139961592Y-106083522D01*
X139929259Y-105968203D01*
X139915403Y-105940905D01*
X140400000Y-105940905D01*
X140400000Y-106059095D01*
X140423058Y-106175014D01*
X140468287Y-106284207D01*
X140533950Y-106382478D01*
X140617522Y-106466050D01*
X140715793Y-106531713D01*
X140824986Y-106576942D01*
X140940905Y-106600000D01*
X141059095Y-106600000D01*
X141175014Y-106576942D01*
X141284207Y-106531713D01*
X141311014Y-106513801D01*
X141691486Y-106513801D01*
X141785980Y-106778640D01*
X141932026Y-107004185D01*
X142119267Y-107196904D01*
X142340508Y-107349391D01*
X142587246Y-107455786D01*
X142850000Y-107512000D01*
X143846000Y-107512000D01*
X143846000Y-106304000D01*
X144154000Y-106304000D01*
X144154000Y-107512000D01*
X145150000Y-107512000D01*
X145412754Y-107455786D01*
X145659492Y-107349391D01*
X145880733Y-107196904D01*
X146067974Y-107004185D01*
X146214020Y-106778640D01*
X146308514Y-106513801D01*
X146196160Y-106304000D01*
X144154000Y-106304000D01*
X143846000Y-106304000D01*
X141803840Y-106304000D01*
X141691486Y-106513801D01*
X141311014Y-106513801D01*
X141382478Y-106466050D01*
X141466050Y-106382478D01*
X141531713Y-106284207D01*
X141576942Y-106175014D01*
X141600000Y-106059095D01*
X141600000Y-105940905D01*
X141576942Y-105824986D01*
X141531713Y-105715793D01*
X141466050Y-105617522D01*
X141382478Y-105533950D01*
X141284207Y-105468287D01*
X141175014Y-105423058D01*
X141059095Y-105400000D01*
X140940905Y-105400000D01*
X140824986Y-105423058D01*
X140715793Y-105468287D01*
X140617522Y-105533950D01*
X140533950Y-105617522D01*
X140468287Y-105715793D01*
X140423058Y-105824986D01*
X140400000Y-105940905D01*
X139915403Y-105940905D01*
X139881950Y-105875000D01*
X139929259Y-105781797D01*
X139961592Y-105666478D01*
X139968000Y-105556000D01*
X139816000Y-105404000D01*
X139234000Y-105404000D01*
X138926000Y-105404000D01*
X138906000Y-105404000D01*
X138906000Y-105096000D01*
X138926000Y-105096000D01*
X138926000Y-104484000D01*
X138774000Y-104332000D01*
X138668154Y-104343454D01*
X138554307Y-104380639D01*
X138449902Y-104439319D01*
X138358951Y-104517240D01*
X138284949Y-104611408D01*
X138270641Y-104639597D01*
X138260000Y-104638549D01*
X137980000Y-104638549D01*
X137893877Y-104647031D01*
X137811064Y-104672152D01*
X137734743Y-104712947D01*
X137728988Y-104717670D01*
X137675051Y-104611408D01*
X137601049Y-104517240D01*
X137510098Y-104439319D01*
X137405693Y-104380639D01*
X137291846Y-104343454D01*
X137186000Y-104332000D01*
X137034000Y-104484000D01*
X137034000Y-105096000D01*
X137054000Y-105096000D01*
X137054000Y-105404000D01*
X137034000Y-105404000D01*
X137034000Y-105424000D01*
X136726000Y-105424000D01*
X136726000Y-105404000D01*
X136706000Y-105404000D01*
X136706000Y-105096000D01*
X136726000Y-105096000D01*
X136726000Y-104484000D01*
X136574000Y-104332000D01*
X136468154Y-104343454D01*
X136354307Y-104380639D01*
X136249902Y-104439319D01*
X136199844Y-104482205D01*
X136188948Y-104473263D01*
X136040685Y-104325000D01*
X139484106Y-104325000D01*
X139533689Y-104329861D01*
G37*
G04 #@! TD.AperFunction*
D23*
X130234000Y-116126000D02*
X130846000Y-116126000D01*
X130846000Y-116106000D01*
X131154000Y-116106000D01*
X131154000Y-116126000D01*
X131766000Y-116126000D01*
X131768614Y-116123386D01*
X131848771Y-116139330D01*
X131966961Y-116139330D01*
X132033996Y-116125996D01*
X132034000Y-116126000D01*
X132646000Y-116126000D01*
X132646000Y-116106000D01*
X132954000Y-116106000D01*
X132954000Y-116126000D01*
X132971988Y-116126000D01*
X132971988Y-116434000D01*
X132954000Y-116434000D01*
X132954000Y-117016000D01*
X132971988Y-117033988D01*
X132971988Y-118133323D01*
X132970150Y-118151987D01*
X132977486Y-118226479D01*
X132999215Y-118298109D01*
X133003433Y-118306000D01*
X133034501Y-118364125D01*
X133081988Y-118421987D01*
X133096482Y-118433883D01*
X133411494Y-118748895D01*
X133405151Y-118756623D01*
X133382478Y-118733950D01*
X133284207Y-118668287D01*
X133175014Y-118623058D01*
X133059095Y-118600000D01*
X132940905Y-118600000D01*
X132824986Y-118623058D01*
X132715793Y-118668287D01*
X132617522Y-118733950D01*
X132533950Y-118817522D01*
X132468287Y-118915793D01*
X132423058Y-119024986D01*
X132400000Y-119140905D01*
X132400000Y-119259095D01*
X132423058Y-119375014D01*
X132468287Y-119484207D01*
X132533950Y-119582478D01*
X132617522Y-119666050D01*
X132630917Y-119675000D01*
X124504833Y-119675000D01*
X123926668Y-119258699D01*
X124044000Y-119258000D01*
X124196000Y-119106000D01*
X124196000Y-118154000D01*
X124504000Y-118154000D01*
X124504000Y-119106000D01*
X124656000Y-119258000D01*
X125150000Y-119260942D01*
X125269189Y-119249203D01*
X125383797Y-119214437D01*
X125489421Y-119157980D01*
X125582001Y-119082001D01*
X125657980Y-118989421D01*
X125714437Y-118883797D01*
X125749203Y-118769189D01*
X125760942Y-118650000D01*
X125758000Y-118306000D01*
X125606000Y-118154000D01*
X124504000Y-118154000D01*
X124196000Y-118154000D01*
X123094000Y-118154000D01*
X122942000Y-118306000D01*
X122941176Y-118402336D01*
X122738039Y-118211207D01*
X122159286Y-117502714D01*
X122246000Y-117416000D01*
X122246000Y-116834000D01*
X122226000Y-116834000D01*
X122226000Y-116526000D01*
X122246000Y-116526000D01*
X122246000Y-116506000D01*
X122554000Y-116506000D01*
X122554000Y-116526000D01*
X122574000Y-116526000D01*
X122574000Y-116834000D01*
X122554000Y-116834000D01*
X122554000Y-117416000D01*
X122706000Y-117568000D01*
X122816478Y-117561592D01*
X122931797Y-117529259D01*
X122940553Y-117524815D01*
X122942000Y-117694000D01*
X123094000Y-117846000D01*
X124196000Y-117846000D01*
X124196000Y-117826000D01*
X124504000Y-117826000D01*
X124504000Y-117846000D01*
X125606000Y-117846000D01*
X125757300Y-117694700D01*
X125944495Y-117881896D01*
X125944499Y-117881899D01*
X126318104Y-118255505D01*
X126330000Y-118270000D01*
X126387862Y-118317487D01*
X126453877Y-118352772D01*
X126503777Y-118367909D01*
X126525506Y-118374501D01*
X126533169Y-118375256D01*
X126548549Y-118376770D01*
X126548549Y-118650000D01*
X126554341Y-118708810D01*
X126571496Y-118765360D01*
X126599353Y-118817477D01*
X126636842Y-118863158D01*
X126682523Y-118900647D01*
X126734640Y-118928504D01*
X126791190Y-118945659D01*
X126850000Y-118951451D01*
X128450000Y-118951451D01*
X128508810Y-118945659D01*
X128565360Y-118928504D01*
X128617477Y-118900647D01*
X128663158Y-118863158D01*
X128700647Y-118817477D01*
X128701672Y-118815559D01*
X128733877Y-118832772D01*
X128805507Y-118854501D01*
X128860070Y-118859875D01*
X128862947Y-118865257D01*
X128917847Y-118932153D01*
X128984743Y-118987053D01*
X129061064Y-119027848D01*
X129143877Y-119052969D01*
X129230000Y-119061451D01*
X129570000Y-119061451D01*
X129656123Y-119052969D01*
X129738936Y-119027848D01*
X129815257Y-118987053D01*
X129871488Y-118940905D01*
X130600000Y-118940905D01*
X130600000Y-119059095D01*
X130623058Y-119175014D01*
X130668287Y-119284207D01*
X130733950Y-119382478D01*
X130817522Y-119466050D01*
X130915793Y-119531713D01*
X131024986Y-119576942D01*
X131140905Y-119600000D01*
X131259095Y-119600000D01*
X131375014Y-119576942D01*
X131484207Y-119531713D01*
X131582478Y-119466050D01*
X131666050Y-119382478D01*
X131731713Y-119284207D01*
X131776942Y-119175014D01*
X131800000Y-119059095D01*
X131800000Y-118940905D01*
X131776942Y-118824986D01*
X131731713Y-118715793D01*
X131666050Y-118617522D01*
X131582478Y-118533950D01*
X131484207Y-118468287D01*
X131375014Y-118423058D01*
X131259095Y-118400000D01*
X131140905Y-118400000D01*
X131024986Y-118423058D01*
X130915793Y-118468287D01*
X130817522Y-118533950D01*
X130733950Y-118617522D01*
X130668287Y-118715793D01*
X130623058Y-118824986D01*
X130600000Y-118940905D01*
X129871488Y-118940905D01*
X129882153Y-118932153D01*
X129937053Y-118865257D01*
X129977848Y-118788936D01*
X130002969Y-118706123D01*
X130011451Y-118620000D01*
X130011451Y-118340000D01*
X130010403Y-118329359D01*
X130038592Y-118315051D01*
X130132760Y-118241049D01*
X130210681Y-118150098D01*
X130269361Y-118045693D01*
X130306546Y-117931846D01*
X130318000Y-117826000D01*
X130166000Y-117674000D01*
X129554000Y-117674000D01*
X129554000Y-117694000D01*
X129246000Y-117694000D01*
X129246000Y-117674000D01*
X129226000Y-117674000D01*
X129226000Y-117366000D01*
X129246000Y-117366000D01*
X129246000Y-116434000D01*
X129554000Y-116434000D01*
X129554000Y-117366000D01*
X130166000Y-117366000D01*
X130318000Y-117214000D01*
X130306546Y-117108154D01*
X130273056Y-117005619D01*
X130361408Y-117075051D01*
X130468203Y-117129259D01*
X130583522Y-117161592D01*
X130694000Y-117168000D01*
X130846000Y-117016000D01*
X130846000Y-116434000D01*
X131154000Y-116434000D01*
X131154000Y-117016000D01*
X131306000Y-117168000D01*
X131416478Y-117161592D01*
X131531797Y-117129259D01*
X131638592Y-117075051D01*
X131732760Y-117001049D01*
X131810681Y-116910098D01*
X131869361Y-116805693D01*
X131900000Y-116711887D01*
X131930639Y-116805693D01*
X131989319Y-116910098D01*
X132067240Y-117001049D01*
X132161408Y-117075051D01*
X132268203Y-117129259D01*
X132383522Y-117161592D01*
X132494000Y-117168000D01*
X132646000Y-117016000D01*
X132646000Y-116434000D01*
X132034000Y-116434000D01*
X131900000Y-116568000D01*
X131766000Y-116434000D01*
X131154000Y-116434000D01*
X130846000Y-116434000D01*
X130234000Y-116434000D01*
X130200000Y-116468000D01*
X130166000Y-116434000D01*
X129554000Y-116434000D01*
X129246000Y-116434000D01*
X129226000Y-116434000D01*
X129226000Y-116126000D01*
X129246000Y-116126000D01*
X129246000Y-116106000D01*
X129554000Y-116106000D01*
X129554000Y-116126000D01*
X130166000Y-116126000D01*
X130200000Y-116092000D01*
X130234000Y-116126000D01*
G04 #@! TA.AperFunction,Conductor*
D25*
G36*
X130234000Y-116126000D02*
G01*
X130846000Y-116126000D01*
X130846000Y-116106000D01*
X131154000Y-116106000D01*
X131154000Y-116126000D01*
X131766000Y-116126000D01*
X131768614Y-116123386D01*
X131848771Y-116139330D01*
X131966961Y-116139330D01*
X132033996Y-116125996D01*
X132034000Y-116126000D01*
X132646000Y-116126000D01*
X132646000Y-116106000D01*
X132954000Y-116106000D01*
X132954000Y-116126000D01*
X132971988Y-116126000D01*
X132971988Y-116434000D01*
X132954000Y-116434000D01*
X132954000Y-117016000D01*
X132971988Y-117033988D01*
X132971988Y-118133323D01*
X132970150Y-118151987D01*
X132977486Y-118226479D01*
X132999215Y-118298109D01*
X133003433Y-118306000D01*
X133034501Y-118364125D01*
X133081988Y-118421987D01*
X133096482Y-118433883D01*
X133411494Y-118748895D01*
X133405151Y-118756623D01*
X133382478Y-118733950D01*
X133284207Y-118668287D01*
X133175014Y-118623058D01*
X133059095Y-118600000D01*
X132940905Y-118600000D01*
X132824986Y-118623058D01*
X132715793Y-118668287D01*
X132617522Y-118733950D01*
X132533950Y-118817522D01*
X132468287Y-118915793D01*
X132423058Y-119024986D01*
X132400000Y-119140905D01*
X132400000Y-119259095D01*
X132423058Y-119375014D01*
X132468287Y-119484207D01*
X132533950Y-119582478D01*
X132617522Y-119666050D01*
X132630917Y-119675000D01*
X124504833Y-119675000D01*
X123926668Y-119258699D01*
X124044000Y-119258000D01*
X124196000Y-119106000D01*
X124196000Y-118154000D01*
X124504000Y-118154000D01*
X124504000Y-119106000D01*
X124656000Y-119258000D01*
X125150000Y-119260942D01*
X125269189Y-119249203D01*
X125383797Y-119214437D01*
X125489421Y-119157980D01*
X125582001Y-119082001D01*
X125657980Y-118989421D01*
X125714437Y-118883797D01*
X125749203Y-118769189D01*
X125760942Y-118650000D01*
X125758000Y-118306000D01*
X125606000Y-118154000D01*
X124504000Y-118154000D01*
X124196000Y-118154000D01*
X123094000Y-118154000D01*
X122942000Y-118306000D01*
X122941176Y-118402336D01*
X122738039Y-118211207D01*
X122159286Y-117502714D01*
X122246000Y-117416000D01*
X122246000Y-116834000D01*
X122226000Y-116834000D01*
X122226000Y-116526000D01*
X122246000Y-116526000D01*
X122246000Y-116506000D01*
X122554000Y-116506000D01*
X122554000Y-116526000D01*
X122574000Y-116526000D01*
X122574000Y-116834000D01*
X122554000Y-116834000D01*
X122554000Y-117416000D01*
X122706000Y-117568000D01*
X122816478Y-117561592D01*
X122931797Y-117529259D01*
X122940553Y-117524815D01*
X122942000Y-117694000D01*
X123094000Y-117846000D01*
X124196000Y-117846000D01*
X124196000Y-117826000D01*
X124504000Y-117826000D01*
X124504000Y-117846000D01*
X125606000Y-117846000D01*
X125757300Y-117694700D01*
X125944495Y-117881896D01*
X125944499Y-117881899D01*
X126318104Y-118255505D01*
X126330000Y-118270000D01*
X126387862Y-118317487D01*
X126453877Y-118352772D01*
X126503777Y-118367909D01*
X126525506Y-118374501D01*
X126533169Y-118375256D01*
X126548549Y-118376770D01*
X126548549Y-118650000D01*
X126554341Y-118708810D01*
X126571496Y-118765360D01*
X126599353Y-118817477D01*
X126636842Y-118863158D01*
X126682523Y-118900647D01*
X126734640Y-118928504D01*
X126791190Y-118945659D01*
X126850000Y-118951451D01*
X128450000Y-118951451D01*
X128508810Y-118945659D01*
X128565360Y-118928504D01*
X128617477Y-118900647D01*
X128663158Y-118863158D01*
X128700647Y-118817477D01*
X128701672Y-118815559D01*
X128733877Y-118832772D01*
X128805507Y-118854501D01*
X128860070Y-118859875D01*
X128862947Y-118865257D01*
X128917847Y-118932153D01*
X128984743Y-118987053D01*
X129061064Y-119027848D01*
X129143877Y-119052969D01*
X129230000Y-119061451D01*
X129570000Y-119061451D01*
X129656123Y-119052969D01*
X129738936Y-119027848D01*
X129815257Y-118987053D01*
X129871488Y-118940905D01*
X130600000Y-118940905D01*
X130600000Y-119059095D01*
X130623058Y-119175014D01*
X130668287Y-119284207D01*
X130733950Y-119382478D01*
X130817522Y-119466050D01*
X130915793Y-119531713D01*
X131024986Y-119576942D01*
X131140905Y-119600000D01*
X131259095Y-119600000D01*
X131375014Y-119576942D01*
X131484207Y-119531713D01*
X131582478Y-119466050D01*
X131666050Y-119382478D01*
X131731713Y-119284207D01*
X131776942Y-119175014D01*
X131800000Y-119059095D01*
X131800000Y-118940905D01*
X131776942Y-118824986D01*
X131731713Y-118715793D01*
X131666050Y-118617522D01*
X131582478Y-118533950D01*
X131484207Y-118468287D01*
X131375014Y-118423058D01*
X131259095Y-118400000D01*
X131140905Y-118400000D01*
X131024986Y-118423058D01*
X130915793Y-118468287D01*
X130817522Y-118533950D01*
X130733950Y-118617522D01*
X130668287Y-118715793D01*
X130623058Y-118824986D01*
X130600000Y-118940905D01*
X129871488Y-118940905D01*
X129882153Y-118932153D01*
X129937053Y-118865257D01*
X129977848Y-118788936D01*
X130002969Y-118706123D01*
X130011451Y-118620000D01*
X130011451Y-118340000D01*
X130010403Y-118329359D01*
X130038592Y-118315051D01*
X130132760Y-118241049D01*
X130210681Y-118150098D01*
X130269361Y-118045693D01*
X130306546Y-117931846D01*
X130318000Y-117826000D01*
X130166000Y-117674000D01*
X129554000Y-117674000D01*
X129554000Y-117694000D01*
X129246000Y-117694000D01*
X129246000Y-117674000D01*
X129226000Y-117674000D01*
X129226000Y-117366000D01*
X129246000Y-117366000D01*
X129246000Y-116434000D01*
X129554000Y-116434000D01*
X129554000Y-117366000D01*
X130166000Y-117366000D01*
X130318000Y-117214000D01*
X130306546Y-117108154D01*
X130273056Y-117005619D01*
X130361408Y-117075051D01*
X130468203Y-117129259D01*
X130583522Y-117161592D01*
X130694000Y-117168000D01*
X130846000Y-117016000D01*
X130846000Y-116434000D01*
X131154000Y-116434000D01*
X131154000Y-117016000D01*
X131306000Y-117168000D01*
X131416478Y-117161592D01*
X131531797Y-117129259D01*
X131638592Y-117075051D01*
X131732760Y-117001049D01*
X131810681Y-116910098D01*
X131869361Y-116805693D01*
X131900000Y-116711887D01*
X131930639Y-116805693D01*
X131989319Y-116910098D01*
X132067240Y-117001049D01*
X132161408Y-117075051D01*
X132268203Y-117129259D01*
X132383522Y-117161592D01*
X132494000Y-117168000D01*
X132646000Y-117016000D01*
X132646000Y-116434000D01*
X132034000Y-116434000D01*
X131900000Y-116568000D01*
X131766000Y-116434000D01*
X131154000Y-116434000D01*
X130846000Y-116434000D01*
X130234000Y-116434000D01*
X130200000Y-116468000D01*
X130166000Y-116434000D01*
X129554000Y-116434000D01*
X129246000Y-116434000D01*
X129226000Y-116434000D01*
X129226000Y-116126000D01*
X129246000Y-116126000D01*
X129246000Y-116106000D01*
X129554000Y-116106000D01*
X129554000Y-116126000D01*
X130166000Y-116126000D01*
X130200000Y-116092000D01*
X130234000Y-116126000D01*
G37*
G04 #@! TD.AperFunction*
D23*
X134698549Y-117594000D02*
X134600000Y-117594000D01*
X134600000Y-117570000D01*
X134500000Y-117570000D01*
X134500000Y-117270000D01*
X134600000Y-117270000D01*
X134600000Y-117246000D01*
X134698549Y-117246000D01*
X134698549Y-117594000D01*
G04 #@! TA.AperFunction,Conductor*
D25*
G36*
X134698549Y-117594000D02*
G01*
X134600000Y-117594000D01*
X134600000Y-117570000D01*
X134500000Y-117570000D01*
X134500000Y-117270000D01*
X134600000Y-117270000D01*
X134600000Y-117246000D01*
X134698549Y-117246000D01*
X134698549Y-117594000D01*
G37*
G04 #@! TD.AperFunction*
D23*
X120352364Y-112848870D02*
X120369472Y-112871818D01*
X120369490Y-112871841D01*
X120373544Y-112876964D01*
X120397544Y-112906964D01*
X120401767Y-112912184D01*
X120401785Y-112912206D01*
X120419739Y-112933165D01*
X120445739Y-112962165D01*
X120451706Y-112968724D01*
X120451718Y-112968737D01*
X120460857Y-112978424D01*
X120487857Y-113006424D01*
X120506854Y-113025280D01*
X120506874Y-113025299D01*
X120511944Y-113030060D01*
X120539944Y-113056060D01*
X120546961Y-113062476D01*
X120546981Y-113062494D01*
X120564564Y-113077723D01*
X120594564Y-113102723D01*
X120604155Y-113110307D01*
X120604036Y-113110456D01*
X120634036Y-113134456D01*
X120646443Y-113144122D01*
X120646472Y-113144144D01*
X120669601Y-113160854D01*
X120701601Y-113182854D01*
X120708827Y-113187746D01*
X120708842Y-113187756D01*
X120719732Y-113194850D01*
X120752732Y-113215850D01*
X120771767Y-113227480D01*
X120771796Y-113227497D01*
X120788210Y-113236782D01*
X120821210Y-113254782D01*
X120821356Y-113254514D01*
X120834358Y-113261748D01*
X120869358Y-113279748D01*
X120889467Y-113289628D01*
X120889499Y-113289643D01*
X120908141Y-113298004D01*
X120943141Y-113313004D01*
X120962431Y-113320750D01*
X120962385Y-113320867D01*
X120998385Y-113334867D01*
X121007630Y-113338376D01*
X121007657Y-113338386D01*
X121031368Y-113346618D01*
X121068368Y-113358618D01*
X121085782Y-113363980D01*
X121085806Y-113363987D01*
X121097470Y-113367264D01*
X121134470Y-113377264D01*
X121136453Y-113377797D01*
X121136468Y-113377801D01*
X121153083Y-113381983D01*
X121191083Y-113390983D01*
X121207281Y-113394587D01*
X121207305Y-113394592D01*
X121221229Y-113397325D01*
X121259229Y-113404325D01*
X121292219Y-113409474D01*
X121292258Y-113409479D01*
X121305992Y-113411082D01*
X121343992Y-113415082D01*
X121344026Y-113414762D01*
X121350927Y-113415773D01*
X121382927Y-113418773D01*
X121413979Y-113420888D01*
X121414026Y-113420890D01*
X121440000Y-113421442D01*
X121510013Y-113421442D01*
X121525673Y-113421241D01*
X121564673Y-113420241D01*
X121575551Y-113419865D01*
X121575574Y-113419864D01*
X121592564Y-113418888D01*
X121634564Y-113415888D01*
X121660406Y-113413490D01*
X121660441Y-113413486D01*
X121677471Y-113411297D01*
X121719471Y-113405297D01*
X121729594Y-113403764D01*
X121729619Y-113403760D01*
X121750098Y-113400125D01*
X121791098Y-113392125D01*
X121805020Y-113388873D01*
X121805097Y-113389222D01*
X121846097Y-113380222D01*
X121859504Y-113377121D01*
X121859541Y-113377112D01*
X121890697Y-113368655D01*
X121930697Y-113356655D01*
X121948341Y-113351069D01*
X121948362Y-113351062D01*
X121956990Y-113348115D01*
X121996990Y-113334115D01*
X122002103Y-113332300D01*
X122002128Y-113332291D01*
X122027077Y-113322687D01*
X122066077Y-113306687D01*
X122088742Y-113296849D01*
X122088766Y-113296838D01*
X122095750Y-113293583D01*
X122133750Y-113275583D01*
X122151999Y-113266564D01*
X122152032Y-113266547D01*
X122173811Y-113254763D01*
X122193824Y-113243404D01*
X122195341Y-113258810D01*
X122212496Y-113315360D01*
X122240353Y-113367477D01*
X122277842Y-113413158D01*
X122323523Y-113450647D01*
X122359401Y-113469824D01*
X122359401Y-113641939D01*
X122359400Y-114203199D01*
X122355564Y-114207036D01*
X122282478Y-114133950D01*
X122184207Y-114068287D01*
X122075014Y-114023058D01*
X121959095Y-114000000D01*
X121840905Y-114000000D01*
X121724986Y-114023058D01*
X121615793Y-114068287D01*
X121517522Y-114133950D01*
X121433950Y-114217522D01*
X121368287Y-114315793D01*
X121323058Y-114424986D01*
X121300000Y-114540905D01*
X121300000Y-114659095D01*
X121323058Y-114775014D01*
X121368287Y-114884207D01*
X121433950Y-114982478D01*
X121517522Y-115066050D01*
X121615793Y-115131713D01*
X121724986Y-115176942D01*
X121840905Y-115200000D01*
X121959095Y-115200000D01*
X122038523Y-115184201D01*
X121984743Y-115212947D01*
X121917847Y-115267847D01*
X121862947Y-115334743D01*
X121822152Y-115411064D01*
X121797031Y-115493877D01*
X121788549Y-115580000D01*
X121788549Y-115860000D01*
X121789597Y-115870641D01*
X121761408Y-115884949D01*
X121667240Y-115958951D01*
X121589319Y-116049902D01*
X121530639Y-116154307D01*
X121493454Y-116268154D01*
X121482000Y-116374000D01*
X121633998Y-116525998D01*
X121512551Y-116525998D01*
X121357459Y-116275319D01*
X120868226Y-115188990D01*
X120524969Y-114048084D01*
X120333566Y-112872134D01*
X120331983Y-112820151D01*
X120352364Y-112848870D01*
G04 #@! TA.AperFunction,Conductor*
D25*
G36*
X120352364Y-112848870D02*
G01*
X120369472Y-112871818D01*
X120369490Y-112871841D01*
X120373544Y-112876964D01*
X120397544Y-112906964D01*
X120401767Y-112912184D01*
X120401785Y-112912206D01*
X120419739Y-112933165D01*
X120445739Y-112962165D01*
X120451706Y-112968724D01*
X120451718Y-112968737D01*
X120460857Y-112978424D01*
X120487857Y-113006424D01*
X120506854Y-113025280D01*
X120506874Y-113025299D01*
X120511944Y-113030060D01*
X120539944Y-113056060D01*
X120546961Y-113062476D01*
X120546981Y-113062494D01*
X120564564Y-113077723D01*
X120594564Y-113102723D01*
X120604155Y-113110307D01*
X120604036Y-113110456D01*
X120634036Y-113134456D01*
X120646443Y-113144122D01*
X120646472Y-113144144D01*
X120669601Y-113160854D01*
X120701601Y-113182854D01*
X120708827Y-113187746D01*
X120708842Y-113187756D01*
X120719732Y-113194850D01*
X120752732Y-113215850D01*
X120771767Y-113227480D01*
X120771796Y-113227497D01*
X120788210Y-113236782D01*
X120821210Y-113254782D01*
X120821356Y-113254514D01*
X120834358Y-113261748D01*
X120869358Y-113279748D01*
X120889467Y-113289628D01*
X120889499Y-113289643D01*
X120908141Y-113298004D01*
X120943141Y-113313004D01*
X120962431Y-113320750D01*
X120962385Y-113320867D01*
X120998385Y-113334867D01*
X121007630Y-113338376D01*
X121007657Y-113338386D01*
X121031368Y-113346618D01*
X121068368Y-113358618D01*
X121085782Y-113363980D01*
X121085806Y-113363987D01*
X121097470Y-113367264D01*
X121134470Y-113377264D01*
X121136453Y-113377797D01*
X121136468Y-113377801D01*
X121153083Y-113381983D01*
X121191083Y-113390983D01*
X121207281Y-113394587D01*
X121207305Y-113394592D01*
X121221229Y-113397325D01*
X121259229Y-113404325D01*
X121292219Y-113409474D01*
X121292258Y-113409479D01*
X121305992Y-113411082D01*
X121343992Y-113415082D01*
X121344026Y-113414762D01*
X121350927Y-113415773D01*
X121382927Y-113418773D01*
X121413979Y-113420888D01*
X121414026Y-113420890D01*
X121440000Y-113421442D01*
X121510013Y-113421442D01*
X121525673Y-113421241D01*
X121564673Y-113420241D01*
X121575551Y-113419865D01*
X121575574Y-113419864D01*
X121592564Y-113418888D01*
X121634564Y-113415888D01*
X121660406Y-113413490D01*
X121660441Y-113413486D01*
X121677471Y-113411297D01*
X121719471Y-113405297D01*
X121729594Y-113403764D01*
X121729619Y-113403760D01*
X121750098Y-113400125D01*
X121791098Y-113392125D01*
X121805020Y-113388873D01*
X121805097Y-113389222D01*
X121846097Y-113380222D01*
X121859504Y-113377121D01*
X121859541Y-113377112D01*
X121890697Y-113368655D01*
X121930697Y-113356655D01*
X121948341Y-113351069D01*
X121948362Y-113351062D01*
X121956990Y-113348115D01*
X121996990Y-113334115D01*
X122002103Y-113332300D01*
X122002128Y-113332291D01*
X122027077Y-113322687D01*
X122066077Y-113306687D01*
X122088742Y-113296849D01*
X122088766Y-113296838D01*
X122095750Y-113293583D01*
X122133750Y-113275583D01*
X122151999Y-113266564D01*
X122152032Y-113266547D01*
X122173811Y-113254763D01*
X122193824Y-113243404D01*
X122195341Y-113258810D01*
X122212496Y-113315360D01*
X122240353Y-113367477D01*
X122277842Y-113413158D01*
X122323523Y-113450647D01*
X122359401Y-113469824D01*
X122359401Y-113641939D01*
X122359400Y-114203199D01*
X122355564Y-114207036D01*
X122282478Y-114133950D01*
X122184207Y-114068287D01*
X122075014Y-114023058D01*
X121959095Y-114000000D01*
X121840905Y-114000000D01*
X121724986Y-114023058D01*
X121615793Y-114068287D01*
X121517522Y-114133950D01*
X121433950Y-114217522D01*
X121368287Y-114315793D01*
X121323058Y-114424986D01*
X121300000Y-114540905D01*
X121300000Y-114659095D01*
X121323058Y-114775014D01*
X121368287Y-114884207D01*
X121433950Y-114982478D01*
X121517522Y-115066050D01*
X121615793Y-115131713D01*
X121724986Y-115176942D01*
X121840905Y-115200000D01*
X121959095Y-115200000D01*
X122038523Y-115184201D01*
X121984743Y-115212947D01*
X121917847Y-115267847D01*
X121862947Y-115334743D01*
X121822152Y-115411064D01*
X121797031Y-115493877D01*
X121788549Y-115580000D01*
X121788549Y-115860000D01*
X121789597Y-115870641D01*
X121761408Y-115884949D01*
X121667240Y-115958951D01*
X121589319Y-116049902D01*
X121530639Y-116154307D01*
X121493454Y-116268154D01*
X121482000Y-116374000D01*
X121633998Y-116525998D01*
X121512551Y-116525998D01*
X121357459Y-116275319D01*
X120868226Y-115188990D01*
X120524969Y-114048084D01*
X120333566Y-112872134D01*
X120331983Y-112820151D01*
X120352364Y-112848870D01*
G37*
G04 #@! TD.AperFunction*
D23*
X126386411Y-112947277D02*
X126441986Y-112976982D01*
X126502288Y-112995274D01*
X126565000Y-113001451D01*
X127365000Y-113001451D01*
X127400822Y-112997923D01*
X127398549Y-113021000D01*
X127398549Y-113849000D01*
X127404457Y-113908981D01*
X127421952Y-113966656D01*
X127450364Y-114019811D01*
X127488599Y-114066401D01*
X127535189Y-114104636D01*
X127588344Y-114133048D01*
X127646019Y-114150543D01*
X127706000Y-114156451D01*
X127894000Y-114156451D01*
X127953981Y-114150543D01*
X128000000Y-114136584D01*
X128046019Y-114150543D01*
X128106000Y-114156451D01*
X128294000Y-114156451D01*
X128353981Y-114150543D01*
X128400000Y-114136584D01*
X128446019Y-114150543D01*
X128506000Y-114156451D01*
X128694000Y-114156451D01*
X128753981Y-114150543D01*
X128800000Y-114136584D01*
X128846019Y-114150543D01*
X128906000Y-114156451D01*
X129020001Y-114156451D01*
X129020000Y-114794101D01*
X128984743Y-114812947D01*
X128917847Y-114867847D01*
X128878826Y-114915394D01*
X128789421Y-114842020D01*
X128683797Y-114785563D01*
X128569189Y-114750797D01*
X128450000Y-114739058D01*
X127956000Y-114742000D01*
X127804000Y-114894000D01*
X127804000Y-115846000D01*
X127824000Y-115846000D01*
X127824000Y-116154000D01*
X127804000Y-116154000D01*
X127804000Y-116174000D01*
X127496000Y-116174000D01*
X127496000Y-116154000D01*
X127476000Y-116154000D01*
X127476000Y-115846000D01*
X127496000Y-115846000D01*
X127496000Y-114894000D01*
X127344000Y-114742000D01*
X126850000Y-114739058D01*
X126730811Y-114750797D01*
X126616203Y-114785563D01*
X126510579Y-114842020D01*
X126417999Y-114917999D01*
X126380000Y-114964301D01*
X126380000Y-112942016D01*
X126386411Y-112947277D01*
G04 #@! TA.AperFunction,Conductor*
D25*
G36*
X126386411Y-112947277D02*
G01*
X126441986Y-112976982D01*
X126502288Y-112995274D01*
X126565000Y-113001451D01*
X127365000Y-113001451D01*
X127400822Y-112997923D01*
X127398549Y-113021000D01*
X127398549Y-113849000D01*
X127404457Y-113908981D01*
X127421952Y-113966656D01*
X127450364Y-114019811D01*
X127488599Y-114066401D01*
X127535189Y-114104636D01*
X127588344Y-114133048D01*
X127646019Y-114150543D01*
X127706000Y-114156451D01*
X127894000Y-114156451D01*
X127953981Y-114150543D01*
X128000000Y-114136584D01*
X128046019Y-114150543D01*
X128106000Y-114156451D01*
X128294000Y-114156451D01*
X128353981Y-114150543D01*
X128400000Y-114136584D01*
X128446019Y-114150543D01*
X128506000Y-114156451D01*
X128694000Y-114156451D01*
X128753981Y-114150543D01*
X128800000Y-114136584D01*
X128846019Y-114150543D01*
X128906000Y-114156451D01*
X129020001Y-114156451D01*
X129020000Y-114794101D01*
X128984743Y-114812947D01*
X128917847Y-114867847D01*
X128878826Y-114915394D01*
X128789421Y-114842020D01*
X128683797Y-114785563D01*
X128569189Y-114750797D01*
X128450000Y-114739058D01*
X127956000Y-114742000D01*
X127804000Y-114894000D01*
X127804000Y-115846000D01*
X127824000Y-115846000D01*
X127824000Y-116154000D01*
X127804000Y-116154000D01*
X127804000Y-116174000D01*
X127496000Y-116174000D01*
X127496000Y-116154000D01*
X127476000Y-116154000D01*
X127476000Y-115846000D01*
X127496000Y-115846000D01*
X127496000Y-114894000D01*
X127344000Y-114742000D01*
X126850000Y-114739058D01*
X126730811Y-114750797D01*
X126616203Y-114785563D01*
X126510579Y-114842020D01*
X126417999Y-114917999D01*
X126380000Y-114964301D01*
X126380000Y-112942016D01*
X126386411Y-112947277D01*
G37*
G04 #@! TD.AperFunction*
D23*
X132846019Y-107280543D02*
X132906000Y-107286451D01*
X133094000Y-107286451D01*
X133117077Y-107284178D01*
X133113549Y-107320000D01*
X133113549Y-107480000D01*
X133119726Y-107542712D01*
X133137104Y-107600000D01*
X133119726Y-107657288D01*
X133113549Y-107720000D01*
X133113549Y-107880000D01*
X133119726Y-107942712D01*
X133137104Y-108000000D01*
X133119726Y-108057288D01*
X133113549Y-108120000D01*
X133113549Y-108280000D01*
X133119726Y-108342712D01*
X133137104Y-108400000D01*
X133119726Y-108457288D01*
X133113549Y-108520000D01*
X133113549Y-108680000D01*
X133119726Y-108742712D01*
X133137104Y-108800000D01*
X133119726Y-108857288D01*
X133113549Y-108920000D01*
X133113549Y-109080000D01*
X133119726Y-109142712D01*
X133137104Y-109200000D01*
X133119726Y-109257288D01*
X133113549Y-109320000D01*
X133113549Y-109480000D01*
X133119726Y-109542712D01*
X133137104Y-109600000D01*
X133119726Y-109657288D01*
X133113549Y-109720000D01*
X133113549Y-109880000D01*
X133119726Y-109942712D01*
X133137104Y-110000000D01*
X133119726Y-110057288D01*
X133113549Y-110120000D01*
X133113549Y-110280000D01*
X133119726Y-110342712D01*
X133137104Y-110400000D01*
X133119726Y-110457288D01*
X133113549Y-110520000D01*
X133113549Y-110680000D01*
X133119726Y-110742712D01*
X133137104Y-110800000D01*
X133119726Y-110857288D01*
X133113549Y-110920000D01*
X133113549Y-111080000D01*
X133119726Y-111142712D01*
X133137104Y-111200000D01*
X133119726Y-111257288D01*
X133113549Y-111320000D01*
X133113549Y-111480000D01*
X133119726Y-111542712D01*
X133137104Y-111600000D01*
X133119726Y-111657288D01*
X133113549Y-111720000D01*
X133113549Y-111880000D01*
X133119726Y-111942712D01*
X133137104Y-112000000D01*
X133119726Y-112057288D01*
X133113549Y-112120000D01*
X133113549Y-112280000D01*
X133119726Y-112342712D01*
X133137104Y-112400000D01*
X133119726Y-112457288D01*
X133113549Y-112520000D01*
X133113549Y-112680000D01*
X133117077Y-112715822D01*
X133094000Y-112713549D01*
X132906000Y-112713549D01*
X132846019Y-112719457D01*
X132800000Y-112733416D01*
X132753981Y-112719457D01*
X132694000Y-112713549D01*
X132506000Y-112713549D01*
X132446019Y-112719457D01*
X132400000Y-112733416D01*
X132353981Y-112719457D01*
X132294000Y-112713549D01*
X132106000Y-112713549D01*
X132046019Y-112719457D01*
X132000000Y-112733416D01*
X131953981Y-112719457D01*
X131894000Y-112713549D01*
X131706000Y-112713549D01*
X131646019Y-112719457D01*
X131600000Y-112733416D01*
X131553981Y-112719457D01*
X131494000Y-112713549D01*
X131306000Y-112713549D01*
X131246019Y-112719457D01*
X131200000Y-112733416D01*
X131153981Y-112719457D01*
X131094000Y-112713549D01*
X130906000Y-112713549D01*
X130846019Y-112719457D01*
X130800000Y-112733416D01*
X130753981Y-112719457D01*
X130694000Y-112713549D01*
X130506000Y-112713549D01*
X130446019Y-112719457D01*
X130400000Y-112733416D01*
X130353981Y-112719457D01*
X130294000Y-112713549D01*
X130106000Y-112713549D01*
X130046019Y-112719457D01*
X130000000Y-112733416D01*
X129953981Y-112719457D01*
X129894000Y-112713549D01*
X129706000Y-112713549D01*
X129646019Y-112719457D01*
X129600000Y-112733416D01*
X129553981Y-112719457D01*
X129494000Y-112713549D01*
X129306000Y-112713549D01*
X129246019Y-112719457D01*
X129200000Y-112733416D01*
X129153981Y-112719457D01*
X129094000Y-112713549D01*
X128906000Y-112713549D01*
X128846019Y-112719457D01*
X128800000Y-112733416D01*
X128753981Y-112719457D01*
X128694000Y-112713549D01*
X128506000Y-112713549D01*
X128446019Y-112719457D01*
X128400000Y-112733416D01*
X128353981Y-112719457D01*
X128294000Y-112713549D01*
X128106000Y-112713549D01*
X128046019Y-112719457D01*
X128000000Y-112733416D01*
X127953981Y-112719457D01*
X127894000Y-112713549D01*
X127706000Y-112713549D01*
X127682923Y-112715822D01*
X127686451Y-112680000D01*
X127686451Y-112520000D01*
X127680274Y-112457288D01*
X127662896Y-112400000D01*
X127680274Y-112342712D01*
X127686451Y-112280000D01*
X127686451Y-112120000D01*
X127680274Y-112057288D01*
X127662896Y-112000000D01*
X127680274Y-111942712D01*
X127686451Y-111880000D01*
X127686451Y-111720000D01*
X127680274Y-111657288D01*
X127673702Y-111635621D01*
X127705972Y-111619834D01*
X127731990Y-111600000D01*
X128189058Y-111600000D01*
X128200797Y-111719189D01*
X128235563Y-111833797D01*
X128292020Y-111939421D01*
X128367999Y-112032001D01*
X128460579Y-112107980D01*
X128566203Y-112164437D01*
X128680811Y-112199203D01*
X128800000Y-112210942D01*
X130094000Y-112208000D01*
X130246000Y-112056000D01*
X130246000Y-110154000D01*
X130554000Y-110154000D01*
X130554000Y-112056000D01*
X130706000Y-112208000D01*
X132000000Y-112210942D01*
X132119189Y-112199203D01*
X132233797Y-112164437D01*
X132339421Y-112107980D01*
X132432001Y-112032001D01*
X132507980Y-111939421D01*
X132564437Y-111833797D01*
X132599203Y-111719189D01*
X132610942Y-111600000D01*
X132608000Y-110306000D01*
X132456000Y-110154000D01*
X130554000Y-110154000D01*
X130246000Y-110154000D01*
X128344000Y-110154000D01*
X128192000Y-110306000D01*
X128189058Y-111600000D01*
X127731990Y-111600000D01*
X127801219Y-111547227D01*
X127880471Y-111457433D01*
X127940683Y-111353904D01*
X127979539Y-111240617D01*
X127993000Y-111152000D01*
X127841000Y-111000000D01*
X127993000Y-110848000D01*
X127979539Y-110759383D01*
X127940683Y-110646096D01*
X127880471Y-110542567D01*
X127801219Y-110452773D01*
X127705972Y-110380166D01*
X127673702Y-110364379D01*
X127680274Y-110342712D01*
X127686451Y-110280000D01*
X127686451Y-110120000D01*
X127680274Y-110057288D01*
X127662896Y-110000000D01*
X127680274Y-109942712D01*
X127686451Y-109880000D01*
X127686451Y-109720000D01*
X127680274Y-109657288D01*
X127662896Y-109600000D01*
X127680274Y-109542712D01*
X127686451Y-109480000D01*
X127686451Y-109320000D01*
X127680274Y-109257288D01*
X127662896Y-109200000D01*
X127680274Y-109142712D01*
X127686451Y-109080000D01*
X127686451Y-108920000D01*
X127680274Y-108857288D01*
X127662896Y-108800000D01*
X127680274Y-108742712D01*
X127686451Y-108680000D01*
X127686451Y-108520000D01*
X127680274Y-108457288D01*
X127662896Y-108400000D01*
X128189058Y-108400000D01*
X128192000Y-109694000D01*
X128344000Y-109846000D01*
X130246000Y-109846000D01*
X130246000Y-107944000D01*
X130554000Y-107944000D01*
X130554000Y-109846000D01*
X132456000Y-109846000D01*
X132608000Y-109694000D01*
X132610942Y-108400000D01*
X132599203Y-108280811D01*
X132564437Y-108166203D01*
X132507980Y-108060579D01*
X132432001Y-107967999D01*
X132339421Y-107892020D01*
X132233797Y-107835563D01*
X132119189Y-107800797D01*
X132000000Y-107789058D01*
X130706000Y-107792000D01*
X130554000Y-107944000D01*
X130246000Y-107944000D01*
X130094000Y-107792000D01*
X128800000Y-107789058D01*
X128680811Y-107800797D01*
X128566203Y-107835563D01*
X128460579Y-107892020D01*
X128367999Y-107967999D01*
X128292020Y-108060579D01*
X128235563Y-108166203D01*
X128200797Y-108280811D01*
X128189058Y-108400000D01*
X127662896Y-108400000D01*
X127680274Y-108342712D01*
X127686451Y-108280000D01*
X127686451Y-108120000D01*
X127680274Y-108057288D01*
X127662896Y-108000000D01*
X127680274Y-107942712D01*
X127686451Y-107880000D01*
X127686451Y-107720000D01*
X127680274Y-107657288D01*
X127662896Y-107600000D01*
X127680274Y-107542712D01*
X127686451Y-107480000D01*
X127686451Y-107320000D01*
X127682923Y-107284178D01*
X127706000Y-107286451D01*
X127894000Y-107286451D01*
X127953981Y-107280543D01*
X128000000Y-107266584D01*
X128046019Y-107280543D01*
X128106000Y-107286451D01*
X128294000Y-107286451D01*
X128353981Y-107280543D01*
X128400000Y-107266584D01*
X128446019Y-107280543D01*
X128506000Y-107286451D01*
X128694000Y-107286451D01*
X128753981Y-107280543D01*
X128800000Y-107266584D01*
X128846019Y-107280543D01*
X128906000Y-107286451D01*
X129094000Y-107286451D01*
X129153981Y-107280543D01*
X129200000Y-107266584D01*
X129246019Y-107280543D01*
X129306000Y-107286451D01*
X129494000Y-107286451D01*
X129553981Y-107280543D01*
X129600000Y-107266584D01*
X129646019Y-107280543D01*
X129706000Y-107286451D01*
X129894000Y-107286451D01*
X129953981Y-107280543D01*
X130000000Y-107266584D01*
X130046019Y-107280543D01*
X130106000Y-107286451D01*
X130294000Y-107286451D01*
X130353981Y-107280543D01*
X130400000Y-107266584D01*
X130446019Y-107280543D01*
X130506000Y-107286451D01*
X130694000Y-107286451D01*
X130753981Y-107280543D01*
X130800000Y-107266584D01*
X130846019Y-107280543D01*
X130906000Y-107286451D01*
X131094000Y-107286451D01*
X131153981Y-107280543D01*
X131200000Y-107266584D01*
X131246019Y-107280543D01*
X131306000Y-107286451D01*
X131494000Y-107286451D01*
X131553981Y-107280543D01*
X131600000Y-107266584D01*
X131646019Y-107280543D01*
X131706000Y-107286451D01*
X131894000Y-107286451D01*
X131953981Y-107280543D01*
X132000000Y-107266584D01*
X132046019Y-107280543D01*
X132106000Y-107286451D01*
X132294000Y-107286451D01*
X132353981Y-107280543D01*
X132400000Y-107266584D01*
X132446019Y-107280543D01*
X132506000Y-107286451D01*
X132694000Y-107286451D01*
X132753981Y-107280543D01*
X132800000Y-107266584D01*
X132846019Y-107280543D01*
G04 #@! TA.AperFunction,Conductor*
D25*
G36*
X132846019Y-107280543D02*
G01*
X132906000Y-107286451D01*
X133094000Y-107286451D01*
X133117077Y-107284178D01*
X133113549Y-107320000D01*
X133113549Y-107480000D01*
X133119726Y-107542712D01*
X133137104Y-107600000D01*
X133119726Y-107657288D01*
X133113549Y-107720000D01*
X133113549Y-107880000D01*
X133119726Y-107942712D01*
X133137104Y-108000000D01*
X133119726Y-108057288D01*
X133113549Y-108120000D01*
X133113549Y-108280000D01*
X133119726Y-108342712D01*
X133137104Y-108400000D01*
X133119726Y-108457288D01*
X133113549Y-108520000D01*
X133113549Y-108680000D01*
X133119726Y-108742712D01*
X133137104Y-108800000D01*
X133119726Y-108857288D01*
X133113549Y-108920000D01*
X133113549Y-109080000D01*
X133119726Y-109142712D01*
X133137104Y-109200000D01*
X133119726Y-109257288D01*
X133113549Y-109320000D01*
X133113549Y-109480000D01*
X133119726Y-109542712D01*
X133137104Y-109600000D01*
X133119726Y-109657288D01*
X133113549Y-109720000D01*
X133113549Y-109880000D01*
X133119726Y-109942712D01*
X133137104Y-110000000D01*
X133119726Y-110057288D01*
X133113549Y-110120000D01*
X133113549Y-110280000D01*
X133119726Y-110342712D01*
X133137104Y-110400000D01*
X133119726Y-110457288D01*
X133113549Y-110520000D01*
X133113549Y-110680000D01*
X133119726Y-110742712D01*
X133137104Y-110800000D01*
X133119726Y-110857288D01*
X133113549Y-110920000D01*
X133113549Y-111080000D01*
X133119726Y-111142712D01*
X133137104Y-111200000D01*
X133119726Y-111257288D01*
X133113549Y-111320000D01*
X133113549Y-111480000D01*
X133119726Y-111542712D01*
X133137104Y-111600000D01*
X133119726Y-111657288D01*
X133113549Y-111720000D01*
X133113549Y-111880000D01*
X133119726Y-111942712D01*
X133137104Y-112000000D01*
X133119726Y-112057288D01*
X133113549Y-112120000D01*
X133113549Y-112280000D01*
X133119726Y-112342712D01*
X133137104Y-112400000D01*
X133119726Y-112457288D01*
X133113549Y-112520000D01*
X133113549Y-112680000D01*
X133117077Y-112715822D01*
X133094000Y-112713549D01*
X132906000Y-112713549D01*
X132846019Y-112719457D01*
X132800000Y-112733416D01*
X132753981Y-112719457D01*
X132694000Y-112713549D01*
X132506000Y-112713549D01*
X132446019Y-112719457D01*
X132400000Y-112733416D01*
X132353981Y-112719457D01*
X132294000Y-112713549D01*
X132106000Y-112713549D01*
X132046019Y-112719457D01*
X132000000Y-112733416D01*
X131953981Y-112719457D01*
X131894000Y-112713549D01*
X131706000Y-112713549D01*
X131646019Y-112719457D01*
X131600000Y-112733416D01*
X131553981Y-112719457D01*
X131494000Y-112713549D01*
X131306000Y-112713549D01*
X131246019Y-112719457D01*
X131200000Y-112733416D01*
X131153981Y-112719457D01*
X131094000Y-112713549D01*
X130906000Y-112713549D01*
X130846019Y-112719457D01*
X130800000Y-112733416D01*
X130753981Y-112719457D01*
X130694000Y-112713549D01*
X130506000Y-112713549D01*
X130446019Y-112719457D01*
X130400000Y-112733416D01*
X130353981Y-112719457D01*
X130294000Y-112713549D01*
X130106000Y-112713549D01*
X130046019Y-112719457D01*
X130000000Y-112733416D01*
X129953981Y-112719457D01*
X129894000Y-112713549D01*
X129706000Y-112713549D01*
X129646019Y-112719457D01*
X129600000Y-112733416D01*
X129553981Y-112719457D01*
X129494000Y-112713549D01*
X129306000Y-112713549D01*
X129246019Y-112719457D01*
X129200000Y-112733416D01*
X129153981Y-112719457D01*
X129094000Y-112713549D01*
X128906000Y-112713549D01*
X128846019Y-112719457D01*
X128800000Y-112733416D01*
X128753981Y-112719457D01*
X128694000Y-112713549D01*
X128506000Y-112713549D01*
X128446019Y-112719457D01*
X128400000Y-112733416D01*
X128353981Y-112719457D01*
X128294000Y-112713549D01*
X128106000Y-112713549D01*
X128046019Y-112719457D01*
X128000000Y-112733416D01*
X127953981Y-112719457D01*
X127894000Y-112713549D01*
X127706000Y-112713549D01*
X127682923Y-112715822D01*
X127686451Y-112680000D01*
X127686451Y-112520000D01*
X127680274Y-112457288D01*
X127662896Y-112400000D01*
X127680274Y-112342712D01*
X127686451Y-112280000D01*
X127686451Y-112120000D01*
X127680274Y-112057288D01*
X127662896Y-112000000D01*
X127680274Y-111942712D01*
X127686451Y-111880000D01*
X127686451Y-111720000D01*
X127680274Y-111657288D01*
X127673702Y-111635621D01*
X127705972Y-111619834D01*
X127731990Y-111600000D01*
X128189058Y-111600000D01*
X128200797Y-111719189D01*
X128235563Y-111833797D01*
X128292020Y-111939421D01*
X128367999Y-112032001D01*
X128460579Y-112107980D01*
X128566203Y-112164437D01*
X128680811Y-112199203D01*
X128800000Y-112210942D01*
X130094000Y-112208000D01*
X130246000Y-112056000D01*
X130246000Y-110154000D01*
X130554000Y-110154000D01*
X130554000Y-112056000D01*
X130706000Y-112208000D01*
X132000000Y-112210942D01*
X132119189Y-112199203D01*
X132233797Y-112164437D01*
X132339421Y-112107980D01*
X132432001Y-112032001D01*
X132507980Y-111939421D01*
X132564437Y-111833797D01*
X132599203Y-111719189D01*
X132610942Y-111600000D01*
X132608000Y-110306000D01*
X132456000Y-110154000D01*
X130554000Y-110154000D01*
X130246000Y-110154000D01*
X128344000Y-110154000D01*
X128192000Y-110306000D01*
X128189058Y-111600000D01*
X127731990Y-111600000D01*
X127801219Y-111547227D01*
X127880471Y-111457433D01*
X127940683Y-111353904D01*
X127979539Y-111240617D01*
X127993000Y-111152000D01*
X127841000Y-111000000D01*
X127993000Y-110848000D01*
X127979539Y-110759383D01*
X127940683Y-110646096D01*
X127880471Y-110542567D01*
X127801219Y-110452773D01*
X127705972Y-110380166D01*
X127673702Y-110364379D01*
X127680274Y-110342712D01*
X127686451Y-110280000D01*
X127686451Y-110120000D01*
X127680274Y-110057288D01*
X127662896Y-110000000D01*
X127680274Y-109942712D01*
X127686451Y-109880000D01*
X127686451Y-109720000D01*
X127680274Y-109657288D01*
X127662896Y-109600000D01*
X127680274Y-109542712D01*
X127686451Y-109480000D01*
X127686451Y-109320000D01*
X127680274Y-109257288D01*
X127662896Y-109200000D01*
X127680274Y-109142712D01*
X127686451Y-109080000D01*
X127686451Y-108920000D01*
X127680274Y-108857288D01*
X127662896Y-108800000D01*
X127680274Y-108742712D01*
X127686451Y-108680000D01*
X127686451Y-108520000D01*
X127680274Y-108457288D01*
X127662896Y-108400000D01*
X128189058Y-108400000D01*
X128192000Y-109694000D01*
X128344000Y-109846000D01*
X130246000Y-109846000D01*
X130246000Y-107944000D01*
X130554000Y-107944000D01*
X130554000Y-109846000D01*
X132456000Y-109846000D01*
X132608000Y-109694000D01*
X132610942Y-108400000D01*
X132599203Y-108280811D01*
X132564437Y-108166203D01*
X132507980Y-108060579D01*
X132432001Y-107967999D01*
X132339421Y-107892020D01*
X132233797Y-107835563D01*
X132119189Y-107800797D01*
X132000000Y-107789058D01*
X130706000Y-107792000D01*
X130554000Y-107944000D01*
X130246000Y-107944000D01*
X130094000Y-107792000D01*
X128800000Y-107789058D01*
X128680811Y-107800797D01*
X128566203Y-107835563D01*
X128460579Y-107892020D01*
X128367999Y-107967999D01*
X128292020Y-108060579D01*
X128235563Y-108166203D01*
X128200797Y-108280811D01*
X128189058Y-108400000D01*
X127662896Y-108400000D01*
X127680274Y-108342712D01*
X127686451Y-108280000D01*
X127686451Y-108120000D01*
X127680274Y-108057288D01*
X127662896Y-108000000D01*
X127680274Y-107942712D01*
X127686451Y-107880000D01*
X127686451Y-107720000D01*
X127680274Y-107657288D01*
X127662896Y-107600000D01*
X127680274Y-107542712D01*
X127686451Y-107480000D01*
X127686451Y-107320000D01*
X127682923Y-107284178D01*
X127706000Y-107286451D01*
X127894000Y-107286451D01*
X127953981Y-107280543D01*
X128000000Y-107266584D01*
X128046019Y-107280543D01*
X128106000Y-107286451D01*
X128294000Y-107286451D01*
X128353981Y-107280543D01*
X128400000Y-107266584D01*
X128446019Y-107280543D01*
X128506000Y-107286451D01*
X128694000Y-107286451D01*
X128753981Y-107280543D01*
X128800000Y-107266584D01*
X128846019Y-107280543D01*
X128906000Y-107286451D01*
X129094000Y-107286451D01*
X129153981Y-107280543D01*
X129200000Y-107266584D01*
X129246019Y-107280543D01*
X129306000Y-107286451D01*
X129494000Y-107286451D01*
X129553981Y-107280543D01*
X129600000Y-107266584D01*
X129646019Y-107280543D01*
X129706000Y-107286451D01*
X129894000Y-107286451D01*
X129953981Y-107280543D01*
X130000000Y-107266584D01*
X130046019Y-107280543D01*
X130106000Y-107286451D01*
X130294000Y-107286451D01*
X130353981Y-107280543D01*
X130400000Y-107266584D01*
X130446019Y-107280543D01*
X130506000Y-107286451D01*
X130694000Y-107286451D01*
X130753981Y-107280543D01*
X130800000Y-107266584D01*
X130846019Y-107280543D01*
X130906000Y-107286451D01*
X131094000Y-107286451D01*
X131153981Y-107280543D01*
X131200000Y-107266584D01*
X131246019Y-107280543D01*
X131306000Y-107286451D01*
X131494000Y-107286451D01*
X131553981Y-107280543D01*
X131600000Y-107266584D01*
X131646019Y-107280543D01*
X131706000Y-107286451D01*
X131894000Y-107286451D01*
X131953981Y-107280543D01*
X132000000Y-107266584D01*
X132046019Y-107280543D01*
X132106000Y-107286451D01*
X132294000Y-107286451D01*
X132353981Y-107280543D01*
X132400000Y-107266584D01*
X132446019Y-107280543D01*
X132506000Y-107286451D01*
X132694000Y-107286451D01*
X132753981Y-107280543D01*
X132800000Y-107266584D01*
X132846019Y-107280543D01*
G37*
G04 #@! TD.AperFunction*
D23*
X124074000Y-108646000D02*
X124094000Y-108646000D01*
X124094000Y-108954000D01*
X124074000Y-108954000D01*
X124074000Y-109646000D01*
X124094000Y-109646000D01*
X124094000Y-109954000D01*
X124074000Y-109954000D01*
X124074000Y-109974000D01*
X123766000Y-109974000D01*
X123766000Y-109954000D01*
X123746000Y-109954000D01*
X123746000Y-109646000D01*
X123766000Y-109646000D01*
X123766000Y-108954000D01*
X123746000Y-108954000D01*
X123746000Y-108646000D01*
X123766000Y-108646000D01*
X123766000Y-108626000D01*
X124074000Y-108626000D01*
X124074000Y-108646000D01*
G04 #@! TA.AperFunction,Conductor*
D25*
G36*
X124074000Y-108646000D02*
G01*
X124094000Y-108646000D01*
X124094000Y-108954000D01*
X124074000Y-108954000D01*
X124074000Y-109646000D01*
X124094000Y-109646000D01*
X124094000Y-109954000D01*
X124074000Y-109954000D01*
X124074000Y-109974000D01*
X123766000Y-109974000D01*
X123766000Y-109954000D01*
X123746000Y-109954000D01*
X123746000Y-109646000D01*
X123766000Y-109646000D01*
X123766000Y-108954000D01*
X123746000Y-108954000D01*
X123746000Y-108646000D01*
X123766000Y-108646000D01*
X123766000Y-108626000D01*
X124074000Y-108626000D01*
X124074000Y-108646000D01*
G37*
G04 #@! TD.AperFunction*
D23*
X122554000Y-108736000D02*
X122574000Y-108736000D01*
X122574000Y-109044000D01*
X122554000Y-109044000D01*
X122554000Y-109064000D01*
X122246000Y-109064000D01*
X122246000Y-109044000D01*
X122226000Y-109044000D01*
X122226000Y-108736000D01*
X122246000Y-108736000D01*
X122246000Y-108716000D01*
X122554000Y-108716000D01*
X122554000Y-108736000D01*
G04 #@! TA.AperFunction,Conductor*
D25*
G36*
X122554000Y-108736000D02*
G01*
X122574000Y-108736000D01*
X122574000Y-109044000D01*
X122554000Y-109044000D01*
X122554000Y-109064000D01*
X122246000Y-109064000D01*
X122246000Y-109044000D01*
X122226000Y-109044000D01*
X122226000Y-108736000D01*
X122246000Y-108736000D01*
X122246000Y-108716000D01*
X122554000Y-108716000D01*
X122554000Y-108736000D01*
G37*
G04 #@! TD.AperFunction*
D23*
X126832000Y-105404002D02*
X126983998Y-105404002D01*
X126832000Y-105556000D01*
X126838408Y-105666478D01*
X126870741Y-105781797D01*
X126924949Y-105888592D01*
X126998951Y-105982760D01*
X127089902Y-106060681D01*
X127194307Y-106119361D01*
X127308154Y-106156546D01*
X127398549Y-106166328D01*
X127398549Y-106979000D01*
X127400822Y-107002077D01*
X127365000Y-106998549D01*
X126580000Y-106998549D01*
X126580000Y-105557400D01*
X126832000Y-105305401D01*
X126832000Y-105404002D01*
G04 #@! TA.AperFunction,Conductor*
D25*
G36*
X126832000Y-105404002D02*
G01*
X126983998Y-105404002D01*
X126832000Y-105556000D01*
X126838408Y-105666478D01*
X126870741Y-105781797D01*
X126924949Y-105888592D01*
X126998951Y-105982760D01*
X127089902Y-106060681D01*
X127194307Y-106119361D01*
X127308154Y-106156546D01*
X127398549Y-106166328D01*
X127398549Y-106979000D01*
X127400822Y-107002077D01*
X127365000Y-106998549D01*
X126580000Y-106998549D01*
X126580000Y-105557400D01*
X126832000Y-105305401D01*
X126832000Y-105404002D01*
G37*
G04 #@! TD.AperFunction*
D23*
X126173726Y-104888874D02*
X126126050Y-104817522D01*
X126042478Y-104733950D01*
X125944207Y-104668287D01*
X125835014Y-104623058D01*
X125719095Y-104600000D01*
X125600905Y-104600000D01*
X125484986Y-104623058D01*
X125375793Y-104668287D01*
X125277522Y-104733950D01*
X125193950Y-104817522D01*
X125128287Y-104915793D01*
X125083058Y-105024986D01*
X125060000Y-105140905D01*
X125060000Y-105259095D01*
X125078252Y-105350851D01*
X124989419Y-105262018D01*
X124990000Y-105259095D01*
X124990000Y-105140905D01*
X124966942Y-105024986D01*
X124921713Y-104915793D01*
X124856050Y-104817522D01*
X124772478Y-104733950D01*
X124674207Y-104668287D01*
X124565014Y-104623058D01*
X124449095Y-104600000D01*
X124330905Y-104600000D01*
X124214986Y-104623058D01*
X124105793Y-104668287D01*
X124007522Y-104733950D01*
X123923950Y-104817522D01*
X123858287Y-104915793D01*
X123813058Y-105024986D01*
X123790000Y-105140905D01*
X123790000Y-105259095D01*
X123813058Y-105375014D01*
X123858287Y-105484207D01*
X123923950Y-105582478D01*
X124007522Y-105666050D01*
X124105793Y-105731713D01*
X124214986Y-105776942D01*
X124330905Y-105800000D01*
X124449095Y-105800000D01*
X124452018Y-105799419D01*
X124485115Y-105832515D01*
X124383522Y-105838408D01*
X124268203Y-105870741D01*
X124200000Y-105905360D01*
X124131797Y-105870741D01*
X124016478Y-105838408D01*
X123906000Y-105832000D01*
X123754000Y-105984000D01*
X123754000Y-106566000D01*
X124646000Y-106566000D01*
X124646000Y-106546000D01*
X124954000Y-106546000D01*
X124954000Y-106566000D01*
X124974000Y-106566000D01*
X124974000Y-106874000D01*
X124954000Y-106874000D01*
X124954000Y-106894000D01*
X124646000Y-106894000D01*
X124646000Y-106874000D01*
X123754000Y-106874000D01*
X123754000Y-106894000D01*
X123446000Y-106894000D01*
X123446000Y-106874000D01*
X122554000Y-106874000D01*
X122554000Y-106894000D01*
X122246000Y-106894000D01*
X122246000Y-106874000D01*
X122226000Y-106874000D01*
X122226000Y-106566000D01*
X122246000Y-106566000D01*
X122246000Y-106546000D01*
X122554000Y-106546000D01*
X122554000Y-106566000D01*
X123446000Y-106566000D01*
X123446000Y-105984000D01*
X123294000Y-105832000D01*
X123183522Y-105838408D01*
X123068203Y-105870741D01*
X123000000Y-105905360D01*
X122931797Y-105870741D01*
X122816478Y-105838408D01*
X122723100Y-105832992D01*
X123188793Y-105338039D01*
X124115910Y-104580697D01*
X124498588Y-104325000D01*
X126737599Y-104325000D01*
X126173726Y-104888874D01*
G04 #@! TA.AperFunction,Conductor*
D25*
G36*
X126173726Y-104888874D02*
G01*
X126126050Y-104817522D01*
X126042478Y-104733950D01*
X125944207Y-104668287D01*
X125835014Y-104623058D01*
X125719095Y-104600000D01*
X125600905Y-104600000D01*
X125484986Y-104623058D01*
X125375793Y-104668287D01*
X125277522Y-104733950D01*
X125193950Y-104817522D01*
X125128287Y-104915793D01*
X125083058Y-105024986D01*
X125060000Y-105140905D01*
X125060000Y-105259095D01*
X125078252Y-105350851D01*
X124989419Y-105262018D01*
X124990000Y-105259095D01*
X124990000Y-105140905D01*
X124966942Y-105024986D01*
X124921713Y-104915793D01*
X124856050Y-104817522D01*
X124772478Y-104733950D01*
X124674207Y-104668287D01*
X124565014Y-104623058D01*
X124449095Y-104600000D01*
X124330905Y-104600000D01*
X124214986Y-104623058D01*
X124105793Y-104668287D01*
X124007522Y-104733950D01*
X123923950Y-104817522D01*
X123858287Y-104915793D01*
X123813058Y-105024986D01*
X123790000Y-105140905D01*
X123790000Y-105259095D01*
X123813058Y-105375014D01*
X123858287Y-105484207D01*
X123923950Y-105582478D01*
X124007522Y-105666050D01*
X124105793Y-105731713D01*
X124214986Y-105776942D01*
X124330905Y-105800000D01*
X124449095Y-105800000D01*
X124452018Y-105799419D01*
X124485115Y-105832515D01*
X124383522Y-105838408D01*
X124268203Y-105870741D01*
X124200000Y-105905360D01*
X124131797Y-105870741D01*
X124016478Y-105838408D01*
X123906000Y-105832000D01*
X123754000Y-105984000D01*
X123754000Y-106566000D01*
X124646000Y-106566000D01*
X124646000Y-106546000D01*
X124954000Y-106546000D01*
X124954000Y-106566000D01*
X124974000Y-106566000D01*
X124974000Y-106874000D01*
X124954000Y-106874000D01*
X124954000Y-106894000D01*
X124646000Y-106894000D01*
X124646000Y-106874000D01*
X123754000Y-106874000D01*
X123754000Y-106894000D01*
X123446000Y-106894000D01*
X123446000Y-106874000D01*
X122554000Y-106874000D01*
X122554000Y-106894000D01*
X122246000Y-106894000D01*
X122246000Y-106874000D01*
X122226000Y-106874000D01*
X122226000Y-106566000D01*
X122246000Y-106566000D01*
X122246000Y-106546000D01*
X122554000Y-106546000D01*
X122554000Y-106566000D01*
X123446000Y-106566000D01*
X123446000Y-105984000D01*
X123294000Y-105832000D01*
X123183522Y-105838408D01*
X123068203Y-105870741D01*
X123000000Y-105905360D01*
X122931797Y-105870741D01*
X122816478Y-105838408D01*
X122723100Y-105832992D01*
X123188793Y-105338039D01*
X124115910Y-104580697D01*
X124498588Y-104325000D01*
X126737599Y-104325000D01*
X126173726Y-104888874D01*
G37*
G04 #@! TD.AperFunction*
D23*
X135372152Y-104911064D02*
X135347031Y-104993877D01*
X135338549Y-105080000D01*
X135338549Y-105420000D01*
X135345342Y-105488973D01*
X135234315Y-105600000D01*
X134987748Y-105600000D01*
X134990918Y-105564615D01*
X134988000Y-105556000D01*
X134836000Y-105404000D01*
X134239000Y-105404000D01*
X134239000Y-105424000D01*
X133931000Y-105424000D01*
X133931000Y-105404000D01*
X133911000Y-105404000D01*
X133911000Y-105096000D01*
X133931000Y-105096000D01*
X133931000Y-105076000D01*
X134239000Y-105076000D01*
X134239000Y-105096000D01*
X134836000Y-105096000D01*
X134988000Y-104944000D01*
X134990918Y-104935385D01*
X134987748Y-104900000D01*
X135378066Y-104900000D01*
X135372152Y-104911064D01*
G04 #@! TA.AperFunction,Conductor*
D25*
G36*
X135372152Y-104911064D02*
G01*
X135347031Y-104993877D01*
X135338549Y-105080000D01*
X135338549Y-105420000D01*
X135345342Y-105488973D01*
X135234315Y-105600000D01*
X134987748Y-105600000D01*
X134990918Y-105564615D01*
X134988000Y-105556000D01*
X134836000Y-105404000D01*
X134239000Y-105404000D01*
X134239000Y-105424000D01*
X133931000Y-105424000D01*
X133931000Y-105404000D01*
X133911000Y-105404000D01*
X133911000Y-105096000D01*
X133931000Y-105096000D01*
X133931000Y-105076000D01*
X134239000Y-105076000D01*
X134239000Y-105096000D01*
X134836000Y-105096000D01*
X134988000Y-104944000D01*
X134990918Y-104935385D01*
X134987748Y-104900000D01*
X135378066Y-104900000D01*
X135372152Y-104911064D01*
G37*
G04 #@! TD.AperFunction*
D23*
X127874000Y-105096000D02*
X127894000Y-105096000D01*
X127894000Y-105404000D01*
X127874000Y-105404000D01*
X127874000Y-105424000D01*
X127566000Y-105424000D01*
X127566000Y-105404000D01*
X127546000Y-105404000D01*
X127546000Y-105096000D01*
X127566000Y-105096000D01*
X127566000Y-105076000D01*
X127874000Y-105076000D01*
X127874000Y-105096000D01*
G04 #@! TA.AperFunction,Conductor*
D25*
G36*
X127874000Y-105096000D02*
G01*
X127894000Y-105096000D01*
X127894000Y-105404000D01*
X127874000Y-105404000D01*
X127874000Y-105424000D01*
X127566000Y-105424000D01*
X127566000Y-105404000D01*
X127546000Y-105404000D01*
X127546000Y-105096000D01*
X127566000Y-105096000D01*
X127566000Y-105076000D01*
X127874000Y-105076000D01*
X127874000Y-105096000D01*
G37*
G04 #@! TD.AperFunction*
M02*
