G04 #@! TF.GenerationSoftware,KiCad,Pcbnew,5.1.5+dfsg1-2build2*
G04 #@! TF.CreationDate,2022-02-10T21:46:42-05:00*
G04 #@! TF.ProjectId,mico,6d69636f-2e6b-4696-9361-645f70636258,0.1*
G04 #@! TF.SameCoordinates,Original*
G04 #@! TF.FileFunction,Legend,Top*
G04 #@! TF.FilePolarity,Positive*
%FSLAX46Y46*%
G04 Gerber Fmt 4.6, Leading zero omitted, Abs format (unit mm)*
G04 Created by KiCad (PCBNEW 5.1.5+dfsg1-2build2) date 2022-02-10 21:46:42*
%MOMM*%
%LPD*%
G04 APERTURE LIST*
%ADD10C,0.200000*%
%ADD11C,0.060000*%
%ADD12C,0.150000*%
%ADD13C,1.528000*%
%ADD14R,1.528000X1.528000*%
%ADD15O,3.600000X1.608000*%
%ADD16C,1.200000*%
%ADD17O,1.100000X1.100000*%
%ADD18R,1.100000X1.100000*%
%ADD19C,1.100000*%
%ADD20C,0.600000*%
G04 APERTURE END LIST*
D10*
X128704761Y-114376190D02*
X126704761Y-114376190D01*
X128133333Y-113709523D01*
X126704761Y-113042857D01*
X128704761Y-113042857D01*
X128609523Y-112185714D02*
X128704761Y-111900000D01*
X128704761Y-111423809D01*
X128609523Y-111233333D01*
X128514285Y-111138095D01*
X128323809Y-111042857D01*
X128133333Y-111042857D01*
X127942857Y-111138095D01*
X127847619Y-111233333D01*
X127752380Y-111423809D01*
X127657142Y-111804761D01*
X127561904Y-111995238D01*
X127466666Y-112090476D01*
X127276190Y-112185714D01*
X127085714Y-112185714D01*
X126895238Y-112090476D01*
X126800000Y-111995238D01*
X126704761Y-111804761D01*
X126704761Y-111328571D01*
X126800000Y-111042857D01*
X128133333Y-110280952D02*
X128133333Y-109328571D01*
X128704761Y-110471428D02*
X126704761Y-109804761D01*
X128704761Y-109138095D01*
X143000000Y-116700000D02*
X143000000Y-107300000D01*
X141600000Y-107000000D02*
G75*
G03X141600000Y-107000000I-100000J0D01*
G01*
X146700000Y-106000000D02*
X146700000Y-118000000D01*
X146000000Y-106000000D02*
X146700000Y-106000000D01*
X146700000Y-118000000D02*
X146000000Y-118000000D01*
D11*
X140300000Y-105671428D02*
X140300000Y-106100000D01*
X140271428Y-106185714D01*
X140214285Y-106242857D01*
X140128571Y-106271428D01*
X140071428Y-106271428D01*
X140900000Y-106271428D02*
X140557142Y-106271428D01*
X140728571Y-106271428D02*
X140728571Y-105671428D01*
X140671428Y-105757142D01*
X140614285Y-105814285D01*
X140557142Y-105842857D01*
X126000000Y-105971428D02*
X126000000Y-106400000D01*
X125971428Y-106485714D01*
X125914285Y-106542857D01*
X125828571Y-106571428D01*
X125771428Y-106571428D01*
X126257142Y-106028571D02*
X126285714Y-106000000D01*
X126342857Y-105971428D01*
X126485714Y-105971428D01*
X126542857Y-106000000D01*
X126571428Y-106028571D01*
X126600000Y-106085714D01*
X126600000Y-106142857D01*
X126571428Y-106228571D01*
X126228571Y-106571428D01*
X126600000Y-106571428D01*
X129290857Y-105519428D02*
X129633714Y-105519428D01*
X129462285Y-106119428D02*
X129462285Y-105519428D01*
X129833714Y-106119428D02*
X129833714Y-105519428D01*
X130062285Y-105519428D01*
X130119428Y-105548000D01*
X130148000Y-105576571D01*
X130176571Y-105633714D01*
X130176571Y-105719428D01*
X130148000Y-105776571D01*
X130119428Y-105805142D01*
X130062285Y-105833714D01*
X129833714Y-105833714D01*
X130405142Y-105576571D02*
X130433714Y-105548000D01*
X130490857Y-105519428D01*
X130633714Y-105519428D01*
X130690857Y-105548000D01*
X130719428Y-105576571D01*
X130748000Y-105633714D01*
X130748000Y-105690857D01*
X130719428Y-105776571D01*
X130376571Y-106119428D01*
X130748000Y-106119428D01*
X128042857Y-118771428D02*
X128385714Y-118771428D01*
X128214285Y-119371428D02*
X128214285Y-118771428D01*
X128585714Y-119371428D02*
X128585714Y-118771428D01*
X128814285Y-118771428D01*
X128871428Y-118800000D01*
X128900000Y-118828571D01*
X128928571Y-118885714D01*
X128928571Y-118971428D01*
X128900000Y-119028571D01*
X128871428Y-119057142D01*
X128814285Y-119085714D01*
X128585714Y-119085714D01*
X129500000Y-119371428D02*
X129157142Y-119371428D01*
X129328571Y-119371428D02*
X129328571Y-118771428D01*
X129271428Y-118857142D01*
X129214285Y-118914285D01*
X129157142Y-118942857D01*
D12*
X121293095Y-98722380D02*
X121864523Y-98722380D01*
X121578809Y-99722380D02*
X121578809Y-98722380D01*
X122197857Y-99722380D02*
X122197857Y-98722380D01*
X122578809Y-98722380D01*
X122674047Y-98770000D01*
X122721666Y-98817619D01*
X122769285Y-98912857D01*
X122769285Y-99055714D01*
X122721666Y-99150952D01*
X122674047Y-99198571D01*
X122578809Y-99246190D01*
X122197857Y-99246190D01*
X123102619Y-98722380D02*
X123721666Y-98722380D01*
X123388333Y-99103333D01*
X123531190Y-99103333D01*
X123626428Y-99150952D01*
X123674047Y-99198571D01*
X123721666Y-99293809D01*
X123721666Y-99531904D01*
X123674047Y-99627142D01*
X123626428Y-99674761D01*
X123531190Y-99722380D01*
X123245476Y-99722380D01*
X123150238Y-99674761D01*
X123102619Y-99627142D01*
%LPC*%
D13*
X141900000Y-115500000D03*
X141900000Y-113000000D03*
X141900000Y-111000000D03*
D14*
X141900000Y-108500000D03*
D15*
X144000000Y-106150000D03*
X144000000Y-117850000D03*
D16*
X144000000Y-109700000D03*
X144000000Y-114300000D03*
D17*
X124390000Y-105200000D03*
X125660000Y-105200000D03*
X126930000Y-105200000D03*
D18*
X128200000Y-105200000D03*
D19*
X130048000Y-104648000D03*
D17*
X131670000Y-119000000D03*
D19*
X130400000Y-119000000D03*
D20*
X118737500Y-177668750D03*
X118750000Y-134325000D03*
X118750000Y-90325000D03*
X118750000Y-46325000D03*
D19*
X122555000Y-100965000D03*
M02*
