G04 #@! TF.GenerationSoftware,KiCad,Pcbnew,(5.1.12)-1*
G04 #@! TF.CreationDate,2021-12-03T13:24:37+05:30*
G04 #@! TF.ProjectId,mico,6d69636f-2e6b-4696-9361-645f70636258,rev?*
G04 #@! TF.SameCoordinates,Original*
G04 #@! TF.FileFunction,Legend,Top*
G04 #@! TF.FilePolarity,Positive*
%FSLAX46Y46*%
G04 Gerber Fmt 4.6, Leading zero omitted, Abs format (unit mm)*
G04 Created by KiCad (PCBNEW (5.1.12)-1) date 2021-12-03 13:24:37*
%MOMM*%
%LPD*%
G01*
G04 APERTURE LIST*
%ADD10C,0.120000*%
%ADD11C,0.200000*%
%ADD12C,0.010000*%
%ADD13C,0.060000*%
G04 APERTURE END LIST*
D10*
X123902082Y-112000000D02*
G75*
G03*
X123902082Y-112000000I-2402082J0D01*
G01*
X123600000Y-112000000D02*
G75*
G03*
X123600000Y-112000000I-2100000J0D01*
G01*
X123302776Y-112000000D02*
G75*
G03*
X123302776Y-112000000I-1802776J0D01*
G01*
X123003330Y-112000000D02*
G75*
G03*
X123003330Y-112000000I-1503330J0D01*
G01*
X122704159Y-112000000D02*
G75*
G03*
X122704159Y-112000000I-1204159J0D01*
G01*
X122400000Y-112000000D02*
G75*
G03*
X122400000Y-112000000I-900000J0D01*
G01*
D11*
X128704761Y-114995238D02*
X127371428Y-114995238D01*
X127561904Y-114995238D02*
X127466666Y-114900000D01*
X127371428Y-114709523D01*
X127371428Y-114423809D01*
X127466666Y-114233333D01*
X127657142Y-114138095D01*
X128704761Y-114138095D01*
X127657142Y-114138095D02*
X127466666Y-114042857D01*
X127371428Y-113852380D01*
X127371428Y-113566666D01*
X127466666Y-113376190D01*
X127657142Y-113280952D01*
X128704761Y-113280952D01*
X128704761Y-112328571D02*
X127371428Y-112328571D01*
X126704761Y-112328571D02*
X126800000Y-112423809D01*
X126895238Y-112328571D01*
X126800000Y-112233333D01*
X126704761Y-112328571D01*
X126895238Y-112328571D01*
X128609523Y-110519047D02*
X128704761Y-110709523D01*
X128704761Y-111090476D01*
X128609523Y-111280952D01*
X128514285Y-111376190D01*
X128323809Y-111471428D01*
X127752380Y-111471428D01*
X127561904Y-111376190D01*
X127466666Y-111280952D01*
X127371428Y-111090476D01*
X127371428Y-110709523D01*
X127466666Y-110519047D01*
X128704761Y-109376190D02*
X128609523Y-109566666D01*
X128514285Y-109661904D01*
X128323809Y-109757142D01*
X127752380Y-109757142D01*
X127561904Y-109661904D01*
X127466666Y-109566666D01*
X127371428Y-109376190D01*
X127371428Y-109090476D01*
X127466666Y-108900000D01*
X127561904Y-108804761D01*
X127752380Y-108709523D01*
X128323809Y-108709523D01*
X128514285Y-108804761D01*
X128609523Y-108900000D01*
X128704761Y-109090476D01*
X128704761Y-109376190D01*
D10*
X122132456Y-112000000D02*
G75*
G03*
X122132456Y-112000000I-632456J0D01*
G01*
D11*
X143000000Y-116700000D02*
X143000000Y-107300000D01*
X141600000Y-107000000D02*
G75*
G03*
X141600000Y-107000000I-100000J0D01*
G01*
X146700000Y-106000000D02*
X146700000Y-118000000D01*
X146000000Y-106000000D02*
X146700000Y-106000000D01*
X146700000Y-118000000D02*
X146000000Y-118000000D01*
D12*
G36*
X134006209Y-111099827D02*
G01*
X134051438Y-111090587D01*
X134080078Y-111089834D01*
X134120561Y-111091912D01*
X134155133Y-111101771D01*
X134191780Y-111124845D01*
X134238485Y-111166571D01*
X134303234Y-111232385D01*
X134328828Y-111259167D01*
X134402611Y-111334979D01*
X134455918Y-111384410D01*
X134496235Y-111412866D01*
X134531051Y-111425751D01*
X134563413Y-111428500D01*
X134631298Y-111415419D01*
X134681667Y-111372056D01*
X134738889Y-111328827D01*
X134808766Y-111314617D01*
X134874913Y-111331708D01*
X134891122Y-111342898D01*
X134915156Y-111385936D01*
X134923310Y-111449475D01*
X134915617Y-111514790D01*
X134892109Y-111563153D01*
X134890738Y-111564572D01*
X134843492Y-111590134D01*
X134784009Y-111595524D01*
X134783409Y-111595398D01*
X134783409Y-111529567D01*
X134826919Y-111521614D01*
X134853896Y-111486251D01*
X134856439Y-111453142D01*
X134842083Y-111410140D01*
X134805683Y-111396877D01*
X134799307Y-111396750D01*
X134747169Y-111410690D01*
X134719605Y-111444591D01*
X134723513Y-111486577D01*
X134736790Y-111504362D01*
X134783409Y-111529567D01*
X134783409Y-111595398D01*
X134726117Y-111583346D01*
X134683646Y-111556204D01*
X134670000Y-111523006D01*
X134658014Y-111503478D01*
X134617125Y-111493917D01*
X134562742Y-111492000D01*
X134515103Y-111490981D01*
X134478051Y-111484399D01*
X134443122Y-111466972D01*
X134401854Y-111433414D01*
X134345783Y-111378442D01*
X134291525Y-111322667D01*
X134215439Y-111246015D01*
X134160052Y-111196028D01*
X134118219Y-111167477D01*
X134082800Y-111155138D01*
X134060116Y-111153334D01*
X134008014Y-111144972D01*
X133992667Y-111121584D01*
X134006209Y-111099827D01*
G37*
X134006209Y-111099827D02*
X134051438Y-111090587D01*
X134080078Y-111089834D01*
X134120561Y-111091912D01*
X134155133Y-111101771D01*
X134191780Y-111124845D01*
X134238485Y-111166571D01*
X134303234Y-111232385D01*
X134328828Y-111259167D01*
X134402611Y-111334979D01*
X134455918Y-111384410D01*
X134496235Y-111412866D01*
X134531051Y-111425751D01*
X134563413Y-111428500D01*
X134631298Y-111415419D01*
X134681667Y-111372056D01*
X134738889Y-111328827D01*
X134808766Y-111314617D01*
X134874913Y-111331708D01*
X134891122Y-111342898D01*
X134915156Y-111385936D01*
X134923310Y-111449475D01*
X134915617Y-111514790D01*
X134892109Y-111563153D01*
X134890738Y-111564572D01*
X134843492Y-111590134D01*
X134784009Y-111595524D01*
X134783409Y-111595398D01*
X134783409Y-111529567D01*
X134826919Y-111521614D01*
X134853896Y-111486251D01*
X134856439Y-111453142D01*
X134842083Y-111410140D01*
X134805683Y-111396877D01*
X134799307Y-111396750D01*
X134747169Y-111410690D01*
X134719605Y-111444591D01*
X134723513Y-111486577D01*
X134736790Y-111504362D01*
X134783409Y-111529567D01*
X134783409Y-111595398D01*
X134726117Y-111583346D01*
X134683646Y-111556204D01*
X134670000Y-111523006D01*
X134658014Y-111503478D01*
X134617125Y-111493917D01*
X134562742Y-111492000D01*
X134515103Y-111490981D01*
X134478051Y-111484399D01*
X134443122Y-111466972D01*
X134401854Y-111433414D01*
X134345783Y-111378442D01*
X134291525Y-111322667D01*
X134215439Y-111246015D01*
X134160052Y-111196028D01*
X134118219Y-111167477D01*
X134082800Y-111155138D01*
X134060116Y-111153334D01*
X134008014Y-111144972D01*
X133992667Y-111121584D01*
X134006209Y-111099827D01*
G36*
X133998334Y-110791866D02*
G01*
X134019192Y-110783163D01*
X134061023Y-110777419D01*
X134129612Y-110774077D01*
X134230743Y-110772581D01*
X134322731Y-110772334D01*
X134447968Y-110772002D01*
X134537228Y-110770500D01*
X134596868Y-110767072D01*
X134633243Y-110760959D01*
X134652708Y-110751405D01*
X134661619Y-110737652D01*
X134663414Y-110731734D01*
X134689292Y-110695619D01*
X134736882Y-110665103D01*
X134737802Y-110664719D01*
X134790852Y-110649468D01*
X134834984Y-110659631D01*
X134857495Y-110672082D01*
X134902091Y-110720503D01*
X134922329Y-110787064D01*
X134916324Y-110855456D01*
X134884658Y-110907210D01*
X134829243Y-110935317D01*
X134806458Y-110936244D01*
X134806458Y-110866531D01*
X134844491Y-110842140D01*
X134857028Y-110792271D01*
X134856230Y-110784769D01*
X134840073Y-110751777D01*
X134797220Y-110740786D01*
X134786417Y-110740584D01*
X134735445Y-110754939D01*
X134713001Y-110789090D01*
X134722721Y-110829662D01*
X134754735Y-110857037D01*
X134806458Y-110866531D01*
X134806458Y-110936244D01*
X134765470Y-110937914D01*
X134709512Y-110916883D01*
X134680856Y-110883459D01*
X134671436Y-110865539D01*
X134657061Y-110852791D01*
X134631179Y-110844336D01*
X134587240Y-110839293D01*
X134518693Y-110836782D01*
X134418986Y-110835923D01*
X134326314Y-110835834D01*
X134198527Y-110835297D01*
X134107308Y-110833321D01*
X134046901Y-110829358D01*
X134011551Y-110822861D01*
X133995502Y-110813282D01*
X133992667Y-110804084D01*
X133998334Y-110791866D01*
G37*
X133998334Y-110791866D02*
X134019192Y-110783163D01*
X134061023Y-110777419D01*
X134129612Y-110774077D01*
X134230743Y-110772581D01*
X134322731Y-110772334D01*
X134447968Y-110772002D01*
X134537228Y-110770500D01*
X134596868Y-110767072D01*
X134633243Y-110760959D01*
X134652708Y-110751405D01*
X134661619Y-110737652D01*
X134663414Y-110731734D01*
X134689292Y-110695619D01*
X134736882Y-110665103D01*
X134737802Y-110664719D01*
X134790852Y-110649468D01*
X134834984Y-110659631D01*
X134857495Y-110672082D01*
X134902091Y-110720503D01*
X134922329Y-110787064D01*
X134916324Y-110855456D01*
X134884658Y-110907210D01*
X134829243Y-110935317D01*
X134806458Y-110936244D01*
X134806458Y-110866531D01*
X134844491Y-110842140D01*
X134857028Y-110792271D01*
X134856230Y-110784769D01*
X134840073Y-110751777D01*
X134797220Y-110740786D01*
X134786417Y-110740584D01*
X134735445Y-110754939D01*
X134713001Y-110789090D01*
X134722721Y-110829662D01*
X134754735Y-110857037D01*
X134806458Y-110866531D01*
X134806458Y-110936244D01*
X134765470Y-110937914D01*
X134709512Y-110916883D01*
X134680856Y-110883459D01*
X134671436Y-110865539D01*
X134657061Y-110852791D01*
X134631179Y-110844336D01*
X134587240Y-110839293D01*
X134518693Y-110836782D01*
X134418986Y-110835923D01*
X134326314Y-110835834D01*
X134198527Y-110835297D01*
X134107308Y-110833321D01*
X134046901Y-110829358D01*
X134011551Y-110822861D01*
X133995502Y-110813282D01*
X133992667Y-110804084D01*
X133998334Y-110791866D01*
G36*
X134001643Y-110446050D02*
G01*
X134036007Y-110434600D01*
X134061955Y-110433667D01*
X134097487Y-110429239D01*
X134134486Y-110412515D01*
X134180186Y-110378339D01*
X134241826Y-110321555D01*
X134299583Y-110264334D01*
X134373935Y-110190531D01*
X134427060Y-110141985D01*
X134467071Y-110113433D01*
X134502078Y-110099615D01*
X134540195Y-110095269D01*
X134560624Y-110095000D01*
X134628296Y-110088976D01*
X134672567Y-110066227D01*
X134694948Y-110042084D01*
X134750285Y-109999964D01*
X134815175Y-109990531D01*
X134875062Y-110014852D01*
X134888969Y-110027876D01*
X134917903Y-110086100D01*
X134922447Y-110156931D01*
X134903239Y-110221649D01*
X134881425Y-110249046D01*
X134839037Y-110270062D01*
X134839037Y-110197495D01*
X134857675Y-110180885D01*
X134860500Y-110150507D01*
X134852432Y-110104841D01*
X134838130Y-110083674D01*
X134802120Y-110077862D01*
X134762673Y-110083173D01*
X134722820Y-110103643D01*
X134716148Y-110142634D01*
X134716251Y-110143374D01*
X134732773Y-110178889D01*
X134776388Y-110195029D01*
X134791708Y-110196883D01*
X134839037Y-110197495D01*
X134839037Y-110270062D01*
X134815373Y-110281795D01*
X134746504Y-110274193D01*
X134688096Y-110232950D01*
X134622090Y-110189050D01*
X134563670Y-110180033D01*
X134527133Y-110183330D01*
X134491642Y-110197099D01*
X134449674Y-110226574D01*
X134393702Y-110276988D01*
X134320750Y-110349000D01*
X134245188Y-110423647D01*
X134190778Y-110472624D01*
X134149785Y-110501208D01*
X134114475Y-110514678D01*
X134077111Y-110518309D01*
X134072538Y-110518334D01*
X134019082Y-110514311D01*
X133996327Y-110498288D01*
X133992667Y-110476000D01*
X134001643Y-110446050D01*
G37*
X134001643Y-110446050D02*
X134036007Y-110434600D01*
X134061955Y-110433667D01*
X134097487Y-110429239D01*
X134134486Y-110412515D01*
X134180186Y-110378339D01*
X134241826Y-110321555D01*
X134299583Y-110264334D01*
X134373935Y-110190531D01*
X134427060Y-110141985D01*
X134467071Y-110113433D01*
X134502078Y-110099615D01*
X134540195Y-110095269D01*
X134560624Y-110095000D01*
X134628296Y-110088976D01*
X134672567Y-110066227D01*
X134694948Y-110042084D01*
X134750285Y-109999964D01*
X134815175Y-109990531D01*
X134875062Y-110014852D01*
X134888969Y-110027876D01*
X134917903Y-110086100D01*
X134922447Y-110156931D01*
X134903239Y-110221649D01*
X134881425Y-110249046D01*
X134839037Y-110270062D01*
X134839037Y-110197495D01*
X134857675Y-110180885D01*
X134860500Y-110150507D01*
X134852432Y-110104841D01*
X134838130Y-110083674D01*
X134802120Y-110077862D01*
X134762673Y-110083173D01*
X134722820Y-110103643D01*
X134716148Y-110142634D01*
X134716251Y-110143374D01*
X134732773Y-110178889D01*
X134776388Y-110195029D01*
X134791708Y-110196883D01*
X134839037Y-110197495D01*
X134839037Y-110270062D01*
X134815373Y-110281795D01*
X134746504Y-110274193D01*
X134688096Y-110232950D01*
X134622090Y-110189050D01*
X134563670Y-110180033D01*
X134527133Y-110183330D01*
X134491642Y-110197099D01*
X134449674Y-110226574D01*
X134393702Y-110276988D01*
X134320750Y-110349000D01*
X134245188Y-110423647D01*
X134190778Y-110472624D01*
X134149785Y-110501208D01*
X134114475Y-110514678D01*
X134077111Y-110518309D01*
X134072538Y-110518334D01*
X134019082Y-110514311D01*
X133996327Y-110498288D01*
X133992667Y-110476000D01*
X134001643Y-110446050D01*
G36*
X134248865Y-109633749D02*
G01*
X134259797Y-109622115D01*
X134285968Y-109614669D01*
X134333884Y-109610484D01*
X134410051Y-109608628D01*
X134520974Y-109608172D01*
X134543000Y-109608167D01*
X134839333Y-109608167D01*
X134839333Y-109438834D01*
X134840217Y-109354465D01*
X134844288Y-109303900D01*
X134853674Y-109278625D01*
X134870505Y-109270124D01*
X134881667Y-109269500D01*
X134900934Y-109272406D01*
X134913268Y-109286229D01*
X134920202Y-109318633D01*
X134923267Y-109377279D01*
X134923996Y-109469831D01*
X134924000Y-109481167D01*
X134924000Y-109692834D01*
X134585333Y-109692834D01*
X134458700Y-109692587D01*
X134368307Y-109691337D01*
X134308063Y-109688325D01*
X134271877Y-109682787D01*
X134253657Y-109673963D01*
X134247310Y-109661091D01*
X134246667Y-109650500D01*
X134248865Y-109633749D01*
G37*
X134248865Y-109633749D02*
X134259797Y-109622115D01*
X134285968Y-109614669D01*
X134333884Y-109610484D01*
X134410051Y-109608628D01*
X134520974Y-109608172D01*
X134543000Y-109608167D01*
X134839333Y-109608167D01*
X134839333Y-109438834D01*
X134840217Y-109354465D01*
X134844288Y-109303900D01*
X134853674Y-109278625D01*
X134870505Y-109270124D01*
X134881667Y-109269500D01*
X134900934Y-109272406D01*
X134913268Y-109286229D01*
X134920202Y-109318633D01*
X134923267Y-109377279D01*
X134923996Y-109469831D01*
X134924000Y-109481167D01*
X134924000Y-109692834D01*
X134585333Y-109692834D01*
X134458700Y-109692587D01*
X134368307Y-109691337D01*
X134308063Y-109688325D01*
X134271877Y-109682787D01*
X134253657Y-109673963D01*
X134247310Y-109661091D01*
X134246667Y-109650500D01*
X134248865Y-109633749D01*
G36*
X134250769Y-108391687D02*
G01*
X134261041Y-108278663D01*
X134280414Y-108201643D01*
X134312670Y-108154633D01*
X134361590Y-108131640D01*
X134418080Y-108126500D01*
X134487185Y-108136891D01*
X134528586Y-108169788D01*
X134552462Y-108198001D01*
X134566404Y-108191659D01*
X134571822Y-108179415D01*
X134606671Y-108139839D01*
X134667021Y-108111322D01*
X134736413Y-108099312D01*
X134791675Y-108106649D01*
X134830777Y-108124101D01*
X134861428Y-108149272D01*
X134884630Y-108187049D01*
X134901386Y-108242318D01*
X134912698Y-108319965D01*
X134919569Y-108424876D01*
X134923000Y-108561938D01*
X134923995Y-108736036D01*
X134924000Y-108751635D01*
X134924000Y-109227167D01*
X134876375Y-109224712D01*
X134847727Y-109221116D01*
X134859788Y-109214215D01*
X134865792Y-109212576D01*
X134880173Y-109204994D01*
X134890301Y-109186734D01*
X134896902Y-109151395D01*
X134900706Y-109092576D01*
X134902440Y-109003873D01*
X134902833Y-108886948D01*
X134901559Y-108768862D01*
X134897989Y-108673242D01*
X134892499Y-108606053D01*
X134885466Y-108573259D01*
X134882876Y-108571000D01*
X134853365Y-108580525D01*
X134803134Y-108604425D01*
X134782335Y-108615579D01*
X134701750Y-108660157D01*
X134754667Y-108616050D01*
X134807583Y-108571942D01*
X134606500Y-108571608D01*
X134606500Y-108486334D01*
X134844421Y-108486334D01*
X134835113Y-108357652D01*
X134824109Y-108274506D01*
X134806342Y-108222115D01*
X134795528Y-108209809D01*
X134733133Y-108191255D01*
X134669068Y-108203232D01*
X134639762Y-108223262D01*
X134615321Y-108275001D01*
X134606525Y-108365185D01*
X134606500Y-108371429D01*
X134606500Y-108486334D01*
X134606500Y-108571608D01*
X134524470Y-108571471D01*
X134310167Y-108571115D01*
X134310167Y-108486334D01*
X134521833Y-108486334D01*
X134521833Y-108374150D01*
X134517295Y-108305810D01*
X134505683Y-108253561D01*
X134496433Y-108236567D01*
X134446097Y-108213025D01*
X134386309Y-108222191D01*
X134348875Y-108246198D01*
X134321030Y-108291252D01*
X134310444Y-108365039D01*
X134310167Y-108383781D01*
X134310167Y-108486334D01*
X134310167Y-108571115D01*
X134241358Y-108571000D01*
X134250769Y-108391687D01*
G37*
X134250769Y-108391687D02*
X134261041Y-108278663D01*
X134280414Y-108201643D01*
X134312670Y-108154633D01*
X134361590Y-108131640D01*
X134418080Y-108126500D01*
X134487185Y-108136891D01*
X134528586Y-108169788D01*
X134552462Y-108198001D01*
X134566404Y-108191659D01*
X134571822Y-108179415D01*
X134606671Y-108139839D01*
X134667021Y-108111322D01*
X134736413Y-108099312D01*
X134791675Y-108106649D01*
X134830777Y-108124101D01*
X134861428Y-108149272D01*
X134884630Y-108187049D01*
X134901386Y-108242318D01*
X134912698Y-108319965D01*
X134919569Y-108424876D01*
X134923000Y-108561938D01*
X134923995Y-108736036D01*
X134924000Y-108751635D01*
X134924000Y-109227167D01*
X134876375Y-109224712D01*
X134847727Y-109221116D01*
X134859788Y-109214215D01*
X134865792Y-109212576D01*
X134880173Y-109204994D01*
X134890301Y-109186734D01*
X134896902Y-109151395D01*
X134900706Y-109092576D01*
X134902440Y-109003873D01*
X134902833Y-108886948D01*
X134901559Y-108768862D01*
X134897989Y-108673242D01*
X134892499Y-108606053D01*
X134885466Y-108573259D01*
X134882876Y-108571000D01*
X134853365Y-108580525D01*
X134803134Y-108604425D01*
X134782335Y-108615579D01*
X134701750Y-108660157D01*
X134754667Y-108616050D01*
X134807583Y-108571942D01*
X134606500Y-108571608D01*
X134606500Y-108486334D01*
X134844421Y-108486334D01*
X134835113Y-108357652D01*
X134824109Y-108274506D01*
X134806342Y-108222115D01*
X134795528Y-108209809D01*
X134733133Y-108191255D01*
X134669068Y-108203232D01*
X134639762Y-108223262D01*
X134615321Y-108275001D01*
X134606525Y-108365185D01*
X134606500Y-108371429D01*
X134606500Y-108486334D01*
X134606500Y-108571608D01*
X134524470Y-108571471D01*
X134310167Y-108571115D01*
X134310167Y-108486334D01*
X134521833Y-108486334D01*
X134521833Y-108374150D01*
X134517295Y-108305810D01*
X134505683Y-108253561D01*
X134496433Y-108236567D01*
X134446097Y-108213025D01*
X134386309Y-108222191D01*
X134348875Y-108246198D01*
X134321030Y-108291252D01*
X134310444Y-108365039D01*
X134310167Y-108383781D01*
X134310167Y-108486334D01*
X134310167Y-108571115D01*
X134241358Y-108571000D01*
X134250769Y-108391687D01*
G36*
X134251958Y-107642494D02*
G01*
X134268357Y-107576350D01*
X134287236Y-107543210D01*
X134313972Y-107533845D01*
X134315236Y-107533834D01*
X134344729Y-107541884D01*
X134340290Y-107570875D01*
X134328953Y-107612942D01*
X134318831Y-107678565D01*
X134314999Y-107717335D01*
X134312145Y-107783982D01*
X134319930Y-107823289D01*
X134342901Y-107849811D01*
X134360187Y-107861966D01*
X134423029Y-107885605D01*
X134475421Y-107873055D01*
X134508564Y-107827152D01*
X134512395Y-107812881D01*
X134535847Y-107708554D01*
X134557118Y-107637535D01*
X134579944Y-107591215D01*
X134608061Y-107560985D01*
X134627406Y-107547938D01*
X134715534Y-107515151D01*
X134797504Y-107522062D01*
X134867874Y-107568162D01*
X134870227Y-107570659D01*
X134900412Y-107609342D01*
X134916619Y-107652090D01*
X134922808Y-107713499D01*
X134923356Y-107766451D01*
X134919815Y-107843999D01*
X134911237Y-107908199D01*
X134901138Y-107941292D01*
X134872575Y-107969078D01*
X134839852Y-107978206D01*
X134819435Y-107965464D01*
X134818167Y-107957471D01*
X134823287Y-107925676D01*
X134836190Y-107870026D01*
X134843008Y-107843727D01*
X134854170Y-107752376D01*
X134838354Y-107675828D01*
X134798518Y-107622772D01*
X134761717Y-107605139D01*
X134703614Y-107609701D01*
X134654516Y-107644723D01*
X134628775Y-107698669D01*
X134627667Y-107712875D01*
X134618463Y-107756492D01*
X134594770Y-107820554D01*
X134572857Y-107868345D01*
X134540200Y-107930281D01*
X134513511Y-107963114D01*
X134480766Y-107976059D01*
X134429945Y-107978334D01*
X134429394Y-107978334D01*
X134345739Y-107960620D01*
X134285203Y-107909988D01*
X134249776Y-107830200D01*
X134241445Y-107725021D01*
X134251958Y-107642494D01*
G37*
X134251958Y-107642494D02*
X134268357Y-107576350D01*
X134287236Y-107543210D01*
X134313972Y-107533845D01*
X134315236Y-107533834D01*
X134344729Y-107541884D01*
X134340290Y-107570875D01*
X134328953Y-107612942D01*
X134318831Y-107678565D01*
X134314999Y-107717335D01*
X134312145Y-107783982D01*
X134319930Y-107823289D01*
X134342901Y-107849811D01*
X134360187Y-107861966D01*
X134423029Y-107885605D01*
X134475421Y-107873055D01*
X134508564Y-107827152D01*
X134512395Y-107812881D01*
X134535847Y-107708554D01*
X134557118Y-107637535D01*
X134579944Y-107591215D01*
X134608061Y-107560985D01*
X134627406Y-107547938D01*
X134715534Y-107515151D01*
X134797504Y-107522062D01*
X134867874Y-107568162D01*
X134870227Y-107570659D01*
X134900412Y-107609342D01*
X134916619Y-107652090D01*
X134922808Y-107713499D01*
X134923356Y-107766451D01*
X134919815Y-107843999D01*
X134911237Y-107908199D01*
X134901138Y-107941292D01*
X134872575Y-107969078D01*
X134839852Y-107978206D01*
X134819435Y-107965464D01*
X134818167Y-107957471D01*
X134823287Y-107925676D01*
X134836190Y-107870026D01*
X134843008Y-107843727D01*
X134854170Y-107752376D01*
X134838354Y-107675828D01*
X134798518Y-107622772D01*
X134761717Y-107605139D01*
X134703614Y-107609701D01*
X134654516Y-107644723D01*
X134628775Y-107698669D01*
X134627667Y-107712875D01*
X134618463Y-107756492D01*
X134594770Y-107820554D01*
X134572857Y-107868345D01*
X134540200Y-107930281D01*
X134513511Y-107963114D01*
X134480766Y-107976059D01*
X134429945Y-107978334D01*
X134429394Y-107978334D01*
X134345739Y-107960620D01*
X134285203Y-107909988D01*
X134249776Y-107830200D01*
X134241445Y-107725021D01*
X134251958Y-107642494D01*
G36*
X134788801Y-109170943D02*
G01*
X134797000Y-109174250D01*
X134817192Y-109193271D01*
X134818167Y-109196666D01*
X134801790Y-109205758D01*
X134797000Y-109206000D01*
X134776647Y-109189729D01*
X134775833Y-109183585D01*
X134788801Y-109170943D01*
G37*
X134788801Y-109170943D02*
X134797000Y-109174250D01*
X134817192Y-109193271D01*
X134818167Y-109196666D01*
X134801790Y-109205758D01*
X134797000Y-109206000D01*
X134776647Y-109189729D01*
X134775833Y-109183585D01*
X134788801Y-109170943D01*
G36*
X134586468Y-108864265D02*
G01*
X134620529Y-108824983D01*
X134673502Y-108777309D01*
X134715107Y-108764473D01*
X134755308Y-108784748D01*
X134770542Y-108798993D01*
X134804178Y-108849120D01*
X134813078Y-108898380D01*
X134795750Y-108933286D01*
X134785964Y-108938662D01*
X134763408Y-108959610D01*
X134765157Y-108973018D01*
X134766663Y-108992950D01*
X134761207Y-108994623D01*
X134729196Y-108999866D01*
X134693148Y-109008540D01*
X134657576Y-109012642D01*
X134655985Y-108999886D01*
X134651974Y-108974872D01*
X134636787Y-108964951D01*
X134614319Y-108944976D01*
X134615620Y-108933201D01*
X134609783Y-108910874D01*
X134594017Y-108901284D01*
X134577370Y-108888070D01*
X134586468Y-108864265D01*
G37*
X134586468Y-108864265D02*
X134620529Y-108824983D01*
X134673502Y-108777309D01*
X134715107Y-108764473D01*
X134755308Y-108784748D01*
X134770542Y-108798993D01*
X134804178Y-108849120D01*
X134813078Y-108898380D01*
X134795750Y-108933286D01*
X134785964Y-108938662D01*
X134763408Y-108959610D01*
X134765157Y-108973018D01*
X134766663Y-108992950D01*
X134761207Y-108994623D01*
X134729196Y-108999866D01*
X134693148Y-109008540D01*
X134657576Y-109012642D01*
X134655985Y-108999886D01*
X134651974Y-108974872D01*
X134636787Y-108964951D01*
X134614319Y-108944976D01*
X134615620Y-108933201D01*
X134609783Y-108910874D01*
X134594017Y-108901284D01*
X134577370Y-108888070D01*
X134586468Y-108864265D01*
G36*
X134557506Y-109026906D02*
G01*
X134590362Y-109041828D01*
X134623580Y-109059378D01*
X134683593Y-109095722D01*
X134728693Y-109129348D01*
X134751654Y-109154060D01*
X134745263Y-109163667D01*
X134721458Y-109152101D01*
X134677012Y-109123325D01*
X134624620Y-109086223D01*
X134576974Y-109049681D01*
X134553583Y-109029513D01*
X134557506Y-109026906D01*
G37*
X134557506Y-109026906D02*
X134590362Y-109041828D01*
X134623580Y-109059378D01*
X134683593Y-109095722D01*
X134728693Y-109129348D01*
X134751654Y-109154060D01*
X134745263Y-109163667D01*
X134721458Y-109152101D01*
X134677012Y-109123325D01*
X134624620Y-109086223D01*
X134576974Y-109049681D01*
X134553583Y-109029513D01*
X134557506Y-109026906D01*
G36*
X134634309Y-108708045D02*
G01*
X134646133Y-108692709D01*
X134672244Y-108663394D01*
X134683175Y-108655667D01*
X134689511Y-108665963D01*
X134662320Y-108694102D01*
X134654125Y-108700700D01*
X134629053Y-108719006D01*
X134634309Y-108708045D01*
G37*
X134634309Y-108708045D02*
X134646133Y-108692709D01*
X134672244Y-108663394D01*
X134683175Y-108655667D01*
X134689511Y-108665963D01*
X134662320Y-108694102D01*
X134654125Y-108700700D01*
X134629053Y-108719006D01*
X134634309Y-108708045D01*
G36*
X134579532Y-108720029D02*
G01*
X134585333Y-108719167D01*
X134605950Y-108726389D01*
X134606500Y-108728501D01*
X134591668Y-108746573D01*
X134585333Y-108750917D01*
X134565828Y-108749239D01*
X134564167Y-108741583D01*
X134579532Y-108720029D01*
G37*
X134579532Y-108720029D02*
X134585333Y-108719167D01*
X134605950Y-108726389D01*
X134606500Y-108728501D01*
X134591668Y-108746573D01*
X134585333Y-108750917D01*
X134565828Y-108749239D01*
X134564167Y-108741583D01*
X134579532Y-108720029D01*
G36*
X134494904Y-108783312D02*
G01*
X134510337Y-108775363D01*
X134540162Y-108769947D01*
X134534373Y-108784166D01*
X134520425Y-108794121D01*
X134492722Y-108800627D01*
X134487762Y-108797985D01*
X134494904Y-108783312D01*
G37*
X134494904Y-108783312D02*
X134510337Y-108775363D01*
X134540162Y-108769947D01*
X134534373Y-108784166D01*
X134520425Y-108794121D01*
X134492722Y-108800627D01*
X134487762Y-108797985D01*
X134494904Y-108783312D01*
G36*
X134470919Y-108961300D02*
G01*
X134490083Y-108973167D01*
X134516370Y-108998214D01*
X134521833Y-109006845D01*
X134505810Y-109007055D01*
X134490083Y-109001988D01*
X134462040Y-108979782D01*
X134458333Y-108968311D01*
X134470919Y-108961300D01*
G37*
X134470919Y-108961300D02*
X134490083Y-108973167D01*
X134516370Y-108998214D01*
X134521833Y-109006845D01*
X134505810Y-109007055D01*
X134490083Y-109001988D01*
X134462040Y-108979782D01*
X134458333Y-108968311D01*
X134470919Y-108961300D01*
G36*
X134347455Y-108810030D02*
G01*
X134402607Y-108806622D01*
X134432122Y-108810457D01*
X134437070Y-108816179D01*
X134406673Y-108819389D01*
X134384250Y-108819663D01*
X134343259Y-108817579D01*
X134337040Y-108812798D01*
X134347455Y-108810030D01*
G37*
X134347455Y-108810030D02*
X134402607Y-108806622D01*
X134432122Y-108810457D01*
X134437070Y-108816179D01*
X134406673Y-108819389D01*
X134384250Y-108819663D01*
X134343259Y-108817579D01*
X134337040Y-108812798D01*
X134347455Y-108810030D01*
G36*
X133678528Y-110029799D02*
G01*
X133692917Y-109989414D01*
X133724795Y-109959455D01*
X133733466Y-109953567D01*
X133816893Y-109899932D01*
X133885762Y-109859685D01*
X133945042Y-109828591D01*
X134013833Y-109793844D01*
X134013833Y-107614010D01*
X133960917Y-107572386D01*
X133918501Y-107516912D01*
X133909553Y-107453115D01*
X133929919Y-107392083D01*
X133975445Y-107344905D01*
X134041980Y-107322670D01*
X134054630Y-107322167D01*
X134121870Y-107341693D01*
X134160464Y-107377938D01*
X134195112Y-107430798D01*
X134200230Y-107473798D01*
X134179108Y-107523250D01*
X134147720Y-107564810D01*
X134126835Y-107582511D01*
X134120389Y-107593108D01*
X134114952Y-107618613D01*
X134110446Y-107662096D01*
X134106795Y-107726629D01*
X134103920Y-107815281D01*
X134101746Y-107931123D01*
X134100194Y-108077226D01*
X134099187Y-108256662D01*
X134098648Y-108472500D01*
X134098500Y-108708846D01*
X134098500Y-109818254D01*
X134058188Y-109842011D01*
X134058188Y-107535470D01*
X134102034Y-107522730D01*
X134106448Y-107518830D01*
X134117407Y-107482243D01*
X134104353Y-107435630D01*
X134072988Y-107399119D01*
X134072439Y-107398771D01*
X134030058Y-107391560D01*
X133994681Y-107415123D01*
X133977729Y-107458133D01*
X133981334Y-107489140D01*
X134010794Y-107522575D01*
X134058188Y-107535470D01*
X134058188Y-109842011D01*
X133923875Y-109921166D01*
X133842961Y-109969616D01*
X133791587Y-110004398D01*
X133762637Y-110033028D01*
X133748997Y-110063019D01*
X133743552Y-110101884D01*
X133742741Y-110112457D01*
X133731487Y-110176168D01*
X133709604Y-110200475D01*
X133705699Y-110200834D01*
X133686129Y-110187997D01*
X133676753Y-110144871D01*
X133675167Y-110096442D01*
X133678528Y-110029799D01*
G37*
X133678528Y-110029799D02*
X133692917Y-109989414D01*
X133724795Y-109959455D01*
X133733466Y-109953567D01*
X133816893Y-109899932D01*
X133885762Y-109859685D01*
X133945042Y-109828591D01*
X134013833Y-109793844D01*
X134013833Y-107614010D01*
X133960917Y-107572386D01*
X133918501Y-107516912D01*
X133909553Y-107453115D01*
X133929919Y-107392083D01*
X133975445Y-107344905D01*
X134041980Y-107322670D01*
X134054630Y-107322167D01*
X134121870Y-107341693D01*
X134160464Y-107377938D01*
X134195112Y-107430798D01*
X134200230Y-107473798D01*
X134179108Y-107523250D01*
X134147720Y-107564810D01*
X134126835Y-107582511D01*
X134120389Y-107593108D01*
X134114952Y-107618613D01*
X134110446Y-107662096D01*
X134106795Y-107726629D01*
X134103920Y-107815281D01*
X134101746Y-107931123D01*
X134100194Y-108077226D01*
X134099187Y-108256662D01*
X134098648Y-108472500D01*
X134098500Y-108708846D01*
X134098500Y-109818254D01*
X134058188Y-109842011D01*
X134058188Y-107535470D01*
X134102034Y-107522730D01*
X134106448Y-107518830D01*
X134117407Y-107482243D01*
X134104353Y-107435630D01*
X134072988Y-107399119D01*
X134072439Y-107398771D01*
X134030058Y-107391560D01*
X133994681Y-107415123D01*
X133977729Y-107458133D01*
X133981334Y-107489140D01*
X134010794Y-107522575D01*
X134058188Y-107535470D01*
X134058188Y-109842011D01*
X133923875Y-109921166D01*
X133842961Y-109969616D01*
X133791587Y-110004398D01*
X133762637Y-110033028D01*
X133748997Y-110063019D01*
X133743552Y-110101884D01*
X133742741Y-110112457D01*
X133731487Y-110176168D01*
X133709604Y-110200475D01*
X133705699Y-110200834D01*
X133686129Y-110187997D01*
X133676753Y-110144871D01*
X133675167Y-110096442D01*
X133678528Y-110029799D01*
G36*
X133678286Y-111471240D02*
G01*
X133689084Y-111436889D01*
X133706917Y-111428500D01*
X133729027Y-111442529D01*
X133738108Y-111488992D01*
X133738667Y-111512885D01*
X133740102Y-111553281D01*
X133749059Y-111583227D01*
X133772519Y-111610255D01*
X133817458Y-111641898D01*
X133890855Y-111685688D01*
X133908000Y-111695658D01*
X134077333Y-111794047D01*
X134077333Y-114108941D01*
X134077405Y-114479890D01*
X134077636Y-114810641D01*
X134078054Y-115103326D01*
X134078685Y-115360082D01*
X134079554Y-115583041D01*
X134080688Y-115774338D01*
X134082113Y-115936107D01*
X134083855Y-116070483D01*
X134085940Y-116179599D01*
X134088395Y-116265590D01*
X134091245Y-116330590D01*
X134094517Y-116376734D01*
X134098237Y-116406155D01*
X134102430Y-116420988D01*
X134105686Y-116423834D01*
X134133312Y-116441589D01*
X134161108Y-116483537D01*
X134179375Y-116532703D01*
X134181825Y-116557121D01*
X134173244Y-116596201D01*
X134162078Y-116628215D01*
X134125880Y-116667879D01*
X134066835Y-116689631D01*
X134032606Y-116689269D01*
X134032606Y-116610894D01*
X134078558Y-116605899D01*
X134101074Y-116589727D01*
X134117137Y-116556696D01*
X134110340Y-116527659D01*
X134089156Y-116496671D01*
X134058639Y-116468926D01*
X134024851Y-116476399D01*
X134020365Y-116479057D01*
X133987404Y-116516987D01*
X133982364Y-116562154D01*
X134003784Y-116598836D01*
X134032606Y-116610894D01*
X134032606Y-116689269D01*
X134002255Y-116688948D01*
X133971728Y-116677956D01*
X133925961Y-116634844D01*
X133903162Y-116575456D01*
X133903329Y-116512798D01*
X133926460Y-116459876D01*
X133971755Y-116429900D01*
X133978382Y-116427564D01*
X133984274Y-116422647D01*
X133989474Y-116412789D01*
X133994026Y-116395626D01*
X133997971Y-116368799D01*
X134001354Y-116329944D01*
X134004218Y-116276702D01*
X134006605Y-116206710D01*
X134008560Y-116117606D01*
X134010124Y-116007030D01*
X134011342Y-115872620D01*
X134012256Y-115712014D01*
X134012909Y-115522850D01*
X134013346Y-115302768D01*
X134013608Y-115049405D01*
X134013739Y-114760400D01*
X134013782Y-114433392D01*
X134013782Y-114130073D01*
X134013732Y-111841250D01*
X133675268Y-111650750D01*
X133675217Y-111539625D01*
X133678286Y-111471240D01*
G37*
X133678286Y-111471240D02*
X133689084Y-111436889D01*
X133706917Y-111428500D01*
X133729027Y-111442529D01*
X133738108Y-111488992D01*
X133738667Y-111512885D01*
X133740102Y-111553281D01*
X133749059Y-111583227D01*
X133772519Y-111610255D01*
X133817458Y-111641898D01*
X133890855Y-111685688D01*
X133908000Y-111695658D01*
X134077333Y-111794047D01*
X134077333Y-114108941D01*
X134077405Y-114479890D01*
X134077636Y-114810641D01*
X134078054Y-115103326D01*
X134078685Y-115360082D01*
X134079554Y-115583041D01*
X134080688Y-115774338D01*
X134082113Y-115936107D01*
X134083855Y-116070483D01*
X134085940Y-116179599D01*
X134088395Y-116265590D01*
X134091245Y-116330590D01*
X134094517Y-116376734D01*
X134098237Y-116406155D01*
X134102430Y-116420988D01*
X134105686Y-116423834D01*
X134133312Y-116441589D01*
X134161108Y-116483537D01*
X134179375Y-116532703D01*
X134181825Y-116557121D01*
X134173244Y-116596201D01*
X134162078Y-116628215D01*
X134125880Y-116667879D01*
X134066835Y-116689631D01*
X134032606Y-116689269D01*
X134032606Y-116610894D01*
X134078558Y-116605899D01*
X134101074Y-116589727D01*
X134117137Y-116556696D01*
X134110340Y-116527659D01*
X134089156Y-116496671D01*
X134058639Y-116468926D01*
X134024851Y-116476399D01*
X134020365Y-116479057D01*
X133987404Y-116516987D01*
X133982364Y-116562154D01*
X134003784Y-116598836D01*
X134032606Y-116610894D01*
X134032606Y-116689269D01*
X134002255Y-116688948D01*
X133971728Y-116677956D01*
X133925961Y-116634844D01*
X133903162Y-116575456D01*
X133903329Y-116512798D01*
X133926460Y-116459876D01*
X133971755Y-116429900D01*
X133978382Y-116427564D01*
X133984274Y-116422647D01*
X133989474Y-116412789D01*
X133994026Y-116395626D01*
X133997971Y-116368799D01*
X134001354Y-116329944D01*
X134004218Y-116276702D01*
X134006605Y-116206710D01*
X134008560Y-116117606D01*
X134010124Y-116007030D01*
X134011342Y-115872620D01*
X134012256Y-115712014D01*
X134012909Y-115522850D01*
X134013346Y-115302768D01*
X134013608Y-115049405D01*
X134013739Y-114760400D01*
X134013782Y-114433392D01*
X134013782Y-114130073D01*
X134013732Y-111841250D01*
X133675268Y-111650750D01*
X133675217Y-111539625D01*
X133678286Y-111471240D01*
G36*
X133138817Y-116076994D02*
G01*
X133179415Y-116045290D01*
X133223787Y-116028513D01*
X133287287Y-116022243D01*
X133330992Y-116021667D01*
X133463500Y-116021667D01*
X133463500Y-116275667D01*
X133464296Y-116385177D01*
X133467224Y-116458851D01*
X133473093Y-116503165D01*
X133482713Y-116524594D01*
X133495250Y-116529667D01*
X133509749Y-116522853D01*
X133519180Y-116497857D01*
X133524522Y-116447843D01*
X133526749Y-116365978D01*
X133527000Y-116307417D01*
X133527000Y-116085167D01*
X133696333Y-116085167D01*
X133694991Y-116323292D01*
X133692941Y-116423518D01*
X133688421Y-116511310D01*
X133682143Y-116576061D01*
X133676193Y-116604485D01*
X133655102Y-116645654D01*
X133626145Y-116673262D01*
X133581582Y-116689540D01*
X133513675Y-116696721D01*
X133414684Y-116697037D01*
X133360215Y-116695604D01*
X133273000Y-116691559D01*
X133273000Y-116529667D01*
X133283665Y-116509969D01*
X133291099Y-116456648D01*
X133294147Y-116378362D01*
X133294167Y-116370917D01*
X133291540Y-116290927D01*
X133284431Y-116235174D01*
X133273992Y-116212316D01*
X133273000Y-116212167D01*
X133262334Y-116231865D01*
X133254901Y-116285187D01*
X133251853Y-116363473D01*
X133251833Y-116370917D01*
X133254460Y-116450907D01*
X133261569Y-116506661D01*
X133272007Y-116529519D01*
X133273000Y-116529667D01*
X133273000Y-116691559D01*
X133264591Y-116691168D01*
X133184716Y-116684703D01*
X133130035Y-116677147D01*
X133110667Y-116670839D01*
X133103373Y-116643974D01*
X133096352Y-116583599D01*
X133090384Y-116498534D01*
X133086248Y-116397599D01*
X133086116Y-116392790D01*
X133079150Y-116132320D01*
X133138817Y-116076994D01*
G37*
X133138817Y-116076994D02*
X133179415Y-116045290D01*
X133223787Y-116028513D01*
X133287287Y-116022243D01*
X133330992Y-116021667D01*
X133463500Y-116021667D01*
X133463500Y-116275667D01*
X133464296Y-116385177D01*
X133467224Y-116458851D01*
X133473093Y-116503165D01*
X133482713Y-116524594D01*
X133495250Y-116529667D01*
X133509749Y-116522853D01*
X133519180Y-116497857D01*
X133524522Y-116447843D01*
X133526749Y-116365978D01*
X133527000Y-116307417D01*
X133527000Y-116085167D01*
X133696333Y-116085167D01*
X133694991Y-116323292D01*
X133692941Y-116423518D01*
X133688421Y-116511310D01*
X133682143Y-116576061D01*
X133676193Y-116604485D01*
X133655102Y-116645654D01*
X133626145Y-116673262D01*
X133581582Y-116689540D01*
X133513675Y-116696721D01*
X133414684Y-116697037D01*
X133360215Y-116695604D01*
X133273000Y-116691559D01*
X133273000Y-116529667D01*
X133283665Y-116509969D01*
X133291099Y-116456648D01*
X133294147Y-116378362D01*
X133294167Y-116370917D01*
X133291540Y-116290927D01*
X133284431Y-116235174D01*
X133273992Y-116212316D01*
X133273000Y-116212167D01*
X133262334Y-116231865D01*
X133254901Y-116285187D01*
X133251853Y-116363473D01*
X133251833Y-116370917D01*
X133254460Y-116450907D01*
X133261569Y-116506661D01*
X133272007Y-116529519D01*
X133273000Y-116529667D01*
X133273000Y-116691559D01*
X133264591Y-116691168D01*
X133184716Y-116684703D01*
X133130035Y-116677147D01*
X133110667Y-116670839D01*
X133103373Y-116643974D01*
X133096352Y-116583599D01*
X133090384Y-116498534D01*
X133086248Y-116397599D01*
X133086116Y-116392790D01*
X133079150Y-116132320D01*
X133138817Y-116076994D01*
G36*
X133696333Y-115429000D02*
G01*
X133696333Y-115619500D01*
X132955500Y-115619500D01*
X132955500Y-115429000D01*
X133696333Y-115429000D01*
G37*
X133696333Y-115429000D02*
X133696333Y-115619500D01*
X132955500Y-115619500D01*
X132955500Y-115429000D01*
X133696333Y-115429000D01*
G36*
X133084455Y-114546466D02*
G01*
X133093239Y-114458024D01*
X133113225Y-114398977D01*
X133148788Y-114362891D01*
X133204303Y-114343331D01*
X133284146Y-114333866D01*
X133312786Y-114332073D01*
X133463500Y-114323557D01*
X133463500Y-114579945D01*
X133464285Y-114690040D01*
X133467173Y-114764272D01*
X133472962Y-114809093D01*
X133482452Y-114830954D01*
X133495250Y-114836334D01*
X133509749Y-114829520D01*
X133519180Y-114804523D01*
X133524522Y-114754509D01*
X133526749Y-114672644D01*
X133527000Y-114614084D01*
X133527000Y-114391834D01*
X133696333Y-114391834D01*
X133693878Y-114619375D01*
X133691922Y-114717413D01*
X133688572Y-114802932D01*
X133684350Y-114865011D01*
X133681017Y-114889250D01*
X133668519Y-114928007D01*
X133648603Y-114954574D01*
X133614001Y-114971227D01*
X133557443Y-114980244D01*
X133471660Y-114983902D01*
X133376986Y-114984500D01*
X133273000Y-114983906D01*
X133273000Y-114836334D01*
X133283482Y-114816530D01*
X133290848Y-114762462D01*
X133294096Y-114682149D01*
X133294167Y-114667000D01*
X133291691Y-114583142D01*
X133284933Y-114524214D01*
X133274893Y-114498232D01*
X133273000Y-114497667D01*
X133262518Y-114517471D01*
X133255151Y-114571539D01*
X133251904Y-114651852D01*
X133251833Y-114667000D01*
X133254309Y-114750859D01*
X133261067Y-114809787D01*
X133271106Y-114835769D01*
X133273000Y-114836334D01*
X133273000Y-114983906D01*
X133269291Y-114983884D01*
X133196237Y-114981264D01*
X133150139Y-114975486D01*
X133123313Y-114965397D01*
X133108075Y-114949842D01*
X133104411Y-114943559D01*
X133095427Y-114906260D01*
X133088226Y-114837331D01*
X133083668Y-114747465D01*
X133082500Y-114670737D01*
X133084455Y-114546466D01*
G37*
X133084455Y-114546466D02*
X133093239Y-114458024D01*
X133113225Y-114398977D01*
X133148788Y-114362891D01*
X133204303Y-114343331D01*
X133284146Y-114333866D01*
X133312786Y-114332073D01*
X133463500Y-114323557D01*
X133463500Y-114579945D01*
X133464285Y-114690040D01*
X133467173Y-114764272D01*
X133472962Y-114809093D01*
X133482452Y-114830954D01*
X133495250Y-114836334D01*
X133509749Y-114829520D01*
X133519180Y-114804523D01*
X133524522Y-114754509D01*
X133526749Y-114672644D01*
X133527000Y-114614084D01*
X133527000Y-114391834D01*
X133696333Y-114391834D01*
X133693878Y-114619375D01*
X133691922Y-114717413D01*
X133688572Y-114802932D01*
X133684350Y-114865011D01*
X133681017Y-114889250D01*
X133668519Y-114928007D01*
X133648603Y-114954574D01*
X133614001Y-114971227D01*
X133557443Y-114980244D01*
X133471660Y-114983902D01*
X133376986Y-114984500D01*
X133273000Y-114983906D01*
X133273000Y-114836334D01*
X133283482Y-114816530D01*
X133290848Y-114762462D01*
X133294096Y-114682149D01*
X133294167Y-114667000D01*
X133291691Y-114583142D01*
X133284933Y-114524214D01*
X133274893Y-114498232D01*
X133273000Y-114497667D01*
X133262518Y-114517471D01*
X133255151Y-114571539D01*
X133251904Y-114651852D01*
X133251833Y-114667000D01*
X133254309Y-114750859D01*
X133261067Y-114809787D01*
X133271106Y-114835769D01*
X133273000Y-114836334D01*
X133273000Y-114983906D01*
X133269291Y-114983884D01*
X133196237Y-114981264D01*
X133150139Y-114975486D01*
X133123313Y-114965397D01*
X133108075Y-114949842D01*
X133104411Y-114943559D01*
X133095427Y-114906260D01*
X133088226Y-114837331D01*
X133083668Y-114747465D01*
X133082500Y-114670737D01*
X133084455Y-114546466D01*
G36*
X133251833Y-113270000D02*
G01*
X133251833Y-113714500D01*
X133527000Y-113714500D01*
X133527000Y-113227667D01*
X133696333Y-113227667D01*
X133693878Y-113486959D01*
X133692128Y-113591172D01*
X133689184Y-113682840D01*
X133685458Y-113752008D01*
X133681393Y-113788584D01*
X133660504Y-113837868D01*
X133621030Y-113871716D01*
X133556682Y-113892495D01*
X133461173Y-113902575D01*
X133373542Y-113904530D01*
X133267624Y-113903697D01*
X133191138Y-113896696D01*
X133139292Y-113877613D01*
X133107296Y-113840532D01*
X133090359Y-113779538D01*
X133083692Y-113688717D01*
X133082502Y-113562153D01*
X133082500Y-113545167D01*
X133082500Y-113270000D01*
X133251833Y-113270000D01*
G37*
X133251833Y-113270000D02*
X133251833Y-113714500D01*
X133527000Y-113714500D01*
X133527000Y-113227667D01*
X133696333Y-113227667D01*
X133693878Y-113486959D01*
X133692128Y-113591172D01*
X133689184Y-113682840D01*
X133685458Y-113752008D01*
X133681393Y-113788584D01*
X133660504Y-113837868D01*
X133621030Y-113871716D01*
X133556682Y-113892495D01*
X133461173Y-113902575D01*
X133373542Y-113904530D01*
X133267624Y-113903697D01*
X133191138Y-113896696D01*
X133139292Y-113877613D01*
X133107296Y-113840532D01*
X133090359Y-113779538D01*
X133083692Y-113688717D01*
X133082502Y-113562153D01*
X133082500Y-113545167D01*
X133082500Y-113270000D01*
X133251833Y-113270000D01*
G36*
X132957967Y-112686852D02*
G01*
X132971382Y-112662537D01*
X133004762Y-112656315D01*
X133019000Y-112656167D01*
X133059717Y-112652824D01*
X133077817Y-112634706D01*
X133082400Y-112589681D01*
X133082500Y-112571500D01*
X133082500Y-112486834D01*
X133251833Y-112486834D01*
X133251833Y-112656167D01*
X133527000Y-112656167D01*
X133527000Y-112486834D01*
X133696333Y-112486834D01*
X133696021Y-112597959D01*
X133690735Y-112673147D01*
X133677655Y-112738799D01*
X133668963Y-112762000D01*
X133657963Y-112781669D01*
X133643610Y-112795854D01*
X133619360Y-112805592D01*
X133578673Y-112811921D01*
X133515006Y-112815880D01*
X133421819Y-112818507D01*
X133298858Y-112820733D01*
X132955500Y-112826549D01*
X132955500Y-112741358D01*
X132957967Y-112686852D01*
G37*
X132957967Y-112686852D02*
X132971382Y-112662537D01*
X133004762Y-112656315D01*
X133019000Y-112656167D01*
X133059717Y-112652824D01*
X133077817Y-112634706D01*
X133082400Y-112589681D01*
X133082500Y-112571500D01*
X133082500Y-112486834D01*
X133251833Y-112486834D01*
X133251833Y-112656167D01*
X133527000Y-112656167D01*
X133527000Y-112486834D01*
X133696333Y-112486834D01*
X133696021Y-112597959D01*
X133690735Y-112673147D01*
X133677655Y-112738799D01*
X133668963Y-112762000D01*
X133657963Y-112781669D01*
X133643610Y-112795854D01*
X133619360Y-112805592D01*
X133578673Y-112811921D01*
X133515006Y-112815880D01*
X133421819Y-112818507D01*
X133298858Y-112820733D01*
X132955500Y-112826549D01*
X132955500Y-112741358D01*
X132957967Y-112686852D01*
G36*
X133085672Y-111904750D02*
G01*
X133086173Y-111724834D01*
X133251833Y-111724834D01*
X133251833Y-111915334D01*
X133696333Y-111915334D01*
X133696333Y-112084667D01*
X133085170Y-112084667D01*
X133085672Y-111904750D01*
G37*
X133085672Y-111904750D02*
X133086173Y-111724834D01*
X133251833Y-111724834D01*
X133251833Y-111915334D01*
X133696333Y-111915334D01*
X133696333Y-112084667D01*
X133085170Y-112084667D01*
X133085672Y-111904750D01*
G36*
X133089192Y-110612061D02*
G01*
X133094863Y-110547575D01*
X133102268Y-110518334D01*
X133120545Y-110503985D01*
X133157431Y-110494496D01*
X133219837Y-110489037D01*
X133314672Y-110486778D01*
X133366663Y-110486584D01*
X133488560Y-110487414D01*
X133574559Y-110494047D01*
X133631095Y-110512699D01*
X133664601Y-110549584D01*
X133681511Y-110610917D01*
X133688260Y-110702913D01*
X133690599Y-110799492D01*
X133690878Y-110899955D01*
X133687883Y-110988401D01*
X133682172Y-111054047D01*
X133675954Y-111083061D01*
X133637730Y-111120034D01*
X133561286Y-111143316D01*
X133448580Y-111152559D01*
X133311502Y-111148147D01*
X133251833Y-111142693D01*
X133251833Y-110984000D01*
X133527000Y-110984000D01*
X133527000Y-110645334D01*
X133251833Y-110645334D01*
X133251833Y-110984000D01*
X133251833Y-111142693D01*
X133228815Y-111140588D01*
X133170158Y-111127301D01*
X133131199Y-111101733D01*
X133107610Y-111057333D01*
X133095060Y-110987548D01*
X133089220Y-110885825D01*
X133087180Y-110808679D01*
X133086479Y-110702020D01*
X133089192Y-110612061D01*
G37*
X133089192Y-110612061D02*
X133094863Y-110547575D01*
X133102268Y-110518334D01*
X133120545Y-110503985D01*
X133157431Y-110494496D01*
X133219837Y-110489037D01*
X133314672Y-110486778D01*
X133366663Y-110486584D01*
X133488560Y-110487414D01*
X133574559Y-110494047D01*
X133631095Y-110512699D01*
X133664601Y-110549584D01*
X133681511Y-110610917D01*
X133688260Y-110702913D01*
X133690599Y-110799492D01*
X133690878Y-110899955D01*
X133687883Y-110988401D01*
X133682172Y-111054047D01*
X133675954Y-111083061D01*
X133637730Y-111120034D01*
X133561286Y-111143316D01*
X133448580Y-111152559D01*
X133311502Y-111148147D01*
X133251833Y-111142693D01*
X133251833Y-110984000D01*
X133527000Y-110984000D01*
X133527000Y-110645334D01*
X133251833Y-110645334D01*
X133251833Y-110984000D01*
X133251833Y-111142693D01*
X133228815Y-111140588D01*
X133170158Y-111127301D01*
X133131199Y-111101733D01*
X133107610Y-111057333D01*
X133095060Y-110987548D01*
X133089220Y-110885825D01*
X133087180Y-110808679D01*
X133086479Y-110702020D01*
X133089192Y-110612061D01*
G36*
X133082824Y-109549959D02*
G01*
X133084345Y-109441047D01*
X133088285Y-109345836D01*
X133094092Y-109273117D01*
X133101210Y-109231683D01*
X133103177Y-109227167D01*
X133120490Y-109213546D01*
X133156731Y-109203575D01*
X133218076Y-109196475D01*
X133310703Y-109191468D01*
X133409770Y-109188486D01*
X133696333Y-109181554D01*
X133696333Y-109354167D01*
X133251833Y-109354167D01*
X133251833Y-109671667D01*
X133696333Y-109671667D01*
X133696333Y-109841000D01*
X133082500Y-109841000D01*
X133082824Y-109549959D01*
G37*
X133082824Y-109549959D02*
X133084345Y-109441047D01*
X133088285Y-109345836D01*
X133094092Y-109273117D01*
X133101210Y-109231683D01*
X133103177Y-109227167D01*
X133120490Y-109213546D01*
X133156731Y-109203575D01*
X133218076Y-109196475D01*
X133310703Y-109191468D01*
X133409770Y-109188486D01*
X133696333Y-109181554D01*
X133696333Y-109354167D01*
X133251833Y-109354167D01*
X133251833Y-109671667D01*
X133696333Y-109671667D01*
X133696333Y-109841000D01*
X133082500Y-109841000D01*
X133082824Y-109549959D01*
G36*
X133527000Y-108613334D02*
G01*
X133527000Y-108274667D01*
X133082500Y-108274667D01*
X133082500Y-108126500D01*
X133696333Y-108126500D01*
X133696333Y-108200584D01*
X133691148Y-108249553D01*
X133678398Y-108274028D01*
X133675690Y-108274667D01*
X133665734Y-108291504D01*
X133675690Y-108328962D01*
X133685600Y-108378448D01*
X133691638Y-108454820D01*
X133693568Y-108542787D01*
X133691154Y-108627056D01*
X133684157Y-108692336D01*
X133681511Y-108704494D01*
X133663579Y-108735569D01*
X133624872Y-108757767D01*
X133560110Y-108772245D01*
X133464014Y-108780158D01*
X133331305Y-108782663D01*
X133324539Y-108782667D01*
X133082500Y-108782667D01*
X133082500Y-108613334D01*
X133527000Y-108613334D01*
G37*
X133527000Y-108613334D02*
X133527000Y-108274667D01*
X133082500Y-108274667D01*
X133082500Y-108126500D01*
X133696333Y-108126500D01*
X133696333Y-108200584D01*
X133691148Y-108249553D01*
X133678398Y-108274028D01*
X133675690Y-108274667D01*
X133665734Y-108291504D01*
X133675690Y-108328962D01*
X133685600Y-108378448D01*
X133691638Y-108454820D01*
X133693568Y-108542787D01*
X133691154Y-108627056D01*
X133684157Y-108692336D01*
X133681511Y-108704494D01*
X133663579Y-108735569D01*
X133624872Y-108757767D01*
X133560110Y-108772245D01*
X133464014Y-108780158D01*
X133331305Y-108782663D01*
X133324539Y-108782667D01*
X133082500Y-108782667D01*
X133082500Y-108613334D01*
X133527000Y-108613334D01*
G36*
X132958007Y-107564212D02*
G01*
X132971596Y-107540078D01*
X133005364Y-107533967D01*
X133019000Y-107533834D01*
X133059717Y-107530490D01*
X133077817Y-107512372D01*
X133082400Y-107467348D01*
X133082500Y-107449167D01*
X133082500Y-107364500D01*
X133251833Y-107364500D01*
X133251833Y-107533834D01*
X133527000Y-107533834D01*
X133527000Y-107364500D01*
X133696333Y-107364500D01*
X133693878Y-107486209D01*
X133690965Y-107559353D01*
X133686071Y-107618624D01*
X133682161Y-107642787D01*
X133671623Y-107663961D01*
X133649120Y-107679572D01*
X133609016Y-107690436D01*
X133545672Y-107697372D01*
X133453450Y-107701197D01*
X133326712Y-107702727D01*
X133267708Y-107702878D01*
X132955500Y-107703167D01*
X132955500Y-107618500D01*
X132958007Y-107564212D01*
G37*
X132958007Y-107564212D02*
X132971596Y-107540078D01*
X133005364Y-107533967D01*
X133019000Y-107533834D01*
X133059717Y-107530490D01*
X133077817Y-107512372D01*
X133082400Y-107467348D01*
X133082500Y-107449167D01*
X133082500Y-107364500D01*
X133251833Y-107364500D01*
X133251833Y-107533834D01*
X133527000Y-107533834D01*
X133527000Y-107364500D01*
X133696333Y-107364500D01*
X133693878Y-107486209D01*
X133690965Y-107559353D01*
X133686071Y-107618624D01*
X133682161Y-107642787D01*
X133671623Y-107663961D01*
X133649120Y-107679572D01*
X133609016Y-107690436D01*
X133545672Y-107697372D01*
X133453450Y-107701197D01*
X133326712Y-107702727D01*
X133267708Y-107702878D01*
X132955500Y-107703167D01*
X132955500Y-107618500D01*
X132958007Y-107564212D01*
G36*
X132586963Y-116491979D02*
G01*
X132616833Y-116449877D01*
X132623478Y-116442078D01*
X132629389Y-116432174D01*
X132634608Y-116417778D01*
X132639179Y-116396499D01*
X132643145Y-116365952D01*
X132646548Y-116323746D01*
X132649431Y-116267495D01*
X132651838Y-116194809D01*
X132653812Y-116103302D01*
X132655395Y-115990584D01*
X132656631Y-115854267D01*
X132657563Y-115691963D01*
X132658233Y-115501285D01*
X132658684Y-115279843D01*
X132658961Y-115025250D01*
X132659104Y-114735118D01*
X132659159Y-114407057D01*
X132659167Y-114098604D01*
X132659167Y-111792771D01*
X132770292Y-111735267D01*
X132836451Y-111699427D01*
X132890309Y-111667420D01*
X132913167Y-111651599D01*
X132960573Y-111621676D01*
X132981958Y-111612299D01*
X133008242Y-111588323D01*
X133018520Y-111535410D01*
X133019000Y-111513831D01*
X133022491Y-111458175D01*
X133036630Y-111433458D01*
X133061333Y-111428500D01*
X133088151Y-111434975D01*
X133100593Y-111461655D01*
X133103666Y-111519419D01*
X133103667Y-111520470D01*
X133093511Y-111600316D01*
X133066625Y-111642412D01*
X133023294Y-111672294D01*
X132965032Y-111706715D01*
X132955500Y-111711876D01*
X132884862Y-111751876D01*
X132815510Y-111794521D01*
X132812769Y-111796309D01*
X132744122Y-111841250D01*
X132743978Y-114121959D01*
X132744141Y-114504587D01*
X132744674Y-114855319D01*
X132745568Y-115173100D01*
X132746813Y-115456874D01*
X132748401Y-115705583D01*
X132750321Y-115918174D01*
X132752565Y-116093590D01*
X132755123Y-116230775D01*
X132757985Y-116328673D01*
X132761143Y-116386228D01*
X132764175Y-116402667D01*
X132798584Y-116419760D01*
X132835759Y-116460383D01*
X132863275Y-116508555D01*
X132870129Y-116538950D01*
X132851728Y-116602974D01*
X132806584Y-116649685D01*
X132746324Y-116675225D01*
X132712218Y-116675498D01*
X132712218Y-116612971D01*
X132748444Y-116609551D01*
X132767876Y-116589958D01*
X132784304Y-116535732D01*
X132765072Y-116491743D01*
X132715918Y-116469912D01*
X132675744Y-116468919D01*
X132661411Y-116486648D01*
X132663002Y-116533239D01*
X132680132Y-116585584D01*
X132712218Y-116612971D01*
X132712218Y-116675498D01*
X132682577Y-116675737D01*
X132626973Y-116647364D01*
X132608684Y-116625662D01*
X132577866Y-116554685D01*
X132586963Y-116491979D01*
G37*
X132586963Y-116491979D02*
X132616833Y-116449877D01*
X132623478Y-116442078D01*
X132629389Y-116432174D01*
X132634608Y-116417778D01*
X132639179Y-116396499D01*
X132643145Y-116365952D01*
X132646548Y-116323746D01*
X132649431Y-116267495D01*
X132651838Y-116194809D01*
X132653812Y-116103302D01*
X132655395Y-115990584D01*
X132656631Y-115854267D01*
X132657563Y-115691963D01*
X132658233Y-115501285D01*
X132658684Y-115279843D01*
X132658961Y-115025250D01*
X132659104Y-114735118D01*
X132659159Y-114407057D01*
X132659167Y-114098604D01*
X132659167Y-111792771D01*
X132770292Y-111735267D01*
X132836451Y-111699427D01*
X132890309Y-111667420D01*
X132913167Y-111651599D01*
X132960573Y-111621676D01*
X132981958Y-111612299D01*
X133008242Y-111588323D01*
X133018520Y-111535410D01*
X133019000Y-111513831D01*
X133022491Y-111458175D01*
X133036630Y-111433458D01*
X133061333Y-111428500D01*
X133088151Y-111434975D01*
X133100593Y-111461655D01*
X133103666Y-111519419D01*
X133103667Y-111520470D01*
X133093511Y-111600316D01*
X133066625Y-111642412D01*
X133023294Y-111672294D01*
X132965032Y-111706715D01*
X132955500Y-111711876D01*
X132884862Y-111751876D01*
X132815510Y-111794521D01*
X132812769Y-111796309D01*
X132744122Y-111841250D01*
X132743978Y-114121959D01*
X132744141Y-114504587D01*
X132744674Y-114855319D01*
X132745568Y-115173100D01*
X132746813Y-115456874D01*
X132748401Y-115705583D01*
X132750321Y-115918174D01*
X132752565Y-116093590D01*
X132755123Y-116230775D01*
X132757985Y-116328673D01*
X132761143Y-116386228D01*
X132764175Y-116402667D01*
X132798584Y-116419760D01*
X132835759Y-116460383D01*
X132863275Y-116508555D01*
X132870129Y-116538950D01*
X132851728Y-116602974D01*
X132806584Y-116649685D01*
X132746324Y-116675225D01*
X132712218Y-116675498D01*
X132712218Y-116612971D01*
X132748444Y-116609551D01*
X132767876Y-116589958D01*
X132784304Y-116535732D01*
X132765072Y-116491743D01*
X132715918Y-116469912D01*
X132675744Y-116468919D01*
X132661411Y-116486648D01*
X132663002Y-116533239D01*
X132680132Y-116585584D01*
X132712218Y-116612971D01*
X132712218Y-116675498D01*
X132682577Y-116675737D01*
X132626973Y-116647364D01*
X132608684Y-116625662D01*
X132577866Y-116554685D01*
X132586963Y-116491979D01*
G36*
X132586529Y-107389118D02*
G01*
X132589497Y-107383895D01*
X132620863Y-107342898D01*
X132661160Y-107325358D01*
X132713314Y-107322167D01*
X132772641Y-107326559D01*
X132808382Y-107346751D01*
X132838955Y-107393265D01*
X132839490Y-107394258D01*
X132863353Y-107443702D01*
X132865967Y-107476627D01*
X132847776Y-107512865D01*
X132842335Y-107521258D01*
X132810981Y-107559912D01*
X132785822Y-107576166D01*
X132785679Y-107576167D01*
X132780730Y-107597111D01*
X132776410Y-107659056D01*
X132772744Y-107760678D01*
X132769757Y-107900648D01*
X132767472Y-108077641D01*
X132765916Y-108290329D01*
X132765112Y-108537386D01*
X132765000Y-108683042D01*
X132765000Y-109789917D01*
X132929042Y-109885489D01*
X133093083Y-109981061D01*
X133099481Y-110090948D01*
X133101499Y-110155458D01*
X133095455Y-110188277D01*
X133077846Y-110199803D01*
X133062439Y-110200834D01*
X133035106Y-110194779D01*
X133022335Y-110169306D01*
X133019011Y-110113458D01*
X133019000Y-110107802D01*
X133017020Y-110054813D01*
X133005058Y-110020839D01*
X132974081Y-109993643D01*
X132915054Y-109960986D01*
X132907875Y-109957267D01*
X132841264Y-109920795D01*
X132786630Y-109887361D01*
X132763333Y-109870382D01*
X132724869Y-109846112D01*
X132712788Y-109842985D01*
X132712788Y-107533834D01*
X132762439Y-107518077D01*
X132782975Y-107475420D01*
X132773319Y-107419148D01*
X132744934Y-107393131D01*
X132701097Y-107386847D01*
X132662723Y-107400947D01*
X132652295Y-107415376D01*
X132646929Y-107470851D01*
X132669103Y-107515139D01*
X132711452Y-107533820D01*
X132712788Y-107533834D01*
X132712788Y-109842985D01*
X132705125Y-109841000D01*
X132699332Y-109830150D01*
X132694423Y-109795999D01*
X132690344Y-109736152D01*
X132687042Y-109648213D01*
X132684464Y-109529784D01*
X132682557Y-109378471D01*
X132681269Y-109191875D01*
X132680545Y-108967600D01*
X132680333Y-108719912D01*
X132680302Y-108473644D01*
X132680121Y-108266280D01*
X132679662Y-108094393D01*
X132678793Y-107954554D01*
X132677386Y-107843335D01*
X132675310Y-107757307D01*
X132672435Y-107693042D01*
X132668632Y-107647112D01*
X132663771Y-107616088D01*
X132657722Y-107596541D01*
X132650354Y-107585044D01*
X132641539Y-107578167D01*
X132636987Y-107575625D01*
X132584923Y-107526820D01*
X132567185Y-107460941D01*
X132586529Y-107389118D01*
G37*
X132586529Y-107389118D02*
X132589497Y-107383895D01*
X132620863Y-107342898D01*
X132661160Y-107325358D01*
X132713314Y-107322167D01*
X132772641Y-107326559D01*
X132808382Y-107346751D01*
X132838955Y-107393265D01*
X132839490Y-107394258D01*
X132863353Y-107443702D01*
X132865967Y-107476627D01*
X132847776Y-107512865D01*
X132842335Y-107521258D01*
X132810981Y-107559912D01*
X132785822Y-107576166D01*
X132785679Y-107576167D01*
X132780730Y-107597111D01*
X132776410Y-107659056D01*
X132772744Y-107760678D01*
X132769757Y-107900648D01*
X132767472Y-108077641D01*
X132765916Y-108290329D01*
X132765112Y-108537386D01*
X132765000Y-108683042D01*
X132765000Y-109789917D01*
X132929042Y-109885489D01*
X133093083Y-109981061D01*
X133099481Y-110090948D01*
X133101499Y-110155458D01*
X133095455Y-110188277D01*
X133077846Y-110199803D01*
X133062439Y-110200834D01*
X133035106Y-110194779D01*
X133022335Y-110169306D01*
X133019011Y-110113458D01*
X133019000Y-110107802D01*
X133017020Y-110054813D01*
X133005058Y-110020839D01*
X132974081Y-109993643D01*
X132915054Y-109960986D01*
X132907875Y-109957267D01*
X132841264Y-109920795D01*
X132786630Y-109887361D01*
X132763333Y-109870382D01*
X132724869Y-109846112D01*
X132712788Y-109842985D01*
X132712788Y-107533834D01*
X132762439Y-107518077D01*
X132782975Y-107475420D01*
X132773319Y-107419148D01*
X132744934Y-107393131D01*
X132701097Y-107386847D01*
X132662723Y-107400947D01*
X132652295Y-107415376D01*
X132646929Y-107470851D01*
X132669103Y-107515139D01*
X132711452Y-107533820D01*
X132712788Y-107533834D01*
X132712788Y-109842985D01*
X132705125Y-109841000D01*
X132699332Y-109830150D01*
X132694423Y-109795999D01*
X132690344Y-109736152D01*
X132687042Y-109648213D01*
X132684464Y-109529784D01*
X132682557Y-109378471D01*
X132681269Y-109191875D01*
X132680545Y-108967600D01*
X132680333Y-108719912D01*
X132680302Y-108473644D01*
X132680121Y-108266280D01*
X132679662Y-108094393D01*
X132678793Y-107954554D01*
X132677386Y-107843335D01*
X132675310Y-107757307D01*
X132672435Y-107693042D01*
X132668632Y-107647112D01*
X132663771Y-107616088D01*
X132657722Y-107596541D01*
X132650354Y-107585044D01*
X132641539Y-107578167D01*
X132636987Y-107575625D01*
X132584923Y-107526820D01*
X132567185Y-107460941D01*
X132586529Y-107389118D01*
G36*
X131850453Y-111412169D02*
G01*
X131858767Y-111392213D01*
X131886745Y-111351537D01*
X131929594Y-111332336D01*
X131972579Y-111326943D01*
X132031242Y-111326883D01*
X132065015Y-111342554D01*
X132087123Y-111374568D01*
X132114832Y-111410738D01*
X132156261Y-111426081D01*
X132202864Y-111428500D01*
X132243248Y-111426462D01*
X132277336Y-111416626D01*
X132313103Y-111393413D01*
X132358525Y-111351244D01*
X132421576Y-111284538D01*
X132444883Y-111259167D01*
X132514296Y-111184378D01*
X132563672Y-111135626D01*
X132601156Y-111107357D01*
X132634889Y-111094014D01*
X132673014Y-111090043D01*
X132693096Y-111089834D01*
X132751784Y-111092741D01*
X132779190Y-111104750D01*
X132786159Y-111130796D01*
X132786167Y-111132167D01*
X132778642Y-111160418D01*
X132748611Y-111172504D01*
X132705700Y-111174500D01*
X132666267Y-111177363D01*
X132630975Y-111189714D01*
X132591592Y-111217197D01*
X132539888Y-111265455D01*
X132474174Y-111333250D01*
X132405694Y-111404422D01*
X132357248Y-111450330D01*
X132319829Y-111476511D01*
X132284432Y-111488503D01*
X132242049Y-111491844D01*
X132215974Y-111492000D01*
X132148605Y-111495430D01*
X132115588Y-111507182D01*
X132108833Y-111523207D01*
X132091652Y-111553204D01*
X132049718Y-111584864D01*
X132044051Y-111587914D01*
X131970800Y-111607348D01*
X131967722Y-111606601D01*
X131967722Y-111534334D01*
X132012174Y-111528862D01*
X132031222Y-111520223D01*
X132045156Y-111480695D01*
X132033607Y-111432760D01*
X132013853Y-111407558D01*
X131969814Y-111389628D01*
X131935300Y-111408486D01*
X131918753Y-111458597D01*
X131918333Y-111470170D01*
X131924122Y-111516100D01*
X131947854Y-111532940D01*
X131967722Y-111534334D01*
X131967722Y-111606601D01*
X131907749Y-111592027D01*
X131861964Y-111549416D01*
X131840510Y-111486975D01*
X131850453Y-111412169D01*
G37*
X131850453Y-111412169D02*
X131858767Y-111392213D01*
X131886745Y-111351537D01*
X131929594Y-111332336D01*
X131972579Y-111326943D01*
X132031242Y-111326883D01*
X132065015Y-111342554D01*
X132087123Y-111374568D01*
X132114832Y-111410738D01*
X132156261Y-111426081D01*
X132202864Y-111428500D01*
X132243248Y-111426462D01*
X132277336Y-111416626D01*
X132313103Y-111393413D01*
X132358525Y-111351244D01*
X132421576Y-111284538D01*
X132444883Y-111259167D01*
X132514296Y-111184378D01*
X132563672Y-111135626D01*
X132601156Y-111107357D01*
X132634889Y-111094014D01*
X132673014Y-111090043D01*
X132693096Y-111089834D01*
X132751784Y-111092741D01*
X132779190Y-111104750D01*
X132786159Y-111130796D01*
X132786167Y-111132167D01*
X132778642Y-111160418D01*
X132748611Y-111172504D01*
X132705700Y-111174500D01*
X132666267Y-111177363D01*
X132630975Y-111189714D01*
X132591592Y-111217197D01*
X132539888Y-111265455D01*
X132474174Y-111333250D01*
X132405694Y-111404422D01*
X132357248Y-111450330D01*
X132319829Y-111476511D01*
X132284432Y-111488503D01*
X132242049Y-111491844D01*
X132215974Y-111492000D01*
X132148605Y-111495430D01*
X132115588Y-111507182D01*
X132108833Y-111523207D01*
X132091652Y-111553204D01*
X132049718Y-111584864D01*
X132044051Y-111587914D01*
X131970800Y-111607348D01*
X131967722Y-111606601D01*
X131967722Y-111534334D01*
X132012174Y-111528862D01*
X132031222Y-111520223D01*
X132045156Y-111480695D01*
X132033607Y-111432760D01*
X132013853Y-111407558D01*
X131969814Y-111389628D01*
X131935300Y-111408486D01*
X131918753Y-111458597D01*
X131918333Y-111470170D01*
X131924122Y-111516100D01*
X131947854Y-111532940D01*
X131967722Y-111534334D01*
X131967722Y-111606601D01*
X131907749Y-111592027D01*
X131861964Y-111549416D01*
X131840510Y-111486975D01*
X131850453Y-111412169D01*
G36*
X131845326Y-110758277D02*
G01*
X131880270Y-110708478D01*
X131935155Y-110678045D01*
X131997321Y-110668390D01*
X132054107Y-110680928D01*
X132092853Y-110717070D01*
X132098265Y-110730050D01*
X132105646Y-110745920D01*
X132120342Y-110757235D01*
X132148708Y-110764761D01*
X132197099Y-110769266D01*
X132271868Y-110771515D01*
X132379371Y-110772274D01*
X132448926Y-110772334D01*
X132577486Y-110772863D01*
X132669451Y-110774809D01*
X132730547Y-110778712D01*
X132766504Y-110785111D01*
X132783050Y-110794545D01*
X132786167Y-110804084D01*
X132780535Y-110816218D01*
X132759812Y-110824889D01*
X132718254Y-110830639D01*
X132650118Y-110834012D01*
X132549660Y-110835553D01*
X132450897Y-110835834D01*
X132115628Y-110835834D01*
X132090966Y-110889963D01*
X132069526Y-110924367D01*
X132037672Y-110938176D01*
X131980078Y-110937800D01*
X131977117Y-110937588D01*
X131976636Y-110937459D01*
X131976636Y-110877415D01*
X132017769Y-110866237D01*
X132037822Y-110845795D01*
X132052606Y-110798071D01*
X132035737Y-110755893D01*
X131995441Y-110733925D01*
X131975109Y-110734008D01*
X131940820Y-110749519D01*
X131929227Y-110790466D01*
X131928917Y-110803794D01*
X131942904Y-110855013D01*
X131976636Y-110877415D01*
X131976636Y-110937459D01*
X131898347Y-110916423D01*
X131849770Y-110870210D01*
X131835570Y-110804641D01*
X131845326Y-110758277D01*
G37*
X131845326Y-110758277D02*
X131880270Y-110708478D01*
X131935155Y-110678045D01*
X131997321Y-110668390D01*
X132054107Y-110680928D01*
X132092853Y-110717070D01*
X132098265Y-110730050D01*
X132105646Y-110745920D01*
X132120342Y-110757235D01*
X132148708Y-110764761D01*
X132197099Y-110769266D01*
X132271868Y-110771515D01*
X132379371Y-110772274D01*
X132448926Y-110772334D01*
X132577486Y-110772863D01*
X132669451Y-110774809D01*
X132730547Y-110778712D01*
X132766504Y-110785111D01*
X132783050Y-110794545D01*
X132786167Y-110804084D01*
X132780535Y-110816218D01*
X132759812Y-110824889D01*
X132718254Y-110830639D01*
X132650118Y-110834012D01*
X132549660Y-110835553D01*
X132450897Y-110835834D01*
X132115628Y-110835834D01*
X132090966Y-110889963D01*
X132069526Y-110924367D01*
X132037672Y-110938176D01*
X131980078Y-110937800D01*
X131977117Y-110937588D01*
X131976636Y-110937459D01*
X131976636Y-110877415D01*
X132017769Y-110866237D01*
X132037822Y-110845795D01*
X132052606Y-110798071D01*
X132035737Y-110755893D01*
X131995441Y-110733925D01*
X131975109Y-110734008D01*
X131940820Y-110749519D01*
X131929227Y-110790466D01*
X131928917Y-110803794D01*
X131942904Y-110855013D01*
X131976636Y-110877415D01*
X131976636Y-110937459D01*
X131898347Y-110916423D01*
X131849770Y-110870210D01*
X131835570Y-110804641D01*
X131845326Y-110758277D01*
G36*
X131841580Y-110112819D02*
G01*
X131883007Y-110047517D01*
X131889674Y-110041073D01*
X131951643Y-109998366D01*
X132007636Y-109995645D01*
X132065698Y-110032956D01*
X132075159Y-110042084D01*
X132133981Y-110082615D01*
X132209364Y-110094984D01*
X132213036Y-110095000D01*
X132252654Y-110097351D01*
X132287568Y-110107947D01*
X132325683Y-110132102D01*
X132374903Y-110175133D01*
X132443131Y-110242353D01*
X132464846Y-110264334D01*
X132540188Y-110339338D01*
X132594526Y-110388473D01*
X132635502Y-110417039D01*
X132670756Y-110430336D01*
X132707929Y-110433666D01*
X132708931Y-110433667D01*
X132761304Y-110437992D01*
X132783090Y-110455070D01*
X132786167Y-110476000D01*
X132779306Y-110503369D01*
X132751376Y-110515691D01*
X132698873Y-110518334D01*
X132658495Y-110516178D01*
X132623535Y-110506168D01*
X132586022Y-110482986D01*
X132537985Y-110441317D01*
X132471450Y-110375843D01*
X132444955Y-110349000D01*
X132370586Y-110274626D01*
X132317250Y-110225837D01*
X132277047Y-110197313D01*
X132242081Y-110183732D01*
X132204454Y-110179776D01*
X132193582Y-110179667D01*
X132140538Y-110184691D01*
X132111010Y-110197244D01*
X132108833Y-110202346D01*
X132090903Y-110245885D01*
X132045602Y-110273633D01*
X131985660Y-110283358D01*
X131976873Y-110281863D01*
X131976873Y-110214654D01*
X132013583Y-110208488D01*
X132040680Y-110179626D01*
X132043661Y-110136226D01*
X132024125Y-110097377D01*
X132003189Y-110084477D01*
X131950586Y-110080892D01*
X131922952Y-110111491D01*
X131918333Y-110146902D01*
X131934862Y-110194873D01*
X131976873Y-110214654D01*
X131976873Y-110281863D01*
X131923810Y-110272829D01*
X131876000Y-110243167D01*
X131839058Y-110180779D01*
X131841580Y-110112819D01*
G37*
X131841580Y-110112819D02*
X131883007Y-110047517D01*
X131889674Y-110041073D01*
X131951643Y-109998366D01*
X132007636Y-109995645D01*
X132065698Y-110032956D01*
X132075159Y-110042084D01*
X132133981Y-110082615D01*
X132209364Y-110094984D01*
X132213036Y-110095000D01*
X132252654Y-110097351D01*
X132287568Y-110107947D01*
X132325683Y-110132102D01*
X132374903Y-110175133D01*
X132443131Y-110242353D01*
X132464846Y-110264334D01*
X132540188Y-110339338D01*
X132594526Y-110388473D01*
X132635502Y-110417039D01*
X132670756Y-110430336D01*
X132707929Y-110433666D01*
X132708931Y-110433667D01*
X132761304Y-110437992D01*
X132783090Y-110455070D01*
X132786167Y-110476000D01*
X132779306Y-110503369D01*
X132751376Y-110515691D01*
X132698873Y-110518334D01*
X132658495Y-110516178D01*
X132623535Y-110506168D01*
X132586022Y-110482986D01*
X132537985Y-110441317D01*
X132471450Y-110375843D01*
X132444955Y-110349000D01*
X132370586Y-110274626D01*
X132317250Y-110225837D01*
X132277047Y-110197313D01*
X132242081Y-110183732D01*
X132204454Y-110179776D01*
X132193582Y-110179667D01*
X132140538Y-110184691D01*
X132111010Y-110197244D01*
X132108833Y-110202346D01*
X132090903Y-110245885D01*
X132045602Y-110273633D01*
X131985660Y-110283358D01*
X131976873Y-110281863D01*
X131976873Y-110214654D01*
X132013583Y-110208488D01*
X132040680Y-110179626D01*
X132043661Y-110136226D01*
X132024125Y-110097377D01*
X132003189Y-110084477D01*
X131950586Y-110080892D01*
X131922952Y-110111491D01*
X131918333Y-110146902D01*
X131934862Y-110194873D01*
X131976873Y-110214654D01*
X131976873Y-110281863D01*
X131923810Y-110272829D01*
X131876000Y-110243167D01*
X131839058Y-110180779D01*
X131841580Y-110112819D01*
D13*
X140300000Y-105671428D02*
X140300000Y-106100000D01*
X140271428Y-106185714D01*
X140214285Y-106242857D01*
X140128571Y-106271428D01*
X140071428Y-106271428D01*
X140900000Y-106271428D02*
X140557142Y-106271428D01*
X140728571Y-106271428D02*
X140728571Y-105671428D01*
X140671428Y-105757142D01*
X140614285Y-105814285D01*
X140557142Y-105842857D01*
X126000000Y-105971428D02*
X126000000Y-106400000D01*
X125971428Y-106485714D01*
X125914285Y-106542857D01*
X125828571Y-106571428D01*
X125771428Y-106571428D01*
X126257142Y-106028571D02*
X126285714Y-106000000D01*
X126342857Y-105971428D01*
X126485714Y-105971428D01*
X126542857Y-106000000D01*
X126571428Y-106028571D01*
X126600000Y-106085714D01*
X126600000Y-106142857D01*
X126571428Y-106228571D01*
X126228571Y-106571428D01*
X126600000Y-106571428D01*
X129242857Y-106071428D02*
X129585714Y-106071428D01*
X129414285Y-106671428D02*
X129414285Y-106071428D01*
X129785714Y-106671428D02*
X129785714Y-106071428D01*
X130014285Y-106071428D01*
X130071428Y-106100000D01*
X130100000Y-106128571D01*
X130128571Y-106185714D01*
X130128571Y-106271428D01*
X130100000Y-106328571D01*
X130071428Y-106357142D01*
X130014285Y-106385714D01*
X129785714Y-106385714D01*
X130357142Y-106128571D02*
X130385714Y-106100000D01*
X130442857Y-106071428D01*
X130585714Y-106071428D01*
X130642857Y-106100000D01*
X130671428Y-106128571D01*
X130700000Y-106185714D01*
X130700000Y-106242857D01*
X130671428Y-106328571D01*
X130328571Y-106671428D01*
X130700000Y-106671428D01*
X128042857Y-118771428D02*
X128385714Y-118771428D01*
X128214285Y-119371428D02*
X128214285Y-118771428D01*
X128585714Y-119371428D02*
X128585714Y-118771428D01*
X128814285Y-118771428D01*
X128871428Y-118800000D01*
X128900000Y-118828571D01*
X128928571Y-118885714D01*
X128928571Y-118971428D01*
X128900000Y-119028571D01*
X128871428Y-119057142D01*
X128814285Y-119085714D01*
X128585714Y-119085714D01*
X129500000Y-119371428D02*
X129157142Y-119371428D01*
X129328571Y-119371428D02*
X129328571Y-118771428D01*
X129271428Y-118857142D01*
X129214285Y-118914285D01*
X129157142Y-118942857D01*
M02*
