M48
; DRILL file {KiCad (5.1.12)-1} date 12/03/21 13:24:40
; FORMAT={-:-/ absolute / inch / decimal}
; #@! TF.CreationDate,2021-12-03T13:24:40+05:30
; #@! TF.GenerationSoftware,Kicad,Pcbnew,(5.1.12)-1
; #@! TF.FileFunction,Plated,1,2,PTH
FMAT,2
INCH
T1C0.0118
T2C0.0362
T3C0.0394
%
G90
G05
T1
X4.75Y-4.3504
X4.7835Y-4.5591
X4.7894Y-4.3602
X4.7992Y-4.5118
X4.8091Y-4.2717
X4.8583Y-4.1732
X4.8787Y-4.3102
X4.8972Y-4.1417
X4.8976Y-4.252
X4.8976Y-4.4488
X4.9055Y-4.4094
X4.9075Y-4.3701
X4.9449Y-4.3071
X4.9469Y-4.685
X4.9472Y-4.1417
X5.004Y-4.1927
X5.0846Y-4.1142
X5.0945Y-4.2913
X5.0945Y-4.3701
X5.124Y-4.626
X5.1339Y-4.3307
X5.1575Y-4.5039
X5.1732Y-4.2913
X5.1732Y-4.3701
X5.1932Y-4.5488
X5.2047Y-4.5118
X5.2362Y-4.6929
X5.2835Y-4.622
X5.311Y-4.1437
X5.3209Y-4.2224
X5.3406Y-4.3504
X5.3504Y-4.3209
X5.3701Y-4.1732
X5.3799Y-4.4587
X5.3937Y-4.1181
X5.4094Y-4.5906
X5.4341Y-4.3356
X5.4724Y-4.3701
X5.5039Y-4.2126
T2
X5.5866Y-4.2717
X5.5866Y-4.3701
X5.5866Y-4.4488
X5.5866Y-4.5472
T3
G00X5.6398Y-4.1791
M15
G01X5.6988Y-4.1791
M16
G05
G00X5.6398Y-4.6398
M15
G01X5.6988Y-4.6398
M16
G05
T0
M30
