G04 #@! TF.GenerationSoftware,KiCad,Pcbnew,(5.1.12)-1*
G04 #@! TF.CreationDate,2021-12-03T13:24:37+05:30*
G04 #@! TF.ProjectId,mico,6d69636f-2e6b-4696-9361-645f70636258,rev?*
G04 #@! TF.SameCoordinates,Original*
G04 #@! TF.FileFunction,Copper,L1,Top*
G04 #@! TF.FilePolarity,Positive*
%FSLAX46Y46*%
G04 Gerber Fmt 4.6, Leading zero omitted, Abs format (unit mm)*
G04 Created by KiCad (PCBNEW (5.1.12)-1) date 2021-12-03 13:24:37*
%MOMM*%
%LPD*%
G01*
G04 APERTURE LIST*
G04 #@! TA.AperFunction,ComponentPad*
%ADD10C,1.428000*%
G04 #@! TD*
G04 #@! TA.AperFunction,ComponentPad*
%ADD11R,1.428000X1.428000*%
G04 #@! TD*
G04 #@! TA.AperFunction,ComponentPad*
%ADD12O,3.500000X1.508000*%
G04 #@! TD*
G04 #@! TA.AperFunction,SMDPad,CuDef*
%ADD13O,1.000000X1.000000*%
G04 #@! TD*
G04 #@! TA.AperFunction,SMDPad,CuDef*
%ADD14R,1.000000X1.000000*%
G04 #@! TD*
G04 #@! TA.AperFunction,SMDPad,CuDef*
%ADD15C,1.000000*%
G04 #@! TD*
G04 #@! TA.AperFunction,ViaPad*
%ADD16C,0.600000*%
G04 #@! TD*
G04 #@! TA.AperFunction,Conductor*
%ADD17C,0.400000*%
G04 #@! TD*
G04 #@! TA.AperFunction,Conductor*
%ADD18C,0.200000*%
G04 #@! TD*
G04 #@! TA.AperFunction,Conductor*
%ADD19C,0.160000*%
G04 #@! TD*
G04 #@! TA.AperFunction,Conductor*
%ADD20C,0.100000*%
G04 #@! TD*
G04 APERTURE END LIST*
D10*
X141900000Y-115500000D03*
X141900000Y-113000000D03*
X141900000Y-111000000D03*
D11*
X141900000Y-108500000D03*
D12*
X144000000Y-106150000D03*
X144000000Y-117850000D03*
D13*
X124390000Y-105200000D03*
X125660000Y-105200000D03*
X126930000Y-105200000D03*
D14*
X128200000Y-105200000D03*
D15*
X130000000Y-105200000D03*
D13*
X131670000Y-119000000D03*
D15*
X130400000Y-119000000D03*
D16*
X139000000Y-111000000D03*
X131400000Y-111000000D03*
X131400000Y-109000000D03*
X129400000Y-109000000D03*
X130400000Y-110000000D03*
X125650000Y-119000000D03*
X130150000Y-117500000D03*
X123400000Y-106000000D03*
X134900000Y-105250000D03*
X122150000Y-108500000D03*
X123920000Y-109480000D03*
X127102507Y-106495032D03*
X136650000Y-113250000D03*
X138025000Y-110125000D03*
X121650000Y-110750000D03*
X121500000Y-115800000D03*
X129400000Y-111000000D03*
X137000000Y-104600000D03*
X134200000Y-117400000D03*
X139800000Y-107000000D03*
X135900000Y-109750000D03*
X124650000Y-111000000D03*
X131907866Y-115539330D03*
X137400000Y-116600000D03*
X136400000Y-106000000D03*
X124400000Y-108000000D03*
X125600000Y-109400000D03*
X135650000Y-110500000D03*
X135150000Y-107250000D03*
X124390000Y-105200000D03*
X125660000Y-105200000D03*
X120650000Y-110500000D03*
X121900000Y-114600000D03*
X133000000Y-119200000D03*
X129150000Y-104500000D03*
X132200000Y-114600000D03*
X124400000Y-113000000D03*
X131000000Y-114400000D03*
X124600000Y-112000000D03*
D17*
X139000000Y-111000000D02*
X140200000Y-111000000D01*
X140200000Y-111000000D02*
X140400000Y-110800000D01*
X140400000Y-110800000D02*
X140400000Y-108800000D01*
X140700000Y-108500000D02*
X141900000Y-108500000D01*
X140400000Y-108800000D02*
X140700000Y-108500000D01*
X130250000Y-117400000D02*
X130150000Y-117500000D01*
X130150000Y-118750000D02*
X130400000Y-119000000D01*
X130150000Y-117500000D02*
X130150000Y-118750000D01*
X130400000Y-119000000D02*
X125650000Y-119000000D01*
X134900000Y-105250000D02*
X134900000Y-105000000D01*
X134900000Y-105000000D02*
X135150000Y-104750000D01*
X128200000Y-105200000D02*
X128200000Y-105450000D01*
X127154968Y-106495032D02*
X127102507Y-106495032D01*
X128200000Y-105450000D02*
X127154968Y-106495032D01*
X128200000Y-105200000D02*
X128200000Y-105550000D01*
X136400000Y-113500000D02*
X136650000Y-113250000D01*
X121900000Y-110750000D02*
X122150000Y-110500000D01*
X121650000Y-110750000D02*
X121900000Y-110750000D01*
X122150000Y-108500000D02*
X122150000Y-110500000D01*
X122150000Y-107250000D02*
X123400000Y-106000000D01*
X122150000Y-108500000D02*
X122150000Y-107250000D01*
X130900000Y-113500000D02*
X136400000Y-113500000D01*
X121500000Y-115800000D02*
X122500000Y-115800000D01*
X122500000Y-115800000D02*
X122700000Y-115600000D01*
X122700000Y-111800000D02*
X121650000Y-110750000D01*
X122700000Y-115600000D02*
X122700000Y-111800000D01*
X125900000Y-113000000D02*
X126400000Y-113500000D01*
X125900000Y-111000000D02*
X125900000Y-113000000D01*
X125100000Y-110200000D02*
X125900000Y-111000000D01*
X126400000Y-113500000D02*
X130900000Y-113500000D01*
X124300000Y-110200000D02*
X125100000Y-110200000D01*
X123920000Y-109820000D02*
X124300000Y-110200000D01*
X123920000Y-109480000D02*
X123920000Y-109820000D01*
X130650000Y-113500000D02*
X130900000Y-113500000D01*
X135300000Y-104600000D02*
X135150000Y-104750000D01*
X137000000Y-104600000D02*
X135300000Y-104600000D01*
X134200000Y-117400000D02*
X130250000Y-117400000D01*
X138025000Y-110125000D02*
X139675000Y-110125000D01*
X139675000Y-110125000D02*
X139800000Y-110000000D01*
X139800000Y-107800000D02*
X139800000Y-107000000D01*
X139800000Y-110000000D02*
X139800000Y-107800000D01*
X137000000Y-104600000D02*
X139200000Y-104600000D01*
X139800000Y-105200000D02*
X139800000Y-107000000D01*
X139200000Y-104600000D02*
X139800000Y-105200000D01*
X124650000Y-111000000D02*
X123900000Y-111000000D01*
X126930000Y-105720000D02*
X126150000Y-106500000D01*
X126150000Y-106500000D02*
X124400000Y-106500000D01*
X124400000Y-106500000D02*
X123150000Y-107750000D01*
X123150000Y-110250000D02*
X123900000Y-111000000D01*
X123150000Y-107750000D02*
X123150000Y-110250000D01*
X126930000Y-105200000D02*
X126930000Y-105720000D01*
X123900000Y-111000000D02*
X123400000Y-111500000D01*
X135600000Y-116600000D02*
X132200000Y-116600000D01*
X131907866Y-116307866D02*
X131907866Y-115539330D01*
X132200000Y-116600000D02*
X131907866Y-116307866D01*
X123939330Y-115539330D02*
X123400000Y-115000000D01*
X131907866Y-115539330D02*
X123939330Y-115539330D01*
X123400000Y-111500000D02*
X123400000Y-115000000D01*
X135600000Y-116600000D02*
X137400000Y-116600000D01*
X136400000Y-109250000D02*
X135900000Y-109750000D01*
X136400000Y-106000000D02*
X136400000Y-109250000D01*
X137800000Y-113200000D02*
X137800000Y-116200000D01*
X136400000Y-111800000D02*
X137800000Y-113200000D01*
X136400000Y-110250000D02*
X136400000Y-111800000D01*
X137800000Y-116200000D02*
X137400000Y-116600000D01*
X135900000Y-109750000D02*
X136400000Y-110250000D01*
D18*
X124400000Y-109000000D02*
X124800000Y-109400000D01*
X124800000Y-109400000D02*
X125600000Y-109400000D01*
X124400000Y-108000000D02*
X124400000Y-109000000D01*
X135650000Y-110500000D02*
X135150000Y-110000000D01*
X135150000Y-110000000D02*
X135150000Y-107250000D01*
X124400000Y-108000000D02*
X124400000Y-107600000D01*
X124750000Y-107250000D02*
X124400000Y-107600000D01*
X135150000Y-107250000D02*
X124750000Y-107250000D01*
D19*
X120650000Y-110500000D02*
X120650000Y-114050000D01*
X121200000Y-114600000D02*
X120700000Y-114100000D01*
X121900000Y-114600000D02*
X121200000Y-114600000D01*
X120700000Y-114100000D02*
X121150000Y-114550000D01*
X120650000Y-114050000D02*
X120700000Y-114100000D01*
D18*
X131870000Y-119200000D02*
X131670000Y-119000000D01*
X133000000Y-119200000D02*
X131870000Y-119200000D01*
D19*
X130000000Y-105200000D02*
X130000000Y-104850000D01*
X129650000Y-104500000D02*
X129150000Y-104500000D01*
X130000000Y-104850000D02*
X129650000Y-104500000D01*
X124650000Y-115000000D02*
X131800000Y-115000000D01*
X124400000Y-113000000D02*
X124400000Y-114750000D01*
X124400000Y-114750000D02*
X124650000Y-115000000D01*
X131800000Y-115000000D02*
X132200000Y-114600000D01*
X131000000Y-114400000D02*
X127200000Y-114400000D01*
X124800000Y-112000000D02*
X124600000Y-112000000D01*
X125100000Y-112300000D02*
X125100000Y-114200000D01*
X125100000Y-112300000D02*
X124800000Y-112000000D01*
X125300000Y-114400000D02*
X127200000Y-114400000D01*
X125100000Y-114200000D02*
X125300000Y-114400000D01*
D18*
X139533689Y-104329861D02*
X139566090Y-104339644D01*
X139595982Y-104355537D01*
X139622213Y-104376932D01*
X139643791Y-104403015D01*
X139659888Y-104432786D01*
X139669899Y-104465125D01*
X139676392Y-104526904D01*
X139676350Y-104532946D01*
X139676792Y-104537462D01*
X139686992Y-104634511D01*
X139692919Y-104663385D01*
X139698435Y-104692299D01*
X139699746Y-104696644D01*
X139728602Y-104789863D01*
X139740036Y-104817063D01*
X139751053Y-104844330D01*
X139753183Y-104848337D01*
X139799596Y-104934175D01*
X139816069Y-104958597D01*
X139832197Y-104983242D01*
X139835065Y-104986759D01*
X139897266Y-105061948D01*
X139918192Y-105082728D01*
X139938775Y-105103747D01*
X139942271Y-105106640D01*
X140017892Y-105168316D01*
X140042439Y-105184625D01*
X140066736Y-105201261D01*
X140070727Y-105203420D01*
X140156888Y-105249232D01*
X140184139Y-105260464D01*
X140211193Y-105272059D01*
X140215528Y-105273401D01*
X140308946Y-105301606D01*
X140337845Y-105307328D01*
X140366657Y-105313452D01*
X140371170Y-105313927D01*
X140468287Y-105323449D01*
X140468292Y-105323449D01*
X140484039Y-105325000D01*
X141913128Y-105325000D01*
X141785980Y-105521360D01*
X141691486Y-105786199D01*
X141803840Y-105996000D01*
X143846000Y-105996000D01*
X143846000Y-105976000D01*
X144154000Y-105976000D01*
X144154000Y-105996000D01*
X146196160Y-105996000D01*
X146308514Y-105786199D01*
X146214020Y-105521360D01*
X146086872Y-105325000D01*
X146425001Y-105325000D01*
X146425000Y-118675000D01*
X146086872Y-118675000D01*
X146214020Y-118478640D01*
X146308514Y-118213801D01*
X146196160Y-118004000D01*
X144154000Y-118004000D01*
X144154000Y-118024000D01*
X143846000Y-118024000D01*
X143846000Y-118004000D01*
X141803840Y-118004000D01*
X141691486Y-118213801D01*
X141785980Y-118478640D01*
X141913128Y-118675000D01*
X140484039Y-118675000D01*
X140470116Y-118676371D01*
X140467055Y-118676350D01*
X140462538Y-118676792D01*
X140365490Y-118686992D01*
X140336629Y-118692917D01*
X140307701Y-118698435D01*
X140303356Y-118699746D01*
X140210137Y-118728602D01*
X140182950Y-118740031D01*
X140155669Y-118751053D01*
X140151662Y-118753183D01*
X140065825Y-118799596D01*
X140041411Y-118816064D01*
X140016758Y-118832197D01*
X140013241Y-118835065D01*
X139938052Y-118897267D01*
X139917292Y-118918173D01*
X139896253Y-118938775D01*
X139893360Y-118942272D01*
X139893356Y-118942276D01*
X139831684Y-119017892D01*
X139815385Y-119042424D01*
X139798739Y-119066736D01*
X139796580Y-119070727D01*
X139750768Y-119156888D01*
X139739536Y-119184139D01*
X139727941Y-119211193D01*
X139726599Y-119215528D01*
X139698394Y-119308946D01*
X139692674Y-119337837D01*
X139686548Y-119366656D01*
X139686073Y-119371170D01*
X139676551Y-119468284D01*
X139676551Y-119468287D01*
X139670139Y-119533689D01*
X139660356Y-119566090D01*
X139644462Y-119595984D01*
X139623068Y-119622214D01*
X139596989Y-119643789D01*
X139567213Y-119659889D01*
X139534875Y-119669899D01*
X139486342Y-119675000D01*
X133369083Y-119675000D01*
X133382478Y-119666050D01*
X133466050Y-119582478D01*
X133531713Y-119484207D01*
X133576942Y-119375014D01*
X133600000Y-119259095D01*
X133600000Y-119140905D01*
X133576942Y-119024986D01*
X133531713Y-118915793D01*
X133466050Y-118817522D01*
X133382478Y-118733950D01*
X133284207Y-118668287D01*
X133175014Y-118623058D01*
X133059095Y-118600000D01*
X132940905Y-118600000D01*
X132824986Y-118623058D01*
X132715793Y-118668287D01*
X132617522Y-118733950D01*
X132551472Y-118800000D01*
X132445891Y-118800000D01*
X132439257Y-118766649D01*
X132378951Y-118621058D01*
X132291401Y-118490030D01*
X132179970Y-118378599D01*
X132048942Y-118291049D01*
X131903351Y-118230743D01*
X131748793Y-118200000D01*
X131591207Y-118200000D01*
X131436649Y-118230743D01*
X131291058Y-118291049D01*
X131160030Y-118378599D01*
X131048599Y-118490030D01*
X130961049Y-118621058D01*
X130935818Y-118681971D01*
X130617789Y-119000000D01*
X130631931Y-119014142D01*
X130414142Y-119231931D01*
X130400000Y-119217789D01*
X130385858Y-119231931D01*
X130168069Y-119014142D01*
X130182211Y-119000000D01*
X129620099Y-118437888D01*
X129417411Y-118476462D01*
X129334153Y-118678215D01*
X129291856Y-118892335D01*
X129292145Y-119110592D01*
X129335007Y-119324598D01*
X129417411Y-119523538D01*
X129620097Y-119562112D01*
X129507208Y-119675000D01*
X124504833Y-119675000D01*
X123605755Y-119027629D01*
X122747490Y-118220099D01*
X129837888Y-118220099D01*
X130400000Y-118782211D01*
X130962112Y-118220099D01*
X130923538Y-118017411D01*
X130721785Y-117934153D01*
X130507665Y-117891856D01*
X130289408Y-117892145D01*
X130075402Y-117935007D01*
X129876462Y-118017411D01*
X129837888Y-118220099D01*
X122747490Y-118220099D01*
X122738039Y-118211207D01*
X121984310Y-117288512D01*
X121357459Y-116275319D01*
X120868226Y-115188990D01*
X120703251Y-114640652D01*
X120918108Y-114855510D01*
X120930000Y-114870000D01*
X120944489Y-114881891D01*
X120944494Y-114881896D01*
X120961829Y-114896122D01*
X120987862Y-114917487D01*
X121053877Y-114952772D01*
X121125507Y-114974501D01*
X121181339Y-114980000D01*
X121181346Y-114980000D01*
X121200000Y-114981837D01*
X121218654Y-114980000D01*
X121432294Y-114980000D01*
X121433950Y-114982478D01*
X121517522Y-115066050D01*
X121615793Y-115131713D01*
X121724986Y-115176942D01*
X121840905Y-115200000D01*
X121959095Y-115200000D01*
X122075014Y-115176942D01*
X122184207Y-115131713D01*
X122282478Y-115066050D01*
X122366050Y-114982478D01*
X122431713Y-114884207D01*
X122476942Y-114775014D01*
X122500000Y-114659095D01*
X122500000Y-114540905D01*
X122476942Y-114424986D01*
X122431713Y-114315793D01*
X122366050Y-114217522D01*
X122282478Y-114133950D01*
X122184207Y-114068287D01*
X122075014Y-114023058D01*
X121959095Y-114000000D01*
X121840905Y-114000000D01*
X121724986Y-114023058D01*
X121615793Y-114068287D01*
X121517522Y-114133950D01*
X121433950Y-114217522D01*
X121432294Y-114220000D01*
X121357402Y-114220000D01*
X121030000Y-113892600D01*
X121030000Y-112286569D01*
X121072787Y-112350604D01*
X121149396Y-112427213D01*
X121239477Y-112487403D01*
X121339571Y-112528864D01*
X121445830Y-112550000D01*
X121554170Y-112550000D01*
X121660429Y-112528864D01*
X121760523Y-112487403D01*
X121850604Y-112427213D01*
X121927213Y-112350604D01*
X121987403Y-112260523D01*
X122028864Y-112160429D01*
X122050000Y-112054170D01*
X122050000Y-111945830D01*
X122028864Y-111839571D01*
X121987403Y-111739477D01*
X121927213Y-111649396D01*
X121850604Y-111572787D01*
X121760523Y-111512597D01*
X121660429Y-111471136D01*
X121554170Y-111450000D01*
X121445830Y-111450000D01*
X121339571Y-111471136D01*
X121239477Y-111512597D01*
X121149396Y-111572787D01*
X121072787Y-111649396D01*
X121030000Y-111713431D01*
X121030000Y-110967706D01*
X121032478Y-110966050D01*
X121116050Y-110882478D01*
X121181713Y-110784207D01*
X121226942Y-110675014D01*
X121250000Y-110559095D01*
X121250000Y-110440905D01*
X121226942Y-110324986D01*
X121181713Y-110215793D01*
X121116050Y-110117522D01*
X121032478Y-110033950D01*
X120934207Y-109968287D01*
X120825014Y-109923058D01*
X120709095Y-109900000D01*
X120590905Y-109900000D01*
X120555476Y-109907047D01*
X120689955Y-109336177D01*
X121112168Y-108222079D01*
X121676190Y-107172621D01*
X122372368Y-106205760D01*
X123188793Y-105338039D01*
X123616340Y-104988785D01*
X123590000Y-105121207D01*
X123590000Y-105278793D01*
X123620743Y-105433351D01*
X123681049Y-105578942D01*
X123768599Y-105709970D01*
X123880030Y-105821401D01*
X124011058Y-105908951D01*
X124156649Y-105969257D01*
X124311207Y-106000000D01*
X124375440Y-106000000D01*
X124301983Y-106007235D01*
X124207733Y-106035825D01*
X124120871Y-106082254D01*
X124044736Y-106144736D01*
X124029075Y-106163819D01*
X122813824Y-107379071D01*
X122794736Y-107394736D01*
X122732254Y-107470871D01*
X122685825Y-107557734D01*
X122678964Y-107580353D01*
X122657235Y-107651983D01*
X122647581Y-107750000D01*
X122650000Y-107774560D01*
X122650001Y-110225430D01*
X122647581Y-110250000D01*
X122657235Y-110348017D01*
X122679999Y-110423058D01*
X122685826Y-110442267D01*
X122732255Y-110529129D01*
X122794737Y-110605264D01*
X122813819Y-110620924D01*
X123192894Y-111000000D01*
X123063823Y-111129071D01*
X123044736Y-111144736D01*
X122982254Y-111220871D01*
X122935825Y-111307734D01*
X122921407Y-111355264D01*
X122907235Y-111401983D01*
X122897581Y-111500000D01*
X122900000Y-111524560D01*
X122900001Y-114975430D01*
X122897581Y-115000000D01*
X122907235Y-115098017D01*
X122925083Y-115156852D01*
X122935826Y-115192267D01*
X122982255Y-115279129D01*
X123044737Y-115355264D01*
X123063819Y-115370924D01*
X123568409Y-115875516D01*
X123584066Y-115894594D01*
X123660201Y-115957076D01*
X123747063Y-116003505D01*
X123841313Y-116032095D01*
X123939330Y-116041749D01*
X123963890Y-116039330D01*
X131407866Y-116039330D01*
X131407866Y-116283305D01*
X131405447Y-116307866D01*
X131407866Y-116332425D01*
X131415101Y-116405882D01*
X131443691Y-116500132D01*
X131490120Y-116586995D01*
X131552602Y-116663130D01*
X131571690Y-116678795D01*
X131829075Y-116936181D01*
X131844736Y-116955264D01*
X131920871Y-117017746D01*
X132007733Y-117064175D01*
X132101983Y-117092765D01*
X132200000Y-117102419D01*
X132224560Y-117100000D01*
X137068331Y-117100000D01*
X137115793Y-117131713D01*
X137224986Y-117176942D01*
X137340905Y-117200000D01*
X137459095Y-117200000D01*
X137575014Y-117176942D01*
X137684207Y-117131713D01*
X137782478Y-117066050D01*
X137866050Y-116982478D01*
X137931713Y-116884207D01*
X137976942Y-116775014D01*
X137988079Y-116719028D01*
X138136186Y-116570921D01*
X138155264Y-116555264D01*
X138217746Y-116479129D01*
X138242095Y-116433575D01*
X141184214Y-116433575D01*
X141249041Y-116657969D01*
X141487457Y-116762715D01*
X141741727Y-116818935D01*
X142002080Y-116824470D01*
X142118513Y-116803872D01*
X141932026Y-116995815D01*
X141785980Y-117221360D01*
X141691486Y-117486199D01*
X141803840Y-117696000D01*
X143846000Y-117696000D01*
X143846000Y-116488000D01*
X144154000Y-116488000D01*
X144154000Y-117696000D01*
X146196160Y-117696000D01*
X146308514Y-117486199D01*
X146214020Y-117221360D01*
X146067974Y-116995815D01*
X145880733Y-116803096D01*
X145659492Y-116650609D01*
X145412754Y-116544214D01*
X145150000Y-116488000D01*
X144154000Y-116488000D01*
X143846000Y-116488000D01*
X142850000Y-116488000D01*
X142587246Y-116544214D01*
X142583335Y-116545900D01*
X142615786Y-116433575D01*
X141900000Y-115717789D01*
X141184214Y-116433575D01*
X138242095Y-116433575D01*
X138264175Y-116392267D01*
X138292765Y-116298017D01*
X138300000Y-116224560D01*
X138300000Y-116224551D01*
X138302418Y-116200001D01*
X138300000Y-116175451D01*
X138300000Y-115602080D01*
X140575530Y-115602080D01*
X140620895Y-115858510D01*
X140715414Y-116101163D01*
X140742031Y-116150959D01*
X140966425Y-116215786D01*
X141682211Y-115500000D01*
X142117789Y-115500000D01*
X142833575Y-116215786D01*
X143057969Y-116150959D01*
X143162715Y-115912543D01*
X143218935Y-115658273D01*
X143224470Y-115397920D01*
X143179105Y-115141490D01*
X143084586Y-114898837D01*
X143057969Y-114849041D01*
X142833575Y-114784214D01*
X142117789Y-115500000D01*
X141682211Y-115500000D01*
X140966425Y-114784214D01*
X140742031Y-114849041D01*
X140637285Y-115087457D01*
X140581065Y-115341727D01*
X140575530Y-115602080D01*
X138300000Y-115602080D01*
X138300000Y-114566425D01*
X141184214Y-114566425D01*
X141900000Y-115282211D01*
X142615786Y-114566425D01*
X142550959Y-114342031D01*
X142312543Y-114237285D01*
X142217552Y-114216282D01*
X143150000Y-114216282D01*
X143150000Y-114383718D01*
X143182665Y-114547936D01*
X143246740Y-114702626D01*
X143339762Y-114841844D01*
X143458156Y-114960238D01*
X143597374Y-115053260D01*
X143752064Y-115117335D01*
X143916282Y-115150000D01*
X144083718Y-115150000D01*
X144247936Y-115117335D01*
X144402626Y-115053260D01*
X144541844Y-114960238D01*
X144660238Y-114841844D01*
X144753260Y-114702626D01*
X144817335Y-114547936D01*
X144850000Y-114383718D01*
X144850000Y-114216282D01*
X144817335Y-114052064D01*
X144753260Y-113897374D01*
X144660238Y-113758156D01*
X144541844Y-113639762D01*
X144402626Y-113546740D01*
X144247936Y-113482665D01*
X144083718Y-113450000D01*
X143916282Y-113450000D01*
X143752064Y-113482665D01*
X143597374Y-113546740D01*
X143458156Y-113639762D01*
X143339762Y-113758156D01*
X143246740Y-113897374D01*
X143182665Y-114052064D01*
X143150000Y-114216282D01*
X142217552Y-114216282D01*
X142058273Y-114181065D01*
X141797920Y-114175530D01*
X141541490Y-114220895D01*
X141298837Y-114315414D01*
X141249041Y-114342031D01*
X141184214Y-114566425D01*
X138300000Y-114566425D01*
X138300000Y-113224560D01*
X138302419Y-113200000D01*
X138292765Y-113101982D01*
X138279755Y-113059095D01*
X138264175Y-113007733D01*
X138217746Y-112920871D01*
X138155264Y-112844736D01*
X138136181Y-112829075D01*
X136900000Y-111592895D01*
X136900000Y-110940905D01*
X138400000Y-110940905D01*
X138400000Y-111059095D01*
X138423058Y-111175014D01*
X138468287Y-111284207D01*
X138533950Y-111382478D01*
X138617522Y-111466050D01*
X138715793Y-111531713D01*
X138824986Y-111576942D01*
X138940905Y-111600000D01*
X139059095Y-111600000D01*
X139175014Y-111576942D01*
X139284207Y-111531713D01*
X139331669Y-111500000D01*
X140175440Y-111500000D01*
X140200000Y-111502419D01*
X140224560Y-111500000D01*
X140298017Y-111492765D01*
X140392267Y-111464175D01*
X140479129Y-111417746D01*
X140555264Y-111355264D01*
X140570928Y-111336177D01*
X140736181Y-111170925D01*
X140755264Y-111155264D01*
X140817746Y-111079129D01*
X140864175Y-110992267D01*
X140886000Y-110920319D01*
X140886000Y-111099870D01*
X140924968Y-111295773D01*
X141001405Y-111480309D01*
X141112375Y-111646387D01*
X141253613Y-111787625D01*
X141419691Y-111898595D01*
X141604227Y-111975032D01*
X141729748Y-112000000D01*
X141604227Y-112024968D01*
X141419691Y-112101405D01*
X141253613Y-112212375D01*
X141112375Y-112353613D01*
X141001405Y-112519691D01*
X140924968Y-112704227D01*
X140886000Y-112900130D01*
X140886000Y-113099870D01*
X140924968Y-113295773D01*
X141001405Y-113480309D01*
X141112375Y-113646387D01*
X141253613Y-113787625D01*
X141419691Y-113898595D01*
X141604227Y-113975032D01*
X141800130Y-114014000D01*
X141999870Y-114014000D01*
X142195773Y-113975032D01*
X142380309Y-113898595D01*
X142546387Y-113787625D01*
X142687625Y-113646387D01*
X142798595Y-113480309D01*
X142875032Y-113295773D01*
X142914000Y-113099870D01*
X142914000Y-112900130D01*
X142875032Y-112704227D01*
X142798595Y-112519691D01*
X142687625Y-112353613D01*
X142546387Y-112212375D01*
X142380309Y-112101405D01*
X142195773Y-112024968D01*
X142070252Y-112000000D01*
X142195773Y-111975032D01*
X142380309Y-111898595D01*
X142546387Y-111787625D01*
X142687625Y-111646387D01*
X142798595Y-111480309D01*
X142875032Y-111295773D01*
X142914000Y-111099870D01*
X142914000Y-110900130D01*
X142875032Y-110704227D01*
X142798595Y-110519691D01*
X142687625Y-110353613D01*
X142546387Y-110212375D01*
X142380309Y-110101405D01*
X142195773Y-110024968D01*
X141999870Y-109986000D01*
X141800130Y-109986000D01*
X141604227Y-110024968D01*
X141419691Y-110101405D01*
X141253613Y-110212375D01*
X141112375Y-110353613D01*
X141001405Y-110519691D01*
X140924968Y-110704227D01*
X140898988Y-110834836D01*
X140902419Y-110800000D01*
X140900000Y-110775440D01*
X140900000Y-109616282D01*
X143150000Y-109616282D01*
X143150000Y-109783718D01*
X143182665Y-109947936D01*
X143246740Y-110102626D01*
X143339762Y-110241844D01*
X143458156Y-110360238D01*
X143597374Y-110453260D01*
X143752064Y-110517335D01*
X143916282Y-110550000D01*
X144083718Y-110550000D01*
X144247936Y-110517335D01*
X144402626Y-110453260D01*
X144541844Y-110360238D01*
X144660238Y-110241844D01*
X144753260Y-110102626D01*
X144817335Y-109947936D01*
X144850000Y-109783718D01*
X144850000Y-109616282D01*
X144817335Y-109452064D01*
X144753260Y-109297374D01*
X144660238Y-109158156D01*
X144541844Y-109039762D01*
X144402626Y-108946740D01*
X144247936Y-108882665D01*
X144083718Y-108850000D01*
X143916282Y-108850000D01*
X143752064Y-108882665D01*
X143597374Y-108946740D01*
X143458156Y-109039762D01*
X143339762Y-109158156D01*
X143246740Y-109297374D01*
X143182665Y-109452064D01*
X143150000Y-109616282D01*
X140900000Y-109616282D01*
X140900000Y-109304650D01*
X140907496Y-109329360D01*
X140935353Y-109381477D01*
X140972842Y-109427158D01*
X141018523Y-109464647D01*
X141070640Y-109492504D01*
X141127190Y-109509659D01*
X141186000Y-109515451D01*
X142614000Y-109515451D01*
X142672810Y-109509659D01*
X142729360Y-109492504D01*
X142781477Y-109464647D01*
X142827158Y-109427158D01*
X142864647Y-109381477D01*
X142892504Y-109329360D01*
X142909659Y-109272810D01*
X142915451Y-109214000D01*
X142915451Y-107786000D01*
X142909659Y-107727190D01*
X142892504Y-107670640D01*
X142864647Y-107618523D01*
X142827158Y-107572842D01*
X142781477Y-107535353D01*
X142729360Y-107507496D01*
X142672810Y-107490341D01*
X142614000Y-107484549D01*
X141186000Y-107484549D01*
X141127190Y-107490341D01*
X141070640Y-107507496D01*
X141018523Y-107535353D01*
X140972842Y-107572842D01*
X140935353Y-107618523D01*
X140907496Y-107670640D01*
X140890341Y-107727190D01*
X140884549Y-107786000D01*
X140884549Y-108000000D01*
X140724557Y-108000000D01*
X140699999Y-107997581D01*
X140675441Y-108000000D01*
X140675440Y-108000000D01*
X140601983Y-108007235D01*
X140507733Y-108035825D01*
X140420871Y-108082254D01*
X140344736Y-108144736D01*
X140329071Y-108163824D01*
X140063820Y-108429075D01*
X140044737Y-108444736D01*
X139982255Y-108520871D01*
X139976460Y-108531713D01*
X139935826Y-108607733D01*
X139907235Y-108701983D01*
X139897581Y-108800000D01*
X139900001Y-108824570D01*
X139900000Y-110500000D01*
X139331669Y-110500000D01*
X139284207Y-110468287D01*
X139175014Y-110423058D01*
X139059095Y-110400000D01*
X138940905Y-110400000D01*
X138824986Y-110423058D01*
X138715793Y-110468287D01*
X138617522Y-110533950D01*
X138533950Y-110617522D01*
X138468287Y-110715793D01*
X138423058Y-110824986D01*
X138400000Y-110940905D01*
X136900000Y-110940905D01*
X136900000Y-110274560D01*
X136902419Y-110250000D01*
X136892765Y-110151983D01*
X136882671Y-110118708D01*
X136864175Y-110057733D01*
X136817746Y-109970871D01*
X136755264Y-109894736D01*
X136736186Y-109879079D01*
X136607106Y-109750000D01*
X136736186Y-109620921D01*
X136755264Y-109605264D01*
X136817746Y-109529129D01*
X136864175Y-109442267D01*
X136892765Y-109348017D01*
X136900000Y-109274560D01*
X136902419Y-109250000D01*
X136900000Y-109225440D01*
X136900000Y-106513801D01*
X141691486Y-106513801D01*
X141785980Y-106778640D01*
X141932026Y-107004185D01*
X142119267Y-107196904D01*
X142340508Y-107349391D01*
X142587246Y-107455786D01*
X142850000Y-107512000D01*
X143846000Y-107512000D01*
X143846000Y-106304000D01*
X144154000Y-106304000D01*
X144154000Y-107512000D01*
X145150000Y-107512000D01*
X145412754Y-107455786D01*
X145659492Y-107349391D01*
X145880733Y-107196904D01*
X146067974Y-107004185D01*
X146214020Y-106778640D01*
X146308514Y-106513801D01*
X146196160Y-106304000D01*
X144154000Y-106304000D01*
X143846000Y-106304000D01*
X141803840Y-106304000D01*
X141691486Y-106513801D01*
X136900000Y-106513801D01*
X136900000Y-106331669D01*
X136931713Y-106284207D01*
X136976942Y-106175014D01*
X137000000Y-106059095D01*
X137000000Y-105940905D01*
X136976942Y-105824986D01*
X136931713Y-105715793D01*
X136866050Y-105617522D01*
X136782478Y-105533950D01*
X136684207Y-105468287D01*
X136575014Y-105423058D01*
X136459095Y-105400000D01*
X136340905Y-105400000D01*
X136224986Y-105423058D01*
X136115793Y-105468287D01*
X136017522Y-105533950D01*
X135933950Y-105617522D01*
X135868287Y-105715793D01*
X135823058Y-105824986D01*
X135800000Y-105940905D01*
X135800000Y-106059095D01*
X135823058Y-106175014D01*
X135868287Y-106284207D01*
X135900000Y-106331669D01*
X135900001Y-109042893D01*
X135780973Y-109161921D01*
X135724986Y-109173058D01*
X135615793Y-109218287D01*
X135550000Y-109262249D01*
X135550000Y-107698528D01*
X135616050Y-107632478D01*
X135681713Y-107534207D01*
X135726942Y-107425014D01*
X135750000Y-107309095D01*
X135750000Y-107190905D01*
X135726942Y-107074986D01*
X135681713Y-106965793D01*
X135616050Y-106867522D01*
X135532478Y-106783950D01*
X135434207Y-106718287D01*
X135325014Y-106673058D01*
X135209095Y-106650000D01*
X135090905Y-106650000D01*
X134974986Y-106673058D01*
X134865793Y-106718287D01*
X134767522Y-106783950D01*
X134701472Y-106850000D01*
X126509584Y-106850000D01*
X126520929Y-106836176D01*
X127248665Y-106108442D01*
X127267999Y-106132001D01*
X127360579Y-106207980D01*
X127466203Y-106264437D01*
X127580811Y-106299203D01*
X127700000Y-106310942D01*
X127894000Y-106308000D01*
X128046000Y-106156000D01*
X128046000Y-105354000D01*
X128026000Y-105354000D01*
X128026000Y-105046000D01*
X128046000Y-105046000D01*
X128046000Y-105026000D01*
X128354000Y-105026000D01*
X128354000Y-105046000D01*
X128374000Y-105046000D01*
X128374000Y-105354000D01*
X128354000Y-105354000D01*
X128354000Y-106156000D01*
X128506000Y-106308000D01*
X128700000Y-106310942D01*
X128819189Y-106299203D01*
X128933797Y-106264437D01*
X129039421Y-106207980D01*
X129132001Y-106132001D01*
X129207980Y-106039421D01*
X129264437Y-105933797D01*
X129299203Y-105819189D01*
X129310942Y-105700000D01*
X129309526Y-105606594D01*
X129378599Y-105709970D01*
X129490030Y-105821401D01*
X129621058Y-105908951D01*
X129766649Y-105969257D01*
X129921207Y-106000000D01*
X130078793Y-106000000D01*
X130233351Y-105969257D01*
X130378942Y-105908951D01*
X130509970Y-105821401D01*
X130621401Y-105709970D01*
X130708951Y-105578942D01*
X130769257Y-105433351D01*
X130800000Y-105278793D01*
X130800000Y-105121207D01*
X130769257Y-104966649D01*
X130708951Y-104821058D01*
X130621401Y-104690030D01*
X130509970Y-104578599D01*
X130378942Y-104491049D01*
X130233351Y-104430743D01*
X130089538Y-104402137D01*
X130012401Y-104325000D01*
X139484106Y-104325000D01*
X139533689Y-104329861D01*
G04 #@! TA.AperFunction,Conductor*
D20*
G36*
X139533689Y-104329861D02*
G01*
X139566090Y-104339644D01*
X139595982Y-104355537D01*
X139622213Y-104376932D01*
X139643791Y-104403015D01*
X139659888Y-104432786D01*
X139669899Y-104465125D01*
X139676392Y-104526904D01*
X139676350Y-104532946D01*
X139676792Y-104537462D01*
X139686992Y-104634511D01*
X139692919Y-104663385D01*
X139698435Y-104692299D01*
X139699746Y-104696644D01*
X139728602Y-104789863D01*
X139740036Y-104817063D01*
X139751053Y-104844330D01*
X139753183Y-104848337D01*
X139799596Y-104934175D01*
X139816069Y-104958597D01*
X139832197Y-104983242D01*
X139835065Y-104986759D01*
X139897266Y-105061948D01*
X139918192Y-105082728D01*
X139938775Y-105103747D01*
X139942271Y-105106640D01*
X140017892Y-105168316D01*
X140042439Y-105184625D01*
X140066736Y-105201261D01*
X140070727Y-105203420D01*
X140156888Y-105249232D01*
X140184139Y-105260464D01*
X140211193Y-105272059D01*
X140215528Y-105273401D01*
X140308946Y-105301606D01*
X140337845Y-105307328D01*
X140366657Y-105313452D01*
X140371170Y-105313927D01*
X140468287Y-105323449D01*
X140468292Y-105323449D01*
X140484039Y-105325000D01*
X141913128Y-105325000D01*
X141785980Y-105521360D01*
X141691486Y-105786199D01*
X141803840Y-105996000D01*
X143846000Y-105996000D01*
X143846000Y-105976000D01*
X144154000Y-105976000D01*
X144154000Y-105996000D01*
X146196160Y-105996000D01*
X146308514Y-105786199D01*
X146214020Y-105521360D01*
X146086872Y-105325000D01*
X146425001Y-105325000D01*
X146425000Y-118675000D01*
X146086872Y-118675000D01*
X146214020Y-118478640D01*
X146308514Y-118213801D01*
X146196160Y-118004000D01*
X144154000Y-118004000D01*
X144154000Y-118024000D01*
X143846000Y-118024000D01*
X143846000Y-118004000D01*
X141803840Y-118004000D01*
X141691486Y-118213801D01*
X141785980Y-118478640D01*
X141913128Y-118675000D01*
X140484039Y-118675000D01*
X140470116Y-118676371D01*
X140467055Y-118676350D01*
X140462538Y-118676792D01*
X140365490Y-118686992D01*
X140336629Y-118692917D01*
X140307701Y-118698435D01*
X140303356Y-118699746D01*
X140210137Y-118728602D01*
X140182950Y-118740031D01*
X140155669Y-118751053D01*
X140151662Y-118753183D01*
X140065825Y-118799596D01*
X140041411Y-118816064D01*
X140016758Y-118832197D01*
X140013241Y-118835065D01*
X139938052Y-118897267D01*
X139917292Y-118918173D01*
X139896253Y-118938775D01*
X139893360Y-118942272D01*
X139893356Y-118942276D01*
X139831684Y-119017892D01*
X139815385Y-119042424D01*
X139798739Y-119066736D01*
X139796580Y-119070727D01*
X139750768Y-119156888D01*
X139739536Y-119184139D01*
X139727941Y-119211193D01*
X139726599Y-119215528D01*
X139698394Y-119308946D01*
X139692674Y-119337837D01*
X139686548Y-119366656D01*
X139686073Y-119371170D01*
X139676551Y-119468284D01*
X139676551Y-119468287D01*
X139670139Y-119533689D01*
X139660356Y-119566090D01*
X139644462Y-119595984D01*
X139623068Y-119622214D01*
X139596989Y-119643789D01*
X139567213Y-119659889D01*
X139534875Y-119669899D01*
X139486342Y-119675000D01*
X133369083Y-119675000D01*
X133382478Y-119666050D01*
X133466050Y-119582478D01*
X133531713Y-119484207D01*
X133576942Y-119375014D01*
X133600000Y-119259095D01*
X133600000Y-119140905D01*
X133576942Y-119024986D01*
X133531713Y-118915793D01*
X133466050Y-118817522D01*
X133382478Y-118733950D01*
X133284207Y-118668287D01*
X133175014Y-118623058D01*
X133059095Y-118600000D01*
X132940905Y-118600000D01*
X132824986Y-118623058D01*
X132715793Y-118668287D01*
X132617522Y-118733950D01*
X132551472Y-118800000D01*
X132445891Y-118800000D01*
X132439257Y-118766649D01*
X132378951Y-118621058D01*
X132291401Y-118490030D01*
X132179970Y-118378599D01*
X132048942Y-118291049D01*
X131903351Y-118230743D01*
X131748793Y-118200000D01*
X131591207Y-118200000D01*
X131436649Y-118230743D01*
X131291058Y-118291049D01*
X131160030Y-118378599D01*
X131048599Y-118490030D01*
X130961049Y-118621058D01*
X130935818Y-118681971D01*
X130617789Y-119000000D01*
X130631931Y-119014142D01*
X130414142Y-119231931D01*
X130400000Y-119217789D01*
X130385858Y-119231931D01*
X130168069Y-119014142D01*
X130182211Y-119000000D01*
X129620099Y-118437888D01*
X129417411Y-118476462D01*
X129334153Y-118678215D01*
X129291856Y-118892335D01*
X129292145Y-119110592D01*
X129335007Y-119324598D01*
X129417411Y-119523538D01*
X129620097Y-119562112D01*
X129507208Y-119675000D01*
X124504833Y-119675000D01*
X123605755Y-119027629D01*
X122747490Y-118220099D01*
X129837888Y-118220099D01*
X130400000Y-118782211D01*
X130962112Y-118220099D01*
X130923538Y-118017411D01*
X130721785Y-117934153D01*
X130507665Y-117891856D01*
X130289408Y-117892145D01*
X130075402Y-117935007D01*
X129876462Y-118017411D01*
X129837888Y-118220099D01*
X122747490Y-118220099D01*
X122738039Y-118211207D01*
X121984310Y-117288512D01*
X121357459Y-116275319D01*
X120868226Y-115188990D01*
X120703251Y-114640652D01*
X120918108Y-114855510D01*
X120930000Y-114870000D01*
X120944489Y-114881891D01*
X120944494Y-114881896D01*
X120961829Y-114896122D01*
X120987862Y-114917487D01*
X121053877Y-114952772D01*
X121125507Y-114974501D01*
X121181339Y-114980000D01*
X121181346Y-114980000D01*
X121200000Y-114981837D01*
X121218654Y-114980000D01*
X121432294Y-114980000D01*
X121433950Y-114982478D01*
X121517522Y-115066050D01*
X121615793Y-115131713D01*
X121724986Y-115176942D01*
X121840905Y-115200000D01*
X121959095Y-115200000D01*
X122075014Y-115176942D01*
X122184207Y-115131713D01*
X122282478Y-115066050D01*
X122366050Y-114982478D01*
X122431713Y-114884207D01*
X122476942Y-114775014D01*
X122500000Y-114659095D01*
X122500000Y-114540905D01*
X122476942Y-114424986D01*
X122431713Y-114315793D01*
X122366050Y-114217522D01*
X122282478Y-114133950D01*
X122184207Y-114068287D01*
X122075014Y-114023058D01*
X121959095Y-114000000D01*
X121840905Y-114000000D01*
X121724986Y-114023058D01*
X121615793Y-114068287D01*
X121517522Y-114133950D01*
X121433950Y-114217522D01*
X121432294Y-114220000D01*
X121357402Y-114220000D01*
X121030000Y-113892600D01*
X121030000Y-112286569D01*
X121072787Y-112350604D01*
X121149396Y-112427213D01*
X121239477Y-112487403D01*
X121339571Y-112528864D01*
X121445830Y-112550000D01*
X121554170Y-112550000D01*
X121660429Y-112528864D01*
X121760523Y-112487403D01*
X121850604Y-112427213D01*
X121927213Y-112350604D01*
X121987403Y-112260523D01*
X122028864Y-112160429D01*
X122050000Y-112054170D01*
X122050000Y-111945830D01*
X122028864Y-111839571D01*
X121987403Y-111739477D01*
X121927213Y-111649396D01*
X121850604Y-111572787D01*
X121760523Y-111512597D01*
X121660429Y-111471136D01*
X121554170Y-111450000D01*
X121445830Y-111450000D01*
X121339571Y-111471136D01*
X121239477Y-111512597D01*
X121149396Y-111572787D01*
X121072787Y-111649396D01*
X121030000Y-111713431D01*
X121030000Y-110967706D01*
X121032478Y-110966050D01*
X121116050Y-110882478D01*
X121181713Y-110784207D01*
X121226942Y-110675014D01*
X121250000Y-110559095D01*
X121250000Y-110440905D01*
X121226942Y-110324986D01*
X121181713Y-110215793D01*
X121116050Y-110117522D01*
X121032478Y-110033950D01*
X120934207Y-109968287D01*
X120825014Y-109923058D01*
X120709095Y-109900000D01*
X120590905Y-109900000D01*
X120555476Y-109907047D01*
X120689955Y-109336177D01*
X121112168Y-108222079D01*
X121676190Y-107172621D01*
X122372368Y-106205760D01*
X123188793Y-105338039D01*
X123616340Y-104988785D01*
X123590000Y-105121207D01*
X123590000Y-105278793D01*
X123620743Y-105433351D01*
X123681049Y-105578942D01*
X123768599Y-105709970D01*
X123880030Y-105821401D01*
X124011058Y-105908951D01*
X124156649Y-105969257D01*
X124311207Y-106000000D01*
X124375440Y-106000000D01*
X124301983Y-106007235D01*
X124207733Y-106035825D01*
X124120871Y-106082254D01*
X124044736Y-106144736D01*
X124029075Y-106163819D01*
X122813824Y-107379071D01*
X122794736Y-107394736D01*
X122732254Y-107470871D01*
X122685825Y-107557734D01*
X122678964Y-107580353D01*
X122657235Y-107651983D01*
X122647581Y-107750000D01*
X122650000Y-107774560D01*
X122650001Y-110225430D01*
X122647581Y-110250000D01*
X122657235Y-110348017D01*
X122679999Y-110423058D01*
X122685826Y-110442267D01*
X122732255Y-110529129D01*
X122794737Y-110605264D01*
X122813819Y-110620924D01*
X123192894Y-111000000D01*
X123063823Y-111129071D01*
X123044736Y-111144736D01*
X122982254Y-111220871D01*
X122935825Y-111307734D01*
X122921407Y-111355264D01*
X122907235Y-111401983D01*
X122897581Y-111500000D01*
X122900000Y-111524560D01*
X122900001Y-114975430D01*
X122897581Y-115000000D01*
X122907235Y-115098017D01*
X122925083Y-115156852D01*
X122935826Y-115192267D01*
X122982255Y-115279129D01*
X123044737Y-115355264D01*
X123063819Y-115370924D01*
X123568409Y-115875516D01*
X123584066Y-115894594D01*
X123660201Y-115957076D01*
X123747063Y-116003505D01*
X123841313Y-116032095D01*
X123939330Y-116041749D01*
X123963890Y-116039330D01*
X131407866Y-116039330D01*
X131407866Y-116283305D01*
X131405447Y-116307866D01*
X131407866Y-116332425D01*
X131415101Y-116405882D01*
X131443691Y-116500132D01*
X131490120Y-116586995D01*
X131552602Y-116663130D01*
X131571690Y-116678795D01*
X131829075Y-116936181D01*
X131844736Y-116955264D01*
X131920871Y-117017746D01*
X132007733Y-117064175D01*
X132101983Y-117092765D01*
X132200000Y-117102419D01*
X132224560Y-117100000D01*
X137068331Y-117100000D01*
X137115793Y-117131713D01*
X137224986Y-117176942D01*
X137340905Y-117200000D01*
X137459095Y-117200000D01*
X137575014Y-117176942D01*
X137684207Y-117131713D01*
X137782478Y-117066050D01*
X137866050Y-116982478D01*
X137931713Y-116884207D01*
X137976942Y-116775014D01*
X137988079Y-116719028D01*
X138136186Y-116570921D01*
X138155264Y-116555264D01*
X138217746Y-116479129D01*
X138242095Y-116433575D01*
X141184214Y-116433575D01*
X141249041Y-116657969D01*
X141487457Y-116762715D01*
X141741727Y-116818935D01*
X142002080Y-116824470D01*
X142118513Y-116803872D01*
X141932026Y-116995815D01*
X141785980Y-117221360D01*
X141691486Y-117486199D01*
X141803840Y-117696000D01*
X143846000Y-117696000D01*
X143846000Y-116488000D01*
X144154000Y-116488000D01*
X144154000Y-117696000D01*
X146196160Y-117696000D01*
X146308514Y-117486199D01*
X146214020Y-117221360D01*
X146067974Y-116995815D01*
X145880733Y-116803096D01*
X145659492Y-116650609D01*
X145412754Y-116544214D01*
X145150000Y-116488000D01*
X144154000Y-116488000D01*
X143846000Y-116488000D01*
X142850000Y-116488000D01*
X142587246Y-116544214D01*
X142583335Y-116545900D01*
X142615786Y-116433575D01*
X141900000Y-115717789D01*
X141184214Y-116433575D01*
X138242095Y-116433575D01*
X138264175Y-116392267D01*
X138292765Y-116298017D01*
X138300000Y-116224560D01*
X138300000Y-116224551D01*
X138302418Y-116200001D01*
X138300000Y-116175451D01*
X138300000Y-115602080D01*
X140575530Y-115602080D01*
X140620895Y-115858510D01*
X140715414Y-116101163D01*
X140742031Y-116150959D01*
X140966425Y-116215786D01*
X141682211Y-115500000D01*
X142117789Y-115500000D01*
X142833575Y-116215786D01*
X143057969Y-116150959D01*
X143162715Y-115912543D01*
X143218935Y-115658273D01*
X143224470Y-115397920D01*
X143179105Y-115141490D01*
X143084586Y-114898837D01*
X143057969Y-114849041D01*
X142833575Y-114784214D01*
X142117789Y-115500000D01*
X141682211Y-115500000D01*
X140966425Y-114784214D01*
X140742031Y-114849041D01*
X140637285Y-115087457D01*
X140581065Y-115341727D01*
X140575530Y-115602080D01*
X138300000Y-115602080D01*
X138300000Y-114566425D01*
X141184214Y-114566425D01*
X141900000Y-115282211D01*
X142615786Y-114566425D01*
X142550959Y-114342031D01*
X142312543Y-114237285D01*
X142217552Y-114216282D01*
X143150000Y-114216282D01*
X143150000Y-114383718D01*
X143182665Y-114547936D01*
X143246740Y-114702626D01*
X143339762Y-114841844D01*
X143458156Y-114960238D01*
X143597374Y-115053260D01*
X143752064Y-115117335D01*
X143916282Y-115150000D01*
X144083718Y-115150000D01*
X144247936Y-115117335D01*
X144402626Y-115053260D01*
X144541844Y-114960238D01*
X144660238Y-114841844D01*
X144753260Y-114702626D01*
X144817335Y-114547936D01*
X144850000Y-114383718D01*
X144850000Y-114216282D01*
X144817335Y-114052064D01*
X144753260Y-113897374D01*
X144660238Y-113758156D01*
X144541844Y-113639762D01*
X144402626Y-113546740D01*
X144247936Y-113482665D01*
X144083718Y-113450000D01*
X143916282Y-113450000D01*
X143752064Y-113482665D01*
X143597374Y-113546740D01*
X143458156Y-113639762D01*
X143339762Y-113758156D01*
X143246740Y-113897374D01*
X143182665Y-114052064D01*
X143150000Y-114216282D01*
X142217552Y-114216282D01*
X142058273Y-114181065D01*
X141797920Y-114175530D01*
X141541490Y-114220895D01*
X141298837Y-114315414D01*
X141249041Y-114342031D01*
X141184214Y-114566425D01*
X138300000Y-114566425D01*
X138300000Y-113224560D01*
X138302419Y-113200000D01*
X138292765Y-113101982D01*
X138279755Y-113059095D01*
X138264175Y-113007733D01*
X138217746Y-112920871D01*
X138155264Y-112844736D01*
X138136181Y-112829075D01*
X136900000Y-111592895D01*
X136900000Y-110940905D01*
X138400000Y-110940905D01*
X138400000Y-111059095D01*
X138423058Y-111175014D01*
X138468287Y-111284207D01*
X138533950Y-111382478D01*
X138617522Y-111466050D01*
X138715793Y-111531713D01*
X138824986Y-111576942D01*
X138940905Y-111600000D01*
X139059095Y-111600000D01*
X139175014Y-111576942D01*
X139284207Y-111531713D01*
X139331669Y-111500000D01*
X140175440Y-111500000D01*
X140200000Y-111502419D01*
X140224560Y-111500000D01*
X140298017Y-111492765D01*
X140392267Y-111464175D01*
X140479129Y-111417746D01*
X140555264Y-111355264D01*
X140570928Y-111336177D01*
X140736181Y-111170925D01*
X140755264Y-111155264D01*
X140817746Y-111079129D01*
X140864175Y-110992267D01*
X140886000Y-110920319D01*
X140886000Y-111099870D01*
X140924968Y-111295773D01*
X141001405Y-111480309D01*
X141112375Y-111646387D01*
X141253613Y-111787625D01*
X141419691Y-111898595D01*
X141604227Y-111975032D01*
X141729748Y-112000000D01*
X141604227Y-112024968D01*
X141419691Y-112101405D01*
X141253613Y-112212375D01*
X141112375Y-112353613D01*
X141001405Y-112519691D01*
X140924968Y-112704227D01*
X140886000Y-112900130D01*
X140886000Y-113099870D01*
X140924968Y-113295773D01*
X141001405Y-113480309D01*
X141112375Y-113646387D01*
X141253613Y-113787625D01*
X141419691Y-113898595D01*
X141604227Y-113975032D01*
X141800130Y-114014000D01*
X141999870Y-114014000D01*
X142195773Y-113975032D01*
X142380309Y-113898595D01*
X142546387Y-113787625D01*
X142687625Y-113646387D01*
X142798595Y-113480309D01*
X142875032Y-113295773D01*
X142914000Y-113099870D01*
X142914000Y-112900130D01*
X142875032Y-112704227D01*
X142798595Y-112519691D01*
X142687625Y-112353613D01*
X142546387Y-112212375D01*
X142380309Y-112101405D01*
X142195773Y-112024968D01*
X142070252Y-112000000D01*
X142195773Y-111975032D01*
X142380309Y-111898595D01*
X142546387Y-111787625D01*
X142687625Y-111646387D01*
X142798595Y-111480309D01*
X142875032Y-111295773D01*
X142914000Y-111099870D01*
X142914000Y-110900130D01*
X142875032Y-110704227D01*
X142798595Y-110519691D01*
X142687625Y-110353613D01*
X142546387Y-110212375D01*
X142380309Y-110101405D01*
X142195773Y-110024968D01*
X141999870Y-109986000D01*
X141800130Y-109986000D01*
X141604227Y-110024968D01*
X141419691Y-110101405D01*
X141253613Y-110212375D01*
X141112375Y-110353613D01*
X141001405Y-110519691D01*
X140924968Y-110704227D01*
X140898988Y-110834836D01*
X140902419Y-110800000D01*
X140900000Y-110775440D01*
X140900000Y-109616282D01*
X143150000Y-109616282D01*
X143150000Y-109783718D01*
X143182665Y-109947936D01*
X143246740Y-110102626D01*
X143339762Y-110241844D01*
X143458156Y-110360238D01*
X143597374Y-110453260D01*
X143752064Y-110517335D01*
X143916282Y-110550000D01*
X144083718Y-110550000D01*
X144247936Y-110517335D01*
X144402626Y-110453260D01*
X144541844Y-110360238D01*
X144660238Y-110241844D01*
X144753260Y-110102626D01*
X144817335Y-109947936D01*
X144850000Y-109783718D01*
X144850000Y-109616282D01*
X144817335Y-109452064D01*
X144753260Y-109297374D01*
X144660238Y-109158156D01*
X144541844Y-109039762D01*
X144402626Y-108946740D01*
X144247936Y-108882665D01*
X144083718Y-108850000D01*
X143916282Y-108850000D01*
X143752064Y-108882665D01*
X143597374Y-108946740D01*
X143458156Y-109039762D01*
X143339762Y-109158156D01*
X143246740Y-109297374D01*
X143182665Y-109452064D01*
X143150000Y-109616282D01*
X140900000Y-109616282D01*
X140900000Y-109304650D01*
X140907496Y-109329360D01*
X140935353Y-109381477D01*
X140972842Y-109427158D01*
X141018523Y-109464647D01*
X141070640Y-109492504D01*
X141127190Y-109509659D01*
X141186000Y-109515451D01*
X142614000Y-109515451D01*
X142672810Y-109509659D01*
X142729360Y-109492504D01*
X142781477Y-109464647D01*
X142827158Y-109427158D01*
X142864647Y-109381477D01*
X142892504Y-109329360D01*
X142909659Y-109272810D01*
X142915451Y-109214000D01*
X142915451Y-107786000D01*
X142909659Y-107727190D01*
X142892504Y-107670640D01*
X142864647Y-107618523D01*
X142827158Y-107572842D01*
X142781477Y-107535353D01*
X142729360Y-107507496D01*
X142672810Y-107490341D01*
X142614000Y-107484549D01*
X141186000Y-107484549D01*
X141127190Y-107490341D01*
X141070640Y-107507496D01*
X141018523Y-107535353D01*
X140972842Y-107572842D01*
X140935353Y-107618523D01*
X140907496Y-107670640D01*
X140890341Y-107727190D01*
X140884549Y-107786000D01*
X140884549Y-108000000D01*
X140724557Y-108000000D01*
X140699999Y-107997581D01*
X140675441Y-108000000D01*
X140675440Y-108000000D01*
X140601983Y-108007235D01*
X140507733Y-108035825D01*
X140420871Y-108082254D01*
X140344736Y-108144736D01*
X140329071Y-108163824D01*
X140063820Y-108429075D01*
X140044737Y-108444736D01*
X139982255Y-108520871D01*
X139976460Y-108531713D01*
X139935826Y-108607733D01*
X139907235Y-108701983D01*
X139897581Y-108800000D01*
X139900001Y-108824570D01*
X139900000Y-110500000D01*
X139331669Y-110500000D01*
X139284207Y-110468287D01*
X139175014Y-110423058D01*
X139059095Y-110400000D01*
X138940905Y-110400000D01*
X138824986Y-110423058D01*
X138715793Y-110468287D01*
X138617522Y-110533950D01*
X138533950Y-110617522D01*
X138468287Y-110715793D01*
X138423058Y-110824986D01*
X138400000Y-110940905D01*
X136900000Y-110940905D01*
X136900000Y-110274560D01*
X136902419Y-110250000D01*
X136892765Y-110151983D01*
X136882671Y-110118708D01*
X136864175Y-110057733D01*
X136817746Y-109970871D01*
X136755264Y-109894736D01*
X136736186Y-109879079D01*
X136607106Y-109750000D01*
X136736186Y-109620921D01*
X136755264Y-109605264D01*
X136817746Y-109529129D01*
X136864175Y-109442267D01*
X136892765Y-109348017D01*
X136900000Y-109274560D01*
X136902419Y-109250000D01*
X136900000Y-109225440D01*
X136900000Y-106513801D01*
X141691486Y-106513801D01*
X141785980Y-106778640D01*
X141932026Y-107004185D01*
X142119267Y-107196904D01*
X142340508Y-107349391D01*
X142587246Y-107455786D01*
X142850000Y-107512000D01*
X143846000Y-107512000D01*
X143846000Y-106304000D01*
X144154000Y-106304000D01*
X144154000Y-107512000D01*
X145150000Y-107512000D01*
X145412754Y-107455786D01*
X145659492Y-107349391D01*
X145880733Y-107196904D01*
X146067974Y-107004185D01*
X146214020Y-106778640D01*
X146308514Y-106513801D01*
X146196160Y-106304000D01*
X144154000Y-106304000D01*
X143846000Y-106304000D01*
X141803840Y-106304000D01*
X141691486Y-106513801D01*
X136900000Y-106513801D01*
X136900000Y-106331669D01*
X136931713Y-106284207D01*
X136976942Y-106175014D01*
X137000000Y-106059095D01*
X137000000Y-105940905D01*
X136976942Y-105824986D01*
X136931713Y-105715793D01*
X136866050Y-105617522D01*
X136782478Y-105533950D01*
X136684207Y-105468287D01*
X136575014Y-105423058D01*
X136459095Y-105400000D01*
X136340905Y-105400000D01*
X136224986Y-105423058D01*
X136115793Y-105468287D01*
X136017522Y-105533950D01*
X135933950Y-105617522D01*
X135868287Y-105715793D01*
X135823058Y-105824986D01*
X135800000Y-105940905D01*
X135800000Y-106059095D01*
X135823058Y-106175014D01*
X135868287Y-106284207D01*
X135900000Y-106331669D01*
X135900001Y-109042893D01*
X135780973Y-109161921D01*
X135724986Y-109173058D01*
X135615793Y-109218287D01*
X135550000Y-109262249D01*
X135550000Y-107698528D01*
X135616050Y-107632478D01*
X135681713Y-107534207D01*
X135726942Y-107425014D01*
X135750000Y-107309095D01*
X135750000Y-107190905D01*
X135726942Y-107074986D01*
X135681713Y-106965793D01*
X135616050Y-106867522D01*
X135532478Y-106783950D01*
X135434207Y-106718287D01*
X135325014Y-106673058D01*
X135209095Y-106650000D01*
X135090905Y-106650000D01*
X134974986Y-106673058D01*
X134865793Y-106718287D01*
X134767522Y-106783950D01*
X134701472Y-106850000D01*
X126509584Y-106850000D01*
X126520929Y-106836176D01*
X127248665Y-106108442D01*
X127267999Y-106132001D01*
X127360579Y-106207980D01*
X127466203Y-106264437D01*
X127580811Y-106299203D01*
X127700000Y-106310942D01*
X127894000Y-106308000D01*
X128046000Y-106156000D01*
X128046000Y-105354000D01*
X128026000Y-105354000D01*
X128026000Y-105046000D01*
X128046000Y-105046000D01*
X128046000Y-105026000D01*
X128354000Y-105026000D01*
X128354000Y-105046000D01*
X128374000Y-105046000D01*
X128374000Y-105354000D01*
X128354000Y-105354000D01*
X128354000Y-106156000D01*
X128506000Y-106308000D01*
X128700000Y-106310942D01*
X128819189Y-106299203D01*
X128933797Y-106264437D01*
X129039421Y-106207980D01*
X129132001Y-106132001D01*
X129207980Y-106039421D01*
X129264437Y-105933797D01*
X129299203Y-105819189D01*
X129310942Y-105700000D01*
X129309526Y-105606594D01*
X129378599Y-105709970D01*
X129490030Y-105821401D01*
X129621058Y-105908951D01*
X129766649Y-105969257D01*
X129921207Y-106000000D01*
X130078793Y-106000000D01*
X130233351Y-105969257D01*
X130378942Y-105908951D01*
X130509970Y-105821401D01*
X130621401Y-105709970D01*
X130708951Y-105578942D01*
X130769257Y-105433351D01*
X130800000Y-105278793D01*
X130800000Y-105121207D01*
X130769257Y-104966649D01*
X130708951Y-104821058D01*
X130621401Y-104690030D01*
X130509970Y-104578599D01*
X130378942Y-104491049D01*
X130233351Y-104430743D01*
X130089538Y-104402137D01*
X130012401Y-104325000D01*
X139484106Y-104325000D01*
X139533689Y-104329861D01*
G37*
G04 #@! TD.AperFunction*
D18*
X134750001Y-107698529D02*
X134750000Y-109980353D01*
X134748065Y-110000000D01*
X134750000Y-110019646D01*
X134755788Y-110078413D01*
X134778660Y-110153813D01*
X134815803Y-110223302D01*
X134865789Y-110284211D01*
X134881052Y-110296737D01*
X135050000Y-110465685D01*
X135050000Y-110559095D01*
X135073058Y-110675014D01*
X135118287Y-110784207D01*
X135183950Y-110882478D01*
X135267522Y-110966050D01*
X135365793Y-111031713D01*
X135474986Y-111076942D01*
X135590905Y-111100000D01*
X135709095Y-111100000D01*
X135825014Y-111076942D01*
X135900001Y-111045882D01*
X135900001Y-111775430D01*
X135897581Y-111800000D01*
X135907235Y-111898017D01*
X135927304Y-111964174D01*
X135935826Y-111992267D01*
X135982255Y-112079129D01*
X136044737Y-112155264D01*
X136063819Y-112170924D01*
X137300000Y-113407106D01*
X137300001Y-115992893D01*
X137280972Y-116011921D01*
X137224986Y-116023058D01*
X137115793Y-116068287D01*
X137068331Y-116100000D01*
X132407866Y-116100000D01*
X132407866Y-115870999D01*
X132439579Y-115823537D01*
X132484808Y-115714344D01*
X132507866Y-115598425D01*
X132507866Y-115480235D01*
X132484808Y-115364316D01*
X132439579Y-115255123D01*
X132384668Y-115172943D01*
X132484207Y-115131713D01*
X132582478Y-115066050D01*
X132666050Y-114982478D01*
X132731713Y-114884207D01*
X132776942Y-114775014D01*
X132800000Y-114659095D01*
X132800000Y-114540905D01*
X132776942Y-114424986D01*
X132731713Y-114315793D01*
X132666050Y-114217522D01*
X132582478Y-114133950D01*
X132484207Y-114068287D01*
X132375014Y-114023058D01*
X132259095Y-114000000D01*
X132140905Y-114000000D01*
X132024986Y-114023058D01*
X131915793Y-114068287D01*
X131817522Y-114133950D01*
X131733950Y-114217522D01*
X131668287Y-114315793D01*
X131623058Y-114424986D01*
X131600000Y-114540905D01*
X131600000Y-114620000D01*
X131558308Y-114620000D01*
X131576942Y-114575014D01*
X131600000Y-114459095D01*
X131600000Y-114340905D01*
X131576942Y-114224986D01*
X131531713Y-114115793D01*
X131466050Y-114017522D01*
X131382478Y-113933950D01*
X131284207Y-113868287D01*
X131175014Y-113823058D01*
X131059095Y-113800000D01*
X130940905Y-113800000D01*
X130824986Y-113823058D01*
X130715793Y-113868287D01*
X130617522Y-113933950D01*
X130533950Y-114017522D01*
X130532294Y-114020000D01*
X125480000Y-114020000D01*
X125480000Y-112318653D01*
X125481837Y-112299999D01*
X125480000Y-112281345D01*
X125480000Y-112281339D01*
X125474501Y-112225507D01*
X125452772Y-112153877D01*
X125417487Y-112087862D01*
X125370000Y-112030000D01*
X125355506Y-112018105D01*
X125180556Y-111843156D01*
X125176942Y-111824986D01*
X125131713Y-111715793D01*
X125066050Y-111617522D01*
X124982478Y-111533950D01*
X124956669Y-111516705D01*
X125032478Y-111466050D01*
X125116050Y-111382478D01*
X125181713Y-111284207D01*
X125226942Y-111175014D01*
X125250000Y-111059095D01*
X125250000Y-110940905D01*
X125226942Y-110824986D01*
X125181713Y-110715793D01*
X125116050Y-110617522D01*
X125032478Y-110533950D01*
X124934207Y-110468287D01*
X124825014Y-110423058D01*
X124709095Y-110400000D01*
X124590905Y-110400000D01*
X124474986Y-110423058D01*
X124365793Y-110468287D01*
X124318331Y-110500000D01*
X124107106Y-110500000D01*
X123650000Y-110042895D01*
X123650000Y-107957105D01*
X123852006Y-107755099D01*
X123823058Y-107824986D01*
X123800000Y-107940905D01*
X123800000Y-108059095D01*
X123823058Y-108175014D01*
X123868287Y-108284207D01*
X123933950Y-108382478D01*
X124000000Y-108448528D01*
X124000001Y-108980344D01*
X123998065Y-109000000D01*
X124005788Y-109078413D01*
X124028661Y-109153814D01*
X124065803Y-109223302D01*
X124103265Y-109268950D01*
X124103268Y-109268953D01*
X124115790Y-109284211D01*
X124131048Y-109296733D01*
X124503263Y-109668948D01*
X124515789Y-109684211D01*
X124576697Y-109734197D01*
X124646186Y-109771340D01*
X124721586Y-109794212D01*
X124780353Y-109800000D01*
X124780363Y-109800000D01*
X124799999Y-109801934D01*
X124819635Y-109800000D01*
X125151472Y-109800000D01*
X125217522Y-109866050D01*
X125315793Y-109931713D01*
X125424986Y-109976942D01*
X125540905Y-110000000D01*
X125659095Y-110000000D01*
X125775014Y-109976942D01*
X125884207Y-109931713D01*
X125982478Y-109866050D01*
X126066050Y-109782478D01*
X126131713Y-109684207D01*
X126176942Y-109575014D01*
X126200000Y-109459095D01*
X126200000Y-109340905D01*
X126176942Y-109224986D01*
X126131713Y-109115793D01*
X126066050Y-109017522D01*
X125982478Y-108933950D01*
X125884207Y-108868287D01*
X125775014Y-108823058D01*
X125659095Y-108800000D01*
X125540905Y-108800000D01*
X125424986Y-108823058D01*
X125315793Y-108868287D01*
X125217522Y-108933950D01*
X125151472Y-109000000D01*
X124965685Y-109000000D01*
X124800000Y-108834315D01*
X124800000Y-108448528D01*
X124866050Y-108382478D01*
X124931713Y-108284207D01*
X124976942Y-108175014D01*
X125000000Y-108059095D01*
X125000000Y-107940905D01*
X124976942Y-107824986D01*
X124931713Y-107715793D01*
X124898940Y-107666745D01*
X124915686Y-107650000D01*
X134701472Y-107650000D01*
X134750001Y-107698529D01*
G04 #@! TA.AperFunction,Conductor*
D20*
G36*
X134750001Y-107698529D02*
G01*
X134750000Y-109980353D01*
X134748065Y-110000000D01*
X134750000Y-110019646D01*
X134755788Y-110078413D01*
X134778660Y-110153813D01*
X134815803Y-110223302D01*
X134865789Y-110284211D01*
X134881052Y-110296737D01*
X135050000Y-110465685D01*
X135050000Y-110559095D01*
X135073058Y-110675014D01*
X135118287Y-110784207D01*
X135183950Y-110882478D01*
X135267522Y-110966050D01*
X135365793Y-111031713D01*
X135474986Y-111076942D01*
X135590905Y-111100000D01*
X135709095Y-111100000D01*
X135825014Y-111076942D01*
X135900001Y-111045882D01*
X135900001Y-111775430D01*
X135897581Y-111800000D01*
X135907235Y-111898017D01*
X135927304Y-111964174D01*
X135935826Y-111992267D01*
X135982255Y-112079129D01*
X136044737Y-112155264D01*
X136063819Y-112170924D01*
X137300000Y-113407106D01*
X137300001Y-115992893D01*
X137280972Y-116011921D01*
X137224986Y-116023058D01*
X137115793Y-116068287D01*
X137068331Y-116100000D01*
X132407866Y-116100000D01*
X132407866Y-115870999D01*
X132439579Y-115823537D01*
X132484808Y-115714344D01*
X132507866Y-115598425D01*
X132507866Y-115480235D01*
X132484808Y-115364316D01*
X132439579Y-115255123D01*
X132384668Y-115172943D01*
X132484207Y-115131713D01*
X132582478Y-115066050D01*
X132666050Y-114982478D01*
X132731713Y-114884207D01*
X132776942Y-114775014D01*
X132800000Y-114659095D01*
X132800000Y-114540905D01*
X132776942Y-114424986D01*
X132731713Y-114315793D01*
X132666050Y-114217522D01*
X132582478Y-114133950D01*
X132484207Y-114068287D01*
X132375014Y-114023058D01*
X132259095Y-114000000D01*
X132140905Y-114000000D01*
X132024986Y-114023058D01*
X131915793Y-114068287D01*
X131817522Y-114133950D01*
X131733950Y-114217522D01*
X131668287Y-114315793D01*
X131623058Y-114424986D01*
X131600000Y-114540905D01*
X131600000Y-114620000D01*
X131558308Y-114620000D01*
X131576942Y-114575014D01*
X131600000Y-114459095D01*
X131600000Y-114340905D01*
X131576942Y-114224986D01*
X131531713Y-114115793D01*
X131466050Y-114017522D01*
X131382478Y-113933950D01*
X131284207Y-113868287D01*
X131175014Y-113823058D01*
X131059095Y-113800000D01*
X130940905Y-113800000D01*
X130824986Y-113823058D01*
X130715793Y-113868287D01*
X130617522Y-113933950D01*
X130533950Y-114017522D01*
X130532294Y-114020000D01*
X125480000Y-114020000D01*
X125480000Y-112318653D01*
X125481837Y-112299999D01*
X125480000Y-112281345D01*
X125480000Y-112281339D01*
X125474501Y-112225507D01*
X125452772Y-112153877D01*
X125417487Y-112087862D01*
X125370000Y-112030000D01*
X125355506Y-112018105D01*
X125180556Y-111843156D01*
X125176942Y-111824986D01*
X125131713Y-111715793D01*
X125066050Y-111617522D01*
X124982478Y-111533950D01*
X124956669Y-111516705D01*
X125032478Y-111466050D01*
X125116050Y-111382478D01*
X125181713Y-111284207D01*
X125226942Y-111175014D01*
X125250000Y-111059095D01*
X125250000Y-110940905D01*
X125226942Y-110824986D01*
X125181713Y-110715793D01*
X125116050Y-110617522D01*
X125032478Y-110533950D01*
X124934207Y-110468287D01*
X124825014Y-110423058D01*
X124709095Y-110400000D01*
X124590905Y-110400000D01*
X124474986Y-110423058D01*
X124365793Y-110468287D01*
X124318331Y-110500000D01*
X124107106Y-110500000D01*
X123650000Y-110042895D01*
X123650000Y-107957105D01*
X123852006Y-107755099D01*
X123823058Y-107824986D01*
X123800000Y-107940905D01*
X123800000Y-108059095D01*
X123823058Y-108175014D01*
X123868287Y-108284207D01*
X123933950Y-108382478D01*
X124000000Y-108448528D01*
X124000001Y-108980344D01*
X123998065Y-109000000D01*
X124005788Y-109078413D01*
X124028661Y-109153814D01*
X124065803Y-109223302D01*
X124103265Y-109268950D01*
X124103268Y-109268953D01*
X124115790Y-109284211D01*
X124131048Y-109296733D01*
X124503263Y-109668948D01*
X124515789Y-109684211D01*
X124576697Y-109734197D01*
X124646186Y-109771340D01*
X124721586Y-109794212D01*
X124780353Y-109800000D01*
X124780363Y-109800000D01*
X124799999Y-109801934D01*
X124819635Y-109800000D01*
X125151472Y-109800000D01*
X125217522Y-109866050D01*
X125315793Y-109931713D01*
X125424986Y-109976942D01*
X125540905Y-110000000D01*
X125659095Y-110000000D01*
X125775014Y-109976942D01*
X125884207Y-109931713D01*
X125982478Y-109866050D01*
X126066050Y-109782478D01*
X126131713Y-109684207D01*
X126176942Y-109575014D01*
X126200000Y-109459095D01*
X126200000Y-109340905D01*
X126176942Y-109224986D01*
X126131713Y-109115793D01*
X126066050Y-109017522D01*
X125982478Y-108933950D01*
X125884207Y-108868287D01*
X125775014Y-108823058D01*
X125659095Y-108800000D01*
X125540905Y-108800000D01*
X125424986Y-108823058D01*
X125315793Y-108868287D01*
X125217522Y-108933950D01*
X125151472Y-109000000D01*
X124965685Y-109000000D01*
X124800000Y-108834315D01*
X124800000Y-108448528D01*
X124866050Y-108382478D01*
X124931713Y-108284207D01*
X124976942Y-108175014D01*
X125000000Y-108059095D01*
X125000000Y-107940905D01*
X124976942Y-107824986D01*
X124931713Y-107715793D01*
X124898940Y-107666745D01*
X124915686Y-107650000D01*
X134701472Y-107650000D01*
X134750001Y-107698529D01*
G37*
G04 #@! TD.AperFunction*
M02*
