%TF.GenerationSoftware,KiCad,Pcbnew,6.0.9-8da3e8f707~116~ubuntu22.04.1*%
%TF.CreationDate,2022-12-05T14:03:31-05:00*%
%TF.ProjectId,OSSG_v0p5,4f535347-5f76-4307-9035-2e6b69636164,v0.4*%
%TF.SameCoordinates,Original*%
%TF.FileFunction,Drillmap*%
%TF.FilePolarity,Positive*%
%FSLAX45Y45*%
G04 Gerber Fmt 4.5, Leading zero omitted, Abs format (unit mm)*
G04 Created by KiCad (PCBNEW 6.0.9-8da3e8f707~116~ubuntu22.04.1) date 2022-12-05 14:03:31*
%MOMM*%
%LPD*%
G01*
G04 APERTURE LIST*
%ADD10C,0.100000*%
%ADD11C,0.200000*%
%ADD12C,0.050000*%
%ADD13C,0.075000*%
G04 APERTURE END LIST*
D10*
X7920000Y-7635000D02*
G75*
G03*
X7920000Y-7635000I-60000J0D01*
G01*
X6700000Y-8400000D02*
X6700000Y-7500000D01*
X6700000Y-7500000D02*
X9500000Y-7500000D01*
X10600000Y-7350000D02*
X10600000Y-7500000D01*
X14502500Y-7720000D02*
G75*
G03*
X14502500Y-7720000I-60000J0D01*
G01*
X9500000Y-7350000D02*
X10600000Y-7350000D01*
X10600000Y-7500000D02*
X16000000Y-7500000D01*
X6700000Y-8400000D02*
X13500000Y-8400000D01*
X13500000Y-8400000D02*
X16000000Y-8000000D01*
X11575000Y-7607500D02*
G75*
G03*
X11575000Y-7607500I-60000J0D01*
G01*
X16000000Y-8000000D02*
X16000000Y-7500000D01*
X9500000Y-7500000D02*
X9500000Y-7350000D01*
D11*
D12*
X7675000Y-8255000D02*
X7725000Y-8305000D01*
X7725000Y-8255000D02*
X7675000Y-8305000D01*
D13*
X7102500Y-8072500D02*
G75*
G03*
X7102500Y-8072500I-37500J0D01*
G01*
X7102500Y-8347500D02*
G75*
G03*
X7102500Y-8347500I-37500J0D01*
G01*
D11*
X6952619Y-8715476D02*
X6952619Y-8515476D01*
X7000238Y-8515476D01*
X7028809Y-8525000D01*
X7047857Y-8544048D01*
X7057381Y-8563095D01*
X7066905Y-8601190D01*
X7066905Y-8629762D01*
X7057381Y-8667857D01*
X7047857Y-8686905D01*
X7028809Y-8705952D01*
X7000238Y-8715476D01*
X6952619Y-8715476D01*
X7152619Y-8715476D02*
X7152619Y-8582143D01*
X7152619Y-8620238D02*
X7162143Y-8601190D01*
X7171667Y-8591667D01*
X7190714Y-8582143D01*
X7209762Y-8582143D01*
X7276428Y-8715476D02*
X7276428Y-8582143D01*
X7276428Y-8515476D02*
X7266905Y-8525000D01*
X7276428Y-8534524D01*
X7285952Y-8525000D01*
X7276428Y-8515476D01*
X7276428Y-8534524D01*
X7400238Y-8715476D02*
X7381190Y-8705952D01*
X7371667Y-8686905D01*
X7371667Y-8515476D01*
X7505000Y-8715476D02*
X7485952Y-8705952D01*
X7476428Y-8686905D01*
X7476428Y-8515476D01*
X7733571Y-8715476D02*
X7733571Y-8515476D01*
X7800238Y-8658333D01*
X7866905Y-8515476D01*
X7866905Y-8715476D01*
X8047857Y-8715476D02*
X8047857Y-8610714D01*
X8038333Y-8591667D01*
X8019286Y-8582143D01*
X7981190Y-8582143D01*
X7962143Y-8591667D01*
X8047857Y-8705952D02*
X8028809Y-8715476D01*
X7981190Y-8715476D01*
X7962143Y-8705952D01*
X7952619Y-8686905D01*
X7952619Y-8667857D01*
X7962143Y-8648810D01*
X7981190Y-8639286D01*
X8028809Y-8639286D01*
X8047857Y-8629762D01*
X8143095Y-8582143D02*
X8143095Y-8782143D01*
X8143095Y-8591667D02*
X8162143Y-8582143D01*
X8200238Y-8582143D01*
X8219286Y-8591667D01*
X8228809Y-8601190D01*
X8238333Y-8620238D01*
X8238333Y-8677381D01*
X8228809Y-8696429D01*
X8219286Y-8705952D01*
X8200238Y-8715476D01*
X8162143Y-8715476D01*
X8143095Y-8705952D01*
X8324048Y-8696429D02*
X8333571Y-8705952D01*
X8324048Y-8715476D01*
X8314524Y-8705952D01*
X8324048Y-8696429D01*
X8324048Y-8715476D01*
X8324048Y-8591667D02*
X8333571Y-8601190D01*
X8324048Y-8610714D01*
X8314524Y-8601190D01*
X8324048Y-8591667D01*
X8324048Y-8610714D01*
D12*
X6645000Y-9020000D02*
X6695000Y-9070000D01*
X6695000Y-9020000D02*
X6645000Y-9070000D01*
D11*
X6990714Y-8935476D02*
X7009762Y-8935476D01*
X7028809Y-8945000D01*
X7038333Y-8954524D01*
X7047857Y-8973571D01*
X7057381Y-9011667D01*
X7057381Y-9059286D01*
X7047857Y-9097381D01*
X7038333Y-9116429D01*
X7028809Y-9125952D01*
X7009762Y-9135476D01*
X6990714Y-9135476D01*
X6971667Y-9125952D01*
X6962143Y-9116429D01*
X6952619Y-9097381D01*
X6943095Y-9059286D01*
X6943095Y-9011667D01*
X6952619Y-8973571D01*
X6962143Y-8954524D01*
X6971667Y-8945000D01*
X6990714Y-8935476D01*
X7143095Y-9116429D02*
X7152619Y-9125952D01*
X7143095Y-9135476D01*
X7133571Y-9125952D01*
X7143095Y-9116429D01*
X7143095Y-9135476D01*
X7333571Y-8935476D02*
X7238333Y-8935476D01*
X7228809Y-9030714D01*
X7238333Y-9021190D01*
X7257381Y-9011667D01*
X7305000Y-9011667D01*
X7324048Y-9021190D01*
X7333571Y-9030714D01*
X7343095Y-9049762D01*
X7343095Y-9097381D01*
X7333571Y-9116429D01*
X7324048Y-9125952D01*
X7305000Y-9135476D01*
X7257381Y-9135476D01*
X7238333Y-9125952D01*
X7228809Y-9116429D01*
X7466905Y-8935476D02*
X7485952Y-8935476D01*
X7505000Y-8945000D01*
X7514524Y-8954524D01*
X7524048Y-8973571D01*
X7533571Y-9011667D01*
X7533571Y-9059286D01*
X7524048Y-9097381D01*
X7514524Y-9116429D01*
X7505000Y-9125952D01*
X7485952Y-9135476D01*
X7466905Y-9135476D01*
X7447857Y-9125952D01*
X7438333Y-9116429D01*
X7428809Y-9097381D01*
X7419286Y-9059286D01*
X7419286Y-9011667D01*
X7428809Y-8973571D01*
X7438333Y-8954524D01*
X7447857Y-8945000D01*
X7466905Y-8935476D01*
X7657381Y-8935476D02*
X7676428Y-8935476D01*
X7695476Y-8945000D01*
X7705000Y-8954524D01*
X7714524Y-8973571D01*
X7724048Y-9011667D01*
X7724048Y-9059286D01*
X7714524Y-9097381D01*
X7705000Y-9116429D01*
X7695476Y-9125952D01*
X7676428Y-9135476D01*
X7657381Y-9135476D01*
X7638333Y-9125952D01*
X7628809Y-9116429D01*
X7619286Y-9097381D01*
X7609762Y-9059286D01*
X7609762Y-9011667D01*
X7619286Y-8973571D01*
X7628809Y-8954524D01*
X7638333Y-8945000D01*
X7657381Y-8935476D01*
X7809762Y-9135476D02*
X7809762Y-9002143D01*
X7809762Y-9021190D02*
X7819286Y-9011667D01*
X7838333Y-9002143D01*
X7866905Y-9002143D01*
X7885952Y-9011667D01*
X7895476Y-9030714D01*
X7895476Y-9135476D01*
X7895476Y-9030714D02*
X7905000Y-9011667D01*
X7924048Y-9002143D01*
X7952619Y-9002143D01*
X7971667Y-9011667D01*
X7981190Y-9030714D01*
X7981190Y-9135476D01*
X8076428Y-9135476D02*
X8076428Y-9002143D01*
X8076428Y-9021190D02*
X8085952Y-9011667D01*
X8105000Y-9002143D01*
X8133571Y-9002143D01*
X8152619Y-9011667D01*
X8162143Y-9030714D01*
X8162143Y-9135476D01*
X8162143Y-9030714D02*
X8171667Y-9011667D01*
X8190714Y-9002143D01*
X8219286Y-9002143D01*
X8238333Y-9011667D01*
X8247857Y-9030714D01*
X8247857Y-9135476D01*
X8638333Y-8925952D02*
X8466905Y-9183095D01*
X8895476Y-8935476D02*
X8914524Y-8935476D01*
X8933571Y-8945000D01*
X8943095Y-8954524D01*
X8952619Y-8973571D01*
X8962143Y-9011667D01*
X8962143Y-9059286D01*
X8952619Y-9097381D01*
X8943095Y-9116429D01*
X8933571Y-9125952D01*
X8914524Y-9135476D01*
X8895476Y-9135476D01*
X8876429Y-9125952D01*
X8866905Y-9116429D01*
X8857381Y-9097381D01*
X8847857Y-9059286D01*
X8847857Y-9011667D01*
X8857381Y-8973571D01*
X8866905Y-8954524D01*
X8876429Y-8945000D01*
X8895476Y-8935476D01*
X9047857Y-9116429D02*
X9057381Y-9125952D01*
X9047857Y-9135476D01*
X9038333Y-9125952D01*
X9047857Y-9116429D01*
X9047857Y-9135476D01*
X9181190Y-8935476D02*
X9200238Y-8935476D01*
X9219286Y-8945000D01*
X9228810Y-8954524D01*
X9238333Y-8973571D01*
X9247857Y-9011667D01*
X9247857Y-9059286D01*
X9238333Y-9097381D01*
X9228810Y-9116429D01*
X9219286Y-9125952D01*
X9200238Y-9135476D01*
X9181190Y-9135476D01*
X9162143Y-9125952D01*
X9152619Y-9116429D01*
X9143095Y-9097381D01*
X9133571Y-9059286D01*
X9133571Y-9011667D01*
X9143095Y-8973571D01*
X9152619Y-8954524D01*
X9162143Y-8945000D01*
X9181190Y-8935476D01*
X9438333Y-9135476D02*
X9324048Y-9135476D01*
X9381190Y-9135476D02*
X9381190Y-8935476D01*
X9362143Y-8964048D01*
X9343095Y-8983095D01*
X9324048Y-8992619D01*
X9533571Y-9135476D02*
X9571667Y-9135476D01*
X9590714Y-9125952D01*
X9600238Y-9116429D01*
X9619286Y-9087857D01*
X9628810Y-9049762D01*
X9628810Y-8973571D01*
X9619286Y-8954524D01*
X9609762Y-8945000D01*
X9590714Y-8935476D01*
X9552619Y-8935476D01*
X9533571Y-8945000D01*
X9524048Y-8954524D01*
X9514524Y-8973571D01*
X9514524Y-9021190D01*
X9524048Y-9040238D01*
X9533571Y-9049762D01*
X9552619Y-9059286D01*
X9590714Y-9059286D01*
X9609762Y-9049762D01*
X9619286Y-9040238D01*
X9628810Y-9021190D01*
X9695476Y-8935476D02*
X9828810Y-8935476D01*
X9743095Y-9135476D01*
X9895476Y-8935476D02*
X9895476Y-8973571D01*
X9971667Y-8935476D02*
X9971667Y-8973571D01*
X10266905Y-9211667D02*
X10257381Y-9202143D01*
X10238333Y-9173571D01*
X10228810Y-9154524D01*
X10219286Y-9125952D01*
X10209762Y-9078333D01*
X10209762Y-9040238D01*
X10219286Y-8992619D01*
X10228810Y-8964048D01*
X10238333Y-8945000D01*
X10257381Y-8916429D01*
X10266905Y-8906905D01*
X10447857Y-9135476D02*
X10333571Y-9135476D01*
X10390714Y-9135476D02*
X10390714Y-8935476D01*
X10371667Y-8964048D01*
X10352619Y-8983095D01*
X10333571Y-8992619D01*
X10685952Y-9135476D02*
X10685952Y-8935476D01*
X10771667Y-9135476D02*
X10771667Y-9030714D01*
X10762143Y-9011667D01*
X10743095Y-9002143D01*
X10714524Y-9002143D01*
X10695476Y-9011667D01*
X10685952Y-9021190D01*
X10895476Y-9135476D02*
X10876429Y-9125952D01*
X10866905Y-9116429D01*
X10857381Y-9097381D01*
X10857381Y-9040238D01*
X10866905Y-9021190D01*
X10876429Y-9011667D01*
X10895476Y-9002143D01*
X10924048Y-9002143D01*
X10943095Y-9011667D01*
X10952619Y-9021190D01*
X10962143Y-9040238D01*
X10962143Y-9097381D01*
X10952619Y-9116429D01*
X10943095Y-9125952D01*
X10924048Y-9135476D01*
X10895476Y-9135476D01*
X11076429Y-9135476D02*
X11057381Y-9125952D01*
X11047857Y-9106905D01*
X11047857Y-8935476D01*
X11228809Y-9125952D02*
X11209762Y-9135476D01*
X11171667Y-9135476D01*
X11152619Y-9125952D01*
X11143095Y-9106905D01*
X11143095Y-9030714D01*
X11152619Y-9011667D01*
X11171667Y-9002143D01*
X11209762Y-9002143D01*
X11228809Y-9011667D01*
X11238333Y-9030714D01*
X11238333Y-9049762D01*
X11143095Y-9068810D01*
X11305000Y-9211667D02*
X11314524Y-9202143D01*
X11333571Y-9173571D01*
X11343095Y-9154524D01*
X11352619Y-9125952D01*
X11362143Y-9078333D01*
X11362143Y-9040238D01*
X11352619Y-8992619D01*
X11343095Y-8964048D01*
X11333571Y-8945000D01*
X11314524Y-8916429D01*
X11305000Y-8906905D01*
X11666905Y-9211667D02*
X11657381Y-9202143D01*
X11638333Y-9173571D01*
X11628809Y-9154524D01*
X11619286Y-9125952D01*
X11609762Y-9078333D01*
X11609762Y-9040238D01*
X11619286Y-8992619D01*
X11628809Y-8964048D01*
X11638333Y-8945000D01*
X11657381Y-8916429D01*
X11666905Y-8906905D01*
X11743095Y-9002143D02*
X11743095Y-9135476D01*
X11743095Y-9021190D02*
X11752619Y-9011667D01*
X11771667Y-9002143D01*
X11800238Y-9002143D01*
X11819286Y-9011667D01*
X11828809Y-9030714D01*
X11828809Y-9135476D01*
X11952619Y-9135476D02*
X11933571Y-9125952D01*
X11924048Y-9116429D01*
X11914524Y-9097381D01*
X11914524Y-9040238D01*
X11924048Y-9021190D01*
X11933571Y-9011667D01*
X11952619Y-9002143D01*
X11981190Y-9002143D01*
X12000238Y-9011667D01*
X12009762Y-9021190D01*
X12019286Y-9040238D01*
X12019286Y-9097381D01*
X12009762Y-9116429D01*
X12000238Y-9125952D01*
X11981190Y-9135476D01*
X11952619Y-9135476D01*
X12076428Y-9002143D02*
X12152619Y-9002143D01*
X12105000Y-8935476D02*
X12105000Y-9106905D01*
X12114524Y-9125952D01*
X12133571Y-9135476D01*
X12152619Y-9135476D01*
X12371667Y-9002143D02*
X12371667Y-9202143D01*
X12371667Y-9011667D02*
X12390714Y-9002143D01*
X12428809Y-9002143D01*
X12447857Y-9011667D01*
X12457381Y-9021190D01*
X12466905Y-9040238D01*
X12466905Y-9097381D01*
X12457381Y-9116429D01*
X12447857Y-9125952D01*
X12428809Y-9135476D01*
X12390714Y-9135476D01*
X12371667Y-9125952D01*
X12581190Y-9135476D02*
X12562143Y-9125952D01*
X12552619Y-9106905D01*
X12552619Y-8935476D01*
X12743095Y-9135476D02*
X12743095Y-9030714D01*
X12733571Y-9011667D01*
X12714524Y-9002143D01*
X12676428Y-9002143D01*
X12657381Y-9011667D01*
X12743095Y-9125952D02*
X12724048Y-9135476D01*
X12676428Y-9135476D01*
X12657381Y-9125952D01*
X12647857Y-9106905D01*
X12647857Y-9087857D01*
X12657381Y-9068810D01*
X12676428Y-9059286D01*
X12724048Y-9059286D01*
X12743095Y-9049762D01*
X12809762Y-9002143D02*
X12885952Y-9002143D01*
X12838333Y-8935476D02*
X12838333Y-9106905D01*
X12847857Y-9125952D01*
X12866905Y-9135476D01*
X12885952Y-9135476D01*
X13028809Y-9125952D02*
X13009762Y-9135476D01*
X12971667Y-9135476D01*
X12952619Y-9125952D01*
X12943095Y-9106905D01*
X12943095Y-9030714D01*
X12952619Y-9011667D01*
X12971667Y-9002143D01*
X13009762Y-9002143D01*
X13028809Y-9011667D01*
X13038333Y-9030714D01*
X13038333Y-9049762D01*
X12943095Y-9068810D01*
X13209762Y-9135476D02*
X13209762Y-8935476D01*
X13209762Y-9125952D02*
X13190714Y-9135476D01*
X13152619Y-9135476D01*
X13133571Y-9125952D01*
X13124048Y-9116429D01*
X13114524Y-9097381D01*
X13114524Y-9040238D01*
X13124048Y-9021190D01*
X13133571Y-9011667D01*
X13152619Y-9002143D01*
X13190714Y-9002143D01*
X13209762Y-9011667D01*
X13285952Y-9211667D02*
X13295476Y-9202143D01*
X13314524Y-9173571D01*
X13324048Y-9154524D01*
X13333571Y-9125952D01*
X13343095Y-9078333D01*
X13343095Y-9040238D01*
X13333571Y-8992619D01*
X13324048Y-8964048D01*
X13314524Y-8945000D01*
X13295476Y-8916429D01*
X13285952Y-8906905D01*
D13*
X6695000Y-9309000D02*
G75*
G03*
X6695000Y-9309000I-37500J0D01*
G01*
D11*
X6990714Y-9199476D02*
X7009762Y-9199476D01*
X7028809Y-9209000D01*
X7038333Y-9218524D01*
X7047857Y-9237571D01*
X7057381Y-9275667D01*
X7057381Y-9323286D01*
X7047857Y-9361381D01*
X7038333Y-9380429D01*
X7028809Y-9389952D01*
X7009762Y-9399476D01*
X6990714Y-9399476D01*
X6971667Y-9389952D01*
X6962143Y-9380429D01*
X6952619Y-9361381D01*
X6943095Y-9323286D01*
X6943095Y-9275667D01*
X6952619Y-9237571D01*
X6962143Y-9218524D01*
X6971667Y-9209000D01*
X6990714Y-9199476D01*
X7143095Y-9380429D02*
X7152619Y-9389952D01*
X7143095Y-9399476D01*
X7133571Y-9389952D01*
X7143095Y-9380429D01*
X7143095Y-9399476D01*
X7219286Y-9199476D02*
X7352619Y-9199476D01*
X7266905Y-9399476D01*
X7524048Y-9199476D02*
X7428809Y-9199476D01*
X7419286Y-9294714D01*
X7428809Y-9285190D01*
X7447857Y-9275667D01*
X7495476Y-9275667D01*
X7514524Y-9285190D01*
X7524048Y-9294714D01*
X7533571Y-9313762D01*
X7533571Y-9361381D01*
X7524048Y-9380429D01*
X7514524Y-9389952D01*
X7495476Y-9399476D01*
X7447857Y-9399476D01*
X7428809Y-9389952D01*
X7419286Y-9380429D01*
X7657381Y-9199476D02*
X7676428Y-9199476D01*
X7695476Y-9209000D01*
X7705000Y-9218524D01*
X7714524Y-9237571D01*
X7724048Y-9275667D01*
X7724048Y-9323286D01*
X7714524Y-9361381D01*
X7705000Y-9380429D01*
X7695476Y-9389952D01*
X7676428Y-9399476D01*
X7657381Y-9399476D01*
X7638333Y-9389952D01*
X7628809Y-9380429D01*
X7619286Y-9361381D01*
X7609762Y-9323286D01*
X7609762Y-9275667D01*
X7619286Y-9237571D01*
X7628809Y-9218524D01*
X7638333Y-9209000D01*
X7657381Y-9199476D01*
X7809762Y-9399476D02*
X7809762Y-9266143D01*
X7809762Y-9285190D02*
X7819286Y-9275667D01*
X7838333Y-9266143D01*
X7866905Y-9266143D01*
X7885952Y-9275667D01*
X7895476Y-9294714D01*
X7895476Y-9399476D01*
X7895476Y-9294714D02*
X7905000Y-9275667D01*
X7924048Y-9266143D01*
X7952619Y-9266143D01*
X7971667Y-9275667D01*
X7981190Y-9294714D01*
X7981190Y-9399476D01*
X8076428Y-9399476D02*
X8076428Y-9266143D01*
X8076428Y-9285190D02*
X8085952Y-9275667D01*
X8105000Y-9266143D01*
X8133571Y-9266143D01*
X8152619Y-9275667D01*
X8162143Y-9294714D01*
X8162143Y-9399476D01*
X8162143Y-9294714D02*
X8171667Y-9275667D01*
X8190714Y-9266143D01*
X8219286Y-9266143D01*
X8238333Y-9275667D01*
X8247857Y-9294714D01*
X8247857Y-9399476D01*
X8638333Y-9189952D02*
X8466905Y-9447095D01*
X8895476Y-9199476D02*
X8914524Y-9199476D01*
X8933571Y-9209000D01*
X8943095Y-9218524D01*
X8952619Y-9237571D01*
X8962143Y-9275667D01*
X8962143Y-9323286D01*
X8952619Y-9361381D01*
X8943095Y-9380429D01*
X8933571Y-9389952D01*
X8914524Y-9399476D01*
X8895476Y-9399476D01*
X8876429Y-9389952D01*
X8866905Y-9380429D01*
X8857381Y-9361381D01*
X8847857Y-9323286D01*
X8847857Y-9275667D01*
X8857381Y-9237571D01*
X8866905Y-9218524D01*
X8876429Y-9209000D01*
X8895476Y-9199476D01*
X9047857Y-9380429D02*
X9057381Y-9389952D01*
X9047857Y-9399476D01*
X9038333Y-9389952D01*
X9047857Y-9380429D01*
X9047857Y-9399476D01*
X9181190Y-9199476D02*
X9200238Y-9199476D01*
X9219286Y-9209000D01*
X9228810Y-9218524D01*
X9238333Y-9237571D01*
X9247857Y-9275667D01*
X9247857Y-9323286D01*
X9238333Y-9361381D01*
X9228810Y-9380429D01*
X9219286Y-9389952D01*
X9200238Y-9399476D01*
X9181190Y-9399476D01*
X9162143Y-9389952D01*
X9152619Y-9380429D01*
X9143095Y-9361381D01*
X9133571Y-9323286D01*
X9133571Y-9275667D01*
X9143095Y-9237571D01*
X9152619Y-9218524D01*
X9162143Y-9209000D01*
X9181190Y-9199476D01*
X9324048Y-9218524D02*
X9333571Y-9209000D01*
X9352619Y-9199476D01*
X9400238Y-9199476D01*
X9419286Y-9209000D01*
X9428810Y-9218524D01*
X9438333Y-9237571D01*
X9438333Y-9256619D01*
X9428810Y-9285190D01*
X9314524Y-9399476D01*
X9438333Y-9399476D01*
X9533571Y-9399476D02*
X9571667Y-9399476D01*
X9590714Y-9389952D01*
X9600238Y-9380429D01*
X9619286Y-9351857D01*
X9628810Y-9313762D01*
X9628810Y-9237571D01*
X9619286Y-9218524D01*
X9609762Y-9209000D01*
X9590714Y-9199476D01*
X9552619Y-9199476D01*
X9533571Y-9209000D01*
X9524048Y-9218524D01*
X9514524Y-9237571D01*
X9514524Y-9285190D01*
X9524048Y-9304238D01*
X9533571Y-9313762D01*
X9552619Y-9323286D01*
X9590714Y-9323286D01*
X9609762Y-9313762D01*
X9619286Y-9304238D01*
X9628810Y-9285190D01*
X9809762Y-9199476D02*
X9714524Y-9199476D01*
X9705000Y-9294714D01*
X9714524Y-9285190D01*
X9733571Y-9275667D01*
X9781190Y-9275667D01*
X9800238Y-9285190D01*
X9809762Y-9294714D01*
X9819286Y-9313762D01*
X9819286Y-9361381D01*
X9809762Y-9380429D01*
X9800238Y-9389952D01*
X9781190Y-9399476D01*
X9733571Y-9399476D01*
X9714524Y-9389952D01*
X9705000Y-9380429D01*
X9895476Y-9199476D02*
X9895476Y-9237571D01*
X9971667Y-9199476D02*
X9971667Y-9237571D01*
X10266905Y-9475667D02*
X10257381Y-9466143D01*
X10238333Y-9437571D01*
X10228810Y-9418524D01*
X10219286Y-9389952D01*
X10209762Y-9342333D01*
X10209762Y-9304238D01*
X10219286Y-9256619D01*
X10228810Y-9228048D01*
X10238333Y-9209000D01*
X10257381Y-9180429D01*
X10266905Y-9170905D01*
X10333571Y-9218524D02*
X10343095Y-9209000D01*
X10362143Y-9199476D01*
X10409762Y-9199476D01*
X10428810Y-9209000D01*
X10438333Y-9218524D01*
X10447857Y-9237571D01*
X10447857Y-9256619D01*
X10438333Y-9285190D01*
X10324048Y-9399476D01*
X10447857Y-9399476D01*
X10685952Y-9399476D02*
X10685952Y-9199476D01*
X10771667Y-9399476D02*
X10771667Y-9294714D01*
X10762143Y-9275667D01*
X10743095Y-9266143D01*
X10714524Y-9266143D01*
X10695476Y-9275667D01*
X10685952Y-9285190D01*
X10895476Y-9399476D02*
X10876429Y-9389952D01*
X10866905Y-9380429D01*
X10857381Y-9361381D01*
X10857381Y-9304238D01*
X10866905Y-9285190D01*
X10876429Y-9275667D01*
X10895476Y-9266143D01*
X10924048Y-9266143D01*
X10943095Y-9275667D01*
X10952619Y-9285190D01*
X10962143Y-9304238D01*
X10962143Y-9361381D01*
X10952619Y-9380429D01*
X10943095Y-9389952D01*
X10924048Y-9399476D01*
X10895476Y-9399476D01*
X11076429Y-9399476D02*
X11057381Y-9389952D01*
X11047857Y-9370905D01*
X11047857Y-9199476D01*
X11228809Y-9389952D02*
X11209762Y-9399476D01*
X11171667Y-9399476D01*
X11152619Y-9389952D01*
X11143095Y-9370905D01*
X11143095Y-9294714D01*
X11152619Y-9275667D01*
X11171667Y-9266143D01*
X11209762Y-9266143D01*
X11228809Y-9275667D01*
X11238333Y-9294714D01*
X11238333Y-9313762D01*
X11143095Y-9332810D01*
X11314524Y-9389952D02*
X11333571Y-9399476D01*
X11371667Y-9399476D01*
X11390714Y-9389952D01*
X11400238Y-9370905D01*
X11400238Y-9361381D01*
X11390714Y-9342333D01*
X11371667Y-9332810D01*
X11343095Y-9332810D01*
X11324048Y-9323286D01*
X11314524Y-9304238D01*
X11314524Y-9294714D01*
X11324048Y-9275667D01*
X11343095Y-9266143D01*
X11371667Y-9266143D01*
X11390714Y-9275667D01*
X11466905Y-9475667D02*
X11476428Y-9466143D01*
X11495476Y-9437571D01*
X11505000Y-9418524D01*
X11514524Y-9389952D01*
X11524048Y-9342333D01*
X11524048Y-9304238D01*
X11514524Y-9256619D01*
X11505000Y-9228048D01*
X11495476Y-9209000D01*
X11476428Y-9180429D01*
X11466905Y-9170905D01*
X11828809Y-9475667D02*
X11819286Y-9466143D01*
X11800238Y-9437571D01*
X11790714Y-9418524D01*
X11781190Y-9389952D01*
X11771667Y-9342333D01*
X11771667Y-9304238D01*
X11781190Y-9256619D01*
X11790714Y-9228048D01*
X11800238Y-9209000D01*
X11819286Y-9180429D01*
X11828809Y-9170905D01*
X11905000Y-9266143D02*
X11905000Y-9399476D01*
X11905000Y-9285190D02*
X11914524Y-9275667D01*
X11933571Y-9266143D01*
X11962143Y-9266143D01*
X11981190Y-9275667D01*
X11990714Y-9294714D01*
X11990714Y-9399476D01*
X12114524Y-9399476D02*
X12095476Y-9389952D01*
X12085952Y-9380429D01*
X12076428Y-9361381D01*
X12076428Y-9304238D01*
X12085952Y-9285190D01*
X12095476Y-9275667D01*
X12114524Y-9266143D01*
X12143095Y-9266143D01*
X12162143Y-9275667D01*
X12171667Y-9285190D01*
X12181190Y-9304238D01*
X12181190Y-9361381D01*
X12171667Y-9380429D01*
X12162143Y-9389952D01*
X12143095Y-9399476D01*
X12114524Y-9399476D01*
X12238333Y-9266143D02*
X12314524Y-9266143D01*
X12266905Y-9199476D02*
X12266905Y-9370905D01*
X12276428Y-9389952D01*
X12295476Y-9399476D01*
X12314524Y-9399476D01*
X12533571Y-9266143D02*
X12533571Y-9466143D01*
X12533571Y-9275667D02*
X12552619Y-9266143D01*
X12590714Y-9266143D01*
X12609762Y-9275667D01*
X12619286Y-9285190D01*
X12628809Y-9304238D01*
X12628809Y-9361381D01*
X12619286Y-9380429D01*
X12609762Y-9389952D01*
X12590714Y-9399476D01*
X12552619Y-9399476D01*
X12533571Y-9389952D01*
X12743095Y-9399476D02*
X12724048Y-9389952D01*
X12714524Y-9370905D01*
X12714524Y-9199476D01*
X12905000Y-9399476D02*
X12905000Y-9294714D01*
X12895476Y-9275667D01*
X12876428Y-9266143D01*
X12838333Y-9266143D01*
X12819286Y-9275667D01*
X12905000Y-9389952D02*
X12885952Y-9399476D01*
X12838333Y-9399476D01*
X12819286Y-9389952D01*
X12809762Y-9370905D01*
X12809762Y-9351857D01*
X12819286Y-9332810D01*
X12838333Y-9323286D01*
X12885952Y-9323286D01*
X12905000Y-9313762D01*
X12971667Y-9266143D02*
X13047857Y-9266143D01*
X13000238Y-9199476D02*
X13000238Y-9370905D01*
X13009762Y-9389952D01*
X13028809Y-9399476D01*
X13047857Y-9399476D01*
X13190714Y-9389952D02*
X13171667Y-9399476D01*
X13133571Y-9399476D01*
X13114524Y-9389952D01*
X13105000Y-9370905D01*
X13105000Y-9294714D01*
X13114524Y-9275667D01*
X13133571Y-9266143D01*
X13171667Y-9266143D01*
X13190714Y-9275667D01*
X13200238Y-9294714D01*
X13200238Y-9313762D01*
X13105000Y-9332810D01*
X13371667Y-9399476D02*
X13371667Y-9199476D01*
X13371667Y-9389952D02*
X13352619Y-9399476D01*
X13314524Y-9399476D01*
X13295476Y-9389952D01*
X13285952Y-9380429D01*
X13276428Y-9361381D01*
X13276428Y-9304238D01*
X13285952Y-9285190D01*
X13295476Y-9275667D01*
X13314524Y-9266143D01*
X13352619Y-9266143D01*
X13371667Y-9275667D01*
X13447857Y-9475667D02*
X13457381Y-9466143D01*
X13476428Y-9437571D01*
X13485952Y-9418524D01*
X13495476Y-9389952D01*
X13505000Y-9342333D01*
X13505000Y-9304238D01*
X13495476Y-9256619D01*
X13485952Y-9228048D01*
X13476428Y-9209000D01*
X13457381Y-9180429D01*
X13447857Y-9170905D01*
M02*
