%TF.GenerationSoftware,KiCad,Pcbnew,6.0.9-8da3e8f707~116~ubuntu22.04.1*%
%TF.CreationDate,2022-12-05T14:03:32-05:00*%
%TF.ProjectId,OSSG_v0p5,4f535347-5f76-4307-9035-2e6b69636164,v0.4*%
%TF.SameCoordinates,Original*%
%TF.FileFunction,Soldermask,Top*%
%TF.FilePolarity,Negative*%
%FSLAX46Y46*%
G04 Gerber Fmt 4.6, Leading zero omitted, Abs format (unit mm)*
G04 Created by KiCad (PCBNEW 6.0.9-8da3e8f707~116~ubuntu22.04.1) date 2022-12-05 14:03:32*
%MOMM*%
%LPD*%
G01*
G04 APERTURE LIST*
G04 Aperture macros list*
%AMRoundRect*
0 Rectangle with rounded corners*
0 $1 Rounding radius*
0 $2 $3 $4 $5 $6 $7 $8 $9 X,Y pos of 4 corners*
0 Add a 4 corners polygon primitive as box body*
4,1,4,$2,$3,$4,$5,$6,$7,$8,$9,$2,$3,0*
0 Add four circle primitives for the rounded corners*
1,1,$1+$1,$2,$3*
1,1,$1+$1,$4,$5*
1,1,$1+$1,$6,$7*
1,1,$1+$1,$8,$9*
0 Add four rect primitives between the rounded corners*
20,1,$1+$1,$2,$3,$4,$5,0*
20,1,$1+$1,$4,$5,$6,$7,0*
20,1,$1+$1,$6,$7,$8,$9,0*
20,1,$1+$1,$8,$9,$2,$3,0*%
G04 Aperture macros list end*
%ADD10C,0.912000*%
%ADD11C,0.000100*%
%ADD12C,0.001000*%
%ADD13C,0.120000*%
%ADD14RoundRect,0.050000X0.365000X0.075000X-0.365000X0.075000X-0.365000X-0.075000X0.365000X-0.075000X0*%
%ADD15RoundRect,0.050000X0.075000X-0.365000X0.075000X0.365000X-0.075000X0.365000X-0.075000X-0.365000X0*%
%ADD16C,0.500000*%
%ADD17RoundRect,0.200000X-2.050000X-2.050000X2.050000X-2.050000X2.050000X2.050000X-2.050000X2.050000X0*%
%ADD18RoundRect,0.135000X0.135000X0.185000X-0.135000X0.185000X-0.135000X-0.185000X0.135000X-0.185000X0*%
%ADD19R,0.600000X0.522000*%
%ADD20R,0.510000X0.400000*%
%ADD21RoundRect,0.140000X-0.140000X-0.170000X0.140000X-0.170000X0.140000X0.170000X-0.140000X0.170000X0*%
%ADD22RoundRect,0.140000X0.140000X0.170000X-0.140000X0.170000X-0.140000X-0.170000X0.140000X-0.170000X0*%
%ADD23R,0.900000X1.200000*%
%ADD24R,0.400000X1.350000*%
%ADD25O,0.890000X1.550000*%
%ADD26R,1.200000X1.550000*%
%ADD27R,1.500000X1.550000*%
%ADD28O,1.250000X0.950000*%
%ADD29RoundRect,0.140000X-0.170000X0.140000X-0.170000X-0.140000X0.170000X-0.140000X0.170000X0.140000X0*%
%ADD30R,0.280000X0.170000*%
%ADD31R,0.280000X0.520000*%
%ADD32RoundRect,0.135000X0.185000X-0.135000X0.185000X0.135000X-0.185000X0.135000X-0.185000X-0.135000X0*%
%ADD33RoundRect,0.135000X-0.185000X0.135000X-0.185000X-0.135000X0.185000X-0.135000X0.185000X0.135000X0*%
%ADD34C,0.750000*%
%ADD35R,1.550000X1.000000*%
%ADD36RoundRect,0.135000X-0.135000X-0.185000X0.135000X-0.185000X0.135000X0.185000X-0.135000X0.185000X0*%
%ADD37R,1.600000X2.300000*%
%ADD38RoundRect,0.150000X0.512500X0.150000X-0.512500X0.150000X-0.512500X-0.150000X0.512500X-0.150000X0*%
%ADD39RoundRect,0.250000X0.450000X-0.262500X0.450000X0.262500X-0.450000X0.262500X-0.450000X-0.262500X0*%
%ADD40RoundRect,0.250000X-0.325000X-0.650000X0.325000X-0.650000X0.325000X0.650000X-0.325000X0.650000X0*%
%ADD41RoundRect,0.062500X0.287500X0.062500X-0.287500X0.062500X-0.287500X-0.062500X0.287500X-0.062500X0*%
%ADD42R,0.800000X1.600000*%
%ADD43RoundRect,0.062500X0.337500X0.062500X-0.337500X0.062500X-0.337500X-0.062500X0.337500X-0.062500X0*%
%ADD44R,1.700000X1.400000*%
%ADD45RoundRect,0.140000X0.170000X-0.140000X0.170000X0.140000X-0.170000X0.140000X-0.170000X-0.140000X0*%
%ADD46RoundRect,0.147500X0.147500X0.172500X-0.147500X0.172500X-0.147500X-0.172500X0.147500X-0.172500X0*%
%ADD47R,0.400000X0.500000*%
%ADD48RoundRect,0.062500X0.062500X-0.350000X0.062500X0.350000X-0.062500X0.350000X-0.062500X-0.350000X0*%
%ADD49RoundRect,0.062500X0.350000X-0.062500X0.350000X0.062500X-0.350000X0.062500X-0.350000X-0.062500X0*%
%ADD50R,2.600000X2.600000*%
%ADD51RoundRect,0.150000X0.587500X0.150000X-0.587500X0.150000X-0.587500X-0.150000X0.587500X-0.150000X0*%
%ADD52C,1.100000*%
%ADD53R,0.700000X1.600000*%
%ADD54RoundRect,0.150000X-0.150000X0.675000X-0.150000X-0.675000X0.150000X-0.675000X0.150000X0.675000X0*%
G04 APERTURE END LIST*
D10*
%TO.C,U1*%
X77456000Y-82800000D02*
G75*
G03*
X77456000Y-82800000I-456000J0D01*
G01*
%TO.C,U7*%
G36*
X118994269Y-76277863D02*
G01*
X118794269Y-76477863D01*
X118634269Y-76477863D01*
X118634269Y-75987863D01*
X118994269Y-75987863D01*
X118994269Y-76277863D01*
G37*
D11*
X118994269Y-76277863D02*
X118794269Y-76477863D01*
X118634269Y-76477863D01*
X118634269Y-75987863D01*
X118994269Y-75987863D01*
X118994269Y-76277863D01*
G36*
X119644269Y-77287863D02*
G01*
X119284269Y-77287863D01*
X119284269Y-76997863D01*
X119484269Y-76797863D01*
X119644269Y-76797863D01*
X119644269Y-77287863D01*
G37*
X119644269Y-77287863D02*
X119284269Y-77287863D01*
X119284269Y-76997863D01*
X119484269Y-76797863D01*
X119644269Y-76797863D01*
X119644269Y-77287863D01*
G36*
X119539269Y-76637863D02*
G01*
X119139269Y-77037863D01*
X118739269Y-76637863D01*
X119139269Y-76237863D01*
X119539269Y-76637863D01*
G37*
D12*
X119539269Y-76637863D02*
X119139269Y-77037863D01*
X118739269Y-76637863D01*
X119139269Y-76237863D01*
X119539269Y-76637863D01*
G36*
X119644269Y-76477863D02*
G01*
X119484269Y-76477863D01*
X119284269Y-76277863D01*
X119284269Y-75987863D01*
X119644269Y-75987863D01*
X119644269Y-76477863D01*
G37*
D11*
X119644269Y-76477863D02*
X119484269Y-76477863D01*
X119284269Y-76277863D01*
X119284269Y-75987863D01*
X119644269Y-75987863D01*
X119644269Y-76477863D01*
G36*
X118994269Y-76997863D02*
G01*
X118994269Y-77287863D01*
X118634269Y-77287863D01*
X118634269Y-76797863D01*
X118794269Y-76797863D01*
X118994269Y-76997863D01*
G37*
X118994269Y-76997863D02*
X118994269Y-77287863D01*
X118634269Y-77287863D01*
X118634269Y-76797863D01*
X118794269Y-76797863D01*
X118994269Y-76997863D01*
D13*
%TO.C,Q4*%
X144142489Y-81124202D02*
X143642489Y-81124202D01*
X143642489Y-81124202D02*
X143642489Y-80274202D01*
X143642489Y-80274202D02*
X144142489Y-80274202D01*
X144142489Y-80274202D02*
X144142489Y-81124202D01*
G36*
X144142489Y-81124202D02*
G01*
X143642489Y-81124202D01*
X143642489Y-80274202D01*
X144142489Y-80274202D01*
X144142489Y-81124202D01*
G37*
X142842489Y-81124202D02*
X142342489Y-81124202D01*
X142342489Y-81124202D02*
X142342489Y-80274202D01*
X142342489Y-80274202D02*
X142842489Y-80274202D01*
X142842489Y-80274202D02*
X142842489Y-81124202D01*
G36*
X142842489Y-81124202D02*
G01*
X142342489Y-81124202D01*
X142342489Y-80274202D01*
X142842489Y-80274202D01*
X142842489Y-81124202D01*
G37*
%TD*%
D14*
%TO.C,U2*%
X96860000Y-76250000D03*
X96860000Y-76750000D03*
X96860000Y-77250000D03*
X96860000Y-77750000D03*
X96860000Y-78250000D03*
X96860000Y-78750000D03*
X96860000Y-79250000D03*
X96860000Y-79750000D03*
X96860000Y-80250000D03*
X96860000Y-80750000D03*
X96860000Y-81250000D03*
X96860000Y-81750000D03*
D15*
X97550000Y-82440000D03*
X98050000Y-82440000D03*
X98550000Y-82440000D03*
X99050000Y-82440000D03*
X99550000Y-82440000D03*
X100050000Y-82440000D03*
X100550000Y-82440000D03*
X101050000Y-82440000D03*
X101550000Y-82440000D03*
X102050000Y-82440000D03*
X102550000Y-82440000D03*
X103050000Y-82440000D03*
D14*
X103740000Y-81750000D03*
X103740000Y-81250000D03*
X103740000Y-80750000D03*
X103740000Y-80250000D03*
X103740000Y-79750000D03*
X103740000Y-79250000D03*
X103740000Y-78750000D03*
X103740000Y-78250000D03*
X103740000Y-77750000D03*
X103740000Y-77250000D03*
X103740000Y-76750000D03*
X103740000Y-76250000D03*
D15*
X103050000Y-75560000D03*
X102550000Y-75560000D03*
X102050000Y-75560000D03*
X101550000Y-75560000D03*
X101050000Y-75560000D03*
X100550000Y-75560000D03*
X100050000Y-75560000D03*
X99550000Y-75560000D03*
X99050000Y-75560000D03*
X98550000Y-75560000D03*
X98050000Y-75560000D03*
X97550000Y-75560000D03*
D16*
X99100000Y-77100000D03*
X98400000Y-77900000D03*
X99600000Y-79000000D03*
X101000000Y-79000000D03*
X99600000Y-77900000D03*
X101000000Y-77900000D03*
X99600000Y-80100000D03*
X101600000Y-80900000D03*
X102200000Y-80100000D03*
X102200000Y-79000000D03*
D17*
X100300000Y-79000000D03*
D16*
X100300000Y-77100000D03*
X99100000Y-80900000D03*
X98400000Y-80100000D03*
X102200000Y-77900000D03*
X100300000Y-80900000D03*
X101600000Y-77100000D03*
X98400000Y-79000000D03*
X101000000Y-80100000D03*
%TD*%
D18*
%TO.C,R22*%
X71660000Y-77450000D03*
X70640000Y-77450000D03*
%TD*%
%TO.C,R1*%
X93827108Y-81318825D03*
X92807108Y-81318825D03*
%TD*%
D16*
%TO.C,U1*%
X77000000Y-82800000D03*
D19*
X76100000Y-80726000D03*
X76100000Y-81548000D03*
X77900000Y-81548000D03*
X77900000Y-80726000D03*
X77000000Y-80726000D03*
%TD*%
D20*
%TO.C,Q1*%
X107821762Y-82329454D03*
X107821762Y-81329454D03*
X106531762Y-81829454D03*
%TD*%
D21*
%TO.C,C19*%
X132347042Y-79630638D03*
X133307042Y-79630638D03*
%TD*%
D22*
%TO.C,C14*%
X159314550Y-78612375D03*
X158354550Y-78612375D03*
%TD*%
D23*
%TO.C,D3*%
X128360985Y-76322776D03*
X125060985Y-76322776D03*
%TD*%
D24*
%TO.C,J3*%
X126179107Y-79890740D03*
X126829107Y-79890740D03*
X127479107Y-79890740D03*
X128129107Y-79890740D03*
X128779107Y-79890740D03*
D25*
X130979107Y-82590740D03*
X123979107Y-82590740D03*
D26*
X130379107Y-82590740D03*
X124579107Y-82590740D03*
D27*
X126479107Y-82590740D03*
D28*
X129979107Y-79890740D03*
D27*
X128479107Y-82590740D03*
D28*
X124979107Y-79890740D03*
%TD*%
D29*
%TO.C,C10*%
X112074913Y-81140885D03*
X112074913Y-82100885D03*
%TD*%
D30*
%TO.C,Q5*%
X70195750Y-75925000D03*
X70195750Y-76275000D03*
D31*
X70845750Y-76100000D03*
%TD*%
D32*
%TO.C,R3*%
X75050000Y-81610000D03*
X75050000Y-80590000D03*
%TD*%
%TO.C,R20*%
X73250000Y-76510000D03*
X73250000Y-75490000D03*
%TD*%
D33*
%TO.C,R6*%
X106734354Y-79121146D03*
X106734354Y-80141146D03*
%TD*%
D32*
%TO.C,R17*%
X135016041Y-83227289D03*
X135016041Y-82207289D03*
%TD*%
D29*
%TO.C,C18*%
X117862044Y-76099562D03*
X117862044Y-77059562D03*
%TD*%
D34*
%TO.C,SW1*%
X70650000Y-83475000D03*
X70650000Y-80725000D03*
D35*
X68025000Y-81250000D03*
X73275000Y-81250000D03*
X68025000Y-82950000D03*
X73275000Y-82950000D03*
%TD*%
D30*
%TO.C,Q3*%
X141612040Y-76216522D03*
X141612040Y-75866522D03*
D31*
X140962040Y-76041522D03*
%TD*%
D36*
%TO.C,R4*%
X73090000Y-78300000D03*
X74110000Y-78300000D03*
%TD*%
D37*
%TO.C,L1*%
X140122558Y-79204084D03*
X136962558Y-79204084D03*
%TD*%
D22*
%TO.C,C1*%
X93797684Y-80320210D03*
X92837684Y-80320210D03*
%TD*%
D20*
%TO.C,Q2*%
X108825543Y-81338473D03*
X108825543Y-82338473D03*
X110115543Y-81838473D03*
%TD*%
D38*
%TO.C,U5*%
X153650760Y-79426117D03*
X153650760Y-78476117D03*
X153650760Y-77526117D03*
X151375760Y-77526117D03*
X151375760Y-78476117D03*
X151375760Y-79426117D03*
%TD*%
D18*
%TO.C,R14*%
X133048103Y-76081567D03*
X132028103Y-76081567D03*
%TD*%
D32*
%TO.C,R21*%
X71800000Y-76510000D03*
X71800000Y-75490000D03*
%TD*%
D39*
%TO.C,F1*%
X123380387Y-77819400D03*
X123380387Y-75994400D03*
%TD*%
D40*
%TO.C,AE1*%
X88626881Y-76701416D03*
X91576881Y-76701416D03*
%TD*%
D18*
%TO.C,R5*%
X108603964Y-83362660D03*
X107583964Y-83362660D03*
%TD*%
D41*
%TO.C,U6*%
X157225427Y-78271198D03*
X157225427Y-77771198D03*
X157225427Y-77271198D03*
X157225427Y-76771198D03*
X155225427Y-76771198D03*
X155225427Y-77271198D03*
X155225427Y-77771198D03*
X155225427Y-78271198D03*
D42*
X156225427Y-77521198D03*
%TD*%
D36*
%TO.C,R7*%
X148184787Y-80510534D03*
X149204787Y-80510534D03*
%TD*%
D29*
%TO.C,C4*%
X75050000Y-82520000D03*
X75050000Y-83480000D03*
%TD*%
D32*
%TO.C,R19*%
X80250000Y-77410000D03*
X80250000Y-76390000D03*
%TD*%
D21*
%TO.C,C17*%
X138440702Y-76447219D03*
X139400702Y-76447219D03*
%TD*%
D43*
%TO.C,U8*%
X135159248Y-78611457D03*
X135159248Y-78111457D03*
X135159248Y-77611457D03*
X135159248Y-77111457D03*
X132259248Y-77111457D03*
X132259248Y-77611457D03*
X132259248Y-78111457D03*
X132259248Y-78611457D03*
D44*
X133709248Y-77861457D03*
%TD*%
D21*
%TO.C,C12*%
X147757075Y-76119389D03*
X148717075Y-76119389D03*
%TD*%
D29*
%TO.C,C16*%
X120420868Y-76103942D03*
X120420868Y-77063942D03*
%TD*%
D33*
%TO.C,R9*%
X146127496Y-76791306D03*
X146127496Y-77811306D03*
%TD*%
D45*
%TO.C,C20*%
X68783522Y-79930000D03*
X68783522Y-78970000D03*
%TD*%
D46*
%TO.C,D2*%
X152539833Y-76298232D03*
X151569833Y-76298232D03*
%TD*%
D36*
%TO.C,R12*%
X143819268Y-75741163D03*
X144839268Y-75741163D03*
%TD*%
D32*
%TO.C,R15*%
X132876626Y-83334526D03*
X132876626Y-82314526D03*
%TD*%
D29*
%TO.C,C2*%
X77050000Y-78720000D03*
X77050000Y-79680000D03*
%TD*%
D18*
%TO.C,R8*%
X151327212Y-80658070D03*
X150307212Y-80658070D03*
%TD*%
D47*
%TO.C,Q4*%
X144172489Y-78819202D03*
X143522489Y-78819202D03*
X142872489Y-78819202D03*
X142222489Y-78819202D03*
X142232489Y-81789202D03*
X142882489Y-81789202D03*
X143532489Y-81789202D03*
X144182489Y-81789202D03*
%TD*%
D32*
%TO.C,R2*%
X75050000Y-79710000D03*
X75050000Y-78690000D03*
%TD*%
D45*
%TO.C,C15*%
X130060864Y-77611641D03*
X130060864Y-76651641D03*
%TD*%
D29*
%TO.C,C9*%
X112953381Y-78020000D03*
X112953381Y-78980000D03*
%TD*%
%TO.C,C11*%
X111100914Y-81139030D03*
X111100914Y-82099030D03*
%TD*%
D18*
%TO.C,R18*%
X121886482Y-78623756D03*
X120866482Y-78623756D03*
%TD*%
D32*
%TO.C,R11*%
X146078592Y-79791236D03*
X146078592Y-78771236D03*
%TD*%
D48*
%TO.C,U3*%
X108600000Y-79892705D03*
X109100000Y-79892705D03*
X109600000Y-79892705D03*
X110100000Y-79892705D03*
X110600000Y-79892705D03*
X111100000Y-79892705D03*
D49*
X111787500Y-79205205D03*
X111787500Y-78705205D03*
X111787500Y-78205205D03*
X111787500Y-77705205D03*
X111787500Y-77205205D03*
X111787500Y-76705205D03*
D48*
X111100000Y-76017705D03*
X110600000Y-76017705D03*
X110100000Y-76017705D03*
X109600000Y-76017705D03*
X109100000Y-76017705D03*
X108600000Y-76017705D03*
D49*
X107912500Y-76705205D03*
X107912500Y-77205205D03*
X107912500Y-77705205D03*
X107912500Y-78205205D03*
X107912500Y-78705205D03*
X107912500Y-79205205D03*
D50*
X109850000Y-77955205D03*
%TD*%
D29*
%TO.C,C6*%
X95641746Y-77190000D03*
X95641746Y-78150000D03*
%TD*%
D51*
%TO.C,U4*%
X149426803Y-79266677D03*
X149426803Y-77366677D03*
X147551803Y-78316677D03*
%TD*%
D21*
%TO.C,C7*%
X87170000Y-81825500D03*
X88130000Y-81825500D03*
%TD*%
D29*
%TO.C,C5*%
X94658254Y-77190000D03*
X94658254Y-78150000D03*
%TD*%
D52*
%TO.C,SW2*%
X114568842Y-83376871D03*
X121088842Y-83386871D03*
D53*
X114888842Y-79586871D03*
X118888842Y-79586871D03*
X116788842Y-79586871D03*
%TD*%
D33*
%TO.C,R10*%
X142816193Y-75720313D03*
X142816193Y-76740313D03*
%TD*%
D45*
%TO.C,C13*%
X158357718Y-77643138D03*
X158357718Y-76683138D03*
%TD*%
%TO.C,C3*%
X76050000Y-79680000D03*
X76050000Y-78720000D03*
%TD*%
D32*
%TO.C,R13*%
X131067832Y-77013506D03*
X131067832Y-75993506D03*
%TD*%
%TO.C,R16*%
X133979985Y-83331535D03*
X133979985Y-82311535D03*
%TD*%
D54*
%TO.C,U9*%
X85378563Y-76900000D03*
X84108563Y-76900000D03*
X82838563Y-76900000D03*
X81568563Y-76900000D03*
X81568563Y-82150000D03*
X82838563Y-82150000D03*
X84108563Y-82150000D03*
X85378563Y-82150000D03*
%TD*%
M02*
