%TF.GenerationSoftware,KiCad,Pcbnew,6.0.9-8da3e8f707~116~ubuntu22.04.1*%
%TF.CreationDate,2022-12-05T14:03:32-05:00*%
%TF.ProjectId,OSSG_v0p5,4f535347-5f76-4307-9035-2e6b69636164,v0.4*%
%TF.SameCoordinates,Original*%
%TF.FileFunction,Copper,L2,Inr*%
%TF.FilePolarity,Positive*%
%FSLAX46Y46*%
G04 Gerber Fmt 4.6, Leading zero omitted, Abs format (unit mm)*
G04 Created by KiCad (PCBNEW 6.0.9-8da3e8f707~116~ubuntu22.04.1) date 2022-12-05 14:03:32*
%MOMM*%
%LPD*%
G01*
G04 APERTURE LIST*
%TA.AperFunction,ComponentPad*%
%ADD10C,0.500000*%
%TD*%
%TA.AperFunction,ComponentPad*%
%ADD11O,0.890000X1.550000*%
%TD*%
%TA.AperFunction,ComponentPad*%
%ADD12O,1.250000X0.950000*%
%TD*%
%TA.AperFunction,ComponentPad*%
%ADD13C,1.100000*%
%TD*%
%TA.AperFunction,ViaPad*%
%ADD14C,0.500000*%
%TD*%
%TA.AperFunction,ViaPad*%
%ADD15C,0.450000*%
%TD*%
%TA.AperFunction,ViaPad*%
%ADD16C,0.650000*%
%TD*%
%TA.AperFunction,ViaPad*%
%ADD17C,0.800000*%
%TD*%
%TA.AperFunction,ViaPad*%
%ADD18C,1.000000*%
%TD*%
%TA.AperFunction,ViaPad*%
%ADD19C,0.600000*%
%TD*%
%TA.AperFunction,ViaPad*%
%ADD20C,0.700000*%
%TD*%
G04 APERTURE END LIST*
D10*
%TO.N,BATT1-*%
%TO.C,U2*%
X99100000Y-77100000D03*
X98400000Y-77900000D03*
X99600000Y-79000000D03*
X101000000Y-79000000D03*
X99600000Y-77900000D03*
X101000000Y-77900000D03*
X99600000Y-80100000D03*
X101600000Y-80900000D03*
X102200000Y-80100000D03*
X102200000Y-79000000D03*
X100300000Y-77100000D03*
X99100000Y-80900000D03*
X98400000Y-80100000D03*
X102200000Y-77900000D03*
X100300000Y-80900000D03*
X101600000Y-77100000D03*
X98400000Y-79000000D03*
X101000000Y-80100000D03*
%TD*%
D11*
%TO.N,BATT1-*%
%TO.C,J3*%
X130979107Y-82590740D03*
X123979107Y-82590740D03*
D12*
X129979107Y-79890740D03*
X124979107Y-79890740D03*
%TD*%
D13*
%TO.N,*%
%TO.C,SW2*%
X114568842Y-83376871D03*
X121088842Y-83386871D03*
%TD*%
D14*
%TO.N,EN*%
X106264024Y-81244906D03*
D15*
X95850000Y-79725000D03*
%TO.N,RGB*%
X79850000Y-81150000D03*
X99650000Y-83075000D03*
X74250000Y-76750000D03*
D16*
%TO.N,BATT+*%
X122338382Y-80092335D03*
D17*
X159206944Y-79430058D03*
X159222902Y-77464300D03*
X157958262Y-75694077D03*
D15*
%TO.N,HUD+*%
X70517853Y-79829334D03*
X69430000Y-81370000D03*
%TO.N,RTS*%
X108103740Y-76338432D03*
X107250000Y-81400000D03*
X107350000Y-79650000D03*
X107022929Y-77800460D03*
%TO.N,IO0*%
X106767619Y-82509877D03*
X109602604Y-82347282D03*
%TO.N,DTR*%
X107203359Y-78539039D03*
X108282068Y-81823656D03*
D18*
%TO.N,VBUS*%
X126360799Y-76643861D03*
X149853663Y-76314464D03*
X127224115Y-77278476D03*
D15*
X141369858Y-78650111D03*
X146994871Y-75499849D03*
D16*
X113800000Y-78700000D03*
D18*
X150700201Y-76914527D03*
D15*
%TO.N,TX_ESP*%
X112450000Y-75550000D03*
%TO.N,RX_ESP*%
X113050000Y-76250000D03*
X106850000Y-77000000D03*
%TO.N,+3V3*%
X80250000Y-78200000D03*
X105781301Y-83561655D03*
X105850000Y-82250000D03*
X70195750Y-76895750D03*
X95750000Y-82150000D03*
D16*
X111728727Y-80328351D03*
D15*
X94600000Y-81400000D03*
X103500000Y-75600000D03*
X69600000Y-75900000D03*
X75050000Y-77900000D03*
X94100000Y-77550000D03*
D17*
X118394985Y-77919675D03*
D15*
X71500000Y-83100000D03*
D17*
X119933591Y-79444228D03*
D16*
X131972762Y-83026192D03*
D15*
X77900000Y-78550000D03*
X101100000Y-83275000D03*
X98675000Y-74850000D03*
%TO.N,USB-*%
X126298713Y-78463089D03*
X110056674Y-80752907D03*
%TO.N,USB+*%
X126998713Y-78463089D03*
X109561698Y-81247883D03*
D19*
%TO.N,PSEN*%
X136061510Y-76575220D03*
D20*
X146561072Y-76335989D03*
X147870713Y-77022823D03*
D15*
%TO.N,BATT1-*%
X86365978Y-76395473D03*
X72487500Y-82470000D03*
X156684822Y-78386429D03*
X100250000Y-83450000D03*
X135810133Y-82510205D03*
D19*
X108857163Y-76960761D03*
D15*
X134114032Y-79210880D03*
X91725000Y-79360221D03*
X133471543Y-76120176D03*
D20*
X155637711Y-75556992D03*
D15*
X137405096Y-81243364D03*
X69800000Y-82400000D03*
X69700000Y-83300000D03*
D16*
X113800000Y-77700000D03*
D15*
X138188988Y-79291242D03*
X140772773Y-81908792D03*
D20*
X156060441Y-79209422D03*
D15*
X139764685Y-81592586D03*
X156551717Y-77507381D03*
X90724579Y-79356853D03*
X82050000Y-78225500D03*
X93873563Y-76899500D03*
X93862472Y-75650000D03*
X134434819Y-78379661D03*
X93911041Y-78949500D03*
X140174828Y-77634956D03*
X137635098Y-82500578D03*
X137305303Y-76525730D03*
D19*
X110899695Y-78569517D03*
D15*
X111476258Y-82705720D03*
X155927117Y-78023742D03*
X108913796Y-80744229D03*
X122865457Y-78713732D03*
X88737346Y-79366419D03*
X152860858Y-80062216D03*
X86369347Y-77395893D03*
X134424875Y-77155052D03*
X119879671Y-76656732D03*
X77800000Y-79800000D03*
X133225052Y-79128151D03*
X89737766Y-79366419D03*
X134256811Y-76412787D03*
X93458326Y-79364204D03*
X128073316Y-78238505D03*
X137515167Y-77653704D03*
X157859542Y-76971134D03*
X86350000Y-75450000D03*
X150077042Y-79958564D03*
X93887472Y-78125000D03*
X139362773Y-77580695D03*
X87733557Y-79366419D03*
X68650000Y-78300000D03*
D19*
X108863649Y-78945427D03*
D15*
X74150000Y-80250000D03*
X113062508Y-82066434D03*
X88850000Y-81875500D03*
X153658593Y-75432702D03*
D17*
X129332992Y-76543861D03*
D15*
X133727888Y-78527669D03*
X123380387Y-76864554D03*
X157565825Y-78567349D03*
D16*
X114950000Y-78150000D03*
D15*
X92728789Y-79360221D03*
D16*
X140153708Y-76608881D03*
D15*
X133073351Y-77127011D03*
X86362472Y-78450000D03*
X134959554Y-79253266D03*
X155975420Y-76885782D03*
D16*
X144862389Y-79269721D03*
D20*
%TO.N,+5V*%
X130602116Y-76031481D03*
D17*
X131969967Y-79135492D03*
D16*
X69700000Y-77750000D03*
D17*
X121088507Y-76334582D03*
X122102359Y-76323815D03*
D15*
X68237500Y-75620000D03*
D17*
X131356646Y-78429654D03*
D15*
X70400000Y-79100000D03*
X69450000Y-80750000D03*
D17*
%TO.N,Net-(C15-Pad1)*%
X138674054Y-78137383D03*
D15*
X131453662Y-77622634D03*
D17*
%TO.N,Net-(Q3-Pad3)*%
X147187751Y-79119443D03*
D14*
X140793271Y-77292906D03*
D15*
%TO.N,SWITCH*%
X85025000Y-79525000D03*
X72750000Y-78900000D03*
%TO.N,i2S2_CLK*%
X71500000Y-81500000D03*
X80224505Y-83235085D03*
%TO.N,i2S2_Data*%
X96000000Y-79150000D03*
%TO.N,i2S2_WS*%
X76900000Y-81450000D03*
X73750000Y-79200000D03*
X79150000Y-81450000D03*
%TO.N,VDD_SDIO*%
X86950000Y-82725500D03*
X104891312Y-81805026D03*
%TO.N,SIO1*%
X106000000Y-76650000D03*
X84750000Y-78100000D03*
%TO.N,PSRAM_CS*%
X105691312Y-76105026D03*
X105091312Y-79705026D03*
X85625000Y-75575000D03*
%TO.N,SIO3*%
X84100000Y-82600000D03*
X104441312Y-79205026D03*
%TO.N,SCLK*%
X105950000Y-77450000D03*
X83450000Y-80900000D03*
%TO.N,SIO2*%
X83450000Y-78100000D03*
X105041312Y-76755026D03*
%TO.N,SIO0*%
X104541312Y-77255026D03*
X82050000Y-80800000D03*
%TO.N,ALRT*%
X154572913Y-76987269D03*
X100650000Y-74925000D03*
X135470804Y-80868542D03*
%TO.N,TOUCH1*%
X102100000Y-83550000D03*
%TO.N,SCL*%
X154557237Y-78001569D03*
X104741312Y-75755026D03*
D14*
X134381136Y-81843044D03*
%TO.N,SDA*%
X103850000Y-82675000D03*
X155263950Y-78735805D03*
X132083808Y-82243314D03*
D15*
%TO.N,i2S1_Data*%
X99002251Y-83127205D03*
X78600000Y-80650000D03*
%TO.N,DAC*%
X79250000Y-82700000D03*
X98400000Y-83500000D03*
X70200000Y-81500000D03*
D19*
%TO.N,Net-(Q3-Pad1)*%
X117234007Y-78146620D03*
X142173543Y-76239882D03*
D14*
X145541377Y-77909329D03*
D15*
%TO.N,IO9*%
X113300000Y-80400000D03*
X105100000Y-80500000D03*
%TD*%
%TA.AperFunction,Conductor*%
%TO.N,BATT1-*%
G36*
X103612752Y-74369336D02*
G01*
X105683994Y-74372263D01*
X105688671Y-74372730D01*
X105780211Y-74391056D01*
X105795472Y-74401280D01*
X105799500Y-74414589D01*
X105799500Y-74994108D01*
X105799455Y-75045563D01*
X105800624Y-75047998D01*
X105800625Y-75048001D01*
X105800790Y-75048344D01*
X105806044Y-75059284D01*
X105808352Y-75064091D01*
X105810115Y-75069139D01*
X105814688Y-75089185D01*
X105827376Y-75105107D01*
X105830240Y-75109673D01*
X105839052Y-75128024D01*
X105841163Y-75129712D01*
X105855106Y-75140863D01*
X105858885Y-75144649D01*
X105870009Y-75158609D01*
X105870011Y-75158610D01*
X105871695Y-75160724D01*
X105874131Y-75161899D01*
X105890029Y-75169567D01*
X105894593Y-75172441D01*
X105901515Y-75177976D01*
X105910492Y-75185156D01*
X105913123Y-75185761D01*
X105930527Y-75189763D01*
X105935575Y-75191536D01*
X105942398Y-75194827D01*
X105954087Y-75200465D01*
X105975023Y-75200483D01*
X105977110Y-75200485D01*
X105977170Y-75200488D01*
X105977219Y-75200500D01*
X105994108Y-75200500D01*
X106045340Y-75200545D01*
X106045563Y-75200545D01*
X106045631Y-75200512D01*
X106045741Y-75200500D01*
X112255111Y-75200500D01*
X112272082Y-75207529D01*
X112279111Y-75224500D01*
X112272082Y-75241471D01*
X112266007Y-75245884D01*
X112240716Y-75258770D01*
X112240714Y-75258772D01*
X112239033Y-75259628D01*
X112159628Y-75339033D01*
X112158772Y-75340714D01*
X112158770Y-75340716D01*
X112116743Y-75423200D01*
X112108648Y-75439088D01*
X112100729Y-75489088D01*
X112091677Y-75546240D01*
X112091081Y-75550000D01*
X112108648Y-75660912D01*
X112109506Y-75662596D01*
X112156601Y-75755026D01*
X112159628Y-75760967D01*
X112239033Y-75840372D01*
X112240714Y-75841228D01*
X112240716Y-75841230D01*
X112302165Y-75872539D01*
X112339088Y-75891352D01*
X112450000Y-75908919D01*
X112560912Y-75891352D01*
X112597835Y-75872539D01*
X112659284Y-75841230D01*
X112659286Y-75841228D01*
X112660967Y-75840372D01*
X112740372Y-75760967D01*
X112743400Y-75755026D01*
X112790494Y-75662596D01*
X112791352Y-75660912D01*
X112808919Y-75550000D01*
X112808324Y-75546240D01*
X112799271Y-75489088D01*
X112791352Y-75439088D01*
X112783257Y-75423200D01*
X112741230Y-75340716D01*
X112741228Y-75340714D01*
X112740372Y-75339033D01*
X112660967Y-75259628D01*
X112659286Y-75258772D01*
X112659284Y-75258770D01*
X112633993Y-75245884D01*
X112622064Y-75231916D01*
X112623505Y-75213604D01*
X112637473Y-75201675D01*
X112644889Y-75200500D01*
X146734939Y-75200500D01*
X146751910Y-75207529D01*
X146758939Y-75224500D01*
X146751910Y-75241471D01*
X146704499Y-75288882D01*
X146703643Y-75290563D01*
X146703641Y-75290565D01*
X146654377Y-75387253D01*
X146653519Y-75388937D01*
X146635952Y-75499849D01*
X146653519Y-75610761D01*
X146654377Y-75612445D01*
X146703598Y-75709047D01*
X146704499Y-75710816D01*
X146783904Y-75790221D01*
X146785585Y-75791077D01*
X146785587Y-75791079D01*
X146879714Y-75839038D01*
X146883959Y-75841201D01*
X146994871Y-75858768D01*
X147105783Y-75841201D01*
X147110028Y-75839038D01*
X147204155Y-75791079D01*
X147204157Y-75791077D01*
X147205838Y-75790221D01*
X147285243Y-75710816D01*
X147286145Y-75709047D01*
X147335365Y-75612445D01*
X147336223Y-75610761D01*
X147353790Y-75499849D01*
X147336223Y-75388937D01*
X147335365Y-75387253D01*
X147286101Y-75290565D01*
X147286099Y-75290563D01*
X147285243Y-75288882D01*
X147237832Y-75241471D01*
X147230803Y-75224500D01*
X147237832Y-75207529D01*
X147254803Y-75200500D01*
X157719502Y-75200500D01*
X157736473Y-75207529D01*
X157743502Y-75224500D01*
X157736473Y-75241471D01*
X157732309Y-75244797D01*
X157670772Y-75283624D01*
X157630542Y-75309007D01*
X157629414Y-75310285D01*
X157629412Y-75310286D01*
X157540716Y-75410716D01*
X157535639Y-75416465D01*
X157474709Y-75546240D01*
X157463053Y-75621103D01*
X157452963Y-75685912D01*
X157452653Y-75687900D01*
X157471242Y-75830056D01*
X157528982Y-75961280D01*
X157621232Y-76071025D01*
X157622656Y-76071973D01*
X157681811Y-76111350D01*
X157740575Y-76150467D01*
X157742201Y-76150975D01*
X157742203Y-76150976D01*
X157875789Y-76192710D01*
X157875791Y-76192710D01*
X157877419Y-76193219D01*
X157945005Y-76194458D01*
X158019052Y-76195816D01*
X158019054Y-76195816D01*
X158020761Y-76195847D01*
X158115482Y-76170023D01*
X158157433Y-76158586D01*
X158157435Y-76158585D01*
X158159079Y-76158137D01*
X158281253Y-76083122D01*
X158291345Y-76071973D01*
X158331493Y-76027617D01*
X158377462Y-75976831D01*
X158439972Y-75847810D01*
X158463758Y-75706431D01*
X158463909Y-75694077D01*
X158454257Y-75626682D01*
X158443827Y-75553847D01*
X158443826Y-75553845D01*
X158443585Y-75552159D01*
X158384246Y-75421649D01*
X158290662Y-75313040D01*
X158185130Y-75244638D01*
X158174715Y-75229510D01*
X158178046Y-75211446D01*
X158193176Y-75201029D01*
X158198186Y-75200500D01*
X159585939Y-75200500D01*
X159601164Y-75205948D01*
X159705283Y-75291396D01*
X159708604Y-75294717D01*
X159750420Y-75345670D01*
X159794052Y-75398836D01*
X159799500Y-75414061D01*
X159799500Y-79734206D01*
X159793762Y-79749778D01*
X159738937Y-79814073D01*
X159720338Y-79835884D01*
X159705868Y-79844011D01*
X159532430Y-79871761D01*
X159514562Y-79867501D01*
X159504939Y-79851854D01*
X159509199Y-79833986D01*
X159516080Y-79827610D01*
X159525015Y-79822124D01*
X159529935Y-79819103D01*
X159532536Y-79816230D01*
X159582606Y-79760912D01*
X159626144Y-79712812D01*
X159688654Y-79583791D01*
X159712440Y-79442412D01*
X159712591Y-79430058D01*
X159702505Y-79359628D01*
X159692509Y-79289828D01*
X159692508Y-79289826D01*
X159692267Y-79288140D01*
X159632928Y-79157630D01*
X159539344Y-79049021D01*
X159431644Y-78979213D01*
X159420477Y-78971975D01*
X159419039Y-78971043D01*
X159281683Y-78929965D01*
X159212470Y-78929542D01*
X159140030Y-78929099D01*
X159140027Y-78929099D01*
X159138320Y-78929089D01*
X159136677Y-78929559D01*
X159136674Y-78929559D01*
X159002840Y-78967809D01*
X159000473Y-78968486D01*
X158879224Y-79044988D01*
X158878096Y-79046266D01*
X158878094Y-79046267D01*
X158787572Y-79148765D01*
X158784321Y-79152446D01*
X158783596Y-79153991D01*
X158783595Y-79153992D01*
X158777919Y-79166081D01*
X158723391Y-79282221D01*
X158701335Y-79423881D01*
X158719924Y-79566037D01*
X158777664Y-79697261D01*
X158869914Y-79807006D01*
X158871338Y-79807954D01*
X158913296Y-79835884D01*
X158989257Y-79886448D01*
X158990883Y-79886956D01*
X158990885Y-79886957D01*
X159044616Y-79903743D01*
X159058718Y-79915513D01*
X159060367Y-79933808D01*
X159048597Y-79947910D01*
X159041251Y-79950350D01*
X134985941Y-83799199D01*
X134982149Y-83799500D01*
X131454586Y-83799500D01*
X131437615Y-83792471D01*
X131430586Y-83775500D01*
X131437615Y-83758529D01*
X131441939Y-83755103D01*
X131562540Y-83680327D01*
X131564457Y-83678851D01*
X131703362Y-83547495D01*
X131704939Y-83545668D01*
X131785036Y-83431278D01*
X131800528Y-83421409D01*
X131815592Y-83423660D01*
X131835148Y-83433624D01*
X131839636Y-83435911D01*
X131972762Y-83456996D01*
X132105888Y-83435911D01*
X132110278Y-83433674D01*
X132224299Y-83375578D01*
X132224301Y-83375576D01*
X132225982Y-83374720D01*
X132321290Y-83279412D01*
X132322321Y-83277390D01*
X132381623Y-83161002D01*
X132382481Y-83159318D01*
X132403566Y-83026192D01*
X132401932Y-83015872D01*
X132398029Y-82991230D01*
X132382481Y-82893066D01*
X132370115Y-82868796D01*
X132322148Y-82774655D01*
X132322146Y-82774653D01*
X132321290Y-82772972D01*
X132225982Y-82677664D01*
X132224301Y-82676808D01*
X132224299Y-82676806D01*
X132145146Y-82636476D01*
X132133217Y-82622508D01*
X132134658Y-82604196D01*
X132148626Y-82592267D01*
X132152287Y-82591388D01*
X132192850Y-82584963D01*
X132192855Y-82584961D01*
X132194720Y-82584666D01*
X132235107Y-82564088D01*
X132293092Y-82534544D01*
X132293094Y-82534542D01*
X132294775Y-82533686D01*
X132374180Y-82454281D01*
X132383260Y-82436462D01*
X132424302Y-82355910D01*
X132425160Y-82354226D01*
X132442727Y-82243314D01*
X132425160Y-82132402D01*
X132387375Y-82058244D01*
X132375038Y-82034030D01*
X132375036Y-82034028D01*
X132374180Y-82032347D01*
X132294775Y-81952942D01*
X132293094Y-81952086D01*
X132293092Y-81952084D01*
X132196404Y-81902820D01*
X132194720Y-81901962D01*
X132083808Y-81884395D01*
X131972896Y-81901962D01*
X131971212Y-81902820D01*
X131905493Y-81936305D01*
X131887180Y-81937746D01*
X131873213Y-81925817D01*
X131871695Y-81922098D01*
X131859922Y-81884530D01*
X131858975Y-81882320D01*
X131837204Y-81843044D01*
X134022217Y-81843044D01*
X134039784Y-81953956D01*
X134040642Y-81955640D01*
X134084111Y-82040953D01*
X134090764Y-82054011D01*
X134170169Y-82133416D01*
X134171850Y-82134272D01*
X134171852Y-82134274D01*
X134236651Y-82167290D01*
X134270224Y-82184396D01*
X134381136Y-82201963D01*
X134492048Y-82184396D01*
X134525621Y-82167290D01*
X134590420Y-82134274D01*
X134590422Y-82134272D01*
X134592103Y-82133416D01*
X134671508Y-82054011D01*
X134678162Y-82040953D01*
X134721630Y-81955640D01*
X134722488Y-81953956D01*
X134740055Y-81843044D01*
X134722488Y-81732132D01*
X134712806Y-81713129D01*
X134672366Y-81633760D01*
X134672364Y-81633758D01*
X134671508Y-81632077D01*
X134592103Y-81552672D01*
X134590422Y-81551816D01*
X134590420Y-81551814D01*
X134493732Y-81502550D01*
X134492048Y-81501692D01*
X134381136Y-81484125D01*
X134270224Y-81501692D01*
X134268540Y-81502550D01*
X134171852Y-81551814D01*
X134171850Y-81551816D01*
X134170169Y-81552672D01*
X134090764Y-81632077D01*
X134089908Y-81633758D01*
X134089906Y-81633760D01*
X134049466Y-81713129D01*
X134039784Y-81732132D01*
X134022217Y-81843044D01*
X131837204Y-81843044D01*
X131766284Y-81715102D01*
X131764912Y-81713129D01*
X131640492Y-81567964D01*
X131638746Y-81566302D01*
X131487688Y-81449129D01*
X131485629Y-81447843D01*
X131314099Y-81363440D01*
X131311835Y-81362598D01*
X131237727Y-81343294D01*
X131234108Y-81343797D01*
X131233107Y-81345119D01*
X131233107Y-82820740D01*
X131226078Y-82837711D01*
X131209107Y-82844740D01*
X130030880Y-82844740D01*
X130027505Y-82846138D01*
X130026107Y-82849513D01*
X130026107Y-82968523D01*
X130026168Y-82969731D01*
X130040634Y-83112147D01*
X130041120Y-83114513D01*
X130098292Y-83296950D01*
X130099239Y-83299160D01*
X130191930Y-83466378D01*
X130193302Y-83468351D01*
X130317722Y-83613516D01*
X130319468Y-83615178D01*
X130470526Y-83732351D01*
X130472585Y-83733637D01*
X130513899Y-83753966D01*
X130526023Y-83767765D01*
X130524837Y-83786096D01*
X130511038Y-83798220D01*
X130503303Y-83799500D01*
X124454586Y-83799500D01*
X124437615Y-83792471D01*
X124430586Y-83775500D01*
X124437615Y-83758529D01*
X124441939Y-83755103D01*
X124562540Y-83680327D01*
X124564457Y-83678851D01*
X124703362Y-83547495D01*
X124704939Y-83545668D01*
X124814597Y-83389061D01*
X124815774Y-83386954D01*
X124891701Y-83211498D01*
X124892431Y-83209199D01*
X124931587Y-83021765D01*
X124931822Y-83019953D01*
X124932090Y-83014843D01*
X124932107Y-83014190D01*
X124932107Y-82849513D01*
X124930709Y-82846138D01*
X124927334Y-82844740D01*
X123030880Y-82844740D01*
X123027505Y-82846138D01*
X123026107Y-82849513D01*
X123026107Y-82968523D01*
X123026168Y-82969731D01*
X123040634Y-83112147D01*
X123041120Y-83114513D01*
X123098292Y-83296950D01*
X123099239Y-83299160D01*
X123191930Y-83466378D01*
X123193302Y-83468351D01*
X123317722Y-83613516D01*
X123319468Y-83615178D01*
X123470526Y-83732351D01*
X123472585Y-83733637D01*
X123513899Y-83753966D01*
X123526023Y-83767765D01*
X123524837Y-83786096D01*
X123511038Y-83798220D01*
X123503303Y-83799500D01*
X121640202Y-83799500D01*
X121623231Y-83792471D01*
X121616202Y-83775500D01*
X121620712Y-83761495D01*
X121621092Y-83760967D01*
X121663066Y-83702554D01*
X121706822Y-83593709D01*
X121721252Y-83557813D01*
X121721253Y-83557811D01*
X121721792Y-83556469D01*
X121724634Y-83536504D01*
X121743866Y-83401367D01*
X121743976Y-83400594D01*
X121744120Y-83386871D01*
X121743779Y-83384047D01*
X121731409Y-83281835D01*
X121725205Y-83230565D01*
X121669552Y-83083283D01*
X121666742Y-83079194D01*
X121581192Y-82954719D01*
X121581190Y-82954717D01*
X121580373Y-82953528D01*
X121475884Y-82860431D01*
X121463899Y-82849753D01*
X121463898Y-82849753D01*
X121462818Y-82848790D01*
X121323673Y-82775116D01*
X121170970Y-82736760D01*
X121169527Y-82736752D01*
X121169523Y-82736752D01*
X121092718Y-82736350D01*
X121013526Y-82735936D01*
X120860430Y-82772691D01*
X120859148Y-82773352D01*
X120859147Y-82773353D01*
X120831552Y-82787596D01*
X120720521Y-82844903D01*
X120601876Y-82948404D01*
X120511343Y-83077219D01*
X120454151Y-83223910D01*
X120453963Y-83225338D01*
X120453962Y-83225342D01*
X120442514Y-83312301D01*
X120433600Y-83380009D01*
X120450877Y-83536504D01*
X120451374Y-83537863D01*
X120451375Y-83537866D01*
X120504487Y-83683001D01*
X120504985Y-83684361D01*
X120552522Y-83755103D01*
X120557233Y-83762114D01*
X120560864Y-83780120D01*
X120550699Y-83795420D01*
X120537313Y-83799500D01*
X115113017Y-83799500D01*
X115096046Y-83792471D01*
X115089017Y-83775500D01*
X115093527Y-83761495D01*
X115093907Y-83760967D01*
X115135880Y-83702554D01*
X115142224Y-83693726D01*
X115142225Y-83693725D01*
X115143066Y-83692554D01*
X115182802Y-83593709D01*
X115201252Y-83547813D01*
X115201253Y-83547811D01*
X115201792Y-83546469D01*
X115203017Y-83537866D01*
X115223866Y-83391367D01*
X115223976Y-83390594D01*
X115224120Y-83376871D01*
X115223699Y-83373386D01*
X115211504Y-83272617D01*
X115205205Y-83220565D01*
X115149552Y-83073283D01*
X115147676Y-83070553D01*
X115061192Y-82944719D01*
X115061187Y-82944713D01*
X115060373Y-82943528D01*
X114942818Y-82838790D01*
X114803673Y-82765116D01*
X114650970Y-82726760D01*
X114649527Y-82726752D01*
X114649523Y-82726752D01*
X114572718Y-82726350D01*
X114493526Y-82725936D01*
X114340430Y-82762691D01*
X114339148Y-82763352D01*
X114339147Y-82763353D01*
X114296126Y-82785558D01*
X114200521Y-82834903D01*
X114081876Y-82938404D01*
X113991343Y-83067219D01*
X113934151Y-83213910D01*
X113933963Y-83215338D01*
X113933962Y-83215342D01*
X113922243Y-83304357D01*
X113913600Y-83370009D01*
X113930877Y-83526504D01*
X113931374Y-83527863D01*
X113931375Y-83527866D01*
X113983646Y-83670702D01*
X113984985Y-83674361D01*
X114043470Y-83761395D01*
X114043953Y-83762114D01*
X114047584Y-83780120D01*
X114037419Y-83795420D01*
X114024033Y-83799500D01*
X106097142Y-83799500D01*
X106080171Y-83792471D01*
X106073142Y-83775500D01*
X106075758Y-83764604D01*
X106078854Y-83758529D01*
X106119451Y-83678851D01*
X106121795Y-83674251D01*
X106122653Y-83672567D01*
X106140220Y-83561655D01*
X106139612Y-83557813D01*
X106134868Y-83527866D01*
X106122653Y-83450743D01*
X106115857Y-83437404D01*
X106072531Y-83352371D01*
X106072529Y-83352369D01*
X106071673Y-83350688D01*
X105992268Y-83271283D01*
X105990587Y-83270427D01*
X105990585Y-83270425D01*
X105893897Y-83221161D01*
X105892213Y-83220303D01*
X105781301Y-83202736D01*
X105670389Y-83220303D01*
X105668705Y-83221161D01*
X105572017Y-83270425D01*
X105572015Y-83270427D01*
X105570334Y-83271283D01*
X105490929Y-83350688D01*
X105490073Y-83352369D01*
X105490071Y-83352371D01*
X105446745Y-83437404D01*
X105439949Y-83450743D01*
X105427734Y-83527866D01*
X105422991Y-83557813D01*
X105422382Y-83561655D01*
X105439949Y-83672567D01*
X105440807Y-83674251D01*
X105443151Y-83678851D01*
X105483749Y-83758529D01*
X105486844Y-83764604D01*
X105488285Y-83782916D01*
X105476356Y-83796884D01*
X105465460Y-83799500D01*
X102409114Y-83799500D01*
X102392143Y-83792471D01*
X102385114Y-83775500D01*
X102389577Y-83761762D01*
X102390372Y-83760967D01*
X102391615Y-83758529D01*
X102440494Y-83662596D01*
X102441352Y-83660912D01*
X102458919Y-83550000D01*
X102441352Y-83439088D01*
X102438718Y-83433919D01*
X102391230Y-83340716D01*
X102391228Y-83340714D01*
X102390372Y-83339033D01*
X102310967Y-83259628D01*
X102309286Y-83258772D01*
X102309284Y-83258770D01*
X102212596Y-83209506D01*
X102210912Y-83208648D01*
X102100000Y-83191081D01*
X101989088Y-83208648D01*
X101987404Y-83209506D01*
X101890716Y-83258770D01*
X101890714Y-83258772D01*
X101889033Y-83259628D01*
X101809628Y-83339033D01*
X101808772Y-83340714D01*
X101808770Y-83340716D01*
X101761282Y-83433919D01*
X101758648Y-83439088D01*
X101741081Y-83550000D01*
X101758648Y-83660912D01*
X101759506Y-83662596D01*
X101808386Y-83758529D01*
X101809628Y-83760967D01*
X101810382Y-83761721D01*
X101814590Y-83779256D01*
X101804991Y-83794918D01*
X101790886Y-83799500D01*
X98659781Y-83799500D01*
X98642810Y-83792471D01*
X98635781Y-83775500D01*
X98642810Y-83758529D01*
X98690372Y-83710967D01*
X98693269Y-83705283D01*
X98740494Y-83612596D01*
X98741352Y-83610912D01*
X98758919Y-83500000D01*
X98748872Y-83436566D01*
X98753161Y-83418705D01*
X98768823Y-83409107D01*
X98786684Y-83413396D01*
X98789548Y-83415841D01*
X98791284Y-83417577D01*
X98792965Y-83418433D01*
X98792967Y-83418435D01*
X98860037Y-83452608D01*
X98891339Y-83468557D01*
X99002251Y-83486124D01*
X99113163Y-83468557D01*
X99144465Y-83452608D01*
X99211535Y-83418435D01*
X99211537Y-83418433D01*
X99213218Y-83417577D01*
X99292623Y-83338172D01*
X99306485Y-83310967D01*
X99318248Y-83287879D01*
X99332215Y-83275949D01*
X99350527Y-83277390D01*
X99358902Y-83284543D01*
X99359628Y-83285967D01*
X99439033Y-83365372D01*
X99440714Y-83366228D01*
X99440716Y-83366230D01*
X99522347Y-83407822D01*
X99539088Y-83416352D01*
X99650000Y-83433919D01*
X99760912Y-83416352D01*
X99777653Y-83407822D01*
X99859284Y-83366230D01*
X99859286Y-83366228D01*
X99860967Y-83365372D01*
X99940372Y-83285967D01*
X99942478Y-83281835D01*
X99945961Y-83275000D01*
X100741081Y-83275000D01*
X100741376Y-83276863D01*
X100741991Y-83280746D01*
X100758648Y-83385912D01*
X100759506Y-83387596D01*
X100800908Y-83468852D01*
X100809628Y-83485967D01*
X100889033Y-83565372D01*
X100890714Y-83566228D01*
X100890716Y-83566230D01*
X100974751Y-83609047D01*
X100989088Y-83616352D01*
X101100000Y-83633919D01*
X101210912Y-83616352D01*
X101225249Y-83609047D01*
X101309284Y-83566230D01*
X101309286Y-83566228D01*
X101310967Y-83565372D01*
X101390372Y-83485967D01*
X101399093Y-83468852D01*
X101440494Y-83387596D01*
X101441352Y-83385912D01*
X101458009Y-83280746D01*
X101458624Y-83276863D01*
X101458919Y-83275000D01*
X101441352Y-83164088D01*
X101429780Y-83141376D01*
X101391230Y-83065716D01*
X101391228Y-83065714D01*
X101390372Y-83064033D01*
X101310967Y-82984628D01*
X101309286Y-82983772D01*
X101309284Y-82983770D01*
X101212596Y-82934506D01*
X101210912Y-82933648D01*
X101100000Y-82916081D01*
X100989088Y-82933648D01*
X100987404Y-82934506D01*
X100890716Y-82983770D01*
X100890714Y-82983772D01*
X100889033Y-82984628D01*
X100809628Y-83064033D01*
X100808772Y-83065714D01*
X100808770Y-83065716D01*
X100770220Y-83141376D01*
X100758648Y-83164088D01*
X100741081Y-83275000D01*
X99945961Y-83275000D01*
X99990494Y-83187596D01*
X99991352Y-83185912D01*
X100008919Y-83075000D01*
X100007629Y-83066852D01*
X100002412Y-83033919D01*
X99991352Y-82964088D01*
X99988568Y-82958624D01*
X99941230Y-82865716D01*
X99941228Y-82865714D01*
X99940372Y-82864033D01*
X99860967Y-82784628D01*
X99859286Y-82783772D01*
X99859284Y-82783770D01*
X99762596Y-82734506D01*
X99760912Y-82733648D01*
X99650000Y-82716081D01*
X99539088Y-82733648D01*
X99537404Y-82734506D01*
X99440716Y-82783770D01*
X99440714Y-82783772D01*
X99439033Y-82784628D01*
X99359628Y-82864033D01*
X99358771Y-82865716D01*
X99358769Y-82865718D01*
X99334003Y-82914326D01*
X99320036Y-82926256D01*
X99301724Y-82924815D01*
X99293349Y-82917662D01*
X99292623Y-82916238D01*
X99213218Y-82836833D01*
X99211537Y-82835977D01*
X99211535Y-82835975D01*
X99114847Y-82786711D01*
X99113163Y-82785853D01*
X99002251Y-82768286D01*
X98891339Y-82785853D01*
X98889655Y-82786711D01*
X98792967Y-82835975D01*
X98792965Y-82835977D01*
X98791284Y-82836833D01*
X98711879Y-82916238D01*
X98711023Y-82917919D01*
X98711021Y-82917921D01*
X98661793Y-83014538D01*
X98660899Y-83016293D01*
X98643332Y-83127205D01*
X98643627Y-83129068D01*
X98653379Y-83190639D01*
X98649090Y-83208500D01*
X98633428Y-83218098D01*
X98615567Y-83213809D01*
X98612703Y-83211364D01*
X98610967Y-83209628D01*
X98609286Y-83208772D01*
X98609284Y-83208770D01*
X98512596Y-83159506D01*
X98510912Y-83158648D01*
X98400000Y-83141081D01*
X98289088Y-83158648D01*
X98287404Y-83159506D01*
X98190716Y-83208770D01*
X98190714Y-83208772D01*
X98189033Y-83209628D01*
X98109628Y-83289033D01*
X98108772Y-83290714D01*
X98108770Y-83290716D01*
X98065274Y-83376083D01*
X98058648Y-83389088D01*
X98041081Y-83500000D01*
X98058648Y-83610912D01*
X98059506Y-83612596D01*
X98106732Y-83705283D01*
X98109628Y-83710967D01*
X98157190Y-83758529D01*
X98164219Y-83775500D01*
X98157190Y-83792471D01*
X98140219Y-83799500D01*
X71230833Y-83799500D01*
X71213862Y-83792471D01*
X71206833Y-83775500D01*
X71209117Y-83765281D01*
X71224007Y-83733637D01*
X71253448Y-83671072D01*
X71253731Y-83669590D01*
X71253732Y-83669586D01*
X71282968Y-83516326D01*
X71282968Y-83516324D01*
X71283251Y-83514841D01*
X71277611Y-83425200D01*
X71283561Y-83407822D01*
X71300057Y-83399740D01*
X71312460Y-83402309D01*
X71384645Y-83439088D01*
X71389088Y-83441352D01*
X71500000Y-83458919D01*
X71610912Y-83441352D01*
X71615355Y-83439088D01*
X71709284Y-83391230D01*
X71709286Y-83391228D01*
X71710967Y-83390372D01*
X71790372Y-83310967D01*
X71793668Y-83304500D01*
X71840494Y-83212596D01*
X71841352Y-83210912D01*
X71858919Y-83100000D01*
X71841352Y-82989088D01*
X71830874Y-82968523D01*
X71791230Y-82890716D01*
X71791228Y-82890714D01*
X71790372Y-82889033D01*
X71770512Y-82869173D01*
X76495028Y-82869173D01*
X76495498Y-82870816D01*
X76495498Y-82870819D01*
X76528025Y-82984628D01*
X76534739Y-83008121D01*
X76611853Y-83130339D01*
X76613131Y-83131467D01*
X76613132Y-83131469D01*
X76715645Y-83222005D01*
X76720170Y-83226001D01*
X76850982Y-83287417D01*
X76960697Y-83304500D01*
X77036226Y-83304500D01*
X77037068Y-83304379D01*
X77037074Y-83304379D01*
X77132473Y-83290716D01*
X77143052Y-83289201D01*
X77262075Y-83235085D01*
X79865586Y-83235085D01*
X79883153Y-83345997D01*
X79884011Y-83347681D01*
X79931889Y-83441647D01*
X79934133Y-83446052D01*
X80013538Y-83525457D01*
X80015219Y-83526313D01*
X80015221Y-83526315D01*
X80089258Y-83564038D01*
X80113593Y-83576437D01*
X80224505Y-83594004D01*
X80335417Y-83576437D01*
X80359752Y-83564038D01*
X80433789Y-83526315D01*
X80433791Y-83526313D01*
X80435472Y-83525457D01*
X80514877Y-83446052D01*
X80517122Y-83441647D01*
X80564999Y-83347681D01*
X80565857Y-83345997D01*
X80583424Y-83235085D01*
X80582494Y-83229210D01*
X80571453Y-83159506D01*
X80565857Y-83124173D01*
X80554490Y-83101863D01*
X80515735Y-83025801D01*
X80515733Y-83025799D01*
X80514877Y-83024118D01*
X80435472Y-82944713D01*
X80433791Y-82943857D01*
X80433789Y-82943855D01*
X80337101Y-82894591D01*
X80335417Y-82893733D01*
X80243537Y-82879180D01*
X80226368Y-82876461D01*
X80224505Y-82876166D01*
X80222642Y-82876461D01*
X80205473Y-82879180D01*
X80113593Y-82893733D01*
X80111909Y-82894591D01*
X80015221Y-82943855D01*
X80015219Y-82943857D01*
X80013538Y-82944713D01*
X79934133Y-83024118D01*
X79933277Y-83025799D01*
X79933275Y-83025801D01*
X79894520Y-83101863D01*
X79883153Y-83124173D01*
X79877557Y-83159506D01*
X79866517Y-83229210D01*
X79865586Y-83235085D01*
X77262075Y-83235085D01*
X77274605Y-83229388D01*
X77384082Y-83135056D01*
X77462683Y-83013790D01*
X77504090Y-82875337D01*
X77504631Y-82786711D01*
X77504962Y-82732536D01*
X77504962Y-82732533D01*
X77504972Y-82730827D01*
X77503808Y-82726752D01*
X77496162Y-82700000D01*
X78891081Y-82700000D01*
X78908648Y-82810912D01*
X78909506Y-82812596D01*
X78950697Y-82893438D01*
X78959628Y-82910967D01*
X79039033Y-82990372D01*
X79040714Y-82991228D01*
X79040716Y-82991230D01*
X79105264Y-83024118D01*
X79139088Y-83041352D01*
X79250000Y-83058919D01*
X79360912Y-83041352D01*
X79394736Y-83024118D01*
X79459284Y-82991230D01*
X79459286Y-82991228D01*
X79460967Y-82990372D01*
X79540372Y-82910967D01*
X79549304Y-82893438D01*
X79590494Y-82812596D01*
X79591352Y-82810912D01*
X79608919Y-82700000D01*
X79607166Y-82688929D01*
X79599044Y-82637654D01*
X79593080Y-82600000D01*
X83741081Y-82600000D01*
X83758648Y-82710912D01*
X83759506Y-82712596D01*
X83808650Y-82809047D01*
X83809628Y-82810967D01*
X83889033Y-82890372D01*
X83890714Y-82891228D01*
X83890716Y-82891230D01*
X83981432Y-82937451D01*
X83989088Y-82941352D01*
X84100000Y-82958919D01*
X84210912Y-82941352D01*
X84218568Y-82937451D01*
X84309284Y-82891230D01*
X84309286Y-82891228D01*
X84310967Y-82890372D01*
X84390372Y-82810967D01*
X84391351Y-82809047D01*
X84433919Y-82725500D01*
X86591081Y-82725500D01*
X86591376Y-82727363D01*
X86592507Y-82734506D01*
X86608648Y-82836412D01*
X86609506Y-82838096D01*
X86658629Y-82934506D01*
X86659628Y-82936467D01*
X86739033Y-83015872D01*
X86740714Y-83016728D01*
X86740716Y-83016730D01*
X86800218Y-83047047D01*
X86839088Y-83066852D01*
X86930968Y-83081405D01*
X86942828Y-83083283D01*
X86950000Y-83084419D01*
X86957173Y-83083283D01*
X86969032Y-83081405D01*
X87060912Y-83066852D01*
X87099782Y-83047047D01*
X87159284Y-83016730D01*
X87159286Y-83016728D01*
X87160967Y-83015872D01*
X87240372Y-82936467D01*
X87241372Y-82934506D01*
X87290494Y-82838096D01*
X87291352Y-82836412D01*
X87307493Y-82734506D01*
X87308624Y-82727363D01*
X87308919Y-82725500D01*
X87300920Y-82675000D01*
X103491081Y-82675000D01*
X103508648Y-82785912D01*
X103509506Y-82787596D01*
X103554785Y-82876461D01*
X103559628Y-82885967D01*
X103639033Y-82965372D01*
X103640714Y-82966228D01*
X103640716Y-82966230D01*
X103734060Y-83013790D01*
X103739088Y-83016352D01*
X103850000Y-83033919D01*
X103960912Y-83016352D01*
X103965940Y-83013790D01*
X104059284Y-82966230D01*
X104059286Y-82966228D01*
X104060967Y-82965372D01*
X104140372Y-82885967D01*
X104145216Y-82876461D01*
X104190494Y-82787596D01*
X104191352Y-82785912D01*
X104208919Y-82675000D01*
X104191352Y-82564088D01*
X104187519Y-82556566D01*
X104141230Y-82465716D01*
X104141228Y-82465714D01*
X104140372Y-82464033D01*
X104060967Y-82384628D01*
X104059286Y-82383772D01*
X104059284Y-82383770D01*
X103962596Y-82334506D01*
X103960912Y-82333648D01*
X103850000Y-82316081D01*
X103739088Y-82333648D01*
X103737404Y-82334506D01*
X103640716Y-82383770D01*
X103640714Y-82383772D01*
X103639033Y-82384628D01*
X103559628Y-82464033D01*
X103558772Y-82465714D01*
X103558770Y-82465716D01*
X103512481Y-82556566D01*
X103508648Y-82564088D01*
X103491081Y-82675000D01*
X87300920Y-82675000D01*
X87291352Y-82614588D01*
X87276893Y-82586210D01*
X87241230Y-82516216D01*
X87241228Y-82516214D01*
X87240372Y-82514533D01*
X87160967Y-82435128D01*
X87159286Y-82434272D01*
X87159284Y-82434270D01*
X87062596Y-82385006D01*
X87060912Y-82384148D01*
X86950000Y-82366581D01*
X86839088Y-82384148D01*
X86837404Y-82385006D01*
X86740716Y-82434270D01*
X86740714Y-82434272D01*
X86739033Y-82435128D01*
X86659628Y-82514533D01*
X86658772Y-82516214D01*
X86658770Y-82516216D01*
X86623107Y-82586210D01*
X86608648Y-82614588D01*
X86591081Y-82725500D01*
X84433919Y-82725500D01*
X84440494Y-82712596D01*
X84441352Y-82710912D01*
X84458919Y-82600000D01*
X84441352Y-82489088D01*
X84427906Y-82462699D01*
X84391230Y-82390716D01*
X84391228Y-82390714D01*
X84390372Y-82389033D01*
X84310967Y-82309628D01*
X84309286Y-82308772D01*
X84309284Y-82308770D01*
X84212596Y-82259506D01*
X84210912Y-82258648D01*
X84119032Y-82244095D01*
X84101863Y-82241376D01*
X84100000Y-82241081D01*
X84098137Y-82241376D01*
X84080968Y-82244095D01*
X83989088Y-82258648D01*
X83987404Y-82259506D01*
X83890716Y-82308770D01*
X83890714Y-82308772D01*
X83889033Y-82309628D01*
X83809628Y-82389033D01*
X83808772Y-82390714D01*
X83808770Y-82390716D01*
X83772094Y-82462699D01*
X83758648Y-82489088D01*
X83741081Y-82600000D01*
X79593080Y-82600000D01*
X79591352Y-82589088D01*
X79575639Y-82558249D01*
X79541230Y-82490716D01*
X79541228Y-82490714D01*
X79540372Y-82489033D01*
X79460967Y-82409628D01*
X79459286Y-82408772D01*
X79459284Y-82408770D01*
X79362596Y-82359506D01*
X79360912Y-82358648D01*
X79250000Y-82341081D01*
X79139088Y-82358648D01*
X79137404Y-82359506D01*
X79040716Y-82408770D01*
X79040714Y-82408772D01*
X79039033Y-82409628D01*
X78959628Y-82489033D01*
X78958772Y-82490714D01*
X78958770Y-82490716D01*
X78924361Y-82558249D01*
X78908648Y-82589088D01*
X78900956Y-82637654D01*
X78892835Y-82688929D01*
X78891081Y-82700000D01*
X77496162Y-82700000D01*
X77465732Y-82593527D01*
X77465261Y-82591879D01*
X77388147Y-82469661D01*
X77383681Y-82465716D01*
X77281111Y-82375130D01*
X77281110Y-82375129D01*
X77279830Y-82373999D01*
X77264659Y-82366876D01*
X77246505Y-82358353D01*
X77149018Y-82312583D01*
X77039303Y-82295500D01*
X76963774Y-82295500D01*
X76962932Y-82295621D01*
X76962926Y-82295621D01*
X76888070Y-82306342D01*
X76856948Y-82310799D01*
X76725395Y-82370612D01*
X76710028Y-82383853D01*
X76620534Y-82460967D01*
X76615918Y-82464944D01*
X76537317Y-82586210D01*
X76495910Y-82724663D01*
X76495680Y-82762354D01*
X76495068Y-82862699D01*
X76495028Y-82869173D01*
X71770512Y-82869173D01*
X71710967Y-82809628D01*
X71709286Y-82808772D01*
X71709284Y-82808770D01*
X71612596Y-82759506D01*
X71610912Y-82758648D01*
X71500000Y-82741081D01*
X71389088Y-82758648D01*
X71387404Y-82759506D01*
X71290716Y-82808770D01*
X71290714Y-82808772D01*
X71289033Y-82809628D01*
X71209628Y-82889033D01*
X71208772Y-82890714D01*
X71208770Y-82890716D01*
X71159507Y-82987401D01*
X71159506Y-82987404D01*
X71158648Y-82989088D01*
X71158352Y-82990958D01*
X71151948Y-83031385D01*
X71142350Y-83047047D01*
X71124489Y-83051334D01*
X71111815Y-83045125D01*
X71108112Y-83041647D01*
X71080262Y-83015494D01*
X71024058Y-82962714D01*
X71024055Y-82962712D01*
X71022952Y-82961676D01*
X71021625Y-82960947D01*
X71021623Y-82960945D01*
X70884902Y-82885783D01*
X70883576Y-82885054D01*
X70882116Y-82884679D01*
X70882113Y-82884678D01*
X70746088Y-82849753D01*
X70729524Y-82845500D01*
X70610397Y-82845500D01*
X70524556Y-82856344D01*
X70493701Y-82860242D01*
X70493700Y-82860242D01*
X70492206Y-82860431D01*
X70490808Y-82860984D01*
X70490806Y-82860985D01*
X70345727Y-82918426D01*
X70345725Y-82918427D01*
X70344326Y-82918981D01*
X70343106Y-82919868D01*
X70343105Y-82919868D01*
X70221635Y-83008121D01*
X70215653Y-83012467D01*
X70200003Y-83031385D01*
X70119192Y-83129068D01*
X70114271Y-83135016D01*
X70046552Y-83278928D01*
X70046269Y-83280410D01*
X70046268Y-83280414D01*
X70018649Y-83425200D01*
X70016749Y-83435159D01*
X70017847Y-83452608D01*
X70026236Y-83585939D01*
X70026736Y-83593894D01*
X70027202Y-83595327D01*
X70027202Y-83595329D01*
X70033754Y-83615494D01*
X70075885Y-83745158D01*
X70081475Y-83753966D01*
X70086979Y-83762640D01*
X70090137Y-83780736D01*
X70079575Y-83795764D01*
X70066715Y-83799500D01*
X67414061Y-83799500D01*
X67398836Y-83794052D01*
X67393749Y-83789877D01*
X67294717Y-83708604D01*
X67291396Y-83705283D01*
X67205948Y-83601164D01*
X67200500Y-83585939D01*
X67200500Y-82150000D01*
X95391081Y-82150000D01*
X95408648Y-82260912D01*
X95409506Y-82262596D01*
X95458650Y-82359047D01*
X95459628Y-82360967D01*
X95539033Y-82440372D01*
X95540714Y-82441228D01*
X95540716Y-82441230D01*
X95634537Y-82489033D01*
X95639088Y-82491352D01*
X95750000Y-82508919D01*
X95860912Y-82491352D01*
X95865463Y-82489033D01*
X95959284Y-82441230D01*
X95959286Y-82441228D01*
X95960967Y-82440372D01*
X96040372Y-82360967D01*
X96041351Y-82359047D01*
X96090494Y-82262596D01*
X96091352Y-82260912D01*
X96093080Y-82250000D01*
X105491081Y-82250000D01*
X105508648Y-82360912D01*
X105509506Y-82362596D01*
X105557265Y-82456329D01*
X105559628Y-82460967D01*
X105639033Y-82540372D01*
X105640714Y-82541228D01*
X105640716Y-82541230D01*
X105732213Y-82587849D01*
X105739088Y-82591352D01*
X105850000Y-82608919D01*
X105960912Y-82591352D01*
X105967787Y-82587849D01*
X106059284Y-82541230D01*
X106059286Y-82541228D01*
X106060967Y-82540372D01*
X106091462Y-82509877D01*
X106408700Y-82509877D01*
X106426267Y-82620789D01*
X106427125Y-82622473D01*
X106469636Y-82705906D01*
X106477247Y-82720844D01*
X106556652Y-82800249D01*
X106558333Y-82801105D01*
X106558335Y-82801107D01*
X106646162Y-82845856D01*
X106656707Y-82851229D01*
X106767619Y-82868796D01*
X106878531Y-82851229D01*
X106889076Y-82845856D01*
X106976903Y-82801107D01*
X106976905Y-82801105D01*
X106978586Y-82800249D01*
X107057991Y-82720844D01*
X107065603Y-82705906D01*
X107108113Y-82622473D01*
X107108971Y-82620789D01*
X107126538Y-82509877D01*
X107108971Y-82398965D01*
X107104768Y-82390716D01*
X107082638Y-82347282D01*
X109243685Y-82347282D01*
X109243980Y-82349145D01*
X109245485Y-82358648D01*
X109261252Y-82458194D01*
X109262110Y-82459878D01*
X109302444Y-82539038D01*
X109312232Y-82558249D01*
X109391637Y-82637654D01*
X109393318Y-82638510D01*
X109393320Y-82638512D01*
X109461277Y-82673137D01*
X109491692Y-82688634D01*
X109602604Y-82706201D01*
X109713516Y-82688634D01*
X109743931Y-82673137D01*
X109811888Y-82638512D01*
X109811890Y-82638510D01*
X109813571Y-82637654D01*
X109892976Y-82558249D01*
X109902765Y-82539038D01*
X109943098Y-82459878D01*
X109943956Y-82458194D01*
X109959723Y-82358648D01*
X109961228Y-82349145D01*
X109961523Y-82347282D01*
X109959097Y-82331967D01*
X123026107Y-82331967D01*
X123027505Y-82335342D01*
X123030880Y-82336740D01*
X123720334Y-82336740D01*
X123723709Y-82335342D01*
X123725107Y-82331967D01*
X124233107Y-82331967D01*
X124234505Y-82335342D01*
X124237880Y-82336740D01*
X124927334Y-82336740D01*
X124930709Y-82335342D01*
X124932107Y-82331967D01*
X130026107Y-82331967D01*
X130027505Y-82335342D01*
X130030880Y-82336740D01*
X130720334Y-82336740D01*
X130723709Y-82335342D01*
X130725107Y-82331967D01*
X130725107Y-81343497D01*
X130723709Y-81340122D01*
X130722579Y-81339654D01*
X130560326Y-81399352D01*
X130558150Y-81400414D01*
X130395674Y-81501153D01*
X130393757Y-81502629D01*
X130254852Y-81633985D01*
X130253275Y-81635812D01*
X130143617Y-81792419D01*
X130142440Y-81794526D01*
X130066513Y-81969982D01*
X130065783Y-81972281D01*
X130026627Y-82159715D01*
X130026392Y-82161527D01*
X130026124Y-82166637D01*
X130026107Y-82167290D01*
X130026107Y-82331967D01*
X124932107Y-82331967D01*
X124932107Y-82212957D01*
X124932046Y-82211749D01*
X124917580Y-82069333D01*
X124917094Y-82066967D01*
X124859922Y-81884530D01*
X124858975Y-81882320D01*
X124766284Y-81715102D01*
X124764912Y-81713129D01*
X124640492Y-81567964D01*
X124638746Y-81566302D01*
X124487688Y-81449129D01*
X124485629Y-81447843D01*
X124314099Y-81363440D01*
X124311835Y-81362598D01*
X124237727Y-81343294D01*
X124234108Y-81343797D01*
X124233107Y-81345119D01*
X124233107Y-82331967D01*
X123725107Y-82331967D01*
X123725107Y-81343497D01*
X123723709Y-81340122D01*
X123722579Y-81339654D01*
X123560326Y-81399352D01*
X123558150Y-81400414D01*
X123395674Y-81501153D01*
X123393757Y-81502629D01*
X123254852Y-81633985D01*
X123253275Y-81635812D01*
X123143617Y-81792419D01*
X123142440Y-81794526D01*
X123066513Y-81969982D01*
X123065783Y-81972281D01*
X123026627Y-82159715D01*
X123026392Y-82161527D01*
X123026124Y-82166637D01*
X123026107Y-82167290D01*
X123026107Y-82331967D01*
X109959097Y-82331967D01*
X109943956Y-82236370D01*
X109917037Y-82183538D01*
X109893834Y-82137998D01*
X109893832Y-82137996D01*
X109892976Y-82136315D01*
X109813571Y-82056910D01*
X109811890Y-82056054D01*
X109811888Y-82056052D01*
X109715200Y-82006788D01*
X109713516Y-82005930D01*
X109602604Y-81988363D01*
X109491692Y-82005930D01*
X109490008Y-82006788D01*
X109393320Y-82056052D01*
X109393318Y-82056054D01*
X109391637Y-82056910D01*
X109312232Y-82136315D01*
X109311376Y-82137996D01*
X109311374Y-82137998D01*
X109288171Y-82183538D01*
X109261252Y-82236370D01*
X109243685Y-82347282D01*
X107082638Y-82347282D01*
X107058849Y-82300593D01*
X107058847Y-82300591D01*
X107057991Y-82298910D01*
X106978586Y-82219505D01*
X106976905Y-82218649D01*
X106976903Y-82218647D01*
X106880215Y-82169383D01*
X106878531Y-82168525D01*
X106767619Y-82150958D01*
X106656707Y-82168525D01*
X106655023Y-82169383D01*
X106558335Y-82218647D01*
X106558333Y-82218649D01*
X106556652Y-82219505D01*
X106477247Y-82298910D01*
X106476391Y-82300591D01*
X106476389Y-82300593D01*
X106430470Y-82390716D01*
X106426267Y-82398965D01*
X106408700Y-82509877D01*
X106091462Y-82509877D01*
X106140372Y-82460967D01*
X106142736Y-82456329D01*
X106190494Y-82362596D01*
X106191352Y-82360912D01*
X106208919Y-82250000D01*
X106191352Y-82139088D01*
X106179021Y-82114886D01*
X106141230Y-82040716D01*
X106141228Y-82040714D01*
X106140372Y-82039033D01*
X106060967Y-81959628D01*
X106059286Y-81958772D01*
X106059284Y-81958770D01*
X105962596Y-81909506D01*
X105960912Y-81908648D01*
X105850000Y-81891081D01*
X105739088Y-81908648D01*
X105737404Y-81909506D01*
X105640716Y-81958770D01*
X105640714Y-81958772D01*
X105639033Y-81959628D01*
X105559628Y-82039033D01*
X105558772Y-82040714D01*
X105558770Y-82040716D01*
X105520979Y-82114886D01*
X105508648Y-82139088D01*
X105491081Y-82250000D01*
X96093080Y-82250000D01*
X96108919Y-82150000D01*
X96091352Y-82039088D01*
X96088775Y-82034030D01*
X96041230Y-81940716D01*
X96041228Y-81940714D01*
X96040372Y-81939033D01*
X95960967Y-81859628D01*
X95959286Y-81858772D01*
X95959284Y-81858770D01*
X95862596Y-81809506D01*
X95860912Y-81808648D01*
X95838044Y-81805026D01*
X104532393Y-81805026D01*
X104549960Y-81915938D01*
X104550818Y-81917622D01*
X104596250Y-82006788D01*
X104600940Y-82015993D01*
X104680345Y-82095398D01*
X104682026Y-82096254D01*
X104682028Y-82096256D01*
X104756644Y-82134274D01*
X104780400Y-82146378D01*
X104864605Y-82159715D01*
X104876046Y-82161527D01*
X104891312Y-82163945D01*
X104906579Y-82161527D01*
X104918019Y-82159715D01*
X105002224Y-82146378D01*
X105025980Y-82134274D01*
X105100596Y-82096256D01*
X105100598Y-82096254D01*
X105102279Y-82095398D01*
X105181684Y-82015993D01*
X105186375Y-82006788D01*
X105231806Y-81917622D01*
X105232664Y-81915938D01*
X105247280Y-81823656D01*
X107923149Y-81823656D01*
X107940716Y-81934568D01*
X107941574Y-81936252D01*
X107989857Y-82031013D01*
X107991696Y-82034623D01*
X108071101Y-82114028D01*
X108072782Y-82114884D01*
X108072784Y-82114886D01*
X108143581Y-82150958D01*
X108171156Y-82165008D01*
X108282068Y-82182575D01*
X108392980Y-82165008D01*
X108420555Y-82150958D01*
X108491352Y-82114886D01*
X108491354Y-82114884D01*
X108493035Y-82114028D01*
X108572440Y-82034623D01*
X108574280Y-82031013D01*
X108622562Y-81936252D01*
X108623420Y-81934568D01*
X108640987Y-81823656D01*
X108623420Y-81712744D01*
X108611341Y-81689038D01*
X108573298Y-81614372D01*
X108573296Y-81614370D01*
X108572440Y-81612689D01*
X108493035Y-81533284D01*
X108491354Y-81532428D01*
X108491352Y-81532426D01*
X108394664Y-81483162D01*
X108392980Y-81482304D01*
X108282068Y-81464737D01*
X108171156Y-81482304D01*
X108169472Y-81483162D01*
X108072784Y-81532426D01*
X108072782Y-81532428D01*
X108071101Y-81533284D01*
X107991696Y-81612689D01*
X107990840Y-81614370D01*
X107990838Y-81614372D01*
X107952795Y-81689038D01*
X107940716Y-81712744D01*
X107923149Y-81823656D01*
X105247280Y-81823656D01*
X105250231Y-81805026D01*
X105232664Y-81694114D01*
X105215472Y-81660372D01*
X105182542Y-81595742D01*
X105182540Y-81595740D01*
X105181684Y-81594059D01*
X105102279Y-81514654D01*
X105100598Y-81513798D01*
X105100596Y-81513796D01*
X105003908Y-81464532D01*
X105002224Y-81463674D01*
X104891312Y-81446107D01*
X104780400Y-81463674D01*
X104778716Y-81464532D01*
X104682028Y-81513796D01*
X104682026Y-81513798D01*
X104680345Y-81514654D01*
X104600940Y-81594059D01*
X104600084Y-81595740D01*
X104600082Y-81595742D01*
X104567152Y-81660372D01*
X104549960Y-81694114D01*
X104532393Y-81805026D01*
X95838044Y-81805026D01*
X95750000Y-81791081D01*
X95639088Y-81808648D01*
X95637404Y-81809506D01*
X95540716Y-81858770D01*
X95540714Y-81858772D01*
X95539033Y-81859628D01*
X95459628Y-81939033D01*
X95458772Y-81940714D01*
X95458770Y-81940716D01*
X95411225Y-82034030D01*
X95408648Y-82039088D01*
X95391081Y-82150000D01*
X67200500Y-82150000D01*
X67200500Y-81370000D01*
X69071081Y-81370000D01*
X69088648Y-81480912D01*
X69089506Y-81482596D01*
X69133003Y-81567964D01*
X69139628Y-81580967D01*
X69219033Y-81660372D01*
X69220714Y-81661228D01*
X69220716Y-81661230D01*
X69277912Y-81690372D01*
X69319088Y-81711352D01*
X69430000Y-81728919D01*
X69540912Y-81711352D01*
X69582088Y-81690372D01*
X69639284Y-81661230D01*
X69639286Y-81661228D01*
X69640967Y-81660372D01*
X69720372Y-81580967D01*
X69726998Y-81567964D01*
X69761626Y-81500000D01*
X69841081Y-81500000D01*
X69858648Y-81610912D01*
X69859506Y-81612596D01*
X69899572Y-81691230D01*
X69909628Y-81710967D01*
X69989033Y-81790372D01*
X69990714Y-81791228D01*
X69990716Y-81791230D01*
X70087404Y-81840494D01*
X70089088Y-81841352D01*
X70200000Y-81858919D01*
X70310912Y-81841352D01*
X70312596Y-81840494D01*
X70409284Y-81791230D01*
X70409286Y-81791228D01*
X70410967Y-81790372D01*
X70490372Y-81710967D01*
X70500429Y-81691230D01*
X70540494Y-81612596D01*
X70541352Y-81610912D01*
X70558919Y-81500000D01*
X71141081Y-81500000D01*
X71158648Y-81610912D01*
X71159506Y-81612596D01*
X71199572Y-81691230D01*
X71209628Y-81710967D01*
X71289033Y-81790372D01*
X71290714Y-81791228D01*
X71290716Y-81791230D01*
X71387404Y-81840494D01*
X71389088Y-81841352D01*
X71500000Y-81858919D01*
X71610912Y-81841352D01*
X71612596Y-81840494D01*
X71709284Y-81791230D01*
X71709286Y-81791228D01*
X71710967Y-81790372D01*
X71790372Y-81710967D01*
X71800429Y-81691230D01*
X71840494Y-81612596D01*
X71841352Y-81610912D01*
X71858919Y-81500000D01*
X71851000Y-81450000D01*
X76541081Y-81450000D01*
X76558648Y-81560912D01*
X76559506Y-81562596D01*
X76602684Y-81647338D01*
X76609628Y-81660967D01*
X76689033Y-81740372D01*
X76690714Y-81741228D01*
X76690716Y-81741230D01*
X76784546Y-81789038D01*
X76789088Y-81791352D01*
X76900000Y-81808919D01*
X77010912Y-81791352D01*
X77015454Y-81789038D01*
X77109284Y-81741230D01*
X77109286Y-81741228D01*
X77110967Y-81740372D01*
X77190372Y-81660967D01*
X77197317Y-81647338D01*
X77240494Y-81562596D01*
X77241352Y-81560912D01*
X77258919Y-81450000D01*
X78791081Y-81450000D01*
X78808648Y-81560912D01*
X78809506Y-81562596D01*
X78852684Y-81647338D01*
X78859628Y-81660967D01*
X78939033Y-81740372D01*
X78940714Y-81741228D01*
X78940716Y-81741230D01*
X79034546Y-81789038D01*
X79039088Y-81791352D01*
X79150000Y-81808919D01*
X79260912Y-81791352D01*
X79265454Y-81789038D01*
X79359284Y-81741230D01*
X79359286Y-81741228D01*
X79360967Y-81740372D01*
X79440372Y-81660967D01*
X79447317Y-81647338D01*
X79490494Y-81562596D01*
X79491352Y-81560912D01*
X79508919Y-81450000D01*
X79491352Y-81339088D01*
X79490494Y-81337404D01*
X79441230Y-81240716D01*
X79441228Y-81240714D01*
X79440372Y-81239033D01*
X79360967Y-81159628D01*
X79359286Y-81158772D01*
X79359284Y-81158770D01*
X79342072Y-81150000D01*
X79491081Y-81150000D01*
X79508648Y-81260912D01*
X79509506Y-81262596D01*
X79557863Y-81357502D01*
X79559628Y-81360967D01*
X79639033Y-81440372D01*
X79640714Y-81441228D01*
X79640716Y-81441230D01*
X79714938Y-81479047D01*
X79739088Y-81491352D01*
X79850000Y-81508919D01*
X79960912Y-81491352D01*
X79985062Y-81479047D01*
X80059284Y-81441230D01*
X80059286Y-81441228D01*
X80060967Y-81440372D01*
X80101339Y-81400000D01*
X94241081Y-81400000D01*
X94258648Y-81510912D01*
X94259506Y-81512596D01*
X94308650Y-81609047D01*
X94309628Y-81610967D01*
X94389033Y-81690372D01*
X94390714Y-81691228D01*
X94390716Y-81691230D01*
X94474653Y-81733997D01*
X94489088Y-81741352D01*
X94600000Y-81758919D01*
X94710912Y-81741352D01*
X94725347Y-81733997D01*
X94809284Y-81691230D01*
X94809286Y-81691228D01*
X94810967Y-81690372D01*
X94890372Y-81610967D01*
X94891351Y-81609047D01*
X94903417Y-81585366D01*
X98770164Y-81585366D01*
X98770511Y-81586203D01*
X98770610Y-81586267D01*
X98914204Y-81639670D01*
X98916797Y-81640316D01*
X99082691Y-81662451D01*
X99085365Y-81662507D01*
X99252038Y-81647338D01*
X99254664Y-81646799D01*
X99413835Y-81595081D01*
X99416267Y-81593979D01*
X99427303Y-81587400D01*
X99428819Y-81585366D01*
X99970164Y-81585366D01*
X99970511Y-81586203D01*
X99970610Y-81586267D01*
X100114204Y-81639670D01*
X100116797Y-81640316D01*
X100282691Y-81662451D01*
X100285365Y-81662507D01*
X100452038Y-81647338D01*
X100454664Y-81646799D01*
X100613835Y-81595081D01*
X100616267Y-81593979D01*
X100627303Y-81587400D01*
X100628819Y-81585366D01*
X101270164Y-81585366D01*
X101270511Y-81586203D01*
X101270610Y-81586267D01*
X101414204Y-81639670D01*
X101416797Y-81640316D01*
X101582691Y-81662451D01*
X101585365Y-81662507D01*
X101752038Y-81647338D01*
X101754664Y-81646799D01*
X101913835Y-81595081D01*
X101916267Y-81593979D01*
X101927303Y-81587400D01*
X101929486Y-81584472D01*
X101929241Y-81582794D01*
X101603374Y-81256927D01*
X101600000Y-81255530D01*
X101596626Y-81256927D01*
X101271561Y-81581992D01*
X101270164Y-81585366D01*
X100628819Y-81585366D01*
X100629486Y-81584472D01*
X100629241Y-81582794D01*
X100303374Y-81256927D01*
X100300000Y-81255530D01*
X100296626Y-81256927D01*
X99971561Y-81581992D01*
X99970164Y-81585366D01*
X99428819Y-81585366D01*
X99429486Y-81584472D01*
X99429241Y-81582794D01*
X99103374Y-81256927D01*
X99100000Y-81255530D01*
X99096626Y-81256927D01*
X98771561Y-81581992D01*
X98770164Y-81585366D01*
X94903417Y-81585366D01*
X94940494Y-81512596D01*
X94941352Y-81510912D01*
X94958919Y-81400000D01*
X94941352Y-81289088D01*
X94940494Y-81287404D01*
X94918841Y-81244906D01*
X105905105Y-81244906D01*
X105905400Y-81246769D01*
X105907278Y-81258624D01*
X105922672Y-81355818D01*
X105923530Y-81357502D01*
X105971609Y-81451863D01*
X105973652Y-81455873D01*
X106053057Y-81535278D01*
X106054738Y-81536134D01*
X106054740Y-81536136D01*
X106142728Y-81580967D01*
X106153112Y-81586258D01*
X106264024Y-81603825D01*
X106374936Y-81586258D01*
X106385320Y-81580967D01*
X106473308Y-81536136D01*
X106473310Y-81536134D01*
X106474991Y-81535278D01*
X106554396Y-81455873D01*
X106556440Y-81451863D01*
X106582865Y-81400000D01*
X106891081Y-81400000D01*
X106908648Y-81510912D01*
X106909506Y-81512596D01*
X106958650Y-81609047D01*
X106959628Y-81610967D01*
X107039033Y-81690372D01*
X107040714Y-81691228D01*
X107040716Y-81691230D01*
X107124653Y-81733997D01*
X107139088Y-81741352D01*
X107250000Y-81758919D01*
X107360912Y-81741352D01*
X107375347Y-81733997D01*
X107459284Y-81691230D01*
X107459286Y-81691228D01*
X107460967Y-81690372D01*
X107540372Y-81610967D01*
X107541351Y-81609047D01*
X107590494Y-81512596D01*
X107591352Y-81510912D01*
X107608919Y-81400000D01*
X107591352Y-81289088D01*
X107590494Y-81287404D01*
X107570357Y-81247883D01*
X109202779Y-81247883D01*
X109220346Y-81358795D01*
X109221204Y-81360479D01*
X109268952Y-81454190D01*
X109271326Y-81458850D01*
X109350731Y-81538255D01*
X109352412Y-81539111D01*
X109352414Y-81539113D01*
X109449102Y-81588377D01*
X109450786Y-81589235D01*
X109561698Y-81606802D01*
X109672610Y-81589235D01*
X109674294Y-81588377D01*
X109770982Y-81539113D01*
X109770984Y-81539111D01*
X109772665Y-81538255D01*
X109852070Y-81458850D01*
X109854445Y-81454190D01*
X109902192Y-81360479D01*
X109903050Y-81358795D01*
X109920617Y-81247883D01*
X109920146Y-81244906D01*
X109911644Y-81191230D01*
X109903050Y-81136971D01*
X109892213Y-81115702D01*
X109890772Y-81097390D01*
X109902701Y-81083422D01*
X109921013Y-81081981D01*
X109924493Y-81083422D01*
X109945762Y-81094259D01*
X110034747Y-81108353D01*
X110051251Y-81110967D01*
X110056674Y-81111826D01*
X110062098Y-81110967D01*
X110078601Y-81108353D01*
X110167586Y-81094259D01*
X110193917Y-81080843D01*
X110265958Y-81044137D01*
X110265960Y-81044135D01*
X110267641Y-81043279D01*
X110347046Y-80963874D01*
X110348528Y-80960967D01*
X110397168Y-80865503D01*
X110398026Y-80863819D01*
X110415593Y-80752907D01*
X110414838Y-80748137D01*
X110412579Y-80733875D01*
X110398026Y-80641995D01*
X110382189Y-80610912D01*
X110347904Y-80543623D01*
X110347902Y-80543621D01*
X110347046Y-80541940D01*
X110267641Y-80462535D01*
X110265960Y-80461679D01*
X110265958Y-80461677D01*
X110169270Y-80412413D01*
X110167586Y-80411555D01*
X110056674Y-80393988D01*
X109945762Y-80411555D01*
X109944078Y-80412413D01*
X109847390Y-80461677D01*
X109847388Y-80461679D01*
X109845707Y-80462535D01*
X109766302Y-80541940D01*
X109765446Y-80543621D01*
X109765444Y-80543623D01*
X109731159Y-80610912D01*
X109715322Y-80641995D01*
X109700769Y-80733875D01*
X109698511Y-80748137D01*
X109697755Y-80752907D01*
X109715322Y-80863819D01*
X109716180Y-80865503D01*
X109726159Y-80885088D01*
X109727600Y-80903400D01*
X109715671Y-80917368D01*
X109697359Y-80918809D01*
X109693879Y-80917368D01*
X109674294Y-80907389D01*
X109672610Y-80906531D01*
X109561698Y-80888964D01*
X109450786Y-80906531D01*
X109449102Y-80907389D01*
X109352414Y-80956653D01*
X109352412Y-80956655D01*
X109350731Y-80957511D01*
X109271326Y-81036916D01*
X109270470Y-81038597D01*
X109270468Y-81038599D01*
X109233308Y-81111531D01*
X109220346Y-81136971D01*
X109211752Y-81191230D01*
X109203251Y-81244906D01*
X109202779Y-81247883D01*
X107570357Y-81247883D01*
X107541230Y-81190716D01*
X107541228Y-81190714D01*
X107540372Y-81189033D01*
X107460967Y-81109628D01*
X107459286Y-81108772D01*
X107459284Y-81108770D01*
X107362596Y-81059506D01*
X107360912Y-81058648D01*
X107269032Y-81044095D01*
X107251863Y-81041376D01*
X107250000Y-81041081D01*
X107248137Y-81041376D01*
X107230968Y-81044095D01*
X107139088Y-81058648D01*
X107137404Y-81059506D01*
X107040716Y-81108770D01*
X107040714Y-81108772D01*
X107039033Y-81109628D01*
X106959628Y-81189033D01*
X106958772Y-81190714D01*
X106958770Y-81190716D01*
X106909506Y-81287404D01*
X106908648Y-81289088D01*
X106891081Y-81400000D01*
X106582865Y-81400000D01*
X106604518Y-81357502D01*
X106605376Y-81355818D01*
X106620770Y-81258624D01*
X106622648Y-81246769D01*
X106622943Y-81244906D01*
X106605376Y-81133994D01*
X106596056Y-81115702D01*
X106555254Y-81035622D01*
X106555252Y-81035620D01*
X106554396Y-81033939D01*
X106474991Y-80954534D01*
X106473310Y-80953678D01*
X106473308Y-80953676D01*
X106376620Y-80904412D01*
X106374936Y-80903554D01*
X106282820Y-80888964D01*
X106265887Y-80886282D01*
X106264024Y-80885987D01*
X106262161Y-80886282D01*
X106245228Y-80888964D01*
X106153112Y-80903554D01*
X106151428Y-80904412D01*
X106054740Y-80953676D01*
X106054738Y-80953678D01*
X106053057Y-80954534D01*
X105973652Y-81033939D01*
X105972796Y-81035620D01*
X105972794Y-81035622D01*
X105931992Y-81115702D01*
X105922672Y-81133994D01*
X105905105Y-81244906D01*
X94918841Y-81244906D01*
X94891230Y-81190716D01*
X94891228Y-81190714D01*
X94890372Y-81189033D01*
X94810967Y-81109628D01*
X94809286Y-81108772D01*
X94809284Y-81108770D01*
X94712596Y-81059506D01*
X94710912Y-81058648D01*
X94619032Y-81044095D01*
X94601863Y-81041376D01*
X94600000Y-81041081D01*
X94598137Y-81041376D01*
X94580968Y-81044095D01*
X94489088Y-81058648D01*
X94487404Y-81059506D01*
X94390716Y-81108770D01*
X94390714Y-81108772D01*
X94389033Y-81109628D01*
X94309628Y-81189033D01*
X94308772Y-81190714D01*
X94308770Y-81190716D01*
X94259506Y-81287404D01*
X94258648Y-81289088D01*
X94241081Y-81400000D01*
X80101339Y-81400000D01*
X80140372Y-81360967D01*
X80142138Y-81357502D01*
X80190494Y-81262596D01*
X80191352Y-81260912D01*
X80208919Y-81150000D01*
X80191352Y-81039088D01*
X80189566Y-81035582D01*
X80141230Y-80940716D01*
X80141228Y-80940714D01*
X80140372Y-80939033D01*
X80060967Y-80859628D01*
X80059286Y-80858772D01*
X80059284Y-80858770D01*
X79962596Y-80809506D01*
X79960912Y-80808648D01*
X79906312Y-80800000D01*
X81691081Y-80800000D01*
X81708648Y-80910912D01*
X81709506Y-80912596D01*
X81758650Y-81009047D01*
X81759628Y-81010967D01*
X81839033Y-81090372D01*
X81840714Y-81091228D01*
X81840716Y-81091230D01*
X81928307Y-81135859D01*
X81939088Y-81141352D01*
X82050000Y-81158919D01*
X82160912Y-81141352D01*
X82171693Y-81135859D01*
X82259284Y-81091230D01*
X82259286Y-81091228D01*
X82260967Y-81090372D01*
X82340372Y-81010967D01*
X82341351Y-81009047D01*
X82390494Y-80912596D01*
X82391352Y-80910912D01*
X82393080Y-80900000D01*
X83091081Y-80900000D01*
X83091376Y-80901863D01*
X83091644Y-80903554D01*
X83108648Y-81010912D01*
X83109506Y-81012596D01*
X83158509Y-81108770D01*
X83159628Y-81110967D01*
X83239033Y-81190372D01*
X83240714Y-81191228D01*
X83240716Y-81191230D01*
X83334537Y-81239033D01*
X83339088Y-81241352D01*
X83450000Y-81258919D01*
X83560912Y-81241352D01*
X83565463Y-81239033D01*
X83659284Y-81191230D01*
X83659286Y-81191228D01*
X83660967Y-81190372D01*
X83740372Y-81110967D01*
X83741492Y-81108770D01*
X83790494Y-81012596D01*
X83791352Y-81010912D01*
X83808356Y-80903554D01*
X83808624Y-80901863D01*
X83808919Y-80900000D01*
X83791352Y-80789088D01*
X83789456Y-80785366D01*
X98070164Y-80785366D01*
X98070511Y-80786203D01*
X98070610Y-80786267D01*
X98214204Y-80839670D01*
X98216797Y-80840316D01*
X98317749Y-80853786D01*
X98333641Y-80862998D01*
X98338386Y-80880584D01*
X98337446Y-80888019D01*
X98337409Y-80890691D01*
X98353742Y-81057255D01*
X98354297Y-81059868D01*
X98407128Y-81218685D01*
X98408244Y-81221101D01*
X98412222Y-81227668D01*
X98415167Y-81229832D01*
X98416877Y-81229570D01*
X98743073Y-80903374D01*
X98744470Y-80900000D01*
X99455530Y-80900000D01*
X99456927Y-80903374D01*
X99696626Y-81143073D01*
X99700000Y-81144470D01*
X99703374Y-81143073D01*
X99943073Y-80903374D01*
X99944470Y-80900000D01*
X100655530Y-80900000D01*
X100656927Y-80903374D01*
X100946626Y-81193073D01*
X100950000Y-81194470D01*
X100953374Y-81193073D01*
X101243073Y-80903374D01*
X101244470Y-80900000D01*
X101955530Y-80900000D01*
X101956927Y-80903374D01*
X102281616Y-81228063D01*
X102284990Y-81229460D01*
X102285870Y-81229096D01*
X102285893Y-81229061D01*
X102338355Y-81090954D01*
X102339018Y-81088368D01*
X102362393Y-80922053D01*
X102362510Y-80920544D01*
X102362786Y-80900752D01*
X102362712Y-80899247D01*
X102358934Y-80865572D01*
X102364027Y-80847924D01*
X102375368Y-80840072D01*
X102513835Y-80795081D01*
X102516267Y-80793979D01*
X102527303Y-80787400D01*
X102529486Y-80784472D01*
X102529241Y-80782794D01*
X102303374Y-80556927D01*
X102300000Y-80555530D01*
X102296626Y-80556927D01*
X101956927Y-80896626D01*
X101955530Y-80900000D01*
X101244470Y-80900000D01*
X101243073Y-80896626D01*
X100953374Y-80606927D01*
X100950000Y-80605530D01*
X100946626Y-80606927D01*
X100656927Y-80896626D01*
X100655530Y-80900000D01*
X99944470Y-80900000D01*
X99943073Y-80896626D01*
X99703374Y-80656927D01*
X99700000Y-80655530D01*
X99696626Y-80656927D01*
X99456927Y-80896626D01*
X99455530Y-80900000D01*
X98744470Y-80900000D01*
X98743073Y-80896626D01*
X98383942Y-80537495D01*
X100293025Y-80537495D01*
X100294422Y-80540869D01*
X100296626Y-80543073D01*
X100300000Y-80544470D01*
X100303374Y-80543073D01*
X100305578Y-80540869D01*
X100306975Y-80537495D01*
X100305578Y-80534121D01*
X100303374Y-80531917D01*
X100300000Y-80530520D01*
X100296626Y-80531917D01*
X100294422Y-80534121D01*
X100293025Y-80537495D01*
X98383942Y-80537495D01*
X98375923Y-80529476D01*
X98368894Y-80512505D01*
X98374073Y-80500000D01*
X104741081Y-80500000D01*
X104758648Y-80610912D01*
X104759506Y-80612596D01*
X104805407Y-80702682D01*
X104809628Y-80710967D01*
X104889033Y-80790372D01*
X104890714Y-80791228D01*
X104890716Y-80791230D01*
X104972315Y-80832806D01*
X104989088Y-80841352D01*
X105067592Y-80853786D01*
X105095871Y-80858265D01*
X105100000Y-80858919D01*
X105104130Y-80858265D01*
X105132408Y-80853786D01*
X105210912Y-80841352D01*
X105227685Y-80832806D01*
X105309284Y-80791230D01*
X105309286Y-80791228D01*
X105310967Y-80790372D01*
X105390372Y-80710967D01*
X105394594Y-80702682D01*
X105440494Y-80612596D01*
X105441352Y-80610912D01*
X105458919Y-80500000D01*
X105441352Y-80389088D01*
X105426342Y-80359628D01*
X105410406Y-80328351D01*
X111297923Y-80328351D01*
X111319008Y-80461477D01*
X111319866Y-80463161D01*
X111379146Y-80579504D01*
X111380199Y-80581571D01*
X111475507Y-80676879D01*
X111477188Y-80677735D01*
X111477190Y-80677737D01*
X111593917Y-80737212D01*
X111595601Y-80738070D01*
X111728727Y-80759155D01*
X111861853Y-80738070D01*
X111863537Y-80737212D01*
X111980264Y-80677737D01*
X111980266Y-80677735D01*
X111981947Y-80676879D01*
X112077255Y-80581571D01*
X112078309Y-80579504D01*
X112137588Y-80463161D01*
X112138446Y-80461477D01*
X112148183Y-80400000D01*
X112941081Y-80400000D01*
X112958648Y-80510912D01*
X112959506Y-80512596D01*
X113008650Y-80609047D01*
X113009628Y-80610967D01*
X113089033Y-80690372D01*
X113090714Y-80691228D01*
X113090716Y-80691230D01*
X113180963Y-80737212D01*
X113189088Y-80741352D01*
X113273805Y-80754770D01*
X113291862Y-80757630D01*
X113300000Y-80758919D01*
X113308139Y-80757630D01*
X113326195Y-80754770D01*
X113410912Y-80741352D01*
X113419037Y-80737212D01*
X113509284Y-80691230D01*
X113509286Y-80691228D01*
X113510967Y-80690372D01*
X113590372Y-80610967D01*
X113591351Y-80609047D01*
X113640494Y-80512596D01*
X113641352Y-80510912D01*
X113658919Y-80400000D01*
X113641352Y-80289088D01*
X113626464Y-80259868D01*
X113591230Y-80190716D01*
X113591228Y-80190714D01*
X113590372Y-80189033D01*
X113510967Y-80109628D01*
X113509286Y-80108772D01*
X113509284Y-80108770D01*
X113477028Y-80092335D01*
X121907578Y-80092335D01*
X121928663Y-80225461D01*
X121929521Y-80227145D01*
X121980139Y-80326488D01*
X121989854Y-80345555D01*
X122085162Y-80440863D01*
X122086843Y-80441719D01*
X122086845Y-80441721D01*
X122190409Y-80494489D01*
X122205256Y-80502054D01*
X122338382Y-80523139D01*
X122471508Y-80502054D01*
X122486355Y-80494489D01*
X122589919Y-80441721D01*
X122589921Y-80441719D01*
X122591602Y-80440863D01*
X122686910Y-80345555D01*
X122696626Y-80326488D01*
X122747243Y-80227145D01*
X122748101Y-80225461D01*
X122760486Y-80147268D01*
X123876055Y-80147268D01*
X123940616Y-80322740D01*
X123941678Y-80324916D01*
X124045629Y-80492572D01*
X124047105Y-80494489D01*
X124182648Y-80637821D01*
X124184475Y-80639398D01*
X124346075Y-80752552D01*
X124348182Y-80753729D01*
X124529232Y-80832076D01*
X124531532Y-80832806D01*
X124720433Y-80872270D01*
X124724025Y-80871591D01*
X124725107Y-80870005D01*
X124725107Y-80863472D01*
X125233107Y-80863472D01*
X125234505Y-80866847D01*
X125236940Y-80867856D01*
X125326577Y-80858751D01*
X125328943Y-80858265D01*
X125517187Y-80799273D01*
X125519415Y-80798318D01*
X125691946Y-80702682D01*
X125693932Y-80701302D01*
X125843720Y-80572920D01*
X125845382Y-80571174D01*
X125966290Y-80415300D01*
X125967576Y-80413241D01*
X126054670Y-80236243D01*
X126055512Y-80233979D01*
X126077554Y-80149360D01*
X126077263Y-80147268D01*
X128876055Y-80147268D01*
X128940616Y-80322740D01*
X128941678Y-80324916D01*
X129045629Y-80492572D01*
X129047105Y-80494489D01*
X129182648Y-80637821D01*
X129184475Y-80639398D01*
X129346075Y-80752552D01*
X129348182Y-80753729D01*
X129529232Y-80832076D01*
X129531532Y-80832806D01*
X129720433Y-80872270D01*
X129724025Y-80871591D01*
X129725107Y-80870005D01*
X129725107Y-80868542D01*
X135111885Y-80868542D01*
X135129452Y-80979454D01*
X135130310Y-80981138D01*
X135177944Y-81074625D01*
X135180432Y-81079509D01*
X135259837Y-81158914D01*
X135261518Y-81159770D01*
X135261520Y-81159772D01*
X135329620Y-81194470D01*
X135359892Y-81209894D01*
X135470804Y-81227461D01*
X135581716Y-81209894D01*
X135611988Y-81194470D01*
X135680088Y-81159772D01*
X135680090Y-81159770D01*
X135681771Y-81158914D01*
X135761176Y-81079509D01*
X135763665Y-81074625D01*
X135811298Y-80981138D01*
X135812156Y-80979454D01*
X135829723Y-80868542D01*
X135812156Y-80757630D01*
X135789060Y-80712301D01*
X135762034Y-80659258D01*
X135762032Y-80659256D01*
X135761176Y-80657575D01*
X135681771Y-80578170D01*
X135680090Y-80577314D01*
X135680088Y-80577312D01*
X135583400Y-80528048D01*
X135581716Y-80527190D01*
X135479258Y-80510962D01*
X135472667Y-80509918D01*
X135470804Y-80509623D01*
X135468941Y-80509918D01*
X135462350Y-80510962D01*
X135359892Y-80527190D01*
X135358208Y-80528048D01*
X135261520Y-80577312D01*
X135261518Y-80577314D01*
X135259837Y-80578170D01*
X135180432Y-80657575D01*
X135179576Y-80659256D01*
X135179574Y-80659258D01*
X135152548Y-80712301D01*
X135129452Y-80757630D01*
X135111885Y-80868542D01*
X129725107Y-80868542D01*
X129725107Y-80863472D01*
X130233107Y-80863472D01*
X130234505Y-80866847D01*
X130236940Y-80867856D01*
X130326577Y-80858751D01*
X130328943Y-80858265D01*
X130517187Y-80799273D01*
X130519415Y-80798318D01*
X130691946Y-80702682D01*
X130693932Y-80701302D01*
X130843720Y-80572920D01*
X130845382Y-80571174D01*
X130966290Y-80415300D01*
X130967576Y-80413241D01*
X131054670Y-80236243D01*
X131055512Y-80233979D01*
X131077554Y-80149360D01*
X131077051Y-80145741D01*
X131075729Y-80144740D01*
X130237880Y-80144740D01*
X130234505Y-80146138D01*
X130233107Y-80149513D01*
X130233107Y-80863472D01*
X129725107Y-80863472D01*
X129725107Y-80149513D01*
X129723709Y-80146138D01*
X129720334Y-80144740D01*
X128879898Y-80144740D01*
X128876523Y-80146138D01*
X128876055Y-80147268D01*
X126077263Y-80147268D01*
X126077051Y-80145741D01*
X126075729Y-80144740D01*
X125237880Y-80144740D01*
X125234505Y-80146138D01*
X125233107Y-80149513D01*
X125233107Y-80863472D01*
X124725107Y-80863472D01*
X124725107Y-80149513D01*
X124723709Y-80146138D01*
X124720334Y-80144740D01*
X123879898Y-80144740D01*
X123876523Y-80146138D01*
X123876055Y-80147268D01*
X122760486Y-80147268D01*
X122769186Y-80092335D01*
X122748101Y-79959209D01*
X122741140Y-79945548D01*
X122687768Y-79840798D01*
X122687766Y-79840796D01*
X122686910Y-79839115D01*
X122591602Y-79743807D01*
X122589921Y-79742951D01*
X122589919Y-79742949D01*
X122473192Y-79683474D01*
X122471508Y-79682616D01*
X122338382Y-79661531D01*
X122205256Y-79682616D01*
X122203572Y-79683474D01*
X122086845Y-79742949D01*
X122086843Y-79742951D01*
X122085162Y-79743807D01*
X121989854Y-79839115D01*
X121988998Y-79840796D01*
X121988996Y-79840798D01*
X121935624Y-79945548D01*
X121928663Y-79959209D01*
X121907578Y-80092335D01*
X113477028Y-80092335D01*
X113412596Y-80059506D01*
X113410912Y-80058648D01*
X113300000Y-80041081D01*
X113189088Y-80058648D01*
X113187404Y-80059506D01*
X113090716Y-80108770D01*
X113090714Y-80108772D01*
X113089033Y-80109628D01*
X113009628Y-80189033D01*
X113008772Y-80190714D01*
X113008770Y-80190716D01*
X112973536Y-80259868D01*
X112958648Y-80289088D01*
X112941081Y-80400000D01*
X112148183Y-80400000D01*
X112159531Y-80328351D01*
X112138446Y-80195225D01*
X112123418Y-80165731D01*
X112078113Y-80076814D01*
X112078111Y-80076812D01*
X112077255Y-80075131D01*
X111981947Y-79979823D01*
X111980266Y-79978967D01*
X111980264Y-79978965D01*
X111863537Y-79919490D01*
X111861853Y-79918632D01*
X111728727Y-79897547D01*
X111595601Y-79918632D01*
X111593917Y-79919490D01*
X111477190Y-79978965D01*
X111477188Y-79978967D01*
X111475507Y-79979823D01*
X111380199Y-80075131D01*
X111379343Y-80076812D01*
X111379341Y-80076814D01*
X111334036Y-80165731D01*
X111319008Y-80195225D01*
X111297923Y-80328351D01*
X105410406Y-80328351D01*
X105391230Y-80290716D01*
X105391228Y-80290714D01*
X105390372Y-80289033D01*
X105310967Y-80209628D01*
X105309286Y-80208772D01*
X105309284Y-80208770D01*
X105212596Y-80159506D01*
X105210912Y-80158648D01*
X105100000Y-80141081D01*
X104989088Y-80158648D01*
X104987404Y-80159506D01*
X104890716Y-80208770D01*
X104890714Y-80208772D01*
X104889033Y-80209628D01*
X104809628Y-80289033D01*
X104808772Y-80290714D01*
X104808770Y-80290716D01*
X104773658Y-80359628D01*
X104758648Y-80389088D01*
X104741081Y-80500000D01*
X98374073Y-80500000D01*
X98375923Y-80495534D01*
X98405578Y-80465879D01*
X98406975Y-80462505D01*
X98405578Y-80459131D01*
X98403374Y-80456927D01*
X98400000Y-80455530D01*
X98396626Y-80456927D01*
X98071561Y-80781992D01*
X98070164Y-80785366D01*
X83789456Y-80785366D01*
X83788145Y-80782794D01*
X83741230Y-80690716D01*
X83741228Y-80690714D01*
X83740372Y-80689033D01*
X83660967Y-80609628D01*
X83659286Y-80608772D01*
X83659284Y-80608770D01*
X83562596Y-80559506D01*
X83560912Y-80558648D01*
X83462577Y-80543073D01*
X83451863Y-80541376D01*
X83450000Y-80541081D01*
X83448137Y-80541376D01*
X83437423Y-80543073D01*
X83339088Y-80558648D01*
X83337404Y-80559506D01*
X83240716Y-80608770D01*
X83240714Y-80608772D01*
X83239033Y-80609628D01*
X83159628Y-80689033D01*
X83158772Y-80690714D01*
X83158770Y-80690716D01*
X83111855Y-80782794D01*
X83108648Y-80789088D01*
X83091081Y-80900000D01*
X82393080Y-80900000D01*
X82408919Y-80800000D01*
X82391352Y-80689088D01*
X82389350Y-80685159D01*
X82341230Y-80590716D01*
X82341228Y-80590714D01*
X82340372Y-80589033D01*
X82260967Y-80509628D01*
X82259286Y-80508772D01*
X82259284Y-80508770D01*
X82162596Y-80459506D01*
X82160912Y-80458648D01*
X82050000Y-80441081D01*
X81939088Y-80458648D01*
X81937404Y-80459506D01*
X81840716Y-80508770D01*
X81840714Y-80508772D01*
X81839033Y-80509628D01*
X81759628Y-80589033D01*
X81758772Y-80590714D01*
X81758770Y-80590716D01*
X81710650Y-80685159D01*
X81708648Y-80689088D01*
X81691081Y-80800000D01*
X79906312Y-80800000D01*
X79850000Y-80791081D01*
X79739088Y-80808648D01*
X79737404Y-80809506D01*
X79640716Y-80858770D01*
X79640714Y-80858772D01*
X79639033Y-80859628D01*
X79559628Y-80939033D01*
X79558772Y-80940714D01*
X79558770Y-80940716D01*
X79510434Y-81035582D01*
X79508648Y-81039088D01*
X79491081Y-81150000D01*
X79342072Y-81150000D01*
X79262596Y-81109506D01*
X79260912Y-81108648D01*
X79150000Y-81091081D01*
X79039088Y-81108648D01*
X79037404Y-81109506D01*
X78940716Y-81158770D01*
X78940714Y-81158772D01*
X78939033Y-81159628D01*
X78859628Y-81239033D01*
X78858772Y-81240714D01*
X78858770Y-81240716D01*
X78809506Y-81337404D01*
X78808648Y-81339088D01*
X78791081Y-81450000D01*
X77258919Y-81450000D01*
X77241352Y-81339088D01*
X77240494Y-81337404D01*
X77191230Y-81240716D01*
X77191228Y-81240714D01*
X77190372Y-81239033D01*
X77110967Y-81159628D01*
X77109286Y-81158772D01*
X77109284Y-81158770D01*
X77012596Y-81109506D01*
X77010912Y-81108648D01*
X76900000Y-81091081D01*
X76789088Y-81108648D01*
X76787404Y-81109506D01*
X76690716Y-81158770D01*
X76690714Y-81158772D01*
X76689033Y-81159628D01*
X76609628Y-81239033D01*
X76608772Y-81240714D01*
X76608770Y-81240716D01*
X76559506Y-81337404D01*
X76558648Y-81339088D01*
X76541081Y-81450000D01*
X71851000Y-81450000D01*
X71841352Y-81389088D01*
X71827855Y-81362598D01*
X71791230Y-81290716D01*
X71791228Y-81290714D01*
X71790372Y-81289033D01*
X71710967Y-81209628D01*
X71709286Y-81208772D01*
X71709284Y-81208770D01*
X71612596Y-81159506D01*
X71610912Y-81158648D01*
X71500000Y-81141081D01*
X71389088Y-81158648D01*
X71387404Y-81159506D01*
X71290716Y-81208770D01*
X71290714Y-81208772D01*
X71289033Y-81209628D01*
X71209628Y-81289033D01*
X71208772Y-81290714D01*
X71208770Y-81290716D01*
X71172145Y-81362598D01*
X71158648Y-81389088D01*
X71141081Y-81500000D01*
X70558919Y-81500000D01*
X70541352Y-81389088D01*
X70540494Y-81387404D01*
X70539911Y-81385610D01*
X70540614Y-81385381D01*
X70539382Y-81369742D01*
X70551310Y-81355773D01*
X70567509Y-81353983D01*
X70567515Y-81353935D01*
X70567713Y-81353960D01*
X70568174Y-81353909D01*
X70568373Y-81353960D01*
X70570476Y-81354500D01*
X70689603Y-81354500D01*
X70796839Y-81340953D01*
X70806299Y-81339758D01*
X70806300Y-81339758D01*
X70807794Y-81339569D01*
X70809192Y-81339016D01*
X70809194Y-81339015D01*
X70954273Y-81281574D01*
X70954275Y-81281573D01*
X70955674Y-81281019D01*
X70986498Y-81258624D01*
X71083121Y-81188424D01*
X71083122Y-81188423D01*
X71084347Y-81187533D01*
X71147688Y-81110967D01*
X71184768Y-81066146D01*
X71184769Y-81066144D01*
X71185729Y-81064984D01*
X71188711Y-81058648D01*
X71235467Y-80959284D01*
X71253448Y-80921072D01*
X71253731Y-80919590D01*
X71253732Y-80919586D01*
X71282968Y-80766326D01*
X71282968Y-80766324D01*
X71283251Y-80764841D01*
X71279945Y-80712301D01*
X71276026Y-80650000D01*
X78241081Y-80650000D01*
X78258648Y-80760912D01*
X78259506Y-80762596D01*
X78308650Y-80859047D01*
X78309628Y-80860967D01*
X78389033Y-80940372D01*
X78390714Y-80941228D01*
X78390716Y-80941230D01*
X78487404Y-80990494D01*
X78489088Y-80991352D01*
X78600000Y-81008919D01*
X78710912Y-80991352D01*
X78712596Y-80990494D01*
X78809284Y-80941230D01*
X78809286Y-80941228D01*
X78810967Y-80940372D01*
X78890372Y-80860967D01*
X78891351Y-80859047D01*
X78940494Y-80762596D01*
X78941352Y-80760912D01*
X78958919Y-80650000D01*
X78941352Y-80539088D01*
X78936932Y-80530414D01*
X78891230Y-80440716D01*
X78891228Y-80440714D01*
X78890372Y-80439033D01*
X78810967Y-80359628D01*
X78809286Y-80358772D01*
X78809284Y-80358770D01*
X78712596Y-80309506D01*
X78710912Y-80308648D01*
X78600000Y-80291081D01*
X78489088Y-80308648D01*
X78487404Y-80309506D01*
X78390716Y-80358770D01*
X78390714Y-80358772D01*
X78389033Y-80359628D01*
X78309628Y-80439033D01*
X78308772Y-80440714D01*
X78308770Y-80440716D01*
X78263068Y-80530414D01*
X78258648Y-80539088D01*
X78241081Y-80650000D01*
X71276026Y-80650000D01*
X71273359Y-80607609D01*
X71273358Y-80607606D01*
X71273264Y-80606106D01*
X71268264Y-80590716D01*
X71246210Y-80522844D01*
X71224115Y-80454842D01*
X71138893Y-80320553D01*
X71126216Y-80308648D01*
X71024058Y-80212714D01*
X71024055Y-80212712D01*
X71022952Y-80211676D01*
X71021625Y-80210947D01*
X71021623Y-80210945D01*
X70884902Y-80135783D01*
X70883576Y-80135054D01*
X70877333Y-80133451D01*
X70788980Y-80110765D01*
X70774291Y-80099736D01*
X70773004Y-80090691D01*
X97637409Y-80090691D01*
X97653742Y-80257255D01*
X97654297Y-80259868D01*
X97707128Y-80418685D01*
X97708244Y-80421101D01*
X97712222Y-80427668D01*
X97715167Y-80429832D01*
X97716877Y-80429570D01*
X98043073Y-80103374D01*
X98044470Y-80100000D01*
X98755530Y-80100000D01*
X98756927Y-80103374D01*
X98996626Y-80343073D01*
X99000000Y-80344470D01*
X99003374Y-80343073D01*
X99243073Y-80103374D01*
X99244470Y-80100000D01*
X99955530Y-80100000D01*
X99956927Y-80103374D01*
X100296626Y-80443073D01*
X100300000Y-80444470D01*
X100303374Y-80443073D01*
X100643073Y-80103374D01*
X100644470Y-80100000D01*
X101355530Y-80100000D01*
X101356927Y-80103374D01*
X101596626Y-80343073D01*
X101600000Y-80344470D01*
X101603374Y-80343073D01*
X101843073Y-80103374D01*
X101844470Y-80100000D01*
X102555530Y-80100000D01*
X102556927Y-80103374D01*
X102881616Y-80428063D01*
X102884990Y-80429460D01*
X102885870Y-80429096D01*
X102885893Y-80429061D01*
X102938355Y-80290954D01*
X102939018Y-80288368D01*
X102962393Y-80122053D01*
X102962510Y-80120544D01*
X102962786Y-80100752D01*
X102962712Y-80099247D01*
X102943990Y-79932340D01*
X102943399Y-79929737D01*
X102888357Y-79771679D01*
X102888111Y-79771165D01*
X102885635Y-79769400D01*
X102883855Y-79769698D01*
X102556927Y-80096626D01*
X102555530Y-80100000D01*
X101844470Y-80100000D01*
X101843073Y-80096626D01*
X101603374Y-79856927D01*
X101600000Y-79855530D01*
X101596626Y-79856927D01*
X101356927Y-80096626D01*
X101355530Y-80100000D01*
X100644470Y-80100000D01*
X100643073Y-80096626D01*
X100317601Y-79771154D01*
X100314227Y-79769757D01*
X100308746Y-79772027D01*
X100290377Y-79772027D01*
X100285637Y-79769399D01*
X100283855Y-79769698D01*
X99956927Y-80096626D01*
X99955530Y-80100000D01*
X99244470Y-80100000D01*
X99243073Y-80096626D01*
X99003374Y-79856927D01*
X99000000Y-79855530D01*
X98996626Y-79856927D01*
X98756927Y-80096626D01*
X98755530Y-80100000D01*
X98044470Y-80100000D01*
X98043073Y-80096626D01*
X97717601Y-79771154D01*
X97714227Y-79769757D01*
X97713431Y-79770087D01*
X97713330Y-79770245D01*
X97659048Y-79919381D01*
X97658425Y-79921960D01*
X97637446Y-80088017D01*
X97637409Y-80090691D01*
X70773004Y-80090691D01*
X70771703Y-80081550D01*
X70777978Y-80070548D01*
X70808225Y-80040301D01*
X70833166Y-79991352D01*
X70858347Y-79941930D01*
X70859205Y-79940246D01*
X70876772Y-79829334D01*
X70874697Y-79816230D01*
X70867279Y-79769399D01*
X70859205Y-79718422D01*
X70853329Y-79706889D01*
X70809083Y-79620050D01*
X70809081Y-79620048D01*
X70808225Y-79618367D01*
X70728820Y-79538962D01*
X70727139Y-79538106D01*
X70727137Y-79538104D01*
X70630449Y-79488840D01*
X70628765Y-79487982D01*
X70542000Y-79474240D01*
X70526339Y-79464642D01*
X70522050Y-79446781D01*
X70531648Y-79431119D01*
X70534859Y-79429151D01*
X70609284Y-79391230D01*
X70609286Y-79391228D01*
X70610967Y-79390372D01*
X70690372Y-79310967D01*
X70691351Y-79309047D01*
X70740494Y-79212596D01*
X70741352Y-79210912D01*
X70758919Y-79100000D01*
X70741352Y-78989088D01*
X70740494Y-78987404D01*
X70695960Y-78900000D01*
X72391081Y-78900000D01*
X72391376Y-78901863D01*
X72393613Y-78915988D01*
X72408648Y-79010912D01*
X72409506Y-79012596D01*
X72458555Y-79108861D01*
X72459628Y-79110967D01*
X72539033Y-79190372D01*
X72540714Y-79191228D01*
X72540716Y-79191230D01*
X72624207Y-79233770D01*
X72639088Y-79241352D01*
X72750000Y-79258919D01*
X72860912Y-79241352D01*
X72875793Y-79233770D01*
X72942072Y-79200000D01*
X73391081Y-79200000D01*
X73408648Y-79310912D01*
X73409506Y-79312596D01*
X73456080Y-79404003D01*
X73459628Y-79410967D01*
X73539033Y-79490372D01*
X73540714Y-79491228D01*
X73540716Y-79491230D01*
X73632713Y-79538104D01*
X73639088Y-79541352D01*
X73750000Y-79558919D01*
X73860912Y-79541352D01*
X73867287Y-79538104D01*
X73893005Y-79525000D01*
X84666081Y-79525000D01*
X84666376Y-79526863D01*
X84668292Y-79538962D01*
X84683648Y-79635912D01*
X84684506Y-79637596D01*
X84733731Y-79734206D01*
X84734628Y-79735967D01*
X84814033Y-79815372D01*
X84815714Y-79816228D01*
X84815716Y-79816230D01*
X84892848Y-79855530D01*
X84914088Y-79866352D01*
X85025000Y-79883919D01*
X85135912Y-79866352D01*
X85157152Y-79855530D01*
X85234284Y-79816230D01*
X85234286Y-79816228D01*
X85235967Y-79815372D01*
X85315372Y-79735967D01*
X85316270Y-79734206D01*
X85320961Y-79725000D01*
X95491081Y-79725000D01*
X95508648Y-79835912D01*
X95509506Y-79837596D01*
X95558528Y-79933808D01*
X95559628Y-79935967D01*
X95639033Y-80015372D01*
X95640714Y-80016228D01*
X95640716Y-80016230D01*
X95698202Y-80045520D01*
X95739088Y-80066352D01*
X95850000Y-80083919D01*
X95960912Y-80066352D01*
X96001798Y-80045520D01*
X96059284Y-80016230D01*
X96059286Y-80016228D01*
X96060967Y-80015372D01*
X96140372Y-79935967D01*
X96141473Y-79933808D01*
X96190494Y-79837596D01*
X96191352Y-79835912D01*
X96208919Y-79725000D01*
X96191352Y-79614088D01*
X96175915Y-79583791D01*
X96158698Y-79550000D01*
X98205530Y-79550000D01*
X98206927Y-79553374D01*
X98396626Y-79743073D01*
X98400000Y-79744470D01*
X98403374Y-79743073D01*
X98593073Y-79553374D01*
X98594470Y-79550000D01*
X99405530Y-79550000D01*
X99406927Y-79553374D01*
X99596626Y-79743073D01*
X99600000Y-79744470D01*
X99603374Y-79743073D01*
X99793073Y-79553374D01*
X99794470Y-79550000D01*
X100805530Y-79550000D01*
X100806927Y-79553374D01*
X100996626Y-79743073D01*
X101000000Y-79744470D01*
X101003374Y-79743073D01*
X101193073Y-79553374D01*
X101194470Y-79550000D01*
X102005530Y-79550000D01*
X102006927Y-79553374D01*
X102196626Y-79743073D01*
X102200000Y-79744470D01*
X102203374Y-79743073D01*
X102241421Y-79705026D01*
X104732393Y-79705026D01*
X104749960Y-79815938D01*
X104750818Y-79817622D01*
X104797243Y-79908737D01*
X104800940Y-79915993D01*
X104880345Y-79995398D01*
X104882026Y-79996254D01*
X104882028Y-79996256D01*
X104965170Y-80038618D01*
X104980400Y-80046378D01*
X105091312Y-80063945D01*
X105202224Y-80046378D01*
X105217454Y-80038618D01*
X105300596Y-79996256D01*
X105300598Y-79996254D01*
X105302279Y-79995398D01*
X105381684Y-79915993D01*
X105385382Y-79908737D01*
X105431806Y-79817622D01*
X105432664Y-79815938D01*
X105450231Y-79705026D01*
X105441516Y-79650000D01*
X106991081Y-79650000D01*
X107008648Y-79760912D01*
X107009506Y-79762596D01*
X107057570Y-79856927D01*
X107059628Y-79860967D01*
X107139033Y-79940372D01*
X107140714Y-79941228D01*
X107140716Y-79941230D01*
X107179663Y-79961074D01*
X107239088Y-79991352D01*
X107350000Y-80008919D01*
X107460912Y-79991352D01*
X107520337Y-79961074D01*
X107559284Y-79941230D01*
X107559286Y-79941228D01*
X107560967Y-79940372D01*
X107640372Y-79860967D01*
X107642431Y-79856927D01*
X107690494Y-79762596D01*
X107691352Y-79760912D01*
X107708919Y-79650000D01*
X107691352Y-79539088D01*
X107671529Y-79500183D01*
X107641230Y-79440716D01*
X107641228Y-79440714D01*
X107640372Y-79439033D01*
X107639390Y-79438051D01*
X119427982Y-79438051D01*
X119446571Y-79580207D01*
X119504311Y-79711431D01*
X119596561Y-79821176D01*
X119597985Y-79822124D01*
X119653809Y-79859284D01*
X119715904Y-79900618D01*
X119717530Y-79901126D01*
X119717532Y-79901127D01*
X119851118Y-79942861D01*
X119851120Y-79942861D01*
X119852748Y-79943370D01*
X119920334Y-79944609D01*
X119994381Y-79945967D01*
X119994383Y-79945967D01*
X119996090Y-79945998D01*
X120097549Y-79918337D01*
X120132762Y-79908737D01*
X120132764Y-79908736D01*
X120134408Y-79908288D01*
X120256582Y-79833273D01*
X120260148Y-79829334D01*
X120338226Y-79743073D01*
X120352791Y-79726982D01*
X120398751Y-79632120D01*
X123880660Y-79632120D01*
X123881163Y-79635739D01*
X123882485Y-79636740D01*
X124720334Y-79636740D01*
X124723709Y-79635342D01*
X124725107Y-79631967D01*
X125233107Y-79631967D01*
X125234505Y-79635342D01*
X125237880Y-79636740D01*
X126078316Y-79636740D01*
X126081691Y-79635342D01*
X126082159Y-79634212D01*
X126081389Y-79632120D01*
X128880660Y-79632120D01*
X128881163Y-79635739D01*
X128882485Y-79636740D01*
X129720334Y-79636740D01*
X129723709Y-79635342D01*
X129725107Y-79631967D01*
X130233107Y-79631967D01*
X130234505Y-79635342D01*
X130237880Y-79636740D01*
X131078316Y-79636740D01*
X131081691Y-79635342D01*
X131082159Y-79634212D01*
X131017598Y-79458740D01*
X131016536Y-79456564D01*
X130912585Y-79288908D01*
X130911109Y-79286991D01*
X130775566Y-79143659D01*
X130773739Y-79142082D01*
X130612139Y-79028928D01*
X130610032Y-79027751D01*
X130428982Y-78949404D01*
X130426682Y-78948674D01*
X130237781Y-78909210D01*
X130234189Y-78909889D01*
X130233107Y-78911475D01*
X130233107Y-79631967D01*
X129725107Y-79631967D01*
X129725107Y-78918008D01*
X129723709Y-78914633D01*
X129721274Y-78913624D01*
X129631637Y-78922729D01*
X129629271Y-78923215D01*
X129441027Y-78982207D01*
X129438799Y-78983162D01*
X129266268Y-79078798D01*
X129264282Y-79080178D01*
X129114494Y-79208560D01*
X129112832Y-79210306D01*
X128991924Y-79366180D01*
X128990638Y-79368239D01*
X128903544Y-79545237D01*
X128902702Y-79547501D01*
X128880660Y-79632120D01*
X126081389Y-79632120D01*
X126017598Y-79458740D01*
X126016536Y-79456564D01*
X125912585Y-79288908D01*
X125911109Y-79286991D01*
X125775566Y-79143659D01*
X125773739Y-79142082D01*
X125612139Y-79028928D01*
X125610032Y-79027751D01*
X125428982Y-78949404D01*
X125426682Y-78948674D01*
X125237781Y-78909210D01*
X125234189Y-78909889D01*
X125233107Y-78911475D01*
X125233107Y-79631967D01*
X124725107Y-79631967D01*
X124725107Y-78918008D01*
X124723709Y-78914633D01*
X124721274Y-78913624D01*
X124631637Y-78922729D01*
X124629271Y-78923215D01*
X124441027Y-78982207D01*
X124438799Y-78983162D01*
X124266268Y-79078798D01*
X124264282Y-79080178D01*
X124114494Y-79208560D01*
X124112832Y-79210306D01*
X123991924Y-79366180D01*
X123990638Y-79368239D01*
X123903544Y-79545237D01*
X123902702Y-79547501D01*
X123880660Y-79632120D01*
X120398751Y-79632120D01*
X120415301Y-79597961D01*
X120439087Y-79456582D01*
X120439238Y-79444228D01*
X120427314Y-79360962D01*
X120419156Y-79303998D01*
X120419155Y-79303996D01*
X120418914Y-79302310D01*
X120359575Y-79171800D01*
X120265991Y-79063191D01*
X120154176Y-78990716D01*
X120147124Y-78986145D01*
X120145686Y-78985213D01*
X120008330Y-78944135D01*
X119939117Y-78943712D01*
X119866677Y-78943269D01*
X119866674Y-78943269D01*
X119864967Y-78943259D01*
X119863324Y-78943729D01*
X119863321Y-78943729D01*
X119769467Y-78970553D01*
X119727120Y-78982656D01*
X119605871Y-79059158D01*
X119604743Y-79060436D01*
X119604741Y-79060437D01*
X119512099Y-79165335D01*
X119510968Y-79166616D01*
X119450038Y-79296391D01*
X119440830Y-79355530D01*
X119428649Y-79433770D01*
X119427982Y-79438051D01*
X107639390Y-79438051D01*
X107560967Y-79359628D01*
X107559286Y-79358772D01*
X107559284Y-79358770D01*
X107462596Y-79309506D01*
X107460912Y-79308648D01*
X107350000Y-79291081D01*
X107239088Y-79308648D01*
X107237404Y-79309506D01*
X107140716Y-79358770D01*
X107140714Y-79358772D01*
X107139033Y-79359628D01*
X107059628Y-79439033D01*
X107058772Y-79440714D01*
X107058770Y-79440716D01*
X107028471Y-79500183D01*
X107008648Y-79539088D01*
X106991081Y-79650000D01*
X105441516Y-79650000D01*
X105432664Y-79594114D01*
X105427404Y-79583791D01*
X105382542Y-79495742D01*
X105382540Y-79495740D01*
X105381684Y-79494059D01*
X105302279Y-79414654D01*
X105300598Y-79413798D01*
X105300596Y-79413796D01*
X105203908Y-79364532D01*
X105202224Y-79363674D01*
X105091312Y-79346107D01*
X104980400Y-79363674D01*
X104978716Y-79364532D01*
X104882028Y-79413796D01*
X104882026Y-79413798D01*
X104880345Y-79414654D01*
X104800940Y-79494059D01*
X104800084Y-79495740D01*
X104800082Y-79495742D01*
X104755220Y-79583791D01*
X104749960Y-79594114D01*
X104732393Y-79705026D01*
X102241421Y-79705026D01*
X102393073Y-79553374D01*
X102394470Y-79550000D01*
X102393073Y-79546626D01*
X102203374Y-79356927D01*
X102200000Y-79355530D01*
X102196626Y-79356927D01*
X102006927Y-79546626D01*
X102005530Y-79550000D01*
X101194470Y-79550000D01*
X101193073Y-79546626D01*
X101003374Y-79356927D01*
X101000000Y-79355530D01*
X100996626Y-79356927D01*
X100806927Y-79546626D01*
X100805530Y-79550000D01*
X99794470Y-79550000D01*
X99793073Y-79546626D01*
X99603374Y-79356927D01*
X99600000Y-79355530D01*
X99596626Y-79356927D01*
X99406927Y-79546626D01*
X99405530Y-79550000D01*
X98594470Y-79550000D01*
X98593073Y-79546626D01*
X98403374Y-79356927D01*
X98400000Y-79355530D01*
X98396626Y-79356927D01*
X98206927Y-79546626D01*
X98205530Y-79550000D01*
X96158698Y-79550000D01*
X96141230Y-79515716D01*
X96141228Y-79515714D01*
X96140372Y-79514033D01*
X96138761Y-79512422D01*
X96138661Y-79512180D01*
X96137925Y-79511167D01*
X96138168Y-79510990D01*
X96131732Y-79495451D01*
X96138761Y-79478480D01*
X96144836Y-79474067D01*
X96209284Y-79441230D01*
X96209286Y-79441228D01*
X96210967Y-79440372D01*
X96290372Y-79360967D01*
X96291492Y-79358770D01*
X96340494Y-79262596D01*
X96341352Y-79260912D01*
X96358919Y-79150000D01*
X96341352Y-79039088D01*
X96332672Y-79022053D01*
X96316693Y-78990691D01*
X97637409Y-78990691D01*
X97653742Y-79157255D01*
X97654297Y-79159868D01*
X97707128Y-79318685D01*
X97708244Y-79321101D01*
X97712222Y-79327668D01*
X97715167Y-79329832D01*
X97716877Y-79329570D01*
X98043073Y-79003374D01*
X98044470Y-79000000D01*
X98755530Y-79000000D01*
X98756927Y-79003374D01*
X98996626Y-79243073D01*
X99000000Y-79244470D01*
X99003374Y-79243073D01*
X99243073Y-79003374D01*
X99244470Y-79000000D01*
X99955530Y-79000000D01*
X99956927Y-79003374D01*
X100281616Y-79328063D01*
X100284989Y-79329460D01*
X100291470Y-79326776D01*
X100309838Y-79326777D01*
X100314861Y-79329607D01*
X100315167Y-79329832D01*
X100316877Y-79329570D01*
X100643073Y-79003374D01*
X100644470Y-79000000D01*
X101355530Y-79000000D01*
X101356927Y-79003374D01*
X101596626Y-79243073D01*
X101600000Y-79244470D01*
X101603374Y-79243073D01*
X101843073Y-79003374D01*
X101844470Y-79000000D01*
X102555530Y-79000000D01*
X102556927Y-79003374D01*
X102881616Y-79328063D01*
X102884990Y-79329460D01*
X102885870Y-79329096D01*
X102885893Y-79329061D01*
X102933010Y-79205026D01*
X104082393Y-79205026D01*
X104099960Y-79315938D01*
X104100818Y-79317622D01*
X104149821Y-79413796D01*
X104150940Y-79415993D01*
X104230345Y-79495398D01*
X104232026Y-79496254D01*
X104232028Y-79496256D01*
X104292099Y-79526863D01*
X104330400Y-79546378D01*
X104441312Y-79563945D01*
X104552224Y-79546378D01*
X104590525Y-79526863D01*
X104650596Y-79496256D01*
X104650598Y-79496254D01*
X104652279Y-79495398D01*
X104731684Y-79415993D01*
X104732804Y-79413796D01*
X104781806Y-79317622D01*
X104782664Y-79315938D01*
X104800231Y-79205026D01*
X104782664Y-79094114D01*
X104773587Y-79076299D01*
X104732542Y-78995742D01*
X104732540Y-78995740D01*
X104731684Y-78994059D01*
X104652279Y-78914654D01*
X104650598Y-78913798D01*
X104650596Y-78913796D01*
X104553908Y-78864532D01*
X104552224Y-78863674D01*
X104447045Y-78847015D01*
X104443175Y-78846402D01*
X104441312Y-78846107D01*
X104439449Y-78846402D01*
X104435579Y-78847015D01*
X104330400Y-78863674D01*
X104328716Y-78864532D01*
X104232028Y-78913796D01*
X104232026Y-78913798D01*
X104230345Y-78914654D01*
X104150940Y-78994059D01*
X104150084Y-78995740D01*
X104150082Y-78995742D01*
X104109037Y-79076299D01*
X104099960Y-79094114D01*
X104082393Y-79205026D01*
X102933010Y-79205026D01*
X102938355Y-79190954D01*
X102939018Y-79188368D01*
X102962393Y-79022053D01*
X102962510Y-79020544D01*
X102962786Y-79000752D01*
X102962712Y-78999247D01*
X102943990Y-78832340D01*
X102943399Y-78829737D01*
X102888357Y-78671679D01*
X102888111Y-78671165D01*
X102885635Y-78669400D01*
X102883855Y-78669698D01*
X102556927Y-78996626D01*
X102555530Y-79000000D01*
X101844470Y-79000000D01*
X101843073Y-78996626D01*
X101603374Y-78756927D01*
X101600000Y-78755530D01*
X101596626Y-78756927D01*
X101356927Y-78996626D01*
X101355530Y-79000000D01*
X100644470Y-79000000D01*
X100643073Y-78996626D01*
X100317601Y-78671154D01*
X100314227Y-78669757D01*
X100308746Y-78672027D01*
X100290377Y-78672027D01*
X100285637Y-78669399D01*
X100283855Y-78669698D01*
X99956927Y-78996626D01*
X99955530Y-79000000D01*
X99244470Y-79000000D01*
X99243073Y-78996626D01*
X99003374Y-78756927D01*
X99000000Y-78755530D01*
X98996626Y-78756927D01*
X98756927Y-78996626D01*
X98755530Y-79000000D01*
X98044470Y-79000000D01*
X98043073Y-78996626D01*
X97717601Y-78671154D01*
X97714227Y-78669757D01*
X97713431Y-78670087D01*
X97713330Y-78670245D01*
X97659048Y-78819381D01*
X97658425Y-78821960D01*
X97637446Y-78988017D01*
X97637409Y-78990691D01*
X96316693Y-78990691D01*
X96291230Y-78940716D01*
X96291228Y-78940714D01*
X96290372Y-78939033D01*
X96210967Y-78859628D01*
X96209286Y-78858772D01*
X96209284Y-78858770D01*
X96112596Y-78809506D01*
X96110912Y-78808648D01*
X96000000Y-78791081D01*
X95889088Y-78808648D01*
X95887404Y-78809506D01*
X95790716Y-78858770D01*
X95790714Y-78858772D01*
X95789033Y-78859628D01*
X95709628Y-78939033D01*
X95708772Y-78940714D01*
X95708770Y-78940716D01*
X95667328Y-79022053D01*
X95658648Y-79039088D01*
X95641081Y-79150000D01*
X95658648Y-79260912D01*
X95659506Y-79262596D01*
X95708509Y-79358770D01*
X95709628Y-79360967D01*
X95711239Y-79362578D01*
X95711339Y-79362820D01*
X95712075Y-79363833D01*
X95711832Y-79364010D01*
X95718268Y-79379549D01*
X95711239Y-79396520D01*
X95705165Y-79400932D01*
X95688774Y-79409284D01*
X95640716Y-79433770D01*
X95640714Y-79433772D01*
X95639033Y-79434628D01*
X95559628Y-79514033D01*
X95558772Y-79515714D01*
X95558770Y-79515716D01*
X95524085Y-79583791D01*
X95508648Y-79614088D01*
X95491081Y-79725000D01*
X85320961Y-79725000D01*
X85365494Y-79637596D01*
X85366352Y-79635912D01*
X85381708Y-79538962D01*
X85383624Y-79526863D01*
X85383919Y-79525000D01*
X85381889Y-79512180D01*
X85379230Y-79495398D01*
X85366352Y-79414088D01*
X85365494Y-79412404D01*
X85316230Y-79315716D01*
X85316228Y-79315714D01*
X85315372Y-79314033D01*
X85235967Y-79234628D01*
X85234286Y-79233772D01*
X85234284Y-79233770D01*
X85137596Y-79184506D01*
X85135912Y-79183648D01*
X85025000Y-79166081D01*
X84914088Y-79183648D01*
X84912404Y-79184506D01*
X84815716Y-79233770D01*
X84815714Y-79233772D01*
X84814033Y-79234628D01*
X84734628Y-79314033D01*
X84733772Y-79315714D01*
X84733770Y-79315716D01*
X84684506Y-79412404D01*
X84683648Y-79414088D01*
X84670770Y-79495398D01*
X84668112Y-79512180D01*
X84666081Y-79525000D01*
X73893005Y-79525000D01*
X73959284Y-79491230D01*
X73959286Y-79491228D01*
X73960967Y-79490372D01*
X74040372Y-79410967D01*
X74043921Y-79404003D01*
X74090494Y-79312596D01*
X74091352Y-79310912D01*
X74108919Y-79200000D01*
X74091352Y-79089088D01*
X74075638Y-79058247D01*
X74041230Y-78990716D01*
X74041228Y-78990714D01*
X74040372Y-78989033D01*
X73960967Y-78909628D01*
X73959286Y-78908772D01*
X73959284Y-78908770D01*
X73862596Y-78859506D01*
X73860912Y-78858648D01*
X73764496Y-78843377D01*
X73751863Y-78841376D01*
X73750000Y-78841081D01*
X73748137Y-78841376D01*
X73735504Y-78843377D01*
X73639088Y-78858648D01*
X73637404Y-78859506D01*
X73540716Y-78908770D01*
X73540714Y-78908772D01*
X73539033Y-78909628D01*
X73459628Y-78989033D01*
X73458772Y-78990714D01*
X73458770Y-78990716D01*
X73424362Y-79058247D01*
X73408648Y-79089088D01*
X73391081Y-79200000D01*
X72942072Y-79200000D01*
X72959284Y-79191230D01*
X72959286Y-79191228D01*
X72960967Y-79190372D01*
X73040372Y-79110967D01*
X73041446Y-79108861D01*
X73090494Y-79012596D01*
X73091352Y-79010912D01*
X73106387Y-78915988D01*
X73108624Y-78901863D01*
X73108919Y-78900000D01*
X73091352Y-78789088D01*
X73090494Y-78787404D01*
X73041230Y-78690716D01*
X73041228Y-78690714D01*
X73040372Y-78689033D01*
X72960967Y-78609628D01*
X72959286Y-78608772D01*
X72959284Y-78608770D01*
X72862596Y-78559506D01*
X72860912Y-78558648D01*
X72806312Y-78550000D01*
X77541081Y-78550000D01*
X77541376Y-78551863D01*
X77542404Y-78558353D01*
X77558648Y-78660912D01*
X77559506Y-78662596D01*
X77607570Y-78756927D01*
X77609628Y-78760967D01*
X77689033Y-78840372D01*
X77690714Y-78841228D01*
X77690716Y-78841230D01*
X77784537Y-78889033D01*
X77789088Y-78891352D01*
X77900000Y-78908919D01*
X78010912Y-78891352D01*
X78015463Y-78889033D01*
X78109284Y-78841230D01*
X78109286Y-78841228D01*
X78110967Y-78840372D01*
X78190372Y-78760967D01*
X78192431Y-78756927D01*
X78240494Y-78662596D01*
X78241352Y-78660912D01*
X78257596Y-78558353D01*
X78258624Y-78551863D01*
X78258919Y-78550000D01*
X78241352Y-78439088D01*
X78231024Y-78418817D01*
X78191230Y-78340716D01*
X78191228Y-78340714D01*
X78190372Y-78339033D01*
X78110967Y-78259628D01*
X78109286Y-78258772D01*
X78109284Y-78258770D01*
X78012596Y-78209506D01*
X78010912Y-78208648D01*
X77956312Y-78200000D01*
X79891081Y-78200000D01*
X79891376Y-78201863D01*
X79892404Y-78208353D01*
X79908648Y-78310912D01*
X79909506Y-78312596D01*
X79956377Y-78404586D01*
X79959628Y-78410967D01*
X80039033Y-78490372D01*
X80040714Y-78491228D01*
X80040716Y-78491230D01*
X80121834Y-78532561D01*
X80139088Y-78541352D01*
X80250000Y-78558919D01*
X80360912Y-78541352D01*
X80378166Y-78532561D01*
X80459284Y-78491230D01*
X80459286Y-78491228D01*
X80460967Y-78490372D01*
X80540372Y-78410967D01*
X80543624Y-78404586D01*
X80590494Y-78312596D01*
X80591352Y-78310912D01*
X80607596Y-78208353D01*
X80608624Y-78201863D01*
X80608919Y-78200000D01*
X80593080Y-78100000D01*
X83091081Y-78100000D01*
X83108648Y-78210912D01*
X83109506Y-78212596D01*
X83158650Y-78309047D01*
X83159628Y-78310967D01*
X83239033Y-78390372D01*
X83240714Y-78391228D01*
X83240716Y-78391230D01*
X83337404Y-78440494D01*
X83339088Y-78441352D01*
X83450000Y-78458919D01*
X83560912Y-78441352D01*
X83562596Y-78440494D01*
X83659284Y-78391230D01*
X83659286Y-78391228D01*
X83660967Y-78390372D01*
X83740372Y-78310967D01*
X83741351Y-78309047D01*
X83790494Y-78212596D01*
X83791352Y-78210912D01*
X83808919Y-78100000D01*
X84391081Y-78100000D01*
X84408648Y-78210912D01*
X84409506Y-78212596D01*
X84458650Y-78309047D01*
X84459628Y-78310967D01*
X84539033Y-78390372D01*
X84540714Y-78391228D01*
X84540716Y-78391230D01*
X84637404Y-78440494D01*
X84639088Y-78441352D01*
X84750000Y-78458919D01*
X84860912Y-78441352D01*
X84862596Y-78440494D01*
X84959284Y-78391230D01*
X84959286Y-78391228D01*
X84960967Y-78390372D01*
X85040372Y-78310967D01*
X85041351Y-78309047D01*
X85090494Y-78212596D01*
X85091352Y-78210912D01*
X85108919Y-78100000D01*
X85091352Y-77989088D01*
X85069644Y-77946483D01*
X85041230Y-77890716D01*
X85041228Y-77890714D01*
X85040372Y-77889033D01*
X84960967Y-77809628D01*
X84959286Y-77808772D01*
X84959284Y-77808770D01*
X84862596Y-77759506D01*
X84860912Y-77758648D01*
X84769032Y-77744095D01*
X84751863Y-77741376D01*
X84750000Y-77741081D01*
X84748137Y-77741376D01*
X84730968Y-77744095D01*
X84639088Y-77758648D01*
X84637404Y-77759506D01*
X84540716Y-77808770D01*
X84540714Y-77808772D01*
X84539033Y-77809628D01*
X84459628Y-77889033D01*
X84458772Y-77890714D01*
X84458770Y-77890716D01*
X84430356Y-77946483D01*
X84408648Y-77989088D01*
X84391081Y-78100000D01*
X83808919Y-78100000D01*
X83791352Y-77989088D01*
X83769644Y-77946483D01*
X83741230Y-77890716D01*
X83741228Y-77890714D01*
X83740372Y-77889033D01*
X83660967Y-77809628D01*
X83659286Y-77808772D01*
X83659284Y-77808770D01*
X83562596Y-77759506D01*
X83560912Y-77758648D01*
X83469032Y-77744095D01*
X83451863Y-77741376D01*
X83450000Y-77741081D01*
X83448137Y-77741376D01*
X83430968Y-77744095D01*
X83339088Y-77758648D01*
X83337404Y-77759506D01*
X83240716Y-77808770D01*
X83240714Y-77808772D01*
X83239033Y-77809628D01*
X83159628Y-77889033D01*
X83158772Y-77890714D01*
X83158770Y-77890716D01*
X83130356Y-77946483D01*
X83108648Y-77989088D01*
X83091081Y-78100000D01*
X80593080Y-78100000D01*
X80591352Y-78089088D01*
X80576464Y-78059868D01*
X80541230Y-77990716D01*
X80541228Y-77990714D01*
X80540372Y-77989033D01*
X80460967Y-77909628D01*
X80459286Y-77908772D01*
X80459284Y-77908770D01*
X80362596Y-77859506D01*
X80360912Y-77858648D01*
X80250000Y-77841081D01*
X80139088Y-77858648D01*
X80137404Y-77859506D01*
X80040716Y-77908770D01*
X80040714Y-77908772D01*
X80039033Y-77909628D01*
X79959628Y-77989033D01*
X79958772Y-77990714D01*
X79958770Y-77990716D01*
X79923536Y-78059868D01*
X79908648Y-78089088D01*
X79891081Y-78200000D01*
X77956312Y-78200000D01*
X77900000Y-78191081D01*
X77789088Y-78208648D01*
X77787404Y-78209506D01*
X77690716Y-78258770D01*
X77690714Y-78258772D01*
X77689033Y-78259628D01*
X77609628Y-78339033D01*
X77608772Y-78340714D01*
X77608770Y-78340716D01*
X77568976Y-78418817D01*
X77558648Y-78439088D01*
X77541081Y-78550000D01*
X72806312Y-78550000D01*
X72750000Y-78541081D01*
X72639088Y-78558648D01*
X72637404Y-78559506D01*
X72540716Y-78608770D01*
X72540714Y-78608772D01*
X72539033Y-78609628D01*
X72459628Y-78689033D01*
X72458772Y-78690714D01*
X72458770Y-78690716D01*
X72409506Y-78787404D01*
X72408648Y-78789088D01*
X72391081Y-78900000D01*
X70695960Y-78900000D01*
X70691230Y-78890716D01*
X70691228Y-78890714D01*
X70690372Y-78889033D01*
X70610967Y-78809628D01*
X70609286Y-78808772D01*
X70609284Y-78808770D01*
X70512596Y-78759506D01*
X70510912Y-78758648D01*
X70400000Y-78741081D01*
X70289088Y-78758648D01*
X70287404Y-78759506D01*
X70190716Y-78808770D01*
X70190714Y-78808772D01*
X70189033Y-78809628D01*
X70109628Y-78889033D01*
X70108772Y-78890714D01*
X70108770Y-78890716D01*
X70059506Y-78987404D01*
X70058648Y-78989088D01*
X70041081Y-79100000D01*
X70058648Y-79210912D01*
X70059506Y-79212596D01*
X70108650Y-79309047D01*
X70109628Y-79310967D01*
X70189033Y-79390372D01*
X70190714Y-79391228D01*
X70190716Y-79391230D01*
X70282609Y-79438051D01*
X70289088Y-79441352D01*
X70375853Y-79455094D01*
X70391514Y-79464692D01*
X70395803Y-79482553D01*
X70386205Y-79498215D01*
X70382994Y-79500183D01*
X70308569Y-79538104D01*
X70308567Y-79538106D01*
X70306886Y-79538962D01*
X70227481Y-79618367D01*
X70226625Y-79620048D01*
X70226623Y-79620050D01*
X70182377Y-79706889D01*
X70176501Y-79718422D01*
X70168427Y-79769399D01*
X70161010Y-79816230D01*
X70158934Y-79829334D01*
X70176501Y-79940246D01*
X70177359Y-79941930D01*
X70202541Y-79991352D01*
X70227481Y-80040301D01*
X70306886Y-80119706D01*
X70308567Y-80120562D01*
X70308569Y-80120564D01*
X70333862Y-80133451D01*
X70345791Y-80147419D01*
X70344350Y-80165731D01*
X70337074Y-80174250D01*
X70269155Y-80223596D01*
X70222827Y-80257255D01*
X70215653Y-80262467D01*
X70214687Y-80263635D01*
X70145813Y-80346889D01*
X70114271Y-80385016D01*
X70113630Y-80386377D01*
X70113630Y-80386378D01*
X70103290Y-80408353D01*
X70046552Y-80528928D01*
X70046269Y-80530410D01*
X70046268Y-80530414D01*
X70018165Y-80677737D01*
X70016749Y-80685159D01*
X70018267Y-80709284D01*
X70026595Y-80841647D01*
X70026736Y-80843894D01*
X70027202Y-80845327D01*
X70027202Y-80845329D01*
X70035220Y-80870005D01*
X70075885Y-80995158D01*
X70150226Y-81112301D01*
X70151791Y-81114767D01*
X70154949Y-81132862D01*
X70144387Y-81147891D01*
X70135283Y-81151331D01*
X70089088Y-81158648D01*
X70087404Y-81159506D01*
X69990716Y-81208770D01*
X69990714Y-81208772D01*
X69989033Y-81209628D01*
X69909628Y-81289033D01*
X69908772Y-81290714D01*
X69908770Y-81290716D01*
X69872145Y-81362598D01*
X69858648Y-81389088D01*
X69841081Y-81500000D01*
X69761626Y-81500000D01*
X69770494Y-81482596D01*
X69771352Y-81480912D01*
X69788919Y-81370000D01*
X69786940Y-81357502D01*
X69776361Y-81290716D01*
X69771352Y-81259088D01*
X69763177Y-81243043D01*
X69721230Y-81160716D01*
X69721228Y-81160714D01*
X69720372Y-81159033D01*
X69645070Y-81083731D01*
X69638041Y-81066760D01*
X69645070Y-81049789D01*
X69651142Y-81045378D01*
X69660967Y-81040372D01*
X69740372Y-80960967D01*
X69741454Y-80958845D01*
X69790494Y-80862596D01*
X69791352Y-80860912D01*
X69807977Y-80755946D01*
X69808624Y-80751863D01*
X69808919Y-80750000D01*
X69791352Y-80639088D01*
X69777854Y-80612596D01*
X69741230Y-80540716D01*
X69741228Y-80540714D01*
X69740372Y-80539033D01*
X69660967Y-80459628D01*
X69659286Y-80458772D01*
X69659284Y-80458770D01*
X69562596Y-80409506D01*
X69560912Y-80408648D01*
X69450000Y-80391081D01*
X69339088Y-80408648D01*
X69337404Y-80409506D01*
X69240716Y-80458770D01*
X69240714Y-80458772D01*
X69239033Y-80459628D01*
X69159628Y-80539033D01*
X69158772Y-80540714D01*
X69158770Y-80540716D01*
X69122146Y-80612596D01*
X69108648Y-80639088D01*
X69091081Y-80750000D01*
X69091376Y-80751863D01*
X69092023Y-80755946D01*
X69108648Y-80860912D01*
X69109506Y-80862596D01*
X69158547Y-80958845D01*
X69159628Y-80960967D01*
X69234930Y-81036269D01*
X69241959Y-81053240D01*
X69234930Y-81070211D01*
X69228858Y-81074622D01*
X69219033Y-81079628D01*
X69139628Y-81159033D01*
X69138772Y-81160714D01*
X69138770Y-81160716D01*
X69096823Y-81243043D01*
X69088648Y-81259088D01*
X69083639Y-81290716D01*
X69073061Y-81357502D01*
X69071081Y-81370000D01*
X67200500Y-81370000D01*
X67200500Y-77750000D01*
X69269196Y-77750000D01*
X69290281Y-77883126D01*
X69291139Y-77884810D01*
X69349682Y-77999706D01*
X69351472Y-78003220D01*
X69446780Y-78098528D01*
X69448461Y-78099384D01*
X69448463Y-78099386D01*
X69534204Y-78143073D01*
X69566874Y-78159719D01*
X69700000Y-78180804D01*
X69833126Y-78159719D01*
X69865796Y-78143073D01*
X69951537Y-78099386D01*
X69951539Y-78099384D01*
X69953220Y-78098528D01*
X70048528Y-78003220D01*
X70050319Y-77999706D01*
X70101121Y-77900000D01*
X74691081Y-77900000D01*
X74691376Y-77901863D01*
X74692392Y-77908278D01*
X74708648Y-78010912D01*
X74709506Y-78012596D01*
X74756165Y-78104170D01*
X74759628Y-78110967D01*
X74839033Y-78190372D01*
X74840714Y-78191228D01*
X74840716Y-78191230D01*
X74914965Y-78229061D01*
X74939088Y-78241352D01*
X75050000Y-78258919D01*
X75160912Y-78241352D01*
X75185035Y-78229061D01*
X75259284Y-78191230D01*
X75259286Y-78191228D01*
X75260967Y-78190372D01*
X75340372Y-78110967D01*
X75343836Y-78104170D01*
X75390494Y-78012596D01*
X75391352Y-78010912D01*
X75407608Y-77908278D01*
X75408624Y-77901863D01*
X75408919Y-77900000D01*
X75407173Y-77888973D01*
X75403368Y-77864955D01*
X75391352Y-77789088D01*
X75381775Y-77770291D01*
X75341230Y-77690716D01*
X75341228Y-77690714D01*
X75340372Y-77689033D01*
X75260967Y-77609628D01*
X75259286Y-77608772D01*
X75259284Y-77608770D01*
X75162596Y-77559506D01*
X75160912Y-77558648D01*
X75050000Y-77541081D01*
X74939088Y-77558648D01*
X74937404Y-77559506D01*
X74840716Y-77608770D01*
X74840714Y-77608772D01*
X74839033Y-77609628D01*
X74759628Y-77689033D01*
X74758772Y-77690714D01*
X74758770Y-77690716D01*
X74718225Y-77770291D01*
X74708648Y-77789088D01*
X74696632Y-77864955D01*
X74692828Y-77888973D01*
X74691081Y-77900000D01*
X70101121Y-77900000D01*
X70108861Y-77884810D01*
X70109719Y-77883126D01*
X70130804Y-77750000D01*
X70109719Y-77616874D01*
X70100867Y-77599500D01*
X70049385Y-77498462D01*
X70048528Y-77496780D01*
X69953220Y-77401472D01*
X69951539Y-77400616D01*
X69951537Y-77400614D01*
X69834810Y-77341139D01*
X69833126Y-77340281D01*
X69700000Y-77319196D01*
X69566874Y-77340281D01*
X69565190Y-77341139D01*
X69448463Y-77400614D01*
X69448461Y-77400616D01*
X69446780Y-77401472D01*
X69351472Y-77496780D01*
X69350615Y-77498462D01*
X69299134Y-77599500D01*
X69290281Y-77616874D01*
X69269196Y-77750000D01*
X67200500Y-77750000D01*
X67200500Y-76895750D01*
X69836831Y-76895750D01*
X69837126Y-76897613D01*
X69838022Y-76903270D01*
X69854398Y-77006662D01*
X69855256Y-77008346D01*
X69903675Y-77103374D01*
X69905378Y-77106717D01*
X69984783Y-77186122D01*
X69986464Y-77186978D01*
X69986466Y-77186980D01*
X70083154Y-77236244D01*
X70084838Y-77237102D01*
X70176718Y-77251655D01*
X70186242Y-77253163D01*
X70195750Y-77254669D01*
X70205259Y-77253163D01*
X70214782Y-77251655D01*
X70306662Y-77237102D01*
X70308346Y-77236244D01*
X70405034Y-77186980D01*
X70405036Y-77186978D01*
X70406717Y-77186122D01*
X70486122Y-77106717D01*
X70487826Y-77103374D01*
X70536244Y-77008346D01*
X70537102Y-77006662D01*
X70553478Y-76903270D01*
X70554374Y-76897613D01*
X70554669Y-76895750D01*
X70553720Y-76889755D01*
X70547547Y-76850785D01*
X70537102Y-76784838D01*
X70523308Y-76757765D01*
X70519352Y-76750000D01*
X73891081Y-76750000D01*
X73891376Y-76751863D01*
X73891665Y-76753689D01*
X73908648Y-76860912D01*
X73909506Y-76862596D01*
X73954832Y-76951554D01*
X73959628Y-76960967D01*
X74039033Y-77040372D01*
X74040714Y-77041228D01*
X74040716Y-77041230D01*
X74125752Y-77084557D01*
X74139088Y-77091352D01*
X74230968Y-77105905D01*
X74244520Y-77108051D01*
X74250000Y-77108919D01*
X74255481Y-77108051D01*
X74269032Y-77105905D01*
X74360912Y-77091352D01*
X74374248Y-77084557D01*
X74459284Y-77041230D01*
X74459286Y-77041228D01*
X74460967Y-77040372D01*
X74540372Y-76960967D01*
X74545169Y-76951554D01*
X74590494Y-76862596D01*
X74591352Y-76860912D01*
X74608335Y-76753689D01*
X74608624Y-76751863D01*
X74608919Y-76750000D01*
X74591352Y-76639088D01*
X74573012Y-76603093D01*
X74541230Y-76540716D01*
X74541228Y-76540714D01*
X74540372Y-76539033D01*
X74460967Y-76459628D01*
X74459286Y-76458772D01*
X74459284Y-76458770D01*
X74362596Y-76409506D01*
X74360912Y-76408648D01*
X74250000Y-76391081D01*
X74139088Y-76408648D01*
X74137404Y-76409506D01*
X74040716Y-76458770D01*
X74040714Y-76458772D01*
X74039033Y-76459628D01*
X73959628Y-76539033D01*
X73958772Y-76540714D01*
X73958770Y-76540716D01*
X73926988Y-76603093D01*
X73908648Y-76639088D01*
X73891081Y-76750000D01*
X70519352Y-76750000D01*
X70486980Y-76686466D01*
X70486978Y-76686464D01*
X70486122Y-76684783D01*
X70406717Y-76605378D01*
X70405036Y-76604522D01*
X70405034Y-76604520D01*
X70308346Y-76555256D01*
X70306662Y-76554398D01*
X70209653Y-76539033D01*
X70197613Y-76537126D01*
X70195750Y-76536831D01*
X70193887Y-76537126D01*
X70181847Y-76539033D01*
X70084838Y-76554398D01*
X70083154Y-76555256D01*
X69986466Y-76604520D01*
X69986464Y-76604522D01*
X69984783Y-76605378D01*
X69905378Y-76684783D01*
X69904522Y-76686464D01*
X69904520Y-76686466D01*
X69868192Y-76757765D01*
X69854398Y-76784838D01*
X69843953Y-76850785D01*
X69837781Y-76889755D01*
X69836831Y-76895750D01*
X67200500Y-76895750D01*
X67200500Y-76338753D01*
X77794514Y-76338753D01*
X77794645Y-76340089D01*
X77794645Y-76340093D01*
X77795333Y-76347109D01*
X77795617Y-76350000D01*
X77812039Y-76517486D01*
X77831244Y-76575220D01*
X77866481Y-76681146D01*
X77868726Y-76687896D01*
X77961759Y-76841512D01*
X77999301Y-76880388D01*
X78046951Y-76929730D01*
X78086514Y-76970699D01*
X78108989Y-76985406D01*
X78184566Y-77034862D01*
X78236789Y-77069036D01*
X78238046Y-77069503D01*
X78238045Y-77069503D01*
X78403857Y-77131168D01*
X78403859Y-77131168D01*
X78405116Y-77131636D01*
X78583130Y-77155388D01*
X78761981Y-77139112D01*
X78932782Y-77083615D01*
X78933933Y-77082929D01*
X78933935Y-77082928D01*
X79036307Y-77021902D01*
X79087044Y-76991657D01*
X79088013Y-76990734D01*
X79088016Y-76990732D01*
X79216126Y-76868734D01*
X79216128Y-76868732D01*
X79217099Y-76867807D01*
X79316483Y-76718222D01*
X79316960Y-76716967D01*
X79379781Y-76551590D01*
X79379782Y-76551587D01*
X79380257Y-76550336D01*
X79405251Y-76372493D01*
X79405275Y-76370772D01*
X79405555Y-76350752D01*
X79405555Y-76350744D01*
X79405565Y-76350000D01*
X79405222Y-76346936D01*
X79385696Y-76172864D01*
X79385696Y-76172863D01*
X79385546Y-76171528D01*
X79384375Y-76168164D01*
X79326928Y-76003198D01*
X79326927Y-76003195D01*
X79326485Y-76001927D01*
X79231316Y-75849625D01*
X79168744Y-75786615D01*
X79105717Y-75723146D01*
X79105714Y-75723144D01*
X79104770Y-75722193D01*
X78953136Y-75625963D01*
X78951875Y-75625514D01*
X78951871Y-75625512D01*
X78863078Y-75593895D01*
X78783951Y-75565719D01*
X78713424Y-75557309D01*
X78606953Y-75544613D01*
X78606949Y-75544613D01*
X78605624Y-75544455D01*
X78427017Y-75563227D01*
X78339296Y-75593090D01*
X78258278Y-75620670D01*
X78258276Y-75620671D01*
X78257007Y-75621103D01*
X78104045Y-75715206D01*
X78103087Y-75716145D01*
X78103086Y-75716145D01*
X78086287Y-75732596D01*
X77975732Y-75840859D01*
X77975009Y-75841980D01*
X77975008Y-75841982D01*
X77904398Y-75951548D01*
X77878446Y-75991817D01*
X77817022Y-76160578D01*
X77816855Y-76161904D01*
X77816854Y-76161906D01*
X77794690Y-76337363D01*
X77794514Y-76338753D01*
X67200500Y-76338753D01*
X67200500Y-75620000D01*
X67878581Y-75620000D01*
X67896148Y-75730912D01*
X67897006Y-75732596D01*
X67943686Y-75824211D01*
X67947128Y-75830967D01*
X68026533Y-75910372D01*
X68028214Y-75911228D01*
X68028216Y-75911230D01*
X68107346Y-75951548D01*
X68126588Y-75961352D01*
X68214607Y-75975293D01*
X68232323Y-75978099D01*
X68237500Y-75978919D01*
X68242678Y-75978099D01*
X68260393Y-75975293D01*
X68348412Y-75961352D01*
X68367654Y-75951548D01*
X68446784Y-75911230D01*
X68446786Y-75911228D01*
X68448467Y-75910372D01*
X68458839Y-75900000D01*
X69241081Y-75900000D01*
X69241376Y-75901863D01*
X69242587Y-75909506D01*
X69258648Y-76010912D01*
X69259506Y-76012596D01*
X69306601Y-76105026D01*
X69309628Y-76110967D01*
X69389033Y-76190372D01*
X69390714Y-76191228D01*
X69390716Y-76191230D01*
X69486203Y-76239882D01*
X69489088Y-76241352D01*
X69600000Y-76258919D01*
X69710912Y-76241352D01*
X69713797Y-76239882D01*
X69809284Y-76191230D01*
X69809286Y-76191228D01*
X69810967Y-76190372D01*
X69890372Y-76110967D01*
X69893400Y-76105026D01*
X69940494Y-76012596D01*
X69941352Y-76010912D01*
X69957413Y-75909506D01*
X69958624Y-75901863D01*
X69958919Y-75900000D01*
X69941352Y-75789088D01*
X69940494Y-75787404D01*
X69891230Y-75690716D01*
X69891228Y-75690714D01*
X69890372Y-75689033D01*
X69810967Y-75609628D01*
X69809286Y-75608772D01*
X69809284Y-75608770D01*
X69712596Y-75559506D01*
X69710912Y-75558648D01*
X69600000Y-75541081D01*
X69489088Y-75558648D01*
X69487404Y-75559506D01*
X69390716Y-75608770D01*
X69390714Y-75608772D01*
X69389033Y-75609628D01*
X69309628Y-75689033D01*
X69308772Y-75690714D01*
X69308770Y-75690716D01*
X69259506Y-75787404D01*
X69258648Y-75789088D01*
X69241081Y-75900000D01*
X68458839Y-75900000D01*
X68527872Y-75830967D01*
X68531315Y-75824211D01*
X68577994Y-75732596D01*
X68578852Y-75730912D01*
X68596419Y-75620000D01*
X68594988Y-75610962D01*
X68590295Y-75581337D01*
X68578852Y-75509088D01*
X68547801Y-75448146D01*
X68528730Y-75410716D01*
X68528728Y-75410714D01*
X68527872Y-75409033D01*
X68448467Y-75329628D01*
X68446786Y-75328772D01*
X68446784Y-75328770D01*
X68350096Y-75279506D01*
X68348412Y-75278648D01*
X68237500Y-75261081D01*
X68126588Y-75278648D01*
X68124904Y-75279506D01*
X68028216Y-75328770D01*
X68028214Y-75328772D01*
X68026533Y-75329628D01*
X67947128Y-75409033D01*
X67946272Y-75410714D01*
X67946270Y-75410716D01*
X67927199Y-75448146D01*
X67896148Y-75509088D01*
X67884705Y-75581337D01*
X67880013Y-75610962D01*
X67878581Y-75620000D01*
X67200500Y-75620000D01*
X67200500Y-75414061D01*
X67205948Y-75398836D01*
X67249580Y-75345670D01*
X67291396Y-75294717D01*
X67294717Y-75291396D01*
X67398836Y-75205948D01*
X67414061Y-75200500D01*
X85479177Y-75200500D01*
X85496148Y-75207529D01*
X85503177Y-75224500D01*
X85496148Y-75241471D01*
X85490073Y-75245884D01*
X85415716Y-75283770D01*
X85415714Y-75283772D01*
X85414033Y-75284628D01*
X85334628Y-75364033D01*
X85333772Y-75365714D01*
X85333770Y-75365716D01*
X85295816Y-75440206D01*
X85283648Y-75464088D01*
X85266081Y-75575000D01*
X85283648Y-75685912D01*
X85284506Y-75687596D01*
X85331752Y-75780322D01*
X85334628Y-75785967D01*
X85414033Y-75865372D01*
X85415714Y-75866228D01*
X85415716Y-75866230D01*
X85478880Y-75898413D01*
X85514088Y-75916352D01*
X85625000Y-75933919D01*
X85735912Y-75916352D01*
X85771120Y-75898413D01*
X85834284Y-75866230D01*
X85834286Y-75866228D01*
X85835967Y-75865372D01*
X85915372Y-75785967D01*
X85918249Y-75780322D01*
X85965494Y-75687596D01*
X85966352Y-75685912D01*
X85983919Y-75575000D01*
X85966352Y-75464088D01*
X85954184Y-75440206D01*
X85916230Y-75365716D01*
X85916228Y-75365714D01*
X85915372Y-75364033D01*
X85835967Y-75284628D01*
X85834286Y-75283772D01*
X85834284Y-75283770D01*
X85759927Y-75245884D01*
X85747998Y-75231916D01*
X85749439Y-75213604D01*
X85763407Y-75201675D01*
X85770823Y-75200500D01*
X86576000Y-75200500D01*
X86592971Y-75207529D01*
X86600000Y-75224500D01*
X86600000Y-79119204D01*
X93600000Y-79119204D01*
X93600000Y-78450000D01*
X98205530Y-78450000D01*
X98206927Y-78453374D01*
X98396626Y-78643073D01*
X98400000Y-78644470D01*
X98403374Y-78643073D01*
X98593073Y-78453374D01*
X98594470Y-78450000D01*
X99405530Y-78450000D01*
X99406927Y-78453374D01*
X99596626Y-78643073D01*
X99600000Y-78644470D01*
X99603374Y-78643073D01*
X99793073Y-78453374D01*
X99794470Y-78450000D01*
X100805530Y-78450000D01*
X100806927Y-78453374D01*
X100996626Y-78643073D01*
X101000000Y-78644470D01*
X101003374Y-78643073D01*
X101193073Y-78453374D01*
X101194470Y-78450000D01*
X102005530Y-78450000D01*
X102006927Y-78453374D01*
X102196626Y-78643073D01*
X102200000Y-78644470D01*
X102203374Y-78643073D01*
X102307408Y-78539039D01*
X106844440Y-78539039D01*
X106862007Y-78649951D01*
X106862865Y-78651635D01*
X106908590Y-78741376D01*
X106912987Y-78750006D01*
X106992392Y-78829411D01*
X106994073Y-78830267D01*
X106994075Y-78830269D01*
X107090763Y-78879533D01*
X107092447Y-78880391D01*
X107203359Y-78897958D01*
X107314271Y-78880391D01*
X107315955Y-78879533D01*
X107412643Y-78830269D01*
X107412645Y-78830267D01*
X107414326Y-78829411D01*
X107493731Y-78750006D01*
X107498129Y-78741376D01*
X107519211Y-78700000D01*
X113369196Y-78700000D01*
X113390281Y-78833126D01*
X113391139Y-78834810D01*
X113449528Y-78949404D01*
X113451472Y-78953220D01*
X113546780Y-79048528D01*
X113548461Y-79049384D01*
X113548463Y-79049386D01*
X113644143Y-79098137D01*
X113666874Y-79109719D01*
X113778505Y-79127400D01*
X113779929Y-79127625D01*
X113800000Y-79130804D01*
X113820072Y-79127625D01*
X113821495Y-79127400D01*
X113933126Y-79109719D01*
X113955857Y-79098137D01*
X114051537Y-79049386D01*
X114051539Y-79049384D01*
X114053220Y-79048528D01*
X114148528Y-78953220D01*
X114150473Y-78949404D01*
X114208861Y-78834810D01*
X114209719Y-78833126D01*
X114230804Y-78700000D01*
X114209719Y-78566874D01*
X114182281Y-78513023D01*
X114149386Y-78448463D01*
X114149384Y-78448461D01*
X114148528Y-78446780D01*
X114053220Y-78351472D01*
X114051539Y-78350616D01*
X114051537Y-78350614D01*
X113934810Y-78291139D01*
X113933126Y-78290281D01*
X113800000Y-78269196D01*
X113666874Y-78290281D01*
X113665190Y-78291139D01*
X113548463Y-78350614D01*
X113548461Y-78350616D01*
X113546780Y-78351472D01*
X113451472Y-78446780D01*
X113450616Y-78448461D01*
X113450614Y-78448463D01*
X113417719Y-78513023D01*
X113390281Y-78566874D01*
X113369196Y-78700000D01*
X107519211Y-78700000D01*
X107543853Y-78651635D01*
X107544711Y-78649951D01*
X107562278Y-78539039D01*
X107544711Y-78428127D01*
X107533383Y-78405894D01*
X107494589Y-78329755D01*
X107494587Y-78329753D01*
X107493731Y-78328072D01*
X107414326Y-78248667D01*
X107412645Y-78247811D01*
X107412643Y-78247809D01*
X107315955Y-78198545D01*
X107314271Y-78197687D01*
X107203359Y-78180120D01*
X107092447Y-78197687D01*
X107090763Y-78198545D01*
X106994075Y-78247809D01*
X106994073Y-78247811D01*
X106992392Y-78248667D01*
X106912987Y-78328072D01*
X106912131Y-78329753D01*
X106912129Y-78329755D01*
X106873335Y-78405894D01*
X106862007Y-78428127D01*
X106844440Y-78539039D01*
X102307408Y-78539039D01*
X102393073Y-78453374D01*
X102394470Y-78450000D01*
X102393073Y-78446626D01*
X102203374Y-78256927D01*
X102200000Y-78255530D01*
X102196626Y-78256927D01*
X102006927Y-78446626D01*
X102005530Y-78450000D01*
X101194470Y-78450000D01*
X101193073Y-78446626D01*
X101003374Y-78256927D01*
X101000000Y-78255530D01*
X100996626Y-78256927D01*
X100806927Y-78446626D01*
X100805530Y-78450000D01*
X99794470Y-78450000D01*
X99793073Y-78446626D01*
X99603374Y-78256927D01*
X99600000Y-78255530D01*
X99596626Y-78256927D01*
X99406927Y-78446626D01*
X99405530Y-78450000D01*
X98594470Y-78450000D01*
X98593073Y-78446626D01*
X98403374Y-78256927D01*
X98400000Y-78255530D01*
X98396626Y-78256927D01*
X98206927Y-78446626D01*
X98205530Y-78450000D01*
X93600000Y-78450000D01*
X93600000Y-77550000D01*
X93741081Y-77550000D01*
X93758648Y-77660912D01*
X93759506Y-77662596D01*
X93807933Y-77757640D01*
X93809628Y-77760967D01*
X93889033Y-77840372D01*
X93890714Y-77841228D01*
X93890716Y-77841230D01*
X93982543Y-77888017D01*
X93989088Y-77891352D01*
X94064991Y-77903374D01*
X94087531Y-77906944D01*
X94100000Y-77908919D01*
X94112470Y-77906944D01*
X94135009Y-77903374D01*
X94210912Y-77891352D01*
X94212209Y-77890691D01*
X97637409Y-77890691D01*
X97653742Y-78057255D01*
X97654297Y-78059868D01*
X97707128Y-78218685D01*
X97708244Y-78221101D01*
X97712222Y-78227668D01*
X97715167Y-78229832D01*
X97716877Y-78229570D01*
X98043073Y-77903374D01*
X98044470Y-77900000D01*
X98755530Y-77900000D01*
X98756927Y-77903374D01*
X98996626Y-78143073D01*
X99000000Y-78144470D01*
X99003374Y-78143073D01*
X99243073Y-77903374D01*
X99244470Y-77900000D01*
X99955530Y-77900000D01*
X99956927Y-77903374D01*
X100281616Y-78228063D01*
X100284989Y-78229460D01*
X100291470Y-78226776D01*
X100309838Y-78226777D01*
X100314861Y-78229607D01*
X100315167Y-78229832D01*
X100316877Y-78229570D01*
X100643073Y-77903374D01*
X100644470Y-77900000D01*
X101355530Y-77900000D01*
X101356927Y-77903374D01*
X101596626Y-78143073D01*
X101600000Y-78144470D01*
X101603374Y-78143073D01*
X101843073Y-77903374D01*
X101844470Y-77900000D01*
X102555530Y-77900000D01*
X102556927Y-77903374D01*
X102881616Y-78228063D01*
X102884990Y-78229460D01*
X102885870Y-78229096D01*
X102885893Y-78229061D01*
X102938355Y-78090954D01*
X102939018Y-78088368D01*
X102962393Y-77922053D01*
X102962510Y-77920544D01*
X102962786Y-77900752D01*
X102962712Y-77899247D01*
X102943990Y-77732340D01*
X102943399Y-77729737D01*
X102888357Y-77571679D01*
X102888111Y-77571165D01*
X102885635Y-77569400D01*
X102883855Y-77569698D01*
X102556927Y-77896626D01*
X102555530Y-77900000D01*
X101844470Y-77900000D01*
X101843073Y-77896626D01*
X101603374Y-77656927D01*
X101600000Y-77655530D01*
X101596626Y-77656927D01*
X101356927Y-77896626D01*
X101355530Y-77900000D01*
X100644470Y-77900000D01*
X100643073Y-77896626D01*
X100303374Y-77556927D01*
X100300000Y-77555530D01*
X100296626Y-77556927D01*
X99956927Y-77896626D01*
X99955530Y-77900000D01*
X99244470Y-77900000D01*
X99243073Y-77896626D01*
X99003374Y-77656927D01*
X99000000Y-77655530D01*
X98996626Y-77656927D01*
X98756927Y-77896626D01*
X98755530Y-77900000D01*
X98044470Y-77900000D01*
X98043073Y-77896626D01*
X97717601Y-77571154D01*
X97714227Y-77569757D01*
X97713431Y-77570087D01*
X97713330Y-77570245D01*
X97659048Y-77719381D01*
X97658425Y-77721960D01*
X97637446Y-77888017D01*
X97637409Y-77890691D01*
X94212209Y-77890691D01*
X94217457Y-77888017D01*
X94309284Y-77841230D01*
X94309286Y-77841228D01*
X94310967Y-77840372D01*
X94390372Y-77760967D01*
X94392068Y-77757640D01*
X94440494Y-77662596D01*
X94441352Y-77660912D01*
X94458919Y-77550000D01*
X94441352Y-77439088D01*
X94438083Y-77432672D01*
X94391230Y-77340716D01*
X94391228Y-77340714D01*
X94390372Y-77339033D01*
X94310967Y-77259628D01*
X94309286Y-77258772D01*
X94309284Y-77258770D01*
X94222943Y-77214778D01*
X98069796Y-77214778D01*
X98070075Y-77216522D01*
X98396626Y-77543073D01*
X98400000Y-77544470D01*
X98403374Y-77543073D01*
X98405578Y-77540869D01*
X98406975Y-77537495D01*
X98405578Y-77534121D01*
X98375923Y-77504466D01*
X98368894Y-77487495D01*
X98375923Y-77470524D01*
X98383942Y-77462505D01*
X100293025Y-77462505D01*
X100294422Y-77465879D01*
X100296626Y-77468083D01*
X100300000Y-77469480D01*
X100303374Y-77468083D01*
X100305578Y-77465879D01*
X100306975Y-77462505D01*
X100305578Y-77459131D01*
X100303374Y-77456927D01*
X100300000Y-77455530D01*
X100296626Y-77456927D01*
X100294422Y-77459131D01*
X100293025Y-77462505D01*
X98383942Y-77462505D01*
X98743073Y-77103374D01*
X98744470Y-77100000D01*
X99455530Y-77100000D01*
X99456927Y-77103374D01*
X99696626Y-77343073D01*
X99700000Y-77344470D01*
X99703374Y-77343073D01*
X99943073Y-77103374D01*
X99944470Y-77100000D01*
X100655530Y-77100000D01*
X100656927Y-77103374D01*
X100946626Y-77393073D01*
X100950000Y-77394470D01*
X100953374Y-77393073D01*
X101243073Y-77103374D01*
X101244470Y-77100000D01*
X101955530Y-77100000D01*
X101956927Y-77103374D01*
X102296626Y-77443073D01*
X102300000Y-77444470D01*
X102303374Y-77443073D01*
X102491421Y-77255026D01*
X104182393Y-77255026D01*
X104182688Y-77256889D01*
X104183709Y-77263333D01*
X104199960Y-77365938D01*
X104200818Y-77367622D01*
X104249163Y-77462505D01*
X104250940Y-77465993D01*
X104330345Y-77545398D01*
X104332026Y-77546254D01*
X104332028Y-77546256D01*
X104406373Y-77584136D01*
X104430400Y-77596378D01*
X104541312Y-77613945D01*
X104652224Y-77596378D01*
X104676251Y-77584136D01*
X104750596Y-77546256D01*
X104750598Y-77546254D01*
X104752279Y-77545398D01*
X104831684Y-77465993D01*
X104833462Y-77462505D01*
X104839833Y-77450000D01*
X105591081Y-77450000D01*
X105591376Y-77451863D01*
X105593494Y-77465234D01*
X105608648Y-77560912D01*
X105609506Y-77562596D01*
X105658650Y-77659047D01*
X105659628Y-77660967D01*
X105739033Y-77740372D01*
X105740714Y-77741228D01*
X105740716Y-77741230D01*
X105834645Y-77789088D01*
X105839088Y-77791352D01*
X105950000Y-77808919D01*
X106003407Y-77800460D01*
X106664010Y-77800460D01*
X106681577Y-77911372D01*
X106682435Y-77913056D01*
X106729418Y-78005266D01*
X106732557Y-78011427D01*
X106811962Y-78090832D01*
X106813643Y-78091688D01*
X106813645Y-78091690D01*
X106910333Y-78140954D01*
X106912017Y-78141812D01*
X106976606Y-78152042D01*
X107019659Y-78158861D01*
X107022929Y-78159379D01*
X107026200Y-78158861D01*
X107069252Y-78152042D01*
X107103485Y-78146620D01*
X116828515Y-78146620D01*
X116848361Y-78271924D01*
X116849219Y-78273608D01*
X116901424Y-78376065D01*
X116905957Y-78384962D01*
X116995665Y-78474670D01*
X116997346Y-78475526D01*
X116997348Y-78475528D01*
X117094125Y-78524838D01*
X117108703Y-78532266D01*
X117234007Y-78552112D01*
X117359311Y-78532266D01*
X117373889Y-78524838D01*
X117470666Y-78475528D01*
X117470668Y-78475526D01*
X117472349Y-78474670D01*
X117483930Y-78463089D01*
X125939794Y-78463089D01*
X125957361Y-78574001D01*
X125958219Y-78575685D01*
X126007130Y-78671679D01*
X126008341Y-78674056D01*
X126087746Y-78753461D01*
X126089427Y-78754317D01*
X126089429Y-78754319D01*
X126161329Y-78790953D01*
X126187801Y-78804441D01*
X126298713Y-78822008D01*
X126409625Y-78804441D01*
X126436097Y-78790953D01*
X126507997Y-78754319D01*
X126507999Y-78754317D01*
X126509680Y-78753461D01*
X126589085Y-78674056D01*
X126590297Y-78671679D01*
X126627329Y-78598997D01*
X126641296Y-78587068D01*
X126659609Y-78588509D01*
X126670097Y-78598997D01*
X126707130Y-78671679D01*
X126708341Y-78674056D01*
X126787746Y-78753461D01*
X126789427Y-78754317D01*
X126789429Y-78754319D01*
X126861329Y-78790953D01*
X126887801Y-78804441D01*
X126998713Y-78822008D01*
X127109625Y-78804441D01*
X127136097Y-78790953D01*
X127207997Y-78754319D01*
X127207999Y-78754317D01*
X127209680Y-78753461D01*
X127289085Y-78674056D01*
X127290297Y-78671679D01*
X127339207Y-78575685D01*
X127340065Y-78574001D01*
X127357632Y-78463089D01*
X127351358Y-78423477D01*
X130851037Y-78423477D01*
X130869626Y-78565633D01*
X130927366Y-78696857D01*
X131019616Y-78806602D01*
X131021040Y-78807550D01*
X131070615Y-78840550D01*
X131138959Y-78886044D01*
X131140585Y-78886552D01*
X131140587Y-78886553D01*
X131274173Y-78928287D01*
X131274175Y-78928287D01*
X131275803Y-78928796D01*
X131343389Y-78930035D01*
X131417436Y-78931393D01*
X131417438Y-78931393D01*
X131419145Y-78931424D01*
X131476453Y-78915800D01*
X131494674Y-78918118D01*
X131505920Y-78932642D01*
X131504490Y-78949155D01*
X131486414Y-78987655D01*
X131464358Y-79129315D01*
X131482947Y-79271471D01*
X131540687Y-79402695D01*
X131632937Y-79512440D01*
X131634361Y-79513388D01*
X131676814Y-79541647D01*
X131752280Y-79591882D01*
X131753906Y-79592390D01*
X131753908Y-79592391D01*
X131887494Y-79634125D01*
X131887496Y-79634125D01*
X131889124Y-79634634D01*
X131956710Y-79635873D01*
X132030757Y-79637231D01*
X132030759Y-79637231D01*
X132032466Y-79637262D01*
X132123644Y-79612404D01*
X132169138Y-79600001D01*
X132169140Y-79600000D01*
X132170784Y-79599552D01*
X132292958Y-79524537D01*
X132300943Y-79515716D01*
X132341946Y-79470415D01*
X132389167Y-79418246D01*
X132451677Y-79289225D01*
X132475463Y-79147846D01*
X132475614Y-79135492D01*
X132472431Y-79113266D01*
X146682142Y-79113266D01*
X146700731Y-79255422D01*
X146758471Y-79386646D01*
X146850721Y-79496391D01*
X146852145Y-79497339D01*
X146872866Y-79511132D01*
X146970064Y-79575833D01*
X146971690Y-79576341D01*
X146971692Y-79576342D01*
X147105278Y-79618076D01*
X147105280Y-79618076D01*
X147106908Y-79618585D01*
X147174494Y-79619824D01*
X147248541Y-79621182D01*
X147248543Y-79621182D01*
X147250250Y-79621213D01*
X147342807Y-79595979D01*
X147386922Y-79583952D01*
X147386924Y-79583951D01*
X147388568Y-79583503D01*
X147510742Y-79508488D01*
X147520834Y-79497339D01*
X147569740Y-79443307D01*
X147606951Y-79402197D01*
X147669461Y-79273176D01*
X147693247Y-79131797D01*
X147693398Y-79119443D01*
X147687219Y-79076299D01*
X147673316Y-78979213D01*
X147673315Y-78979211D01*
X147673074Y-78977525D01*
X147613735Y-78847015D01*
X147520151Y-78738406D01*
X147516138Y-78735805D01*
X154905031Y-78735805D01*
X154922598Y-78846717D01*
X154923456Y-78848401D01*
X154972484Y-78944624D01*
X154973578Y-78946772D01*
X155052983Y-79026177D01*
X155054664Y-79027033D01*
X155054666Y-79027035D01*
X155151354Y-79076299D01*
X155153038Y-79077157D01*
X155240141Y-79090953D01*
X155260099Y-79094114D01*
X155263950Y-79094724D01*
X155267802Y-79094114D01*
X155287759Y-79090953D01*
X155374862Y-79077157D01*
X155376546Y-79076299D01*
X155473234Y-79027035D01*
X155473236Y-79027033D01*
X155474917Y-79026177D01*
X155554322Y-78946772D01*
X155555417Y-78944624D01*
X155604444Y-78848401D01*
X155605302Y-78846717D01*
X155622869Y-78735805D01*
X155605302Y-78624893D01*
X155602271Y-78618944D01*
X155555180Y-78526521D01*
X155555178Y-78526519D01*
X155554322Y-78524838D01*
X155474917Y-78445433D01*
X155473236Y-78444577D01*
X155473234Y-78444575D01*
X155376546Y-78395311D01*
X155374862Y-78394453D01*
X155263950Y-78376886D01*
X155153038Y-78394453D01*
X155151354Y-78395311D01*
X155054666Y-78444575D01*
X155054664Y-78444577D01*
X155052983Y-78445433D01*
X154973578Y-78524838D01*
X154972722Y-78526519D01*
X154972720Y-78526521D01*
X154925629Y-78618944D01*
X154922598Y-78624893D01*
X154905031Y-78735805D01*
X147516138Y-78735805D01*
X147399846Y-78660428D01*
X147262490Y-78619350D01*
X147193277Y-78618927D01*
X147120837Y-78618484D01*
X147120834Y-78618484D01*
X147119127Y-78618474D01*
X147117484Y-78618944D01*
X147117481Y-78618944D01*
X147003099Y-78651635D01*
X146981280Y-78657871D01*
X146860031Y-78734373D01*
X146858903Y-78735651D01*
X146858901Y-78735652D01*
X146766259Y-78840550D01*
X146765128Y-78841831D01*
X146764403Y-78843376D01*
X146764402Y-78843377D01*
X146756772Y-78859628D01*
X146704198Y-78971606D01*
X146692145Y-79049021D01*
X146684498Y-79098137D01*
X146682142Y-79113266D01*
X132472431Y-79113266D01*
X132465127Y-79062262D01*
X132455532Y-78995262D01*
X132455531Y-78995260D01*
X132455290Y-78993574D01*
X132395951Y-78863064D01*
X132302367Y-78754455D01*
X132182062Y-78676477D01*
X132093900Y-78650111D01*
X141010939Y-78650111D01*
X141028506Y-78761023D01*
X141029364Y-78762707D01*
X141078248Y-78858648D01*
X141079486Y-78861078D01*
X141158891Y-78940483D01*
X141160572Y-78941339D01*
X141160574Y-78941341D01*
X141248436Y-78986108D01*
X141258946Y-78991463D01*
X141369858Y-79009030D01*
X141480770Y-78991463D01*
X141491280Y-78986108D01*
X141579142Y-78941341D01*
X141579144Y-78941339D01*
X141580825Y-78940483D01*
X141660230Y-78861078D01*
X141661469Y-78858648D01*
X141710352Y-78762707D01*
X141711210Y-78761023D01*
X141728777Y-78650111D01*
X141727037Y-78639122D01*
X141716427Y-78572136D01*
X141711210Y-78539199D01*
X141707828Y-78532561D01*
X141661088Y-78440827D01*
X141661086Y-78440825D01*
X141660230Y-78439144D01*
X141580825Y-78359739D01*
X141579144Y-78358883D01*
X141579142Y-78358881D01*
X141482454Y-78309617D01*
X141480770Y-78308759D01*
X141369858Y-78291192D01*
X141258946Y-78308759D01*
X141257262Y-78309617D01*
X141160574Y-78358881D01*
X141160572Y-78358883D01*
X141158891Y-78359739D01*
X141079486Y-78439144D01*
X141078630Y-78440825D01*
X141078628Y-78440827D01*
X141031888Y-78532561D01*
X141028506Y-78539199D01*
X141023289Y-78572136D01*
X141012680Y-78639122D01*
X141010939Y-78650111D01*
X132093900Y-78650111D01*
X132044706Y-78635399D01*
X131975493Y-78634976D01*
X131903053Y-78634533D01*
X131903050Y-78634533D01*
X131901343Y-78634523D01*
X131899700Y-78634993D01*
X131899697Y-78634993D01*
X131851062Y-78648893D01*
X131832813Y-78646798D01*
X131821391Y-78632412D01*
X131822869Y-78615352D01*
X131837608Y-78584931D01*
X131838356Y-78583387D01*
X131862142Y-78442008D01*
X131862293Y-78429654D01*
X131847987Y-78329755D01*
X131842211Y-78289424D01*
X131842210Y-78289422D01*
X131841969Y-78287736D01*
X131782630Y-78157226D01*
X131760210Y-78131206D01*
X138168445Y-78131206D01*
X138187034Y-78273362D01*
X138244774Y-78404586D01*
X138337024Y-78514331D01*
X138338448Y-78515279D01*
X138374142Y-78539039D01*
X138456367Y-78593773D01*
X138457993Y-78594281D01*
X138457995Y-78594282D01*
X138591581Y-78636016D01*
X138591583Y-78636016D01*
X138593211Y-78636525D01*
X138660797Y-78637764D01*
X138734844Y-78639122D01*
X138734846Y-78639122D01*
X138736553Y-78639153D01*
X138847996Y-78608770D01*
X138873225Y-78601892D01*
X138873227Y-78601891D01*
X138874871Y-78601443D01*
X138997045Y-78526428D01*
X139003406Y-78519401D01*
X139063170Y-78453374D01*
X139093254Y-78420137D01*
X139155764Y-78291116D01*
X139179550Y-78149737D01*
X139179623Y-78143803D01*
X139179690Y-78138317D01*
X139179690Y-78138312D01*
X139179701Y-78137383D01*
X139166856Y-78047688D01*
X139159619Y-77997153D01*
X139159618Y-77997151D01*
X139159377Y-77995465D01*
X139100038Y-77864955D01*
X139006454Y-77756346D01*
X138902181Y-77688759D01*
X138887587Y-77679300D01*
X138886149Y-77678368D01*
X138748793Y-77637290D01*
X138679580Y-77636867D01*
X138607140Y-77636424D01*
X138607137Y-77636424D01*
X138605430Y-77636414D01*
X138603787Y-77636884D01*
X138603784Y-77636884D01*
X138519143Y-77661075D01*
X138467583Y-77675811D01*
X138346334Y-77752313D01*
X138345206Y-77753591D01*
X138345204Y-77753592D01*
X138252683Y-77858353D01*
X138251431Y-77859771D01*
X138250706Y-77861316D01*
X138250705Y-77861317D01*
X138248997Y-77864955D01*
X138190501Y-77989546D01*
X138181304Y-78048617D01*
X138174598Y-78091690D01*
X138168445Y-78131206D01*
X131760210Y-78131206D01*
X131689046Y-78048617D01*
X131596078Y-77988358D01*
X131585661Y-77973229D01*
X131588993Y-77955165D01*
X131598236Y-77946835D01*
X131662946Y-77913864D01*
X131662948Y-77913862D01*
X131664629Y-77913006D01*
X131744034Y-77833601D01*
X131756761Y-77808624D01*
X131794156Y-77735230D01*
X131795014Y-77733546D01*
X131812581Y-77622634D01*
X131795014Y-77511722D01*
X131793744Y-77509230D01*
X131744892Y-77413350D01*
X131744890Y-77413348D01*
X131744034Y-77411667D01*
X131664629Y-77332262D01*
X131662948Y-77331406D01*
X131662946Y-77331404D01*
X131587388Y-77292906D01*
X140434352Y-77292906D01*
X140451919Y-77403818D01*
X140452777Y-77405502D01*
X140500400Y-77498968D01*
X140502899Y-77503873D01*
X140582304Y-77583278D01*
X140583985Y-77584134D01*
X140583987Y-77584136D01*
X140654947Y-77620291D01*
X140682359Y-77634258D01*
X140793271Y-77651825D01*
X140904183Y-77634258D01*
X140931595Y-77620291D01*
X141002555Y-77584136D01*
X141002557Y-77584134D01*
X141004238Y-77583278D01*
X141083643Y-77503873D01*
X141086143Y-77498968D01*
X141133765Y-77405502D01*
X141134623Y-77403818D01*
X141152190Y-77292906D01*
X141135694Y-77188753D01*
X143619514Y-77188753D01*
X143620617Y-77200000D01*
X143637039Y-77367486D01*
X143659208Y-77434129D01*
X143685640Y-77513587D01*
X143693726Y-77537896D01*
X143694420Y-77539042D01*
X143695655Y-77541081D01*
X143786759Y-77691512D01*
X143823673Y-77729737D01*
X143882450Y-77790602D01*
X143911514Y-77820699D01*
X143977172Y-77863664D01*
X144052651Y-77913056D01*
X144061789Y-77919036D01*
X144096726Y-77932029D01*
X144228857Y-77981168D01*
X144228859Y-77981168D01*
X144230116Y-77981636D01*
X144408130Y-78005388D01*
X144586981Y-77989112D01*
X144757782Y-77933615D01*
X144758933Y-77932929D01*
X144758935Y-77932928D01*
X144798523Y-77909329D01*
X145182458Y-77909329D01*
X145200025Y-78020241D01*
X145200883Y-78021925D01*
X145246252Y-78110967D01*
X145251005Y-78120296D01*
X145330410Y-78199701D01*
X145332091Y-78200557D01*
X145332093Y-78200559D01*
X145424828Y-78247809D01*
X145430465Y-78250681D01*
X145541377Y-78268248D01*
X145652289Y-78250681D01*
X145657926Y-78247809D01*
X145750661Y-78200559D01*
X145750663Y-78200557D01*
X145752344Y-78199701D01*
X145831749Y-78120296D01*
X145836503Y-78110967D01*
X145881871Y-78021925D01*
X145882729Y-78020241D01*
X145885686Y-78001569D01*
X154198318Y-78001569D01*
X154198613Y-78003432D01*
X154200091Y-78012761D01*
X154215885Y-78112481D01*
X154216743Y-78114165D01*
X154264734Y-78208353D01*
X154266865Y-78212536D01*
X154346270Y-78291941D01*
X154347951Y-78292797D01*
X154347953Y-78292799D01*
X154415433Y-78327181D01*
X154446325Y-78342921D01*
X154557237Y-78360488D01*
X154668149Y-78342921D01*
X154699041Y-78327181D01*
X154766521Y-78292799D01*
X154766523Y-78292797D01*
X154768204Y-78291941D01*
X154847609Y-78212536D01*
X154849741Y-78208353D01*
X154897731Y-78114165D01*
X154898589Y-78112481D01*
X154914383Y-78012761D01*
X154915861Y-78003432D01*
X154916156Y-78001569D01*
X154898589Y-77890657D01*
X154882199Y-77858490D01*
X154848467Y-77792285D01*
X154848465Y-77792283D01*
X154847609Y-77790602D01*
X154768204Y-77711197D01*
X154766523Y-77710341D01*
X154766521Y-77710339D01*
X154669833Y-77661075D01*
X154668149Y-77660217D01*
X154557237Y-77642650D01*
X154446325Y-77660217D01*
X154444641Y-77661075D01*
X154347953Y-77710339D01*
X154347951Y-77710341D01*
X154346270Y-77711197D01*
X154266865Y-77790602D01*
X154266009Y-77792283D01*
X154266007Y-77792285D01*
X154232275Y-77858490D01*
X154215885Y-77890657D01*
X154198318Y-78001569D01*
X145885686Y-78001569D01*
X145900296Y-77909329D01*
X145899114Y-77901863D01*
X145896870Y-77887699D01*
X145882729Y-77798417D01*
X145877118Y-77787404D01*
X145832607Y-77700045D01*
X145832605Y-77700043D01*
X145831749Y-77698362D01*
X145752344Y-77618957D01*
X145750663Y-77618101D01*
X145750661Y-77618099D01*
X145653973Y-77568835D01*
X145652289Y-77567977D01*
X145541377Y-77550410D01*
X145430465Y-77567977D01*
X145428781Y-77568835D01*
X145332093Y-77618099D01*
X145332091Y-77618101D01*
X145330410Y-77618957D01*
X145251005Y-77698362D01*
X145250149Y-77700043D01*
X145250147Y-77700045D01*
X145205636Y-77787404D01*
X145200025Y-77798417D01*
X145185884Y-77887699D01*
X145183641Y-77901863D01*
X145182458Y-77909329D01*
X144798523Y-77909329D01*
X144875024Y-77863725D01*
X144912044Y-77841657D01*
X144913013Y-77840734D01*
X144913016Y-77840732D01*
X145041126Y-77718734D01*
X145041128Y-77718732D01*
X145042099Y-77717807D01*
X145141483Y-77568222D01*
X145144794Y-77559506D01*
X145204781Y-77401590D01*
X145204782Y-77401587D01*
X145205257Y-77400336D01*
X145230251Y-77222493D01*
X145230262Y-77221738D01*
X145230555Y-77200752D01*
X145230555Y-77200744D01*
X145230565Y-77200000D01*
X145230368Y-77198236D01*
X145210696Y-77022864D01*
X145210696Y-77022863D01*
X145210546Y-77021528D01*
X145210105Y-77020261D01*
X145209061Y-77017263D01*
X147415614Y-77017263D01*
X147432346Y-77145217D01*
X147484318Y-77263333D01*
X147530400Y-77318154D01*
X147550070Y-77341554D01*
X147567352Y-77362114D01*
X147674773Y-77433619D01*
X147709505Y-77444470D01*
X147796316Y-77471592D01*
X147796318Y-77471592D01*
X147797946Y-77472101D01*
X147858718Y-77473215D01*
X147925259Y-77474435D01*
X147925261Y-77474435D01*
X147926968Y-77474466D01*
X148036991Y-77444470D01*
X148049822Y-77440972D01*
X148049824Y-77440971D01*
X148051468Y-77440523D01*
X148161437Y-77373002D01*
X148171293Y-77362114D01*
X148211083Y-77318154D01*
X148248035Y-77277330D01*
X148304301Y-77161198D01*
X148304710Y-77158770D01*
X148317195Y-77084557D01*
X148325710Y-77033943D01*
X148325846Y-77022823D01*
X148317393Y-76963796D01*
X148307794Y-76896770D01*
X148307793Y-76896768D01*
X148307552Y-76895082D01*
X148254141Y-76777611D01*
X148181608Y-76693432D01*
X148171022Y-76681146D01*
X148171021Y-76681145D01*
X148169906Y-76679851D01*
X148073408Y-76617305D01*
X148063051Y-76610592D01*
X148063050Y-76610592D01*
X148061619Y-76609664D01*
X147937986Y-76572689D01*
X147875714Y-76572309D01*
X147810654Y-76571911D01*
X147810651Y-76571911D01*
X147808944Y-76571901D01*
X147807301Y-76572371D01*
X147807298Y-76572371D01*
X147699805Y-76603093D01*
X147684868Y-76607362D01*
X147575732Y-76676222D01*
X147574604Y-76677500D01*
X147574602Y-76677501D01*
X147491881Y-76771165D01*
X147490309Y-76772945D01*
X147489584Y-76774490D01*
X147489583Y-76774491D01*
X147481966Y-76790716D01*
X147435467Y-76889755D01*
X147431789Y-76913379D01*
X147416851Y-77009321D01*
X147415614Y-77017263D01*
X145209061Y-77017263D01*
X145151928Y-76853198D01*
X145151927Y-76853195D01*
X145151485Y-76851927D01*
X145056316Y-76699625D01*
X144993744Y-76636615D01*
X144930717Y-76573146D01*
X144930714Y-76573144D01*
X144929770Y-76572193D01*
X144778136Y-76475963D01*
X144776875Y-76475514D01*
X144776871Y-76475512D01*
X144670678Y-76437699D01*
X144608951Y-76415719D01*
X144538424Y-76407309D01*
X144431953Y-76394613D01*
X144431949Y-76394613D01*
X144430624Y-76394455D01*
X144252017Y-76413227D01*
X144180131Y-76437699D01*
X144083278Y-76470670D01*
X144083276Y-76470671D01*
X144082007Y-76471103D01*
X143929045Y-76565206D01*
X143928087Y-76566145D01*
X143928086Y-76566145D01*
X143902044Y-76591647D01*
X143800732Y-76690859D01*
X143800009Y-76691980D01*
X143800008Y-76691982D01*
X143739890Y-76785267D01*
X143703446Y-76841817D01*
X143642022Y-77010578D01*
X143641855Y-77011904D01*
X143641854Y-77011906D01*
X143619775Y-77186688D01*
X143619514Y-77188753D01*
X141135694Y-77188753D01*
X141134623Y-77181994D01*
X141120797Y-77154858D01*
X141084501Y-77083622D01*
X141084499Y-77083620D01*
X141083643Y-77081939D01*
X141004238Y-77002534D01*
X141002557Y-77001678D01*
X141002555Y-77001676D01*
X140905867Y-76952412D01*
X140904183Y-76951554D01*
X140793271Y-76933987D01*
X140682359Y-76951554D01*
X140680675Y-76952412D01*
X140583987Y-77001676D01*
X140583985Y-77001678D01*
X140582304Y-77002534D01*
X140502899Y-77081939D01*
X140502043Y-77083620D01*
X140502041Y-77083622D01*
X140465745Y-77154858D01*
X140451919Y-77181994D01*
X140434352Y-77292906D01*
X131587388Y-77292906D01*
X131566258Y-77282140D01*
X131564574Y-77281282D01*
X131472694Y-77266729D01*
X131455525Y-77264010D01*
X131453662Y-77263715D01*
X131451799Y-77264010D01*
X131434630Y-77266729D01*
X131342750Y-77281282D01*
X131341066Y-77282140D01*
X131244378Y-77331404D01*
X131244376Y-77331406D01*
X131242695Y-77332262D01*
X131163290Y-77411667D01*
X131162434Y-77413348D01*
X131162432Y-77413350D01*
X131113580Y-77509230D01*
X131112310Y-77511722D01*
X131094743Y-77622634D01*
X131112310Y-77733546D01*
X131113168Y-77735230D01*
X131150564Y-77808624D01*
X131163290Y-77833601D01*
X131236125Y-77906436D01*
X131243154Y-77923407D01*
X131236125Y-77940378D01*
X131225750Y-77946482D01*
X131150175Y-77968082D01*
X131028926Y-78044584D01*
X131027798Y-78045862D01*
X131027796Y-78045863D01*
X130935247Y-78150656D01*
X130934023Y-78152042D01*
X130873093Y-78281817D01*
X130868347Y-78312301D01*
X130851360Y-78421405D01*
X130851037Y-78423477D01*
X127351358Y-78423477D01*
X127340065Y-78352177D01*
X127319898Y-78312596D01*
X127289943Y-78253805D01*
X127289941Y-78253803D01*
X127289085Y-78252122D01*
X127209680Y-78172717D01*
X127207999Y-78171861D01*
X127207997Y-78171859D01*
X127111309Y-78122595D01*
X127109625Y-78121737D01*
X126998713Y-78104170D01*
X126887801Y-78121737D01*
X126886117Y-78122595D01*
X126789429Y-78171859D01*
X126789427Y-78171861D01*
X126787746Y-78172717D01*
X126708341Y-78252122D01*
X126707485Y-78253803D01*
X126707483Y-78253805D01*
X126670097Y-78327181D01*
X126656130Y-78339110D01*
X126637817Y-78337669D01*
X126627329Y-78327181D01*
X126589943Y-78253805D01*
X126589941Y-78253803D01*
X126589085Y-78252122D01*
X126509680Y-78172717D01*
X126507999Y-78171861D01*
X126507997Y-78171859D01*
X126411309Y-78122595D01*
X126409625Y-78121737D01*
X126298713Y-78104170D01*
X126187801Y-78121737D01*
X126186117Y-78122595D01*
X126089429Y-78171859D01*
X126089427Y-78171861D01*
X126087746Y-78172717D01*
X126008341Y-78252122D01*
X126007485Y-78253803D01*
X126007483Y-78253805D01*
X125977528Y-78312596D01*
X125957361Y-78352177D01*
X125939794Y-78463089D01*
X117483930Y-78463089D01*
X117562057Y-78384962D01*
X117566591Y-78376065D01*
X117618795Y-78273608D01*
X117619653Y-78271924D01*
X117639499Y-78146620D01*
X117639159Y-78144470D01*
X117630120Y-78087404D01*
X117619653Y-78021316D01*
X117606481Y-77995465D01*
X117564717Y-77913498D01*
X117889376Y-77913498D01*
X117907965Y-78055654D01*
X117965705Y-78186878D01*
X118057955Y-78296623D01*
X118059379Y-78297571D01*
X118081951Y-78312596D01*
X118177298Y-78376065D01*
X118178924Y-78376573D01*
X118178926Y-78376574D01*
X118312512Y-78418308D01*
X118312514Y-78418308D01*
X118314142Y-78418817D01*
X118381728Y-78420056D01*
X118455775Y-78421414D01*
X118455777Y-78421414D01*
X118457484Y-78421445D01*
X118576351Y-78389038D01*
X118594156Y-78384184D01*
X118594158Y-78384183D01*
X118595802Y-78383735D01*
X118717976Y-78308720D01*
X118728068Y-78297571D01*
X118778954Y-78241352D01*
X118814185Y-78202429D01*
X118876695Y-78073408D01*
X118900481Y-77932029D01*
X118900554Y-77926095D01*
X118900621Y-77920609D01*
X118900621Y-77920604D01*
X118900632Y-77919675D01*
X118890951Y-77852077D01*
X118880550Y-77779445D01*
X118880549Y-77779443D01*
X118880308Y-77777757D01*
X118820969Y-77647247D01*
X118727385Y-77538638D01*
X118611275Y-77463379D01*
X118608518Y-77461592D01*
X118607080Y-77460660D01*
X118469724Y-77419582D01*
X118400511Y-77419159D01*
X118328071Y-77418716D01*
X118328068Y-77418716D01*
X118326361Y-77418706D01*
X118324718Y-77419176D01*
X118324715Y-77419176D01*
X118210347Y-77451863D01*
X118188514Y-77458103D01*
X118067265Y-77534605D01*
X118066137Y-77535883D01*
X118066135Y-77535884D01*
X117977351Y-77636414D01*
X117972362Y-77642063D01*
X117911432Y-77771838D01*
X117896934Y-77864955D01*
X117889979Y-77909628D01*
X117889376Y-77913498D01*
X117564717Y-77913498D01*
X117562915Y-77909961D01*
X117562913Y-77909959D01*
X117562057Y-77908278D01*
X117472349Y-77818570D01*
X117470668Y-77817714D01*
X117470666Y-77817712D01*
X117360995Y-77761832D01*
X117359311Y-77760974D01*
X117234007Y-77741128D01*
X117108703Y-77760974D01*
X117107019Y-77761832D01*
X116997348Y-77817712D01*
X116997346Y-77817714D01*
X116995665Y-77818570D01*
X116905957Y-77908278D01*
X116905101Y-77909959D01*
X116905099Y-77909961D01*
X116861533Y-77995465D01*
X116848361Y-78021316D01*
X116837894Y-78087404D01*
X116828856Y-78144470D01*
X116828515Y-78146620D01*
X107103485Y-78146620D01*
X107133841Y-78141812D01*
X107135525Y-78140954D01*
X107232213Y-78091690D01*
X107232215Y-78091688D01*
X107233896Y-78090832D01*
X107313301Y-78011427D01*
X107316441Y-78005266D01*
X107363423Y-77913056D01*
X107364281Y-77911372D01*
X107381848Y-77800460D01*
X107364281Y-77689548D01*
X107363339Y-77687699D01*
X107314159Y-77591176D01*
X107314157Y-77591174D01*
X107313301Y-77589493D01*
X107233896Y-77510088D01*
X107232215Y-77509232D01*
X107232213Y-77509230D01*
X107135525Y-77459966D01*
X107133841Y-77459108D01*
X107022929Y-77441541D01*
X106912017Y-77459108D01*
X106910333Y-77459966D01*
X106813645Y-77509230D01*
X106813643Y-77509232D01*
X106811962Y-77510088D01*
X106732557Y-77589493D01*
X106731701Y-77591174D01*
X106731699Y-77591176D01*
X106682519Y-77687699D01*
X106681577Y-77689548D01*
X106664010Y-77800460D01*
X106003407Y-77800460D01*
X106060912Y-77791352D01*
X106065355Y-77789088D01*
X106159284Y-77741230D01*
X106159286Y-77741228D01*
X106160967Y-77740372D01*
X106240372Y-77660967D01*
X106241351Y-77659047D01*
X106290494Y-77562596D01*
X106291352Y-77560912D01*
X106306506Y-77465234D01*
X106308624Y-77451863D01*
X106308919Y-77450000D01*
X106291352Y-77339088D01*
X106268771Y-77294769D01*
X106241230Y-77240716D01*
X106241228Y-77240714D01*
X106240372Y-77239033D01*
X106160967Y-77159628D01*
X106159286Y-77158772D01*
X106159284Y-77158770D01*
X106062596Y-77109506D01*
X106060912Y-77108648D01*
X105950000Y-77091081D01*
X105839088Y-77108648D01*
X105837404Y-77109506D01*
X105740716Y-77158770D01*
X105740714Y-77158772D01*
X105739033Y-77159628D01*
X105659628Y-77239033D01*
X105658772Y-77240714D01*
X105658770Y-77240716D01*
X105631229Y-77294769D01*
X105608648Y-77339088D01*
X105591081Y-77450000D01*
X104839833Y-77450000D01*
X104881806Y-77367622D01*
X104882664Y-77365938D01*
X104898915Y-77263333D01*
X104899936Y-77256889D01*
X104900231Y-77255026D01*
X104897965Y-77240716D01*
X104893580Y-77213036D01*
X104882664Y-77144114D01*
X104866608Y-77112602D01*
X104865167Y-77094289D01*
X104877096Y-77080322D01*
X104895409Y-77078881D01*
X104898888Y-77080322D01*
X104919239Y-77090691D01*
X104930400Y-77096378D01*
X105006006Y-77108353D01*
X105032833Y-77112602D01*
X105041312Y-77113945D01*
X105049792Y-77112602D01*
X105076618Y-77108353D01*
X105152224Y-77096378D01*
X105162620Y-77091081D01*
X105250596Y-77046256D01*
X105250598Y-77046254D01*
X105252279Y-77045398D01*
X105331684Y-76965993D01*
X105332600Y-76964197D01*
X105381806Y-76867622D01*
X105382664Y-76865938D01*
X105400231Y-76755026D01*
X105382664Y-76644114D01*
X105379245Y-76637404D01*
X105332542Y-76545742D01*
X105332540Y-76545740D01*
X105331684Y-76544059D01*
X105252279Y-76464654D01*
X105250598Y-76463798D01*
X105250596Y-76463796D01*
X105153908Y-76414532D01*
X105152224Y-76413674D01*
X105041312Y-76396107D01*
X104930400Y-76413674D01*
X104928716Y-76414532D01*
X104832028Y-76463796D01*
X104832026Y-76463798D01*
X104830345Y-76464654D01*
X104750940Y-76544059D01*
X104750084Y-76545740D01*
X104750082Y-76545742D01*
X104703379Y-76637404D01*
X104699960Y-76644114D01*
X104682393Y-76755026D01*
X104699960Y-76865938D01*
X104700818Y-76867622D01*
X104716016Y-76897450D01*
X104717457Y-76915763D01*
X104705528Y-76929730D01*
X104687215Y-76931171D01*
X104683736Y-76929730D01*
X104653908Y-76914532D01*
X104652224Y-76913674D01*
X104558978Y-76898905D01*
X104543175Y-76896402D01*
X104541312Y-76896107D01*
X104539449Y-76896402D01*
X104523646Y-76898905D01*
X104430400Y-76913674D01*
X104428716Y-76914532D01*
X104332028Y-76963796D01*
X104332026Y-76963798D01*
X104330345Y-76964654D01*
X104250940Y-77044059D01*
X104250084Y-77045740D01*
X104250082Y-77045742D01*
X104210578Y-77123275D01*
X104199960Y-77144114D01*
X104189044Y-77213036D01*
X104184660Y-77240716D01*
X104182393Y-77255026D01*
X102491421Y-77255026D01*
X102529285Y-77217162D01*
X102530682Y-77213788D01*
X102530371Y-77213036D01*
X102530144Y-77212892D01*
X102376669Y-77158242D01*
X102363040Y-77145927D01*
X102360954Y-77132293D01*
X102362393Y-77122053D01*
X102362510Y-77120544D01*
X102362786Y-77100752D01*
X102362712Y-77099247D01*
X102343990Y-76932340D01*
X102343399Y-76929737D01*
X102288357Y-76771679D01*
X102288111Y-76771165D01*
X102285635Y-76769400D01*
X102283855Y-76769698D01*
X101956927Y-77096626D01*
X101955530Y-77100000D01*
X101244470Y-77100000D01*
X101243073Y-77096626D01*
X100953374Y-76806927D01*
X100950000Y-76805530D01*
X100946626Y-76806927D01*
X100656927Y-77096626D01*
X100655530Y-77100000D01*
X99944470Y-77100000D01*
X99943073Y-77096626D01*
X99703374Y-76856927D01*
X99700000Y-76855530D01*
X99696626Y-76856927D01*
X99456927Y-77096626D01*
X99455530Y-77100000D01*
X98744470Y-77100000D01*
X98743073Y-77096626D01*
X98417601Y-76771154D01*
X98414227Y-76769757D01*
X98413431Y-76770087D01*
X98413330Y-76770245D01*
X98359048Y-76919381D01*
X98358425Y-76921960D01*
X98337446Y-77088017D01*
X98337409Y-77090691D01*
X98340292Y-77120093D01*
X98334952Y-77137669D01*
X98318916Y-77146304D01*
X98237533Y-77154858D01*
X98234933Y-77155430D01*
X98076487Y-77209370D01*
X98074076Y-77210504D01*
X98071938Y-77211819D01*
X98069796Y-77214778D01*
X94222943Y-77214778D01*
X94212596Y-77209506D01*
X94210912Y-77208648D01*
X94100000Y-77191081D01*
X93989088Y-77208648D01*
X93987404Y-77209506D01*
X93890716Y-77258770D01*
X93890714Y-77258772D01*
X93889033Y-77259628D01*
X93809628Y-77339033D01*
X93808772Y-77340714D01*
X93808770Y-77340716D01*
X93761917Y-77432672D01*
X93758648Y-77439088D01*
X93741081Y-77550000D01*
X93600000Y-77550000D01*
X93600000Y-76414778D01*
X98769796Y-76414778D01*
X98770075Y-76416522D01*
X99096626Y-76743073D01*
X99100000Y-76744470D01*
X99103374Y-76743073D01*
X99429285Y-76417162D01*
X99430272Y-76414778D01*
X99969796Y-76414778D01*
X99970075Y-76416522D01*
X100296626Y-76743073D01*
X100300000Y-76744470D01*
X100303374Y-76743073D01*
X100629285Y-76417162D01*
X100630272Y-76414778D01*
X101269796Y-76414778D01*
X101270075Y-76416522D01*
X101596626Y-76743073D01*
X101600000Y-76744470D01*
X101603374Y-76743073D01*
X101929285Y-76417162D01*
X101930682Y-76413788D01*
X101930371Y-76413036D01*
X101930144Y-76412892D01*
X101775453Y-76357810D01*
X101772849Y-76357199D01*
X101606654Y-76337381D01*
X101603997Y-76337363D01*
X101437533Y-76354858D01*
X101434933Y-76355430D01*
X101276487Y-76409370D01*
X101274076Y-76410504D01*
X101271938Y-76411819D01*
X101269796Y-76414778D01*
X100630272Y-76414778D01*
X100630682Y-76413788D01*
X100630371Y-76413036D01*
X100630144Y-76412892D01*
X100475453Y-76357810D01*
X100472849Y-76357199D01*
X100306654Y-76337381D01*
X100303997Y-76337363D01*
X100137533Y-76354858D01*
X100134933Y-76355430D01*
X99976487Y-76409370D01*
X99974076Y-76410504D01*
X99971938Y-76411819D01*
X99969796Y-76414778D01*
X99430272Y-76414778D01*
X99430682Y-76413788D01*
X99430371Y-76413036D01*
X99430144Y-76412892D01*
X99275453Y-76357810D01*
X99272849Y-76357199D01*
X99106654Y-76337381D01*
X99103997Y-76337363D01*
X98937533Y-76354858D01*
X98934933Y-76355430D01*
X98776487Y-76409370D01*
X98774076Y-76410504D01*
X98771938Y-76411819D01*
X98769796Y-76414778D01*
X93600000Y-76414778D01*
X93600000Y-75600000D01*
X103141081Y-75600000D01*
X103158648Y-75710912D01*
X103159506Y-75712596D01*
X103199495Y-75791079D01*
X103209628Y-75810967D01*
X103289033Y-75890372D01*
X103290714Y-75891228D01*
X103290716Y-75891230D01*
X103348218Y-75920528D01*
X103389088Y-75941352D01*
X103500000Y-75958919D01*
X103610912Y-75941352D01*
X103651782Y-75920528D01*
X103709284Y-75891230D01*
X103709286Y-75891228D01*
X103710967Y-75890372D01*
X103790372Y-75810967D01*
X103800506Y-75791079D01*
X103818875Y-75755026D01*
X104382393Y-75755026D01*
X104399960Y-75865938D01*
X104400818Y-75867622D01*
X104448726Y-75961647D01*
X104450940Y-75965993D01*
X104530345Y-76045398D01*
X104532026Y-76046254D01*
X104532028Y-76046256D01*
X104619407Y-76090777D01*
X104630400Y-76096378D01*
X104741312Y-76113945D01*
X104797624Y-76105026D01*
X105332393Y-76105026D01*
X105349960Y-76215938D01*
X105350818Y-76217622D01*
X105399368Y-76312907D01*
X105400940Y-76315993D01*
X105480345Y-76395398D01*
X105482026Y-76396254D01*
X105482028Y-76396256D01*
X105571743Y-76441967D01*
X105580400Y-76446378D01*
X105663889Y-76459602D01*
X105679550Y-76469199D01*
X105683839Y-76487060D01*
X105681518Y-76494202D01*
X105658648Y-76539088D01*
X105641081Y-76650000D01*
X105658648Y-76760912D01*
X105659506Y-76762596D01*
X105708650Y-76859047D01*
X105709628Y-76860967D01*
X105789033Y-76940372D01*
X105790714Y-76941228D01*
X105790716Y-76941230D01*
X105884731Y-76989132D01*
X105889088Y-76991352D01*
X105973975Y-77004797D01*
X105982941Y-77006217D01*
X106000000Y-77008919D01*
X106017060Y-77006217D01*
X106026025Y-77004797D01*
X106056312Y-77000000D01*
X106491081Y-77000000D01*
X106508648Y-77110912D01*
X106509506Y-77112596D01*
X106552284Y-77196553D01*
X106559628Y-77210967D01*
X106639033Y-77290372D01*
X106640714Y-77291228D01*
X106640716Y-77291230D01*
X106734537Y-77339033D01*
X106739088Y-77341352D01*
X106850000Y-77358919D01*
X106960912Y-77341352D01*
X106965463Y-77339033D01*
X107059284Y-77291230D01*
X107059286Y-77291228D01*
X107060967Y-77290372D01*
X107140372Y-77210967D01*
X107147717Y-77196553D01*
X107190494Y-77112596D01*
X107191352Y-77110912D01*
X107208919Y-77000000D01*
X107191352Y-76889088D01*
X107186857Y-76880266D01*
X107141230Y-76790716D01*
X107141228Y-76790714D01*
X107140372Y-76789033D01*
X107060967Y-76709628D01*
X107059286Y-76708772D01*
X107059284Y-76708770D01*
X106962596Y-76659506D01*
X106960912Y-76658648D01*
X106850000Y-76641081D01*
X106739088Y-76658648D01*
X106737404Y-76659506D01*
X106640716Y-76708770D01*
X106640714Y-76708772D01*
X106639033Y-76709628D01*
X106559628Y-76789033D01*
X106558772Y-76790714D01*
X106558770Y-76790716D01*
X106513143Y-76880266D01*
X106508648Y-76889088D01*
X106491081Y-77000000D01*
X106056312Y-77000000D01*
X106110912Y-76991352D01*
X106115269Y-76989132D01*
X106209284Y-76941230D01*
X106209286Y-76941228D01*
X106210967Y-76940372D01*
X106290372Y-76860967D01*
X106291351Y-76859047D01*
X106340494Y-76762596D01*
X106341352Y-76760912D01*
X106358919Y-76650000D01*
X106341352Y-76539088D01*
X106318482Y-76494202D01*
X106291230Y-76440716D01*
X106291228Y-76440714D01*
X106290372Y-76439033D01*
X106210967Y-76359628D01*
X106209286Y-76358772D01*
X106209284Y-76358770D01*
X106169368Y-76338432D01*
X107744821Y-76338432D01*
X107745116Y-76340295D01*
X107746048Y-76346179D01*
X107762388Y-76449344D01*
X107763246Y-76451028D01*
X107811505Y-76545742D01*
X107813368Y-76549399D01*
X107892773Y-76628804D01*
X107894454Y-76629660D01*
X107894456Y-76629662D01*
X107979910Y-76673202D01*
X107992828Y-76679784D01*
X108078997Y-76693432D01*
X108100874Y-76696897D01*
X108103740Y-76697351D01*
X108106607Y-76696897D01*
X108128483Y-76693432D01*
X108214652Y-76679784D01*
X108227570Y-76673202D01*
X108313024Y-76629662D01*
X108313026Y-76629660D01*
X108314707Y-76628804D01*
X108394112Y-76549399D01*
X108395976Y-76545742D01*
X108444234Y-76451028D01*
X108445092Y-76449344D01*
X108461432Y-76346179D01*
X108462364Y-76340295D01*
X108462659Y-76338432D01*
X108461340Y-76330101D01*
X108459645Y-76319400D01*
X108448653Y-76250000D01*
X112691081Y-76250000D01*
X112708648Y-76360912D01*
X112709506Y-76362596D01*
X112758509Y-76458770D01*
X112759628Y-76460967D01*
X112839033Y-76540372D01*
X112840714Y-76541228D01*
X112840716Y-76541230D01*
X112909937Y-76576499D01*
X112939088Y-76591352D01*
X113013217Y-76603093D01*
X113045947Y-76608277D01*
X113050000Y-76608919D01*
X113054054Y-76608277D01*
X113086783Y-76603093D01*
X113160912Y-76591352D01*
X113190063Y-76576499D01*
X113259284Y-76541230D01*
X113259286Y-76541228D01*
X113260967Y-76540372D01*
X113340372Y-76460967D01*
X113341492Y-76458770D01*
X113390494Y-76362596D01*
X113391352Y-76360912D01*
X113408919Y-76250000D01*
X113407517Y-76241145D01*
X113405358Y-76227520D01*
X113391352Y-76139088D01*
X113384750Y-76126131D01*
X113352968Y-76063753D01*
X114344514Y-76063753D01*
X114345617Y-76075000D01*
X114362039Y-76242486D01*
X114379649Y-76295425D01*
X114412592Y-76394455D01*
X114418726Y-76412896D01*
X114511759Y-76566512D01*
X114521967Y-76577083D01*
X114632925Y-76691982D01*
X114636514Y-76695699D01*
X114660801Y-76711592D01*
X114782885Y-76791481D01*
X114786789Y-76794036D01*
X114799174Y-76798642D01*
X114953857Y-76856168D01*
X114953859Y-76856168D01*
X114955116Y-76856636D01*
X114956450Y-76856814D01*
X114993819Y-76861800D01*
X115133130Y-76880388D01*
X115311981Y-76864112D01*
X115482782Y-76808615D01*
X115483933Y-76807929D01*
X115483935Y-76807928D01*
X115575804Y-76753163D01*
X115637044Y-76716657D01*
X115638013Y-76715734D01*
X115638016Y-76715732D01*
X115766126Y-76593734D01*
X115766128Y-76593732D01*
X115767099Y-76592807D01*
X115866483Y-76443222D01*
X115867435Y-76440716D01*
X115910098Y-76328405D01*
X120582898Y-76328405D01*
X120601487Y-76470561D01*
X120659227Y-76601785D01*
X120751477Y-76711530D01*
X120752901Y-76712478D01*
X120779144Y-76729947D01*
X120870820Y-76790972D01*
X120872446Y-76791480D01*
X120872448Y-76791481D01*
X121006034Y-76833215D01*
X121006036Y-76833215D01*
X121007664Y-76833724D01*
X121075250Y-76834963D01*
X121149297Y-76836321D01*
X121149299Y-76836321D01*
X121151006Y-76836352D01*
X121238367Y-76812535D01*
X121287678Y-76799091D01*
X121287680Y-76799090D01*
X121289324Y-76798642D01*
X121411498Y-76723627D01*
X121416391Y-76718222D01*
X121469537Y-76659506D01*
X121507707Y-76617336D01*
X121570217Y-76488315D01*
X121570501Y-76486627D01*
X121570502Y-76486624D01*
X121572855Y-76472636D01*
X121582602Y-76457067D01*
X121600504Y-76452951D01*
X121616073Y-76462698D01*
X121618487Y-76466949D01*
X121673079Y-76591018D01*
X121765329Y-76700763D01*
X121766753Y-76701711D01*
X121781597Y-76711592D01*
X121884672Y-76780205D01*
X121886298Y-76780713D01*
X121886300Y-76780714D01*
X122019886Y-76822448D01*
X122019888Y-76822448D01*
X122021516Y-76822957D01*
X122089102Y-76824196D01*
X122163149Y-76825554D01*
X122163151Y-76825554D01*
X122164858Y-76825585D01*
X122256868Y-76800500D01*
X122301530Y-76788324D01*
X122301532Y-76788323D01*
X122303176Y-76787875D01*
X122425350Y-76712860D01*
X122426503Y-76711587D01*
X122487804Y-76643861D01*
X125755117Y-76643861D01*
X125775755Y-76800623D01*
X125776358Y-76802078D01*
X125776358Y-76802079D01*
X125781667Y-76814896D01*
X125836263Y-76946702D01*
X125932517Y-77072143D01*
X126057958Y-77168397D01*
X126204037Y-77228905D01*
X126360799Y-77249543D01*
X126517561Y-77228905D01*
X126542394Y-77218619D01*
X126592749Y-77197761D01*
X126611117Y-77197761D01*
X126624106Y-77210750D01*
X126625728Y-77223067D01*
X126618433Y-77278476D01*
X126639071Y-77435238D01*
X126639674Y-77436693D01*
X126639674Y-77436694D01*
X126653687Y-77470524D01*
X126699579Y-77581317D01*
X126795833Y-77706758D01*
X126921274Y-77803012D01*
X126962055Y-77819904D01*
X127055210Y-77858490D01*
X127067353Y-77863520D01*
X127224115Y-77884158D01*
X127380877Y-77863520D01*
X127393021Y-77858490D01*
X127486175Y-77819904D01*
X127526956Y-77803012D01*
X127652397Y-77706758D01*
X127748651Y-77581317D01*
X127794543Y-77470524D01*
X127808556Y-77436694D01*
X127808556Y-77436693D01*
X127809159Y-77435238D01*
X127829797Y-77278476D01*
X127809159Y-77121714D01*
X127798665Y-77096378D01*
X127767815Y-77021902D01*
X127748651Y-76975635D01*
X127652397Y-76850194D01*
X127526956Y-76753940D01*
X127386350Y-76695699D01*
X127382333Y-76694035D01*
X127382332Y-76694035D01*
X127380877Y-76693432D01*
X127224115Y-76672794D01*
X127067353Y-76693432D01*
X127065898Y-76694035D01*
X127065897Y-76694035D01*
X126992165Y-76724576D01*
X126973797Y-76724576D01*
X126960808Y-76711587D01*
X126959186Y-76699270D01*
X126959265Y-76698674D01*
X126966481Y-76643861D01*
X126957444Y-76575220D01*
X135656018Y-76575220D01*
X135675864Y-76700524D01*
X135676722Y-76702208D01*
X135731151Y-76809030D01*
X135733460Y-76813562D01*
X135823168Y-76903270D01*
X135824849Y-76904126D01*
X135824851Y-76904128D01*
X135910863Y-76947953D01*
X135936206Y-76960866D01*
X136061510Y-76980712D01*
X136186814Y-76960866D01*
X136212157Y-76947953D01*
X136298169Y-76904128D01*
X136298171Y-76904126D01*
X136299852Y-76903270D01*
X136389560Y-76813562D01*
X136391870Y-76809030D01*
X136446298Y-76702208D01*
X136447156Y-76700524D01*
X136467002Y-76575220D01*
X136447156Y-76449916D01*
X136428682Y-76413659D01*
X136390418Y-76338561D01*
X136390416Y-76338559D01*
X136389560Y-76336878D01*
X136299852Y-76247170D01*
X136298171Y-76246314D01*
X136298169Y-76246312D01*
X136285549Y-76239882D01*
X141768051Y-76239882D01*
X141768346Y-76241745D01*
X141769949Y-76251863D01*
X141787897Y-76365186D01*
X141788755Y-76366870D01*
X141844341Y-76475963D01*
X141845493Y-76478224D01*
X141935201Y-76567932D01*
X141936882Y-76568788D01*
X141936884Y-76568790D01*
X142032161Y-76617336D01*
X142048239Y-76625528D01*
X142145630Y-76640953D01*
X142165588Y-76644114D01*
X142173543Y-76645374D01*
X142181499Y-76644114D01*
X142201456Y-76640953D01*
X142298847Y-76625528D01*
X142314925Y-76617336D01*
X142410202Y-76568790D01*
X142410204Y-76568788D01*
X142411885Y-76567932D01*
X142501593Y-76478224D01*
X142502746Y-76475963D01*
X142558331Y-76366870D01*
X142559189Y-76365186D01*
X142564694Y-76330429D01*
X146105973Y-76330429D01*
X146122705Y-76458383D01*
X146174677Y-76576499D01*
X146228856Y-76640953D01*
X146255794Y-76672999D01*
X146257711Y-76675280D01*
X146293751Y-76699270D01*
X146359556Y-76743073D01*
X146365132Y-76746785D01*
X146397473Y-76756889D01*
X146486675Y-76784758D01*
X146486677Y-76784758D01*
X146488305Y-76785267D01*
X146549077Y-76786381D01*
X146615618Y-76787601D01*
X146615620Y-76787601D01*
X146617327Y-76787632D01*
X146721151Y-76759326D01*
X146740181Y-76754138D01*
X146740183Y-76754137D01*
X146741827Y-76753689D01*
X146851796Y-76686168D01*
X146857308Y-76680079D01*
X146904927Y-76627470D01*
X146938394Y-76590496D01*
X146994660Y-76474364D01*
X146995282Y-76470670D01*
X147004920Y-76413379D01*
X147016069Y-76347109D01*
X147016134Y-76341835D01*
X147016194Y-76336923D01*
X147016194Y-76336918D01*
X147016205Y-76335989D01*
X147013122Y-76314464D01*
X149247981Y-76314464D01*
X149268619Y-76471226D01*
X149269222Y-76472681D01*
X149269222Y-76472682D01*
X149295794Y-76536831D01*
X149329127Y-76617305D01*
X149425381Y-76742746D01*
X149550822Y-76839000D01*
X149611448Y-76864112D01*
X149691933Y-76897450D01*
X149696901Y-76899508D01*
X149853663Y-76920146D01*
X150010425Y-76899508D01*
X150011879Y-76898906D01*
X150011882Y-76898905D01*
X150063056Y-76877708D01*
X150081425Y-76877708D01*
X150094413Y-76890697D01*
X150096035Y-76903013D01*
X150094519Y-76914527D01*
X150115157Y-77071289D01*
X150115760Y-77072744D01*
X150115760Y-77072745D01*
X150132826Y-77113945D01*
X150175665Y-77217368D01*
X150271919Y-77342809D01*
X150397360Y-77439063D01*
X150443327Y-77458103D01*
X150540762Y-77498462D01*
X150543439Y-77499571D01*
X150700201Y-77520209D01*
X150856963Y-77499571D01*
X150859641Y-77498462D01*
X150957027Y-77458123D01*
X158717293Y-77458123D01*
X158735882Y-77600279D01*
X158793622Y-77731503D01*
X158885872Y-77841248D01*
X159005215Y-77920690D01*
X159006841Y-77921198D01*
X159006843Y-77921199D01*
X159140429Y-77962933D01*
X159140431Y-77962933D01*
X159142059Y-77963442D01*
X159209645Y-77964681D01*
X159283692Y-77966039D01*
X159283694Y-77966039D01*
X159285401Y-77966070D01*
X159402922Y-77934030D01*
X159422073Y-77928809D01*
X159422075Y-77928808D01*
X159423719Y-77928360D01*
X159545893Y-77853345D01*
X159555985Y-77842196D01*
X159629502Y-77760974D01*
X159642102Y-77747054D01*
X159704612Y-77618033D01*
X159728398Y-77476654D01*
X159728512Y-77467327D01*
X159728538Y-77465234D01*
X159728538Y-77465229D01*
X159728549Y-77464300D01*
X159722020Y-77418706D01*
X159708467Y-77324070D01*
X159708466Y-77324068D01*
X159708225Y-77322382D01*
X159648886Y-77191872D01*
X159555302Y-77083263D01*
X159440604Y-77008919D01*
X159436435Y-77006217D01*
X159434997Y-77005285D01*
X159297641Y-76964207D01*
X159228428Y-76963784D01*
X159155988Y-76963341D01*
X159155985Y-76963341D01*
X159154278Y-76963331D01*
X159152635Y-76963801D01*
X159152632Y-76963801D01*
X159025976Y-77000000D01*
X159016431Y-77002728D01*
X158895182Y-77079230D01*
X158894054Y-77080508D01*
X158894052Y-77080509D01*
X158802777Y-77183859D01*
X158800279Y-77186688D01*
X158739349Y-77316463D01*
X158717293Y-77458123D01*
X150957027Y-77458123D01*
X150957075Y-77458103D01*
X151003042Y-77439063D01*
X151128483Y-77342809D01*
X151224737Y-77217368D01*
X151267576Y-77113945D01*
X151284642Y-77072745D01*
X151284642Y-77072744D01*
X151285245Y-77071289D01*
X151296306Y-76987269D01*
X154213994Y-76987269D01*
X154214289Y-76989132D01*
X154216587Y-77003643D01*
X154231561Y-77098181D01*
X154232419Y-77099865D01*
X154280089Y-77193423D01*
X154282541Y-77198236D01*
X154361946Y-77277641D01*
X154363627Y-77278497D01*
X154363629Y-77278499D01*
X154435103Y-77314916D01*
X154462001Y-77328621D01*
X154572913Y-77346188D01*
X154683825Y-77328621D01*
X154710723Y-77314916D01*
X154782197Y-77278499D01*
X154782199Y-77278497D01*
X154783880Y-77277641D01*
X154863285Y-77198236D01*
X154865738Y-77193423D01*
X154913407Y-77099865D01*
X154914265Y-77098181D01*
X154929239Y-77003643D01*
X154931537Y-76989132D01*
X154931832Y-76987269D01*
X154930794Y-76980712D01*
X154924193Y-76939038D01*
X154914265Y-76876357D01*
X154908006Y-76864073D01*
X154864143Y-76777985D01*
X154864141Y-76777983D01*
X154863285Y-76776302D01*
X154783880Y-76696897D01*
X154782199Y-76696041D01*
X154782197Y-76696039D01*
X154685509Y-76646775D01*
X154683825Y-76645917D01*
X154581197Y-76629662D01*
X154574776Y-76628645D01*
X154572913Y-76628350D01*
X154571050Y-76628645D01*
X154564629Y-76629662D01*
X154462001Y-76645917D01*
X154460317Y-76646775D01*
X154363629Y-76696039D01*
X154363627Y-76696041D01*
X154361946Y-76696897D01*
X154282541Y-76776302D01*
X154281685Y-76777983D01*
X154281683Y-76777985D01*
X154237820Y-76864073D01*
X154231561Y-76876357D01*
X154221633Y-76939038D01*
X154215033Y-76980712D01*
X154213994Y-76987269D01*
X151296306Y-76987269D01*
X151305883Y-76914527D01*
X151285245Y-76757765D01*
X151284111Y-76755026D01*
X151252587Y-76678922D01*
X151224737Y-76611686D01*
X151128483Y-76486245D01*
X151003042Y-76389991D01*
X150923875Y-76357199D01*
X150858419Y-76330086D01*
X150858418Y-76330086D01*
X150856963Y-76329483D01*
X150700201Y-76308845D01*
X150543439Y-76329483D01*
X150541985Y-76330085D01*
X150541982Y-76330086D01*
X150490808Y-76351283D01*
X150472439Y-76351283D01*
X150459451Y-76338294D01*
X150457829Y-76325977D01*
X150459140Y-76316021D01*
X150459345Y-76314464D01*
X150438707Y-76157702D01*
X150378199Y-76011623D01*
X150281945Y-75886182D01*
X150156504Y-75789928D01*
X150010425Y-75729420D01*
X149853663Y-75708782D01*
X149696901Y-75729420D01*
X149550822Y-75789928D01*
X149425381Y-75886182D01*
X149329127Y-76011623D01*
X149268619Y-76157702D01*
X149247981Y-76314464D01*
X147013122Y-76314464D01*
X147006463Y-76267966D01*
X146998153Y-76209936D01*
X146998152Y-76209934D01*
X146997911Y-76208248D01*
X146944500Y-76090777D01*
X146869059Y-76003223D01*
X146861381Y-75994312D01*
X146861380Y-75994311D01*
X146860265Y-75993017D01*
X146751978Y-75922830D01*
X146628345Y-75885855D01*
X146566073Y-75885475D01*
X146501013Y-75885077D01*
X146501010Y-75885077D01*
X146499303Y-75885067D01*
X146497660Y-75885537D01*
X146497657Y-75885537D01*
X146388806Y-75916647D01*
X146375227Y-75920528D01*
X146266091Y-75989388D01*
X146264963Y-75990666D01*
X146264961Y-75990667D01*
X146182517Y-76084017D01*
X146180668Y-76086111D01*
X146125826Y-76202921D01*
X146115316Y-76270424D01*
X146107965Y-76317638D01*
X146105973Y-76330429D01*
X142564694Y-76330429D01*
X142577137Y-76251863D01*
X142578740Y-76241745D01*
X142579035Y-76239882D01*
X142559189Y-76114578D01*
X142549916Y-76096378D01*
X142502451Y-76003223D01*
X142502449Y-76003221D01*
X142501593Y-76001540D01*
X142411885Y-75911832D01*
X142410204Y-75910976D01*
X142410202Y-75910974D01*
X142300531Y-75855094D01*
X142298847Y-75854236D01*
X142173543Y-75834390D01*
X142048239Y-75854236D01*
X142046555Y-75855094D01*
X141936884Y-75910974D01*
X141936882Y-75910976D01*
X141935201Y-75911832D01*
X141845493Y-76001540D01*
X141844637Y-76003221D01*
X141844635Y-76003223D01*
X141797170Y-76096378D01*
X141787897Y-76114578D01*
X141768051Y-76239882D01*
X136285549Y-76239882D01*
X136188498Y-76190432D01*
X136186814Y-76189574D01*
X136072073Y-76171401D01*
X136063373Y-76170023D01*
X136061510Y-76169728D01*
X136059647Y-76170023D01*
X136050947Y-76171401D01*
X135936206Y-76189574D01*
X135934522Y-76190432D01*
X135824851Y-76246312D01*
X135824849Y-76246314D01*
X135823168Y-76247170D01*
X135733460Y-76336878D01*
X135732604Y-76338559D01*
X135732602Y-76338561D01*
X135694338Y-76413659D01*
X135675864Y-76449916D01*
X135656018Y-76575220D01*
X126957444Y-76575220D01*
X126945843Y-76487099D01*
X126944197Y-76483124D01*
X126893595Y-76360962D01*
X126885335Y-76341020D01*
X126789081Y-76215579D01*
X126663640Y-76119325D01*
X126529478Y-76063753D01*
X126519017Y-76059420D01*
X126519016Y-76059420D01*
X126517561Y-76058817D01*
X126360799Y-76038179D01*
X126204037Y-76058817D01*
X126202582Y-76059420D01*
X126202581Y-76059420D01*
X126192120Y-76063753D01*
X126057958Y-76119325D01*
X125932517Y-76215579D01*
X125836263Y-76341020D01*
X125828003Y-76360962D01*
X125777402Y-76483124D01*
X125775755Y-76487099D01*
X125755117Y-76643861D01*
X122487804Y-76643861D01*
X122521559Y-76606569D01*
X122584069Y-76477548D01*
X122607855Y-76336169D01*
X122608006Y-76323815D01*
X122594216Y-76227520D01*
X122587924Y-76183585D01*
X122587923Y-76183583D01*
X122587682Y-76181897D01*
X122528343Y-76051387D01*
X122506400Y-76025921D01*
X130147017Y-76025921D01*
X130163749Y-76153875D01*
X130215721Y-76271991D01*
X130264843Y-76330429D01*
X130289388Y-76359628D01*
X130298755Y-76370772D01*
X130337039Y-76396256D01*
X130401303Y-76439033D01*
X130406176Y-76442277D01*
X130446730Y-76454947D01*
X130527719Y-76480250D01*
X130527721Y-76480250D01*
X130529349Y-76480759D01*
X130590121Y-76481873D01*
X130656662Y-76483093D01*
X130656664Y-76483093D01*
X130658371Y-76483124D01*
X130743368Y-76459951D01*
X130781225Y-76449630D01*
X130781227Y-76449629D01*
X130782871Y-76449181D01*
X130892840Y-76381660D01*
X130902696Y-76370772D01*
X130957866Y-76309820D01*
X130979438Y-76285988D01*
X131035704Y-76169856D01*
X131037042Y-76161906D01*
X131049793Y-76086111D01*
X131057113Y-76042601D01*
X131057249Y-76031481D01*
X131049604Y-75978099D01*
X131039197Y-75905428D01*
X131039196Y-75905426D01*
X131038955Y-75903740D01*
X130985544Y-75786269D01*
X130906948Y-75695053D01*
X130902425Y-75689804D01*
X130902424Y-75689803D01*
X130901309Y-75688509D01*
X130798485Y-75621863D01*
X130794454Y-75619250D01*
X130794453Y-75619250D01*
X130793022Y-75618322D01*
X130669389Y-75581347D01*
X130607117Y-75580967D01*
X130542057Y-75580569D01*
X130542054Y-75580569D01*
X130540347Y-75580559D01*
X130538704Y-75581029D01*
X130538701Y-75581029D01*
X130428780Y-75612445D01*
X130416271Y-75616020D01*
X130307135Y-75684880D01*
X130306007Y-75686158D01*
X130306005Y-75686159D01*
X130222843Y-75780322D01*
X130221712Y-75781603D01*
X130220987Y-75783148D01*
X130220986Y-75783149D01*
X130217803Y-75789928D01*
X130166870Y-75898413D01*
X130156878Y-75962588D01*
X130151939Y-75994312D01*
X130147017Y-76025921D01*
X122506400Y-76025921D01*
X122434759Y-75942778D01*
X122314454Y-75864800D01*
X122177098Y-75823722D01*
X122107885Y-75823299D01*
X122035445Y-75822856D01*
X122035442Y-75822856D01*
X122033735Y-75822846D01*
X122032092Y-75823316D01*
X122032089Y-75823316D01*
X121924936Y-75853941D01*
X121895888Y-75862243D01*
X121774639Y-75938745D01*
X121773511Y-75940023D01*
X121773509Y-75940024D01*
X121681625Y-76044064D01*
X121679736Y-76046203D01*
X121679011Y-76047748D01*
X121679010Y-76047749D01*
X121672853Y-76060863D01*
X121618806Y-76175978D01*
X121618543Y-76177669D01*
X121617744Y-76182799D01*
X121608187Y-76198486D01*
X121590337Y-76202820D01*
X121574650Y-76193263D01*
X121572182Y-76189039D01*
X121515198Y-76063707D01*
X121515195Y-76063702D01*
X121514491Y-76062154D01*
X121420907Y-75953545D01*
X121300602Y-75875567D01*
X121163246Y-75834489D01*
X121094033Y-75834066D01*
X121021593Y-75833623D01*
X121021590Y-75833623D01*
X121019883Y-75833613D01*
X121018240Y-75834083D01*
X121018237Y-75834083D01*
X120900888Y-75867622D01*
X120882036Y-75873010D01*
X120760787Y-75949512D01*
X120759659Y-75950790D01*
X120759657Y-75950791D01*
X120669445Y-76052938D01*
X120665884Y-76056970D01*
X120604954Y-76186745D01*
X120591478Y-76273299D01*
X120584831Y-76315993D01*
X120582898Y-76328405D01*
X115910098Y-76328405D01*
X115929781Y-76276590D01*
X115929782Y-76276587D01*
X115930257Y-76275336D01*
X115955251Y-76097493D01*
X115955262Y-76096738D01*
X115955555Y-76075752D01*
X115955555Y-76075744D01*
X115955565Y-76075000D01*
X115955226Y-76071973D01*
X115935696Y-75897864D01*
X115935696Y-75897863D01*
X115935546Y-75896528D01*
X115932380Y-75887437D01*
X115876928Y-75728198D01*
X115876927Y-75728195D01*
X115876485Y-75726927D01*
X115781316Y-75574625D01*
X115696374Y-75489088D01*
X115655717Y-75448146D01*
X115655714Y-75448144D01*
X115654770Y-75447193D01*
X115503136Y-75350963D01*
X115501875Y-75350514D01*
X115501871Y-75350512D01*
X115413078Y-75318895D01*
X115333951Y-75290719D01*
X115263424Y-75282309D01*
X115156953Y-75269613D01*
X115156949Y-75269613D01*
X115155624Y-75269455D01*
X114977017Y-75288227D01*
X114904129Y-75313040D01*
X114808278Y-75345670D01*
X114808276Y-75345671D01*
X114807007Y-75346103D01*
X114654045Y-75440206D01*
X114525732Y-75565859D01*
X114525009Y-75566980D01*
X114525008Y-75566982D01*
X114486534Y-75626682D01*
X114428446Y-75716817D01*
X114367022Y-75885578D01*
X114366855Y-75886904D01*
X114366854Y-75886906D01*
X114345138Y-76058817D01*
X114344514Y-76063753D01*
X113352968Y-76063753D01*
X113341230Y-76040716D01*
X113341228Y-76040714D01*
X113340372Y-76039033D01*
X113260967Y-75959628D01*
X113259286Y-75958772D01*
X113259284Y-75958770D01*
X113162596Y-75909506D01*
X113160912Y-75908648D01*
X113050000Y-75891081D01*
X112939088Y-75908648D01*
X112937404Y-75909506D01*
X112840716Y-75958770D01*
X112840714Y-75958772D01*
X112839033Y-75959628D01*
X112759628Y-76039033D01*
X112758772Y-76040714D01*
X112758770Y-76040716D01*
X112715250Y-76126131D01*
X112708648Y-76139088D01*
X112694642Y-76227520D01*
X112692484Y-76241145D01*
X112691081Y-76250000D01*
X108448653Y-76250000D01*
X108445092Y-76227520D01*
X108438517Y-76214616D01*
X108394970Y-76129148D01*
X108394968Y-76129146D01*
X108394112Y-76127465D01*
X108314707Y-76048060D01*
X108313026Y-76047204D01*
X108313024Y-76047202D01*
X108216336Y-75997938D01*
X108214652Y-75997080D01*
X108103740Y-75979513D01*
X107992828Y-75997080D01*
X107991144Y-75997938D01*
X107894456Y-76047202D01*
X107894454Y-76047204D01*
X107892773Y-76048060D01*
X107813368Y-76127465D01*
X107812512Y-76129146D01*
X107812510Y-76129148D01*
X107768963Y-76214616D01*
X107762388Y-76227520D01*
X107747835Y-76319400D01*
X107746141Y-76330101D01*
X107744821Y-76338432D01*
X106169368Y-76338432D01*
X106112596Y-76309506D01*
X106110912Y-76308648D01*
X106027423Y-76295424D01*
X106011762Y-76285827D01*
X106007473Y-76267966D01*
X106009794Y-76260824D01*
X106031806Y-76217622D01*
X106032664Y-76215938D01*
X106050231Y-76105026D01*
X106032664Y-75994114D01*
X106023074Y-75975293D01*
X105982542Y-75895742D01*
X105982540Y-75895740D01*
X105981684Y-75894059D01*
X105902279Y-75814654D01*
X105900598Y-75813798D01*
X105900596Y-75813796D01*
X105803908Y-75764532D01*
X105802224Y-75763674D01*
X105691312Y-75746107D01*
X105580400Y-75763674D01*
X105578716Y-75764532D01*
X105482028Y-75813796D01*
X105482026Y-75813798D01*
X105480345Y-75814654D01*
X105400940Y-75894059D01*
X105400084Y-75895740D01*
X105400082Y-75895742D01*
X105359550Y-75975293D01*
X105349960Y-75994114D01*
X105332393Y-76105026D01*
X104797624Y-76105026D01*
X104852224Y-76096378D01*
X104863217Y-76090777D01*
X104950596Y-76046256D01*
X104950598Y-76046254D01*
X104952279Y-76045398D01*
X105031684Y-75965993D01*
X105033899Y-75961647D01*
X105081806Y-75867622D01*
X105082664Y-75865938D01*
X105100231Y-75755026D01*
X105082664Y-75644114D01*
X105071299Y-75621808D01*
X105032542Y-75545742D01*
X105032540Y-75545740D01*
X105031684Y-75544059D01*
X104952279Y-75464654D01*
X104950598Y-75463798D01*
X104950596Y-75463796D01*
X104853908Y-75414532D01*
X104852224Y-75413674D01*
X104741312Y-75396107D01*
X104630400Y-75413674D01*
X104628716Y-75414532D01*
X104532028Y-75463796D01*
X104532026Y-75463798D01*
X104530345Y-75464654D01*
X104450940Y-75544059D01*
X104450084Y-75545740D01*
X104450082Y-75545742D01*
X104411325Y-75621808D01*
X104399960Y-75644114D01*
X104382393Y-75755026D01*
X103818875Y-75755026D01*
X103840494Y-75712596D01*
X103841352Y-75710912D01*
X103858919Y-75600000D01*
X103841352Y-75489088D01*
X103829564Y-75465953D01*
X103791230Y-75390716D01*
X103791228Y-75390714D01*
X103790372Y-75389033D01*
X103710967Y-75309628D01*
X103709286Y-75308772D01*
X103709284Y-75308770D01*
X103612596Y-75259506D01*
X103610912Y-75258648D01*
X103519032Y-75244095D01*
X103501863Y-75241376D01*
X103500000Y-75241081D01*
X103498137Y-75241376D01*
X103480968Y-75244095D01*
X103389088Y-75258648D01*
X103387404Y-75259506D01*
X103290716Y-75308770D01*
X103290714Y-75308772D01*
X103289033Y-75309628D01*
X103209628Y-75389033D01*
X103208772Y-75390714D01*
X103208770Y-75390716D01*
X103170436Y-75465953D01*
X103158648Y-75489088D01*
X103141081Y-75600000D01*
X93600000Y-75600000D01*
X93600000Y-75224500D01*
X93607029Y-75207529D01*
X93624000Y-75200500D01*
X94994108Y-75200500D01*
X95042859Y-75200543D01*
X95042861Y-75200543D01*
X95045563Y-75200545D01*
X95047998Y-75199376D01*
X95048001Y-75199375D01*
X95058235Y-75194460D01*
X95064094Y-75191647D01*
X95069139Y-75189885D01*
X95078485Y-75187753D01*
X95086552Y-75185913D01*
X95086553Y-75185912D01*
X95089185Y-75185312D01*
X95105107Y-75172624D01*
X95109673Y-75169760D01*
X95125586Y-75162119D01*
X95125587Y-75162118D01*
X95128024Y-75160948D01*
X95140863Y-75144894D01*
X95144649Y-75141115D01*
X95158609Y-75129991D01*
X95158610Y-75129989D01*
X95160724Y-75128305D01*
X95169567Y-75109971D01*
X95172441Y-75105407D01*
X95183469Y-75091617D01*
X95185156Y-75089508D01*
X95189763Y-75069473D01*
X95191536Y-75064425D01*
X95199292Y-75048344D01*
X95200465Y-75045913D01*
X95200485Y-75022890D01*
X95200488Y-75022830D01*
X95200500Y-75022781D01*
X95200500Y-75005892D01*
X95200538Y-74962596D01*
X95200545Y-74954660D01*
X95200545Y-74954437D01*
X95200512Y-74954369D01*
X95200500Y-74954259D01*
X95200500Y-74850000D01*
X98316081Y-74850000D01*
X98333648Y-74960912D01*
X98334506Y-74962596D01*
X98378022Y-75048001D01*
X98384628Y-75060967D01*
X98464033Y-75140372D01*
X98465714Y-75141228D01*
X98465716Y-75141230D01*
X98552234Y-75185312D01*
X98564088Y-75191352D01*
X98675000Y-75208919D01*
X98785912Y-75191352D01*
X98797766Y-75185312D01*
X98884284Y-75141230D01*
X98884286Y-75141228D01*
X98885967Y-75140372D01*
X98965372Y-75060967D01*
X98971979Y-75048001D01*
X99015494Y-74962596D01*
X99016352Y-74960912D01*
X99022040Y-74925000D01*
X100291081Y-74925000D01*
X100308648Y-75035912D01*
X100309506Y-75037596D01*
X100356441Y-75129712D01*
X100359628Y-75135967D01*
X100439033Y-75215372D01*
X100440714Y-75216228D01*
X100440716Y-75216230D01*
X100523389Y-75258353D01*
X100539088Y-75266352D01*
X100650000Y-75283919D01*
X100760912Y-75266352D01*
X100776611Y-75258353D01*
X100859284Y-75216230D01*
X100859286Y-75216228D01*
X100860967Y-75215372D01*
X100940372Y-75135967D01*
X100943560Y-75129712D01*
X100990494Y-75037596D01*
X100991352Y-75035912D01*
X101008919Y-74925000D01*
X100991352Y-74814088D01*
X100983896Y-74799455D01*
X100941230Y-74715716D01*
X100941228Y-74715714D01*
X100940372Y-74714033D01*
X100860967Y-74634628D01*
X100859286Y-74633772D01*
X100859284Y-74633770D01*
X100762596Y-74584506D01*
X100760912Y-74583648D01*
X100650000Y-74566081D01*
X100539088Y-74583648D01*
X100537404Y-74584506D01*
X100440716Y-74633770D01*
X100440714Y-74633772D01*
X100439033Y-74634628D01*
X100359628Y-74714033D01*
X100358772Y-74715714D01*
X100358770Y-74715716D01*
X100316104Y-74799455D01*
X100308648Y-74814088D01*
X100291081Y-74925000D01*
X99022040Y-74925000D01*
X99033919Y-74850000D01*
X99016352Y-74739088D01*
X98965372Y-74639033D01*
X98885967Y-74559628D01*
X98884286Y-74558772D01*
X98884284Y-74558770D01*
X98787596Y-74509506D01*
X98785912Y-74508648D01*
X98675000Y-74491081D01*
X98564088Y-74508648D01*
X98562404Y-74509506D01*
X98465716Y-74558770D01*
X98465714Y-74558772D01*
X98464033Y-74559628D01*
X98384628Y-74639033D01*
X98333648Y-74739088D01*
X98316081Y-74850000D01*
X95200500Y-74850000D01*
X95200500Y-74401238D01*
X95207529Y-74384267D01*
X95219846Y-74377694D01*
X95319105Y-74358077D01*
X95323771Y-74357624D01*
X103612752Y-74369336D01*
G37*
%TD.AperFunction*%
%TD*%
M02*
