M48
; DRILL file {KiCad 6.0.9-8da3e8f707~116~ubuntu22.04.1} date Mon 05 Dec 2022 02:03:30 PM
; FORMAT={-:-/ absolute / metric / decimal}
; #@! TF.CreationDate,2022-12-05T14:03:30-05:00
; #@! TF.GenerationSoftware,Kicad,Pcbnew,6.0.9-8da3e8f707~116~ubuntu22.04.1
; #@! TF.FileFunction,Plated,1,4,PTH
FMAT,2
METRIC
; #@! TA.AperFunction,Plated,PTH,ViaDrill
T1C0.200
; #@! TA.AperFunction,Plated,PTH,ViaDrill
T2C0.250
; #@! TA.AperFunction,Plated,PTH,ComponentDrill
T3C0.250
; #@! TA.AperFunction,Plated,PTH,ViaDrill
T4C0.300
; #@! TA.AperFunction,Plated,PTH,ViaDrill
T5C0.400
; #@! TA.AperFunction,Plated,PTH,ComponentDrill
T6C0.500
; #@! TA.AperFunction,Plated,PTH,ComponentDrill
T7C0.550
; #@! TA.AperFunction,Plated,PTH,ComponentDrill
T8C0.700
%
G90
G05
T1
X68.237Y-75.62
X68.65Y-78.3
X69.43Y-81.37
X69.45Y-80.75
X69.6Y-75.9
X69.7Y-83.3
X69.8Y-82.4
X70.196Y-76.896
X70.2Y-81.5
X70.4Y-79.1
X70.518Y-79.829
X71.5Y-81.5
X71.5Y-83.1
X72.487Y-82.47
X72.75Y-78.9
X73.75Y-79.2
X74.15Y-80.25
X74.25Y-76.75
X75.05Y-77.9
X76.9Y-81.45
X77.8Y-79.8
X77.9Y-78.55
X78.6Y-80.65
X79.15Y-81.45
X79.25Y-82.7
X79.85Y-81.15
X80.225Y-83.235
X80.25Y-78.2
X82.05Y-78.225
X82.05Y-80.8
X83.45Y-78.1
X83.45Y-80.9
X84.1Y-82.6
X84.75Y-78.1
X85.025Y-79.525
X85.625Y-75.575
X86.35Y-75.45
X86.362Y-78.45
X86.366Y-76.395
X86.369Y-77.396
X86.95Y-82.725
X87.734Y-79.366
X88.737Y-79.366
X88.85Y-81.876
X89.738Y-79.366
X90.725Y-79.357
X91.725Y-79.36
X92.729Y-79.36
X93.458Y-79.364
X93.862Y-75.65
X93.874Y-76.9
X93.887Y-78.125
X93.911Y-78.95
X94.1Y-77.55
X94.6Y-81.4
X95.75Y-82.15
X95.85Y-79.725
X96.0Y-79.15
X98.4Y-83.5
X98.675Y-74.85
X99.002Y-83.127
X99.65Y-83.075
X100.25Y-83.45
X100.65Y-74.925
X101.1Y-83.275
X102.1Y-83.55
X103.5Y-75.6
X103.85Y-82.675
X104.441Y-79.205
X104.541Y-77.255
X104.741Y-75.755
X104.891Y-81.805
X105.041Y-76.755
X105.091Y-79.705
X105.1Y-80.5
X105.691Y-76.105
X105.781Y-83.562
X105.85Y-82.25
X105.95Y-77.45
X106.0Y-76.65
X106.264Y-81.245
X106.768Y-82.51
X106.85Y-77.0
X107.023Y-77.8
X107.203Y-78.539
X107.25Y-81.4
X107.35Y-79.65
X108.104Y-76.338
X108.282Y-81.824
X108.914Y-80.744
X109.562Y-81.248
X109.603Y-82.347
X110.057Y-80.753
X111.476Y-82.706
X112.45Y-75.55
X113.05Y-76.25
X113.063Y-82.066
X113.3Y-80.4
X119.88Y-76.657
X122.865Y-78.714
X123.38Y-76.865
X126.299Y-78.463
X126.999Y-78.463
X128.073Y-78.239
X131.454Y-77.623
X132.084Y-82.243
X133.073Y-77.127
X133.225Y-79.128
X133.472Y-76.12
X133.728Y-78.528
X134.114Y-79.211
X134.257Y-76.413
X134.381Y-81.843
X134.425Y-77.155
X134.435Y-78.38
X134.96Y-79.253
X135.471Y-80.869
X135.81Y-82.51
X137.305Y-76.526
X137.405Y-81.243
X137.515Y-77.654
X137.635Y-82.501
X138.189Y-79.291
X139.363Y-77.581
X139.765Y-81.593
X140.175Y-77.635
X140.773Y-81.909
X140.793Y-77.293
X141.37Y-78.65
X145.541Y-77.909
X146.995Y-75.5
X150.077Y-79.959
X152.861Y-80.062
X153.659Y-75.433
X154.557Y-78.002
X154.573Y-76.987
X155.264Y-78.736
X155.927Y-78.024
X155.975Y-76.886
X156.552Y-77.507
X156.685Y-78.386
X157.566Y-78.567
X157.86Y-76.971
T2
X108.857Y-76.961
X108.864Y-78.945
X110.9Y-78.57
X117.234Y-78.147
X136.062Y-76.575
X142.174Y-76.24
T3
X98.4Y-77.9
X98.4Y-79.0
X98.4Y-80.1
X99.1Y-77.1
X99.1Y-80.9
X99.6Y-77.9
X99.6Y-79.0
X99.6Y-80.1
X100.3Y-77.1
X100.3Y-80.9
X101.0Y-77.9
X101.0Y-79.0
X101.0Y-80.1
X101.6Y-77.1
X101.6Y-80.9
X102.2Y-77.9
X102.2Y-79.0
X102.2Y-80.1
T4
X69.7Y-77.75
X111.729Y-80.328
X113.8Y-77.7
X113.8Y-78.7
X114.95Y-78.15
X122.338Y-80.092
X130.602Y-76.031
X131.973Y-83.026
X140.154Y-76.609
X144.862Y-79.27
X146.561Y-76.336
X147.871Y-77.023
X155.638Y-75.557
X156.06Y-79.209
T5
X118.395Y-77.92
X119.934Y-79.444
X121.089Y-76.335
X122.102Y-76.324
X126.361Y-76.644
X127.224Y-77.278
X129.333Y-76.544
X131.357Y-78.43
X131.97Y-79.135
X138.674Y-78.137
X147.188Y-79.119
X149.854Y-76.314
X150.7Y-76.915
X157.958Y-75.694
X159.207Y-79.43
X159.223Y-77.464
T8
X114.569Y-83.377
X121.089Y-83.387
T6
X123.979Y-82.266G85X123.979Y-82.916
G05
X130.979Y-82.266G85X130.979Y-82.916
G05
T7
X124.829Y-79.891G85X125.129Y-79.891
G05
X129.829Y-79.891G85X130.129Y-79.891
G05
T0
M30
