%TF.GenerationSoftware,KiCad,Pcbnew,6.0.9-8da3e8f707~116~ubuntu22.04.1*%
%TF.CreationDate,2022-12-05T14:03:31-05:00*%
%TF.ProjectId,OSSG_v0p5,4f535347-5f76-4307-9035-2e6b69636164,v0.4*%
%TF.SameCoordinates,Original*%
%TF.FileFunction,Drillmap*%
%TF.FilePolarity,Positive*%
%FSLAX45Y45*%
G04 Gerber Fmt 4.5, Leading zero omitted, Abs format (unit mm)*
G04 Created by KiCad (PCBNEW 6.0.9-8da3e8f707~116~ubuntu22.04.1) date 2022-12-05 14:03:31*
%MOMM*%
%LPD*%
G01*
G04 APERTURE LIST*
%ADD10C,0.100000*%
%ADD11C,0.200000*%
%ADD12C,0.020000*%
%ADD13C,0.025000*%
%ADD14C,0.030000*%
%ADD15C,0.040000*%
%ADD16C,0.050000*%
%ADD17C,0.055000*%
%ADD18C,0.070000*%
G04 APERTURE END LIST*
D10*
X7920000Y-7635000D02*
G75*
G03*
X7920000Y-7635000I-60000J0D01*
G01*
X6700000Y-8400000D02*
X6700000Y-7500000D01*
X6700000Y-7500000D02*
X9500000Y-7500000D01*
X10600000Y-7350000D02*
X10600000Y-7500000D01*
X14502500Y-7720000D02*
G75*
G03*
X14502500Y-7720000I-60000J0D01*
G01*
X9500000Y-7350000D02*
X10600000Y-7350000D01*
X10600000Y-7500000D02*
X16000000Y-7500000D01*
X6700000Y-8400000D02*
X13500000Y-8400000D01*
X13500000Y-8400000D02*
X16000000Y-8000000D01*
X11575000Y-7607500D02*
G75*
G03*
X11575000Y-7607500I-60000J0D01*
G01*
X16000000Y-8000000D02*
X16000000Y-7500000D01*
X9500000Y-7500000D02*
X9500000Y-7350000D01*
D11*
D12*
X6813750Y-7552000D02*
X6833750Y-7572000D01*
X6833750Y-7552000D02*
X6813750Y-7572000D01*
X6855000Y-7820000D02*
X6875000Y-7840000D01*
X6875000Y-7820000D02*
X6855000Y-7840000D01*
X6933000Y-8127000D02*
X6953000Y-8147000D01*
X6953000Y-8127000D02*
X6933000Y-8147000D01*
X6935000Y-8065000D02*
X6955000Y-8085000D01*
X6955000Y-8065000D02*
X6935000Y-8085000D01*
X6950000Y-7580000D02*
X6970000Y-7600000D01*
X6970000Y-7580000D02*
X6950000Y-7600000D01*
X6960000Y-8320000D02*
X6980000Y-8340000D01*
X6980000Y-8320000D02*
X6960000Y-8340000D01*
X6970000Y-8230000D02*
X6990000Y-8250000D01*
X6990000Y-8230000D02*
X6970000Y-8250000D01*
X7009575Y-7679575D02*
X7029575Y-7699575D01*
X7029575Y-7679575D02*
X7009575Y-7699575D01*
X7010000Y-8140000D02*
X7030000Y-8160000D01*
X7030000Y-8140000D02*
X7010000Y-8160000D01*
X7030000Y-7900000D02*
X7050000Y-7920000D01*
X7050000Y-7900000D02*
X7030000Y-7920000D01*
X7041785Y-7972933D02*
X7061785Y-7992933D01*
X7061785Y-7972933D02*
X7041785Y-7992933D01*
X7140000Y-8140000D02*
X7160000Y-8160000D01*
X7160000Y-8140000D02*
X7140000Y-8160000D01*
X7140000Y-8300000D02*
X7160000Y-8320000D01*
X7160000Y-8300000D02*
X7140000Y-8320000D01*
X7238750Y-8237000D02*
X7258750Y-8257000D01*
X7258750Y-8237000D02*
X7238750Y-8257000D01*
X7265000Y-7880000D02*
X7285000Y-7900000D01*
X7285000Y-7880000D02*
X7265000Y-7900000D01*
X7365000Y-7910000D02*
X7385000Y-7930000D01*
X7385000Y-7910000D02*
X7365000Y-7930000D01*
X7405000Y-8015000D02*
X7425000Y-8035000D01*
X7425000Y-8015000D02*
X7405000Y-8035000D01*
X7415000Y-7665000D02*
X7435000Y-7685000D01*
X7435000Y-7665000D02*
X7415000Y-7685000D01*
X7495000Y-7780000D02*
X7515000Y-7800000D01*
X7515000Y-7780000D02*
X7495000Y-7800000D01*
X7680000Y-8135000D02*
X7700000Y-8155000D01*
X7700000Y-8135000D02*
X7680000Y-8155000D01*
X7770000Y-7970000D02*
X7790000Y-7990000D01*
X7790000Y-7970000D02*
X7770000Y-7990000D01*
X7780000Y-7845000D02*
X7800000Y-7865000D01*
X7800000Y-7845000D02*
X7780000Y-7865000D01*
X7850000Y-8055000D02*
X7870000Y-8075000D01*
X7870000Y-8055000D02*
X7850000Y-8075000D01*
X7905000Y-8135000D02*
X7925000Y-8155000D01*
X7925000Y-8135000D02*
X7905000Y-8155000D01*
X7915000Y-8260000D02*
X7935000Y-8280000D01*
X7935000Y-8260000D02*
X7915000Y-8280000D01*
X7975000Y-8105000D02*
X7995000Y-8125000D01*
X7995000Y-8105000D02*
X7975000Y-8125000D01*
X8012450Y-8313508D02*
X8032450Y-8333508D01*
X8032450Y-8313508D02*
X8012450Y-8333508D01*
X8015000Y-7810000D02*
X8035000Y-7830000D01*
X8035000Y-7810000D02*
X8015000Y-7830000D01*
X8195000Y-7812550D02*
X8215000Y-7832550D01*
X8215000Y-7812550D02*
X8195000Y-7832550D01*
X8195000Y-8070000D02*
X8215000Y-8090000D01*
X8215000Y-8070000D02*
X8195000Y-8090000D01*
X8335000Y-7800000D02*
X8355000Y-7820000D01*
X8355000Y-7800000D02*
X8335000Y-7820000D01*
X8335000Y-8080000D02*
X8355000Y-8100000D01*
X8355000Y-8080000D02*
X8335000Y-8100000D01*
X8400000Y-8250000D02*
X8420000Y-8270000D01*
X8420000Y-8250000D02*
X8400000Y-8270000D01*
X8465000Y-7800000D02*
X8485000Y-7820000D01*
X8485000Y-7800000D02*
X8465000Y-7820000D01*
X8492500Y-7942500D02*
X8512500Y-7962500D01*
X8512500Y-7942500D02*
X8492500Y-7962500D01*
X8552500Y-7547500D02*
X8572500Y-7567500D01*
X8572500Y-7547500D02*
X8552500Y-7567500D01*
X8625000Y-7535000D02*
X8645000Y-7555000D01*
X8645000Y-7535000D02*
X8625000Y-7555000D01*
X8626247Y-7835000D02*
X8646247Y-7855000D01*
X8646247Y-7835000D02*
X8626247Y-7855000D01*
X8626598Y-7629547D02*
X8646598Y-7649547D01*
X8646598Y-7629547D02*
X8626598Y-7649547D01*
X8626935Y-7729589D02*
X8646935Y-7749589D01*
X8646935Y-7729589D02*
X8626935Y-7749589D01*
X8685000Y-8262550D02*
X8705000Y-8282550D01*
X8705000Y-8262550D02*
X8685000Y-8282550D01*
X8763356Y-7926642D02*
X8783356Y-7946642D01*
X8783356Y-7926642D02*
X8763356Y-7946642D01*
X8863735Y-7926642D02*
X8883735Y-7946642D01*
X8883735Y-7926642D02*
X8863735Y-7946642D01*
X8875000Y-8177550D02*
X8895000Y-8197550D01*
X8895000Y-8177550D02*
X8875000Y-8197550D01*
X8963777Y-7926642D02*
X8983777Y-7946642D01*
X8983777Y-7926642D02*
X8963777Y-7946642D01*
X9062458Y-7925685D02*
X9082458Y-7945685D01*
X9082458Y-7925685D02*
X9062458Y-7945685D01*
X9162500Y-7926022D02*
X9182500Y-7946022D01*
X9182500Y-7926022D02*
X9162500Y-7946022D01*
X9262879Y-7926022D02*
X9282879Y-7946022D01*
X9282879Y-7926022D02*
X9262879Y-7946022D01*
X9335833Y-7926420D02*
X9355833Y-7946420D01*
X9355833Y-7926420D02*
X9335833Y-7946420D01*
X9376247Y-7555000D02*
X9396247Y-7575000D01*
X9396247Y-7555000D02*
X9376247Y-7575000D01*
X9377356Y-7679950D02*
X9397356Y-7699950D01*
X9397356Y-7679950D02*
X9377356Y-7699950D01*
X9378747Y-7802500D02*
X9398747Y-7822500D01*
X9398747Y-7802500D02*
X9378747Y-7822500D01*
X9381104Y-7884950D02*
X9401104Y-7904950D01*
X9401104Y-7884950D02*
X9381104Y-7904950D01*
X9400000Y-7745000D02*
X9420000Y-7765000D01*
X9420000Y-7745000D02*
X9400000Y-7765000D01*
X9450000Y-8130000D02*
X9470000Y-8150000D01*
X9470000Y-8130000D02*
X9450000Y-8150000D01*
X9565000Y-8205000D02*
X9585000Y-8225000D01*
X9585000Y-8205000D02*
X9565000Y-8225000D01*
X9575000Y-7962500D02*
X9595000Y-7982500D01*
X9595000Y-7962500D02*
X9575000Y-7982500D01*
X9590000Y-7905000D02*
X9610000Y-7925000D01*
X9610000Y-7905000D02*
X9590000Y-7925000D01*
X9830000Y-8340000D02*
X9850000Y-8360000D01*
X9850000Y-8340000D02*
X9830000Y-8360000D01*
X9857500Y-7475000D02*
X9877500Y-7495000D01*
X9877500Y-7475000D02*
X9857500Y-7495000D01*
X9890225Y-8302720D02*
X9910225Y-8322720D01*
X9910225Y-8302720D02*
X9890225Y-8322720D01*
X9955000Y-8297500D02*
X9975000Y-8317500D01*
X9975000Y-8297500D02*
X9955000Y-8317500D01*
X10015000Y-8335000D02*
X10035000Y-8355000D01*
X10035000Y-8335000D02*
X10015000Y-8355000D01*
X10055000Y-7482500D02*
X10075000Y-7502500D01*
X10075000Y-7482500D02*
X10055000Y-7502500D01*
X10100000Y-8317500D02*
X10120000Y-8337500D01*
X10120000Y-8317500D02*
X10100000Y-8337500D01*
X10200000Y-8345000D02*
X10220000Y-8365000D01*
X10220000Y-8345000D02*
X10200000Y-8365000D01*
X10340000Y-7550000D02*
X10360000Y-7570000D01*
X10360000Y-7550000D02*
X10340000Y-7570000D01*
X10375000Y-8257500D02*
X10395000Y-8277500D01*
X10395000Y-8257500D02*
X10375000Y-8277500D01*
X10434131Y-7910503D02*
X10454131Y-7930503D01*
X10454131Y-7910503D02*
X10434131Y-7930503D01*
X10444131Y-7715503D02*
X10464131Y-7735503D01*
X10464131Y-7715503D02*
X10444131Y-7735503D01*
X10464131Y-7565503D02*
X10484131Y-7585503D01*
X10484131Y-7565503D02*
X10464131Y-7585503D01*
X10479131Y-8170503D02*
X10499131Y-8190503D01*
X10499131Y-8170503D02*
X10479131Y-8190503D01*
X10494131Y-7665503D02*
X10514131Y-7685503D01*
X10514131Y-7665503D02*
X10494131Y-7685503D01*
X10499131Y-7960503D02*
X10519131Y-7980503D01*
X10519131Y-7960503D02*
X10499131Y-7980503D01*
X10500000Y-8040000D02*
X10520000Y-8060000D01*
X10520000Y-8040000D02*
X10500000Y-8060000D01*
X10559131Y-7600503D02*
X10579131Y-7620503D01*
X10579131Y-7600503D02*
X10559131Y-7620503D01*
X10568130Y-8346165D02*
X10588130Y-8366165D01*
X10588130Y-8346165D02*
X10568130Y-8366165D01*
X10575000Y-8215000D02*
X10595000Y-8235000D01*
X10595000Y-8215000D02*
X10575000Y-8235000D01*
X10585000Y-7735000D02*
X10605000Y-7755000D01*
X10605000Y-7735000D02*
X10585000Y-7755000D01*
X10590000Y-7655000D02*
X10610000Y-7675000D01*
X10610000Y-7655000D02*
X10590000Y-7675000D01*
X10616402Y-8114491D02*
X10636402Y-8134491D01*
X10636402Y-8114491D02*
X10616402Y-8134491D01*
X10666762Y-8240988D02*
X10686762Y-8260988D01*
X10686762Y-8240988D02*
X10666762Y-8260988D01*
X10675000Y-7690000D02*
X10695000Y-7710000D01*
X10695000Y-7690000D02*
X10675000Y-7710000D01*
X10692293Y-7770046D02*
X10712293Y-7790046D01*
X10712293Y-7770046D02*
X10692293Y-7790046D01*
X10710336Y-7843904D02*
X10730336Y-7863904D01*
X10730336Y-7843904D02*
X10710336Y-7863904D01*
X10715000Y-8130000D02*
X10735000Y-8150000D01*
X10735000Y-8130000D02*
X10715000Y-8150000D01*
X10725000Y-7955000D02*
X10745000Y-7975000D01*
X10745000Y-7955000D02*
X10725000Y-7975000D01*
X10800374Y-7623843D02*
X10820374Y-7643843D01*
X10820374Y-7623843D02*
X10800374Y-7643843D01*
X10818207Y-8172366D02*
X10838207Y-8192366D01*
X10838207Y-8172366D02*
X10818207Y-8192366D01*
X10881380Y-8064423D02*
X10901380Y-8084423D01*
X10901380Y-8064423D02*
X10881380Y-8084423D01*
X10946170Y-8114788D02*
X10966170Y-8134788D01*
X10966170Y-8114788D02*
X10946170Y-8134788D01*
X10950260Y-8224728D02*
X10970260Y-8244728D01*
X10970260Y-8224728D02*
X10950260Y-8244728D01*
X10995667Y-8065291D02*
X11015667Y-8085291D01*
X11015667Y-8065291D02*
X10995667Y-8085291D01*
X11137626Y-8260572D02*
X11157626Y-8280572D01*
X11157626Y-8260572D02*
X11137626Y-8280572D01*
X11235000Y-7545000D02*
X11255000Y-7565000D01*
X11255000Y-7545000D02*
X11235000Y-7565000D01*
X11295000Y-7615000D02*
X11315000Y-7635000D01*
X11315000Y-7615000D02*
X11295000Y-7635000D01*
X11296251Y-8196643D02*
X11316251Y-8216643D01*
X11316251Y-8196643D02*
X11296251Y-8216643D01*
X11320000Y-8030000D02*
X11340000Y-8050000D01*
X11340000Y-8030000D02*
X11320000Y-8050000D01*
X11977967Y-7655673D02*
X11997967Y-7675673D01*
X11997967Y-7655673D02*
X11977967Y-7675673D01*
X12276546Y-7861373D02*
X12296546Y-7881373D01*
X12296546Y-7861373D02*
X12276546Y-7881373D01*
X12328039Y-7676455D02*
X12348039Y-7696455D01*
X12348039Y-7676455D02*
X12328039Y-7696455D01*
X12619871Y-7836309D02*
X12639871Y-7856309D01*
X12639871Y-7836309D02*
X12619871Y-7856309D01*
X12689871Y-7836309D02*
X12709871Y-7856309D01*
X12709871Y-7836309D02*
X12689871Y-7856309D01*
X12797332Y-7813850D02*
X12817332Y-7833850D01*
X12817332Y-7813850D02*
X12797332Y-7833850D01*
X13135366Y-7752263D02*
X13155366Y-7772263D01*
X13155366Y-7752263D02*
X13135366Y-7772263D01*
X13198381Y-8214331D02*
X13218381Y-8234331D01*
X13218381Y-8214331D02*
X13198381Y-8234331D01*
X13297335Y-7702701D02*
X13317335Y-7722701D01*
X13317335Y-7702701D02*
X13297335Y-7722701D01*
X13312505Y-7902815D02*
X13332505Y-7922815D01*
X13332505Y-7902815D02*
X13312505Y-7922815D01*
X13337154Y-7602018D02*
X13357154Y-7622018D01*
X13357154Y-7602018D02*
X13337154Y-7622018D01*
X13362789Y-7842767D02*
X13382789Y-7862767D01*
X13382789Y-7842767D02*
X13362789Y-7862767D01*
X13401403Y-7911088D02*
X13421403Y-7931088D01*
X13421403Y-7911088D02*
X13401403Y-7931088D01*
X13415681Y-7631279D02*
X13435681Y-7651279D01*
X13435681Y-7631279D02*
X13415681Y-7651279D01*
X13428114Y-8174304D02*
X13448114Y-8194304D01*
X13448114Y-8174304D02*
X13428114Y-8194304D01*
X13432487Y-7705505D02*
X13452487Y-7725505D01*
X13452487Y-7705505D02*
X13432487Y-7725505D01*
X13433482Y-7827966D02*
X13453482Y-7847966D01*
X13453482Y-7827966D02*
X13433482Y-7847966D01*
X13485955Y-7915327D02*
X13505955Y-7935327D01*
X13505955Y-7915327D02*
X13485955Y-7935327D01*
X13537080Y-8076854D02*
X13557080Y-8096854D01*
X13557080Y-8076854D02*
X13537080Y-8096854D01*
X13571013Y-8241020D02*
X13591013Y-8261020D01*
X13591013Y-8241020D02*
X13571013Y-8261020D01*
X13720530Y-7642573D02*
X13740530Y-7662573D01*
X13740530Y-7642573D02*
X13720530Y-7662573D01*
X13730510Y-8114336D02*
X13750510Y-8134336D01*
X13750510Y-8114336D02*
X13730510Y-8134336D01*
X13741517Y-7755370D02*
X13761517Y-7775370D01*
X13761517Y-7755370D02*
X13741517Y-7775370D01*
X13753510Y-8240058D02*
X13773510Y-8260058D01*
X13773510Y-8240058D02*
X13753510Y-8260058D01*
X13808899Y-7919124D02*
X13828899Y-7939124D01*
X13828899Y-7919124D02*
X13808899Y-7939124D01*
X13926277Y-7748069D02*
X13946277Y-7768069D01*
X13946277Y-7748069D02*
X13926277Y-7768069D01*
X13966468Y-8149259D02*
X13986468Y-8169259D01*
X13986468Y-8149259D02*
X13966468Y-8169259D01*
X14007483Y-7753496D02*
X14027483Y-7773496D01*
X14027483Y-7753496D02*
X14007483Y-7773496D01*
X14067277Y-8180879D02*
X14087277Y-8200879D01*
X14087277Y-8180879D02*
X14067277Y-8200879D01*
X14069327Y-7719291D02*
X14089327Y-7739291D01*
X14089327Y-7719291D02*
X14069327Y-7739291D01*
X14126986Y-7855011D02*
X14146986Y-7875011D01*
X14146986Y-7855011D02*
X14126986Y-7875011D01*
X14544138Y-7780933D02*
X14564138Y-7800933D01*
X14564138Y-7780933D02*
X14544138Y-7800933D01*
X14689487Y-7539985D02*
X14709487Y-7559985D01*
X14709487Y-7539985D02*
X14689487Y-7559985D01*
X14997704Y-7985856D02*
X15017704Y-8005856D01*
X15017704Y-7985856D02*
X14997704Y-8005856D01*
X15276086Y-7996222D02*
X15296086Y-8016222D01*
X15296086Y-7996222D02*
X15276086Y-8016222D01*
X15355859Y-7533270D02*
X15375859Y-7553270D01*
X15375859Y-7533270D02*
X15355859Y-7553270D01*
X15445724Y-7790157D02*
X15465724Y-7810157D01*
X15465724Y-7790157D02*
X15445724Y-7810157D01*
X15447291Y-7688727D02*
X15467291Y-7708727D01*
X15467291Y-7688727D02*
X15447291Y-7708727D01*
X15516395Y-7863580D02*
X15536395Y-7883580D01*
X15536395Y-7863580D02*
X15516395Y-7883580D01*
X15582712Y-7792374D02*
X15602712Y-7812374D01*
X15602712Y-7792374D02*
X15582712Y-7812374D01*
X15587542Y-7678578D02*
X15607542Y-7698578D01*
X15607542Y-7678578D02*
X15587542Y-7698578D01*
X15645172Y-7740738D02*
X15665172Y-7760738D01*
X15665172Y-7740738D02*
X15645172Y-7760738D01*
X15658482Y-7828643D02*
X15678482Y-7848643D01*
X15678482Y-7828643D02*
X15658482Y-7848643D01*
X15746582Y-7846735D02*
X15766582Y-7866735D01*
X15766582Y-7846735D02*
X15746582Y-7866735D01*
X15775954Y-7687113D02*
X15795954Y-7707113D01*
X15795954Y-7687113D02*
X15775954Y-7707113D01*
D13*
X10898216Y-7696076D02*
G75*
G03*
X10898216Y-7696076I-12500J0D01*
G01*
X10898865Y-7894543D02*
G75*
G03*
X10898865Y-7894543I-12500J0D01*
G01*
X11102470Y-7856952D02*
G75*
G03*
X11102470Y-7856952I-12500J0D01*
G01*
X11735901Y-7814662D02*
G75*
G03*
X11735901Y-7814662I-12500J0D01*
G01*
X13618651Y-7657522D02*
G75*
G03*
X13618651Y-7657522I-12500J0D01*
G01*
X14229854Y-7623988D02*
G75*
G03*
X14229854Y-7623988I-12500J0D01*
G01*
X9840000Y-7777500D02*
X9840000Y-7802500D01*
X9827500Y-7790000D02*
X9852500Y-7790000D01*
X9840000Y-7887500D02*
X9840000Y-7912500D01*
X9827500Y-7900000D02*
X9852500Y-7900000D01*
X9840000Y-7997500D02*
X9840000Y-8022500D01*
X9827500Y-8010000D02*
X9852500Y-8010000D01*
X9910000Y-7697500D02*
X9910000Y-7722500D01*
X9897500Y-7710000D02*
X9922500Y-7710000D01*
X9910000Y-8077500D02*
X9910000Y-8102500D01*
X9897500Y-8090000D02*
X9922500Y-8090000D01*
X9960000Y-7777500D02*
X9960000Y-7802500D01*
X9947500Y-7790000D02*
X9972500Y-7790000D01*
X9960000Y-7887500D02*
X9960000Y-7912500D01*
X9947500Y-7900000D02*
X9972500Y-7900000D01*
X9960000Y-7997500D02*
X9960000Y-8022500D01*
X9947500Y-8010000D02*
X9972500Y-8010000D01*
X10030000Y-7697500D02*
X10030000Y-7722500D01*
X10017500Y-7710000D02*
X10042500Y-7710000D01*
X10030000Y-8077500D02*
X10030000Y-8102500D01*
X10017500Y-8090000D02*
X10042500Y-8090000D01*
X10100000Y-7777500D02*
X10100000Y-7802500D01*
X10087500Y-7790000D02*
X10112500Y-7790000D01*
X10100000Y-7887500D02*
X10100000Y-7912500D01*
X10087500Y-7900000D02*
X10112500Y-7900000D01*
X10100000Y-7997500D02*
X10100000Y-8022500D01*
X10087500Y-8010000D02*
X10112500Y-8010000D01*
X10160000Y-7697500D02*
X10160000Y-7722500D01*
X10147500Y-7710000D02*
X10172500Y-7710000D01*
X10160000Y-8077500D02*
X10160000Y-8102500D01*
X10147500Y-8090000D02*
X10172500Y-8090000D01*
X10220000Y-7777500D02*
X10220000Y-7802500D01*
X10207500Y-7790000D02*
X10232500Y-7790000D01*
X10220000Y-7887500D02*
X10220000Y-7912500D01*
X10207500Y-7900000D02*
X10232500Y-7900000D01*
X10220000Y-7997500D02*
X10220000Y-8022500D01*
X10207500Y-8010000D02*
X10232500Y-8010000D01*
D14*
X6980607Y-7785607D02*
X6980607Y-7764393D01*
X6959393Y-7764393D01*
X6959393Y-7785607D01*
X6980607Y-7785607D01*
X11183479Y-8043442D02*
X11183479Y-8022228D01*
X11162266Y-8022228D01*
X11162266Y-8043442D01*
X11183479Y-8043442D01*
X11390607Y-7780607D02*
X11390607Y-7759393D01*
X11369393Y-7759393D01*
X11369393Y-7780607D01*
X11390607Y-7780607D01*
X11390607Y-7880607D02*
X11390607Y-7859393D01*
X11369393Y-7859393D01*
X11369393Y-7880607D01*
X11390607Y-7880607D01*
X11505607Y-7825607D02*
X11505607Y-7804393D01*
X11484393Y-7804393D01*
X11484393Y-7825607D01*
X11505607Y-7825607D01*
X12244445Y-8019840D02*
X12244445Y-7998627D01*
X12223231Y-7998627D01*
X12223231Y-8019840D01*
X12244445Y-8019840D01*
X13070818Y-7613755D02*
X13070818Y-7592541D01*
X13049605Y-7592541D01*
X13049605Y-7613755D01*
X13070818Y-7613755D01*
X13207883Y-8313226D02*
X13207883Y-8292012D01*
X13186669Y-8292012D01*
X13186669Y-8313226D01*
X13207883Y-8313226D01*
X14025977Y-7671495D02*
X14025977Y-7650281D01*
X14004764Y-7650281D01*
X14004764Y-7671495D01*
X14025977Y-7671495D01*
X14496846Y-7937579D02*
X14496846Y-7916365D01*
X14475632Y-7916365D01*
X14475632Y-7937579D01*
X14496846Y-7937579D01*
X14666714Y-7644206D02*
X14666714Y-7622992D01*
X14645500Y-7622992D01*
X14645500Y-7644206D01*
X14666714Y-7644206D01*
X14797678Y-7712889D02*
X14797678Y-7691676D01*
X14776465Y-7691676D01*
X14776465Y-7712889D01*
X14797678Y-7712889D01*
X15574378Y-7566306D02*
X15574378Y-7545092D01*
X15553164Y-7545092D01*
X15553164Y-7566306D01*
X15574378Y-7566306D01*
X15616651Y-7931549D02*
X15616651Y-7910335D01*
X15595437Y-7910335D01*
X15595437Y-7931549D01*
X15616651Y-7931549D01*
D15*
X11839498Y-7811967D02*
X11859498Y-7791967D01*
X11839498Y-7771967D01*
X11819498Y-7791967D01*
X11839498Y-7811967D01*
X11993359Y-7964423D02*
X12013359Y-7944423D01*
X11993359Y-7924423D01*
X11973359Y-7944423D01*
X11993359Y-7964423D01*
X12108851Y-7653458D02*
X12128851Y-7633458D01*
X12108851Y-7613458D01*
X12088851Y-7633458D01*
X12108851Y-7653458D01*
X12210236Y-7652381D02*
X12230236Y-7632381D01*
X12210236Y-7612381D01*
X12190236Y-7632381D01*
X12210236Y-7652381D01*
X12636080Y-7684386D02*
X12656080Y-7664386D01*
X12636080Y-7644386D01*
X12616080Y-7664386D01*
X12636080Y-7684386D01*
X12722411Y-7747848D02*
X12742411Y-7727848D01*
X12722411Y-7707848D01*
X12702411Y-7727848D01*
X12722411Y-7747848D01*
X12933299Y-7674386D02*
X12953299Y-7654386D01*
X12933299Y-7634386D01*
X12913299Y-7654386D01*
X12933299Y-7674386D01*
X13135665Y-7862965D02*
X13155665Y-7842965D01*
X13135665Y-7822965D01*
X13115665Y-7842965D01*
X13135665Y-7862965D01*
X13196997Y-7933549D02*
X13216997Y-7913549D01*
X13196997Y-7893549D01*
X13176997Y-7913549D01*
X13196997Y-7933549D01*
X13867405Y-7833738D02*
X13887405Y-7813738D01*
X13867405Y-7793738D01*
X13847405Y-7813738D01*
X13867405Y-7833738D01*
X14718775Y-7931944D02*
X14738775Y-7911944D01*
X14718775Y-7891944D01*
X14698775Y-7911944D01*
X14718775Y-7931944D01*
X14985366Y-7651446D02*
X15005366Y-7631446D01*
X14985366Y-7611446D01*
X14965366Y-7631446D01*
X14985366Y-7651446D01*
X15070020Y-7711453D02*
X15090020Y-7691453D01*
X15070020Y-7671453D01*
X15050020Y-7691453D01*
X15070020Y-7711453D01*
X15795826Y-7589408D02*
X15815826Y-7569408D01*
X15795826Y-7549408D01*
X15775826Y-7569408D01*
X15795826Y-7589408D01*
X15920694Y-7963006D02*
X15940694Y-7943006D01*
X15920694Y-7923006D01*
X15900694Y-7943006D01*
X15920694Y-7963006D01*
X15922290Y-7766430D02*
X15942290Y-7746430D01*
X15922290Y-7726430D01*
X15902290Y-7746430D01*
X15922290Y-7766430D01*
D16*
X12372911Y-8234074D02*
X12422911Y-8284074D01*
X12422911Y-8234074D02*
X12372911Y-8284074D01*
X12422911Y-8259074D02*
G75*
G03*
X12422911Y-8259074I-25000J0D01*
G01*
D11*
X12372911Y-8226574D02*
X12372911Y-8291574D01*
X12422911Y-8226574D02*
X12422911Y-8291574D01*
X12372911Y-8291574D02*
G75*
G03*
X12422911Y-8291574I25000J0D01*
G01*
X12422911Y-8226574D02*
G75*
G03*
X12372911Y-8226574I-25000J0D01*
G01*
D16*
X13072911Y-8234074D02*
X13122911Y-8284074D01*
X13122911Y-8234074D02*
X13072911Y-8284074D01*
X13122911Y-8259074D02*
G75*
G03*
X13122911Y-8259074I-25000J0D01*
G01*
D11*
X13072911Y-8226574D02*
X13072911Y-8291574D01*
X13122911Y-8226574D02*
X13122911Y-8291574D01*
X13072911Y-8291574D02*
G75*
G03*
X13122911Y-8291574I25000J0D01*
G01*
X13122911Y-8226574D02*
G75*
G03*
X13072911Y-8226574I-25000J0D01*
G01*
D17*
X12470411Y-7961574D02*
X12525411Y-8016574D01*
X12525411Y-7961574D02*
X12470411Y-8016574D01*
X12497911Y-7961574D02*
X12497911Y-8016574D01*
X12470411Y-7989074D02*
X12525411Y-7989074D01*
D11*
X12482911Y-8016574D02*
X12512911Y-8016574D01*
X12482911Y-7961574D02*
X12512911Y-7961574D01*
X12512911Y-8016574D02*
G75*
G03*
X12512911Y-7961574I0J27500D01*
G01*
X12482911Y-7961574D02*
G75*
G03*
X12482911Y-8016574I0J-27500D01*
G01*
D17*
X12970411Y-7961574D02*
X13025411Y-8016574D01*
X13025411Y-7961574D02*
X12970411Y-8016574D01*
X12997911Y-7961574D02*
X12997911Y-8016574D01*
X12970411Y-7989074D02*
X13025411Y-7989074D01*
D11*
X12982911Y-8016574D02*
X13012911Y-8016574D01*
X12982911Y-7961574D02*
X13012911Y-7961574D01*
X13012911Y-8016574D02*
G75*
G03*
X13012911Y-7961574I0J27500D01*
G01*
X12982911Y-7961574D02*
G75*
G03*
X12982911Y-8016574I0J-27500D01*
G01*
D18*
X11421884Y-8302687D02*
X11491884Y-8372687D01*
X11491884Y-8302687D02*
X11421884Y-8372687D01*
X11481633Y-8362436D02*
X11481633Y-8312938D01*
X11432135Y-8312938D01*
X11432135Y-8362436D01*
X11481633Y-8362436D01*
X12073884Y-8303687D02*
X12143884Y-8373687D01*
X12143884Y-8303687D02*
X12073884Y-8373687D01*
X12133633Y-8363436D02*
X12133633Y-8313938D01*
X12084135Y-8313938D01*
X12084135Y-8363436D01*
X12133633Y-8363436D01*
D11*
X6952619Y-8715476D02*
X6952619Y-8515476D01*
X7000238Y-8515476D01*
X7028809Y-8525000D01*
X7047857Y-8544048D01*
X7057381Y-8563095D01*
X7066905Y-8601190D01*
X7066905Y-8629762D01*
X7057381Y-8667857D01*
X7047857Y-8686905D01*
X7028809Y-8705952D01*
X7000238Y-8715476D01*
X6952619Y-8715476D01*
X7152619Y-8715476D02*
X7152619Y-8582143D01*
X7152619Y-8620238D02*
X7162143Y-8601190D01*
X7171667Y-8591667D01*
X7190714Y-8582143D01*
X7209762Y-8582143D01*
X7276428Y-8715476D02*
X7276428Y-8582143D01*
X7276428Y-8515476D02*
X7266905Y-8525000D01*
X7276428Y-8534524D01*
X7285952Y-8525000D01*
X7276428Y-8515476D01*
X7276428Y-8534524D01*
X7400238Y-8715476D02*
X7381190Y-8705952D01*
X7371667Y-8686905D01*
X7371667Y-8515476D01*
X7505000Y-8715476D02*
X7485952Y-8705952D01*
X7476428Y-8686905D01*
X7476428Y-8515476D01*
X7733571Y-8715476D02*
X7733571Y-8515476D01*
X7800238Y-8658333D01*
X7866905Y-8515476D01*
X7866905Y-8715476D01*
X8047857Y-8715476D02*
X8047857Y-8610714D01*
X8038333Y-8591667D01*
X8019286Y-8582143D01*
X7981190Y-8582143D01*
X7962143Y-8591667D01*
X8047857Y-8705952D02*
X8028809Y-8715476D01*
X7981190Y-8715476D01*
X7962143Y-8705952D01*
X7952619Y-8686905D01*
X7952619Y-8667857D01*
X7962143Y-8648810D01*
X7981190Y-8639286D01*
X8028809Y-8639286D01*
X8047857Y-8629762D01*
X8143095Y-8582143D02*
X8143095Y-8782143D01*
X8143095Y-8591667D02*
X8162143Y-8582143D01*
X8200238Y-8582143D01*
X8219286Y-8591667D01*
X8228809Y-8601190D01*
X8238333Y-8620238D01*
X8238333Y-8677381D01*
X8228809Y-8696429D01*
X8219286Y-8705952D01*
X8200238Y-8715476D01*
X8162143Y-8715476D01*
X8143095Y-8705952D01*
X8324048Y-8696429D02*
X8333571Y-8705952D01*
X8324048Y-8715476D01*
X8314524Y-8705952D01*
X8324048Y-8696429D01*
X8324048Y-8715476D01*
X8324048Y-8591667D02*
X8333571Y-8601190D01*
X8324048Y-8610714D01*
X8314524Y-8601190D01*
X8324048Y-8591667D01*
X8324048Y-8610714D01*
D12*
X6675000Y-9035000D02*
X6695000Y-9055000D01*
X6695000Y-9035000D02*
X6675000Y-9055000D01*
D11*
X6990714Y-8935476D02*
X7009762Y-8935476D01*
X7028809Y-8945000D01*
X7038333Y-8954524D01*
X7047857Y-8973571D01*
X7057381Y-9011667D01*
X7057381Y-9059286D01*
X7047857Y-9097381D01*
X7038333Y-9116429D01*
X7028809Y-9125952D01*
X7009762Y-9135476D01*
X6990714Y-9135476D01*
X6971667Y-9125952D01*
X6962143Y-9116429D01*
X6952619Y-9097381D01*
X6943095Y-9059286D01*
X6943095Y-9011667D01*
X6952619Y-8973571D01*
X6962143Y-8954524D01*
X6971667Y-8945000D01*
X6990714Y-8935476D01*
X7143095Y-9116429D02*
X7152619Y-9125952D01*
X7143095Y-9135476D01*
X7133571Y-9125952D01*
X7143095Y-9116429D01*
X7143095Y-9135476D01*
X7228809Y-8954524D02*
X7238333Y-8945000D01*
X7257381Y-8935476D01*
X7305000Y-8935476D01*
X7324048Y-8945000D01*
X7333571Y-8954524D01*
X7343095Y-8973571D01*
X7343095Y-8992619D01*
X7333571Y-9021190D01*
X7219286Y-9135476D01*
X7343095Y-9135476D01*
X7466905Y-8935476D02*
X7485952Y-8935476D01*
X7505000Y-8945000D01*
X7514524Y-8954524D01*
X7524048Y-8973571D01*
X7533571Y-9011667D01*
X7533571Y-9059286D01*
X7524048Y-9097381D01*
X7514524Y-9116429D01*
X7505000Y-9125952D01*
X7485952Y-9135476D01*
X7466905Y-9135476D01*
X7447857Y-9125952D01*
X7438333Y-9116429D01*
X7428809Y-9097381D01*
X7419286Y-9059286D01*
X7419286Y-9011667D01*
X7428809Y-8973571D01*
X7438333Y-8954524D01*
X7447857Y-8945000D01*
X7466905Y-8935476D01*
X7657381Y-8935476D02*
X7676428Y-8935476D01*
X7695476Y-8945000D01*
X7705000Y-8954524D01*
X7714524Y-8973571D01*
X7724048Y-9011667D01*
X7724048Y-9059286D01*
X7714524Y-9097381D01*
X7705000Y-9116429D01*
X7695476Y-9125952D01*
X7676428Y-9135476D01*
X7657381Y-9135476D01*
X7638333Y-9125952D01*
X7628809Y-9116429D01*
X7619286Y-9097381D01*
X7609762Y-9059286D01*
X7609762Y-9011667D01*
X7619286Y-8973571D01*
X7628809Y-8954524D01*
X7638333Y-8945000D01*
X7657381Y-8935476D01*
X7809762Y-9135476D02*
X7809762Y-9002143D01*
X7809762Y-9021190D02*
X7819286Y-9011667D01*
X7838333Y-9002143D01*
X7866905Y-9002143D01*
X7885952Y-9011667D01*
X7895476Y-9030714D01*
X7895476Y-9135476D01*
X7895476Y-9030714D02*
X7905000Y-9011667D01*
X7924048Y-9002143D01*
X7952619Y-9002143D01*
X7971667Y-9011667D01*
X7981190Y-9030714D01*
X7981190Y-9135476D01*
X8076428Y-9135476D02*
X8076428Y-9002143D01*
X8076428Y-9021190D02*
X8085952Y-9011667D01*
X8105000Y-9002143D01*
X8133571Y-9002143D01*
X8152619Y-9011667D01*
X8162143Y-9030714D01*
X8162143Y-9135476D01*
X8162143Y-9030714D02*
X8171667Y-9011667D01*
X8190714Y-9002143D01*
X8219286Y-9002143D01*
X8238333Y-9011667D01*
X8247857Y-9030714D01*
X8247857Y-9135476D01*
X8638333Y-8925952D02*
X8466905Y-9183095D01*
X8895476Y-8935476D02*
X8914524Y-8935476D01*
X8933571Y-8945000D01*
X8943095Y-8954524D01*
X8952619Y-8973571D01*
X8962143Y-9011667D01*
X8962143Y-9059286D01*
X8952619Y-9097381D01*
X8943095Y-9116429D01*
X8933571Y-9125952D01*
X8914524Y-9135476D01*
X8895476Y-9135476D01*
X8876429Y-9125952D01*
X8866905Y-9116429D01*
X8857381Y-9097381D01*
X8847857Y-9059286D01*
X8847857Y-9011667D01*
X8857381Y-8973571D01*
X8866905Y-8954524D01*
X8876429Y-8945000D01*
X8895476Y-8935476D01*
X9047857Y-9116429D02*
X9057381Y-9125952D01*
X9047857Y-9135476D01*
X9038333Y-9125952D01*
X9047857Y-9116429D01*
X9047857Y-9135476D01*
X9181190Y-8935476D02*
X9200238Y-8935476D01*
X9219286Y-8945000D01*
X9228810Y-8954524D01*
X9238333Y-8973571D01*
X9247857Y-9011667D01*
X9247857Y-9059286D01*
X9238333Y-9097381D01*
X9228810Y-9116429D01*
X9219286Y-9125952D01*
X9200238Y-9135476D01*
X9181190Y-9135476D01*
X9162143Y-9125952D01*
X9152619Y-9116429D01*
X9143095Y-9097381D01*
X9133571Y-9059286D01*
X9133571Y-9011667D01*
X9143095Y-8973571D01*
X9152619Y-8954524D01*
X9162143Y-8945000D01*
X9181190Y-8935476D01*
X9371667Y-8935476D02*
X9390714Y-8935476D01*
X9409762Y-8945000D01*
X9419286Y-8954524D01*
X9428810Y-8973571D01*
X9438333Y-9011667D01*
X9438333Y-9059286D01*
X9428810Y-9097381D01*
X9419286Y-9116429D01*
X9409762Y-9125952D01*
X9390714Y-9135476D01*
X9371667Y-9135476D01*
X9352619Y-9125952D01*
X9343095Y-9116429D01*
X9333571Y-9097381D01*
X9324048Y-9059286D01*
X9324048Y-9011667D01*
X9333571Y-8973571D01*
X9343095Y-8954524D01*
X9352619Y-8945000D01*
X9371667Y-8935476D01*
X9505000Y-8935476D02*
X9638333Y-8935476D01*
X9552619Y-9135476D01*
X9724048Y-9135476D02*
X9762143Y-9135476D01*
X9781190Y-9125952D01*
X9790714Y-9116429D01*
X9809762Y-9087857D01*
X9819286Y-9049762D01*
X9819286Y-8973571D01*
X9809762Y-8954524D01*
X9800238Y-8945000D01*
X9781190Y-8935476D01*
X9743095Y-8935476D01*
X9724048Y-8945000D01*
X9714524Y-8954524D01*
X9705000Y-8973571D01*
X9705000Y-9021190D01*
X9714524Y-9040238D01*
X9724048Y-9049762D01*
X9743095Y-9059286D01*
X9781190Y-9059286D01*
X9800238Y-9049762D01*
X9809762Y-9040238D01*
X9819286Y-9021190D01*
X9895476Y-8935476D02*
X9895476Y-8973571D01*
X9971667Y-8935476D02*
X9971667Y-8973571D01*
X10266905Y-9211667D02*
X10257381Y-9202143D01*
X10238333Y-9173571D01*
X10228810Y-9154524D01*
X10219286Y-9125952D01*
X10209762Y-9078333D01*
X10209762Y-9040238D01*
X10219286Y-8992619D01*
X10228810Y-8964048D01*
X10238333Y-8945000D01*
X10257381Y-8916429D01*
X10266905Y-8906905D01*
X10447857Y-9135476D02*
X10333571Y-9135476D01*
X10390714Y-9135476D02*
X10390714Y-8935476D01*
X10371667Y-8964048D01*
X10352619Y-8983095D01*
X10333571Y-8992619D01*
X10619286Y-9002143D02*
X10619286Y-9135476D01*
X10571667Y-8925952D02*
X10524048Y-9068810D01*
X10647857Y-9068810D01*
X10705000Y-8935476D02*
X10828810Y-8935476D01*
X10762143Y-9011667D01*
X10790714Y-9011667D01*
X10809762Y-9021190D01*
X10819286Y-9030714D01*
X10828810Y-9049762D01*
X10828810Y-9097381D01*
X10819286Y-9116429D01*
X10809762Y-9125952D01*
X10790714Y-9135476D01*
X10733571Y-9135476D01*
X10714524Y-9125952D01*
X10705000Y-9116429D01*
X11066905Y-9135476D02*
X11066905Y-8935476D01*
X11152619Y-9135476D02*
X11152619Y-9030714D01*
X11143095Y-9011667D01*
X11124048Y-9002143D01*
X11095476Y-9002143D01*
X11076429Y-9011667D01*
X11066905Y-9021190D01*
X11276428Y-9135476D02*
X11257381Y-9125952D01*
X11247857Y-9116429D01*
X11238333Y-9097381D01*
X11238333Y-9040238D01*
X11247857Y-9021190D01*
X11257381Y-9011667D01*
X11276428Y-9002143D01*
X11305000Y-9002143D01*
X11324048Y-9011667D01*
X11333571Y-9021190D01*
X11343095Y-9040238D01*
X11343095Y-9097381D01*
X11333571Y-9116429D01*
X11324048Y-9125952D01*
X11305000Y-9135476D01*
X11276428Y-9135476D01*
X11457381Y-9135476D02*
X11438333Y-9125952D01*
X11428809Y-9106905D01*
X11428809Y-8935476D01*
X11609762Y-9125952D02*
X11590714Y-9135476D01*
X11552619Y-9135476D01*
X11533571Y-9125952D01*
X11524048Y-9106905D01*
X11524048Y-9030714D01*
X11533571Y-9011667D01*
X11552619Y-9002143D01*
X11590714Y-9002143D01*
X11609762Y-9011667D01*
X11619286Y-9030714D01*
X11619286Y-9049762D01*
X11524048Y-9068810D01*
X11695476Y-9125952D02*
X11714524Y-9135476D01*
X11752619Y-9135476D01*
X11771667Y-9125952D01*
X11781190Y-9106905D01*
X11781190Y-9097381D01*
X11771667Y-9078333D01*
X11752619Y-9068810D01*
X11724048Y-9068810D01*
X11705000Y-9059286D01*
X11695476Y-9040238D01*
X11695476Y-9030714D01*
X11705000Y-9011667D01*
X11724048Y-9002143D01*
X11752619Y-9002143D01*
X11771667Y-9011667D01*
X11847857Y-9211667D02*
X11857381Y-9202143D01*
X11876428Y-9173571D01*
X11885952Y-9154524D01*
X11895476Y-9125952D01*
X11905000Y-9078333D01*
X11905000Y-9040238D01*
X11895476Y-8992619D01*
X11885952Y-8964048D01*
X11876428Y-8945000D01*
X11857381Y-8916429D01*
X11847857Y-8906905D01*
D13*
X6695000Y-9309000D02*
G75*
G03*
X6695000Y-9309000I-12500J0D01*
G01*
D11*
X6990714Y-9199476D02*
X7009762Y-9199476D01*
X7028809Y-9209000D01*
X7038333Y-9218524D01*
X7047857Y-9237571D01*
X7057381Y-9275667D01*
X7057381Y-9323286D01*
X7047857Y-9361381D01*
X7038333Y-9380429D01*
X7028809Y-9389952D01*
X7009762Y-9399476D01*
X6990714Y-9399476D01*
X6971667Y-9389952D01*
X6962143Y-9380429D01*
X6952619Y-9361381D01*
X6943095Y-9323286D01*
X6943095Y-9275667D01*
X6952619Y-9237571D01*
X6962143Y-9218524D01*
X6971667Y-9209000D01*
X6990714Y-9199476D01*
X7143095Y-9380429D02*
X7152619Y-9389952D01*
X7143095Y-9399476D01*
X7133571Y-9389952D01*
X7143095Y-9380429D01*
X7143095Y-9399476D01*
X7228809Y-9218524D02*
X7238333Y-9209000D01*
X7257381Y-9199476D01*
X7305000Y-9199476D01*
X7324048Y-9209000D01*
X7333571Y-9218524D01*
X7343095Y-9237571D01*
X7343095Y-9256619D01*
X7333571Y-9285190D01*
X7219286Y-9399476D01*
X7343095Y-9399476D01*
X7524048Y-9199476D02*
X7428809Y-9199476D01*
X7419286Y-9294714D01*
X7428809Y-9285190D01*
X7447857Y-9275667D01*
X7495476Y-9275667D01*
X7514524Y-9285190D01*
X7524048Y-9294714D01*
X7533571Y-9313762D01*
X7533571Y-9361381D01*
X7524048Y-9380429D01*
X7514524Y-9389952D01*
X7495476Y-9399476D01*
X7447857Y-9399476D01*
X7428809Y-9389952D01*
X7419286Y-9380429D01*
X7657381Y-9199476D02*
X7676428Y-9199476D01*
X7695476Y-9209000D01*
X7705000Y-9218524D01*
X7714524Y-9237571D01*
X7724048Y-9275667D01*
X7724048Y-9323286D01*
X7714524Y-9361381D01*
X7705000Y-9380429D01*
X7695476Y-9389952D01*
X7676428Y-9399476D01*
X7657381Y-9399476D01*
X7638333Y-9389952D01*
X7628809Y-9380429D01*
X7619286Y-9361381D01*
X7609762Y-9323286D01*
X7609762Y-9275667D01*
X7619286Y-9237571D01*
X7628809Y-9218524D01*
X7638333Y-9209000D01*
X7657381Y-9199476D01*
X7809762Y-9399476D02*
X7809762Y-9266143D01*
X7809762Y-9285190D02*
X7819286Y-9275667D01*
X7838333Y-9266143D01*
X7866905Y-9266143D01*
X7885952Y-9275667D01*
X7895476Y-9294714D01*
X7895476Y-9399476D01*
X7895476Y-9294714D02*
X7905000Y-9275667D01*
X7924048Y-9266143D01*
X7952619Y-9266143D01*
X7971667Y-9275667D01*
X7981190Y-9294714D01*
X7981190Y-9399476D01*
X8076428Y-9399476D02*
X8076428Y-9266143D01*
X8076428Y-9285190D02*
X8085952Y-9275667D01*
X8105000Y-9266143D01*
X8133571Y-9266143D01*
X8152619Y-9275667D01*
X8162143Y-9294714D01*
X8162143Y-9399476D01*
X8162143Y-9294714D02*
X8171667Y-9275667D01*
X8190714Y-9266143D01*
X8219286Y-9266143D01*
X8238333Y-9275667D01*
X8247857Y-9294714D01*
X8247857Y-9399476D01*
X8638333Y-9189952D02*
X8466905Y-9447095D01*
X8895476Y-9199476D02*
X8914524Y-9199476D01*
X8933571Y-9209000D01*
X8943095Y-9218524D01*
X8952619Y-9237571D01*
X8962143Y-9275667D01*
X8962143Y-9323286D01*
X8952619Y-9361381D01*
X8943095Y-9380429D01*
X8933571Y-9389952D01*
X8914524Y-9399476D01*
X8895476Y-9399476D01*
X8876429Y-9389952D01*
X8866905Y-9380429D01*
X8857381Y-9361381D01*
X8847857Y-9323286D01*
X8847857Y-9275667D01*
X8857381Y-9237571D01*
X8866905Y-9218524D01*
X8876429Y-9209000D01*
X8895476Y-9199476D01*
X9047857Y-9380429D02*
X9057381Y-9389952D01*
X9047857Y-9399476D01*
X9038333Y-9389952D01*
X9047857Y-9380429D01*
X9047857Y-9399476D01*
X9181190Y-9199476D02*
X9200238Y-9199476D01*
X9219286Y-9209000D01*
X9228810Y-9218524D01*
X9238333Y-9237571D01*
X9247857Y-9275667D01*
X9247857Y-9323286D01*
X9238333Y-9361381D01*
X9228810Y-9380429D01*
X9219286Y-9389952D01*
X9200238Y-9399476D01*
X9181190Y-9399476D01*
X9162143Y-9389952D01*
X9152619Y-9380429D01*
X9143095Y-9361381D01*
X9133571Y-9323286D01*
X9133571Y-9275667D01*
X9143095Y-9237571D01*
X9152619Y-9218524D01*
X9162143Y-9209000D01*
X9181190Y-9199476D01*
X9371667Y-9199476D02*
X9390714Y-9199476D01*
X9409762Y-9209000D01*
X9419286Y-9218524D01*
X9428810Y-9237571D01*
X9438333Y-9275667D01*
X9438333Y-9323286D01*
X9428810Y-9361381D01*
X9419286Y-9380429D01*
X9409762Y-9389952D01*
X9390714Y-9399476D01*
X9371667Y-9399476D01*
X9352619Y-9389952D01*
X9343095Y-9380429D01*
X9333571Y-9361381D01*
X9324048Y-9323286D01*
X9324048Y-9275667D01*
X9333571Y-9237571D01*
X9343095Y-9218524D01*
X9352619Y-9209000D01*
X9371667Y-9199476D01*
X9533571Y-9399476D02*
X9571667Y-9399476D01*
X9590714Y-9389952D01*
X9600238Y-9380429D01*
X9619286Y-9351857D01*
X9628810Y-9313762D01*
X9628810Y-9237571D01*
X9619286Y-9218524D01*
X9609762Y-9209000D01*
X9590714Y-9199476D01*
X9552619Y-9199476D01*
X9533571Y-9209000D01*
X9524048Y-9218524D01*
X9514524Y-9237571D01*
X9514524Y-9285190D01*
X9524048Y-9304238D01*
X9533571Y-9313762D01*
X9552619Y-9323286D01*
X9590714Y-9323286D01*
X9609762Y-9313762D01*
X9619286Y-9304238D01*
X9628810Y-9285190D01*
X9743095Y-9285190D02*
X9724048Y-9275667D01*
X9714524Y-9266143D01*
X9705000Y-9247095D01*
X9705000Y-9237571D01*
X9714524Y-9218524D01*
X9724048Y-9209000D01*
X9743095Y-9199476D01*
X9781190Y-9199476D01*
X9800238Y-9209000D01*
X9809762Y-9218524D01*
X9819286Y-9237571D01*
X9819286Y-9247095D01*
X9809762Y-9266143D01*
X9800238Y-9275667D01*
X9781190Y-9285190D01*
X9743095Y-9285190D01*
X9724048Y-9294714D01*
X9714524Y-9304238D01*
X9705000Y-9323286D01*
X9705000Y-9361381D01*
X9714524Y-9380429D01*
X9724048Y-9389952D01*
X9743095Y-9399476D01*
X9781190Y-9399476D01*
X9800238Y-9389952D01*
X9809762Y-9380429D01*
X9819286Y-9361381D01*
X9819286Y-9323286D01*
X9809762Y-9304238D01*
X9800238Y-9294714D01*
X9781190Y-9285190D01*
X9895476Y-9199476D02*
X9895476Y-9237571D01*
X9971667Y-9199476D02*
X9971667Y-9237571D01*
X10266905Y-9475667D02*
X10257381Y-9466143D01*
X10238333Y-9437571D01*
X10228810Y-9418524D01*
X10219286Y-9389952D01*
X10209762Y-9342333D01*
X10209762Y-9304238D01*
X10219286Y-9256619D01*
X10228810Y-9228048D01*
X10238333Y-9209000D01*
X10257381Y-9180429D01*
X10266905Y-9170905D01*
X10428810Y-9199476D02*
X10390714Y-9199476D01*
X10371667Y-9209000D01*
X10362143Y-9218524D01*
X10343095Y-9247095D01*
X10333571Y-9285190D01*
X10333571Y-9361381D01*
X10343095Y-9380429D01*
X10352619Y-9389952D01*
X10371667Y-9399476D01*
X10409762Y-9399476D01*
X10428810Y-9389952D01*
X10438333Y-9380429D01*
X10447857Y-9361381D01*
X10447857Y-9313762D01*
X10438333Y-9294714D01*
X10428810Y-9285190D01*
X10409762Y-9275667D01*
X10371667Y-9275667D01*
X10352619Y-9285190D01*
X10343095Y-9294714D01*
X10333571Y-9313762D01*
X10685952Y-9399476D02*
X10685952Y-9199476D01*
X10771667Y-9399476D02*
X10771667Y-9294714D01*
X10762143Y-9275667D01*
X10743095Y-9266143D01*
X10714524Y-9266143D01*
X10695476Y-9275667D01*
X10685952Y-9285190D01*
X10895476Y-9399476D02*
X10876429Y-9389952D01*
X10866905Y-9380429D01*
X10857381Y-9361381D01*
X10857381Y-9304238D01*
X10866905Y-9285190D01*
X10876429Y-9275667D01*
X10895476Y-9266143D01*
X10924048Y-9266143D01*
X10943095Y-9275667D01*
X10952619Y-9285190D01*
X10962143Y-9304238D01*
X10962143Y-9361381D01*
X10952619Y-9380429D01*
X10943095Y-9389952D01*
X10924048Y-9399476D01*
X10895476Y-9399476D01*
X11076429Y-9399476D02*
X11057381Y-9389952D01*
X11047857Y-9370905D01*
X11047857Y-9199476D01*
X11228809Y-9389952D02*
X11209762Y-9399476D01*
X11171667Y-9399476D01*
X11152619Y-9389952D01*
X11143095Y-9370905D01*
X11143095Y-9294714D01*
X11152619Y-9275667D01*
X11171667Y-9266143D01*
X11209762Y-9266143D01*
X11228809Y-9275667D01*
X11238333Y-9294714D01*
X11238333Y-9313762D01*
X11143095Y-9332810D01*
X11314524Y-9389952D02*
X11333571Y-9399476D01*
X11371667Y-9399476D01*
X11390714Y-9389952D01*
X11400238Y-9370905D01*
X11400238Y-9361381D01*
X11390714Y-9342333D01*
X11371667Y-9332810D01*
X11343095Y-9332810D01*
X11324048Y-9323286D01*
X11314524Y-9304238D01*
X11314524Y-9294714D01*
X11324048Y-9275667D01*
X11343095Y-9266143D01*
X11371667Y-9266143D01*
X11390714Y-9275667D01*
X11466905Y-9475667D02*
X11476428Y-9466143D01*
X11495476Y-9437571D01*
X11505000Y-9418524D01*
X11514524Y-9389952D01*
X11524048Y-9342333D01*
X11524048Y-9304238D01*
X11514524Y-9256619D01*
X11505000Y-9228048D01*
X11495476Y-9209000D01*
X11476428Y-9180429D01*
X11466905Y-9170905D01*
D13*
X6682500Y-9560500D02*
X6682500Y-9585500D01*
X6670000Y-9573000D02*
X6695000Y-9573000D01*
D11*
X6990714Y-9463476D02*
X7009762Y-9463476D01*
X7028809Y-9473000D01*
X7038333Y-9482524D01*
X7047857Y-9501571D01*
X7057381Y-9539667D01*
X7057381Y-9587286D01*
X7047857Y-9625381D01*
X7038333Y-9644429D01*
X7028809Y-9653952D01*
X7009762Y-9663476D01*
X6990714Y-9663476D01*
X6971667Y-9653952D01*
X6962143Y-9644429D01*
X6952619Y-9625381D01*
X6943095Y-9587286D01*
X6943095Y-9539667D01*
X6952619Y-9501571D01*
X6962143Y-9482524D01*
X6971667Y-9473000D01*
X6990714Y-9463476D01*
X7143095Y-9644429D02*
X7152619Y-9653952D01*
X7143095Y-9663476D01*
X7133571Y-9653952D01*
X7143095Y-9644429D01*
X7143095Y-9663476D01*
X7228809Y-9482524D02*
X7238333Y-9473000D01*
X7257381Y-9463476D01*
X7305000Y-9463476D01*
X7324048Y-9473000D01*
X7333571Y-9482524D01*
X7343095Y-9501571D01*
X7343095Y-9520619D01*
X7333571Y-9549190D01*
X7219286Y-9663476D01*
X7343095Y-9663476D01*
X7524048Y-9463476D02*
X7428809Y-9463476D01*
X7419286Y-9558714D01*
X7428809Y-9549190D01*
X7447857Y-9539667D01*
X7495476Y-9539667D01*
X7514524Y-9549190D01*
X7524048Y-9558714D01*
X7533571Y-9577762D01*
X7533571Y-9625381D01*
X7524048Y-9644429D01*
X7514524Y-9653952D01*
X7495476Y-9663476D01*
X7447857Y-9663476D01*
X7428809Y-9653952D01*
X7419286Y-9644429D01*
X7657381Y-9463476D02*
X7676428Y-9463476D01*
X7695476Y-9473000D01*
X7705000Y-9482524D01*
X7714524Y-9501571D01*
X7724048Y-9539667D01*
X7724048Y-9587286D01*
X7714524Y-9625381D01*
X7705000Y-9644429D01*
X7695476Y-9653952D01*
X7676428Y-9663476D01*
X7657381Y-9663476D01*
X7638333Y-9653952D01*
X7628809Y-9644429D01*
X7619286Y-9625381D01*
X7609762Y-9587286D01*
X7609762Y-9539667D01*
X7619286Y-9501571D01*
X7628809Y-9482524D01*
X7638333Y-9473000D01*
X7657381Y-9463476D01*
X7809762Y-9663476D02*
X7809762Y-9530143D01*
X7809762Y-9549190D02*
X7819286Y-9539667D01*
X7838333Y-9530143D01*
X7866905Y-9530143D01*
X7885952Y-9539667D01*
X7895476Y-9558714D01*
X7895476Y-9663476D01*
X7895476Y-9558714D02*
X7905000Y-9539667D01*
X7924048Y-9530143D01*
X7952619Y-9530143D01*
X7971667Y-9539667D01*
X7981190Y-9558714D01*
X7981190Y-9663476D01*
X8076428Y-9663476D02*
X8076428Y-9530143D01*
X8076428Y-9549190D02*
X8085952Y-9539667D01*
X8105000Y-9530143D01*
X8133571Y-9530143D01*
X8152619Y-9539667D01*
X8162143Y-9558714D01*
X8162143Y-9663476D01*
X8162143Y-9558714D02*
X8171667Y-9539667D01*
X8190714Y-9530143D01*
X8219286Y-9530143D01*
X8238333Y-9539667D01*
X8247857Y-9558714D01*
X8247857Y-9663476D01*
X8638333Y-9453952D02*
X8466905Y-9711095D01*
X8895476Y-9463476D02*
X8914524Y-9463476D01*
X8933571Y-9473000D01*
X8943095Y-9482524D01*
X8952619Y-9501571D01*
X8962143Y-9539667D01*
X8962143Y-9587286D01*
X8952619Y-9625381D01*
X8943095Y-9644429D01*
X8933571Y-9653952D01*
X8914524Y-9663476D01*
X8895476Y-9663476D01*
X8876429Y-9653952D01*
X8866905Y-9644429D01*
X8857381Y-9625381D01*
X8847857Y-9587286D01*
X8847857Y-9539667D01*
X8857381Y-9501571D01*
X8866905Y-9482524D01*
X8876429Y-9473000D01*
X8895476Y-9463476D01*
X9047857Y-9644429D02*
X9057381Y-9653952D01*
X9047857Y-9663476D01*
X9038333Y-9653952D01*
X9047857Y-9644429D01*
X9047857Y-9663476D01*
X9181190Y-9463476D02*
X9200238Y-9463476D01*
X9219286Y-9473000D01*
X9228810Y-9482524D01*
X9238333Y-9501571D01*
X9247857Y-9539667D01*
X9247857Y-9587286D01*
X9238333Y-9625381D01*
X9228810Y-9644429D01*
X9219286Y-9653952D01*
X9200238Y-9663476D01*
X9181190Y-9663476D01*
X9162143Y-9653952D01*
X9152619Y-9644429D01*
X9143095Y-9625381D01*
X9133571Y-9587286D01*
X9133571Y-9539667D01*
X9143095Y-9501571D01*
X9152619Y-9482524D01*
X9162143Y-9473000D01*
X9181190Y-9463476D01*
X9371667Y-9463476D02*
X9390714Y-9463476D01*
X9409762Y-9473000D01*
X9419286Y-9482524D01*
X9428810Y-9501571D01*
X9438333Y-9539667D01*
X9438333Y-9587286D01*
X9428810Y-9625381D01*
X9419286Y-9644429D01*
X9409762Y-9653952D01*
X9390714Y-9663476D01*
X9371667Y-9663476D01*
X9352619Y-9653952D01*
X9343095Y-9644429D01*
X9333571Y-9625381D01*
X9324048Y-9587286D01*
X9324048Y-9539667D01*
X9333571Y-9501571D01*
X9343095Y-9482524D01*
X9352619Y-9473000D01*
X9371667Y-9463476D01*
X9533571Y-9663476D02*
X9571667Y-9663476D01*
X9590714Y-9653952D01*
X9600238Y-9644429D01*
X9619286Y-9615857D01*
X9628810Y-9577762D01*
X9628810Y-9501571D01*
X9619286Y-9482524D01*
X9609762Y-9473000D01*
X9590714Y-9463476D01*
X9552619Y-9463476D01*
X9533571Y-9473000D01*
X9524048Y-9482524D01*
X9514524Y-9501571D01*
X9514524Y-9549190D01*
X9524048Y-9568238D01*
X9533571Y-9577762D01*
X9552619Y-9587286D01*
X9590714Y-9587286D01*
X9609762Y-9577762D01*
X9619286Y-9568238D01*
X9628810Y-9549190D01*
X9743095Y-9549190D02*
X9724048Y-9539667D01*
X9714524Y-9530143D01*
X9705000Y-9511095D01*
X9705000Y-9501571D01*
X9714524Y-9482524D01*
X9724048Y-9473000D01*
X9743095Y-9463476D01*
X9781190Y-9463476D01*
X9800238Y-9473000D01*
X9809762Y-9482524D01*
X9819286Y-9501571D01*
X9819286Y-9511095D01*
X9809762Y-9530143D01*
X9800238Y-9539667D01*
X9781190Y-9549190D01*
X9743095Y-9549190D01*
X9724048Y-9558714D01*
X9714524Y-9568238D01*
X9705000Y-9587286D01*
X9705000Y-9625381D01*
X9714524Y-9644429D01*
X9724048Y-9653952D01*
X9743095Y-9663476D01*
X9781190Y-9663476D01*
X9800238Y-9653952D01*
X9809762Y-9644429D01*
X9819286Y-9625381D01*
X9819286Y-9587286D01*
X9809762Y-9568238D01*
X9800238Y-9558714D01*
X9781190Y-9549190D01*
X9895476Y-9463476D02*
X9895476Y-9501571D01*
X9971667Y-9463476D02*
X9971667Y-9501571D01*
X10266905Y-9739667D02*
X10257381Y-9730143D01*
X10238333Y-9701571D01*
X10228810Y-9682524D01*
X10219286Y-9653952D01*
X10209762Y-9606333D01*
X10209762Y-9568238D01*
X10219286Y-9520619D01*
X10228810Y-9492048D01*
X10238333Y-9473000D01*
X10257381Y-9444429D01*
X10266905Y-9434905D01*
X10447857Y-9663476D02*
X10333571Y-9663476D01*
X10390714Y-9663476D02*
X10390714Y-9463476D01*
X10371667Y-9492048D01*
X10352619Y-9511095D01*
X10333571Y-9520619D01*
X10562143Y-9549190D02*
X10543095Y-9539667D01*
X10533571Y-9530143D01*
X10524048Y-9511095D01*
X10524048Y-9501571D01*
X10533571Y-9482524D01*
X10543095Y-9473000D01*
X10562143Y-9463476D01*
X10600238Y-9463476D01*
X10619286Y-9473000D01*
X10628810Y-9482524D01*
X10638333Y-9501571D01*
X10638333Y-9511095D01*
X10628810Y-9530143D01*
X10619286Y-9539667D01*
X10600238Y-9549190D01*
X10562143Y-9549190D01*
X10543095Y-9558714D01*
X10533571Y-9568238D01*
X10524048Y-9587286D01*
X10524048Y-9625381D01*
X10533571Y-9644429D01*
X10543095Y-9653952D01*
X10562143Y-9663476D01*
X10600238Y-9663476D01*
X10619286Y-9653952D01*
X10628810Y-9644429D01*
X10638333Y-9625381D01*
X10638333Y-9587286D01*
X10628810Y-9568238D01*
X10619286Y-9558714D01*
X10600238Y-9549190D01*
X10876429Y-9663476D02*
X10876429Y-9463476D01*
X10962143Y-9663476D02*
X10962143Y-9558714D01*
X10952619Y-9539667D01*
X10933571Y-9530143D01*
X10905000Y-9530143D01*
X10885952Y-9539667D01*
X10876429Y-9549190D01*
X11085952Y-9663476D02*
X11066905Y-9653952D01*
X11057381Y-9644429D01*
X11047857Y-9625381D01*
X11047857Y-9568238D01*
X11057381Y-9549190D01*
X11066905Y-9539667D01*
X11085952Y-9530143D01*
X11114524Y-9530143D01*
X11133571Y-9539667D01*
X11143095Y-9549190D01*
X11152619Y-9568238D01*
X11152619Y-9625381D01*
X11143095Y-9644429D01*
X11133571Y-9653952D01*
X11114524Y-9663476D01*
X11085952Y-9663476D01*
X11266905Y-9663476D02*
X11247857Y-9653952D01*
X11238333Y-9634905D01*
X11238333Y-9463476D01*
X11419286Y-9653952D02*
X11400238Y-9663476D01*
X11362143Y-9663476D01*
X11343095Y-9653952D01*
X11333571Y-9634905D01*
X11333571Y-9558714D01*
X11343095Y-9539667D01*
X11362143Y-9530143D01*
X11400238Y-9530143D01*
X11419286Y-9539667D01*
X11428809Y-9558714D01*
X11428809Y-9577762D01*
X11333571Y-9596810D01*
X11505000Y-9653952D02*
X11524048Y-9663476D01*
X11562143Y-9663476D01*
X11581190Y-9653952D01*
X11590714Y-9634905D01*
X11590714Y-9625381D01*
X11581190Y-9606333D01*
X11562143Y-9596810D01*
X11533571Y-9596810D01*
X11514524Y-9587286D01*
X11505000Y-9568238D01*
X11505000Y-9558714D01*
X11514524Y-9539667D01*
X11533571Y-9530143D01*
X11562143Y-9530143D01*
X11581190Y-9539667D01*
X11657381Y-9739667D02*
X11666905Y-9730143D01*
X11685952Y-9701571D01*
X11695476Y-9682524D01*
X11705000Y-9653952D01*
X11714524Y-9606333D01*
X11714524Y-9568238D01*
X11705000Y-9520619D01*
X11695476Y-9492048D01*
X11685952Y-9473000D01*
X11666905Y-9444429D01*
X11657381Y-9434905D01*
D14*
X6690607Y-9847607D02*
X6690607Y-9826393D01*
X6669393Y-9826393D01*
X6669393Y-9847607D01*
X6690607Y-9847607D01*
D11*
X6990714Y-9727476D02*
X7009762Y-9727476D01*
X7028809Y-9737000D01*
X7038333Y-9746524D01*
X7047857Y-9765571D01*
X7057381Y-9803667D01*
X7057381Y-9851286D01*
X7047857Y-9889381D01*
X7038333Y-9908429D01*
X7028809Y-9917952D01*
X7009762Y-9927476D01*
X6990714Y-9927476D01*
X6971667Y-9917952D01*
X6962143Y-9908429D01*
X6952619Y-9889381D01*
X6943095Y-9851286D01*
X6943095Y-9803667D01*
X6952619Y-9765571D01*
X6962143Y-9746524D01*
X6971667Y-9737000D01*
X6990714Y-9727476D01*
X7143095Y-9908429D02*
X7152619Y-9917952D01*
X7143095Y-9927476D01*
X7133571Y-9917952D01*
X7143095Y-9908429D01*
X7143095Y-9927476D01*
X7219286Y-9727476D02*
X7343095Y-9727476D01*
X7276428Y-9803667D01*
X7305000Y-9803667D01*
X7324048Y-9813190D01*
X7333571Y-9822714D01*
X7343095Y-9841762D01*
X7343095Y-9889381D01*
X7333571Y-9908429D01*
X7324048Y-9917952D01*
X7305000Y-9927476D01*
X7247857Y-9927476D01*
X7228809Y-9917952D01*
X7219286Y-9908429D01*
X7466905Y-9727476D02*
X7485952Y-9727476D01*
X7505000Y-9737000D01*
X7514524Y-9746524D01*
X7524048Y-9765571D01*
X7533571Y-9803667D01*
X7533571Y-9851286D01*
X7524048Y-9889381D01*
X7514524Y-9908429D01*
X7505000Y-9917952D01*
X7485952Y-9927476D01*
X7466905Y-9927476D01*
X7447857Y-9917952D01*
X7438333Y-9908429D01*
X7428809Y-9889381D01*
X7419286Y-9851286D01*
X7419286Y-9803667D01*
X7428809Y-9765571D01*
X7438333Y-9746524D01*
X7447857Y-9737000D01*
X7466905Y-9727476D01*
X7657381Y-9727476D02*
X7676428Y-9727476D01*
X7695476Y-9737000D01*
X7705000Y-9746524D01*
X7714524Y-9765571D01*
X7724048Y-9803667D01*
X7724048Y-9851286D01*
X7714524Y-9889381D01*
X7705000Y-9908429D01*
X7695476Y-9917952D01*
X7676428Y-9927476D01*
X7657381Y-9927476D01*
X7638333Y-9917952D01*
X7628809Y-9908429D01*
X7619286Y-9889381D01*
X7609762Y-9851286D01*
X7609762Y-9803667D01*
X7619286Y-9765571D01*
X7628809Y-9746524D01*
X7638333Y-9737000D01*
X7657381Y-9727476D01*
X7809762Y-9927476D02*
X7809762Y-9794143D01*
X7809762Y-9813190D02*
X7819286Y-9803667D01*
X7838333Y-9794143D01*
X7866905Y-9794143D01*
X7885952Y-9803667D01*
X7895476Y-9822714D01*
X7895476Y-9927476D01*
X7895476Y-9822714D02*
X7905000Y-9803667D01*
X7924048Y-9794143D01*
X7952619Y-9794143D01*
X7971667Y-9803667D01*
X7981190Y-9822714D01*
X7981190Y-9927476D01*
X8076428Y-9927476D02*
X8076428Y-9794143D01*
X8076428Y-9813190D02*
X8085952Y-9803667D01*
X8105000Y-9794143D01*
X8133571Y-9794143D01*
X8152619Y-9803667D01*
X8162143Y-9822714D01*
X8162143Y-9927476D01*
X8162143Y-9822714D02*
X8171667Y-9803667D01*
X8190714Y-9794143D01*
X8219286Y-9794143D01*
X8238333Y-9803667D01*
X8247857Y-9822714D01*
X8247857Y-9927476D01*
X8638333Y-9717952D02*
X8466905Y-9975095D01*
X8895476Y-9727476D02*
X8914524Y-9727476D01*
X8933571Y-9737000D01*
X8943095Y-9746524D01*
X8952619Y-9765571D01*
X8962143Y-9803667D01*
X8962143Y-9851286D01*
X8952619Y-9889381D01*
X8943095Y-9908429D01*
X8933571Y-9917952D01*
X8914524Y-9927476D01*
X8895476Y-9927476D01*
X8876429Y-9917952D01*
X8866905Y-9908429D01*
X8857381Y-9889381D01*
X8847857Y-9851286D01*
X8847857Y-9803667D01*
X8857381Y-9765571D01*
X8866905Y-9746524D01*
X8876429Y-9737000D01*
X8895476Y-9727476D01*
X9047857Y-9908429D02*
X9057381Y-9917952D01*
X9047857Y-9927476D01*
X9038333Y-9917952D01*
X9047857Y-9908429D01*
X9047857Y-9927476D01*
X9181190Y-9727476D02*
X9200238Y-9727476D01*
X9219286Y-9737000D01*
X9228810Y-9746524D01*
X9238333Y-9765571D01*
X9247857Y-9803667D01*
X9247857Y-9851286D01*
X9238333Y-9889381D01*
X9228810Y-9908429D01*
X9219286Y-9917952D01*
X9200238Y-9927476D01*
X9181190Y-9927476D01*
X9162143Y-9917952D01*
X9152619Y-9908429D01*
X9143095Y-9889381D01*
X9133571Y-9851286D01*
X9133571Y-9803667D01*
X9143095Y-9765571D01*
X9152619Y-9746524D01*
X9162143Y-9737000D01*
X9181190Y-9727476D01*
X9438333Y-9927476D02*
X9324048Y-9927476D01*
X9381190Y-9927476D02*
X9381190Y-9727476D01*
X9362143Y-9756048D01*
X9343095Y-9775095D01*
X9324048Y-9784619D01*
X9628810Y-9927476D02*
X9514524Y-9927476D01*
X9571667Y-9927476D02*
X9571667Y-9727476D01*
X9552619Y-9756048D01*
X9533571Y-9775095D01*
X9514524Y-9784619D01*
X9743095Y-9813190D02*
X9724048Y-9803667D01*
X9714524Y-9794143D01*
X9705000Y-9775095D01*
X9705000Y-9765571D01*
X9714524Y-9746524D01*
X9724048Y-9737000D01*
X9743095Y-9727476D01*
X9781190Y-9727476D01*
X9800238Y-9737000D01*
X9809762Y-9746524D01*
X9819286Y-9765571D01*
X9819286Y-9775095D01*
X9809762Y-9794143D01*
X9800238Y-9803667D01*
X9781190Y-9813190D01*
X9743095Y-9813190D01*
X9724048Y-9822714D01*
X9714524Y-9832238D01*
X9705000Y-9851286D01*
X9705000Y-9889381D01*
X9714524Y-9908429D01*
X9724048Y-9917952D01*
X9743095Y-9927476D01*
X9781190Y-9927476D01*
X9800238Y-9917952D01*
X9809762Y-9908429D01*
X9819286Y-9889381D01*
X9819286Y-9851286D01*
X9809762Y-9832238D01*
X9800238Y-9822714D01*
X9781190Y-9813190D01*
X9895476Y-9727476D02*
X9895476Y-9765571D01*
X9971667Y-9727476D02*
X9971667Y-9765571D01*
X10266905Y-10003667D02*
X10257381Y-9994143D01*
X10238333Y-9965571D01*
X10228810Y-9946524D01*
X10219286Y-9917952D01*
X10209762Y-9870333D01*
X10209762Y-9832238D01*
X10219286Y-9784619D01*
X10228810Y-9756048D01*
X10238333Y-9737000D01*
X10257381Y-9708429D01*
X10266905Y-9698905D01*
X10447857Y-9927476D02*
X10333571Y-9927476D01*
X10390714Y-9927476D02*
X10390714Y-9727476D01*
X10371667Y-9756048D01*
X10352619Y-9775095D01*
X10333571Y-9784619D01*
X10619286Y-9794143D02*
X10619286Y-9927476D01*
X10571667Y-9717952D02*
X10524048Y-9860810D01*
X10647857Y-9860810D01*
X10876429Y-9927476D02*
X10876429Y-9727476D01*
X10962143Y-9927476D02*
X10962143Y-9822714D01*
X10952619Y-9803667D01*
X10933571Y-9794143D01*
X10905000Y-9794143D01*
X10885952Y-9803667D01*
X10876429Y-9813190D01*
X11085952Y-9927476D02*
X11066905Y-9917952D01*
X11057381Y-9908429D01*
X11047857Y-9889381D01*
X11047857Y-9832238D01*
X11057381Y-9813190D01*
X11066905Y-9803667D01*
X11085952Y-9794143D01*
X11114524Y-9794143D01*
X11133571Y-9803667D01*
X11143095Y-9813190D01*
X11152619Y-9832238D01*
X11152619Y-9889381D01*
X11143095Y-9908429D01*
X11133571Y-9917952D01*
X11114524Y-9927476D01*
X11085952Y-9927476D01*
X11266905Y-9927476D02*
X11247857Y-9917952D01*
X11238333Y-9898905D01*
X11238333Y-9727476D01*
X11419286Y-9917952D02*
X11400238Y-9927476D01*
X11362143Y-9927476D01*
X11343095Y-9917952D01*
X11333571Y-9898905D01*
X11333571Y-9822714D01*
X11343095Y-9803667D01*
X11362143Y-9794143D01*
X11400238Y-9794143D01*
X11419286Y-9803667D01*
X11428809Y-9822714D01*
X11428809Y-9841762D01*
X11333571Y-9860810D01*
X11505000Y-9917952D02*
X11524048Y-9927476D01*
X11562143Y-9927476D01*
X11581190Y-9917952D01*
X11590714Y-9898905D01*
X11590714Y-9889381D01*
X11581190Y-9870333D01*
X11562143Y-9860810D01*
X11533571Y-9860810D01*
X11514524Y-9851286D01*
X11505000Y-9832238D01*
X11505000Y-9822714D01*
X11514524Y-9803667D01*
X11533571Y-9794143D01*
X11562143Y-9794143D01*
X11581190Y-9803667D01*
X11657381Y-10003667D02*
X11666905Y-9994143D01*
X11685952Y-9965571D01*
X11695476Y-9946524D01*
X11705000Y-9917952D01*
X11714524Y-9870333D01*
X11714524Y-9832238D01*
X11705000Y-9784619D01*
X11695476Y-9756048D01*
X11685952Y-9737000D01*
X11666905Y-9708429D01*
X11657381Y-9698905D01*
D15*
X6675000Y-10121000D02*
X6695000Y-10101000D01*
X6675000Y-10081000D01*
X6655000Y-10101000D01*
X6675000Y-10121000D01*
D11*
X6990714Y-9991476D02*
X7009762Y-9991476D01*
X7028809Y-10001000D01*
X7038333Y-10010524D01*
X7047857Y-10029571D01*
X7057381Y-10067667D01*
X7057381Y-10115286D01*
X7047857Y-10153381D01*
X7038333Y-10172429D01*
X7028809Y-10181952D01*
X7009762Y-10191476D01*
X6990714Y-10191476D01*
X6971667Y-10181952D01*
X6962143Y-10172429D01*
X6952619Y-10153381D01*
X6943095Y-10115286D01*
X6943095Y-10067667D01*
X6952619Y-10029571D01*
X6962143Y-10010524D01*
X6971667Y-10001000D01*
X6990714Y-9991476D01*
X7143095Y-10172429D02*
X7152619Y-10181952D01*
X7143095Y-10191476D01*
X7133571Y-10181952D01*
X7143095Y-10172429D01*
X7143095Y-10191476D01*
X7324048Y-10058143D02*
X7324048Y-10191476D01*
X7276428Y-9981952D02*
X7228809Y-10124810D01*
X7352619Y-10124810D01*
X7466905Y-9991476D02*
X7485952Y-9991476D01*
X7505000Y-10001000D01*
X7514524Y-10010524D01*
X7524048Y-10029571D01*
X7533571Y-10067667D01*
X7533571Y-10115286D01*
X7524048Y-10153381D01*
X7514524Y-10172429D01*
X7505000Y-10181952D01*
X7485952Y-10191476D01*
X7466905Y-10191476D01*
X7447857Y-10181952D01*
X7438333Y-10172429D01*
X7428809Y-10153381D01*
X7419286Y-10115286D01*
X7419286Y-10067667D01*
X7428809Y-10029571D01*
X7438333Y-10010524D01*
X7447857Y-10001000D01*
X7466905Y-9991476D01*
X7657381Y-9991476D02*
X7676428Y-9991476D01*
X7695476Y-10001000D01*
X7705000Y-10010524D01*
X7714524Y-10029571D01*
X7724048Y-10067667D01*
X7724048Y-10115286D01*
X7714524Y-10153381D01*
X7705000Y-10172429D01*
X7695476Y-10181952D01*
X7676428Y-10191476D01*
X7657381Y-10191476D01*
X7638333Y-10181952D01*
X7628809Y-10172429D01*
X7619286Y-10153381D01*
X7609762Y-10115286D01*
X7609762Y-10067667D01*
X7619286Y-10029571D01*
X7628809Y-10010524D01*
X7638333Y-10001000D01*
X7657381Y-9991476D01*
X7809762Y-10191476D02*
X7809762Y-10058143D01*
X7809762Y-10077190D02*
X7819286Y-10067667D01*
X7838333Y-10058143D01*
X7866905Y-10058143D01*
X7885952Y-10067667D01*
X7895476Y-10086714D01*
X7895476Y-10191476D01*
X7895476Y-10086714D02*
X7905000Y-10067667D01*
X7924048Y-10058143D01*
X7952619Y-10058143D01*
X7971667Y-10067667D01*
X7981190Y-10086714D01*
X7981190Y-10191476D01*
X8076428Y-10191476D02*
X8076428Y-10058143D01*
X8076428Y-10077190D02*
X8085952Y-10067667D01*
X8105000Y-10058143D01*
X8133571Y-10058143D01*
X8152619Y-10067667D01*
X8162143Y-10086714D01*
X8162143Y-10191476D01*
X8162143Y-10086714D02*
X8171667Y-10067667D01*
X8190714Y-10058143D01*
X8219286Y-10058143D01*
X8238333Y-10067667D01*
X8247857Y-10086714D01*
X8247857Y-10191476D01*
X8638333Y-9981952D02*
X8466905Y-10239095D01*
X8895476Y-9991476D02*
X8914524Y-9991476D01*
X8933571Y-10001000D01*
X8943095Y-10010524D01*
X8952619Y-10029571D01*
X8962143Y-10067667D01*
X8962143Y-10115286D01*
X8952619Y-10153381D01*
X8943095Y-10172429D01*
X8933571Y-10181952D01*
X8914524Y-10191476D01*
X8895476Y-10191476D01*
X8876429Y-10181952D01*
X8866905Y-10172429D01*
X8857381Y-10153381D01*
X8847857Y-10115286D01*
X8847857Y-10067667D01*
X8857381Y-10029571D01*
X8866905Y-10010524D01*
X8876429Y-10001000D01*
X8895476Y-9991476D01*
X9047857Y-10172429D02*
X9057381Y-10181952D01*
X9047857Y-10191476D01*
X9038333Y-10181952D01*
X9047857Y-10172429D01*
X9047857Y-10191476D01*
X9181190Y-9991476D02*
X9200238Y-9991476D01*
X9219286Y-10001000D01*
X9228810Y-10010524D01*
X9238333Y-10029571D01*
X9247857Y-10067667D01*
X9247857Y-10115286D01*
X9238333Y-10153381D01*
X9228810Y-10172429D01*
X9219286Y-10181952D01*
X9200238Y-10191476D01*
X9181190Y-10191476D01*
X9162143Y-10181952D01*
X9152619Y-10172429D01*
X9143095Y-10153381D01*
X9133571Y-10115286D01*
X9133571Y-10067667D01*
X9143095Y-10029571D01*
X9152619Y-10010524D01*
X9162143Y-10001000D01*
X9181190Y-9991476D01*
X9438333Y-10191476D02*
X9324048Y-10191476D01*
X9381190Y-10191476D02*
X9381190Y-9991476D01*
X9362143Y-10020048D01*
X9343095Y-10039095D01*
X9324048Y-10048619D01*
X9619286Y-9991476D02*
X9524048Y-9991476D01*
X9514524Y-10086714D01*
X9524048Y-10077190D01*
X9543095Y-10067667D01*
X9590714Y-10067667D01*
X9609762Y-10077190D01*
X9619286Y-10086714D01*
X9628810Y-10105762D01*
X9628810Y-10153381D01*
X9619286Y-10172429D01*
X9609762Y-10181952D01*
X9590714Y-10191476D01*
X9543095Y-10191476D01*
X9524048Y-10181952D01*
X9514524Y-10172429D01*
X9695476Y-9991476D02*
X9828810Y-9991476D01*
X9743095Y-10191476D01*
X9895476Y-9991476D02*
X9895476Y-10029571D01*
X9971667Y-9991476D02*
X9971667Y-10029571D01*
X10266905Y-10267667D02*
X10257381Y-10258143D01*
X10238333Y-10229571D01*
X10228810Y-10210524D01*
X10219286Y-10181952D01*
X10209762Y-10134333D01*
X10209762Y-10096238D01*
X10219286Y-10048619D01*
X10228810Y-10020048D01*
X10238333Y-10001000D01*
X10257381Y-9972429D01*
X10266905Y-9962905D01*
X10447857Y-10191476D02*
X10333571Y-10191476D01*
X10390714Y-10191476D02*
X10390714Y-9991476D01*
X10371667Y-10020048D01*
X10352619Y-10039095D01*
X10333571Y-10048619D01*
X10619286Y-9991476D02*
X10581190Y-9991476D01*
X10562143Y-10001000D01*
X10552619Y-10010524D01*
X10533571Y-10039095D01*
X10524048Y-10077190D01*
X10524048Y-10153381D01*
X10533571Y-10172429D01*
X10543095Y-10181952D01*
X10562143Y-10191476D01*
X10600238Y-10191476D01*
X10619286Y-10181952D01*
X10628810Y-10172429D01*
X10638333Y-10153381D01*
X10638333Y-10105762D01*
X10628810Y-10086714D01*
X10619286Y-10077190D01*
X10600238Y-10067667D01*
X10562143Y-10067667D01*
X10543095Y-10077190D01*
X10533571Y-10086714D01*
X10524048Y-10105762D01*
X10876429Y-10191476D02*
X10876429Y-9991476D01*
X10962143Y-10191476D02*
X10962143Y-10086714D01*
X10952619Y-10067667D01*
X10933571Y-10058143D01*
X10905000Y-10058143D01*
X10885952Y-10067667D01*
X10876429Y-10077190D01*
X11085952Y-10191476D02*
X11066905Y-10181952D01*
X11057381Y-10172429D01*
X11047857Y-10153381D01*
X11047857Y-10096238D01*
X11057381Y-10077190D01*
X11066905Y-10067667D01*
X11085952Y-10058143D01*
X11114524Y-10058143D01*
X11133571Y-10067667D01*
X11143095Y-10077190D01*
X11152619Y-10096238D01*
X11152619Y-10153381D01*
X11143095Y-10172429D01*
X11133571Y-10181952D01*
X11114524Y-10191476D01*
X11085952Y-10191476D01*
X11266905Y-10191476D02*
X11247857Y-10181952D01*
X11238333Y-10162905D01*
X11238333Y-9991476D01*
X11419286Y-10181952D02*
X11400238Y-10191476D01*
X11362143Y-10191476D01*
X11343095Y-10181952D01*
X11333571Y-10162905D01*
X11333571Y-10086714D01*
X11343095Y-10067667D01*
X11362143Y-10058143D01*
X11400238Y-10058143D01*
X11419286Y-10067667D01*
X11428809Y-10086714D01*
X11428809Y-10105762D01*
X11333571Y-10124810D01*
X11505000Y-10181952D02*
X11524048Y-10191476D01*
X11562143Y-10191476D01*
X11581190Y-10181952D01*
X11590714Y-10162905D01*
X11590714Y-10153381D01*
X11581190Y-10134333D01*
X11562143Y-10124810D01*
X11533571Y-10124810D01*
X11514524Y-10115286D01*
X11505000Y-10096238D01*
X11505000Y-10086714D01*
X11514524Y-10067667D01*
X11533571Y-10058143D01*
X11562143Y-10058143D01*
X11581190Y-10067667D01*
X11657381Y-10267667D02*
X11666905Y-10258143D01*
X11685952Y-10229571D01*
X11695476Y-10210524D01*
X11705000Y-10181952D01*
X11714524Y-10134333D01*
X11714524Y-10096238D01*
X11705000Y-10048619D01*
X11695476Y-10020048D01*
X11685952Y-10001000D01*
X11666905Y-9972429D01*
X11657381Y-9962905D01*
D16*
X6645000Y-10340000D02*
X6695000Y-10390000D01*
X6695000Y-10340000D02*
X6645000Y-10390000D01*
X6695000Y-10365000D02*
G75*
G03*
X6695000Y-10365000I-25000J0D01*
G01*
D11*
X6990714Y-10255476D02*
X7009762Y-10255476D01*
X7028809Y-10265000D01*
X7038333Y-10274524D01*
X7047857Y-10293571D01*
X7057381Y-10331667D01*
X7057381Y-10379286D01*
X7047857Y-10417381D01*
X7038333Y-10436429D01*
X7028809Y-10445952D01*
X7009762Y-10455476D01*
X6990714Y-10455476D01*
X6971667Y-10445952D01*
X6962143Y-10436429D01*
X6952619Y-10417381D01*
X6943095Y-10379286D01*
X6943095Y-10331667D01*
X6952619Y-10293571D01*
X6962143Y-10274524D01*
X6971667Y-10265000D01*
X6990714Y-10255476D01*
X7143095Y-10436429D02*
X7152619Y-10445952D01*
X7143095Y-10455476D01*
X7133571Y-10445952D01*
X7143095Y-10436429D01*
X7143095Y-10455476D01*
X7333571Y-10255476D02*
X7238333Y-10255476D01*
X7228809Y-10350714D01*
X7238333Y-10341190D01*
X7257381Y-10331667D01*
X7305000Y-10331667D01*
X7324048Y-10341190D01*
X7333571Y-10350714D01*
X7343095Y-10369762D01*
X7343095Y-10417381D01*
X7333571Y-10436429D01*
X7324048Y-10445952D01*
X7305000Y-10455476D01*
X7257381Y-10455476D01*
X7238333Y-10445952D01*
X7228809Y-10436429D01*
X7466905Y-10255476D02*
X7485952Y-10255476D01*
X7505000Y-10265000D01*
X7514524Y-10274524D01*
X7524048Y-10293571D01*
X7533571Y-10331667D01*
X7533571Y-10379286D01*
X7524048Y-10417381D01*
X7514524Y-10436429D01*
X7505000Y-10445952D01*
X7485952Y-10455476D01*
X7466905Y-10455476D01*
X7447857Y-10445952D01*
X7438333Y-10436429D01*
X7428809Y-10417381D01*
X7419286Y-10379286D01*
X7419286Y-10331667D01*
X7428809Y-10293571D01*
X7438333Y-10274524D01*
X7447857Y-10265000D01*
X7466905Y-10255476D01*
X7657381Y-10255476D02*
X7676428Y-10255476D01*
X7695476Y-10265000D01*
X7705000Y-10274524D01*
X7714524Y-10293571D01*
X7724048Y-10331667D01*
X7724048Y-10379286D01*
X7714524Y-10417381D01*
X7705000Y-10436429D01*
X7695476Y-10445952D01*
X7676428Y-10455476D01*
X7657381Y-10455476D01*
X7638333Y-10445952D01*
X7628809Y-10436429D01*
X7619286Y-10417381D01*
X7609762Y-10379286D01*
X7609762Y-10331667D01*
X7619286Y-10293571D01*
X7628809Y-10274524D01*
X7638333Y-10265000D01*
X7657381Y-10255476D01*
X7809762Y-10455476D02*
X7809762Y-10322143D01*
X7809762Y-10341190D02*
X7819286Y-10331667D01*
X7838333Y-10322143D01*
X7866905Y-10322143D01*
X7885952Y-10331667D01*
X7895476Y-10350714D01*
X7895476Y-10455476D01*
X7895476Y-10350714D02*
X7905000Y-10331667D01*
X7924048Y-10322143D01*
X7952619Y-10322143D01*
X7971667Y-10331667D01*
X7981190Y-10350714D01*
X7981190Y-10455476D01*
X8076428Y-10455476D02*
X8076428Y-10322143D01*
X8076428Y-10341190D02*
X8085952Y-10331667D01*
X8105000Y-10322143D01*
X8133571Y-10322143D01*
X8152619Y-10331667D01*
X8162143Y-10350714D01*
X8162143Y-10455476D01*
X8162143Y-10350714D02*
X8171667Y-10331667D01*
X8190714Y-10322143D01*
X8219286Y-10322143D01*
X8238333Y-10331667D01*
X8247857Y-10350714D01*
X8247857Y-10455476D01*
X8638333Y-10245952D02*
X8466905Y-10503095D01*
X8895476Y-10255476D02*
X8914524Y-10255476D01*
X8933571Y-10265000D01*
X8943095Y-10274524D01*
X8952619Y-10293571D01*
X8962143Y-10331667D01*
X8962143Y-10379286D01*
X8952619Y-10417381D01*
X8943095Y-10436429D01*
X8933571Y-10445952D01*
X8914524Y-10455476D01*
X8895476Y-10455476D01*
X8876429Y-10445952D01*
X8866905Y-10436429D01*
X8857381Y-10417381D01*
X8847857Y-10379286D01*
X8847857Y-10331667D01*
X8857381Y-10293571D01*
X8866905Y-10274524D01*
X8876429Y-10265000D01*
X8895476Y-10255476D01*
X9047857Y-10436429D02*
X9057381Y-10445952D01*
X9047857Y-10455476D01*
X9038333Y-10445952D01*
X9047857Y-10436429D01*
X9047857Y-10455476D01*
X9181190Y-10255476D02*
X9200238Y-10255476D01*
X9219286Y-10265000D01*
X9228810Y-10274524D01*
X9238333Y-10293571D01*
X9247857Y-10331667D01*
X9247857Y-10379286D01*
X9238333Y-10417381D01*
X9228810Y-10436429D01*
X9219286Y-10445952D01*
X9200238Y-10455476D01*
X9181190Y-10455476D01*
X9162143Y-10445952D01*
X9152619Y-10436429D01*
X9143095Y-10417381D01*
X9133571Y-10379286D01*
X9133571Y-10331667D01*
X9143095Y-10293571D01*
X9152619Y-10274524D01*
X9162143Y-10265000D01*
X9181190Y-10255476D01*
X9438333Y-10455476D02*
X9324048Y-10455476D01*
X9381190Y-10455476D02*
X9381190Y-10255476D01*
X9362143Y-10284048D01*
X9343095Y-10303095D01*
X9324048Y-10312619D01*
X9533571Y-10455476D02*
X9571667Y-10455476D01*
X9590714Y-10445952D01*
X9600238Y-10436429D01*
X9619286Y-10407857D01*
X9628810Y-10369762D01*
X9628810Y-10293571D01*
X9619286Y-10274524D01*
X9609762Y-10265000D01*
X9590714Y-10255476D01*
X9552619Y-10255476D01*
X9533571Y-10265000D01*
X9524048Y-10274524D01*
X9514524Y-10293571D01*
X9514524Y-10341190D01*
X9524048Y-10360238D01*
X9533571Y-10369762D01*
X9552619Y-10379286D01*
X9590714Y-10379286D01*
X9609762Y-10369762D01*
X9619286Y-10360238D01*
X9628810Y-10341190D01*
X9695476Y-10255476D02*
X9828810Y-10255476D01*
X9743095Y-10455476D01*
X9895476Y-10255476D02*
X9895476Y-10293571D01*
X9971667Y-10255476D02*
X9971667Y-10293571D01*
X10266905Y-10531667D02*
X10257381Y-10522143D01*
X10238333Y-10493571D01*
X10228810Y-10474524D01*
X10219286Y-10445952D01*
X10209762Y-10398333D01*
X10209762Y-10360238D01*
X10219286Y-10312619D01*
X10228810Y-10284048D01*
X10238333Y-10265000D01*
X10257381Y-10236429D01*
X10266905Y-10226905D01*
X10381190Y-10255476D02*
X10400238Y-10255476D01*
X10419286Y-10265000D01*
X10428810Y-10274524D01*
X10438333Y-10293571D01*
X10447857Y-10331667D01*
X10447857Y-10379286D01*
X10438333Y-10417381D01*
X10428810Y-10436429D01*
X10419286Y-10445952D01*
X10400238Y-10455476D01*
X10381190Y-10455476D01*
X10362143Y-10445952D01*
X10352619Y-10436429D01*
X10343095Y-10417381D01*
X10333571Y-10379286D01*
X10333571Y-10331667D01*
X10343095Y-10293571D01*
X10352619Y-10274524D01*
X10362143Y-10265000D01*
X10381190Y-10255476D01*
X10685952Y-10455476D02*
X10685952Y-10255476D01*
X10771667Y-10455476D02*
X10771667Y-10350714D01*
X10762143Y-10331667D01*
X10743095Y-10322143D01*
X10714524Y-10322143D01*
X10695476Y-10331667D01*
X10685952Y-10341190D01*
X10895476Y-10455476D02*
X10876429Y-10445952D01*
X10866905Y-10436429D01*
X10857381Y-10417381D01*
X10857381Y-10360238D01*
X10866905Y-10341190D01*
X10876429Y-10331667D01*
X10895476Y-10322143D01*
X10924048Y-10322143D01*
X10943095Y-10331667D01*
X10952619Y-10341190D01*
X10962143Y-10360238D01*
X10962143Y-10417381D01*
X10952619Y-10436429D01*
X10943095Y-10445952D01*
X10924048Y-10455476D01*
X10895476Y-10455476D01*
X11076429Y-10455476D02*
X11057381Y-10445952D01*
X11047857Y-10426905D01*
X11047857Y-10255476D01*
X11228809Y-10445952D02*
X11209762Y-10455476D01*
X11171667Y-10455476D01*
X11152619Y-10445952D01*
X11143095Y-10426905D01*
X11143095Y-10350714D01*
X11152619Y-10331667D01*
X11171667Y-10322143D01*
X11209762Y-10322143D01*
X11228809Y-10331667D01*
X11238333Y-10350714D01*
X11238333Y-10369762D01*
X11143095Y-10388810D01*
X11314524Y-10445952D02*
X11333571Y-10455476D01*
X11371667Y-10455476D01*
X11390714Y-10445952D01*
X11400238Y-10426905D01*
X11400238Y-10417381D01*
X11390714Y-10398333D01*
X11371667Y-10388810D01*
X11343095Y-10388810D01*
X11324048Y-10379286D01*
X11314524Y-10360238D01*
X11314524Y-10350714D01*
X11324048Y-10331667D01*
X11343095Y-10322143D01*
X11371667Y-10322143D01*
X11390714Y-10331667D01*
X11638333Y-10379286D02*
X11790714Y-10379286D01*
X11714524Y-10455476D02*
X11714524Y-10303095D01*
X12028809Y-10274524D02*
X12038333Y-10265000D01*
X12057381Y-10255476D01*
X12105000Y-10255476D01*
X12124048Y-10265000D01*
X12133571Y-10274524D01*
X12143095Y-10293571D01*
X12143095Y-10312619D01*
X12133571Y-10341190D01*
X12019286Y-10455476D01*
X12143095Y-10455476D01*
X12371667Y-10445952D02*
X12390714Y-10455476D01*
X12428809Y-10455476D01*
X12447857Y-10445952D01*
X12457381Y-10426905D01*
X12457381Y-10417381D01*
X12447857Y-10398333D01*
X12428809Y-10388810D01*
X12400238Y-10388810D01*
X12381190Y-10379286D01*
X12371667Y-10360238D01*
X12371667Y-10350714D01*
X12381190Y-10331667D01*
X12400238Y-10322143D01*
X12428809Y-10322143D01*
X12447857Y-10331667D01*
X12571667Y-10455476D02*
X12552619Y-10445952D01*
X12543095Y-10426905D01*
X12543095Y-10255476D01*
X12676428Y-10455476D02*
X12657381Y-10445952D01*
X12647857Y-10436429D01*
X12638333Y-10417381D01*
X12638333Y-10360238D01*
X12647857Y-10341190D01*
X12657381Y-10331667D01*
X12676428Y-10322143D01*
X12705000Y-10322143D01*
X12724048Y-10331667D01*
X12733571Y-10341190D01*
X12743095Y-10360238D01*
X12743095Y-10417381D01*
X12733571Y-10436429D01*
X12724048Y-10445952D01*
X12705000Y-10455476D01*
X12676428Y-10455476D01*
X12800238Y-10322143D02*
X12876428Y-10322143D01*
X12828809Y-10255476D02*
X12828809Y-10426905D01*
X12838333Y-10445952D01*
X12857381Y-10455476D01*
X12876428Y-10455476D01*
X12933571Y-10445952D02*
X12952619Y-10455476D01*
X12990714Y-10455476D01*
X13009762Y-10445952D01*
X13019286Y-10426905D01*
X13019286Y-10417381D01*
X13009762Y-10398333D01*
X12990714Y-10388810D01*
X12962143Y-10388810D01*
X12943095Y-10379286D01*
X12933571Y-10360238D01*
X12933571Y-10350714D01*
X12943095Y-10331667D01*
X12962143Y-10322143D01*
X12990714Y-10322143D01*
X13009762Y-10331667D01*
X13085952Y-10531667D02*
X13095476Y-10522143D01*
X13114524Y-10493571D01*
X13124048Y-10474524D01*
X13133571Y-10445952D01*
X13143095Y-10398333D01*
X13143095Y-10360238D01*
X13133571Y-10312619D01*
X13124048Y-10284048D01*
X13114524Y-10265000D01*
X13095476Y-10236429D01*
X13085952Y-10226905D01*
D17*
X6640000Y-10601500D02*
X6695000Y-10656500D01*
X6695000Y-10601500D02*
X6640000Y-10656500D01*
X6667500Y-10601500D02*
X6667500Y-10656500D01*
X6640000Y-10629000D02*
X6695000Y-10629000D01*
D11*
X6990714Y-10519476D02*
X7009762Y-10519476D01*
X7028809Y-10529000D01*
X7038333Y-10538524D01*
X7047857Y-10557571D01*
X7057381Y-10595667D01*
X7057381Y-10643286D01*
X7047857Y-10681381D01*
X7038333Y-10700429D01*
X7028809Y-10709952D01*
X7009762Y-10719476D01*
X6990714Y-10719476D01*
X6971667Y-10709952D01*
X6962143Y-10700429D01*
X6952619Y-10681381D01*
X6943095Y-10643286D01*
X6943095Y-10595667D01*
X6952619Y-10557571D01*
X6962143Y-10538524D01*
X6971667Y-10529000D01*
X6990714Y-10519476D01*
X7143095Y-10700429D02*
X7152619Y-10709952D01*
X7143095Y-10719476D01*
X7133571Y-10709952D01*
X7143095Y-10700429D01*
X7143095Y-10719476D01*
X7333571Y-10519476D02*
X7238333Y-10519476D01*
X7228809Y-10614714D01*
X7238333Y-10605190D01*
X7257381Y-10595667D01*
X7305000Y-10595667D01*
X7324048Y-10605190D01*
X7333571Y-10614714D01*
X7343095Y-10633762D01*
X7343095Y-10681381D01*
X7333571Y-10700429D01*
X7324048Y-10709952D01*
X7305000Y-10719476D01*
X7257381Y-10719476D01*
X7238333Y-10709952D01*
X7228809Y-10700429D01*
X7524048Y-10519476D02*
X7428809Y-10519476D01*
X7419286Y-10614714D01*
X7428809Y-10605190D01*
X7447857Y-10595667D01*
X7495476Y-10595667D01*
X7514524Y-10605190D01*
X7524048Y-10614714D01*
X7533571Y-10633762D01*
X7533571Y-10681381D01*
X7524048Y-10700429D01*
X7514524Y-10709952D01*
X7495476Y-10719476D01*
X7447857Y-10719476D01*
X7428809Y-10709952D01*
X7419286Y-10700429D01*
X7657381Y-10519476D02*
X7676428Y-10519476D01*
X7695476Y-10529000D01*
X7705000Y-10538524D01*
X7714524Y-10557571D01*
X7724048Y-10595667D01*
X7724048Y-10643286D01*
X7714524Y-10681381D01*
X7705000Y-10700429D01*
X7695476Y-10709952D01*
X7676428Y-10719476D01*
X7657381Y-10719476D01*
X7638333Y-10709952D01*
X7628809Y-10700429D01*
X7619286Y-10681381D01*
X7609762Y-10643286D01*
X7609762Y-10595667D01*
X7619286Y-10557571D01*
X7628809Y-10538524D01*
X7638333Y-10529000D01*
X7657381Y-10519476D01*
X7809762Y-10719476D02*
X7809762Y-10586143D01*
X7809762Y-10605190D02*
X7819286Y-10595667D01*
X7838333Y-10586143D01*
X7866905Y-10586143D01*
X7885952Y-10595667D01*
X7895476Y-10614714D01*
X7895476Y-10719476D01*
X7895476Y-10614714D02*
X7905000Y-10595667D01*
X7924048Y-10586143D01*
X7952619Y-10586143D01*
X7971667Y-10595667D01*
X7981190Y-10614714D01*
X7981190Y-10719476D01*
X8076428Y-10719476D02*
X8076428Y-10586143D01*
X8076428Y-10605190D02*
X8085952Y-10595667D01*
X8105000Y-10586143D01*
X8133571Y-10586143D01*
X8152619Y-10595667D01*
X8162143Y-10614714D01*
X8162143Y-10719476D01*
X8162143Y-10614714D02*
X8171667Y-10595667D01*
X8190714Y-10586143D01*
X8219286Y-10586143D01*
X8238333Y-10595667D01*
X8247857Y-10614714D01*
X8247857Y-10719476D01*
X8638333Y-10509952D02*
X8466905Y-10767095D01*
X8895476Y-10519476D02*
X8914524Y-10519476D01*
X8933571Y-10529000D01*
X8943095Y-10538524D01*
X8952619Y-10557571D01*
X8962143Y-10595667D01*
X8962143Y-10643286D01*
X8952619Y-10681381D01*
X8943095Y-10700429D01*
X8933571Y-10709952D01*
X8914524Y-10719476D01*
X8895476Y-10719476D01*
X8876429Y-10709952D01*
X8866905Y-10700429D01*
X8857381Y-10681381D01*
X8847857Y-10643286D01*
X8847857Y-10595667D01*
X8857381Y-10557571D01*
X8866905Y-10538524D01*
X8876429Y-10529000D01*
X8895476Y-10519476D01*
X9047857Y-10700429D02*
X9057381Y-10709952D01*
X9047857Y-10719476D01*
X9038333Y-10709952D01*
X9047857Y-10700429D01*
X9047857Y-10719476D01*
X9181190Y-10519476D02*
X9200238Y-10519476D01*
X9219286Y-10529000D01*
X9228810Y-10538524D01*
X9238333Y-10557571D01*
X9247857Y-10595667D01*
X9247857Y-10643286D01*
X9238333Y-10681381D01*
X9228810Y-10700429D01*
X9219286Y-10709952D01*
X9200238Y-10719476D01*
X9181190Y-10719476D01*
X9162143Y-10709952D01*
X9152619Y-10700429D01*
X9143095Y-10681381D01*
X9133571Y-10643286D01*
X9133571Y-10595667D01*
X9143095Y-10557571D01*
X9152619Y-10538524D01*
X9162143Y-10529000D01*
X9181190Y-10519476D01*
X9324048Y-10538524D02*
X9333571Y-10529000D01*
X9352619Y-10519476D01*
X9400238Y-10519476D01*
X9419286Y-10529000D01*
X9428810Y-10538524D01*
X9438333Y-10557571D01*
X9438333Y-10576619D01*
X9428810Y-10605190D01*
X9314524Y-10719476D01*
X9438333Y-10719476D01*
X9628810Y-10719476D02*
X9514524Y-10719476D01*
X9571667Y-10719476D02*
X9571667Y-10519476D01*
X9552619Y-10548048D01*
X9533571Y-10567095D01*
X9514524Y-10576619D01*
X9695476Y-10519476D02*
X9828810Y-10519476D01*
X9743095Y-10719476D01*
X9895476Y-10519476D02*
X9895476Y-10557571D01*
X9971667Y-10519476D02*
X9971667Y-10557571D01*
X10266905Y-10795667D02*
X10257381Y-10786143D01*
X10238333Y-10757571D01*
X10228810Y-10738524D01*
X10219286Y-10709952D01*
X10209762Y-10662333D01*
X10209762Y-10624238D01*
X10219286Y-10576619D01*
X10228810Y-10548048D01*
X10238333Y-10529000D01*
X10257381Y-10500429D01*
X10266905Y-10490905D01*
X10381190Y-10519476D02*
X10400238Y-10519476D01*
X10419286Y-10529000D01*
X10428810Y-10538524D01*
X10438333Y-10557571D01*
X10447857Y-10595667D01*
X10447857Y-10643286D01*
X10438333Y-10681381D01*
X10428810Y-10700429D01*
X10419286Y-10709952D01*
X10400238Y-10719476D01*
X10381190Y-10719476D01*
X10362143Y-10709952D01*
X10352619Y-10700429D01*
X10343095Y-10681381D01*
X10333571Y-10643286D01*
X10333571Y-10595667D01*
X10343095Y-10557571D01*
X10352619Y-10538524D01*
X10362143Y-10529000D01*
X10381190Y-10519476D01*
X10685952Y-10719476D02*
X10685952Y-10519476D01*
X10771667Y-10719476D02*
X10771667Y-10614714D01*
X10762143Y-10595667D01*
X10743095Y-10586143D01*
X10714524Y-10586143D01*
X10695476Y-10595667D01*
X10685952Y-10605190D01*
X10895476Y-10719476D02*
X10876429Y-10709952D01*
X10866905Y-10700429D01*
X10857381Y-10681381D01*
X10857381Y-10624238D01*
X10866905Y-10605190D01*
X10876429Y-10595667D01*
X10895476Y-10586143D01*
X10924048Y-10586143D01*
X10943095Y-10595667D01*
X10952619Y-10605190D01*
X10962143Y-10624238D01*
X10962143Y-10681381D01*
X10952619Y-10700429D01*
X10943095Y-10709952D01*
X10924048Y-10719476D01*
X10895476Y-10719476D01*
X11076429Y-10719476D02*
X11057381Y-10709952D01*
X11047857Y-10690905D01*
X11047857Y-10519476D01*
X11228809Y-10709952D02*
X11209762Y-10719476D01*
X11171667Y-10719476D01*
X11152619Y-10709952D01*
X11143095Y-10690905D01*
X11143095Y-10614714D01*
X11152619Y-10595667D01*
X11171667Y-10586143D01*
X11209762Y-10586143D01*
X11228809Y-10595667D01*
X11238333Y-10614714D01*
X11238333Y-10633762D01*
X11143095Y-10652810D01*
X11314524Y-10709952D02*
X11333571Y-10719476D01*
X11371667Y-10719476D01*
X11390714Y-10709952D01*
X11400238Y-10690905D01*
X11400238Y-10681381D01*
X11390714Y-10662333D01*
X11371667Y-10652810D01*
X11343095Y-10652810D01*
X11324048Y-10643286D01*
X11314524Y-10624238D01*
X11314524Y-10614714D01*
X11324048Y-10595667D01*
X11343095Y-10586143D01*
X11371667Y-10586143D01*
X11390714Y-10595667D01*
X11638333Y-10643286D02*
X11790714Y-10643286D01*
X11714524Y-10719476D02*
X11714524Y-10567095D01*
X12028809Y-10538524D02*
X12038333Y-10529000D01*
X12057381Y-10519476D01*
X12105000Y-10519476D01*
X12124048Y-10529000D01*
X12133571Y-10538524D01*
X12143095Y-10557571D01*
X12143095Y-10576619D01*
X12133571Y-10605190D01*
X12019286Y-10719476D01*
X12143095Y-10719476D01*
X12371667Y-10709952D02*
X12390714Y-10719476D01*
X12428809Y-10719476D01*
X12447857Y-10709952D01*
X12457381Y-10690905D01*
X12457381Y-10681381D01*
X12447857Y-10662333D01*
X12428809Y-10652810D01*
X12400238Y-10652810D01*
X12381190Y-10643286D01*
X12371667Y-10624238D01*
X12371667Y-10614714D01*
X12381190Y-10595667D01*
X12400238Y-10586143D01*
X12428809Y-10586143D01*
X12447857Y-10595667D01*
X12571667Y-10719476D02*
X12552619Y-10709952D01*
X12543095Y-10690905D01*
X12543095Y-10519476D01*
X12676428Y-10719476D02*
X12657381Y-10709952D01*
X12647857Y-10700429D01*
X12638333Y-10681381D01*
X12638333Y-10624238D01*
X12647857Y-10605190D01*
X12657381Y-10595667D01*
X12676428Y-10586143D01*
X12705000Y-10586143D01*
X12724048Y-10595667D01*
X12733571Y-10605190D01*
X12743095Y-10624238D01*
X12743095Y-10681381D01*
X12733571Y-10700429D01*
X12724048Y-10709952D01*
X12705000Y-10719476D01*
X12676428Y-10719476D01*
X12800238Y-10586143D02*
X12876428Y-10586143D01*
X12828809Y-10519476D02*
X12828809Y-10690905D01*
X12838333Y-10709952D01*
X12857381Y-10719476D01*
X12876428Y-10719476D01*
X12933571Y-10709952D02*
X12952619Y-10719476D01*
X12990714Y-10719476D01*
X13009762Y-10709952D01*
X13019286Y-10690905D01*
X13019286Y-10681381D01*
X13009762Y-10662333D01*
X12990714Y-10652810D01*
X12962143Y-10652810D01*
X12943095Y-10643286D01*
X12933571Y-10624238D01*
X12933571Y-10614714D01*
X12943095Y-10595667D01*
X12962143Y-10586143D01*
X12990714Y-10586143D01*
X13009762Y-10595667D01*
X13085952Y-10795667D02*
X13095476Y-10786143D01*
X13114524Y-10757571D01*
X13124048Y-10738524D01*
X13133571Y-10709952D01*
X13143095Y-10662333D01*
X13143095Y-10624238D01*
X13133571Y-10576619D01*
X13124048Y-10548048D01*
X13114524Y-10529000D01*
X13095476Y-10500429D01*
X13085952Y-10490905D01*
D18*
X6625000Y-10858000D02*
X6695000Y-10928000D01*
X6695000Y-10858000D02*
X6625000Y-10928000D01*
X6684749Y-10917749D02*
X6684749Y-10868251D01*
X6635251Y-10868251D01*
X6635251Y-10917749D01*
X6684749Y-10917749D01*
D11*
X6990714Y-10783476D02*
X7009762Y-10783476D01*
X7028809Y-10793000D01*
X7038333Y-10802524D01*
X7047857Y-10821571D01*
X7057381Y-10859667D01*
X7057381Y-10907286D01*
X7047857Y-10945381D01*
X7038333Y-10964429D01*
X7028809Y-10973952D01*
X7009762Y-10983476D01*
X6990714Y-10983476D01*
X6971667Y-10973952D01*
X6962143Y-10964429D01*
X6952619Y-10945381D01*
X6943095Y-10907286D01*
X6943095Y-10859667D01*
X6952619Y-10821571D01*
X6962143Y-10802524D01*
X6971667Y-10793000D01*
X6990714Y-10783476D01*
X7143095Y-10964429D02*
X7152619Y-10973952D01*
X7143095Y-10983476D01*
X7133571Y-10973952D01*
X7143095Y-10964429D01*
X7143095Y-10983476D01*
X7219286Y-10783476D02*
X7352619Y-10783476D01*
X7266905Y-10983476D01*
X7466905Y-10783476D02*
X7485952Y-10783476D01*
X7505000Y-10793000D01*
X7514524Y-10802524D01*
X7524048Y-10821571D01*
X7533571Y-10859667D01*
X7533571Y-10907286D01*
X7524048Y-10945381D01*
X7514524Y-10964429D01*
X7505000Y-10973952D01*
X7485952Y-10983476D01*
X7466905Y-10983476D01*
X7447857Y-10973952D01*
X7438333Y-10964429D01*
X7428809Y-10945381D01*
X7419286Y-10907286D01*
X7419286Y-10859667D01*
X7428809Y-10821571D01*
X7438333Y-10802524D01*
X7447857Y-10793000D01*
X7466905Y-10783476D01*
X7657381Y-10783476D02*
X7676428Y-10783476D01*
X7695476Y-10793000D01*
X7705000Y-10802524D01*
X7714524Y-10821571D01*
X7724048Y-10859667D01*
X7724048Y-10907286D01*
X7714524Y-10945381D01*
X7705000Y-10964429D01*
X7695476Y-10973952D01*
X7676428Y-10983476D01*
X7657381Y-10983476D01*
X7638333Y-10973952D01*
X7628809Y-10964429D01*
X7619286Y-10945381D01*
X7609762Y-10907286D01*
X7609762Y-10859667D01*
X7619286Y-10821571D01*
X7628809Y-10802524D01*
X7638333Y-10793000D01*
X7657381Y-10783476D01*
X7809762Y-10983476D02*
X7809762Y-10850143D01*
X7809762Y-10869190D02*
X7819286Y-10859667D01*
X7838333Y-10850143D01*
X7866905Y-10850143D01*
X7885952Y-10859667D01*
X7895476Y-10878714D01*
X7895476Y-10983476D01*
X7895476Y-10878714D02*
X7905000Y-10859667D01*
X7924048Y-10850143D01*
X7952619Y-10850143D01*
X7971667Y-10859667D01*
X7981190Y-10878714D01*
X7981190Y-10983476D01*
X8076428Y-10983476D02*
X8076428Y-10850143D01*
X8076428Y-10869190D02*
X8085952Y-10859667D01*
X8105000Y-10850143D01*
X8133571Y-10850143D01*
X8152619Y-10859667D01*
X8162143Y-10878714D01*
X8162143Y-10983476D01*
X8162143Y-10878714D02*
X8171667Y-10859667D01*
X8190714Y-10850143D01*
X8219286Y-10850143D01*
X8238333Y-10859667D01*
X8247857Y-10878714D01*
X8247857Y-10983476D01*
X8638333Y-10773952D02*
X8466905Y-11031095D01*
X8895476Y-10783476D02*
X8914524Y-10783476D01*
X8933571Y-10793000D01*
X8943095Y-10802524D01*
X8952619Y-10821571D01*
X8962143Y-10859667D01*
X8962143Y-10907286D01*
X8952619Y-10945381D01*
X8943095Y-10964429D01*
X8933571Y-10973952D01*
X8914524Y-10983476D01*
X8895476Y-10983476D01*
X8876429Y-10973952D01*
X8866905Y-10964429D01*
X8857381Y-10945381D01*
X8847857Y-10907286D01*
X8847857Y-10859667D01*
X8857381Y-10821571D01*
X8866905Y-10802524D01*
X8876429Y-10793000D01*
X8895476Y-10783476D01*
X9047857Y-10964429D02*
X9057381Y-10973952D01*
X9047857Y-10983476D01*
X9038333Y-10973952D01*
X9047857Y-10964429D01*
X9047857Y-10983476D01*
X9181190Y-10783476D02*
X9200238Y-10783476D01*
X9219286Y-10793000D01*
X9228810Y-10802524D01*
X9238333Y-10821571D01*
X9247857Y-10859667D01*
X9247857Y-10907286D01*
X9238333Y-10945381D01*
X9228810Y-10964429D01*
X9219286Y-10973952D01*
X9200238Y-10983476D01*
X9181190Y-10983476D01*
X9162143Y-10973952D01*
X9152619Y-10964429D01*
X9143095Y-10945381D01*
X9133571Y-10907286D01*
X9133571Y-10859667D01*
X9143095Y-10821571D01*
X9152619Y-10802524D01*
X9162143Y-10793000D01*
X9181190Y-10783476D01*
X9324048Y-10802524D02*
X9333571Y-10793000D01*
X9352619Y-10783476D01*
X9400238Y-10783476D01*
X9419286Y-10793000D01*
X9428810Y-10802524D01*
X9438333Y-10821571D01*
X9438333Y-10840619D01*
X9428810Y-10869190D01*
X9314524Y-10983476D01*
X9438333Y-10983476D01*
X9505000Y-10783476D02*
X9638333Y-10783476D01*
X9552619Y-10983476D01*
X9800238Y-10783476D02*
X9762143Y-10783476D01*
X9743095Y-10793000D01*
X9733571Y-10802524D01*
X9714524Y-10831095D01*
X9705000Y-10869190D01*
X9705000Y-10945381D01*
X9714524Y-10964429D01*
X9724048Y-10973952D01*
X9743095Y-10983476D01*
X9781190Y-10983476D01*
X9800238Y-10973952D01*
X9809762Y-10964429D01*
X9819286Y-10945381D01*
X9819286Y-10897762D01*
X9809762Y-10878714D01*
X9800238Y-10869190D01*
X9781190Y-10859667D01*
X9743095Y-10859667D01*
X9724048Y-10869190D01*
X9714524Y-10878714D01*
X9705000Y-10897762D01*
X9895476Y-10783476D02*
X9895476Y-10821571D01*
X9971667Y-10783476D02*
X9971667Y-10821571D01*
X10266905Y-11059667D02*
X10257381Y-11050143D01*
X10238333Y-11021571D01*
X10228810Y-11002524D01*
X10219286Y-10973952D01*
X10209762Y-10926333D01*
X10209762Y-10888238D01*
X10219286Y-10840619D01*
X10228810Y-10812048D01*
X10238333Y-10793000D01*
X10257381Y-10764429D01*
X10266905Y-10754905D01*
X10333571Y-10802524D02*
X10343095Y-10793000D01*
X10362143Y-10783476D01*
X10409762Y-10783476D01*
X10428810Y-10793000D01*
X10438333Y-10802524D01*
X10447857Y-10821571D01*
X10447857Y-10840619D01*
X10438333Y-10869190D01*
X10324048Y-10983476D01*
X10447857Y-10983476D01*
X10685952Y-10983476D02*
X10685952Y-10783476D01*
X10771667Y-10983476D02*
X10771667Y-10878714D01*
X10762143Y-10859667D01*
X10743095Y-10850143D01*
X10714524Y-10850143D01*
X10695476Y-10859667D01*
X10685952Y-10869190D01*
X10895476Y-10983476D02*
X10876429Y-10973952D01*
X10866905Y-10964429D01*
X10857381Y-10945381D01*
X10857381Y-10888238D01*
X10866905Y-10869190D01*
X10876429Y-10859667D01*
X10895476Y-10850143D01*
X10924048Y-10850143D01*
X10943095Y-10859667D01*
X10952619Y-10869190D01*
X10962143Y-10888238D01*
X10962143Y-10945381D01*
X10952619Y-10964429D01*
X10943095Y-10973952D01*
X10924048Y-10983476D01*
X10895476Y-10983476D01*
X11076429Y-10983476D02*
X11057381Y-10973952D01*
X11047857Y-10954905D01*
X11047857Y-10783476D01*
X11228809Y-10973952D02*
X11209762Y-10983476D01*
X11171667Y-10983476D01*
X11152619Y-10973952D01*
X11143095Y-10954905D01*
X11143095Y-10878714D01*
X11152619Y-10859667D01*
X11171667Y-10850143D01*
X11209762Y-10850143D01*
X11228809Y-10859667D01*
X11238333Y-10878714D01*
X11238333Y-10897762D01*
X11143095Y-10916810D01*
X11314524Y-10973952D02*
X11333571Y-10983476D01*
X11371667Y-10983476D01*
X11390714Y-10973952D01*
X11400238Y-10954905D01*
X11400238Y-10945381D01*
X11390714Y-10926333D01*
X11371667Y-10916810D01*
X11343095Y-10916810D01*
X11324048Y-10907286D01*
X11314524Y-10888238D01*
X11314524Y-10878714D01*
X11324048Y-10859667D01*
X11343095Y-10850143D01*
X11371667Y-10850143D01*
X11390714Y-10859667D01*
X11466905Y-11059667D02*
X11476428Y-11050143D01*
X11495476Y-11021571D01*
X11505000Y-11002524D01*
X11514524Y-10973952D01*
X11524048Y-10926333D01*
X11524048Y-10888238D01*
X11514524Y-10840619D01*
X11505000Y-10812048D01*
X11495476Y-10793000D01*
X11476428Y-10764429D01*
X11466905Y-10754905D01*
M02*
