%TF.GenerationSoftware,KiCad,Pcbnew,6.0.7-f9a2dced07~116~ubuntu22.04.1*%
%TF.CreationDate,2022-09-22T15:06:03+08:00*%
%TF.ProjectId,OSSG_v0p4,4f535347-5f76-4307-9034-2e6b69636164,v0.4*%
%TF.SameCoordinates,Original*%
%TF.FileFunction,Legend,Bot*%
%TF.FilePolarity,Positive*%
%FSLAX46Y46*%
G04 Gerber Fmt 4.6, Leading zero omitted, Abs format (unit mm)*
G04 Created by KiCad (PCBNEW 6.0.7-f9a2dced07~116~ubuntu22.04.1) date 2022-09-22 15:06:03*
%MOMM*%
%LPD*%
G01*
G04 APERTURE LIST*
%ADD10C,0.120000*%
%ADD11C,0.070000*%
%ADD12C,0.125000*%
%ADD13C,0.150000*%
%ADD14C,0.100000*%
%ADD15C,0.200000*%
%ADD16C,0.127000*%
%ADD17C,1.100000*%
%ADD18C,1.000000*%
%ADD19O,0.890000X1.550000*%
%ADD20O,1.250000X0.950000*%
%ADD21C,0.750000*%
%ADD22C,0.381000*%
%ADD23R,1.550000X0.600000*%
%ADD24C,1.500000*%
%ADD25R,0.700000X0.700000*%
%ADD26C,0.600000*%
%ADD27R,1.300000X0.450000*%
G04 APERTURE END LIST*
D10*
X79247613Y-75553056D02*
X78714280Y-75553056D01*
D11*
X144074566Y-81806529D02*
X143788852Y-81806529D01*
X143931709Y-82306529D02*
X143931709Y-81806529D01*
X143431709Y-82282719D02*
X143479328Y-82306529D01*
X143574566Y-82306529D01*
X143622185Y-82282719D01*
X143645995Y-82235100D01*
X143645995Y-82044624D01*
X143622185Y-81997005D01*
X143574566Y-81973196D01*
X143479328Y-81973196D01*
X143431709Y-81997005D01*
X143407899Y-82044624D01*
X143407899Y-82092243D01*
X143645995Y-82139862D01*
X142979328Y-82306529D02*
X142979328Y-82044624D01*
X143003138Y-81997005D01*
X143050757Y-81973196D01*
X143145995Y-81973196D01*
X143193614Y-81997005D01*
X142979328Y-82282719D02*
X143026947Y-82306529D01*
X143145995Y-82306529D01*
X143193614Y-82282719D01*
X143217423Y-82235100D01*
X143217423Y-82187481D01*
X143193614Y-82139862D01*
X143145995Y-82116053D01*
X143026947Y-82116053D01*
X142979328Y-82092243D01*
X142741233Y-82306529D02*
X142741233Y-81973196D01*
X142741233Y-82020815D02*
X142717423Y-81997005D01*
X142669804Y-81973196D01*
X142598376Y-81973196D01*
X142550757Y-81997005D01*
X142526947Y-82044624D01*
X142526947Y-82306529D01*
X142526947Y-82044624D02*
X142503138Y-81997005D01*
X142455519Y-81973196D01*
X142384090Y-81973196D01*
X142336471Y-81997005D01*
X142312661Y-82044624D01*
X142312661Y-82306529D01*
X141979328Y-81806529D02*
X141884090Y-81806529D01*
X141836471Y-81830339D01*
X141788852Y-81877958D01*
X141765042Y-81973196D01*
X141765042Y-82139862D01*
X141788852Y-82235100D01*
X141836471Y-82282719D01*
X141884090Y-82306529D01*
X141979328Y-82306529D01*
X142026947Y-82282719D01*
X142074566Y-82235100D01*
X142098376Y-82139862D01*
X142098376Y-81973196D01*
X142074566Y-81877958D01*
X142026947Y-81830339D01*
X141979328Y-81806529D01*
X141550757Y-81973196D02*
X141550757Y-82473196D01*
X141550757Y-81997005D02*
X141503138Y-81973196D01*
X141407899Y-81973196D01*
X141360280Y-81997005D01*
X141336471Y-82020815D01*
X141312661Y-82068434D01*
X141312661Y-82211291D01*
X141336471Y-82258910D01*
X141360280Y-82282719D01*
X141407899Y-82306529D01*
X141503138Y-82306529D01*
X141550757Y-82282719D01*
X140907899Y-82282719D02*
X140955519Y-82306529D01*
X141050757Y-82306529D01*
X141098376Y-82282719D01*
X141122185Y-82235100D01*
X141122185Y-82044624D01*
X141098376Y-81997005D01*
X141050757Y-81973196D01*
X140955519Y-81973196D01*
X140907899Y-81997005D01*
X140884090Y-82044624D01*
X140884090Y-82092243D01*
X141122185Y-82139862D01*
X140669804Y-81973196D02*
X140669804Y-82306529D01*
X140669804Y-82020815D02*
X140645995Y-81997005D01*
X140598376Y-81973196D01*
X140526947Y-81973196D01*
X140479328Y-81997005D01*
X140455519Y-82044624D01*
X140455519Y-82306529D01*
X140241233Y-82282719D02*
X140169804Y-82306529D01*
X140050757Y-82306529D01*
X140003138Y-82282719D01*
X139979328Y-82258910D01*
X139955519Y-82211291D01*
X139955519Y-82163672D01*
X139979328Y-82116053D01*
X140003138Y-82092243D01*
X140050757Y-82068434D01*
X140145995Y-82044624D01*
X140193614Y-82020815D01*
X140217423Y-81997005D01*
X140241233Y-81949386D01*
X140241233Y-81901767D01*
X140217423Y-81854148D01*
X140193614Y-81830339D01*
X140145995Y-81806529D01*
X140026947Y-81806529D01*
X139955519Y-81830339D01*
X139741233Y-82306529D02*
X139741233Y-81973196D01*
X139741233Y-82020815D02*
X139717423Y-81997005D01*
X139669804Y-81973196D01*
X139598376Y-81973196D01*
X139550757Y-81997005D01*
X139526947Y-82044624D01*
X139526947Y-82306529D01*
X139526947Y-82044624D02*
X139503138Y-81997005D01*
X139455519Y-81973196D01*
X139384090Y-81973196D01*
X139336471Y-81997005D01*
X139312661Y-82044624D01*
X139312661Y-82306529D01*
X138860280Y-82306529D02*
X138860280Y-82044624D01*
X138884090Y-81997005D01*
X138931709Y-81973196D01*
X139026947Y-81973196D01*
X139074566Y-81997005D01*
X138860280Y-82282719D02*
X138907899Y-82306529D01*
X139026947Y-82306529D01*
X139074566Y-82282719D01*
X139098376Y-82235100D01*
X139098376Y-82187481D01*
X139074566Y-82139862D01*
X139026947Y-82116053D01*
X138907899Y-82116053D01*
X138860280Y-82092243D01*
X138622185Y-82306529D02*
X138622185Y-81973196D01*
X138622185Y-82068434D02*
X138598376Y-82020815D01*
X138574566Y-81997005D01*
X138526947Y-81973196D01*
X138479328Y-81973196D01*
X138384090Y-81973196D02*
X138193614Y-81973196D01*
X138312661Y-81806529D02*
X138312661Y-82235100D01*
X138288852Y-82282719D01*
X138241233Y-82306529D01*
X138193614Y-82306529D01*
X137765042Y-81830339D02*
X137812661Y-81806529D01*
X137884090Y-81806529D01*
X137955519Y-81830339D01*
X138003138Y-81877958D01*
X138026947Y-81925577D01*
X138050757Y-82020815D01*
X138050757Y-82092243D01*
X138026947Y-82187481D01*
X138003138Y-82235100D01*
X137955519Y-82282719D01*
X137884090Y-82306529D01*
X137836471Y-82306529D01*
X137765042Y-82282719D01*
X137741233Y-82258910D01*
X137741233Y-82092243D01*
X137836471Y-82092243D01*
X137455519Y-82306529D02*
X137503138Y-82282719D01*
X137526947Y-82235100D01*
X137526947Y-81806529D01*
X137050757Y-82306529D02*
X137050757Y-82044624D01*
X137074566Y-81997005D01*
X137122185Y-81973196D01*
X137217423Y-81973196D01*
X137265042Y-81997005D01*
X137050757Y-82282719D02*
X137098376Y-82306529D01*
X137217423Y-82306529D01*
X137265042Y-82282719D01*
X137288852Y-82235100D01*
X137288852Y-82187481D01*
X137265042Y-82139862D01*
X137217423Y-82116053D01*
X137098376Y-82116053D01*
X137050757Y-82092243D01*
X136836471Y-82282719D02*
X136788852Y-82306529D01*
X136693614Y-82306529D01*
X136645995Y-82282719D01*
X136622185Y-82235100D01*
X136622185Y-82211291D01*
X136645995Y-82163672D01*
X136693614Y-82139862D01*
X136765042Y-82139862D01*
X136812661Y-82116053D01*
X136836471Y-82068434D01*
X136836471Y-82044624D01*
X136812661Y-81997005D01*
X136765042Y-81973196D01*
X136693614Y-81973196D01*
X136645995Y-81997005D01*
X136431709Y-82282719D02*
X136384090Y-82306529D01*
X136288852Y-82306529D01*
X136241233Y-82282719D01*
X136217423Y-82235100D01*
X136217423Y-82211291D01*
X136241233Y-82163672D01*
X136288852Y-82139862D01*
X136360280Y-82139862D01*
X136407899Y-82116053D01*
X136431709Y-82068434D01*
X136431709Y-82044624D01*
X136407899Y-81997005D01*
X136360280Y-81973196D01*
X136288852Y-81973196D01*
X136241233Y-81997005D01*
X135812661Y-82282719D02*
X135860280Y-82306529D01*
X135955519Y-82306529D01*
X136003138Y-82282719D01*
X136026947Y-82235100D01*
X136026947Y-82044624D01*
X136003138Y-81997005D01*
X135955519Y-81973196D01*
X135860280Y-81973196D01*
X135812661Y-81997005D01*
X135788852Y-82044624D01*
X135788852Y-82092243D01*
X136026947Y-82139862D01*
X135598376Y-82282719D02*
X135550757Y-82306529D01*
X135455519Y-82306529D01*
X135407899Y-82282719D01*
X135384090Y-82235100D01*
X135384090Y-82211291D01*
X135407899Y-82163672D01*
X135455519Y-82139862D01*
X135526947Y-82139862D01*
X135574566Y-82116053D01*
X135598376Y-82068434D01*
X135598376Y-82044624D01*
X135574566Y-81997005D01*
X135526947Y-81973196D01*
X135455519Y-81973196D01*
X135407899Y-81997005D01*
D10*
X89071402Y-83151389D02*
X88638069Y-83151389D01*
X88871402Y-83418056D01*
X88771402Y-83418056D01*
X88704736Y-83451389D01*
X88671402Y-83484723D01*
X88638069Y-83551389D01*
X88638069Y-83718056D01*
X88671402Y-83784723D01*
X88704736Y-83818056D01*
X88771402Y-83851389D01*
X88971402Y-83851389D01*
X89038069Y-83818056D01*
X89071402Y-83784723D01*
X88438069Y-83151389D02*
X88204736Y-83851389D01*
X87971402Y-83151389D01*
X87804736Y-83151389D02*
X87371402Y-83151389D01*
X87604736Y-83418056D01*
X87504736Y-83418056D01*
X87438069Y-83451389D01*
X87404736Y-83484723D01*
X87371402Y-83551389D01*
X87371402Y-83718056D01*
X87404736Y-83784723D01*
X87438069Y-83818056D01*
X87504736Y-83851389D01*
X87704736Y-83851389D01*
X87771402Y-83818056D01*
X87804736Y-83784723D01*
X93623547Y-82656604D02*
X93690214Y-82623270D01*
X93790214Y-82623270D01*
X93890214Y-82656604D01*
X93956880Y-82723270D01*
X93990214Y-82789937D01*
X94023547Y-82923270D01*
X94023547Y-83023270D01*
X93990214Y-83156604D01*
X93956880Y-83223270D01*
X93890214Y-83289937D01*
X93790214Y-83323270D01*
X93723547Y-83323270D01*
X93623547Y-83289937D01*
X93590214Y-83256604D01*
X93590214Y-83023270D01*
X93723547Y-83023270D01*
X93290214Y-83323270D02*
X93290214Y-82623270D01*
X92890214Y-83323270D01*
X92890214Y-82623270D01*
X92556880Y-83323270D02*
X92556880Y-82623270D01*
X92390214Y-82623270D01*
X92290214Y-82656604D01*
X92223547Y-82723270D01*
X92190214Y-82789937D01*
X92156880Y-82923270D01*
X92156880Y-83023270D01*
X92190214Y-83156604D01*
X92223547Y-83223270D01*
X92290214Y-83289937D01*
X92390214Y-83323270D01*
X92556880Y-83323270D01*
X88642754Y-81709972D02*
X88676088Y-81743305D01*
X88776088Y-81776638D01*
X88842754Y-81776638D01*
X88942754Y-81743305D01*
X89009421Y-81676638D01*
X89042754Y-81609972D01*
X89076088Y-81476638D01*
X89076088Y-81376638D01*
X89042754Y-81243305D01*
X89009421Y-81176638D01*
X88942754Y-81109972D01*
X88842754Y-81076638D01*
X88776088Y-81076638D01*
X88676088Y-81109972D01*
X88642754Y-81143305D01*
X88009421Y-81776638D02*
X88342754Y-81776638D01*
X88342754Y-81076638D01*
X87776088Y-81776638D02*
X87776088Y-81076638D01*
X87376088Y-81776638D02*
X87676088Y-81376638D01*
X87376088Y-81076638D02*
X87776088Y-81476638D01*
X93108247Y-80606229D02*
X92674914Y-80606229D01*
X92908247Y-80872896D01*
X92808247Y-80872896D01*
X92741581Y-80906229D01*
X92708247Y-80939563D01*
X92674914Y-81006229D01*
X92674914Y-81172896D01*
X92708247Y-81239563D01*
X92741581Y-81272896D01*
X92808247Y-81306229D01*
X93008247Y-81306229D01*
X93074914Y-81272896D01*
X93108247Y-81239563D01*
X92474914Y-80606229D02*
X92241581Y-81306229D01*
X92008247Y-80606229D01*
X91841581Y-80606229D02*
X91408247Y-80606229D01*
X91641581Y-80872896D01*
X91541581Y-80872896D01*
X91474914Y-80906229D01*
X91441581Y-80939563D01*
X91408247Y-81006229D01*
X91408247Y-81172896D01*
X91441581Y-81239563D01*
X91474914Y-81272896D01*
X91541581Y-81306229D01*
X91741581Y-81306229D01*
X91808247Y-81272896D01*
X91841581Y-81239563D01*
X78955226Y-76944065D02*
X78955226Y-76244065D01*
X78788559Y-76244065D01*
X78688559Y-76277399D01*
X78621893Y-76344065D01*
X78588559Y-76410732D01*
X78555226Y-76544065D01*
X78555226Y-76644065D01*
X78588559Y-76777399D01*
X78621893Y-76844065D01*
X78688559Y-76910732D01*
X78788559Y-76944065D01*
X78955226Y-76944065D01*
X145493491Y-76176029D02*
X145493491Y-75476029D01*
X145260158Y-75976029D01*
X145026825Y-75476029D01*
X145026825Y-76176029D01*
X144326825Y-76176029D02*
X144726825Y-76176029D01*
X144526825Y-76176029D02*
X144526825Y-75476029D01*
X144593491Y-75576029D01*
X144660158Y-75642696D01*
X144726825Y-75676029D01*
X144026825Y-76109363D02*
X143993491Y-76142696D01*
X144026825Y-76176029D01*
X144060158Y-76142696D01*
X144026825Y-76109363D01*
X144026825Y-76176029D01*
X143360158Y-75476029D02*
X143693491Y-75476029D01*
X143726825Y-75809363D01*
X143693491Y-75776029D01*
X143626825Y-75742696D01*
X143460158Y-75742696D01*
X143393491Y-75776029D01*
X143360158Y-75809363D01*
X143326825Y-75876029D01*
X143326825Y-76042696D01*
X143360158Y-76109363D01*
X143393491Y-76142696D01*
X143460158Y-76176029D01*
X143626825Y-76176029D01*
X143693491Y-76142696D01*
X143726825Y-76109363D01*
D12*
X159852979Y-75352171D02*
X159472026Y-75352171D01*
X159662503Y-75542647D02*
X159662503Y-75161695D01*
D10*
X88981723Y-80741042D02*
X88981723Y-80041042D01*
X88815057Y-80041042D01*
X88715057Y-80074376D01*
X88648390Y-80141042D01*
X88615057Y-80207709D01*
X88581723Y-80341042D01*
X88581723Y-80441042D01*
X88615057Y-80574376D01*
X88648390Y-80641042D01*
X88715057Y-80707709D01*
X88815057Y-80741042D01*
X88981723Y-80741042D01*
X88281723Y-80741042D02*
X88281723Y-80274376D01*
X88281723Y-80041042D02*
X88315057Y-80074376D01*
X88281723Y-80107709D01*
X88248390Y-80074376D01*
X88281723Y-80041042D01*
X88281723Y-80107709D01*
X87948390Y-80274376D02*
X87948390Y-80741042D01*
X87948390Y-80341042D02*
X87915057Y-80307709D01*
X87848390Y-80274376D01*
X87748390Y-80274376D01*
X87681723Y-80307709D01*
X87648390Y-80374376D01*
X87648390Y-80741042D01*
X108784091Y-83009016D02*
X108384091Y-83009016D01*
X108584091Y-83709016D02*
X108584091Y-83009016D01*
X108050757Y-83709016D02*
X108117424Y-83675683D01*
X108150757Y-83642350D01*
X108184091Y-83575683D01*
X108184091Y-83375683D01*
X108150757Y-83309016D01*
X108117424Y-83275683D01*
X108050757Y-83242350D01*
X107950757Y-83242350D01*
X107884091Y-83275683D01*
X107850757Y-83309016D01*
X107817424Y-83375683D01*
X107817424Y-83575683D01*
X107850757Y-83642350D01*
X107884091Y-83675683D01*
X107950757Y-83709016D01*
X108050757Y-83709016D01*
X107217424Y-83242350D02*
X107217424Y-83709016D01*
X107517424Y-83242350D02*
X107517424Y-83609016D01*
X107484091Y-83675683D01*
X107417424Y-83709016D01*
X107317424Y-83709016D01*
X107250757Y-83675683D01*
X107217424Y-83642350D01*
X106584091Y-83675683D02*
X106650757Y-83709016D01*
X106784091Y-83709016D01*
X106850757Y-83675683D01*
X106884091Y-83642350D01*
X106917424Y-83575683D01*
X106917424Y-83375683D01*
X106884091Y-83309016D01*
X106850757Y-83275683D01*
X106784091Y-83242350D01*
X106650757Y-83242350D01*
X106584091Y-83275683D01*
X106284091Y-83709016D02*
X106284091Y-83009016D01*
X105984091Y-83709016D02*
X105984091Y-83342350D01*
X106017424Y-83275683D01*
X106084091Y-83242350D01*
X106184091Y-83242350D01*
X106250757Y-83275683D01*
X106284091Y-83309016D01*
X78987691Y-77297741D02*
X79321024Y-77297741D01*
X79354358Y-77631075D01*
X79321024Y-77597741D01*
X79254358Y-77564408D01*
X79087691Y-77564408D01*
X79021024Y-77597741D01*
X78987691Y-77631075D01*
X78954358Y-77697741D01*
X78954358Y-77864408D01*
X78987691Y-77931075D01*
X79021024Y-77964408D01*
X79087691Y-77997741D01*
X79254358Y-77997741D01*
X79321024Y-77964408D01*
X79354358Y-77931075D01*
X78754358Y-77297741D02*
X78521024Y-77997741D01*
X78287691Y-77297741D01*
X91518858Y-80264050D02*
X91518858Y-79564050D01*
X91518858Y-79897384D02*
X91118858Y-79897384D01*
X91118858Y-80264050D02*
X91118858Y-79564050D01*
X90785525Y-79564050D02*
X90785525Y-80130717D01*
X90752192Y-80197384D01*
X90718858Y-80230717D01*
X90652192Y-80264050D01*
X90518858Y-80264050D01*
X90452192Y-80230717D01*
X90418858Y-80197384D01*
X90385525Y-80130717D01*
X90385525Y-79564050D01*
X90052192Y-80264050D02*
X90052192Y-79564050D01*
X89885525Y-79564050D01*
X89785525Y-79597384D01*
X89718858Y-79664050D01*
X89685525Y-79730717D01*
X89652192Y-79864050D01*
X89652192Y-79964050D01*
X89685525Y-80097384D01*
X89718858Y-80164050D01*
X89785525Y-80230717D01*
X89885525Y-80264050D01*
X90052192Y-80264050D01*
X81909807Y-76205273D02*
X81676473Y-76205273D01*
X81576473Y-76571939D02*
X81909807Y-76571939D01*
X81909807Y-75871939D01*
X81576473Y-75871939D01*
X81343140Y-76571939D02*
X80976473Y-76105273D01*
X81343140Y-76105273D02*
X80976473Y-76571939D01*
X80809807Y-76105273D02*
X80543140Y-76105273D01*
X80709807Y-75871939D02*
X80709807Y-76471939D01*
X80676473Y-76538606D01*
X80609807Y-76571939D01*
X80543140Y-76571939D01*
X80309807Y-76505273D02*
X80276473Y-76538606D01*
X80309807Y-76571939D01*
X80343140Y-76538606D01*
X80309807Y-76505273D01*
X80309807Y-76571939D01*
X81559807Y-77698939D02*
X81893140Y-77698939D01*
X81893140Y-76998939D01*
X81326473Y-77332273D02*
X81093140Y-77332273D01*
X80993140Y-77698939D02*
X81326473Y-77698939D01*
X81326473Y-76998939D01*
X80993140Y-76998939D01*
X80693140Y-77698939D02*
X80693140Y-76998939D01*
X80526473Y-76998939D01*
X80426473Y-77032273D01*
X80359807Y-77098939D01*
X80326473Y-77165606D01*
X80293140Y-77298939D01*
X80293140Y-77398939D01*
X80326473Y-77532273D01*
X80359807Y-77598939D01*
X80426473Y-77665606D01*
X80526473Y-77698939D01*
X80693140Y-77698939D01*
D11*
X149805244Y-81313429D02*
X149805244Y-80813429D01*
X149686196Y-80813429D01*
X149614767Y-80837239D01*
X149567148Y-80884858D01*
X149543339Y-80932477D01*
X149519529Y-81027715D01*
X149519529Y-81099143D01*
X149543339Y-81194381D01*
X149567148Y-81242000D01*
X149614767Y-81289619D01*
X149686196Y-81313429D01*
X149805244Y-81313429D01*
X149114767Y-81289619D02*
X149162386Y-81313429D01*
X149257625Y-81313429D01*
X149305244Y-81289619D01*
X149329053Y-81242000D01*
X149329053Y-81051524D01*
X149305244Y-81003905D01*
X149257625Y-80980096D01*
X149162386Y-80980096D01*
X149114767Y-81003905D01*
X149090958Y-81051524D01*
X149090958Y-81099143D01*
X149329053Y-81146762D01*
X148900482Y-81289619D02*
X148852863Y-81313429D01*
X148757625Y-81313429D01*
X148710005Y-81289619D01*
X148686196Y-81242000D01*
X148686196Y-81218191D01*
X148710005Y-81170572D01*
X148757625Y-81146762D01*
X148829053Y-81146762D01*
X148876672Y-81122953D01*
X148900482Y-81075334D01*
X148900482Y-81051524D01*
X148876672Y-81003905D01*
X148829053Y-80980096D01*
X148757625Y-80980096D01*
X148710005Y-81003905D01*
X148471910Y-81313429D02*
X148471910Y-80980096D01*
X148471910Y-80813429D02*
X148495720Y-80837239D01*
X148471910Y-80861048D01*
X148448101Y-80837239D01*
X148471910Y-80813429D01*
X148471910Y-80861048D01*
X148019529Y-80980096D02*
X148019529Y-81384858D01*
X148043339Y-81432477D01*
X148067148Y-81456286D01*
X148114767Y-81480096D01*
X148186196Y-81480096D01*
X148233815Y-81456286D01*
X148019529Y-81289619D02*
X148067148Y-81313429D01*
X148162386Y-81313429D01*
X148210005Y-81289619D01*
X148233815Y-81265810D01*
X148257625Y-81218191D01*
X148257625Y-81075334D01*
X148233815Y-81027715D01*
X148210005Y-81003905D01*
X148162386Y-80980096D01*
X148067148Y-80980096D01*
X148019529Y-81003905D01*
X147781434Y-80980096D02*
X147781434Y-81313429D01*
X147781434Y-81027715D02*
X147757625Y-81003905D01*
X147710005Y-80980096D01*
X147638577Y-80980096D01*
X147590958Y-81003905D01*
X147567148Y-81051524D01*
X147567148Y-81313429D01*
X147329053Y-81265810D02*
X147305244Y-81289619D01*
X147329053Y-81313429D01*
X147352863Y-81289619D01*
X147329053Y-81265810D01*
X147329053Y-81313429D01*
X147329053Y-81003905D02*
X147305244Y-81027715D01*
X147329053Y-81051524D01*
X147352863Y-81027715D01*
X147329053Y-81003905D01*
X147329053Y-81051524D01*
X146424291Y-81265810D02*
X146448101Y-81289619D01*
X146519529Y-81313429D01*
X146567148Y-81313429D01*
X146638577Y-81289619D01*
X146686196Y-81242000D01*
X146710005Y-81194381D01*
X146733815Y-81099143D01*
X146733815Y-81027715D01*
X146710005Y-80932477D01*
X146686196Y-80884858D01*
X146638577Y-80837239D01*
X146567148Y-80813429D01*
X146519529Y-80813429D01*
X146448101Y-80837239D01*
X146424291Y-80861048D01*
X145995720Y-81313429D02*
X145995720Y-81051524D01*
X146019529Y-81003905D01*
X146067148Y-80980096D01*
X146162386Y-80980096D01*
X146210005Y-81003905D01*
X145995720Y-81289619D02*
X146043339Y-81313429D01*
X146162386Y-81313429D01*
X146210005Y-81289619D01*
X146233815Y-81242000D01*
X146233815Y-81194381D01*
X146210005Y-81146762D01*
X146162386Y-81122953D01*
X146043339Y-81122953D01*
X145995720Y-81099143D01*
X145805244Y-80980096D02*
X145686196Y-81313429D01*
X145567148Y-80980096D02*
X145686196Y-81313429D01*
X145733815Y-81432477D01*
X145757625Y-81456286D01*
X145805244Y-81480096D01*
X145162386Y-81313429D02*
X145162386Y-80813429D01*
X145162386Y-81289619D02*
X145210005Y-81313429D01*
X145305244Y-81313429D01*
X145352863Y-81289619D01*
X145376672Y-81265810D01*
X145400482Y-81218191D01*
X145400482Y-81075334D01*
X145376672Y-81027715D01*
X145352863Y-81003905D01*
X145305244Y-80980096D01*
X145210005Y-80980096D01*
X145162386Y-81003905D01*
X144733815Y-81289619D02*
X144781434Y-81313429D01*
X144876672Y-81313429D01*
X144924291Y-81289619D01*
X144948101Y-81242000D01*
X144948101Y-81051524D01*
X144924291Y-81003905D01*
X144876672Y-80980096D01*
X144781434Y-80980096D01*
X144733815Y-81003905D01*
X144710005Y-81051524D01*
X144710005Y-81099143D01*
X144948101Y-81146762D01*
X144495720Y-80980096D02*
X144495720Y-81313429D01*
X144495720Y-81027715D02*
X144471910Y-81003905D01*
X144424291Y-80980096D01*
X144352863Y-80980096D01*
X144305244Y-81003905D01*
X144281434Y-81051524D01*
X144281434Y-81313429D01*
X143662386Y-81313429D02*
X143662386Y-80813429D01*
X143471910Y-80813429D01*
X143424291Y-80837239D01*
X143400482Y-80861048D01*
X143376672Y-80908667D01*
X143376672Y-80980096D01*
X143400482Y-81027715D01*
X143424291Y-81051524D01*
X143471910Y-81075334D01*
X143662386Y-81075334D01*
X143162386Y-81313429D02*
X143162386Y-80980096D01*
X143162386Y-80813429D02*
X143186196Y-80837239D01*
X143162386Y-80861048D01*
X143138577Y-80837239D01*
X143162386Y-80813429D01*
X143162386Y-80861048D01*
X142733815Y-81289619D02*
X142781434Y-81313429D01*
X142876672Y-81313429D01*
X142924291Y-81289619D01*
X142948101Y-81242000D01*
X142948101Y-81051524D01*
X142924291Y-81003905D01*
X142876672Y-80980096D01*
X142781434Y-80980096D01*
X142733815Y-81003905D01*
X142710005Y-81051524D01*
X142710005Y-81099143D01*
X142948101Y-81146762D01*
X142495720Y-81313429D02*
X142495720Y-80980096D01*
X142495720Y-81075334D02*
X142471910Y-81027715D01*
X142448101Y-81003905D01*
X142400482Y-80980096D01*
X142352863Y-80980096D01*
X141971910Y-81289619D02*
X142019529Y-81313429D01*
X142114767Y-81313429D01*
X142162386Y-81289619D01*
X142186196Y-81265810D01*
X142210005Y-81218191D01*
X142210005Y-81075334D01*
X142186196Y-81027715D01*
X142162386Y-81003905D01*
X142114767Y-80980096D01*
X142019529Y-80980096D01*
X141971910Y-81003905D01*
X141567148Y-81289619D02*
X141614767Y-81313429D01*
X141710005Y-81313429D01*
X141757625Y-81289619D01*
X141781434Y-81242000D01*
X141781434Y-81051524D01*
X141757625Y-81003905D01*
X141710005Y-80980096D01*
X141614767Y-80980096D01*
X141567148Y-81003905D01*
X141543339Y-81051524D01*
X141543339Y-81099143D01*
X141781434Y-81146762D01*
X141305244Y-81289619D02*
X141305244Y-81313429D01*
X141329053Y-81361048D01*
X141352863Y-81384858D01*
X140710005Y-81313429D02*
X140710005Y-80813429D01*
X140424291Y-81313429D01*
X140424291Y-80813429D01*
X140186196Y-81313429D02*
X140186196Y-80980096D01*
X140186196Y-80813429D02*
X140210005Y-80837239D01*
X140186196Y-80861048D01*
X140162386Y-80837239D01*
X140186196Y-80813429D01*
X140186196Y-80861048D01*
X139733815Y-81289619D02*
X139781434Y-81313429D01*
X139876672Y-81313429D01*
X139924291Y-81289619D01*
X139948101Y-81265810D01*
X139971910Y-81218191D01*
X139971910Y-81075334D01*
X139948101Y-81027715D01*
X139924291Y-81003905D01*
X139876672Y-80980096D01*
X139781434Y-80980096D01*
X139733815Y-81003905D01*
X139519529Y-81313429D02*
X139519529Y-80813429D01*
X139305244Y-81313429D02*
X139305244Y-81051524D01*
X139329053Y-81003905D01*
X139376672Y-80980096D01*
X139448101Y-80980096D01*
X139495720Y-81003905D01*
X139519529Y-81027715D01*
X138995720Y-81313429D02*
X139043339Y-81289619D01*
X139067148Y-81265810D01*
X139090958Y-81218191D01*
X139090958Y-81075334D01*
X139067148Y-81027715D01*
X139043339Y-81003905D01*
X138995720Y-80980096D01*
X138924291Y-80980096D01*
X138876672Y-81003905D01*
X138852863Y-81027715D01*
X138829053Y-81075334D01*
X138829053Y-81218191D01*
X138852863Y-81265810D01*
X138876672Y-81289619D01*
X138924291Y-81313429D01*
X138995720Y-81313429D01*
X138543339Y-81313429D02*
X138590958Y-81289619D01*
X138614767Y-81242000D01*
X138614767Y-80813429D01*
X138138577Y-81313429D02*
X138138577Y-81051524D01*
X138162386Y-81003905D01*
X138210005Y-80980096D01*
X138305244Y-80980096D01*
X138352863Y-81003905D01*
X138138577Y-81289619D02*
X138186196Y-81313429D01*
X138305244Y-81313429D01*
X138352863Y-81289619D01*
X138376672Y-81242000D01*
X138376672Y-81194381D01*
X138352863Y-81146762D01*
X138305244Y-81122953D01*
X138186196Y-81122953D01*
X138138577Y-81099143D01*
X137924291Y-81289619D02*
X137876672Y-81313429D01*
X137781434Y-81313429D01*
X137733815Y-81289619D01*
X137710005Y-81242000D01*
X137710005Y-81218191D01*
X137733815Y-81170572D01*
X137781434Y-81146762D01*
X137852863Y-81146762D01*
X137900482Y-81122953D01*
X137924291Y-81075334D01*
X137924291Y-81051524D01*
X137900482Y-81003905D01*
X137852863Y-80980096D01*
X137781434Y-80980096D01*
X137733815Y-81003905D01*
X136852863Y-80837239D02*
X136900482Y-80813429D01*
X136971910Y-80813429D01*
X137043339Y-80837239D01*
X137090958Y-80884858D01*
X137114767Y-80932477D01*
X137138577Y-81027715D01*
X137138577Y-81099143D01*
X137114767Y-81194381D01*
X137090958Y-81242000D01*
X137043339Y-81289619D01*
X136971910Y-81313429D01*
X136924291Y-81313429D01*
X136852863Y-81289619D01*
X136829053Y-81265810D01*
X136829053Y-81099143D01*
X136924291Y-81099143D01*
X136614767Y-81313429D02*
X136614767Y-80980096D01*
X136614767Y-81075334D02*
X136590958Y-81027715D01*
X136567148Y-81003905D01*
X136519529Y-80980096D01*
X136471910Y-80980096D01*
X136090958Y-81313429D02*
X136090958Y-81051524D01*
X136114767Y-81003905D01*
X136162386Y-80980096D01*
X136257625Y-80980096D01*
X136305244Y-81003905D01*
X136090958Y-81289619D02*
X136138577Y-81313429D01*
X136257625Y-81313429D01*
X136305244Y-81289619D01*
X136329053Y-81242000D01*
X136329053Y-81194381D01*
X136305244Y-81146762D01*
X136257625Y-81122953D01*
X136138577Y-81122953D01*
X136090958Y-81099143D01*
X135900482Y-80980096D02*
X135781434Y-81313429D01*
X135662386Y-80980096D02*
X135781434Y-81313429D01*
X135829053Y-81432477D01*
X135852863Y-81456286D01*
X135900482Y-81480096D01*
X135448101Y-81289619D02*
X135448101Y-81313429D01*
X135471910Y-81361048D01*
X135495720Y-81384858D01*
X134852863Y-81313429D02*
X134852863Y-80813429D01*
X134662386Y-80813429D01*
X134614767Y-80837239D01*
X134590958Y-80861048D01*
X134567148Y-80908667D01*
X134567148Y-80980096D01*
X134590958Y-81027715D01*
X134614767Y-81051524D01*
X134662386Y-81075334D01*
X134852863Y-81075334D01*
X134138577Y-81313429D02*
X134138577Y-81051524D01*
X134162386Y-81003905D01*
X134210005Y-80980096D01*
X134305244Y-80980096D01*
X134352863Y-81003905D01*
X134138577Y-81289619D02*
X134186196Y-81313429D01*
X134305244Y-81313429D01*
X134352863Y-81289619D01*
X134376672Y-81242000D01*
X134376672Y-81194381D01*
X134352863Y-81146762D01*
X134305244Y-81122953D01*
X134186196Y-81122953D01*
X134138577Y-81099143D01*
X133686196Y-80980096D02*
X133686196Y-81313429D01*
X133900482Y-80980096D02*
X133900482Y-81242000D01*
X133876672Y-81289619D01*
X133829053Y-81313429D01*
X133757625Y-81313429D01*
X133710005Y-81289619D01*
X133686196Y-81265810D01*
X133376672Y-81313429D02*
X133424291Y-81289619D01*
X133448101Y-81242000D01*
X133448101Y-80813429D01*
X132805244Y-81313429D02*
X132805244Y-80813429D01*
X132805244Y-81051524D02*
X132519529Y-81051524D01*
X132519529Y-81313429D02*
X132519529Y-80813429D01*
X132067148Y-81313429D02*
X132067148Y-81051524D01*
X132090958Y-81003905D01*
X132138577Y-80980096D01*
X132233815Y-80980096D01*
X132281434Y-81003905D01*
X132067148Y-81289619D02*
X132114767Y-81313429D01*
X132233815Y-81313429D01*
X132281434Y-81289619D01*
X132305244Y-81242000D01*
X132305244Y-81194381D01*
X132281434Y-81146762D01*
X132233815Y-81122953D01*
X132114767Y-81122953D01*
X132067148Y-81099143D01*
X131829053Y-81313429D02*
X131829053Y-80980096D01*
X131829053Y-81027715D02*
X131805244Y-81003905D01*
X131757625Y-80980096D01*
X131686196Y-80980096D01*
X131638577Y-81003905D01*
X131614767Y-81051524D01*
X131614767Y-81313429D01*
X131614767Y-81051524D02*
X131590958Y-81003905D01*
X131543339Y-80980096D01*
X131471910Y-80980096D01*
X131424291Y-81003905D01*
X131400482Y-81051524D01*
X131400482Y-81313429D01*
X131162386Y-81313429D02*
X131162386Y-80980096D01*
X131162386Y-80813429D02*
X131186196Y-80837239D01*
X131162386Y-80861048D01*
X131138577Y-80837239D01*
X131162386Y-80813429D01*
X131162386Y-80861048D01*
X130852863Y-81313429D02*
X130900482Y-81289619D01*
X130924291Y-81242000D01*
X130924291Y-80813429D01*
X130733815Y-80980096D02*
X130543339Y-80980096D01*
X130662386Y-80813429D02*
X130662386Y-81242000D01*
X130638577Y-81289619D01*
X130590958Y-81313429D01*
X130543339Y-81313429D01*
X130305244Y-81313429D02*
X130352863Y-81289619D01*
X130376672Y-81265810D01*
X130400482Y-81218191D01*
X130400482Y-81075334D01*
X130376672Y-81027715D01*
X130352863Y-81003905D01*
X130305244Y-80980096D01*
X130233815Y-80980096D01*
X130186196Y-81003905D01*
X130162386Y-81027715D01*
X130138577Y-81075334D01*
X130138577Y-81218191D01*
X130162386Y-81265810D01*
X130186196Y-81289619D01*
X130233815Y-81313429D01*
X130305244Y-81313429D01*
X129924291Y-80980096D02*
X129924291Y-81313429D01*
X129924291Y-81027715D02*
X129900482Y-81003905D01*
X129852863Y-80980096D01*
X129781434Y-80980096D01*
X129733815Y-81003905D01*
X129710005Y-81051524D01*
X129710005Y-81313429D01*
D10*
X85508504Y-79367727D02*
X85341837Y-80067727D01*
X85208504Y-79567727D01*
X85075171Y-80067727D01*
X84908504Y-79367727D01*
X84675171Y-80034394D02*
X84575171Y-80067727D01*
X84408504Y-80067727D01*
X84341837Y-80034394D01*
X84308504Y-80001061D01*
X84275171Y-79934394D01*
X84275171Y-79867727D01*
X84308504Y-79801061D01*
X84341837Y-79767727D01*
X84408504Y-79734394D01*
X84541837Y-79701061D01*
X84608504Y-79667727D01*
X84641837Y-79634394D01*
X84675171Y-79567727D01*
X84675171Y-79501061D01*
X84641837Y-79434394D01*
X84608504Y-79401061D01*
X84541837Y-79367727D01*
X84375171Y-79367727D01*
X84275171Y-79401061D01*
X127776349Y-80526143D02*
X127776349Y-81092810D01*
X127743016Y-81159477D01*
X127709682Y-81192810D01*
X127643016Y-81226143D01*
X127509682Y-81226143D01*
X127443016Y-81192810D01*
X127409682Y-81159477D01*
X127376349Y-81092810D01*
X127376349Y-80526143D01*
X127076349Y-81192810D02*
X126976349Y-81226143D01*
X126809682Y-81226143D01*
X126743016Y-81192810D01*
X126709682Y-81159477D01*
X126676349Y-81092810D01*
X126676349Y-81026143D01*
X126709682Y-80959477D01*
X126743016Y-80926143D01*
X126809682Y-80892810D01*
X126943016Y-80859477D01*
X127009682Y-80826143D01*
X127043016Y-80792810D01*
X127076349Y-80726143D01*
X127076349Y-80659477D01*
X127043016Y-80592810D01*
X127009682Y-80559477D01*
X126943016Y-80526143D01*
X126776349Y-80526143D01*
X126676349Y-80559477D01*
X126143016Y-80859477D02*
X126043016Y-80892810D01*
X126009682Y-80926143D01*
X125976349Y-80992810D01*
X125976349Y-81092810D01*
X126009682Y-81159477D01*
X126043016Y-81192810D01*
X126109682Y-81226143D01*
X126376349Y-81226143D01*
X126376349Y-80526143D01*
X126143016Y-80526143D01*
X126076349Y-80559477D01*
X126043016Y-80592810D01*
X126009682Y-80659477D01*
X126009682Y-80726143D01*
X126043016Y-80792810D01*
X126076349Y-80826143D01*
X126143016Y-80859477D01*
X126376349Y-80859477D01*
X127943016Y-82353143D02*
X127943016Y-81653143D01*
X127776349Y-81653143D01*
X127676349Y-81686477D01*
X127609682Y-81753143D01*
X127576349Y-81819810D01*
X127543016Y-81953143D01*
X127543016Y-82053143D01*
X127576349Y-82186477D01*
X127609682Y-82253143D01*
X127676349Y-82319810D01*
X127776349Y-82353143D01*
X127943016Y-82353143D01*
X127276349Y-82153143D02*
X126943016Y-82153143D01*
X127343016Y-82353143D02*
X127109682Y-81653143D01*
X126876349Y-82353143D01*
X126743016Y-81653143D02*
X126343016Y-81653143D01*
X126543016Y-82353143D02*
X126543016Y-81653143D01*
X126143016Y-82153143D02*
X125809682Y-82153143D01*
X126209682Y-82353143D02*
X125976349Y-81653143D01*
X125743016Y-82353143D01*
X128509682Y-83480143D02*
X128509682Y-82780143D01*
X128243016Y-82780143D01*
X128176349Y-82813477D01*
X128143016Y-82846810D01*
X128109682Y-82913477D01*
X128109682Y-83013477D01*
X128143016Y-83080143D01*
X128176349Y-83113477D01*
X128243016Y-83146810D01*
X128509682Y-83146810D01*
X127676349Y-82780143D02*
X127543016Y-82780143D01*
X127476349Y-82813477D01*
X127409682Y-82880143D01*
X127376349Y-83013477D01*
X127376349Y-83246810D01*
X127409682Y-83380143D01*
X127476349Y-83446810D01*
X127543016Y-83480143D01*
X127676349Y-83480143D01*
X127743016Y-83446810D01*
X127809682Y-83380143D01*
X127843016Y-83246810D01*
X127843016Y-83013477D01*
X127809682Y-82880143D01*
X127743016Y-82813477D01*
X127676349Y-82780143D01*
X127143016Y-82780143D02*
X126976349Y-83480143D01*
X126843016Y-82980143D01*
X126709682Y-83480143D01*
X126543016Y-82780143D01*
X126276349Y-83113477D02*
X126043016Y-83113477D01*
X125943016Y-83480143D02*
X126276349Y-83480143D01*
X126276349Y-82780143D01*
X125943016Y-82780143D01*
X125243016Y-83480143D02*
X125476349Y-83146810D01*
X125643016Y-83480143D02*
X125643016Y-82780143D01*
X125376349Y-82780143D01*
X125309682Y-82813477D01*
X125276349Y-82846810D01*
X125243016Y-82913477D01*
X125243016Y-83013477D01*
X125276349Y-83080143D01*
X125309682Y-83113477D01*
X125376349Y-83146810D01*
X125643016Y-83146810D01*
X88833540Y-82147876D02*
X88900207Y-82114542D01*
X89000207Y-82114542D01*
X89100207Y-82147876D01*
X89166873Y-82214542D01*
X89200207Y-82281209D01*
X89233540Y-82414542D01*
X89233540Y-82514542D01*
X89200207Y-82647876D01*
X89166873Y-82714542D01*
X89100207Y-82781209D01*
X89000207Y-82814542D01*
X88933540Y-82814542D01*
X88833540Y-82781209D01*
X88800207Y-82747876D01*
X88800207Y-82514542D01*
X88933540Y-82514542D01*
X88500207Y-82814542D02*
X88500207Y-82114542D01*
X88100207Y-82814542D01*
X88100207Y-82114542D01*
X87766873Y-82814542D02*
X87766873Y-82114542D01*
X87600207Y-82114542D01*
X87500207Y-82147876D01*
X87433540Y-82214542D01*
X87400207Y-82281209D01*
X87366873Y-82414542D01*
X87366873Y-82514542D01*
X87400207Y-82647876D01*
X87433540Y-82714542D01*
X87500207Y-82781209D01*
X87600207Y-82814542D01*
X87766873Y-82814542D01*
X119105728Y-76588916D02*
X119105728Y-75888916D01*
X118872395Y-76388916D01*
X118639062Y-75888916D01*
X118639062Y-76588916D01*
X117939062Y-76588916D02*
X118339062Y-76588916D01*
X118139062Y-76588916D02*
X118139062Y-75888916D01*
X118205728Y-75988916D01*
X118272395Y-76055583D01*
X118339062Y-76088916D01*
X117639062Y-76522250D02*
X117605728Y-76555583D01*
X117639062Y-76588916D01*
X117672395Y-76555583D01*
X117639062Y-76522250D01*
X117639062Y-76588916D01*
X117005728Y-75888916D02*
X117139062Y-75888916D01*
X117205728Y-75922250D01*
X117239062Y-75955583D01*
X117305728Y-76055583D01*
X117339062Y-76188916D01*
X117339062Y-76455583D01*
X117305728Y-76522250D01*
X117272395Y-76555583D01*
X117205728Y-76588916D01*
X117072395Y-76588916D01*
X117005728Y-76555583D01*
X116972395Y-76522250D01*
X116939062Y-76455583D01*
X116939062Y-76288916D01*
X116972395Y-76222250D01*
X117005728Y-76188916D01*
X117072395Y-76155583D01*
X117205728Y-76155583D01*
X117272395Y-76188916D01*
X117305728Y-76222250D01*
X117339062Y-76288916D01*
X80239599Y-81936044D02*
X80239599Y-81236044D01*
X80006266Y-81736044D01*
X79772933Y-81236044D01*
X79772933Y-81936044D01*
X79072933Y-81936044D02*
X79472933Y-81936044D01*
X79272933Y-81936044D02*
X79272933Y-81236044D01*
X79339599Y-81336044D01*
X79406266Y-81402711D01*
X79472933Y-81436044D01*
X78772933Y-81869378D02*
X78739599Y-81902711D01*
X78772933Y-81936044D01*
X78806266Y-81902711D01*
X78772933Y-81869378D01*
X78772933Y-81936044D01*
X78139599Y-81236044D02*
X78272933Y-81236044D01*
X78339599Y-81269378D01*
X78372933Y-81302711D01*
X78439599Y-81402711D01*
X78472933Y-81536044D01*
X78472933Y-81802711D01*
X78439599Y-81869378D01*
X78406266Y-81902711D01*
X78339599Y-81936044D01*
X78206266Y-81936044D01*
X78139599Y-81902711D01*
X78106266Y-81869378D01*
X78072933Y-81802711D01*
X78072933Y-81636044D01*
X78106266Y-81569378D01*
X78139599Y-81536044D01*
X78206266Y-81502711D01*
X78339599Y-81502711D01*
X78406266Y-81536044D01*
X78439599Y-81569378D01*
X78472933Y-81636044D01*
D12*
X159876544Y-79723473D02*
X159495591Y-79723473D01*
X159686068Y-79913949D02*
X159686068Y-79532997D01*
D10*
X93025718Y-82253254D02*
X93025718Y-81553254D01*
X92859051Y-81553254D01*
X92759051Y-81586588D01*
X92692385Y-81653254D01*
X92659051Y-81719921D01*
X92625718Y-81853254D01*
X92625718Y-81953254D01*
X92659051Y-82086588D01*
X92692385Y-82153254D01*
X92759051Y-82219921D01*
X92859051Y-82253254D01*
X93025718Y-82253254D01*
X92359051Y-82053254D02*
X92025718Y-82053254D01*
X92425718Y-82253254D02*
X92192385Y-81553254D01*
X91959051Y-82253254D01*
X91325718Y-82186588D02*
X91359051Y-82219921D01*
X91459051Y-82253254D01*
X91525718Y-82253254D01*
X91625718Y-82219921D01*
X91692385Y-82153254D01*
X91725718Y-82086588D01*
X91759051Y-81953254D01*
X91759051Y-81853254D01*
X91725718Y-81719921D01*
X91692385Y-81653254D01*
X91625718Y-81586588D01*
X91525718Y-81553254D01*
X91459051Y-81553254D01*
X91359051Y-81586588D01*
X91325718Y-81619921D01*
X103357013Y-82276898D02*
X103423680Y-82243564D01*
X103523680Y-82243564D01*
X103623680Y-82276898D01*
X103690346Y-82343564D01*
X103723680Y-82410231D01*
X103757013Y-82543564D01*
X103757013Y-82643564D01*
X103723680Y-82776898D01*
X103690346Y-82843564D01*
X103623680Y-82910231D01*
X103523680Y-82943564D01*
X103457013Y-82943564D01*
X103357013Y-82910231D01*
X103323680Y-82876898D01*
X103323680Y-82643564D01*
X103457013Y-82643564D01*
X103023680Y-82943564D02*
X103023680Y-82243564D01*
X102623680Y-82943564D01*
X102623680Y-82243564D01*
X102290346Y-82943564D02*
X102290346Y-82243564D01*
X102123680Y-82243564D01*
X102023680Y-82276898D01*
X101957013Y-82343564D01*
X101923680Y-82410231D01*
X101890346Y-82543564D01*
X101890346Y-82643564D01*
X101923680Y-82776898D01*
X101957013Y-82843564D01*
X102023680Y-82910231D01*
X102123680Y-82943564D01*
X102290346Y-82943564D01*
X119590329Y-81230642D02*
X119590329Y-80530642D01*
X119323662Y-80530642D01*
X119256996Y-80563976D01*
X119223662Y-80597309D01*
X119190329Y-80663976D01*
X119190329Y-80763976D01*
X119223662Y-80830642D01*
X119256996Y-80863976D01*
X119323662Y-80897309D01*
X119590329Y-80897309D01*
X118790329Y-81230642D02*
X118856996Y-81197309D01*
X118890329Y-81163976D01*
X118923662Y-81097309D01*
X118923662Y-80897309D01*
X118890329Y-80830642D01*
X118856996Y-80797309D01*
X118790329Y-80763976D01*
X118690329Y-80763976D01*
X118623662Y-80797309D01*
X118590329Y-80830642D01*
X118556996Y-80897309D01*
X118556996Y-81097309D01*
X118590329Y-81163976D01*
X118623662Y-81197309D01*
X118690329Y-81230642D01*
X118790329Y-81230642D01*
X118323662Y-80763976D02*
X118190329Y-81230642D01*
X118056996Y-80897309D01*
X117923662Y-81230642D01*
X117790329Y-80763976D01*
X117256996Y-81197309D02*
X117323662Y-81230642D01*
X117456996Y-81230642D01*
X117523662Y-81197309D01*
X117556996Y-81130642D01*
X117556996Y-80863976D01*
X117523662Y-80797309D01*
X117456996Y-80763976D01*
X117323662Y-80763976D01*
X117256996Y-80797309D01*
X117223662Y-80863976D01*
X117223662Y-80930642D01*
X117556996Y-80997309D01*
X116923662Y-81230642D02*
X116923662Y-80763976D01*
X116923662Y-80897309D02*
X116890329Y-80830642D01*
X116856996Y-80797309D01*
X116790329Y-80763976D01*
X116723662Y-80763976D01*
X121340329Y-81657642D02*
X121206996Y-81657642D01*
X121140329Y-81690976D01*
X121073662Y-81757642D01*
X121040329Y-81890976D01*
X121040329Y-82124309D01*
X121073662Y-82257642D01*
X121140329Y-82324309D01*
X121206996Y-82357642D01*
X121340329Y-82357642D01*
X121406996Y-82324309D01*
X121473662Y-82257642D01*
X121506996Y-82124309D01*
X121506996Y-81890976D01*
X121473662Y-81757642D01*
X121406996Y-81690976D01*
X121340329Y-81657642D01*
X120740329Y-82357642D02*
X120740329Y-81657642D01*
X120340329Y-82357642D01*
X120340329Y-81657642D01*
X119473662Y-81890976D02*
X120006996Y-82090976D01*
X119473662Y-82290976D01*
X119140329Y-82090976D02*
X118606996Y-82090976D01*
X118273662Y-82090976D02*
X117740329Y-82090976D01*
X117406996Y-81890976D02*
X116873662Y-82090976D01*
X117406996Y-82290976D01*
X116406996Y-81657642D02*
X116273662Y-81657642D01*
X116206996Y-81690976D01*
X116140329Y-81757642D01*
X116106996Y-81890976D01*
X116106996Y-82124309D01*
X116140329Y-82257642D01*
X116206996Y-82324309D01*
X116273662Y-82357642D01*
X116406996Y-82357642D01*
X116473662Y-82324309D01*
X116540329Y-82257642D01*
X116573662Y-82124309D01*
X116573662Y-81890976D01*
X116540329Y-81757642D01*
X116473662Y-81690976D01*
X116406996Y-81657642D01*
X115573662Y-81990976D02*
X115806996Y-81990976D01*
X115806996Y-82357642D02*
X115806996Y-81657642D01*
X115473662Y-81657642D01*
X114973662Y-81990976D02*
X115206996Y-81990976D01*
X115206996Y-82357642D02*
X115206996Y-81657642D01*
X114873662Y-81657642D01*
X85294752Y-81816096D02*
X85294752Y-81349430D01*
X85294752Y-81116096D02*
X85328086Y-81149430D01*
X85294752Y-81182763D01*
X85261419Y-81149430D01*
X85294752Y-81116096D01*
X85294752Y-81182763D01*
X84994752Y-81182763D02*
X84961419Y-81149430D01*
X84894752Y-81116096D01*
X84728086Y-81116096D01*
X84661419Y-81149430D01*
X84628086Y-81182763D01*
X84594752Y-81249430D01*
X84594752Y-81316096D01*
X84628086Y-81416096D01*
X85028086Y-81816096D01*
X84594752Y-81816096D01*
X84328086Y-81782763D02*
X84228086Y-81816096D01*
X84061419Y-81816096D01*
X83994752Y-81782763D01*
X83961419Y-81749430D01*
X83928086Y-81682763D01*
X83928086Y-81616096D01*
X83961419Y-81549430D01*
X83994752Y-81516096D01*
X84061419Y-81482763D01*
X84194752Y-81449430D01*
X84261419Y-81416096D01*
X84294752Y-81382763D01*
X84328086Y-81316096D01*
X84328086Y-81249430D01*
X84294752Y-81182763D01*
X84261419Y-81149430D01*
X84194752Y-81116096D01*
X84028086Y-81116096D01*
X83928086Y-81149430D01*
D13*
X149113146Y-79518750D02*
X148970288Y-79518750D01*
X148898860Y-79554465D01*
X148827431Y-79625893D01*
X148791717Y-79768750D01*
X148791717Y-80018750D01*
X148827431Y-80161607D01*
X148898860Y-80233036D01*
X148970288Y-80268750D01*
X149113146Y-80268750D01*
X149184574Y-80233036D01*
X149256003Y-80161607D01*
X149291717Y-80018750D01*
X149291717Y-79768750D01*
X149256003Y-79625893D01*
X149184574Y-79554465D01*
X149113146Y-79518750D01*
X148470288Y-79768750D02*
X148470288Y-80518750D01*
X148470288Y-79804465D02*
X148398860Y-79768750D01*
X148256003Y-79768750D01*
X148184574Y-79804465D01*
X148148860Y-79840179D01*
X148113146Y-79911607D01*
X148113146Y-80125893D01*
X148148860Y-80197322D01*
X148184574Y-80233036D01*
X148256003Y-80268750D01*
X148398860Y-80268750D01*
X148470288Y-80233036D01*
X147506003Y-80233036D02*
X147577431Y-80268750D01*
X147720288Y-80268750D01*
X147791717Y-80233036D01*
X147827431Y-80161607D01*
X147827431Y-79875893D01*
X147791717Y-79804465D01*
X147720288Y-79768750D01*
X147577431Y-79768750D01*
X147506003Y-79804465D01*
X147470288Y-79875893D01*
X147470288Y-79947322D01*
X147827431Y-80018750D01*
X147148860Y-79768750D02*
X147148860Y-80268750D01*
X147148860Y-79840179D02*
X147113146Y-79804465D01*
X147041717Y-79768750D01*
X146934574Y-79768750D01*
X146863146Y-79804465D01*
X146827431Y-79875893D01*
X146827431Y-80268750D01*
X145934574Y-80233036D02*
X145827431Y-80268750D01*
X145648860Y-80268750D01*
X145577431Y-80233036D01*
X145541717Y-80197322D01*
X145506003Y-80125893D01*
X145506003Y-80054465D01*
X145541717Y-79983036D01*
X145577431Y-79947322D01*
X145648860Y-79911607D01*
X145791717Y-79875893D01*
X145863146Y-79840179D01*
X145898860Y-79804465D01*
X145934574Y-79733036D01*
X145934574Y-79661607D01*
X145898860Y-79590179D01*
X145863146Y-79554465D01*
X145791717Y-79518750D01*
X145613146Y-79518750D01*
X145506003Y-79554465D01*
X145077431Y-80268750D02*
X145148860Y-80233036D01*
X145184574Y-80197322D01*
X145220288Y-80125893D01*
X145220288Y-79911607D01*
X145184574Y-79840179D01*
X145148860Y-79804465D01*
X145077431Y-79768750D01*
X144970288Y-79768750D01*
X144898860Y-79804465D01*
X144863146Y-79840179D01*
X144827431Y-79911607D01*
X144827431Y-80125893D01*
X144863146Y-80197322D01*
X144898860Y-80233036D01*
X144970288Y-80268750D01*
X145077431Y-80268750D01*
X144184574Y-79768750D02*
X144184574Y-80268750D01*
X144506003Y-79768750D02*
X144506003Y-80161607D01*
X144470288Y-80233036D01*
X144398860Y-80268750D01*
X144291717Y-80268750D01*
X144220288Y-80233036D01*
X144184574Y-80197322D01*
X143827431Y-80268750D02*
X143827431Y-79768750D01*
X143827431Y-79911607D02*
X143791717Y-79840179D01*
X143756003Y-79804465D01*
X143684574Y-79768750D01*
X143613146Y-79768750D01*
X143041717Y-80233036D02*
X143113146Y-80268750D01*
X143256003Y-80268750D01*
X143327431Y-80233036D01*
X143363146Y-80197322D01*
X143398860Y-80125893D01*
X143398860Y-79911607D01*
X143363146Y-79840179D01*
X143327431Y-79804465D01*
X143256003Y-79768750D01*
X143113146Y-79768750D01*
X143041717Y-79804465D01*
X142434574Y-80233036D02*
X142506003Y-80268750D01*
X142648860Y-80268750D01*
X142720288Y-80233036D01*
X142756003Y-80161607D01*
X142756003Y-79875893D01*
X142720288Y-79804465D01*
X142648860Y-79768750D01*
X142506003Y-79768750D01*
X142434574Y-79804465D01*
X142398860Y-79875893D01*
X142398860Y-79947322D01*
X142756003Y-80018750D01*
X141541717Y-80233036D02*
X141434574Y-80268750D01*
X141256003Y-80268750D01*
X141184574Y-80233036D01*
X141148860Y-80197322D01*
X141113146Y-80125893D01*
X141113146Y-80054465D01*
X141148860Y-79983036D01*
X141184574Y-79947322D01*
X141256003Y-79911607D01*
X141398860Y-79875893D01*
X141470288Y-79840179D01*
X141506003Y-79804465D01*
X141541717Y-79733036D01*
X141541717Y-79661607D01*
X141506003Y-79590179D01*
X141470288Y-79554465D01*
X141398860Y-79518750D01*
X141220288Y-79518750D01*
X141113146Y-79554465D01*
X140791717Y-80268750D02*
X140791717Y-79768750D01*
X140791717Y-79840179D02*
X140756003Y-79804465D01*
X140684574Y-79768750D01*
X140577431Y-79768750D01*
X140506003Y-79804465D01*
X140470288Y-79875893D01*
X140470288Y-80268750D01*
X140470288Y-79875893D02*
X140434574Y-79804465D01*
X140363146Y-79768750D01*
X140256003Y-79768750D01*
X140184574Y-79804465D01*
X140148860Y-79875893D01*
X140148860Y-80268750D01*
X139470288Y-80268750D02*
X139470288Y-79875893D01*
X139506003Y-79804465D01*
X139577431Y-79768750D01*
X139720288Y-79768750D01*
X139791717Y-79804465D01*
X139470288Y-80233036D02*
X139541717Y-80268750D01*
X139720288Y-80268750D01*
X139791717Y-80233036D01*
X139827431Y-80161607D01*
X139827431Y-80090179D01*
X139791717Y-80018750D01*
X139720288Y-79983036D01*
X139541717Y-79983036D01*
X139470288Y-79947322D01*
X139113146Y-80268750D02*
X139113146Y-79768750D01*
X139113146Y-79911607D02*
X139077431Y-79840179D01*
X139041717Y-79804465D01*
X138970288Y-79768750D01*
X138898860Y-79768750D01*
X138756003Y-79768750D02*
X138470288Y-79768750D01*
X138648860Y-79518750D02*
X138648860Y-80161607D01*
X138613146Y-80233036D01*
X138541717Y-80268750D01*
X138470288Y-80268750D01*
X137256003Y-79554465D02*
X137327431Y-79518750D01*
X137434574Y-79518750D01*
X137541717Y-79554465D01*
X137613146Y-79625893D01*
X137648860Y-79697322D01*
X137684574Y-79840179D01*
X137684574Y-79947322D01*
X137648860Y-80090179D01*
X137613146Y-80161607D01*
X137541717Y-80233036D01*
X137434574Y-80268750D01*
X137363146Y-80268750D01*
X137256003Y-80233036D01*
X137220288Y-80197322D01*
X137220288Y-79947322D01*
X137363146Y-79947322D01*
X136791717Y-80268750D02*
X136863146Y-80233036D01*
X136898860Y-80161607D01*
X136898860Y-79518750D01*
X136184574Y-80268750D02*
X136184574Y-79875893D01*
X136220288Y-79804465D01*
X136291717Y-79768750D01*
X136434574Y-79768750D01*
X136506003Y-79804465D01*
X136184574Y-80233036D02*
X136256003Y-80268750D01*
X136434574Y-80268750D01*
X136506003Y-80233036D01*
X136541717Y-80161607D01*
X136541717Y-80090179D01*
X136506003Y-80018750D01*
X136434574Y-79983036D01*
X136256003Y-79983036D01*
X136184574Y-79947322D01*
X135863146Y-80233036D02*
X135791717Y-80268750D01*
X135648860Y-80268750D01*
X135577431Y-80233036D01*
X135541717Y-80161607D01*
X135541717Y-80125893D01*
X135577431Y-80054465D01*
X135648860Y-80018750D01*
X135756003Y-80018750D01*
X135827431Y-79983036D01*
X135863146Y-79911607D01*
X135863146Y-79875893D01*
X135827431Y-79804465D01*
X135756003Y-79768750D01*
X135648860Y-79768750D01*
X135577431Y-79804465D01*
X135256003Y-80233036D02*
X135184574Y-80268750D01*
X135041717Y-80268750D01*
X134970288Y-80233036D01*
X134934574Y-80161607D01*
X134934574Y-80125893D01*
X134970288Y-80054465D01*
X135041717Y-80018750D01*
X135148860Y-80018750D01*
X135220288Y-79983036D01*
X135256003Y-79911607D01*
X135256003Y-79875893D01*
X135220288Y-79804465D01*
X135148860Y-79768750D01*
X135041717Y-79768750D01*
X134970288Y-79804465D01*
X134327431Y-80233036D02*
X134398860Y-80268750D01*
X134541717Y-80268750D01*
X134613146Y-80233036D01*
X134648860Y-80161607D01*
X134648860Y-79875893D01*
X134613146Y-79804465D01*
X134541717Y-79768750D01*
X134398860Y-79768750D01*
X134327431Y-79804465D01*
X134291717Y-79875893D01*
X134291717Y-79947322D01*
X134648860Y-80018750D01*
X134006003Y-80233036D02*
X133934574Y-80268750D01*
X133791717Y-80268750D01*
X133720288Y-80233036D01*
X133684574Y-80161607D01*
X133684574Y-80125893D01*
X133720288Y-80054465D01*
X133791717Y-80018750D01*
X133898860Y-80018750D01*
X133970288Y-79983036D01*
X134006003Y-79911607D01*
X134006003Y-79875893D01*
X133970288Y-79804465D01*
X133898860Y-79768750D01*
X133791717Y-79768750D01*
X133720288Y-79804465D01*
X132898860Y-79518750D02*
X132648860Y-80268750D01*
X132398860Y-79518750D01*
X132006003Y-79518750D02*
X131934574Y-79518750D01*
X131863146Y-79554465D01*
X131827431Y-79590179D01*
X131791717Y-79661607D01*
X131756003Y-79804465D01*
X131756003Y-79983036D01*
X131791717Y-80125893D01*
X131827431Y-80197322D01*
X131863146Y-80233036D01*
X131934574Y-80268750D01*
X132006003Y-80268750D01*
X132077431Y-80233036D01*
X132113146Y-80197322D01*
X132148860Y-80125893D01*
X132184574Y-79983036D01*
X132184574Y-79804465D01*
X132148860Y-79661607D01*
X132113146Y-79590179D01*
X132077431Y-79554465D01*
X132006003Y-79518750D01*
X131434574Y-80197322D02*
X131398860Y-80233036D01*
X131434574Y-80268750D01*
X131470288Y-80233036D01*
X131434574Y-80197322D01*
X131434574Y-80268750D01*
X130756003Y-79768750D02*
X130756003Y-80268750D01*
X130934574Y-79483036D02*
X131113146Y-80018750D01*
X130648860Y-80018750D01*
D11*
%TO.C,J2*%
X76076380Y-76382555D02*
X76076380Y-76739698D01*
X76100190Y-76811126D01*
X76147809Y-76858745D01*
X76219237Y-76882555D01*
X76266856Y-76882555D01*
X75862094Y-76430174D02*
X75838285Y-76406365D01*
X75790666Y-76382555D01*
X75671618Y-76382555D01*
X75623999Y-76406365D01*
X75600190Y-76430174D01*
X75576380Y-76477793D01*
X75576380Y-76525412D01*
X75600190Y-76596841D01*
X75885904Y-76882555D01*
X75576380Y-76882555D01*
%TO.C,TP16*%
X158858400Y-78015276D02*
X158786972Y-78039086D01*
X158763162Y-78062895D01*
X158739353Y-78110514D01*
X158739353Y-78181943D01*
X158763162Y-78229562D01*
X158786972Y-78253371D01*
X158834591Y-78277181D01*
X159025067Y-78277181D01*
X159025067Y-77777181D01*
X158858400Y-77777181D01*
X158810781Y-77800991D01*
X158786972Y-77824800D01*
X158763162Y-77872419D01*
X158763162Y-77920038D01*
X158786972Y-77967657D01*
X158810781Y-77991467D01*
X158858400Y-78015276D01*
X159025067Y-78015276D01*
X158548876Y-77824800D02*
X158525067Y-77800991D01*
X158477448Y-77777181D01*
X158358400Y-77777181D01*
X158310781Y-77800991D01*
X158286972Y-77824800D01*
X158263162Y-77872419D01*
X158263162Y-77920038D01*
X158286972Y-77991467D01*
X158572686Y-78277181D01*
X158263162Y-78277181D01*
X158048876Y-78086705D02*
X157667924Y-78086705D01*
X157858400Y-78277181D02*
X157858400Y-77896229D01*
D10*
%TO.C,D1*%
X79809825Y-79654781D02*
X79809825Y-78954781D01*
X79643159Y-78954781D01*
X79543159Y-78988115D01*
X79476492Y-79054781D01*
X79443159Y-79121448D01*
X79409825Y-79254781D01*
X79409825Y-79354781D01*
X79443159Y-79488115D01*
X79476492Y-79554781D01*
X79543159Y-79621448D01*
X79643159Y-79654781D01*
X79809825Y-79654781D01*
X78743159Y-79654781D02*
X79143159Y-79654781D01*
X78943159Y-79654781D02*
X78943159Y-78954781D01*
X79009825Y-79054781D01*
X79076492Y-79121448D01*
X79143159Y-79154781D01*
D14*
%TO.C,J5*%
X90692532Y-83345287D02*
X90692532Y-83702430D01*
X90716342Y-83773858D01*
X90763961Y-83821477D01*
X90835389Y-83845287D01*
X90883008Y-83845287D01*
X90216342Y-83345287D02*
X90454437Y-83345287D01*
X90478246Y-83583382D01*
X90454437Y-83559573D01*
X90406818Y-83535763D01*
X90287770Y-83535763D01*
X90240151Y-83559573D01*
X90216342Y-83583382D01*
X90192532Y-83631001D01*
X90192532Y-83750049D01*
X90216342Y-83797668D01*
X90240151Y-83821477D01*
X90287770Y-83845287D01*
X90406818Y-83845287D01*
X90454437Y-83821477D01*
X90478246Y-83797668D01*
D11*
%TO.C,TP18*%
X155467047Y-79188928D02*
X155395619Y-79212738D01*
X155371809Y-79236547D01*
X155348000Y-79284166D01*
X155348000Y-79355595D01*
X155371809Y-79403214D01*
X155395619Y-79427023D01*
X155443238Y-79450833D01*
X155633714Y-79450833D01*
X155633714Y-78950833D01*
X155467047Y-78950833D01*
X155419428Y-78974643D01*
X155395619Y-78998452D01*
X155371809Y-79046071D01*
X155371809Y-79093690D01*
X155395619Y-79141309D01*
X155419428Y-79165119D01*
X155467047Y-79188928D01*
X155633714Y-79188928D01*
X155157523Y-78998452D02*
X155133714Y-78974643D01*
X155086095Y-78950833D01*
X154967047Y-78950833D01*
X154919428Y-78974643D01*
X154895619Y-78998452D01*
X154871809Y-79046071D01*
X154871809Y-79093690D01*
X154895619Y-79165119D01*
X155181333Y-79450833D01*
X154871809Y-79450833D01*
X154657523Y-79260357D02*
X154276571Y-79260357D01*
X158815198Y-77244841D02*
X158743770Y-77268651D01*
X158719960Y-77292460D01*
X158696151Y-77340079D01*
X158696151Y-77411508D01*
X158719960Y-77459127D01*
X158743770Y-77482936D01*
X158791389Y-77506746D01*
X158981865Y-77506746D01*
X158981865Y-77006746D01*
X158815198Y-77006746D01*
X158767579Y-77030556D01*
X158743770Y-77054365D01*
X158719960Y-77101984D01*
X158719960Y-77149603D01*
X158743770Y-77197222D01*
X158767579Y-77221032D01*
X158815198Y-77244841D01*
X158981865Y-77244841D01*
X158219960Y-77506746D02*
X158505674Y-77506746D01*
X158362817Y-77506746D02*
X158362817Y-77006746D01*
X158410436Y-77078175D01*
X158458055Y-77125794D01*
X158505674Y-77149603D01*
X158005674Y-77316270D02*
X157624722Y-77316270D01*
X157815198Y-77506746D02*
X157815198Y-77125794D01*
%TO.C,J1*%
X86349366Y-78637145D02*
X86349366Y-78994288D01*
X86373176Y-79065716D01*
X86420795Y-79113335D01*
X86492223Y-79137145D01*
X86539842Y-79137145D01*
X85849366Y-79137145D02*
X86135080Y-79137145D01*
X85992223Y-79137145D02*
X85992223Y-78637145D01*
X86039842Y-78708574D01*
X86087461Y-78756193D01*
X86135080Y-78780002D01*
%TO.C,J4*%
X104695016Y-81785972D02*
X104695016Y-82143115D01*
X104718826Y-82214543D01*
X104766445Y-82262162D01*
X104837873Y-82285972D01*
X104885492Y-82285972D01*
X104242635Y-81952639D02*
X104242635Y-82285972D01*
X104361683Y-81762162D02*
X104480730Y-82119305D01*
X104171207Y-82119305D01*
%TO.C,TP17*%
X155307882Y-76263854D02*
X155236454Y-76287664D01*
X155212644Y-76311473D01*
X155188835Y-76359092D01*
X155188835Y-76430521D01*
X155212644Y-76478140D01*
X155236454Y-76501949D01*
X155284073Y-76525759D01*
X155474549Y-76525759D01*
X155474549Y-76025759D01*
X155307882Y-76025759D01*
X155260263Y-76049569D01*
X155236454Y-76073378D01*
X155212644Y-76120997D01*
X155212644Y-76168616D01*
X155236454Y-76216235D01*
X155260263Y-76240045D01*
X155307882Y-76263854D01*
X155474549Y-76263854D01*
X154712644Y-76525759D02*
X154998358Y-76525759D01*
X154855501Y-76525759D02*
X154855501Y-76025759D01*
X154903120Y-76097188D01*
X154950739Y-76144807D01*
X154998358Y-76168616D01*
X154498358Y-76335283D02*
X154117406Y-76335283D01*
D13*
%TO.C,SW2*%
X121588842Y-83386871D02*
X121588842Y-83486871D01*
X121388842Y-83486871D02*
X121388842Y-83386871D01*
X114088842Y-83386871D02*
X113988842Y-83386871D01*
X113888842Y-83386871D02*
X113888842Y-83486871D01*
X121388842Y-83386871D02*
X121588842Y-83386871D01*
X113888842Y-83486871D02*
X113988842Y-83486871D01*
X113988842Y-83486871D02*
X114088842Y-83386871D01*
X121588842Y-83486871D02*
X121388842Y-83486871D01*
X113988842Y-83386871D02*
X113888842Y-83386871D01*
X121588842Y-83386871D02*
X121488842Y-83386871D01*
D10*
%TO.C,TP1*%
X98410151Y-81651695D02*
G75*
G03*
X98410151Y-81651695I-600000J0D01*
G01*
D15*
%TO.C,J2*%
X78404010Y-75550501D02*
G75*
G03*
X78404010Y-75550501I-100000J0D01*
G01*
D10*
%TO.C,TP16*%
X159700000Y-76090000D02*
G75*
G03*
X159700000Y-76090000I-850000J0D01*
G01*
D16*
%TO.C,D1*%
X76990913Y-78367000D02*
X77590913Y-78367000D01*
X76990913Y-80367000D02*
X77590913Y-80367000D01*
D15*
X75623869Y-79997000D02*
G75*
G03*
X75623869Y-79997000I-102956J0D01*
G01*
%TO.C,J5*%
X89528183Y-82945460D02*
G75*
G03*
X89528183Y-82945460I-100000J0D01*
G01*
D10*
%TO.C,TP5*%
X107117781Y-81147201D02*
G75*
G03*
X107117781Y-81147201I-350000J0D01*
G01*
%TO.C,TP13*%
X107568278Y-77199625D02*
G75*
G03*
X107568278Y-77199625I-350000J0D01*
G01*
%TO.C,TP2*%
X132803771Y-76395375D02*
G75*
G03*
X132803771Y-76395375I-600000J0D01*
G01*
%TO.C,TP18*%
X157312587Y-76154252D02*
G75*
G03*
X157312587Y-76154252I-850000J0D01*
G01*
%TO.C,TP12*%
X110342615Y-82457383D02*
G75*
G03*
X110342615Y-82457383I-350000J0D01*
G01*
%TO.C,TP9*%
X79262910Y-83128488D02*
G75*
G03*
X79262910Y-83128488I-600000J0D01*
G01*
%TO.C,TP14*%
X106921837Y-76021580D02*
G75*
G03*
X106921837Y-76021580I-350000J0D01*
G01*
D15*
%TO.C,J1*%
X85533244Y-83490657D02*
G75*
G03*
X85533244Y-83490657I-100000J0D01*
G01*
%TO.C,J4*%
X105575850Y-82630318D02*
G75*
G03*
X105575850Y-82630318I-100000J0D01*
G01*
D10*
%TO.C,TP8*%
X83151023Y-83135758D02*
G75*
G03*
X83151023Y-83135758I-600000J0D01*
G01*
%TO.C,TP15*%
X159550000Y-79200000D02*
G75*
G03*
X159550000Y-79200000I-850000J0D01*
G01*
%TO.C,TP17*%
X157697577Y-79344389D02*
G75*
G03*
X157697577Y-79344389I-850000J0D01*
G01*
%TD*%
%LPC*%
D17*
%TO.C,SW2*%
X121088842Y-83386871D03*
X114568842Y-83376871D03*
%TD*%
D18*
%TO.C,TP1*%
X97810151Y-81651695D03*
%TD*%
D19*
%TO.C,J3*%
X130979107Y-82590740D03*
X123979107Y-82590740D03*
D20*
X129979107Y-79890740D03*
X124979107Y-79890740D03*
%TD*%
D21*
%TO.C,SW1*%
X80041206Y-75526709D03*
X80041206Y-78276709D03*
%TD*%
D22*
%TO.C,U1*%
X80818465Y-81913880D03*
%TD*%
D23*
%TO.C,J2*%
X77319010Y-75580501D03*
X77319010Y-76580501D03*
X77319010Y-77580501D03*
%TD*%
D24*
%TO.C,TP16*%
X158850000Y-76090000D03*
%TD*%
D25*
%TO.C,D1*%
X76375913Y-79917000D03*
X76375913Y-78817000D03*
X78205913Y-78817000D03*
X78205913Y-79917000D03*
%TD*%
D23*
%TO.C,J5*%
X90413183Y-82915460D03*
X90413183Y-81915460D03*
X90413183Y-80915460D03*
%TD*%
D26*
%TO.C,TP5*%
X106767781Y-81147201D03*
%TD*%
%TO.C,TP13*%
X107218278Y-77199625D03*
%TD*%
D18*
%TO.C,TP2*%
X132203771Y-76395375D03*
%TD*%
D24*
%TO.C,TP18*%
X156462587Y-76154252D03*
%TD*%
D26*
%TO.C,TP12*%
X109992615Y-82457383D03*
%TD*%
D18*
%TO.C,TP9*%
X78662910Y-83128488D03*
%TD*%
D26*
%TO.C,TP14*%
X106571837Y-76021580D03*
%TD*%
D23*
%TO.C,J1*%
X86418244Y-83470657D03*
X86418244Y-82470657D03*
X86418244Y-81470657D03*
X86418244Y-80470657D03*
X86418244Y-79600657D03*
%TD*%
D27*
%TO.C,J4*%
X104590850Y-82650318D03*
X104590850Y-83420318D03*
%TD*%
D18*
%TO.C,TP8*%
X82551023Y-83135758D03*
%TD*%
D24*
%TO.C,TP15*%
X158700000Y-79200000D03*
%TD*%
%TO.C,TP17*%
X156847577Y-79344389D03*
%TD*%
M02*
