M48
; DRILL file {KiCad 6.0.7-f9a2dced07~116~ubuntu22.04.1} date Thu Sep 22 15:05:48 2022
; FORMAT={-:-/ absolute / metric / decimal}
; #@! TF.CreationDate,2022-09-22T15:05:48+08:00
; #@! TF.GenerationSoftware,Kicad,Pcbnew,6.0.7-f9a2dced07~116~ubuntu22.04.1
; #@! TF.FileFunction,MixedPlating,1,4
FMAT,2
METRIC
; #@! TA.AperFunction,Plated,PTH,ViaDrill
T1C0.200
; #@! TA.AperFunction,Plated,PTH,ComponentDrill
T2C0.200
; #@! TA.AperFunction,Plated,PTH,ViaDrill
T3C0.250
; #@! TA.AperFunction,Plated,PTH,ViaDrill
T4C0.300
; #@! TA.AperFunction,Plated,PTH,ComponentDrill
T5C0.381
; #@! TA.AperFunction,Plated,PTH,ViaDrill
T6C0.400
; #@! TA.AperFunction,Plated,PTH,ComponentDrill
T7C0.500
; #@! TA.AperFunction,Plated,PTH,ComponentDrill
T8C0.550
; #@! TA.AperFunction,Plated,PTH,ComponentDrill
T9C0.700
; #@! TA.AperFunction,NonPlated,NPTH,ComponentDrill
T10C0.750
%
G90
G05
T1
X75.447Y-81.237
X75.457Y-83.543
X77.093Y-80.426
X79.055Y-78.447
X79.576Y-82.097
X80.434Y-80.451
X81.287Y-78.027
X81.322Y-80.751
X81.355Y-83.26
X83.775Y-75.434
X84.017Y-76.928
X84.764Y-75.451
X85.008Y-80.278
X85.753Y-75.456
X86.076Y-76.443
X86.557Y-78.425
X86.748Y-75.456
X86.865Y-77.142
X87.731Y-75.456
X87.882Y-77.975
X88.892Y-76.396
X88.892Y-78.441
X88.896Y-77.396
X88.903Y-75.459
X89.26Y-79.364
X90.26Y-79.367
X91.264Y-79.367
X92.264Y-79.367
X93.251Y-79.357
X93.264Y-82.021
X94.251Y-79.361
X95.255Y-79.361
X95.985Y-79.365
X96.426Y-75.459
X96.437Y-78.819
X96.446Y-76.224
X96.455Y-77.271
X97.558Y-76.228
X97.79Y-81.707
X97.813Y-75.449
X98.246Y-80.319
X98.498Y-81.062
X98.754Y-78.676
X99.907Y-82.117
X100.119Y-75.522
X100.674Y-83.504
X101.888Y-83.463
X102.902Y-75.504
X103.698Y-83.456
X105.103Y-82.037
X105.629Y-76.153
X105.792Y-83.19
X106.43Y-77.277
X106.572Y-76.022
X106.663Y-79.64
X106.775Y-81.245
X107.278Y-82.51
X107.703Y-76.392
X107.714Y-78.54
X108.614Y-76.339
X108.793Y-81.824
X109.424Y-80.745
X110.072Y-81.248
X110.113Y-82.348
X110.567Y-80.753
X111.987Y-82.706
X112.64Y-75.527
X113.063Y-82.066
X116.224Y-77.455
X118.218Y-75.475
X119.88Y-76.657
X122.865Y-78.714
X123.38Y-76.865
X126.299Y-78.463
X126.999Y-78.463
X128.073Y-78.239
X131.454Y-77.623
X132.084Y-82.243
X133.073Y-77.127
X133.225Y-79.128
X133.472Y-76.12
X133.728Y-78.528
X134.114Y-79.211
X134.257Y-76.413
X134.381Y-81.843
X134.425Y-77.155
X134.435Y-78.38
X134.96Y-79.253
X135.471Y-80.869
X135.81Y-82.51
X137.305Y-76.526
X137.406Y-81.294
X137.515Y-77.654
X137.635Y-82.501
X138.189Y-79.291
X139.363Y-77.581
X139.765Y-81.593
X140.175Y-77.635
X140.773Y-81.909
X140.793Y-77.293
X141.37Y-78.65
X142.545Y-78.237
X145.541Y-77.909
X146.995Y-75.5
X150.077Y-79.959
X152.861Y-80.062
X153.659Y-75.433
X154.557Y-78.002
X154.573Y-76.987
X155.264Y-78.736
X155.927Y-78.024
X155.975Y-76.886
X156.552Y-77.507
X156.685Y-78.386
X157.566Y-78.567
X157.86Y-76.971
T2
X100.523Y-78.42
X100.523Y-79.495
X100.523Y-80.545
X101.423Y-77.495
X101.423Y-78.445
X101.423Y-79.495
X101.423Y-80.545
X101.423Y-81.495
X102.523Y-77.495
X102.523Y-78.445
X102.523Y-79.495
X102.548Y-80.545
X102.548Y-81.495
X103.598Y-81.495
X103.623Y-77.495
X103.623Y-78.445
X103.623Y-79.495
X103.623Y-80.545
X104.523Y-78.445
X104.523Y-79.495
X104.523Y-80.545
T3
X76.336Y-80.71
X85.805Y-78.738
X109.368Y-76.961
X109.374Y-78.946
X111.41Y-78.57
X117.234Y-78.147
X136.062Y-76.575
X142.174Y-76.24
T4
X75.578Y-75.596
X79.551Y-81.09
X80.22Y-82.804
X81.811Y-81.87
X83.13Y-83.432
X84.119Y-79.993
X84.322Y-77.842
X84.987Y-79.312
X85.488Y-82.636
X88.035Y-79.968
X91.71Y-82.995
X94.702Y-81.689
X94.762Y-80.525
X97.007Y-79.922
X97.188Y-83.475
X97.207Y-77.458
X97.868Y-79.531
X98.012Y-77.526
X98.594Y-76.053
X101.019Y-75.584
X102.065Y-75.552
X102.775Y-83.395
X112.239Y-80.329
X113.11Y-78.999
X113.398Y-77.263
X114.954Y-78.029
X122.338Y-80.092
X130.602Y-76.031
X131.973Y-83.026
X140.154Y-76.609
X144.862Y-79.27
X146.561Y-76.336
X147.871Y-77.023
X155.638Y-75.557
X156.06Y-79.209
T5
X80.818Y-81.914
T6
X118.395Y-77.92
X119.934Y-79.444
X121.089Y-76.335
X122.102Y-76.324
X126.361Y-76.644
X127.224Y-77.278
X129.333Y-76.544
X131.357Y-78.43
X131.97Y-79.135
X138.674Y-78.137
X147.188Y-79.119
X149.854Y-76.314
X150.7Y-76.915
X157.958Y-75.694
X159.207Y-79.43
X159.223Y-77.464
T9
X114.569Y-83.377
X121.089Y-83.387
T10
X80.041Y-75.527
X80.041Y-78.277
T7
X123.979Y-82.266G85X123.979Y-82.916
G05
X130.979Y-82.266G85X130.979Y-82.916
G05
T8
X124.829Y-79.891G85X125.129Y-79.891
G05
X129.829Y-79.891G85X130.129Y-79.891
G05
T0
M30
