%TF.GenerationSoftware,KiCad,Pcbnew,6.0.5-a6ca702e91~116~ubuntu22.04.1*%
%TF.CreationDate,2022-07-01T18:25:18-07:00*%
%TF.ProjectId,microphone,6d696372-6f70-4686-9f6e-652e6b696361,rev?*%
%TF.SameCoordinates,Original*%
%TF.FileFunction,Legend,Bot*%
%TF.FilePolarity,Positive*%
%FSLAX46Y46*%
G04 Gerber Fmt 4.6, Leading zero omitted, Abs format (unit mm)*
G04 Created by KiCad (PCBNEW 6.0.5-a6ca702e91~116~ubuntu22.04.1) date 2022-07-01 18:25:18*
%MOMM*%
%LPD*%
G01*
G04 APERTURE LIST*
G04 Aperture macros list*
%AMRoundRect*
0 Rectangle with rounded corners*
0 $1 Rounding radius*
0 $2 $3 $4 $5 $6 $7 $8 $9 X,Y pos of 4 corners*
0 Add a 4 corners polygon primitive as box body*
4,1,4,$2,$3,$4,$5,$6,$7,$8,$9,$2,$3,0*
0 Add four circle primitives for the rounded corners*
1,1,$1+$1,$2,$3*
1,1,$1+$1,$4,$5*
1,1,$1+$1,$6,$7*
1,1,$1+$1,$8,$9*
0 Add four rect primitives between the rounded corners*
20,1,$1+$1,$2,$3,$4,$5,0*
20,1,$1+$1,$4,$5,$6,$7,0*
20,1,$1+$1,$6,$7,$8,$9,0*
20,1,$1+$1,$8,$9,$2,$3,0*%
%AMFreePoly0*
4,1,103,0.919391,0.822403,0.926250,0.818200,0.934269,0.817569,1.160851,0.702119,1.166075,0.696003,1.173507,0.692924,1.353325,0.513107,1.356403,0.505675,1.362519,0.500452,1.477969,0.273869,1.478600,0.265849,1.482803,0.258991,1.508245,0.098357,1.511543,0.091283,1.519917,0.075198,1.519565,0.074081,1.520059,0.073021,1.523152,0.002182,1.522358,0.000000,1.523152,-0.002182,
1.520059,-0.073021,1.519565,-0.074081,1.519917,-0.075198,1.511543,-0.091283,1.508245,-0.098357,1.482803,-0.258991,1.478600,-0.265849,1.477969,-0.273869,1.362519,-0.500452,1.356403,-0.505675,1.353325,-0.513107,1.173507,-0.692924,1.166075,-0.696003,1.160851,-0.702119,0.934269,-0.817569,0.926250,-0.818200,0.919391,-0.822403,0.668222,-0.862184,0.660400,-0.860306,0.652579,-0.862184,
0.401409,-0.822403,0.394551,-0.818200,0.386531,-0.817569,0.159948,-0.702119,0.154725,-0.696003,0.147293,-0.692925,-0.032524,-0.513107,-0.035603,-0.505675,-0.041719,-0.500451,-0.157169,-0.273869,-0.157800,-0.265850,-0.162003,-0.258991,-0.187445,-0.098355,-0.190741,-0.091288,-0.199117,-0.075198,-0.198765,-0.074081,-0.199259,-0.073021,-0.202352,-0.002181,-0.201558,0.000000,0.203023,0.000000,
0.225408,-0.141336,0.290375,-0.268841,0.391559,-0.370025,0.519062,-0.434992,0.660400,-0.457377,0.801736,-0.434992,0.929241,-0.370025,1.030425,-0.268841,1.095392,-0.141338,1.117777,0.000000,1.095392,0.141338,1.030425,0.268841,0.929241,0.370025,0.801736,0.434992,0.660400,0.457377,0.519062,0.434992,0.391559,0.370025,0.290375,0.268841,0.225408,0.141336,0.203023,0.000000,
-0.201558,0.000000,-0.202352,0.002181,-0.199259,0.073021,-0.198765,0.074081,-0.199117,0.075198,-0.190741,0.091288,-0.187445,0.098355,-0.162003,0.258991,-0.157800,0.265850,-0.157169,0.273869,-0.041719,0.500451,-0.035603,0.505675,-0.032524,0.513107,0.147293,0.692925,0.154725,0.696003,0.159948,0.702119,0.386531,0.817569,0.394551,0.818200,0.401409,0.822403,0.652579,0.862184,
0.660400,0.860306,0.668222,0.862184,0.919391,0.822403,0.919391,0.822403,$1*%
G04 Aperture macros list end*
%ADD10C,0.070000*%
%ADD11C,0.150000*%
%ADD12C,0.127000*%
%ADD13C,0.200000*%
%ADD14C,0.120000*%
%ADD15C,0.100000*%
%ADD16R,0.600000X1.550000*%
%ADD17R,0.725000X0.522000*%
%ADD18FreePoly0,90.000000*%
%ADD19C,0.381000*%
%ADD20RoundRect,0.140000X0.170000X-0.140000X0.170000X0.140000X-0.170000X0.140000X-0.170000X-0.140000X0*%
%ADD21RoundRect,0.140000X-0.170000X0.140000X-0.170000X-0.140000X0.170000X-0.140000X0.170000X0.140000X0*%
%ADD22RoundRect,0.135000X0.185000X-0.135000X0.185000X0.135000X-0.185000X0.135000X-0.185000X-0.135000X0*%
G04 APERTURE END LIST*
D10*
X152826190Y-92183333D02*
X153183333Y-92183333D01*
X153254761Y-92159523D01*
X153302380Y-92111904D01*
X153326190Y-92040476D01*
X153326190Y-91992857D01*
X153326190Y-92683333D02*
X153326190Y-92397619D01*
X153326190Y-92540476D02*
X152826190Y-92540476D01*
X152897619Y-92492857D01*
X152945238Y-92445238D01*
X152969047Y-92397619D01*
X150626190Y-94269047D02*
X151030952Y-94269047D01*
X151078571Y-94292857D01*
X151102380Y-94316666D01*
X151126190Y-94364285D01*
X151126190Y-94459523D01*
X151102380Y-94507142D01*
X151078571Y-94530952D01*
X151030952Y-94554761D01*
X150626190Y-94554761D01*
X151126190Y-95054761D02*
X151126190Y-94769047D01*
X151126190Y-94911904D02*
X150626190Y-94911904D01*
X150697619Y-94864285D01*
X150745238Y-94816666D01*
X150769047Y-94769047D01*
D11*
X152002380Y-93700000D02*
X152240476Y-93700000D01*
X152145238Y-93461904D02*
X152240476Y-93700000D01*
X152145238Y-93938095D01*
X152430952Y-93557142D02*
X152240476Y-93700000D01*
X152430952Y-93842857D01*
D10*
X148883333Y-93678571D02*
X148907142Y-93702380D01*
X148978571Y-93726190D01*
X149026190Y-93726190D01*
X149097619Y-93702380D01*
X149145238Y-93654761D01*
X149169047Y-93607142D01*
X149192857Y-93511904D01*
X149192857Y-93440476D01*
X149169047Y-93345238D01*
X149145238Y-93297619D01*
X149097619Y-93250000D01*
X149026190Y-93226190D01*
X148978571Y-93226190D01*
X148907142Y-93250000D01*
X148883333Y-93273809D01*
X148407142Y-93726190D02*
X148692857Y-93726190D01*
X148550000Y-93726190D02*
X148550000Y-93226190D01*
X148597619Y-93297619D01*
X148645238Y-93345238D01*
X148692857Y-93369047D01*
X149978571Y-95966666D02*
X150002380Y-95942857D01*
X150026190Y-95871428D01*
X150026190Y-95823809D01*
X150002380Y-95752380D01*
X149954761Y-95704761D01*
X149907142Y-95680952D01*
X149811904Y-95657142D01*
X149740476Y-95657142D01*
X149645238Y-95680952D01*
X149597619Y-95704761D01*
X149550000Y-95752380D01*
X149526190Y-95823809D01*
X149526190Y-95871428D01*
X149550000Y-95942857D01*
X149573809Y-95966666D01*
X149573809Y-96157142D02*
X149550000Y-96180952D01*
X149526190Y-96228571D01*
X149526190Y-96347619D01*
X149550000Y-96395238D01*
X149573809Y-96419047D01*
X149621428Y-96442857D01*
X149669047Y-96442857D01*
X149740476Y-96419047D01*
X150026190Y-96133333D01*
X150026190Y-96442857D01*
X152226190Y-95616666D02*
X151988095Y-95450000D01*
X152226190Y-95330952D02*
X151726190Y-95330952D01*
X151726190Y-95521428D01*
X151750000Y-95569047D01*
X151773809Y-95592857D01*
X151821428Y-95616666D01*
X151892857Y-95616666D01*
X151940476Y-95592857D01*
X151964285Y-95569047D01*
X151988095Y-95521428D01*
X151988095Y-95330952D01*
X152226190Y-96092857D02*
X152226190Y-95807142D01*
X152226190Y-95950000D02*
X151726190Y-95950000D01*
X151797619Y-95902380D01*
X151845238Y-95854761D01*
X151869047Y-95807142D01*
X153355590Y-93116666D02*
X153117495Y-92950000D01*
X153355590Y-92830952D02*
X152855590Y-92830952D01*
X152855590Y-93021428D01*
X152879400Y-93069047D01*
X152903209Y-93092857D01*
X152950828Y-93116666D01*
X153022257Y-93116666D01*
X153069876Y-93092857D01*
X153093685Y-93069047D01*
X153117495Y-93021428D01*
X153117495Y-92830952D01*
X152903209Y-93307142D02*
X152879400Y-93330952D01*
X152855590Y-93378571D01*
X152855590Y-93497619D01*
X152879400Y-93545238D01*
X152903209Y-93569047D01*
X152950828Y-93592857D01*
X152998447Y-93592857D01*
X153069876Y-93569047D01*
X153355590Y-93283333D01*
X153355590Y-93592857D01*
D12*
X149300000Y-91740000D02*
X152700000Y-91740000D01*
D13*
X149150000Y-91750000D02*
G75*
G03*
X149150000Y-91750000I-100000J0D01*
G01*
D14*
X150630655Y-93522800D02*
X151095945Y-93522800D01*
X152311100Y-95305233D02*
X152311100Y-97282000D01*
X152311100Y-97282000D02*
X149415500Y-97282000D01*
X149415500Y-97282000D02*
X149415500Y-95305233D01*
X149260000Y-94701036D02*
X149260000Y-94485364D01*
X148540000Y-94701036D02*
X148540000Y-94485364D01*
X148540000Y-96342164D02*
X148540000Y-96557836D01*
X149260000Y-96342164D02*
X149260000Y-96557836D01*
X153230000Y-96503641D02*
X153230000Y-96196359D01*
X152470000Y-96503641D02*
X152470000Y-96196359D01*
X153230001Y-94624041D02*
X153230001Y-94316759D01*
X152470001Y-94624041D02*
X152470001Y-94316759D01*
%LPC*%
G36*
X150934140Y-95305293D02*
G01*
X150907575Y-95608933D01*
X150863300Y-95607000D01*
X150706319Y-95631863D01*
X150564705Y-95704019D01*
X150452319Y-95816405D01*
X150380163Y-95958019D01*
X150355300Y-96115000D01*
X150380163Y-96271981D01*
X150452319Y-96413595D01*
X150564705Y-96525981D01*
X150706319Y-96598137D01*
X150863300Y-96623000D01*
X150907575Y-96621067D01*
X150934140Y-96924707D01*
X150863300Y-96927800D01*
X150612131Y-96888019D01*
X150385548Y-96772569D01*
X150205731Y-96592752D01*
X150090281Y-96366169D01*
X150050500Y-96115000D01*
X150090281Y-95863831D01*
X150205731Y-95637248D01*
X150385548Y-95457431D01*
X150612131Y-95341981D01*
X150863300Y-95302200D01*
X150934140Y-95305293D01*
G37*
D15*
X150934140Y-95305293D02*
X150907575Y-95608933D01*
X150863300Y-95607000D01*
X150706319Y-95631863D01*
X150564705Y-95704019D01*
X150452319Y-95816405D01*
X150380163Y-95958019D01*
X150355300Y-96115000D01*
X150380163Y-96271981D01*
X150452319Y-96413595D01*
X150564705Y-96525981D01*
X150706319Y-96598137D01*
X150863300Y-96623000D01*
X150907575Y-96621067D01*
X150934140Y-96924707D01*
X150863300Y-96927800D01*
X150612131Y-96888019D01*
X150385548Y-96772569D01*
X150205731Y-96592752D01*
X150090281Y-96366169D01*
X150050500Y-96115000D01*
X150090281Y-95863831D01*
X150205731Y-95637248D01*
X150385548Y-95457431D01*
X150612131Y-95341981D01*
X150863300Y-95302200D01*
X150934140Y-95305293D01*
G36*
X151114469Y-95341981D02*
G01*
X151341052Y-95457431D01*
X151520869Y-95637248D01*
X151636319Y-95863831D01*
X151676100Y-96115000D01*
X151636319Y-96366169D01*
X151520869Y-96592752D01*
X151341052Y-96772569D01*
X151114469Y-96888019D01*
X150863300Y-96927800D01*
X150792460Y-96924707D01*
X150819025Y-96621067D01*
X150863300Y-96623000D01*
X151020281Y-96598137D01*
X151161895Y-96525981D01*
X151274281Y-96413595D01*
X151346437Y-96271981D01*
X151371300Y-96115000D01*
X151346437Y-95958019D01*
X151274281Y-95816405D01*
X151161895Y-95704019D01*
X151020281Y-95631863D01*
X150863300Y-95607000D01*
X150819025Y-95608933D01*
X150792460Y-95305293D01*
X150863300Y-95302200D01*
X151114469Y-95341981D01*
G37*
X151114469Y-95341981D02*
X151341052Y-95457431D01*
X151520869Y-95637248D01*
X151636319Y-95863831D01*
X151676100Y-96115000D01*
X151636319Y-96366169D01*
X151520869Y-96592752D01*
X151341052Y-96772569D01*
X151114469Y-96888019D01*
X150863300Y-96927800D01*
X150792460Y-96924707D01*
X150819025Y-96621067D01*
X150863300Y-96623000D01*
X151020281Y-96598137D01*
X151161895Y-96525981D01*
X151274281Y-96413595D01*
X151346437Y-96271981D01*
X151371300Y-96115000D01*
X151346437Y-95958019D01*
X151274281Y-95816405D01*
X151161895Y-95704019D01*
X151020281Y-95631863D01*
X150863300Y-95607000D01*
X150819025Y-95608933D01*
X150792460Y-95305293D01*
X150863300Y-95302200D01*
X151114469Y-95341981D01*
D16*
X149480000Y-92635000D03*
X150480000Y-92635000D03*
X151480000Y-92635000D03*
X152480000Y-92635000D03*
D17*
X151701047Y-94041000D03*
X151701047Y-94863000D03*
D18*
X150863300Y-96775400D03*
D17*
X150025553Y-94863000D03*
X150025553Y-94041000D03*
D19*
X150863300Y-96115000D03*
D20*
X148900000Y-95073200D03*
X148900000Y-94113200D03*
D21*
X148900000Y-95970000D03*
X148900000Y-96930000D03*
D22*
X152850000Y-96860000D03*
X152850000Y-95840000D03*
X152850001Y-94980400D03*
X152850001Y-93960400D03*
M02*
