%TF.GenerationSoftware,KiCad,Pcbnew,6.0.5-a6ca702e91~116~ubuntu22.04.1*%
%TF.CreationDate,2022-07-01T18:25:18-07:00*%
%TF.ProjectId,microphone,6d696372-6f70-4686-9f6e-652e6b696361,rev?*%
%TF.SameCoordinates,Original*%
%TF.FileFunction,Copper,L2,Bot*%
%TF.FilePolarity,Positive*%
%FSLAX46Y46*%
G04 Gerber Fmt 4.6, Leading zero omitted, Abs format (unit mm)*
G04 Created by KiCad (PCBNEW 6.0.5-a6ca702e91~116~ubuntu22.04.1) date 2022-07-01 18:25:18*
%MOMM*%
%LPD*%
G01*
G04 APERTURE LIST*
G04 Aperture macros list*
%AMRoundRect*
0 Rectangle with rounded corners*
0 $1 Rounding radius*
0 $2 $3 $4 $5 $6 $7 $8 $9 X,Y pos of 4 corners*
0 Add a 4 corners polygon primitive as box body*
4,1,4,$2,$3,$4,$5,$6,$7,$8,$9,$2,$3,0*
0 Add four circle primitives for the rounded corners*
1,1,$1+$1,$2,$3*
1,1,$1+$1,$4,$5*
1,1,$1+$1,$6,$7*
1,1,$1+$1,$8,$9*
0 Add four rect primitives between the rounded corners*
20,1,$1+$1,$2,$3,$4,$5,0*
20,1,$1+$1,$4,$5,$6,$7,0*
20,1,$1+$1,$6,$7,$8,$9,0*
20,1,$1+$1,$8,$9,$2,$3,0*%
%AMFreePoly0*
4,1,103,0.919391,0.822403,0.926250,0.818200,0.934269,0.817569,1.160851,0.702119,1.166075,0.696003,1.173507,0.692924,1.353325,0.513107,1.356403,0.505675,1.362519,0.500452,1.477969,0.273869,1.478600,0.265849,1.482803,0.258991,1.508245,0.098357,1.511543,0.091283,1.519917,0.075198,1.519565,0.074081,1.520059,0.073021,1.523152,0.002182,1.522358,0.000000,1.523152,-0.002182,
1.520059,-0.073021,1.519565,-0.074081,1.519917,-0.075198,1.511543,-0.091283,1.508245,-0.098357,1.482803,-0.258991,1.478600,-0.265849,1.477969,-0.273869,1.362519,-0.500452,1.356403,-0.505675,1.353325,-0.513107,1.173507,-0.692924,1.166075,-0.696003,1.160851,-0.702119,0.934269,-0.817569,0.926250,-0.818200,0.919391,-0.822403,0.668222,-0.862184,0.660400,-0.860306,0.652579,-0.862184,
0.401409,-0.822403,0.394551,-0.818200,0.386531,-0.817569,0.159948,-0.702119,0.154725,-0.696003,0.147293,-0.692925,-0.032524,-0.513107,-0.035603,-0.505675,-0.041719,-0.500451,-0.157169,-0.273869,-0.157800,-0.265850,-0.162003,-0.258991,-0.187445,-0.098355,-0.190741,-0.091288,-0.199117,-0.075198,-0.198765,-0.074081,-0.199259,-0.073021,-0.202352,-0.002181,-0.201558,0.000000,0.203023,0.000000,
0.225408,-0.141336,0.290375,-0.268841,0.391559,-0.370025,0.519062,-0.434992,0.660400,-0.457377,0.801736,-0.434992,0.929241,-0.370025,1.030425,-0.268841,1.095392,-0.141338,1.117777,0.000000,1.095392,0.141338,1.030425,0.268841,0.929241,0.370025,0.801736,0.434992,0.660400,0.457377,0.519062,0.434992,0.391559,0.370025,0.290375,0.268841,0.225408,0.141336,0.203023,0.000000,
-0.201558,0.000000,-0.202352,0.002181,-0.199259,0.073021,-0.198765,0.074081,-0.199117,0.075198,-0.190741,0.091288,-0.187445,0.098355,-0.162003,0.258991,-0.157800,0.265850,-0.157169,0.273869,-0.041719,0.500451,-0.035603,0.505675,-0.032524,0.513107,0.147293,0.692925,0.154725,0.696003,0.159948,0.702119,0.386531,0.817569,0.394551,0.818200,0.401409,0.822403,0.652579,0.862184,
0.660400,0.860306,0.668222,0.862184,0.919391,0.822403,0.919391,0.822403,$1*%
G04 Aperture macros list end*
%TA.AperFunction,SMDPad,CuDef*%
%ADD10R,0.600000X1.550000*%
%TD*%
%TA.AperFunction,SMDPad,CuDef*%
%ADD11R,0.725000X0.522000*%
%TD*%
%TA.AperFunction,SMDPad,CuDef*%
%ADD12FreePoly0,90.000000*%
%TD*%
%TA.AperFunction,ComponentPad*%
%ADD13C,0.381000*%
%TD*%
%TA.AperFunction,SMDPad,CuDef*%
%ADD14RoundRect,0.140000X0.170000X-0.140000X0.170000X0.140000X-0.170000X0.140000X-0.170000X-0.140000X0*%
%TD*%
%TA.AperFunction,SMDPad,CuDef*%
%ADD15RoundRect,0.140000X-0.170000X0.140000X-0.170000X-0.140000X0.170000X-0.140000X0.170000X0.140000X0*%
%TD*%
%TA.AperFunction,SMDPad,CuDef*%
%ADD16RoundRect,0.135000X0.185000X-0.135000X0.185000X0.135000X-0.185000X0.135000X-0.185000X-0.135000X0*%
%TD*%
%TA.AperFunction,ViaPad*%
%ADD17C,0.450000*%
%TD*%
%TA.AperFunction,Conductor*%
%ADD18C,0.400000*%
%TD*%
%TA.AperFunction,Conductor*%
%ADD19C,0.300000*%
%TD*%
%TA.AperFunction,Conductor*%
%ADD20C,0.250000*%
%TD*%
%TA.AperFunction,Conductor*%
%ADD21C,0.150000*%
%TD*%
G04 APERTURE END LIST*
D10*
X149480000Y-92635000D03*
X150480000Y-92635000D03*
X151480000Y-92635000D03*
X152480000Y-92635000D03*
D11*
X151701047Y-94041000D03*
X151701047Y-94863000D03*
D12*
X150863300Y-96775400D03*
D11*
X150025553Y-94863000D03*
X150025553Y-94041000D03*
D13*
X150863300Y-96115000D03*
D14*
X148900000Y-95073200D03*
X148900000Y-94113200D03*
D15*
X148900000Y-95970000D03*
X148900000Y-96930000D03*
D16*
X152850000Y-96860000D03*
X152850000Y-95840000D03*
X152850001Y-94980400D03*
X152850001Y-93960400D03*
D17*
X149650000Y-96800000D03*
X148746300Y-93103700D03*
X152150000Y-96400000D03*
X150480000Y-92635000D03*
X153200100Y-93849900D03*
X151600000Y-97150000D03*
D18*
X148717000Y-93103700D02*
X148717000Y-93817500D01*
D19*
X149650000Y-96800000D02*
X149030000Y-96800000D01*
X149030000Y-96800000D02*
X148900000Y-96930000D01*
D18*
X149456800Y-92363900D02*
X148717000Y-93103700D01*
X148717000Y-93817500D02*
X148666200Y-93868300D01*
D20*
X152150000Y-96400000D02*
X152390000Y-96400000D01*
D19*
X153085800Y-96739900D02*
X152698145Y-96739900D01*
D18*
X149456800Y-92085400D02*
X149456800Y-92363900D01*
D19*
X148666200Y-93868300D02*
X149852853Y-93868300D01*
X149852853Y-93868300D02*
X150025553Y-94041000D01*
D20*
X152390000Y-96400000D02*
X152850000Y-96860000D01*
X148900000Y-95073200D02*
X148900000Y-95970000D01*
D18*
X153178499Y-93747602D02*
X153085801Y-93840300D01*
D20*
X149890954Y-95970000D02*
X150772554Y-96851600D01*
X150772554Y-96851600D02*
X150787100Y-96851600D01*
X151350000Y-97150000D02*
X151051600Y-96851600D01*
X148900000Y-95970000D02*
X149890954Y-95970000D01*
D18*
X150787100Y-96851600D02*
X150863300Y-96775400D01*
X153142421Y-93840300D02*
X153085801Y-93840300D01*
D20*
X151051600Y-96851600D02*
X150787100Y-96851600D01*
X151600000Y-97150000D02*
X151350000Y-97150000D01*
D19*
X153083101Y-94863000D02*
X153085801Y-94860300D01*
X153085801Y-95719899D02*
X153085800Y-95719900D01*
X151701047Y-94863000D02*
X153083101Y-94863000D01*
X153085801Y-94860300D02*
X153085801Y-95719899D01*
D21*
X152456800Y-93285247D02*
X151701047Y-94041000D01*
X152456800Y-92085400D02*
X152456800Y-93285247D01*
X150688053Y-94863000D02*
X150988546Y-94562507D01*
X150988546Y-93711454D02*
X151480000Y-93220000D01*
X151480000Y-93220000D02*
X151480000Y-92635000D01*
X150988546Y-94562507D02*
X150988546Y-93711454D01*
X150025553Y-94863000D02*
X150688053Y-94863000D01*
X151456800Y-93031745D02*
X151456800Y-92085400D01*
%TA.AperFunction,Conductor*%
G36*
X149096121Y-94921702D02*
G01*
X149142614Y-94975358D01*
X149154000Y-95027700D01*
X149154000Y-96015175D01*
X149133998Y-96083296D01*
X149080342Y-96129789D01*
X149031957Y-96141113D01*
X149026525Y-96141284D01*
X149021609Y-96141438D01*
X149017653Y-96141500D01*
X148984500Y-96141500D01*
X148916379Y-96121498D01*
X148869886Y-96067842D01*
X148858500Y-96015500D01*
X148858500Y-95027700D01*
X148878502Y-94959579D01*
X148932158Y-94913086D01*
X148984500Y-94901700D01*
X149028000Y-94901700D01*
X149096121Y-94921702D01*
G37*
%TD.AperFunction*%
M02*
