%TF.GenerationSoftware,KiCad,Pcbnew,6.0.9-8da3e8f707~116~ubuntu22.04.1*%
%TF.CreationDate,2022-12-05T15:05:28-05:00*%
%TF.ProjectId,microphone,6d696372-6f70-4686-9f6e-652e6b696361,rev?*%
%TF.SameCoordinates,Original*%
%TF.FileFunction,Copper,L1,Top*%
%TF.FilePolarity,Positive*%
%FSLAX46Y46*%
G04 Gerber Fmt 4.6, Leading zero omitted, Abs format (unit mm)*
G04 Created by KiCad (PCBNEW 6.0.9-8da3e8f707~116~ubuntu22.04.1) date 2022-12-05 15:05:28*
%MOMM*%
%LPD*%
G01*
G04 APERTURE LIST*
%TA.AperFunction,ViaPad*%
%ADD10C,0.600000*%
%TD*%
%TA.AperFunction,ViaPad*%
%ADD11C,0.450000*%
%TD*%
%TA.AperFunction,Conductor*%
%ADD12C,0.300000*%
%TD*%
%TA.AperFunction,Conductor*%
%ADD13C,0.150000*%
%TD*%
G04 APERTURE END LIST*
D10*
X149590000Y-96890000D03*
D11*
X148600000Y-93579502D03*
D10*
X152570613Y-94289452D03*
D11*
X149600000Y-96000000D03*
X150900000Y-92380000D03*
X148900000Y-92380000D03*
X151500000Y-93600000D03*
X149900000Y-92524500D03*
X150800000Y-93600000D03*
D10*
X152900000Y-92380000D03*
X152200000Y-96400000D03*
X149700000Y-93700000D03*
D12*
X152599500Y-94999500D02*
X153100000Y-95500000D01*
X148990000Y-96890000D02*
X148700000Y-96600000D01*
X152599500Y-94358666D02*
X152599500Y-94999500D01*
X149590000Y-96890000D02*
X148990000Y-96890000D01*
X153100000Y-96700000D02*
X152700000Y-97100000D01*
X148700000Y-93679502D02*
X148600000Y-93579502D01*
X148700000Y-96600000D02*
X148700000Y-93679502D01*
X149800000Y-97100000D02*
X152700000Y-97100000D01*
X153100000Y-95500000D02*
X153100000Y-96700000D01*
X149590000Y-96890000D02*
X149800000Y-97100000D01*
D13*
X149400000Y-92800000D02*
X149400000Y-92100000D01*
X149400000Y-92100000D02*
X149475000Y-92025000D01*
X149475000Y-92025000D02*
X150545000Y-92025000D01*
X150545000Y-92025000D02*
X150900000Y-92380000D01*
X149125000Y-93075000D02*
X149400000Y-92800000D01*
X149125000Y-93938173D02*
X149125000Y-93075000D01*
X149600000Y-94413173D02*
X149125000Y-93938173D01*
X149600000Y-96000000D02*
X149600000Y-94413173D01*
X148900000Y-91875000D02*
X148900000Y-92380000D01*
X151500000Y-93600000D02*
X151500000Y-92100000D01*
X149100000Y-91675000D02*
X148900000Y-91875000D01*
X151500000Y-92100000D02*
X151075000Y-91675000D01*
X151075000Y-91675000D02*
X149100000Y-91675000D01*
X150800000Y-93424500D02*
X149900000Y-92524500D01*
X150800000Y-93600000D02*
X150800000Y-93424500D01*
D12*
X151850000Y-95350000D02*
X151000000Y-94500000D01*
X151850000Y-95350000D02*
X151850000Y-94063173D01*
X150500000Y-94500000D02*
X149700000Y-93700000D01*
X152200000Y-95700000D02*
X151850000Y-95350000D01*
X152100000Y-93813173D02*
X152100000Y-93180000D01*
X152100000Y-93180000D02*
X152900000Y-92380000D01*
X151850000Y-94063173D02*
X152100000Y-93813173D01*
X152200000Y-96400000D02*
X152200000Y-95700000D01*
X151000000Y-94500000D02*
X150500000Y-94500000D01*
%TA.AperFunction,Conductor*%
G36*
X148817012Y-94455833D02*
G01*
X148823596Y-94461962D01*
X148979596Y-94617963D01*
X149013621Y-94680275D01*
X149016500Y-94707058D01*
X149016500Y-95514206D01*
X148996411Y-95582462D01*
X148938838Y-95671797D01*
X148935467Y-95681060D01*
X148884966Y-95819809D01*
X148884965Y-95819814D01*
X148882556Y-95826432D01*
X148861931Y-95989694D01*
X148877989Y-96153468D01*
X148929932Y-96309615D01*
X149015179Y-96450373D01*
X149129491Y-96568747D01*
X149267189Y-96658854D01*
X149273790Y-96661309D01*
X149273800Y-96661314D01*
X149370841Y-96697403D01*
X149427717Y-96739895D01*
X149452591Y-96806392D01*
X149437566Y-96875780D01*
X149387411Y-96926030D01*
X149326921Y-96941500D01*
X148734500Y-96941500D01*
X148666379Y-96921498D01*
X148619886Y-96867842D01*
X148608500Y-96815500D01*
X148608500Y-94551057D01*
X148628502Y-94482936D01*
X148682158Y-94436443D01*
X148752432Y-94426339D01*
X148817012Y-94455833D01*
G37*
%TD.AperFunction*%
%TA.AperFunction,Conductor*%
G36*
X150139775Y-96617968D02*
G01*
X150178928Y-96665979D01*
X150180166Y-96665273D01*
X150183791Y-96671628D01*
X150186657Y-96678364D01*
X150190995Y-96684259D01*
X150190997Y-96684262D01*
X150232617Y-96740817D01*
X150256884Y-96807538D01*
X150241227Y-96876786D01*
X150190617Y-96926577D01*
X150131136Y-96941500D01*
X149871682Y-96941500D01*
X149803561Y-96921498D01*
X149757068Y-96867842D01*
X149746964Y-96797568D01*
X149776458Y-96732988D01*
X149832744Y-96695667D01*
X149904929Y-96672213D01*
X150003612Y-96613386D01*
X150072366Y-96595686D01*
X150139775Y-96617968D01*
G37*
%TD.AperFunction*%
%TA.AperFunction,Conductor*%
G36*
X153009532Y-93305894D02*
G01*
X153066368Y-93348441D01*
X153091179Y-93414961D01*
X153091500Y-93423950D01*
X153091500Y-95509841D01*
X153071498Y-95577962D01*
X153017842Y-95624455D01*
X152947568Y-95634559D01*
X152882988Y-95605065D01*
X152843725Y-95541606D01*
X152842882Y-95534936D01*
X152839965Y-95527568D01*
X152839963Y-95527561D01*
X152825874Y-95491979D01*
X152822035Y-95480769D01*
X152809145Y-95436400D01*
X152798225Y-95417935D01*
X152789534Y-95400195D01*
X152781635Y-95380244D01*
X152754482Y-95342871D01*
X152747967Y-95332952D01*
X152728493Y-95300023D01*
X152728490Y-95300019D01*
X152724453Y-95293193D01*
X152709289Y-95278029D01*
X152696448Y-95262995D01*
X152688501Y-95252057D01*
X152683841Y-95245643D01*
X152648247Y-95216197D01*
X152639468Y-95208208D01*
X152545405Y-95114145D01*
X152511379Y-95051833D01*
X152508500Y-95025050D01*
X152508500Y-94390002D01*
X152528502Y-94321881D01*
X152542650Y-94303749D01*
X152571619Y-94272900D01*
X152574374Y-94270058D01*
X152594926Y-94249506D01*
X152597638Y-94246010D01*
X152605349Y-94236981D01*
X152631544Y-94209086D01*
X152636972Y-94203306D01*
X152647301Y-94184518D01*
X152658158Y-94167989D01*
X152666447Y-94157304D01*
X152666448Y-94157302D01*
X152671304Y-94151042D01*
X152689657Y-94108629D01*
X152694868Y-94097992D01*
X152717124Y-94057510D01*
X152722457Y-94036739D01*
X152728859Y-94018037D01*
X152737379Y-93998350D01*
X152744605Y-93952725D01*
X152747013Y-93941099D01*
X152756529Y-93904038D01*
X152756529Y-93904037D01*
X152758500Y-93896361D01*
X152758500Y-93874915D01*
X152760051Y-93855204D01*
X152762166Y-93841851D01*
X152763406Y-93834022D01*
X152759059Y-93788037D01*
X152758500Y-93776179D01*
X152758500Y-93504950D01*
X152778502Y-93436829D01*
X152795405Y-93415855D01*
X152876405Y-93334855D01*
X152938717Y-93300829D01*
X153009532Y-93305894D01*
G37*
%TD.AperFunction*%
M02*
