%TF.GenerationSoftware,KiCad,Pcbnew,6.0.5-a6ca702e91~116~ubuntu22.04.1*%
%TF.CreationDate,2022-07-01T18:25:18-07:00*%
%TF.ProjectId,microphone,6d696372-6f70-4686-9f6e-652e6b696361,rev?*%
%TF.SameCoordinates,Original*%
%TF.FileFunction,Copper,L1,Top*%
%TF.FilePolarity,Positive*%
%FSLAX46Y46*%
G04 Gerber Fmt 4.6, Leading zero omitted, Abs format (unit mm)*
G04 Created by KiCad (PCBNEW 6.0.5-a6ca702e91~116~ubuntu22.04.1) date 2022-07-01 18:25:18*
%MOMM*%
%LPD*%
G01*
G04 APERTURE LIST*
%TA.AperFunction,ComponentPad*%
%ADD10C,0.381000*%
%TD*%
%TA.AperFunction,ViaPad*%
%ADD11C,0.450000*%
%TD*%
%TA.AperFunction,Conductor*%
%ADD12C,0.300000*%
%TD*%
%TA.AperFunction,Conductor*%
%ADD13C,0.250000*%
%TD*%
G04 APERTURE END LIST*
D10*
X150863300Y-96115000D03*
D11*
X149650000Y-96800000D03*
X148746300Y-93103700D03*
X152150000Y-96400000D03*
X150480000Y-92635000D03*
X153200100Y-93849900D03*
X151600000Y-97150000D03*
D12*
X151013692Y-94936308D02*
X152063692Y-95986308D01*
X151013692Y-94936308D02*
X149650000Y-96300000D01*
X149285592Y-93208208D02*
X151013692Y-94936308D01*
D13*
X152063692Y-95986308D02*
X152063692Y-96313692D01*
D12*
X148746300Y-93103700D02*
X149181084Y-93103700D01*
X148717000Y-93103700D02*
X148746300Y-93103700D01*
X149181084Y-93103700D02*
X149285592Y-93208208D01*
X149650000Y-96300000D02*
X149650000Y-96800000D01*
D13*
X152050000Y-96000000D02*
X152063692Y-95986308D01*
X152063692Y-96313692D02*
X152150000Y-96400000D01*
D12*
X153200100Y-93103700D02*
X150583900Y-93103700D01*
X153200100Y-97000100D02*
X153200100Y-93849900D01*
X150583900Y-93103700D02*
X150583900Y-92738900D01*
X150583900Y-92738900D02*
X150480000Y-92635000D01*
D13*
X153050200Y-97150000D02*
X153200100Y-97000100D01*
X151600000Y-97150000D02*
X153050200Y-97150000D01*
D12*
X153200100Y-93849900D02*
X153200100Y-93103700D01*
%TA.AperFunction,Conductor*%
G36*
X152883621Y-92228502D02*
G01*
X152930114Y-92282158D01*
X152941500Y-92334500D01*
X152941500Y-95762130D01*
X152921498Y-95830251D01*
X152867842Y-95876744D01*
X152797568Y-95886848D01*
X152732988Y-95857354D01*
X152694503Y-95797283D01*
X152675049Y-95730321D01*
X152675048Y-95730319D01*
X152672837Y-95722708D01*
X152588144Y-95579501D01*
X151531760Y-94523116D01*
X151516643Y-94504844D01*
X151511566Y-94497373D01*
X151505624Y-94492134D01*
X151505621Y-94492131D01*
X151467657Y-94458662D01*
X151461887Y-94453243D01*
X151450025Y-94441381D01*
X151450021Y-94441378D01*
X149721925Y-92713281D01*
X149704739Y-92696095D01*
X149696749Y-92687315D01*
X149696747Y-92687313D01*
X149692500Y-92680620D01*
X149640826Y-92632095D01*
X149637985Y-92629341D01*
X149617417Y-92608773D01*
X149613910Y-92606053D01*
X149604888Y-92598347D01*
X149576997Y-92572156D01*
X149571217Y-92566728D01*
X149564265Y-92562906D01*
X149552426Y-92556397D01*
X149535902Y-92545543D01*
X149525216Y-92537255D01*
X149518952Y-92532396D01*
X149511680Y-92529249D01*
X149511678Y-92529248D01*
X149476549Y-92514046D01*
X149465889Y-92508824D01*
X149432368Y-92490395D01*
X149432366Y-92490394D01*
X149425421Y-92486576D01*
X149404643Y-92481241D01*
X149385953Y-92474842D01*
X149366260Y-92466320D01*
X149320636Y-92459094D01*
X149309026Y-92456690D01*
X149308461Y-92456545D01*
X149247450Y-92420237D01*
X149215755Y-92356708D01*
X149223437Y-92286129D01*
X149268058Y-92230906D01*
X149339782Y-92208500D01*
X152815500Y-92208500D01*
X152883621Y-92228502D01*
G37*
%TD.AperFunction*%
M02*
