%TF.GenerationSoftware,KiCad,Pcbnew,6.0.9-8da3e8f707~116~ubuntu22.04.1*%
%TF.CreationDate,2022-12-05T15:05:31-05:00*%
%TF.ProjectId,microphone,6d696372-6f70-4686-9f6e-652e6b696361,rev?*%
%TF.SameCoordinates,Original*%
%TF.FileFunction,Drillmap*%
%TF.FilePolarity,Positive*%
%FSLAX45Y45*%
G04 Gerber Fmt 4.5, Leading zero omitted, Abs format (unit mm)*
G04 Created by KiCad (PCBNEW 6.0.9-8da3e8f707~116~ubuntu22.04.1) date 2022-12-05 15:05:31*
%MOMM*%
%LPD*%
G01*
G04 APERTURE LIST*
%ADD10C,0.050000*%
%ADD11C,0.200000*%
G04 APERTURE END LIST*
D10*
X14810000Y-9745000D02*
X14810000Y-9140000D01*
X15360000Y-9745000D02*
X14810000Y-9745000D01*
X15360000Y-9140000D02*
X15360000Y-9745000D01*
X14810000Y-9140000D02*
X15360000Y-9140000D01*
D11*
D10*
X15060000Y-9605000D02*
X15110000Y-9655000D01*
X15110000Y-9605000D02*
X15060000Y-9655000D01*
D11*
X15065119Y-10057976D02*
X15065119Y-9857976D01*
X15112738Y-9857976D01*
X15141309Y-9867500D01*
X15160357Y-9886548D01*
X15169881Y-9905595D01*
X15179405Y-9943690D01*
X15179405Y-9972262D01*
X15169881Y-10010357D01*
X15160357Y-10029405D01*
X15141309Y-10048452D01*
X15112738Y-10057976D01*
X15065119Y-10057976D01*
X15265119Y-10057976D02*
X15265119Y-9924643D01*
X15265119Y-9962738D02*
X15274643Y-9943690D01*
X15284167Y-9934167D01*
X15303214Y-9924643D01*
X15322262Y-9924643D01*
X15388928Y-10057976D02*
X15388928Y-9924643D01*
X15388928Y-9857976D02*
X15379405Y-9867500D01*
X15388928Y-9877024D01*
X15398452Y-9867500D01*
X15388928Y-9857976D01*
X15388928Y-9877024D01*
X15512738Y-10057976D02*
X15493690Y-10048452D01*
X15484167Y-10029405D01*
X15484167Y-9857976D01*
X15617500Y-10057976D02*
X15598452Y-10048452D01*
X15588928Y-10029405D01*
X15588928Y-9857976D01*
X15846071Y-10057976D02*
X15846071Y-9857976D01*
X15912738Y-10000833D01*
X15979405Y-9857976D01*
X15979405Y-10057976D01*
X16160357Y-10057976D02*
X16160357Y-9953214D01*
X16150833Y-9934167D01*
X16131786Y-9924643D01*
X16093690Y-9924643D01*
X16074643Y-9934167D01*
X16160357Y-10048452D02*
X16141309Y-10057976D01*
X16093690Y-10057976D01*
X16074643Y-10048452D01*
X16065119Y-10029405D01*
X16065119Y-10010357D01*
X16074643Y-9991310D01*
X16093690Y-9981786D01*
X16141309Y-9981786D01*
X16160357Y-9972262D01*
X16255595Y-9924643D02*
X16255595Y-10124643D01*
X16255595Y-9934167D02*
X16274643Y-9924643D01*
X16312738Y-9924643D01*
X16331786Y-9934167D01*
X16341309Y-9943690D01*
X16350833Y-9962738D01*
X16350833Y-10019881D01*
X16341309Y-10038929D01*
X16331786Y-10048452D01*
X16312738Y-10057976D01*
X16274643Y-10057976D01*
X16255595Y-10048452D01*
X16436548Y-10038929D02*
X16446071Y-10048452D01*
X16436548Y-10057976D01*
X16427024Y-10048452D01*
X16436548Y-10038929D01*
X16436548Y-10057976D01*
X16436548Y-9934167D02*
X16446071Y-9943690D01*
X16436548Y-9953214D01*
X16427024Y-9943690D01*
X16436548Y-9934167D01*
X16436548Y-9953214D01*
D10*
X14757500Y-10362500D02*
X14807500Y-10412500D01*
X14807500Y-10362500D02*
X14757500Y-10412500D01*
D11*
X15103214Y-10277976D02*
X15122262Y-10277976D01*
X15141309Y-10287500D01*
X15150833Y-10297024D01*
X15160357Y-10316071D01*
X15169881Y-10354167D01*
X15169881Y-10401786D01*
X15160357Y-10439881D01*
X15150833Y-10458929D01*
X15141309Y-10468452D01*
X15122262Y-10477976D01*
X15103214Y-10477976D01*
X15084167Y-10468452D01*
X15074643Y-10458929D01*
X15065119Y-10439881D01*
X15055595Y-10401786D01*
X15055595Y-10354167D01*
X15065119Y-10316071D01*
X15074643Y-10297024D01*
X15084167Y-10287500D01*
X15103214Y-10277976D01*
X15255595Y-10458929D02*
X15265119Y-10468452D01*
X15255595Y-10477976D01*
X15246071Y-10468452D01*
X15255595Y-10458929D01*
X15255595Y-10477976D01*
X15446071Y-10277976D02*
X15350833Y-10277976D01*
X15341309Y-10373214D01*
X15350833Y-10363690D01*
X15369881Y-10354167D01*
X15417500Y-10354167D01*
X15436548Y-10363690D01*
X15446071Y-10373214D01*
X15455595Y-10392262D01*
X15455595Y-10439881D01*
X15446071Y-10458929D01*
X15436548Y-10468452D01*
X15417500Y-10477976D01*
X15369881Y-10477976D01*
X15350833Y-10468452D01*
X15341309Y-10458929D01*
X15579405Y-10277976D02*
X15598452Y-10277976D01*
X15617500Y-10287500D01*
X15627024Y-10297024D01*
X15636548Y-10316071D01*
X15646071Y-10354167D01*
X15646071Y-10401786D01*
X15636548Y-10439881D01*
X15627024Y-10458929D01*
X15617500Y-10468452D01*
X15598452Y-10477976D01*
X15579405Y-10477976D01*
X15560357Y-10468452D01*
X15550833Y-10458929D01*
X15541309Y-10439881D01*
X15531786Y-10401786D01*
X15531786Y-10354167D01*
X15541309Y-10316071D01*
X15550833Y-10297024D01*
X15560357Y-10287500D01*
X15579405Y-10277976D01*
X15769881Y-10277976D02*
X15788928Y-10277976D01*
X15807976Y-10287500D01*
X15817500Y-10297024D01*
X15827024Y-10316071D01*
X15836548Y-10354167D01*
X15836548Y-10401786D01*
X15827024Y-10439881D01*
X15817500Y-10458929D01*
X15807976Y-10468452D01*
X15788928Y-10477976D01*
X15769881Y-10477976D01*
X15750833Y-10468452D01*
X15741309Y-10458929D01*
X15731786Y-10439881D01*
X15722262Y-10401786D01*
X15722262Y-10354167D01*
X15731786Y-10316071D01*
X15741309Y-10297024D01*
X15750833Y-10287500D01*
X15769881Y-10277976D01*
X15922262Y-10477976D02*
X15922262Y-10344643D01*
X15922262Y-10363690D02*
X15931786Y-10354167D01*
X15950833Y-10344643D01*
X15979405Y-10344643D01*
X15998452Y-10354167D01*
X16007976Y-10373214D01*
X16007976Y-10477976D01*
X16007976Y-10373214D02*
X16017500Y-10354167D01*
X16036548Y-10344643D01*
X16065119Y-10344643D01*
X16084167Y-10354167D01*
X16093690Y-10373214D01*
X16093690Y-10477976D01*
X16188928Y-10477976D02*
X16188928Y-10344643D01*
X16188928Y-10363690D02*
X16198452Y-10354167D01*
X16217500Y-10344643D01*
X16246071Y-10344643D01*
X16265119Y-10354167D01*
X16274643Y-10373214D01*
X16274643Y-10477976D01*
X16274643Y-10373214D02*
X16284167Y-10354167D01*
X16303214Y-10344643D01*
X16331786Y-10344643D01*
X16350833Y-10354167D01*
X16360357Y-10373214D01*
X16360357Y-10477976D01*
X16750833Y-10268452D02*
X16579405Y-10525595D01*
X17007976Y-10277976D02*
X17027024Y-10277976D01*
X17046071Y-10287500D01*
X17055595Y-10297024D01*
X17065119Y-10316071D01*
X17074643Y-10354167D01*
X17074643Y-10401786D01*
X17065119Y-10439881D01*
X17055595Y-10458929D01*
X17046071Y-10468452D01*
X17027024Y-10477976D01*
X17007976Y-10477976D01*
X16988929Y-10468452D01*
X16979405Y-10458929D01*
X16969881Y-10439881D01*
X16960357Y-10401786D01*
X16960357Y-10354167D01*
X16969881Y-10316071D01*
X16979405Y-10297024D01*
X16988929Y-10287500D01*
X17007976Y-10277976D01*
X17160357Y-10458929D02*
X17169881Y-10468452D01*
X17160357Y-10477976D01*
X17150833Y-10468452D01*
X17160357Y-10458929D01*
X17160357Y-10477976D01*
X17293690Y-10277976D02*
X17312738Y-10277976D01*
X17331786Y-10287500D01*
X17341310Y-10297024D01*
X17350833Y-10316071D01*
X17360357Y-10354167D01*
X17360357Y-10401786D01*
X17350833Y-10439881D01*
X17341310Y-10458929D01*
X17331786Y-10468452D01*
X17312738Y-10477976D01*
X17293690Y-10477976D01*
X17274643Y-10468452D01*
X17265119Y-10458929D01*
X17255595Y-10439881D01*
X17246071Y-10401786D01*
X17246071Y-10354167D01*
X17255595Y-10316071D01*
X17265119Y-10297024D01*
X17274643Y-10287500D01*
X17293690Y-10277976D01*
X17550833Y-10477976D02*
X17436548Y-10477976D01*
X17493690Y-10477976D02*
X17493690Y-10277976D01*
X17474643Y-10306548D01*
X17455595Y-10325595D01*
X17436548Y-10335119D01*
X17646071Y-10477976D02*
X17684167Y-10477976D01*
X17703214Y-10468452D01*
X17712738Y-10458929D01*
X17731786Y-10430357D01*
X17741310Y-10392262D01*
X17741310Y-10316071D01*
X17731786Y-10297024D01*
X17722262Y-10287500D01*
X17703214Y-10277976D01*
X17665119Y-10277976D01*
X17646071Y-10287500D01*
X17636548Y-10297024D01*
X17627024Y-10316071D01*
X17627024Y-10363690D01*
X17636548Y-10382738D01*
X17646071Y-10392262D01*
X17665119Y-10401786D01*
X17703214Y-10401786D01*
X17722262Y-10392262D01*
X17731786Y-10382738D01*
X17741310Y-10363690D01*
X17807976Y-10277976D02*
X17941310Y-10277976D01*
X17855595Y-10477976D01*
X18007976Y-10277976D02*
X18007976Y-10316071D01*
X18084167Y-10277976D02*
X18084167Y-10316071D01*
X18379405Y-10554167D02*
X18369881Y-10544643D01*
X18350833Y-10516071D01*
X18341310Y-10497024D01*
X18331786Y-10468452D01*
X18322262Y-10420833D01*
X18322262Y-10382738D01*
X18331786Y-10335119D01*
X18341310Y-10306548D01*
X18350833Y-10287500D01*
X18369881Y-10258929D01*
X18379405Y-10249405D01*
X18560357Y-10477976D02*
X18446071Y-10477976D01*
X18503214Y-10477976D02*
X18503214Y-10277976D01*
X18484167Y-10306548D01*
X18465119Y-10325595D01*
X18446071Y-10335119D01*
X18798452Y-10477976D02*
X18798452Y-10277976D01*
X18884167Y-10477976D02*
X18884167Y-10373214D01*
X18874643Y-10354167D01*
X18855595Y-10344643D01*
X18827024Y-10344643D01*
X18807976Y-10354167D01*
X18798452Y-10363690D01*
X19007976Y-10477976D02*
X18988929Y-10468452D01*
X18979405Y-10458929D01*
X18969881Y-10439881D01*
X18969881Y-10382738D01*
X18979405Y-10363690D01*
X18988929Y-10354167D01*
X19007976Y-10344643D01*
X19036548Y-10344643D01*
X19055595Y-10354167D01*
X19065119Y-10363690D01*
X19074643Y-10382738D01*
X19074643Y-10439881D01*
X19065119Y-10458929D01*
X19055595Y-10468452D01*
X19036548Y-10477976D01*
X19007976Y-10477976D01*
X19188929Y-10477976D02*
X19169881Y-10468452D01*
X19160357Y-10449405D01*
X19160357Y-10277976D01*
X19341310Y-10468452D02*
X19322262Y-10477976D01*
X19284167Y-10477976D01*
X19265119Y-10468452D01*
X19255595Y-10449405D01*
X19255595Y-10373214D01*
X19265119Y-10354167D01*
X19284167Y-10344643D01*
X19322262Y-10344643D01*
X19341310Y-10354167D01*
X19350833Y-10373214D01*
X19350833Y-10392262D01*
X19255595Y-10411310D01*
X19417500Y-10554167D02*
X19427024Y-10544643D01*
X19446071Y-10516071D01*
X19455595Y-10497024D01*
X19465119Y-10468452D01*
X19474643Y-10420833D01*
X19474643Y-10382738D01*
X19465119Y-10335119D01*
X19455595Y-10306548D01*
X19446071Y-10287500D01*
X19427024Y-10258929D01*
X19417500Y-10249405D01*
X19779405Y-10554167D02*
X19769881Y-10544643D01*
X19750833Y-10516071D01*
X19741310Y-10497024D01*
X19731786Y-10468452D01*
X19722262Y-10420833D01*
X19722262Y-10382738D01*
X19731786Y-10335119D01*
X19741310Y-10306548D01*
X19750833Y-10287500D01*
X19769881Y-10258929D01*
X19779405Y-10249405D01*
X19855595Y-10344643D02*
X19855595Y-10477976D01*
X19855595Y-10363690D02*
X19865119Y-10354167D01*
X19884167Y-10344643D01*
X19912738Y-10344643D01*
X19931786Y-10354167D01*
X19941310Y-10373214D01*
X19941310Y-10477976D01*
X20065119Y-10477976D02*
X20046071Y-10468452D01*
X20036548Y-10458929D01*
X20027024Y-10439881D01*
X20027024Y-10382738D01*
X20036548Y-10363690D01*
X20046071Y-10354167D01*
X20065119Y-10344643D01*
X20093690Y-10344643D01*
X20112738Y-10354167D01*
X20122262Y-10363690D01*
X20131786Y-10382738D01*
X20131786Y-10439881D01*
X20122262Y-10458929D01*
X20112738Y-10468452D01*
X20093690Y-10477976D01*
X20065119Y-10477976D01*
X20188929Y-10344643D02*
X20265119Y-10344643D01*
X20217500Y-10277976D02*
X20217500Y-10449405D01*
X20227024Y-10468452D01*
X20246071Y-10477976D01*
X20265119Y-10477976D01*
X20484167Y-10344643D02*
X20484167Y-10544643D01*
X20484167Y-10354167D02*
X20503214Y-10344643D01*
X20541310Y-10344643D01*
X20560357Y-10354167D01*
X20569881Y-10363690D01*
X20579405Y-10382738D01*
X20579405Y-10439881D01*
X20569881Y-10458929D01*
X20560357Y-10468452D01*
X20541310Y-10477976D01*
X20503214Y-10477976D01*
X20484167Y-10468452D01*
X20693690Y-10477976D02*
X20674643Y-10468452D01*
X20665119Y-10449405D01*
X20665119Y-10277976D01*
X20855595Y-10477976D02*
X20855595Y-10373214D01*
X20846071Y-10354167D01*
X20827024Y-10344643D01*
X20788929Y-10344643D01*
X20769881Y-10354167D01*
X20855595Y-10468452D02*
X20836548Y-10477976D01*
X20788929Y-10477976D01*
X20769881Y-10468452D01*
X20760357Y-10449405D01*
X20760357Y-10430357D01*
X20769881Y-10411310D01*
X20788929Y-10401786D01*
X20836548Y-10401786D01*
X20855595Y-10392262D01*
X20922262Y-10344643D02*
X20998452Y-10344643D01*
X20950833Y-10277976D02*
X20950833Y-10449405D01*
X20960357Y-10468452D01*
X20979405Y-10477976D01*
X20998452Y-10477976D01*
X21141310Y-10468452D02*
X21122262Y-10477976D01*
X21084167Y-10477976D01*
X21065119Y-10468452D01*
X21055595Y-10449405D01*
X21055595Y-10373214D01*
X21065119Y-10354167D01*
X21084167Y-10344643D01*
X21122262Y-10344643D01*
X21141310Y-10354167D01*
X21150833Y-10373214D01*
X21150833Y-10392262D01*
X21055595Y-10411310D01*
X21322262Y-10477976D02*
X21322262Y-10277976D01*
X21322262Y-10468452D02*
X21303214Y-10477976D01*
X21265119Y-10477976D01*
X21246071Y-10468452D01*
X21236548Y-10458929D01*
X21227024Y-10439881D01*
X21227024Y-10382738D01*
X21236548Y-10363690D01*
X21246071Y-10354167D01*
X21265119Y-10344643D01*
X21303214Y-10344643D01*
X21322262Y-10354167D01*
X21398452Y-10554167D02*
X21407976Y-10544643D01*
X21427024Y-10516071D01*
X21436548Y-10497024D01*
X21446071Y-10468452D01*
X21455595Y-10420833D01*
X21455595Y-10382738D01*
X21446071Y-10335119D01*
X21436548Y-10306548D01*
X21427024Y-10287500D01*
X21407976Y-10258929D01*
X21398452Y-10249405D01*
M02*
