%TF.GenerationSoftware,KiCad,Pcbnew,6.0.9-8da3e8f707~116~ubuntu22.04.1*%
%TF.CreationDate,2022-12-05T15:05:29-05:00*%
%TF.ProjectId,microphone,6d696372-6f70-4686-9f6e-652e6b696361,rev?*%
%TF.SameCoordinates,Original*%
%TF.FileFunction,Paste,Bot*%
%TF.FilePolarity,Positive*%
%FSLAX46Y46*%
G04 Gerber Fmt 4.6, Leading zero omitted, Abs format (unit mm)*
G04 Created by KiCad (PCBNEW 6.0.9-8da3e8f707~116~ubuntu22.04.1) date 2022-12-05 15:05:29*
%MOMM*%
%LPD*%
G01*
G04 APERTURE LIST*
G04 Aperture macros list*
%AMRoundRect*
0 Rectangle with rounded corners*
0 $1 Rounding radius*
0 $2 $3 $4 $5 $6 $7 $8 $9 X,Y pos of 4 corners*
0 Add a 4 corners polygon primitive as box body*
4,1,4,$2,$3,$4,$5,$6,$7,$8,$9,$2,$3,0*
0 Add four circle primitives for the rounded corners*
1,1,$1+$1,$2,$3*
1,1,$1+$1,$4,$5*
1,1,$1+$1,$6,$7*
1,1,$1+$1,$8,$9*
0 Add four rect primitives between the rounded corners*
20,1,$1+$1,$2,$3,$4,$5,0*
20,1,$1+$1,$4,$5,$6,$7,0*
20,1,$1+$1,$6,$7,$8,$9,0*
20,1,$1+$1,$8,$9,$2,$3,0*%
G04 Aperture macros list end*
%ADD10C,0.001000*%
%ADD11R,0.600000X1.550000*%
%ADD12RoundRect,0.140000X0.170000X-0.140000X0.170000X0.140000X-0.170000X0.140000X-0.170000X-0.140000X0*%
%ADD13RoundRect,0.140000X-0.170000X0.140000X-0.170000X-0.140000X0.170000X-0.140000X0.170000X0.140000X0*%
%ADD14RoundRect,0.135000X0.185000X-0.135000X0.185000X0.135000X-0.185000X0.135000X-0.185000X-0.135000X0*%
%ADD15R,0.600000X0.522000*%
G04 APERTURE END LIST*
G36*
X151550000Y-95890000D02*
G01*
X151600000Y-95990000D01*
X151630000Y-96080000D01*
X151650000Y-96160000D01*
X151660000Y-96300000D01*
X151646203Y-96460191D01*
X151600000Y-96610000D01*
X151555000Y-96700000D01*
X151490309Y-96799766D01*
X151380000Y-96685000D01*
X151280000Y-96585000D01*
X151315000Y-96530000D01*
X151355000Y-96420000D01*
X151360000Y-96420000D01*
X151355000Y-96410000D01*
X151370000Y-96305000D01*
X151373603Y-96295000D01*
X151370000Y-96295000D01*
X151355000Y-96175000D01*
X151311537Y-96075391D01*
X151276172Y-96007334D01*
X151375000Y-95910000D01*
X151485000Y-95795000D01*
X151550000Y-95890000D01*
G37*
D10*
X151550000Y-95890000D02*
X151600000Y-95990000D01*
X151630000Y-96080000D01*
X151650000Y-96160000D01*
X151660000Y-96300000D01*
X151646203Y-96460191D01*
X151600000Y-96610000D01*
X151555000Y-96700000D01*
X151490309Y-96799766D01*
X151380000Y-96685000D01*
X151280000Y-96585000D01*
X151315000Y-96530000D01*
X151355000Y-96420000D01*
X151360000Y-96420000D01*
X151355000Y-96410000D01*
X151370000Y-96305000D01*
X151373603Y-96295000D01*
X151370000Y-96295000D01*
X151355000Y-96175000D01*
X151311537Y-96075391D01*
X151276172Y-96007334D01*
X151375000Y-95910000D01*
X151485000Y-95795000D01*
X151550000Y-95890000D01*
G36*
X151010191Y-95503797D02*
G01*
X151160000Y-95550000D01*
X151265000Y-95600000D01*
X151339766Y-95654691D01*
X151225000Y-95770000D01*
X151130000Y-95865000D01*
X151080000Y-95840000D01*
X151025000Y-95815000D01*
X150970000Y-95800000D01*
X150910000Y-95790000D01*
X150850000Y-95786397D01*
X150730000Y-95800000D01*
X150625391Y-95838463D01*
X150567334Y-95873828D01*
X150465000Y-95775000D01*
X150350000Y-95660000D01*
X150440000Y-95600000D01*
X150540000Y-95550000D01*
X150620000Y-95520000D01*
X150710000Y-95500000D01*
X150850000Y-95490000D01*
X151010191Y-95503797D01*
G37*
X151010191Y-95503797D02*
X151160000Y-95550000D01*
X151265000Y-95600000D01*
X151339766Y-95654691D01*
X151225000Y-95770000D01*
X151130000Y-95865000D01*
X151080000Y-95840000D01*
X151025000Y-95815000D01*
X150970000Y-95800000D01*
X150910000Y-95790000D01*
X150850000Y-95786397D01*
X150730000Y-95800000D01*
X150625391Y-95838463D01*
X150567334Y-95873828D01*
X150465000Y-95775000D01*
X150350000Y-95660000D01*
X150440000Y-95600000D01*
X150540000Y-95550000D01*
X150620000Y-95520000D01*
X150710000Y-95500000D01*
X150850000Y-95490000D01*
X151010191Y-95503797D01*
G36*
X150620000Y-96760000D02*
G01*
X150730000Y-96800000D01*
X150850000Y-96813603D01*
X150970000Y-96800000D01*
X151074609Y-96761537D01*
X151137666Y-96726172D01*
X151235000Y-96825000D01*
X151350000Y-96940000D01*
X151255000Y-97005000D01*
X151160000Y-97050000D01*
X151070000Y-97080000D01*
X150990000Y-97100000D01*
X150850000Y-97110000D01*
X150689809Y-97096203D01*
X150540000Y-97050000D01*
X150425000Y-96990000D01*
X150355234Y-96945309D01*
X150470000Y-96830000D01*
X150570000Y-96725000D01*
X150620000Y-96760000D01*
G37*
X150620000Y-96760000D02*
X150730000Y-96800000D01*
X150850000Y-96813603D01*
X150970000Y-96800000D01*
X151074609Y-96761537D01*
X151137666Y-96726172D01*
X151235000Y-96825000D01*
X151350000Y-96940000D01*
X151255000Y-97005000D01*
X151160000Y-97050000D01*
X151070000Y-97080000D01*
X150990000Y-97100000D01*
X150850000Y-97110000D01*
X150689809Y-97096203D01*
X150540000Y-97050000D01*
X150425000Y-96990000D01*
X150355234Y-96945309D01*
X150470000Y-96830000D01*
X150570000Y-96725000D01*
X150620000Y-96760000D01*
G36*
X150320000Y-95915000D02*
G01*
X150425000Y-96020000D01*
X150390000Y-96070000D01*
X150350000Y-96180000D01*
X150336397Y-96300000D01*
X150350000Y-96420000D01*
X150388463Y-96524609D01*
X150428828Y-96582666D01*
X150330000Y-96680000D01*
X150210000Y-96800000D01*
X150145000Y-96705000D01*
X150100000Y-96610000D01*
X150070000Y-96530000D01*
X150050000Y-96440000D01*
X150040000Y-96360000D01*
X150040000Y-96235000D01*
X150053797Y-96139809D01*
X150070000Y-96065000D01*
X150100000Y-95990000D01*
X150145000Y-95895000D01*
X150209691Y-95800234D01*
X150320000Y-95915000D01*
G37*
X150320000Y-95915000D02*
X150425000Y-96020000D01*
X150390000Y-96070000D01*
X150350000Y-96180000D01*
X150336397Y-96300000D01*
X150350000Y-96420000D01*
X150388463Y-96524609D01*
X150428828Y-96582666D01*
X150330000Y-96680000D01*
X150210000Y-96800000D01*
X150145000Y-96705000D01*
X150100000Y-96610000D01*
X150070000Y-96530000D01*
X150050000Y-96440000D01*
X150040000Y-96360000D01*
X150040000Y-96235000D01*
X150053797Y-96139809D01*
X150070000Y-96065000D01*
X150100000Y-95990000D01*
X150145000Y-95895000D01*
X150209691Y-95800234D01*
X150320000Y-95915000D01*
D11*
X148900000Y-92380000D03*
X149900000Y-92380000D03*
X150900000Y-92380000D03*
X151900000Y-92380000D03*
X152900000Y-92380000D03*
D12*
X148700000Y-94980000D03*
X148700000Y-94020000D03*
D13*
X148700000Y-95920000D03*
X148700000Y-96880000D03*
D14*
X153000000Y-96910000D03*
X153000000Y-95890000D03*
X153000000Y-95010000D03*
X153000000Y-93990000D03*
D15*
X151750000Y-94226000D03*
X151750000Y-95048000D03*
X149950000Y-95048000D03*
X149950000Y-94226000D03*
X150850000Y-94226000D03*
M02*
