%TF.GenerationSoftware,KiCad,Pcbnew,6.0.5-a6ca702e91~116~ubuntu22.04.1*%
%TF.CreationDate,2022-07-01T18:25:18-07:00*%
%TF.ProjectId,microphone,6d696372-6f70-4686-9f6e-652e6b696361,rev?*%
%TF.SameCoordinates,Original*%
%TF.FileFunction,Legend,Top*%
%TF.FilePolarity,Positive*%
%FSLAX46Y46*%
G04 Gerber Fmt 4.6, Leading zero omitted, Abs format (unit mm)*
G04 Created by KiCad (PCBNEW 6.0.5-a6ca702e91~116~ubuntu22.04.1) date 2022-07-01 18:25:18*
%MOMM*%
%LPD*%
G01*
G04 APERTURE LIST*
%ADD10C,0.070000*%
%ADD11C,0.150000*%
%ADD12C,0.381000*%
G04 APERTURE END LIST*
D10*
X150250000Y-93130952D02*
X150226190Y-93178571D01*
X150226190Y-93250000D01*
X150250000Y-93321428D01*
X150297619Y-93369047D01*
X150345238Y-93392857D01*
X150440476Y-93416666D01*
X150511904Y-93416666D01*
X150607142Y-93392857D01*
X150654761Y-93369047D01*
X150702380Y-93321428D01*
X150726190Y-93250000D01*
X150726190Y-93202380D01*
X150702380Y-93130952D01*
X150678571Y-93107142D01*
X150511904Y-93107142D01*
X150511904Y-93202380D01*
X150726190Y-92892857D02*
X150226190Y-92892857D01*
X150726190Y-92607142D01*
X150226190Y-92607142D01*
X150726190Y-92369047D02*
X150226190Y-92369047D01*
X150226190Y-92250000D01*
X150250000Y-92178571D01*
X150297619Y-92130952D01*
X150345238Y-92107142D01*
X150440476Y-92083333D01*
X150511904Y-92083333D01*
X150607142Y-92107142D01*
X150654761Y-92130952D01*
X150702380Y-92178571D01*
X150726190Y-92250000D01*
X150726190Y-92369047D01*
X151728571Y-92997619D02*
X151752380Y-93021428D01*
X151776190Y-93092857D01*
X151776190Y-93140476D01*
X151752380Y-93211904D01*
X151704761Y-93259523D01*
X151657142Y-93283333D01*
X151561904Y-93307142D01*
X151490476Y-93307142D01*
X151395238Y-93283333D01*
X151347619Y-93259523D01*
X151300000Y-93211904D01*
X151276190Y-93140476D01*
X151276190Y-93092857D01*
X151300000Y-93021428D01*
X151323809Y-92997619D01*
X151776190Y-92545238D02*
X151776190Y-92783333D01*
X151276190Y-92783333D01*
X151776190Y-92378571D02*
X151276190Y-92378571D01*
X151776190Y-92092857D02*
X151490476Y-92307142D01*
X151276190Y-92092857D02*
X151561904Y-92378571D01*
X152778590Y-92842857D02*
X152278590Y-92842857D01*
X152278590Y-92723809D01*
X152302400Y-92652380D01*
X152350019Y-92604761D01*
X152397638Y-92580952D01*
X152492876Y-92557142D01*
X152564304Y-92557142D01*
X152659542Y-92580952D01*
X152707161Y-92604761D01*
X152754780Y-92652380D01*
X152778590Y-92723809D01*
X152778590Y-92842857D01*
X152278590Y-92247619D02*
X152278590Y-92152380D01*
X152302400Y-92104761D01*
X152350019Y-92057142D01*
X152445257Y-92033333D01*
X152611923Y-92033333D01*
X152707161Y-92057142D01*
X152754780Y-92104761D01*
X152778590Y-92152380D01*
X152778590Y-92247619D01*
X152754780Y-92295238D01*
X152707161Y-92342857D01*
X152611923Y-92366666D01*
X152445257Y-92366666D01*
X152350019Y-92342857D01*
X152302400Y-92295238D01*
X152278590Y-92247619D01*
X149026190Y-93366666D02*
X149526190Y-93200000D01*
X149026190Y-93033333D01*
X149478571Y-92580952D02*
X149502380Y-92604761D01*
X149526190Y-92676190D01*
X149526190Y-92723809D01*
X149502380Y-92795238D01*
X149454761Y-92842857D01*
X149407142Y-92866666D01*
X149311904Y-92890476D01*
X149240476Y-92890476D01*
X149145238Y-92866666D01*
X149097619Y-92842857D01*
X149050000Y-92795238D01*
X149026190Y-92723809D01*
X149026190Y-92676190D01*
X149050000Y-92604761D01*
X149073809Y-92580952D01*
X149478571Y-92080952D02*
X149502380Y-92104761D01*
X149526190Y-92176190D01*
X149526190Y-92223809D01*
X149502380Y-92295238D01*
X149454761Y-92342857D01*
X149407142Y-92366666D01*
X149311904Y-92390476D01*
X149240476Y-92390476D01*
X149145238Y-92366666D01*
X149097619Y-92342857D01*
X149050000Y-92295238D01*
X149026190Y-92223809D01*
X149026190Y-92176190D01*
X149050000Y-92104761D01*
X149073809Y-92080952D01*
X149054761Y-93473690D02*
X149340476Y-93473690D01*
X149197619Y-93973690D02*
X149197619Y-93473690D01*
X149697619Y-93949880D02*
X149650000Y-93973690D01*
X149554761Y-93973690D01*
X149507142Y-93949880D01*
X149483333Y-93902261D01*
X149483333Y-93711785D01*
X149507142Y-93664166D01*
X149554761Y-93640357D01*
X149650000Y-93640357D01*
X149697619Y-93664166D01*
X149721428Y-93711785D01*
X149721428Y-93759404D01*
X149483333Y-93807023D01*
X150150000Y-93973690D02*
X150150000Y-93711785D01*
X150126190Y-93664166D01*
X150078571Y-93640357D01*
X149983333Y-93640357D01*
X149935714Y-93664166D01*
X150150000Y-93949880D02*
X150102380Y-93973690D01*
X149983333Y-93973690D01*
X149935714Y-93949880D01*
X149911904Y-93902261D01*
X149911904Y-93854642D01*
X149935714Y-93807023D01*
X149983333Y-93783214D01*
X150102380Y-93783214D01*
X150150000Y-93759404D01*
X150388095Y-93973690D02*
X150388095Y-93640357D01*
X150388095Y-93687976D02*
X150411904Y-93664166D01*
X150459523Y-93640357D01*
X150530952Y-93640357D01*
X150578571Y-93664166D01*
X150602380Y-93711785D01*
X150602380Y-93973690D01*
X150602380Y-93711785D02*
X150626190Y-93664166D01*
X150673809Y-93640357D01*
X150745238Y-93640357D01*
X150792857Y-93664166D01*
X150816666Y-93711785D01*
X150816666Y-93973690D01*
X151150000Y-93473690D02*
X151245238Y-93473690D01*
X151292857Y-93497500D01*
X151340476Y-93545119D01*
X151364285Y-93640357D01*
X151364285Y-93807023D01*
X151340476Y-93902261D01*
X151292857Y-93949880D01*
X151245238Y-93973690D01*
X151150000Y-93973690D01*
X151102380Y-93949880D01*
X151054761Y-93902261D01*
X151030952Y-93807023D01*
X151030952Y-93640357D01*
X151054761Y-93545119D01*
X151102380Y-93497500D01*
X151150000Y-93473690D01*
X151578571Y-93640357D02*
X151578571Y-94140357D01*
X151578571Y-93664166D02*
X151626190Y-93640357D01*
X151721428Y-93640357D01*
X151769047Y-93664166D01*
X151792857Y-93687976D01*
X151816666Y-93735595D01*
X151816666Y-93878452D01*
X151792857Y-93926071D01*
X151769047Y-93949880D01*
X151721428Y-93973690D01*
X151626190Y-93973690D01*
X151578571Y-93949880D01*
X152221428Y-93949880D02*
X152173809Y-93973690D01*
X152078571Y-93973690D01*
X152030952Y-93949880D01*
X152007142Y-93902261D01*
X152007142Y-93711785D01*
X152030952Y-93664166D01*
X152078571Y-93640357D01*
X152173809Y-93640357D01*
X152221428Y-93664166D01*
X152245238Y-93711785D01*
X152245238Y-93759404D01*
X152007142Y-93807023D01*
X152459523Y-93640357D02*
X152459523Y-93973690D01*
X152459523Y-93687976D02*
X152483333Y-93664166D01*
X152530952Y-93640357D01*
X152602380Y-93640357D01*
X152650000Y-93664166D01*
X152673809Y-93711785D01*
X152673809Y-93973690D01*
X148471428Y-94754880D02*
X148542857Y-94778690D01*
X148661904Y-94778690D01*
X148709523Y-94754880D01*
X148733333Y-94731071D01*
X148757142Y-94683452D01*
X148757142Y-94635833D01*
X148733333Y-94588214D01*
X148709523Y-94564404D01*
X148661904Y-94540595D01*
X148566666Y-94516785D01*
X148519047Y-94492976D01*
X148495238Y-94469166D01*
X148471428Y-94421547D01*
X148471428Y-94373928D01*
X148495238Y-94326309D01*
X148519047Y-94302500D01*
X148566666Y-94278690D01*
X148685714Y-94278690D01*
X148757142Y-94302500D01*
X148971428Y-94778690D02*
X148971428Y-94445357D01*
X148971428Y-94492976D02*
X148995238Y-94469166D01*
X149042857Y-94445357D01*
X149114285Y-94445357D01*
X149161904Y-94469166D01*
X149185714Y-94516785D01*
X149185714Y-94778690D01*
X149185714Y-94516785D02*
X149209523Y-94469166D01*
X149257142Y-94445357D01*
X149328571Y-94445357D01*
X149376190Y-94469166D01*
X149400000Y-94516785D01*
X149400000Y-94778690D01*
X149852380Y-94778690D02*
X149852380Y-94516785D01*
X149828571Y-94469166D01*
X149780952Y-94445357D01*
X149685714Y-94445357D01*
X149638095Y-94469166D01*
X149852380Y-94754880D02*
X149804761Y-94778690D01*
X149685714Y-94778690D01*
X149638095Y-94754880D01*
X149614285Y-94707261D01*
X149614285Y-94659642D01*
X149638095Y-94612023D01*
X149685714Y-94588214D01*
X149804761Y-94588214D01*
X149852380Y-94564404D01*
X150090476Y-94778690D02*
X150090476Y-94445357D01*
X150090476Y-94540595D02*
X150114285Y-94492976D01*
X150138095Y-94469166D01*
X150185714Y-94445357D01*
X150233333Y-94445357D01*
X150328571Y-94445357D02*
X150519047Y-94445357D01*
X150400000Y-94278690D02*
X150400000Y-94707261D01*
X150423809Y-94754880D01*
X150471428Y-94778690D01*
X150519047Y-94778690D01*
X150947619Y-94302500D02*
X150900000Y-94278690D01*
X150828571Y-94278690D01*
X150757142Y-94302500D01*
X150709523Y-94350119D01*
X150685714Y-94397738D01*
X150661904Y-94492976D01*
X150661904Y-94564404D01*
X150685714Y-94659642D01*
X150709523Y-94707261D01*
X150757142Y-94754880D01*
X150828571Y-94778690D01*
X150876190Y-94778690D01*
X150947619Y-94754880D01*
X150971428Y-94731071D01*
X150971428Y-94564404D01*
X150876190Y-94564404D01*
X151257142Y-94778690D02*
X151209523Y-94754880D01*
X151185714Y-94707261D01*
X151185714Y-94278690D01*
X151661904Y-94778690D02*
X151661904Y-94516785D01*
X151638095Y-94469166D01*
X151590476Y-94445357D01*
X151495238Y-94445357D01*
X151447619Y-94469166D01*
X151661904Y-94754880D02*
X151614285Y-94778690D01*
X151495238Y-94778690D01*
X151447619Y-94754880D01*
X151423809Y-94707261D01*
X151423809Y-94659642D01*
X151447619Y-94612023D01*
X151495238Y-94588214D01*
X151614285Y-94588214D01*
X151661904Y-94564404D01*
X151876190Y-94754880D02*
X151923809Y-94778690D01*
X152019047Y-94778690D01*
X152066666Y-94754880D01*
X152090476Y-94707261D01*
X152090476Y-94683452D01*
X152066666Y-94635833D01*
X152019047Y-94612023D01*
X151947619Y-94612023D01*
X151900000Y-94588214D01*
X151876190Y-94540595D01*
X151876190Y-94516785D01*
X151900000Y-94469166D01*
X151947619Y-94445357D01*
X152019047Y-94445357D01*
X152066666Y-94469166D01*
X152280952Y-94754880D02*
X152328571Y-94778690D01*
X152423809Y-94778690D01*
X152471428Y-94754880D01*
X152495238Y-94707261D01*
X152495238Y-94683452D01*
X152471428Y-94635833D01*
X152423809Y-94612023D01*
X152352380Y-94612023D01*
X152304761Y-94588214D01*
X152280952Y-94540595D01*
X152280952Y-94516785D01*
X152304761Y-94469166D01*
X152352380Y-94445357D01*
X152423809Y-94445357D01*
X152471428Y-94469166D01*
X152900000Y-94754880D02*
X152852380Y-94778690D01*
X152757142Y-94778690D01*
X152709523Y-94754880D01*
X152685714Y-94707261D01*
X152685714Y-94516785D01*
X152709523Y-94469166D01*
X152757142Y-94445357D01*
X152852380Y-94445357D01*
X152900000Y-94469166D01*
X152923809Y-94516785D01*
X152923809Y-94564404D01*
X152685714Y-94612023D01*
X153114285Y-94754880D02*
X153161904Y-94778690D01*
X153257142Y-94778690D01*
X153304761Y-94754880D01*
X153328571Y-94707261D01*
X153328571Y-94683452D01*
X153304761Y-94635833D01*
X153257142Y-94612023D01*
X153185714Y-94612023D01*
X153138095Y-94588214D01*
X153114285Y-94540595D01*
X153114285Y-94516785D01*
X153138095Y-94469166D01*
X153185714Y-94445357D01*
X153257142Y-94445357D01*
X153304761Y-94469166D01*
D11*
X151593008Y-96100900D02*
G75*
G03*
X151593008Y-96100900I-717008J0D01*
G01*
X150176000Y-94890900D02*
G75*
G03*
X150226793Y-97281269I740001J-1180000D01*
G01*
%LPC*%
D12*
X150863300Y-96115000D03*
M02*
