%TF.GenerationSoftware,KiCad,Pcbnew,6.0.4-6f826c9f35~116~ubuntu20.04.1*%
%TF.CreationDate,2022-03-30T16:12:31-04:00*%
%TF.ProjectId,msa,6d73612e-6b69-4636-9164-5f7063625858,rev?*%
%TF.SameCoordinates,Original*%
%TF.FileFunction,Paste,Top*%
%TF.FilePolarity,Positive*%
%FSLAX46Y46*%
G04 Gerber Fmt 4.6, Leading zero omitted, Abs format (unit mm)*
G04 Created by KiCad (PCBNEW 6.0.4-6f826c9f35~116~ubuntu20.04.1) date 2022-03-30 16:12:31*
%MOMM*%
%LPD*%
G01*
G04 APERTURE LIST*
G04 Aperture macros list*
%AMRoundRect*
0 Rectangle with rounded corners*
0 $1 Rounding radius*
0 $2 $3 $4 $5 $6 $7 $8 $9 X,Y pos of 4 corners*
0 Add a 4 corners polygon primitive as box body*
4,1,4,$2,$3,$4,$5,$6,$7,$8,$9,$2,$3,0*
0 Add four circle primitives for the rounded corners*
1,1,$1+$1,$2,$3*
1,1,$1+$1,$4,$5*
1,1,$1+$1,$6,$7*
1,1,$1+$1,$8,$9*
0 Add four rect primitives between the rounded corners*
20,1,$1+$1,$2,$3,$4,$5,0*
20,1,$1+$1,$4,$5,$6,$7,0*
20,1,$1+$1,$6,$7,$8,$9,0*
20,1,$1+$1,$8,$9,$2,$3,0*%
G04 Aperture macros list end*
%ADD10C,0.010000*%
%ADD11RoundRect,0.135000X-0.135000X-0.185000X0.135000X-0.185000X0.135000X0.185000X-0.135000X0.185000X0*%
%ADD12RoundRect,0.147500X-0.172500X0.147500X-0.172500X-0.147500X0.172500X-0.147500X0.172500X0.147500X0*%
%ADD13R,1.600000X1.300000*%
%ADD14RoundRect,0.140000X0.170000X-0.140000X0.170000X0.140000X-0.170000X0.140000X-0.170000X-0.140000X0*%
%ADD15RoundRect,0.135000X0.135000X0.185000X-0.135000X0.185000X-0.135000X-0.185000X0.135000X-0.185000X0*%
%ADD16R,0.250000X0.730000*%
%ADD17R,0.240000X0.470000*%
%ADD18R,0.700000X0.600000*%
%ADD19R,0.510000X0.400000*%
%ADD20R,0.500000X0.500000*%
%ADD21R,0.400000X1.350000*%
%ADD22R,1.500000X1.900000*%
%ADD23RoundRect,0.155000X0.155000X-0.212500X0.155000X0.212500X-0.155000X0.212500X-0.155000X-0.212500X0*%
%ADD24RoundRect,0.155000X-0.212500X-0.155000X0.212500X-0.155000X0.212500X0.155000X-0.212500X0.155000X0*%
%ADD25RoundRect,0.140000X-0.170000X0.140000X-0.170000X-0.140000X0.170000X-0.140000X0.170000X0.140000X0*%
%ADD26RoundRect,0.155000X-0.155000X0.212500X-0.155000X-0.212500X0.155000X-0.212500X0.155000X0.212500X0*%
%ADD27RoundRect,0.135000X-0.185000X0.135000X-0.185000X-0.135000X0.185000X-0.135000X0.185000X0.135000X0*%
%ADD28RoundRect,0.150000X-0.587500X-0.150000X0.587500X-0.150000X0.587500X0.150000X-0.587500X0.150000X0*%
%ADD29RoundRect,0.135000X0.185000X-0.135000X0.185000X0.135000X-0.185000X0.135000X-0.185000X-0.135000X0*%
%ADD30RoundRect,0.140000X0.140000X0.170000X-0.140000X0.170000X-0.140000X-0.170000X0.140000X-0.170000X0*%
%ADD31RoundRect,0.140000X-0.140000X-0.170000X0.140000X-0.170000X0.140000X0.170000X-0.140000X0.170000X0*%
%ADD32RoundRect,0.147500X0.172500X-0.147500X0.172500X0.147500X-0.172500X0.147500X-0.172500X-0.147500X0*%
%ADD33RoundRect,0.150000X0.150000X-0.512500X0.150000X0.512500X-0.150000X0.512500X-0.150000X-0.512500X0*%
%ADD34R,0.300000X0.500000*%
%ADD35R,1.600000X0.200000*%
%ADD36RoundRect,0.006000X-0.094000X0.414000X-0.094000X-0.414000X0.094000X-0.414000X0.094000X0.414000X0*%
%ADD37RoundRect,0.020000X-0.400000X0.080000X-0.400000X-0.080000X0.400000X-0.080000X0.400000X0.080000X0*%
%ADD38C,1.000000*%
G04 APERTURE END LIST*
%TO.C,U4*%
G36*
X135380000Y-87452500D02*
G01*
X133420000Y-87452500D01*
X133420000Y-85492500D01*
X135380000Y-85492500D01*
X135380000Y-87452500D01*
G37*
D10*
X135380000Y-87452500D02*
X133420000Y-87452500D01*
X133420000Y-85492500D01*
X135380000Y-85492500D01*
X135380000Y-87452500D01*
%TD*%
D11*
%TO.C,R5*%
X140515000Y-88275000D03*
X141535000Y-88275000D03*
%TD*%
D12*
%TO.C,D2*%
X150495000Y-86477500D03*
X150495000Y-87447500D03*
%TD*%
D13*
%TO.C,Y1*%
X124157500Y-84590000D03*
X127457500Y-84590000D03*
X127457500Y-82590000D03*
X124157500Y-82590000D03*
%TD*%
D14*
%TO.C,C16*%
X127200000Y-89952500D03*
X127200000Y-88992500D03*
%TD*%
D11*
%TO.C,R4*%
X140515000Y-87275000D03*
X141535000Y-87275000D03*
%TD*%
D15*
%TO.C,R10*%
X149110000Y-89075000D03*
X148090000Y-89075000D03*
%TD*%
D16*
%TO.C,CONN1*%
X117450000Y-89515000D03*
D17*
X117450000Y-90100000D03*
D16*
X117850000Y-89515000D03*
D17*
X117850000Y-90100000D03*
D16*
X118250000Y-89515000D03*
D17*
X118250000Y-90100000D03*
X118650000Y-90100000D03*
D16*
X118650000Y-89515000D03*
D17*
X119050000Y-90100000D03*
D16*
X119050000Y-89515000D03*
D17*
X119450000Y-90100000D03*
D16*
X119450000Y-89515000D03*
X117450000Y-88245000D03*
D17*
X117450000Y-87650000D03*
X117850000Y-87650000D03*
D16*
X117850000Y-88245000D03*
X118250000Y-88245000D03*
D17*
X118250000Y-87650000D03*
X118650000Y-87650000D03*
D16*
X118650000Y-88245000D03*
X119050000Y-88245000D03*
D17*
X119050000Y-87650000D03*
D16*
X119450000Y-88245000D03*
D17*
X119450000Y-87650000D03*
D18*
X120200000Y-90050000D03*
X116700000Y-90050000D03*
X120200000Y-87700000D03*
X116700000Y-87700000D03*
%TD*%
D14*
%TO.C,C5*%
X157402500Y-89490000D03*
X157402500Y-88530000D03*
%TD*%
D19*
%TO.C,U5*%
X147305000Y-86875000D03*
X147305000Y-87875000D03*
X148595000Y-87375000D03*
%TD*%
D20*
%TO.C,D3*%
X147300000Y-84337500D03*
X147300000Y-82137500D03*
%TD*%
D21*
%TO.C,J1*%
X160200000Y-85600000D03*
X159550000Y-85600000D03*
X158900000Y-85600000D03*
X158250000Y-85600000D03*
X157600000Y-85600000D03*
D22*
X157900000Y-82900000D03*
X159900000Y-82900000D03*
%TD*%
D23*
%TO.C,C3*%
X153525000Y-83280000D03*
X153525000Y-82145000D03*
%TD*%
D24*
%TO.C,R1*%
X152357500Y-87637500D03*
X153492500Y-87637500D03*
%TD*%
D25*
%TO.C,C19*%
X122400000Y-83245000D03*
X122400000Y-84205000D03*
%TD*%
D14*
%TO.C,C15*%
X128190000Y-89950000D03*
X128190000Y-88990000D03*
%TD*%
D24*
%TO.C,C2*%
X152357500Y-86512500D03*
X153492500Y-86512500D03*
%TD*%
D26*
%TO.C,R8*%
X148900000Y-82170000D03*
X148900000Y-83305000D03*
%TD*%
D27*
%TO.C,R2*%
X144160000Y-82680000D03*
X144160000Y-83700000D03*
%TD*%
D28*
%TO.C,U1*%
X158965000Y-87760000D03*
X158965000Y-89660000D03*
X160840000Y-88710000D03*
%TD*%
D29*
%TO.C,R3*%
X145180000Y-83710000D03*
X145180000Y-82690000D03*
%TD*%
D15*
%TO.C,R7*%
X128167500Y-86087500D03*
X127147500Y-86087500D03*
%TD*%
D30*
%TO.C,C8*%
X128310000Y-87940000D03*
X127350000Y-87940000D03*
%TD*%
D31*
%TO.C,C6*%
X139595000Y-89300000D03*
X140555000Y-89300000D03*
%TD*%
D14*
%TO.C,C18*%
X129607500Y-84470000D03*
X129607500Y-83510000D03*
%TD*%
%TO.C,C9*%
X141940000Y-90240000D03*
X141940000Y-89280000D03*
%TD*%
D32*
%TO.C,D1*%
X139225000Y-83160000D03*
X139225000Y-82190000D03*
%TD*%
D14*
%TO.C,C1*%
X162350000Y-88080000D03*
X162350000Y-87120000D03*
%TD*%
D23*
%TO.C,C20*%
X145700000Y-88467500D03*
X145700000Y-87332500D03*
%TD*%
D33*
%TO.C,U2*%
X150300000Y-84825000D03*
X151250000Y-84825000D03*
X152200000Y-84825000D03*
X152200000Y-82550000D03*
X150300000Y-82550000D03*
%TD*%
D34*
%TO.C,U3*%
X143050000Y-82652500D03*
X142550000Y-82652500D03*
X142050000Y-82652500D03*
X141550000Y-82652500D03*
X141550000Y-85092500D03*
X142050000Y-85092500D03*
X142550000Y-85092500D03*
X143050000Y-85092500D03*
D35*
X142300000Y-83872500D03*
%TD*%
D36*
%TO.C,U4*%
X137000000Y-83037500D03*
X136600000Y-83037500D03*
X136200000Y-83037500D03*
X135800000Y-83037500D03*
X135400000Y-83037500D03*
X135000000Y-83037500D03*
X134600000Y-83037500D03*
X134200000Y-83037500D03*
X133800000Y-83037500D03*
X133400000Y-83037500D03*
X133000000Y-83037500D03*
X132600000Y-83037500D03*
X132200000Y-83037500D03*
X131800000Y-83037500D03*
D37*
X130965000Y-83872500D03*
X130965000Y-84272500D03*
X130965000Y-84672500D03*
X130965000Y-85072500D03*
X130965000Y-85472500D03*
X130965000Y-85872500D03*
X130965000Y-86272500D03*
X130965000Y-86672500D03*
X130965000Y-87072500D03*
X130965000Y-87472500D03*
X130965000Y-87872500D03*
X130965000Y-88272500D03*
X130965000Y-88672500D03*
X130965000Y-89072500D03*
D36*
X131800000Y-89907500D03*
X132200000Y-89907500D03*
X132600000Y-89907500D03*
X133000000Y-89907500D03*
X133400000Y-89907500D03*
X133800000Y-89907500D03*
X134200000Y-89907500D03*
X134600000Y-89907500D03*
X135000000Y-89907500D03*
X135400000Y-89907500D03*
X135800000Y-89907500D03*
X136200000Y-89907500D03*
X136600000Y-89907500D03*
X137000000Y-89907500D03*
D37*
X137835000Y-89072500D03*
X137835000Y-88672500D03*
X137835000Y-88272500D03*
X137835000Y-87872500D03*
X137835000Y-87472500D03*
X137835000Y-87072500D03*
X137835000Y-86672500D03*
X137835000Y-86272500D03*
X137835000Y-85872500D03*
X137835000Y-85472500D03*
X137835000Y-85072500D03*
X137835000Y-84672500D03*
X137835000Y-84272500D03*
X137835000Y-83872500D03*
%TD*%
D38*
%TO.C,TP9*%
X121250000Y-83775000D03*
%TD*%
D23*
%TO.C,R9*%
X148900000Y-85630000D03*
X148900000Y-84495000D03*
%TD*%
D38*
%TO.C,TP3*%
X145800000Y-86350000D03*
%TD*%
D31*
%TO.C,C4*%
X144520000Y-85520000D03*
X145480000Y-85520000D03*
%TD*%
D14*
%TO.C,C17*%
X143040000Y-90220000D03*
X143040000Y-89260000D03*
%TD*%
M02*
