%TF.GenerationSoftware,KiCad,Pcbnew,6.0.4-6f826c9f35~116~ubuntu20.04.1*%
%TF.CreationDate,2022-03-30T16:12:31-04:00*%
%TF.ProjectId,msa,6d73612e-6b69-4636-9164-5f7063625858,rev?*%
%TF.SameCoordinates,Original*%
%TF.FileFunction,Copper,L2,Bot*%
%TF.FilePolarity,Positive*%
%FSLAX46Y46*%
G04 Gerber Fmt 4.6, Leading zero omitted, Abs format (unit mm)*
G04 Created by KiCad (PCBNEW 6.0.4-6f826c9f35~116~ubuntu20.04.1) date 2022-03-30 16:12:31*
%MOMM*%
%LPD*%
G01*
G04 APERTURE LIST*
G04 Aperture macros list*
%AMRoundRect*
0 Rectangle with rounded corners*
0 $1 Rounding radius*
0 $2 $3 $4 $5 $6 $7 $8 $9 X,Y pos of 4 corners*
0 Add a 4 corners polygon primitive as box body*
4,1,4,$2,$3,$4,$5,$6,$7,$8,$9,$2,$3,0*
0 Add four circle primitives for the rounded corners*
1,1,$1+$1,$2,$3*
1,1,$1+$1,$4,$5*
1,1,$1+$1,$6,$7*
1,1,$1+$1,$8,$9*
0 Add four rect primitives between the rounded corners*
20,1,$1+$1,$2,$3,$4,$5,0*
20,1,$1+$1,$4,$5,$6,$7,0*
20,1,$1+$1,$6,$7,$8,$9,0*
20,1,$1+$1,$8,$9,$2,$3,0*%
G04 Aperture macros list end*
%TA.AperFunction,ComponentPad*%
%ADD10O,1.200000X1.900000*%
%TD*%
%TA.AperFunction,ComponentPad*%
%ADD11C,1.450000*%
%TD*%
%TA.AperFunction,SMDPad,CuDef*%
%ADD12RoundRect,0.140000X0.140000X0.170000X-0.140000X0.170000X-0.140000X-0.170000X0.140000X-0.170000X0*%
%TD*%
%TA.AperFunction,SMDPad,CuDef*%
%ADD13C,1.000000*%
%TD*%
%TA.AperFunction,SMDPad,CuDef*%
%ADD14O,1.000000X1.000000*%
%TD*%
%TA.AperFunction,SMDPad,CuDef*%
%ADD15R,0.900000X1.700000*%
%TD*%
%TA.AperFunction,SMDPad,CuDef*%
%ADD16R,0.800000X1.100000*%
%TD*%
%TA.AperFunction,SMDPad,CuDef*%
%ADD17RoundRect,0.140000X-0.170000X0.140000X-0.170000X-0.140000X0.170000X-0.140000X0.170000X0.140000X0*%
%TD*%
%TA.AperFunction,SMDPad,CuDef*%
%ADD18RoundRect,0.135000X0.185000X-0.135000X0.185000X0.135000X-0.185000X0.135000X-0.185000X-0.135000X0*%
%TD*%
%TA.AperFunction,SMDPad,CuDef*%
%ADD19R,1.000000X1.000000*%
%TD*%
%TA.AperFunction,ViaPad*%
%ADD20C,0.500000*%
%TD*%
%TA.AperFunction,ViaPad*%
%ADD21C,0.600000*%
%TD*%
%TA.AperFunction,Conductor*%
%ADD22C,0.150000*%
%TD*%
%TA.AperFunction,Conductor*%
%ADD23C,0.300000*%
%TD*%
%TA.AperFunction,Conductor*%
%ADD24C,0.200000*%
%TD*%
%TA.AperFunction,Conductor*%
%ADD25C,0.400000*%
%TD*%
G04 APERTURE END LIST*
D10*
%TO.P,J1,6,Shield*%
%TO.N,-BATT*%
X155400000Y-82900000D03*
D11*
X156400000Y-85600000D03*
X161400000Y-85600000D03*
D10*
X162400000Y-82900000D03*
%TD*%
D12*
%TO.P,C13,1*%
%TO.N,+3V3*%
X136420000Y-88560000D03*
%TO.P,C13,2*%
%TO.N,-BATT*%
X135460000Y-88560000D03*
%TD*%
D13*
%TO.P,TP6,1,1*%
%TO.N,+1V1*%
X125750000Y-87270000D03*
%TD*%
%TO.P,TP1,1,1*%
%TO.N,-BATT*%
X146555000Y-85325000D03*
D14*
%TO.P,TP1,2,2*%
%TO.N,/USB_BOOT*%
X147825000Y-85325000D03*
%TD*%
D15*
%TO.P,SW1,1,A*%
%TO.N,/USB_BOOT*%
X152950000Y-82875000D03*
%TO.P,SW1,2,B*%
%TO.N,-BATT*%
X149550000Y-82875000D03*
D16*
%TO.P,SW1,3*%
%TO.N,N/C*%
X151250000Y-84515000D03*
%TD*%
D12*
%TO.P,C7,1*%
%TO.N,+1V1*%
X134810000Y-87270000D03*
%TO.P,C7,2*%
%TO.N,-BATT*%
X133850000Y-87270000D03*
%TD*%
D17*
%TO.P,C10,1*%
%TO.N,+3V3*%
X136700000Y-84392500D03*
%TO.P,C10,2*%
%TO.N,-BATT*%
X136700000Y-85352500D03*
%TD*%
%TO.P,C11,1*%
%TO.N,+3V3*%
X135700000Y-84392500D03*
%TO.P,C11,2*%
%TO.N,-BATT*%
X135700000Y-85352500D03*
%TD*%
D18*
%TO.P,R6,1*%
%TO.N,-BATT*%
X137950000Y-83110000D03*
%TO.P,R6,2*%
%TO.N,Net-(D1-Pad1)*%
X137950000Y-82090000D03*
%TD*%
D13*
%TO.P,TP4,1,1*%
%TO.N,VBUS*%
X154925000Y-87050000D03*
%TD*%
D19*
%TO.P,J2,1,Pin_1*%
%TO.N,-BATT*%
X118850000Y-87470000D03*
D14*
%TO.P,J2,2,Pin_2*%
%TO.N,+3V3*%
X120120000Y-87470000D03*
%TO.P,J2,3,Pin_3*%
%TO.N,/SWDIO*%
X121390000Y-87470000D03*
%TO.P,J2,4,Pin_4*%
%TO.N,/SWDCLK*%
X122660000Y-87470000D03*
%TD*%
D17*
%TO.P,C12,1*%
%TO.N,+3V3*%
X134700000Y-84392500D03*
%TO.P,C12,2*%
%TO.N,-BATT*%
X134700000Y-85352500D03*
%TD*%
D12*
%TO.P,C14,1*%
%TO.N,+3V3*%
X136420000Y-89560000D03*
%TO.P,C14,2*%
%TO.N,-BATT*%
X135460000Y-89560000D03*
%TD*%
D13*
%TO.P,TP5,1,1*%
%TO.N,+3V3*%
X144850000Y-82750000D03*
%TD*%
%TO.P,TP2,1,1*%
%TO.N,/RP_RUN*%
X124130000Y-87440000D03*
%TD*%
%TO.P,BT1,1,+*%
%TO.N,+BATT*%
X162600000Y-88850000D03*
%TO.P,BT1,2,-*%
%TO.N,-BATT*%
X162600000Y-86850000D03*
%TD*%
D20*
%TO.N,VBUS*%
X154250000Y-86850000D03*
D21*
X149600000Y-86425000D03*
D20*
X147350000Y-82700000D03*
X146650000Y-82700000D03*
%TO.N,-BATT*%
X154355000Y-82145000D03*
X145570000Y-84630000D03*
X146600000Y-83600000D03*
X125477500Y-84557500D03*
X144500000Y-86600000D03*
X131860000Y-85790000D03*
X129550000Y-85375000D03*
X129225000Y-90000000D03*
X160625000Y-86625000D03*
X133510000Y-87830000D03*
X162400000Y-84600000D03*
X153650000Y-85050000D03*
X155000000Y-86000000D03*
X133030000Y-87130000D03*
X135430000Y-86130000D03*
X149866250Y-83583750D03*
D21*
X141130000Y-82940000D03*
D20*
X143950000Y-89650000D03*
X153050000Y-85625000D03*
X118500000Y-86350000D03*
X134530000Y-86120000D03*
X127922500Y-84747500D03*
X126345000Y-84590000D03*
X145009411Y-87240589D03*
X154400000Y-82900000D03*
X155000000Y-85200000D03*
X162287500Y-86487500D03*
%TO.N,+3V3*%
X133400000Y-84072500D03*
D21*
X140940000Y-90240000D03*
D20*
X125780000Y-90000000D03*
X135405000Y-84055000D03*
X132540000Y-84530000D03*
X136700000Y-84100000D03*
X120562924Y-86402547D03*
X136600000Y-86032000D03*
X136950000Y-87225000D03*
D21*
X140100000Y-90240000D03*
D20*
X137150000Y-88790000D03*
X139320000Y-86620000D03*
X145850000Y-83400000D03*
%TO.N,+1V1*%
X136400000Y-86750000D03*
X132000000Y-87210000D03*
X126840000Y-87010000D03*
%TO.N,Net-(D1-Pad1)*%
X138625000Y-82700000D03*
%TO.N,/SWDIO*%
X121950000Y-88300000D03*
X126498154Y-87880772D03*
X129302369Y-88130690D03*
%TO.N,/SWDCLK*%
X129410000Y-87420000D03*
%TO.N,/USB_BOOT*%
X143550000Y-84350000D03*
%TO.N,/RP_RUN*%
X130000000Y-88375000D03*
X131830000Y-87972502D03*
%TO.N,/MIC_CLK*%
X116775000Y-88775000D03*
X120850000Y-85075000D03*
X130650000Y-82760000D03*
X121535000Y-82965000D03*
%TO.N,/MIC_DOUT_1*%
X131419263Y-82259500D03*
X119700000Y-84700000D03*
%TO.N,/MIC_DOUT_2*%
X120150000Y-89300000D03*
X133525000Y-88950000D03*
%TO.N,/MIC_DOUT_3*%
X134540000Y-88585000D03*
X117875000Y-86675000D03*
D21*
%TO.N,+BATT*%
X151420000Y-87330000D03*
D20*
X149162500Y-87587500D03*
D21*
X151425000Y-86225000D03*
D20*
%TO.N,+VDC*%
X146400000Y-89200000D03*
X156475000Y-90500000D03*
X157340000Y-90510000D03*
X147175000Y-89125000D03*
%TO.N,Net-(D2-Pad2)*%
X150820500Y-87975000D03*
X152345000Y-88562500D03*
%TD*%
D22*
%TO.N,VBUS*%
X154300000Y-86800000D02*
X154250000Y-86850000D01*
D23*
X147350000Y-82700000D02*
X147400000Y-82750000D01*
D22*
X154250000Y-86850000D02*
X154725000Y-86850000D01*
X154725000Y-86850000D02*
X154925000Y-87050000D01*
D23*
X147750000Y-83100000D02*
X147350000Y-82700000D01*
X147750000Y-83525000D02*
X149600000Y-85375000D01*
X149600000Y-86425000D02*
X149600000Y-85375000D01*
X147750000Y-83525000D02*
X147750000Y-83100000D01*
X147350000Y-82700000D02*
X146650000Y-82700000D01*
D22*
X154950000Y-86800000D02*
X154300000Y-86800000D01*
D24*
%TO.N,-BATT*%
X129335000Y-85160000D02*
X129270000Y-85160000D01*
D22*
X137950000Y-83110000D02*
X137985000Y-83110000D01*
D25*
X133260000Y-87830000D02*
X133040000Y-87610000D01*
X141020000Y-82830000D02*
X143450000Y-82830000D01*
X133510000Y-87830000D02*
X133260000Y-87830000D01*
D23*
X144500000Y-87150000D02*
X143950000Y-87700000D01*
X152150000Y-85625000D02*
X152436439Y-85625000D01*
D24*
X118850000Y-86540000D02*
X119057500Y-86332500D01*
D22*
X146555000Y-83355000D02*
X146050000Y-82850000D01*
D24*
X134700000Y-85950000D02*
X134530000Y-86120000D01*
D25*
X143450000Y-82830000D02*
X145250000Y-84630000D01*
D23*
X153800000Y-85200000D02*
X153650000Y-85050000D01*
D22*
X140195000Y-83875000D02*
X138750000Y-83875000D01*
D25*
X125005705Y-84557500D02*
X123795705Y-85767500D01*
X119270000Y-86120000D02*
X119057500Y-86332500D01*
X136700000Y-85352500D02*
X136707500Y-85360000D01*
X133580000Y-87270000D02*
X133170000Y-87270000D01*
D24*
X135460000Y-88560000D02*
X134825000Y-87925000D01*
D25*
X132197500Y-85352500D02*
X132000000Y-85550000D01*
D22*
X146375000Y-81950000D02*
X148720000Y-81950000D01*
D25*
X134700000Y-85352500D02*
X132197500Y-85352500D01*
X133580000Y-87270000D02*
X133580000Y-87760000D01*
D24*
X118850000Y-86540000D02*
X118690000Y-86540000D01*
D22*
X140195000Y-83875000D02*
X141130000Y-82940000D01*
D23*
X154600000Y-86000000D02*
X153650000Y-85050000D01*
X154400000Y-82900000D02*
X154400000Y-84600000D01*
D25*
X123795705Y-85767500D02*
X123728694Y-85700489D01*
X133580000Y-87760000D02*
X133510000Y-87830000D01*
D23*
X154355000Y-82855000D02*
X154400000Y-82900000D01*
D24*
X133605000Y-87925000D02*
X133510000Y-87830000D01*
D25*
X141540000Y-85360000D02*
X141540000Y-83239915D01*
D24*
X129270000Y-85160000D02*
X128390000Y-84280000D01*
D23*
X162600000Y-86075000D02*
X162600000Y-86850000D01*
D25*
X162287500Y-86537500D02*
X162600000Y-86850000D01*
D24*
X134540000Y-86130000D02*
X134530000Y-86120000D01*
D23*
X155000000Y-85200000D02*
X155000000Y-86000000D01*
D25*
X135700000Y-85352500D02*
X134700000Y-85352500D01*
X126112500Y-84557500D02*
X126145000Y-84590000D01*
D23*
X143950000Y-87700000D02*
X143950000Y-89650000D01*
D22*
X146050000Y-82275000D02*
X146375000Y-81950000D01*
D24*
X133850000Y-87270000D02*
X133580000Y-87270000D01*
X127922500Y-84747500D02*
X127490481Y-85179519D01*
D25*
X131625000Y-90050000D02*
X132800000Y-90050000D01*
D24*
X128390000Y-84280000D02*
X127922500Y-84747500D01*
D25*
X126145000Y-84590000D02*
X126345000Y-84590000D01*
D24*
X135460000Y-88560000D02*
X135460000Y-89560000D01*
D23*
X162287500Y-86387500D02*
X162625000Y-86050000D01*
D25*
X134700000Y-85352500D02*
X134700000Y-85950000D01*
X141540000Y-83239915D02*
X141373574Y-83073489D01*
X119270000Y-86120000D02*
X118850000Y-86540000D01*
D23*
X155000000Y-86000000D02*
X154600000Y-86000000D01*
D22*
X148720000Y-81950000D02*
X149650000Y-82880000D01*
D25*
X129225000Y-90000000D02*
X131575000Y-90000000D01*
X125477500Y-84557500D02*
X126112500Y-84557500D01*
D23*
X155000000Y-86000000D02*
X153425000Y-86000000D01*
D25*
X133170000Y-87270000D02*
X133170000Y-87480000D01*
X131575000Y-90000000D02*
X131625000Y-90050000D01*
D22*
X146050000Y-82850000D02*
X146050000Y-82275000D01*
D25*
X134990000Y-86130000D02*
X135430000Y-86130000D01*
D23*
X162287500Y-86487500D02*
X162287500Y-86387500D01*
D25*
X136700000Y-85352500D02*
X135700000Y-85352500D01*
D23*
X144500000Y-86600000D02*
X144500000Y-87150000D01*
D25*
X133170000Y-87270000D02*
X133030000Y-87130000D01*
D24*
X125307500Y-84557500D02*
X125005705Y-84557500D01*
D25*
X132800000Y-90050000D02*
X133290000Y-89560000D01*
X125477500Y-84557500D02*
X125005705Y-84557500D01*
D23*
X154355000Y-82145000D02*
X154355000Y-82855000D01*
D25*
X118850000Y-86540000D02*
X118850000Y-87470000D01*
X133290000Y-89560000D02*
X135460000Y-89560000D01*
X134990000Y-86130000D02*
X134540000Y-86130000D01*
D23*
X152436439Y-85625000D02*
X153050000Y-85625000D01*
X154400000Y-84600000D02*
X155000000Y-85200000D01*
D24*
X134825000Y-87925000D02*
X133605000Y-87925000D01*
D23*
X162625000Y-86050000D02*
X162600000Y-86075000D01*
D24*
X126067500Y-84557500D02*
X125837500Y-84557500D01*
D25*
X119689511Y-85700489D02*
X119270000Y-86120000D01*
D23*
X155000000Y-85200000D02*
X153800000Y-85200000D01*
X162400000Y-84600000D02*
X162400000Y-85825000D01*
D25*
X136707500Y-85360000D02*
X140460000Y-85360000D01*
D22*
X162287500Y-86487500D02*
X162287500Y-86537500D01*
D24*
X118690000Y-86540000D02*
X118500000Y-86350000D01*
X129270000Y-85323000D02*
X129270000Y-85160000D01*
D23*
X162400000Y-85825000D02*
X162625000Y-86050000D01*
X153425000Y-86000000D02*
X153050000Y-85625000D01*
D25*
X123728694Y-85700489D02*
X119689511Y-85700489D01*
X131860000Y-85690000D02*
X131860000Y-85790000D01*
D24*
X129550000Y-85375000D02*
X129335000Y-85160000D01*
D25*
X133170000Y-87480000D02*
X133040000Y-87610000D01*
D22*
X146555000Y-85325000D02*
X146555000Y-83355000D01*
D25*
X145250000Y-84630000D02*
X145570000Y-84630000D01*
X132000000Y-85550000D02*
X131860000Y-85690000D01*
D22*
X137985000Y-83110000D02*
X138750000Y-83875000D01*
D25*
X140460000Y-85360000D02*
X141540000Y-85360000D01*
%TO.N,+3V3*%
X135660000Y-83880000D02*
X135700000Y-83840000D01*
D24*
X136420000Y-88560000D02*
X136920000Y-88560000D01*
D23*
X133720000Y-84392500D02*
X133400000Y-84072500D01*
D24*
X136420000Y-89560000D02*
X135450000Y-90530000D01*
D23*
X120120000Y-87470000D02*
X120120000Y-86855000D01*
D25*
X135320000Y-84140000D02*
X135260000Y-84200000D01*
D24*
X136920000Y-88560000D02*
X137150000Y-88790000D01*
X136420000Y-87480000D02*
X136950000Y-87225000D01*
D23*
X145200000Y-82750000D02*
X145850000Y-83400000D01*
D22*
X120562924Y-86402547D02*
X120575000Y-86400000D01*
D25*
X136147500Y-83840000D02*
X136700000Y-84392500D01*
X135252500Y-83840000D02*
X134771250Y-84321250D01*
X135700000Y-83840000D02*
X136147500Y-83840000D01*
X135505000Y-83955000D02*
X135320000Y-84140000D01*
X135660000Y-83880000D02*
X135580000Y-83880000D01*
X135660000Y-83840000D02*
X135252500Y-83840000D01*
X139320000Y-86620000D02*
X138830000Y-86130000D01*
X135580000Y-83880000D02*
X135505000Y-83955000D01*
X135700000Y-84392500D02*
X136700000Y-84392500D01*
D23*
X136700000Y-84392500D02*
X135942500Y-84392500D01*
D24*
X136698000Y-86130000D02*
X138830000Y-86130000D01*
D25*
X136440000Y-84132500D02*
X136700000Y-84392500D01*
X135452500Y-84392500D02*
X135700000Y-84392500D01*
D23*
X136030000Y-84250000D02*
X135660000Y-83880000D01*
D25*
X135260000Y-84200000D02*
X135452500Y-84392500D01*
D23*
X136700000Y-84392500D02*
X136700000Y-84100000D01*
D24*
X136420000Y-89560000D02*
X136420000Y-88560000D01*
X138730111Y-86030111D02*
X138830000Y-86130000D01*
D25*
X139310000Y-86630000D02*
X139320000Y-86620000D01*
X136147500Y-83840000D02*
X136147500Y-84132500D01*
D23*
X134700000Y-84392500D02*
X133720000Y-84392500D01*
X144850000Y-82750000D02*
X145200000Y-82750000D01*
D24*
X136420000Y-88560000D02*
X136420000Y-87480000D01*
D25*
X135660000Y-83840000D02*
X136147500Y-83840000D01*
X134771250Y-84321250D02*
X134700000Y-84392500D01*
X135660000Y-83840000D02*
X135660000Y-83880000D01*
D23*
X120120000Y-86855000D02*
X120562924Y-86402547D01*
D25*
X136147500Y-84132500D02*
X136030000Y-84250000D01*
D24*
X135450000Y-90530000D02*
X133410000Y-90530000D01*
D23*
X136700000Y-84392500D02*
X136172500Y-84392500D01*
D24*
X136600000Y-86032000D02*
X136698000Y-86130000D01*
D25*
X136147500Y-84132500D02*
X136440000Y-84132500D01*
D23*
X136172500Y-84392500D02*
X136030000Y-84250000D01*
D24*
X136950000Y-87225000D02*
X137010000Y-86890000D01*
D23*
X135942500Y-84392500D02*
X135505000Y-83955000D01*
D25*
X140940000Y-90240000D02*
X140100000Y-90240000D01*
D24*
%TO.N,+1V1*%
X135330000Y-86750000D02*
X134810000Y-87270000D01*
X126840000Y-87010000D02*
X126010000Y-87010000D01*
X132450000Y-86760000D02*
X132450000Y-86590000D01*
X132000000Y-87210000D02*
X132450000Y-86760000D01*
X136400000Y-86750000D02*
X135330000Y-86750000D01*
X126010000Y-87010000D02*
X125750000Y-87270000D01*
X134130000Y-86590000D02*
X134810000Y-87270000D01*
X132450000Y-86590000D02*
X134130000Y-86590000D01*
D22*
%TO.N,Net-(D1-Pad1)*%
X137950000Y-82090000D02*
X138015000Y-82090000D01*
X138015000Y-82090000D02*
X138625000Y-82700000D01*
D24*
%TO.N,/SWDIO*%
X121390000Y-87470000D02*
X121390000Y-87740000D01*
D22*
X126748072Y-88130690D02*
X126498154Y-87880772D01*
D24*
X126559040Y-87941658D02*
X126498154Y-87880772D01*
D22*
X129302369Y-88130690D02*
X126748072Y-88130690D01*
D24*
X121390000Y-87740000D02*
X121950000Y-88300000D01*
X126559040Y-88090960D02*
X126559040Y-87941658D01*
X121200000Y-87660000D02*
X121390000Y-87470000D01*
%TO.N,/SWDCLK*%
X129410000Y-87420000D02*
X128240000Y-87420000D01*
X123670000Y-86460000D02*
X122660000Y-87470000D01*
X127280000Y-86460000D02*
X123670000Y-86460000D01*
X128240000Y-87420000D02*
X127280000Y-86460000D01*
D22*
%TO.N,/USB_BOOT*%
X150175000Y-84200000D02*
X150175000Y-85325000D01*
X143550000Y-84350000D02*
X145450000Y-86250000D01*
X150175000Y-85325000D02*
X150875000Y-86025000D01*
X152250479Y-83599521D02*
X150775479Y-83599521D01*
X147825000Y-85475000D02*
X147825000Y-85325000D01*
X145450000Y-86250000D02*
X147600000Y-86250000D01*
X147600000Y-86250000D02*
X147825000Y-86025000D01*
X149550000Y-87200000D02*
X147825000Y-85475000D01*
X147825000Y-86025000D02*
X147825000Y-85325000D01*
X152975000Y-82875000D02*
X152250479Y-83599521D01*
X150875000Y-86025000D02*
X149700000Y-87200000D01*
X150775479Y-83599521D02*
X150175000Y-84200000D01*
X149700000Y-87200000D02*
X149550000Y-87200000D01*
D24*
%TO.N,/RP_RUN*%
X124130000Y-87440000D02*
X124595000Y-87905000D01*
X130000000Y-88375000D02*
X129744799Y-88630201D01*
X126000000Y-88125000D02*
X124815000Y-88125000D01*
X129744799Y-88630201D02*
X126505201Y-88630201D01*
X126505201Y-88630201D02*
X126000000Y-88125000D01*
X124815000Y-88125000D02*
X124595000Y-87905000D01*
X131730019Y-88072483D02*
X131830000Y-87972502D01*
D22*
%TO.N,/MIC_CLK*%
X120649031Y-85275969D02*
X119374031Y-85275969D01*
X118225000Y-85900000D02*
X117978939Y-85900000D01*
D24*
X122000000Y-82500000D02*
X121535000Y-82965000D01*
D22*
X120850000Y-85075000D02*
X120649031Y-85275969D01*
D24*
X129330000Y-82500000D02*
X122000000Y-82500000D01*
D22*
X117978939Y-85900000D02*
X116775000Y-87103939D01*
X118625000Y-85500000D02*
X118225000Y-85900000D01*
X119374031Y-85275969D02*
X119150000Y-85500000D01*
D24*
X129590000Y-82760000D02*
X129330000Y-82500000D01*
X130650000Y-82760000D02*
X129590000Y-82760000D01*
D22*
X119150000Y-85500000D02*
X118625000Y-85500000D01*
X116775000Y-87103939D02*
X116775000Y-88775000D01*
D24*
%TO.N,/MIC_DOUT_1*%
X128925000Y-82109520D02*
X121715480Y-82109520D01*
X120400000Y-83393584D02*
X120400000Y-84275000D01*
X129450000Y-82125000D02*
X129434520Y-82109520D01*
X119975000Y-84700000D02*
X119700000Y-84700000D01*
X129434520Y-82109520D02*
X128925000Y-82109520D01*
X129584500Y-82259500D02*
X129450000Y-82125000D01*
X120400000Y-84275000D02*
X119975000Y-84700000D01*
X131419263Y-82259500D02*
X129584500Y-82259500D01*
X121715480Y-82109520D02*
X121684064Y-82109520D01*
X121684064Y-82109520D02*
X120400000Y-83393584D01*
%TO.N,/MIC_DOUT_2*%
X133525000Y-88950000D02*
X132425000Y-88950000D01*
X126916266Y-89424021D02*
X120500979Y-89424021D01*
X120274021Y-89424021D02*
X120150000Y-89300000D01*
X132425000Y-88950000D02*
X131900000Y-89475000D01*
X131900000Y-89475000D02*
X126967245Y-89475000D01*
X120500979Y-89424021D02*
X120274021Y-89424021D01*
X126967245Y-89475000D02*
X126916266Y-89424021D01*
D22*
%TO.N,/MIC_DOUT_3*%
X117875000Y-86675000D02*
X117875000Y-88075000D01*
D24*
X123229720Y-88979720D02*
X123040000Y-88790000D01*
X134377002Y-88422002D02*
X134540000Y-88585000D01*
X134227998Y-88422002D02*
X132202998Y-88422002D01*
X134540000Y-88422002D02*
X134227998Y-88422002D01*
D22*
X118590000Y-88790000D02*
X123040000Y-88790000D01*
D24*
X134227998Y-88422002D02*
X134377002Y-88422002D01*
X132202998Y-88422002D02*
X131645279Y-88979721D01*
X129600022Y-88979720D02*
X123229720Y-88979720D01*
X131645279Y-88979721D02*
X129600022Y-88979720D01*
D22*
X117875000Y-88075000D02*
X118590000Y-88790000D01*
D25*
%TO.N,+BATT*%
X162325000Y-88575000D02*
X162600000Y-88850000D01*
X151420000Y-87330000D02*
X152955000Y-87330000D01*
X152955000Y-87330000D02*
X152530000Y-87330000D01*
X151425000Y-86225000D02*
X151425000Y-87325000D01*
X152530000Y-87330000D02*
X151425000Y-86225000D01*
X151425000Y-87325000D02*
X151420000Y-87330000D01*
X154200000Y-88575000D02*
X162325000Y-88575000D01*
X152955000Y-87330000D02*
X154200000Y-88575000D01*
D23*
%TO.N,+VDC*%
X146400000Y-89200000D02*
X146350000Y-89250000D01*
X156475000Y-90500000D02*
X148550000Y-90500000D01*
X147150000Y-89100000D02*
X146500000Y-89100000D01*
X148550000Y-90500000D02*
X147175000Y-89125000D01*
X157790000Y-90510000D02*
X156810000Y-90510000D01*
X156810000Y-90510000D02*
X156800000Y-90500000D01*
X156800000Y-90500000D02*
X156475000Y-90500000D01*
X147175000Y-89125000D02*
X147150000Y-89100000D01*
X146500000Y-89100000D02*
X146400000Y-89200000D01*
D22*
%TO.N,Net-(D2-Pad2)*%
X152345000Y-88562500D02*
X151920000Y-88137500D01*
X150983000Y-88137500D02*
X151920000Y-88137500D01*
X150820500Y-87975000D02*
X150983000Y-88137500D01*
%TD*%
M02*
