M48
; DRILL file {KiCad 6.0.5-a6ca702e91~116~ubuntu22.04.1} date Fri 01 Jul 2022 09:19:14 PM
; FORMAT={-:-/ absolute / metric / decimal}
; #@! TF.CreationDate,2022-07-01T21:19:14-07:00
; #@! TF.GenerationSoftware,Kicad,Pcbnew,6.0.5-a6ca702e91~116~ubuntu22.04.1
; #@! TF.FileFunction,Plated,1,2,PTH
FMAT,2
METRIC
; #@! TA.AperFunction,Plated,PTH,ViaDrill
T1C0.200
; #@! TA.AperFunction,Plated,PTH,ViaDrill
T2C0.300
; #@! TA.AperFunction,Plated,PTH,ComponentDrill
T3C0.600
; #@! TA.AperFunction,Plated,PTH,ComponentDrill
T4C0.850
%
G90
G05
T1
X116.3Y-88.85
X117.02Y-88.868
X118.995Y-86.395
X119.975Y-84.7
X120.4Y-88.8
X120.6Y-86.65
X120.85Y-85.075
X121.535Y-82.965
X121.95Y-88.3
X125.477Y-84.557
X125.78Y-90.0
X126.345Y-84.59
X126.498Y-87.881
X126.84Y-87.01
X127.922Y-84.748
X129.225Y-90.0
X129.302Y-88.131
X129.41Y-87.42
X129.55Y-85.375
X130.0Y-88.375
X130.65Y-82.76
X131.419Y-82.26
X131.83Y-87.973
X131.86Y-85.79
X132.0Y-87.21
X132.54Y-84.53
X133.03Y-87.13
X133.4Y-84.072
X133.51Y-87.83
X133.525Y-88.95
X134.53Y-86.12
X134.54Y-88.585
X135.405Y-84.055
X135.43Y-86.13
X136.4Y-86.75
X136.6Y-86.032
X136.7Y-84.1
X136.95Y-87.225
X137.15Y-88.79
X138.625Y-82.7
X139.32Y-86.62
X143.55Y-84.35
X143.95Y-89.65
X144.5Y-86.6
X145.009Y-87.241
X145.57Y-84.63
X145.85Y-83.4
X146.4Y-89.2
X146.6Y-83.6
X146.65Y-82.7
X147.175Y-89.125
X147.35Y-82.7
X149.162Y-87.587
X149.866Y-83.584
X150.82Y-87.975
X152.345Y-88.562
X153.05Y-85.625
X153.65Y-85.05
X154.25Y-86.85
X154.355Y-82.145
X154.4Y-82.9
X155.0Y-85.2
X155.0Y-86.0
X156.475Y-90.5
X157.34Y-90.51
X160.625Y-86.625
X162.287Y-86.487
X162.4Y-84.6
T2
X140.1Y-90.24
X140.94Y-90.24
X141.13Y-82.94
X149.6Y-86.425
X151.42Y-87.33
X151.425Y-86.225
T4
X156.4Y-85.6
X161.4Y-85.6
T3
X155.4Y-83.25G85X155.4Y-82.55
G05
X162.4Y-82.55G85X162.4Y-83.25
G05
T0
M30
