%TF.GenerationSoftware,KiCad,Pcbnew,6.0.5-a6ca702e91~116~ubuntu22.04.1*%
%TF.CreationDate,2022-07-01T21:19:12-07:00*%
%TF.ProjectId,msa,6d73612e-6b69-4636-9164-5f7063625858,rev?*%
%TF.SameCoordinates,Original*%
%TF.FileFunction,Legend,Top*%
%TF.FilePolarity,Positive*%
%FSLAX46Y46*%
G04 Gerber Fmt 4.6, Leading zero omitted, Abs format (unit mm)*
G04 Created by KiCad (PCBNEW 6.0.5-a6ca702e91~116~ubuntu22.04.1) date 2022-07-01 21:19:12*
%MOMM*%
%LPD*%
G01*
G04 APERTURE LIST*
G04 Aperture macros list*
%AMRoundRect*
0 Rectangle with rounded corners*
0 $1 Rounding radius*
0 $2 $3 $4 $5 $6 $7 $8 $9 X,Y pos of 4 corners*
0 Add a 4 corners polygon primitive as box body*
4,1,4,$2,$3,$4,$5,$6,$7,$8,$9,$2,$3,0*
0 Add four circle primitives for the rounded corners*
1,1,$1+$1,$2,$3*
1,1,$1+$1,$4,$5*
1,1,$1+$1,$6,$7*
1,1,$1+$1,$8,$9*
0 Add four rect primitives between the rounded corners*
20,1,$1+$1,$2,$3,$4,$5,0*
20,1,$1+$1,$4,$5,$6,$7,0*
20,1,$1+$1,$6,$7,$8,$9,0*
20,1,$1+$1,$8,$9,$2,$3,0*%
G04 Aperture macros list end*
%ADD10C,0.037500*%
%ADD11C,0.070000*%
%ADD12C,0.080000*%
%ADD13C,0.150000*%
%ADD14C,0.120000*%
%ADD15C,0.100000*%
%ADD16C,0.127000*%
%ADD17C,0.200000*%
%ADD18RoundRect,0.135000X-0.135000X-0.185000X0.135000X-0.185000X0.135000X0.185000X-0.135000X0.185000X0*%
%ADD19RoundRect,0.147500X-0.172500X0.147500X-0.172500X-0.147500X0.172500X-0.147500X0.172500X0.147500X0*%
%ADD20R,1.600000X1.300000*%
%ADD21RoundRect,0.140000X0.170000X-0.140000X0.170000X0.140000X-0.170000X0.140000X-0.170000X-0.140000X0*%
%ADD22RoundRect,0.135000X0.135000X0.185000X-0.135000X0.185000X-0.135000X-0.185000X0.135000X-0.185000X0*%
%ADD23R,0.250000X0.730000*%
%ADD24R,0.240000X0.470000*%
%ADD25R,0.700000X0.600000*%
%ADD26R,0.510000X0.400000*%
%ADD27R,0.500000X0.500000*%
%ADD28R,0.400000X1.350000*%
%ADD29R,1.200000X1.900000*%
%ADD30O,1.200000X1.900000*%
%ADD31C,1.450000*%
%ADD32R,1.500000X1.900000*%
%ADD33RoundRect,0.155000X0.155000X-0.212500X0.155000X0.212500X-0.155000X0.212500X-0.155000X-0.212500X0*%
%ADD34RoundRect,0.155000X-0.212500X-0.155000X0.212500X-0.155000X0.212500X0.155000X-0.212500X0.155000X0*%
%ADD35RoundRect,0.140000X-0.170000X0.140000X-0.170000X-0.140000X0.170000X-0.140000X0.170000X0.140000X0*%
%ADD36RoundRect,0.155000X-0.155000X0.212500X-0.155000X-0.212500X0.155000X-0.212500X0.155000X0.212500X0*%
%ADD37RoundRect,0.135000X-0.185000X0.135000X-0.185000X-0.135000X0.185000X-0.135000X0.185000X0.135000X0*%
%ADD38RoundRect,0.150000X-0.587500X-0.150000X0.587500X-0.150000X0.587500X0.150000X-0.587500X0.150000X0*%
%ADD39C,0.700000*%
%ADD40RoundRect,0.135000X0.185000X-0.135000X0.185000X0.135000X-0.185000X0.135000X-0.185000X-0.135000X0*%
%ADD41RoundRect,0.140000X0.140000X0.170000X-0.140000X0.170000X-0.140000X-0.170000X0.140000X-0.170000X0*%
%ADD42RoundRect,0.140000X-0.140000X-0.170000X0.140000X-0.170000X0.140000X0.170000X-0.140000X0.170000X0*%
%ADD43RoundRect,0.147500X0.172500X-0.147500X0.172500X0.147500X-0.172500X0.147500X-0.172500X-0.147500X0*%
%ADD44RoundRect,0.150000X0.150000X-0.512500X0.150000X0.512500X-0.150000X0.512500X-0.150000X-0.512500X0*%
%ADD45R,0.300000X0.500000*%
%ADD46R,1.600000X0.200000*%
%ADD47RoundRect,0.006000X-0.094000X0.414000X-0.094000X-0.414000X0.094000X-0.414000X0.094000X0.414000X0*%
%ADD48RoundRect,0.020000X-0.400000X0.080000X-0.400000X-0.080000X0.400000X-0.080000X0.400000X0.080000X0*%
%ADD49R,3.200000X3.200000*%
%ADD50C,1.000000*%
%ADD51C,0.800000*%
G04 APERTURE END LIST*
D10*
X119339285Y-87285714D02*
X119353571Y-87292857D01*
X119382142Y-87292857D01*
X119396428Y-87285714D01*
X119403571Y-87271428D01*
X119403571Y-87264285D01*
X119396428Y-87250000D01*
X119382142Y-87242857D01*
X119360714Y-87242857D01*
X119346428Y-87235714D01*
X119339285Y-87221428D01*
X119339285Y-87214285D01*
X119346428Y-87200000D01*
X119360714Y-87192857D01*
X119382142Y-87192857D01*
X119396428Y-87200000D01*
X119460714Y-87285714D02*
X119475000Y-87292857D01*
X119503571Y-87292857D01*
X119517857Y-87285714D01*
X119525000Y-87271428D01*
X119525000Y-87264285D01*
X119517857Y-87250000D01*
X119503571Y-87242857D01*
X119482142Y-87242857D01*
X119467857Y-87235714D01*
X119460714Y-87221428D01*
X119460714Y-87214285D01*
X119467857Y-87200000D01*
X119482142Y-87192857D01*
X119503571Y-87192857D01*
X119517857Y-87200000D01*
X119667857Y-87292857D02*
X119582142Y-87292857D01*
X119625000Y-87292857D02*
X119625000Y-87142857D01*
X119610714Y-87164285D01*
X119596428Y-87178571D01*
X119582142Y-87185714D01*
X119725000Y-87157142D02*
X119732142Y-87150000D01*
X119746428Y-87142857D01*
X119782142Y-87142857D01*
X119796428Y-87150000D01*
X119803571Y-87157142D01*
X119810714Y-87171428D01*
X119810714Y-87185714D01*
X119803571Y-87207142D01*
X119717857Y-87292857D01*
X119810714Y-87292857D01*
X117135714Y-90560714D02*
X117150000Y-90567857D01*
X117178571Y-90567857D01*
X117192857Y-90560714D01*
X117200000Y-90546428D01*
X117200000Y-90539285D01*
X117192857Y-90525000D01*
X117178571Y-90517857D01*
X117157142Y-90517857D01*
X117142857Y-90510714D01*
X117135714Y-90496428D01*
X117135714Y-90489285D01*
X117142857Y-90475000D01*
X117157142Y-90467857D01*
X117178571Y-90467857D01*
X117192857Y-90475000D01*
X117257142Y-90560714D02*
X117271428Y-90567857D01*
X117300000Y-90567857D01*
X117314285Y-90560714D01*
X117321428Y-90546428D01*
X117321428Y-90539285D01*
X117314285Y-90525000D01*
X117300000Y-90517857D01*
X117278571Y-90517857D01*
X117264285Y-90510714D01*
X117257142Y-90496428D01*
X117257142Y-90489285D01*
X117264285Y-90475000D01*
X117278571Y-90467857D01*
X117300000Y-90467857D01*
X117314285Y-90475000D01*
X117464285Y-90567857D02*
X117378571Y-90567857D01*
X117421428Y-90567857D02*
X117421428Y-90417857D01*
X117407142Y-90439285D01*
X117392857Y-90453571D01*
X117378571Y-90460714D01*
X119435714Y-90535714D02*
X119450000Y-90542857D01*
X119478571Y-90542857D01*
X119492857Y-90535714D01*
X119500000Y-90521428D01*
X119500000Y-90514285D01*
X119492857Y-90500000D01*
X119478571Y-90492857D01*
X119457142Y-90492857D01*
X119442857Y-90485714D01*
X119435714Y-90471428D01*
X119435714Y-90464285D01*
X119442857Y-90450000D01*
X119457142Y-90442857D01*
X119478571Y-90442857D01*
X119492857Y-90450000D01*
X119557142Y-90535714D02*
X119571428Y-90542857D01*
X119600000Y-90542857D01*
X119614285Y-90535714D01*
X119621428Y-90521428D01*
X119621428Y-90514285D01*
X119614285Y-90500000D01*
X119600000Y-90492857D01*
X119578571Y-90492857D01*
X119564285Y-90485714D01*
X119557142Y-90471428D01*
X119557142Y-90464285D01*
X119564285Y-90450000D01*
X119578571Y-90442857D01*
X119600000Y-90442857D01*
X119614285Y-90450000D01*
X119750000Y-90392857D02*
X119721428Y-90392857D01*
X119707142Y-90400000D01*
X119700000Y-90407142D01*
X119685714Y-90428571D01*
X119678571Y-90457142D01*
X119678571Y-90514285D01*
X119685714Y-90528571D01*
X119692857Y-90535714D01*
X119707142Y-90542857D01*
X119735714Y-90542857D01*
X119750000Y-90535714D01*
X119757142Y-90528571D01*
X119764285Y-90514285D01*
X119764285Y-90478571D01*
X119757142Y-90464285D01*
X119750000Y-90457142D01*
X119735714Y-90450000D01*
X119707142Y-90450000D01*
X119692857Y-90457142D01*
X119685714Y-90464285D01*
X119678571Y-90478571D01*
X117110714Y-87310714D02*
X117125000Y-87317857D01*
X117153571Y-87317857D01*
X117167857Y-87310714D01*
X117175000Y-87296428D01*
X117175000Y-87289285D01*
X117167857Y-87275000D01*
X117153571Y-87267857D01*
X117132142Y-87267857D01*
X117117857Y-87260714D01*
X117110714Y-87246428D01*
X117110714Y-87239285D01*
X117117857Y-87225000D01*
X117132142Y-87217857D01*
X117153571Y-87217857D01*
X117167857Y-87225000D01*
X117232142Y-87310714D02*
X117246428Y-87317857D01*
X117275000Y-87317857D01*
X117289285Y-87310714D01*
X117296428Y-87296428D01*
X117296428Y-87289285D01*
X117289285Y-87275000D01*
X117275000Y-87267857D01*
X117253571Y-87267857D01*
X117239285Y-87260714D01*
X117232142Y-87246428D01*
X117232142Y-87239285D01*
X117239285Y-87225000D01*
X117253571Y-87217857D01*
X117275000Y-87217857D01*
X117289285Y-87225000D01*
X117346428Y-87167857D02*
X117446428Y-87167857D01*
X117382142Y-87317857D01*
D11*
X139760714Y-82021428D02*
X139989285Y-82021428D01*
X139875000Y-82135714D02*
X139875000Y-81907142D01*
X149729589Y-87619365D02*
X149958160Y-87619365D01*
X149843875Y-87733651D02*
X149843875Y-87505079D01*
D12*
%TO.C,R5*%
X142430952Y-88366666D02*
X142240476Y-88500000D01*
X142430952Y-88595238D02*
X142030952Y-88595238D01*
X142030952Y-88442857D01*
X142050000Y-88404761D01*
X142069047Y-88385714D01*
X142107142Y-88366666D01*
X142164285Y-88366666D01*
X142202380Y-88385714D01*
X142221428Y-88404761D01*
X142240476Y-88442857D01*
X142240476Y-88595238D01*
X142030952Y-88004761D02*
X142030952Y-88195238D01*
X142221428Y-88214285D01*
X142202380Y-88195238D01*
X142183333Y-88157142D01*
X142183333Y-88061904D01*
X142202380Y-88023809D01*
X142221428Y-88004761D01*
X142259523Y-87985714D01*
X142354761Y-87985714D01*
X142392857Y-88004761D01*
X142411904Y-88023809D01*
X142430952Y-88061904D01*
X142430952Y-88157142D01*
X142411904Y-88195238D01*
X142392857Y-88214285D01*
%TO.C,D2*%
X149930952Y-87395238D02*
X149530952Y-87395238D01*
X149530952Y-87300000D01*
X149550000Y-87242857D01*
X149588095Y-87204761D01*
X149626190Y-87185714D01*
X149702380Y-87166666D01*
X149759523Y-87166666D01*
X149835714Y-87185714D01*
X149873809Y-87204761D01*
X149911904Y-87242857D01*
X149930952Y-87300000D01*
X149930952Y-87395238D01*
X149569047Y-87014285D02*
X149550000Y-86995238D01*
X149530952Y-86957142D01*
X149530952Y-86861904D01*
X149550000Y-86823809D01*
X149569047Y-86804761D01*
X149607142Y-86785714D01*
X149645238Y-86785714D01*
X149702380Y-86804761D01*
X149930952Y-87033333D01*
X149930952Y-86785714D01*
%TO.C,Y1*%
X124434523Y-85815476D02*
X124434523Y-86005952D01*
X124301190Y-85605952D02*
X124434523Y-85815476D01*
X124567857Y-85605952D01*
X124910714Y-86005952D02*
X124682142Y-86005952D01*
X124796428Y-86005952D02*
X124796428Y-85605952D01*
X124758333Y-85663095D01*
X124720238Y-85701190D01*
X124682142Y-85720238D01*
%TO.C,C16*%
X126472857Y-89377142D02*
X126491904Y-89396190D01*
X126510952Y-89453333D01*
X126510952Y-89491428D01*
X126491904Y-89548571D01*
X126453809Y-89586666D01*
X126415714Y-89605714D01*
X126339523Y-89624761D01*
X126282380Y-89624761D01*
X126206190Y-89605714D01*
X126168095Y-89586666D01*
X126130000Y-89548571D01*
X126110952Y-89491428D01*
X126110952Y-89453333D01*
X126130000Y-89396190D01*
X126149047Y-89377142D01*
X126510952Y-88996190D02*
X126510952Y-89224761D01*
X126510952Y-89110476D02*
X126110952Y-89110476D01*
X126168095Y-89148571D01*
X126206190Y-89186666D01*
X126225238Y-89224761D01*
X126110952Y-88653333D02*
X126110952Y-88729523D01*
X126130000Y-88767619D01*
X126149047Y-88786666D01*
X126206190Y-88824761D01*
X126282380Y-88843809D01*
X126434761Y-88843809D01*
X126472857Y-88824761D01*
X126491904Y-88805714D01*
X126510952Y-88767619D01*
X126510952Y-88691428D01*
X126491904Y-88653333D01*
X126472857Y-88634285D01*
X126434761Y-88615238D01*
X126339523Y-88615238D01*
X126301428Y-88634285D01*
X126282380Y-88653333D01*
X126263333Y-88691428D01*
X126263333Y-88767619D01*
X126282380Y-88805714D01*
X126301428Y-88824761D01*
X126339523Y-88843809D01*
%TO.C,R4*%
X139578333Y-87415952D02*
X139445000Y-87225476D01*
X139349761Y-87415952D02*
X139349761Y-87015952D01*
X139502142Y-87015952D01*
X139540238Y-87035000D01*
X139559285Y-87054047D01*
X139578333Y-87092142D01*
X139578333Y-87149285D01*
X139559285Y-87187380D01*
X139540238Y-87206428D01*
X139502142Y-87225476D01*
X139349761Y-87225476D01*
X139921190Y-87149285D02*
X139921190Y-87415952D01*
X139825952Y-86996904D02*
X139730714Y-87282619D01*
X139978333Y-87282619D01*
%TO.C,R10*%
X147480952Y-89232142D02*
X147290476Y-89365476D01*
X147480952Y-89460714D02*
X147080952Y-89460714D01*
X147080952Y-89308333D01*
X147100000Y-89270238D01*
X147119047Y-89251190D01*
X147157142Y-89232142D01*
X147214285Y-89232142D01*
X147252380Y-89251190D01*
X147271428Y-89270238D01*
X147290476Y-89308333D01*
X147290476Y-89460714D01*
X147480952Y-88851190D02*
X147480952Y-89079761D01*
X147480952Y-88965476D02*
X147080952Y-88965476D01*
X147138095Y-89003571D01*
X147176190Y-89041666D01*
X147195238Y-89079761D01*
X147080952Y-88603571D02*
X147080952Y-88565476D01*
X147100000Y-88527380D01*
X147119047Y-88508333D01*
X147157142Y-88489285D01*
X147233333Y-88470238D01*
X147328571Y-88470238D01*
X147404761Y-88489285D01*
X147442857Y-88508333D01*
X147461904Y-88527380D01*
X147480952Y-88565476D01*
X147480952Y-88603571D01*
X147461904Y-88641666D01*
X147442857Y-88660714D01*
X147404761Y-88679761D01*
X147328571Y-88698809D01*
X147233333Y-88698809D01*
X147157142Y-88679761D01*
X147119047Y-88660714D01*
X147100000Y-88641666D01*
X147080952Y-88603571D01*
D13*
%TO.C,CONN1*%
X120138095Y-88442857D02*
X120185714Y-88395238D01*
X120328571Y-88347619D01*
X120423809Y-88347619D01*
X120566666Y-88395238D01*
X120661904Y-88490476D01*
X120709523Y-88585714D01*
X120757142Y-88776190D01*
X120757142Y-88919047D01*
X120709523Y-89109523D01*
X120661904Y-89204761D01*
X120566666Y-89300000D01*
X120423809Y-89347619D01*
X120328571Y-89347619D01*
X120185714Y-89300000D01*
X120138095Y-89252380D01*
X119519047Y-89347619D02*
X119328571Y-89347619D01*
X119233333Y-89300000D01*
X119138095Y-89204761D01*
X119090476Y-89014285D01*
X119090476Y-88680952D01*
X119138095Y-88490476D01*
X119233333Y-88395238D01*
X119328571Y-88347619D01*
X119519047Y-88347619D01*
X119614285Y-88395238D01*
X119709523Y-88490476D01*
X119757142Y-88680952D01*
X119757142Y-89014285D01*
X119709523Y-89204761D01*
X119614285Y-89300000D01*
X119519047Y-89347619D01*
X118661904Y-88347619D02*
X118661904Y-89347619D01*
X118090476Y-88347619D01*
X118090476Y-89347619D01*
X117614285Y-88347619D02*
X117614285Y-89347619D01*
X117042857Y-88347619D01*
X117042857Y-89347619D01*
X116042857Y-88347619D02*
X116614285Y-88347619D01*
X116328571Y-88347619D02*
X116328571Y-89347619D01*
X116423809Y-89204761D01*
X116519047Y-89109523D01*
X116614285Y-89061904D01*
D12*
%TO.C,C5*%
X156175833Y-89152857D02*
X156156785Y-89171904D01*
X156099642Y-89190952D01*
X156061547Y-89190952D01*
X156004404Y-89171904D01*
X155966309Y-89133809D01*
X155947261Y-89095714D01*
X155928214Y-89019523D01*
X155928214Y-88962380D01*
X155947261Y-88886190D01*
X155966309Y-88848095D01*
X156004404Y-88810000D01*
X156061547Y-88790952D01*
X156099642Y-88790952D01*
X156156785Y-88810000D01*
X156175833Y-88829047D01*
X156537738Y-88790952D02*
X156347261Y-88790952D01*
X156328214Y-88981428D01*
X156347261Y-88962380D01*
X156385357Y-88943333D01*
X156480595Y-88943333D01*
X156518690Y-88962380D01*
X156537738Y-88981428D01*
X156556785Y-89019523D01*
X156556785Y-89114761D01*
X156537738Y-89152857D01*
X156518690Y-89171904D01*
X156480595Y-89190952D01*
X156385357Y-89190952D01*
X156347261Y-89171904D01*
X156328214Y-89152857D01*
%TO.C,U5*%
X146255952Y-88054761D02*
X146579761Y-88054761D01*
X146617857Y-88035714D01*
X146636904Y-88016666D01*
X146655952Y-87978571D01*
X146655952Y-87902380D01*
X146636904Y-87864285D01*
X146617857Y-87845238D01*
X146579761Y-87826190D01*
X146255952Y-87826190D01*
X146255952Y-87445238D02*
X146255952Y-87635714D01*
X146446428Y-87654761D01*
X146427380Y-87635714D01*
X146408333Y-87597619D01*
X146408333Y-87502380D01*
X146427380Y-87464285D01*
X146446428Y-87445238D01*
X146484523Y-87426190D01*
X146579761Y-87426190D01*
X146617857Y-87445238D01*
X146636904Y-87464285D01*
X146655952Y-87502380D01*
X146655952Y-87597619D01*
X146636904Y-87635714D01*
X146617857Y-87654761D01*
%TO.C,D3*%
X146255952Y-82920238D02*
X145855952Y-82920238D01*
X145855952Y-82825000D01*
X145875000Y-82767857D01*
X145913095Y-82729761D01*
X145951190Y-82710714D01*
X146027380Y-82691666D01*
X146084523Y-82691666D01*
X146160714Y-82710714D01*
X146198809Y-82729761D01*
X146236904Y-82767857D01*
X146255952Y-82825000D01*
X146255952Y-82920238D01*
X145855952Y-82558333D02*
X145855952Y-82310714D01*
X146008333Y-82444047D01*
X146008333Y-82386904D01*
X146027380Y-82348809D01*
X146046428Y-82329761D01*
X146084523Y-82310714D01*
X146179761Y-82310714D01*
X146217857Y-82329761D01*
X146236904Y-82348809D01*
X146255952Y-82386904D01*
X146255952Y-82501190D01*
X146236904Y-82539285D01*
X146217857Y-82558333D01*
%TO.C,J1*%
X158885833Y-87889047D02*
X158885833Y-87603333D01*
X158904880Y-87546190D01*
X158942976Y-87508095D01*
X159000119Y-87489047D01*
X159038214Y-87489047D01*
X158485833Y-87489047D02*
X158714404Y-87489047D01*
X158600119Y-87489047D02*
X158600119Y-87889047D01*
X158638214Y-87831904D01*
X158676309Y-87793809D01*
X158714404Y-87774761D01*
%TO.C,C3*%
X153383333Y-84267857D02*
X153364285Y-84286904D01*
X153307142Y-84305952D01*
X153269047Y-84305952D01*
X153211904Y-84286904D01*
X153173809Y-84248809D01*
X153154761Y-84210714D01*
X153135714Y-84134523D01*
X153135714Y-84077380D01*
X153154761Y-84001190D01*
X153173809Y-83963095D01*
X153211904Y-83925000D01*
X153269047Y-83905952D01*
X153307142Y-83905952D01*
X153364285Y-83925000D01*
X153383333Y-83944047D01*
X153516666Y-83905952D02*
X153764285Y-83905952D01*
X153630952Y-84058333D01*
X153688095Y-84058333D01*
X153726190Y-84077380D01*
X153745238Y-84096428D01*
X153764285Y-84134523D01*
X153764285Y-84229761D01*
X153745238Y-84267857D01*
X153726190Y-84286904D01*
X153688095Y-84305952D01*
X153573809Y-84305952D01*
X153535714Y-84286904D01*
X153516666Y-84267857D01*
%TO.C,R1*%
X154380952Y-87691666D02*
X154190476Y-87825000D01*
X154380952Y-87920238D02*
X153980952Y-87920238D01*
X153980952Y-87767857D01*
X154000000Y-87729761D01*
X154019047Y-87710714D01*
X154057142Y-87691666D01*
X154114285Y-87691666D01*
X154152380Y-87710714D01*
X154171428Y-87729761D01*
X154190476Y-87767857D01*
X154190476Y-87920238D01*
X154380952Y-87310714D02*
X154380952Y-87539285D01*
X154380952Y-87425000D02*
X153980952Y-87425000D01*
X154038095Y-87463095D01*
X154076190Y-87501190D01*
X154095238Y-87539285D01*
%TO.C,C19*%
X122135357Y-82602857D02*
X122116309Y-82621904D01*
X122059166Y-82640952D01*
X122021071Y-82640952D01*
X121963928Y-82621904D01*
X121925833Y-82583809D01*
X121906785Y-82545714D01*
X121887738Y-82469523D01*
X121887738Y-82412380D01*
X121906785Y-82336190D01*
X121925833Y-82298095D01*
X121963928Y-82260000D01*
X122021071Y-82240952D01*
X122059166Y-82240952D01*
X122116309Y-82260000D01*
X122135357Y-82279047D01*
X122516309Y-82640952D02*
X122287738Y-82640952D01*
X122402023Y-82640952D02*
X122402023Y-82240952D01*
X122363928Y-82298095D01*
X122325833Y-82336190D01*
X122287738Y-82355238D01*
X122706785Y-82640952D02*
X122782976Y-82640952D01*
X122821071Y-82621904D01*
X122840119Y-82602857D01*
X122878214Y-82545714D01*
X122897261Y-82469523D01*
X122897261Y-82317142D01*
X122878214Y-82279047D01*
X122859166Y-82260000D01*
X122821071Y-82240952D01*
X122744880Y-82240952D01*
X122706785Y-82260000D01*
X122687738Y-82279047D01*
X122668690Y-82317142D01*
X122668690Y-82412380D01*
X122687738Y-82450476D01*
X122706785Y-82469523D01*
X122744880Y-82488571D01*
X122821071Y-82488571D01*
X122859166Y-82469523D01*
X122878214Y-82450476D01*
X122897261Y-82412380D01*
%TO.C,C15*%
X129082857Y-89032857D02*
X129063809Y-89051904D01*
X129006666Y-89070952D01*
X128968571Y-89070952D01*
X128911428Y-89051904D01*
X128873333Y-89013809D01*
X128854285Y-88975714D01*
X128835238Y-88899523D01*
X128835238Y-88842380D01*
X128854285Y-88766190D01*
X128873333Y-88728095D01*
X128911428Y-88690000D01*
X128968571Y-88670952D01*
X129006666Y-88670952D01*
X129063809Y-88690000D01*
X129082857Y-88709047D01*
X129463809Y-89070952D02*
X129235238Y-89070952D01*
X129349523Y-89070952D02*
X129349523Y-88670952D01*
X129311428Y-88728095D01*
X129273333Y-88766190D01*
X129235238Y-88785238D01*
X129825714Y-88670952D02*
X129635238Y-88670952D01*
X129616190Y-88861428D01*
X129635238Y-88842380D01*
X129673333Y-88823333D01*
X129768571Y-88823333D01*
X129806666Y-88842380D01*
X129825714Y-88861428D01*
X129844761Y-88899523D01*
X129844761Y-88994761D01*
X129825714Y-89032857D01*
X129806666Y-89051904D01*
X129768571Y-89070952D01*
X129673333Y-89070952D01*
X129635238Y-89051904D01*
X129616190Y-89032857D01*
%TO.C,C2*%
X153608333Y-85892857D02*
X153589285Y-85911904D01*
X153532142Y-85930952D01*
X153494047Y-85930952D01*
X153436904Y-85911904D01*
X153398809Y-85873809D01*
X153379761Y-85835714D01*
X153360714Y-85759523D01*
X153360714Y-85702380D01*
X153379761Y-85626190D01*
X153398809Y-85588095D01*
X153436904Y-85550000D01*
X153494047Y-85530952D01*
X153532142Y-85530952D01*
X153589285Y-85550000D01*
X153608333Y-85569047D01*
X153760714Y-85569047D02*
X153779761Y-85550000D01*
X153817857Y-85530952D01*
X153913095Y-85530952D01*
X153951190Y-85550000D01*
X153970238Y-85569047D01*
X153989285Y-85607142D01*
X153989285Y-85645238D01*
X153970238Y-85702380D01*
X153741666Y-85930952D01*
X153989285Y-85930952D01*
%TO.C,R8*%
X148158333Y-82030952D02*
X148025000Y-81840476D01*
X147929761Y-82030952D02*
X147929761Y-81630952D01*
X148082142Y-81630952D01*
X148120238Y-81650000D01*
X148139285Y-81669047D01*
X148158333Y-81707142D01*
X148158333Y-81764285D01*
X148139285Y-81802380D01*
X148120238Y-81821428D01*
X148082142Y-81840476D01*
X147929761Y-81840476D01*
X148386904Y-81802380D02*
X148348809Y-81783333D01*
X148329761Y-81764285D01*
X148310714Y-81726190D01*
X148310714Y-81707142D01*
X148329761Y-81669047D01*
X148348809Y-81650000D01*
X148386904Y-81630952D01*
X148463095Y-81630952D01*
X148501190Y-81650000D01*
X148520238Y-81669047D01*
X148539285Y-81707142D01*
X148539285Y-81726190D01*
X148520238Y-81764285D01*
X148501190Y-81783333D01*
X148463095Y-81802380D01*
X148386904Y-81802380D01*
X148348809Y-81821428D01*
X148329761Y-81840476D01*
X148310714Y-81878571D01*
X148310714Y-81954761D01*
X148329761Y-81992857D01*
X148348809Y-82011904D01*
X148386904Y-82030952D01*
X148463095Y-82030952D01*
X148501190Y-82011904D01*
X148520238Y-81992857D01*
X148539285Y-81954761D01*
X148539285Y-81878571D01*
X148520238Y-81840476D01*
X148501190Y-81821428D01*
X148463095Y-81802380D01*
%TO.C,R2*%
X145203333Y-82150952D02*
X145070000Y-81960476D01*
X144974761Y-82150952D02*
X144974761Y-81750952D01*
X145127142Y-81750952D01*
X145165238Y-81770000D01*
X145184285Y-81789047D01*
X145203333Y-81827142D01*
X145203333Y-81884285D01*
X145184285Y-81922380D01*
X145165238Y-81941428D01*
X145127142Y-81960476D01*
X144974761Y-81960476D01*
X145355714Y-81789047D02*
X145374761Y-81770000D01*
X145412857Y-81750952D01*
X145508095Y-81750952D01*
X145546190Y-81770000D01*
X145565238Y-81789047D01*
X145584285Y-81827142D01*
X145584285Y-81865238D01*
X145565238Y-81922380D01*
X145336666Y-82150952D01*
X145584285Y-82150952D01*
%TO.C,U1*%
X157523452Y-89674761D02*
X157847261Y-89674761D01*
X157885357Y-89655714D01*
X157904404Y-89636666D01*
X157923452Y-89598571D01*
X157923452Y-89522380D01*
X157904404Y-89484285D01*
X157885357Y-89465238D01*
X157847261Y-89446190D01*
X157523452Y-89446190D01*
X157923452Y-89046190D02*
X157923452Y-89274761D01*
X157923452Y-89160476D02*
X157523452Y-89160476D01*
X157580595Y-89198571D01*
X157618690Y-89236666D01*
X157637738Y-89274761D01*
%TO.C,H1*%
X161370238Y-90330952D02*
X161370238Y-89930952D01*
X161370238Y-90121428D02*
X161598809Y-90121428D01*
X161598809Y-90330952D02*
X161598809Y-89930952D01*
X161998809Y-90330952D02*
X161770238Y-90330952D01*
X161884523Y-90330952D02*
X161884523Y-89930952D01*
X161846428Y-89988095D01*
X161808333Y-90026190D01*
X161770238Y-90045238D01*
%TO.C,R3*%
X144133333Y-82130952D02*
X144000000Y-81940476D01*
X143904761Y-82130952D02*
X143904761Y-81730952D01*
X144057142Y-81730952D01*
X144095238Y-81750000D01*
X144114285Y-81769047D01*
X144133333Y-81807142D01*
X144133333Y-81864285D01*
X144114285Y-81902380D01*
X144095238Y-81921428D01*
X144057142Y-81940476D01*
X143904761Y-81940476D01*
X144266666Y-81730952D02*
X144514285Y-81730952D01*
X144380952Y-81883333D01*
X144438095Y-81883333D01*
X144476190Y-81902380D01*
X144495238Y-81921428D01*
X144514285Y-81959523D01*
X144514285Y-82054761D01*
X144495238Y-82092857D01*
X144476190Y-82111904D01*
X144438095Y-82130952D01*
X144323809Y-82130952D01*
X144285714Y-82111904D01*
X144266666Y-82092857D01*
%TO.C,R7*%
X126143333Y-86230952D02*
X126010000Y-86040476D01*
X125914761Y-86230952D02*
X125914761Y-85830952D01*
X126067142Y-85830952D01*
X126105238Y-85850000D01*
X126124285Y-85869047D01*
X126143333Y-85907142D01*
X126143333Y-85964285D01*
X126124285Y-86002380D01*
X126105238Y-86021428D01*
X126067142Y-86040476D01*
X125914761Y-86040476D01*
X126276666Y-85830952D02*
X126543333Y-85830952D01*
X126371904Y-86230952D01*
%TO.C,C8*%
X127643333Y-87332857D02*
X127624285Y-87351904D01*
X127567142Y-87370952D01*
X127529047Y-87370952D01*
X127471904Y-87351904D01*
X127433809Y-87313809D01*
X127414761Y-87275714D01*
X127395714Y-87199523D01*
X127395714Y-87142380D01*
X127414761Y-87066190D01*
X127433809Y-87028095D01*
X127471904Y-86990000D01*
X127529047Y-86970952D01*
X127567142Y-86970952D01*
X127624285Y-86990000D01*
X127643333Y-87009047D01*
X127871904Y-87142380D02*
X127833809Y-87123333D01*
X127814761Y-87104285D01*
X127795714Y-87066190D01*
X127795714Y-87047142D01*
X127814761Y-87009047D01*
X127833809Y-86990000D01*
X127871904Y-86970952D01*
X127948095Y-86970952D01*
X127986190Y-86990000D01*
X128005238Y-87009047D01*
X128024285Y-87047142D01*
X128024285Y-87066190D01*
X128005238Y-87104285D01*
X127986190Y-87123333D01*
X127948095Y-87142380D01*
X127871904Y-87142380D01*
X127833809Y-87161428D01*
X127814761Y-87180476D01*
X127795714Y-87218571D01*
X127795714Y-87294761D01*
X127814761Y-87332857D01*
X127833809Y-87351904D01*
X127871904Y-87370952D01*
X127948095Y-87370952D01*
X127986190Y-87351904D01*
X128005238Y-87332857D01*
X128024285Y-87294761D01*
X128024285Y-87218571D01*
X128005238Y-87180476D01*
X127986190Y-87161428D01*
X127948095Y-87142380D01*
%TO.C,C6*%
X139283333Y-88717857D02*
X139264285Y-88736904D01*
X139207142Y-88755952D01*
X139169047Y-88755952D01*
X139111904Y-88736904D01*
X139073809Y-88698809D01*
X139054761Y-88660714D01*
X139035714Y-88584523D01*
X139035714Y-88527380D01*
X139054761Y-88451190D01*
X139073809Y-88413095D01*
X139111904Y-88375000D01*
X139169047Y-88355952D01*
X139207142Y-88355952D01*
X139264285Y-88375000D01*
X139283333Y-88394047D01*
X139626190Y-88355952D02*
X139550000Y-88355952D01*
X139511904Y-88375000D01*
X139492857Y-88394047D01*
X139454761Y-88451190D01*
X139435714Y-88527380D01*
X139435714Y-88679761D01*
X139454761Y-88717857D01*
X139473809Y-88736904D01*
X139511904Y-88755952D01*
X139588095Y-88755952D01*
X139626190Y-88736904D01*
X139645238Y-88717857D01*
X139664285Y-88679761D01*
X139664285Y-88584523D01*
X139645238Y-88546428D01*
X139626190Y-88527380D01*
X139588095Y-88508333D01*
X139511904Y-88508333D01*
X139473809Y-88527380D01*
X139454761Y-88546428D01*
X139435714Y-88584523D01*
%TO.C,H2*%
X121670238Y-87605952D02*
X121670238Y-87205952D01*
X121670238Y-87396428D02*
X121898809Y-87396428D01*
X121898809Y-87605952D02*
X121898809Y-87205952D01*
X122070238Y-87244047D02*
X122089285Y-87225000D01*
X122127380Y-87205952D01*
X122222619Y-87205952D01*
X122260714Y-87225000D01*
X122279761Y-87244047D01*
X122298809Y-87282142D01*
X122298809Y-87320238D01*
X122279761Y-87377380D01*
X122051190Y-87605952D01*
X122298809Y-87605952D01*
%TO.C,C18*%
X129182857Y-82662857D02*
X129163809Y-82681904D01*
X129106666Y-82700952D01*
X129068571Y-82700952D01*
X129011428Y-82681904D01*
X128973333Y-82643809D01*
X128954285Y-82605714D01*
X128935238Y-82529523D01*
X128935238Y-82472380D01*
X128954285Y-82396190D01*
X128973333Y-82358095D01*
X129011428Y-82320000D01*
X129068571Y-82300952D01*
X129106666Y-82300952D01*
X129163809Y-82320000D01*
X129182857Y-82339047D01*
X129563809Y-82700952D02*
X129335238Y-82700952D01*
X129449523Y-82700952D02*
X129449523Y-82300952D01*
X129411428Y-82358095D01*
X129373333Y-82396190D01*
X129335238Y-82415238D01*
X129792380Y-82472380D02*
X129754285Y-82453333D01*
X129735238Y-82434285D01*
X129716190Y-82396190D01*
X129716190Y-82377142D01*
X129735238Y-82339047D01*
X129754285Y-82320000D01*
X129792380Y-82300952D01*
X129868571Y-82300952D01*
X129906666Y-82320000D01*
X129925714Y-82339047D01*
X129944761Y-82377142D01*
X129944761Y-82396190D01*
X129925714Y-82434285D01*
X129906666Y-82453333D01*
X129868571Y-82472380D01*
X129792380Y-82472380D01*
X129754285Y-82491428D01*
X129735238Y-82510476D01*
X129716190Y-82548571D01*
X129716190Y-82624761D01*
X129735238Y-82662857D01*
X129754285Y-82681904D01*
X129792380Y-82700952D01*
X129868571Y-82700952D01*
X129906666Y-82681904D01*
X129925714Y-82662857D01*
X129944761Y-82624761D01*
X129944761Y-82548571D01*
X129925714Y-82510476D01*
X129906666Y-82491428D01*
X129868571Y-82472380D01*
%TO.C,C9*%
X141392857Y-89841666D02*
X141411904Y-89860714D01*
X141430952Y-89917857D01*
X141430952Y-89955952D01*
X141411904Y-90013095D01*
X141373809Y-90051190D01*
X141335714Y-90070238D01*
X141259523Y-90089285D01*
X141202380Y-90089285D01*
X141126190Y-90070238D01*
X141088095Y-90051190D01*
X141050000Y-90013095D01*
X141030952Y-89955952D01*
X141030952Y-89917857D01*
X141050000Y-89860714D01*
X141069047Y-89841666D01*
X141430952Y-89651190D02*
X141430952Y-89575000D01*
X141411904Y-89536904D01*
X141392857Y-89517857D01*
X141335714Y-89479761D01*
X141259523Y-89460714D01*
X141107142Y-89460714D01*
X141069047Y-89479761D01*
X141050000Y-89498809D01*
X141030952Y-89536904D01*
X141030952Y-89613095D01*
X141050000Y-89651190D01*
X141069047Y-89670238D01*
X141107142Y-89689285D01*
X141202380Y-89689285D01*
X141240476Y-89670238D01*
X141259523Y-89651190D01*
X141278571Y-89613095D01*
X141278571Y-89536904D01*
X141259523Y-89498809D01*
X141240476Y-89479761D01*
X141202380Y-89460714D01*
%TO.C,D1*%
X138235952Y-82970238D02*
X137835952Y-82970238D01*
X137835952Y-82875000D01*
X137855000Y-82817857D01*
X137893095Y-82779761D01*
X137931190Y-82760714D01*
X138007380Y-82741666D01*
X138064523Y-82741666D01*
X138140714Y-82760714D01*
X138178809Y-82779761D01*
X138216904Y-82817857D01*
X138235952Y-82875000D01*
X138235952Y-82970238D01*
X138235952Y-82360714D02*
X138235952Y-82589285D01*
X138235952Y-82475000D02*
X137835952Y-82475000D01*
X137893095Y-82513095D01*
X137931190Y-82551190D01*
X137950238Y-82589285D01*
%TO.C,C1*%
X161732857Y-87896666D02*
X161751904Y-87915714D01*
X161770952Y-87972857D01*
X161770952Y-88010952D01*
X161751904Y-88068095D01*
X161713809Y-88106190D01*
X161675714Y-88125238D01*
X161599523Y-88144285D01*
X161542380Y-88144285D01*
X161466190Y-88125238D01*
X161428095Y-88106190D01*
X161390000Y-88068095D01*
X161370952Y-88010952D01*
X161370952Y-87972857D01*
X161390000Y-87915714D01*
X161409047Y-87896666D01*
X161770952Y-87515714D02*
X161770952Y-87744285D01*
X161770952Y-87630000D02*
X161370952Y-87630000D01*
X161428095Y-87668095D01*
X161466190Y-87706190D01*
X161485238Y-87744285D01*
%TO.C,C20*%
X146630357Y-89082142D02*
X146649404Y-89101190D01*
X146668452Y-89158333D01*
X146668452Y-89196428D01*
X146649404Y-89253571D01*
X146611309Y-89291666D01*
X146573214Y-89310714D01*
X146497023Y-89329761D01*
X146439880Y-89329761D01*
X146363690Y-89310714D01*
X146325595Y-89291666D01*
X146287500Y-89253571D01*
X146268452Y-89196428D01*
X146268452Y-89158333D01*
X146287500Y-89101190D01*
X146306547Y-89082142D01*
X146306547Y-88929761D02*
X146287500Y-88910714D01*
X146268452Y-88872619D01*
X146268452Y-88777380D01*
X146287500Y-88739285D01*
X146306547Y-88720238D01*
X146344642Y-88701190D01*
X146382738Y-88701190D01*
X146439880Y-88720238D01*
X146668452Y-88948809D01*
X146668452Y-88701190D01*
X146268452Y-88453571D02*
X146268452Y-88415476D01*
X146287500Y-88377380D01*
X146306547Y-88358333D01*
X146344642Y-88339285D01*
X146420833Y-88320238D01*
X146516071Y-88320238D01*
X146592261Y-88339285D01*
X146630357Y-88358333D01*
X146649404Y-88377380D01*
X146668452Y-88415476D01*
X146668452Y-88453571D01*
X146649404Y-88491666D01*
X146630357Y-88510714D01*
X146592261Y-88529761D01*
X146516071Y-88548809D01*
X146420833Y-88548809D01*
X146344642Y-88529761D01*
X146306547Y-88510714D01*
X146287500Y-88491666D01*
X146268452Y-88453571D01*
%TO.C,U2*%
X152980952Y-85429761D02*
X153304761Y-85429761D01*
X153342857Y-85410714D01*
X153361904Y-85391666D01*
X153380952Y-85353571D01*
X153380952Y-85277380D01*
X153361904Y-85239285D01*
X153342857Y-85220238D01*
X153304761Y-85201190D01*
X152980952Y-85201190D01*
X153019047Y-85029761D02*
X153000000Y-85010714D01*
X152980952Y-84972619D01*
X152980952Y-84877380D01*
X153000000Y-84839285D01*
X153019047Y-84820238D01*
X153057142Y-84801190D01*
X153095238Y-84801190D01*
X153152380Y-84820238D01*
X153380952Y-85048809D01*
X153380952Y-84801190D01*
%TO.C,U3*%
X140755238Y-85770952D02*
X140755238Y-86094761D01*
X140774285Y-86132857D01*
X140793333Y-86151904D01*
X140831428Y-86170952D01*
X140907619Y-86170952D01*
X140945714Y-86151904D01*
X140964761Y-86132857D01*
X140983809Y-86094761D01*
X140983809Y-85770952D01*
X141136190Y-85770952D02*
X141383809Y-85770952D01*
X141250476Y-85923333D01*
X141307619Y-85923333D01*
X141345714Y-85942380D01*
X141364761Y-85961428D01*
X141383809Y-85999523D01*
X141383809Y-86094761D01*
X141364761Y-86132857D01*
X141345714Y-86151904D01*
X141307619Y-86170952D01*
X141193333Y-86170952D01*
X141155238Y-86151904D01*
X141136190Y-86132857D01*
%TO.C,U4*%
X138660952Y-89884761D02*
X138984761Y-89884761D01*
X139022857Y-89865714D01*
X139041904Y-89846666D01*
X139060952Y-89808571D01*
X139060952Y-89732380D01*
X139041904Y-89694285D01*
X139022857Y-89675238D01*
X138984761Y-89656190D01*
X138660952Y-89656190D01*
X138794285Y-89294285D02*
X139060952Y-89294285D01*
X138641904Y-89389523D02*
X138927619Y-89484761D01*
X138927619Y-89237142D01*
%TO.C,TP9*%
X120715238Y-84645952D02*
X120943809Y-84645952D01*
X120829523Y-85045952D02*
X120829523Y-84645952D01*
X121077142Y-85045952D02*
X121077142Y-84645952D01*
X121229523Y-84645952D01*
X121267619Y-84665000D01*
X121286666Y-84684047D01*
X121305714Y-84722142D01*
X121305714Y-84779285D01*
X121286666Y-84817380D01*
X121267619Y-84836428D01*
X121229523Y-84855476D01*
X121077142Y-84855476D01*
X121496190Y-85045952D02*
X121572380Y-85045952D01*
X121610476Y-85026904D01*
X121629523Y-85007857D01*
X121667619Y-84950714D01*
X121686666Y-84874523D01*
X121686666Y-84722142D01*
X121667619Y-84684047D01*
X121648571Y-84665000D01*
X121610476Y-84645952D01*
X121534285Y-84645952D01*
X121496190Y-84665000D01*
X121477142Y-84684047D01*
X121458095Y-84722142D01*
X121458095Y-84817380D01*
X121477142Y-84855476D01*
X121496190Y-84874523D01*
X121534285Y-84893571D01*
X121610476Y-84893571D01*
X121648571Y-84874523D01*
X121667619Y-84855476D01*
X121686666Y-84817380D01*
%TO.C,R9*%
X148305952Y-85391666D02*
X148115476Y-85525000D01*
X148305952Y-85620238D02*
X147905952Y-85620238D01*
X147905952Y-85467857D01*
X147925000Y-85429761D01*
X147944047Y-85410714D01*
X147982142Y-85391666D01*
X148039285Y-85391666D01*
X148077380Y-85410714D01*
X148096428Y-85429761D01*
X148115476Y-85467857D01*
X148115476Y-85620238D01*
X148305952Y-85201190D02*
X148305952Y-85125000D01*
X148286904Y-85086904D01*
X148267857Y-85067857D01*
X148210714Y-85029761D01*
X148134523Y-85010714D01*
X147982142Y-85010714D01*
X147944047Y-85029761D01*
X147925000Y-85048809D01*
X147905952Y-85086904D01*
X147905952Y-85163095D01*
X147925000Y-85201190D01*
X147944047Y-85220238D01*
X147982142Y-85239285D01*
X148077380Y-85239285D01*
X148115476Y-85220238D01*
X148134523Y-85201190D01*
X148153571Y-85163095D01*
X148153571Y-85086904D01*
X148134523Y-85048809D01*
X148115476Y-85029761D01*
X148077380Y-85010714D01*
%TO.C,TP3*%
X146320238Y-86030952D02*
X146548809Y-86030952D01*
X146434523Y-86430952D02*
X146434523Y-86030952D01*
X146682142Y-86430952D02*
X146682142Y-86030952D01*
X146834523Y-86030952D01*
X146872619Y-86050000D01*
X146891666Y-86069047D01*
X146910714Y-86107142D01*
X146910714Y-86164285D01*
X146891666Y-86202380D01*
X146872619Y-86221428D01*
X146834523Y-86240476D01*
X146682142Y-86240476D01*
X147044047Y-86030952D02*
X147291666Y-86030952D01*
X147158333Y-86183333D01*
X147215476Y-86183333D01*
X147253571Y-86202380D01*
X147272619Y-86221428D01*
X147291666Y-86259523D01*
X147291666Y-86354761D01*
X147272619Y-86392857D01*
X147253571Y-86411904D01*
X147215476Y-86430952D01*
X147101190Y-86430952D01*
X147063095Y-86411904D01*
X147044047Y-86392857D01*
%TO.C,C4*%
X144983333Y-84872857D02*
X144964285Y-84891904D01*
X144907142Y-84910952D01*
X144869047Y-84910952D01*
X144811904Y-84891904D01*
X144773809Y-84853809D01*
X144754761Y-84815714D01*
X144735714Y-84739523D01*
X144735714Y-84682380D01*
X144754761Y-84606190D01*
X144773809Y-84568095D01*
X144811904Y-84530000D01*
X144869047Y-84510952D01*
X144907142Y-84510952D01*
X144964285Y-84530000D01*
X144983333Y-84549047D01*
X145326190Y-84644285D02*
X145326190Y-84910952D01*
X145230952Y-84491904D02*
X145135714Y-84777619D01*
X145383333Y-84777619D01*
%TO.C,C17*%
X143842857Y-90517857D02*
X143823809Y-90536904D01*
X143766666Y-90555952D01*
X143728571Y-90555952D01*
X143671428Y-90536904D01*
X143633333Y-90498809D01*
X143614285Y-90460714D01*
X143595238Y-90384523D01*
X143595238Y-90327380D01*
X143614285Y-90251190D01*
X143633333Y-90213095D01*
X143671428Y-90175000D01*
X143728571Y-90155952D01*
X143766666Y-90155952D01*
X143823809Y-90175000D01*
X143842857Y-90194047D01*
X144223809Y-90555952D02*
X143995238Y-90555952D01*
X144109523Y-90555952D02*
X144109523Y-90155952D01*
X144071428Y-90213095D01*
X144033333Y-90251190D01*
X143995238Y-90270238D01*
X144357142Y-90155952D02*
X144623809Y-90155952D01*
X144452380Y-90555952D01*
D14*
%TO.C,R5*%
X140871359Y-88655000D02*
X141178641Y-88655000D01*
X140871359Y-87895000D02*
X141178641Y-87895000D01*
D15*
%TO.C,D2*%
X150545000Y-85872500D02*
G75*
G03*
X150545000Y-85872500I-50000J0D01*
G01*
D14*
%TO.C,Y1*%
X123157500Y-81740000D02*
X123157500Y-85440000D01*
X123157500Y-85440000D02*
X128457500Y-85440000D01*
%TO.C,C16*%
X126840000Y-89580336D02*
X126840000Y-89364664D01*
X127560000Y-89580336D02*
X127560000Y-89364664D01*
%TO.C,R4*%
X140871359Y-86895000D02*
X141178641Y-86895000D01*
X140871359Y-87655000D02*
X141178641Y-87655000D01*
%TO.C,R10*%
X148753641Y-88695000D02*
X148446359Y-88695000D01*
X148753641Y-89455000D02*
X148446359Y-89455000D01*
D12*
%TO.C,CONN1*%
X115900000Y-87550000D02*
X115900000Y-90185000D01*
X115900000Y-90185000D02*
X121000000Y-90185000D01*
X121000000Y-90185000D02*
X121000000Y-87550000D01*
X121000000Y-87550000D02*
X115900000Y-87550000D01*
D14*
%TO.C,C5*%
X157042500Y-89117836D02*
X157042500Y-88902164D01*
X157762500Y-89117836D02*
X157762500Y-88902164D01*
%TO.C,U5*%
X146950000Y-86475000D02*
X148600000Y-86475000D01*
X148600000Y-88275000D02*
X147300000Y-88275000D01*
%TO.C,D3*%
X146450000Y-84737500D02*
X146450000Y-82187500D01*
X146450000Y-84737500D02*
X148150000Y-84737500D01*
X148150000Y-84737500D02*
X148150000Y-82187500D01*
%TO.C,J1*%
X160600000Y-86450000D02*
X160600000Y-86000000D01*
X155000000Y-84050000D02*
X155000000Y-85900000D01*
X162800000Y-81500000D02*
X162800000Y-81750000D01*
X162800000Y-85900000D02*
X162350000Y-85900000D01*
X162800000Y-84050000D02*
X162800000Y-85900000D01*
X160600000Y-86450000D02*
X160150000Y-86450000D01*
X155000000Y-81500000D02*
X155000000Y-81750000D01*
X155000000Y-85900000D02*
X155450000Y-85900000D01*
%TO.C,C3*%
X153885000Y-82828335D02*
X153885000Y-82596665D01*
X153165000Y-82828335D02*
X153165000Y-82596665D01*
%TO.C,R1*%
X152809165Y-87997500D02*
X153040835Y-87997500D01*
X152809165Y-87277500D02*
X153040835Y-87277500D01*
%TO.C,C19*%
X122040000Y-83617164D02*
X122040000Y-83832836D01*
X122760000Y-83617164D02*
X122760000Y-83832836D01*
%TO.C,C15*%
X127830000Y-89577836D02*
X127830000Y-89362164D01*
X128550000Y-89577836D02*
X128550000Y-89362164D01*
%TO.C,C2*%
X152809165Y-86152500D02*
X153040835Y-86152500D01*
X152809165Y-86872500D02*
X153040835Y-86872500D01*
%TO.C,R8*%
X149260000Y-82621665D02*
X149260000Y-82853335D01*
X148540000Y-82621665D02*
X148540000Y-82853335D01*
%TO.C,R2*%
X144540000Y-83036359D02*
X144540000Y-83343641D01*
X143780000Y-83036359D02*
X143780000Y-83343641D01*
%TO.C,U1*%
X159902500Y-87150000D02*
X158227500Y-87150000D01*
X159902500Y-87150000D02*
X160552500Y-87150000D01*
X159902500Y-90270000D02*
X160552500Y-90270000D01*
X159902500Y-90270000D02*
X159252500Y-90270000D01*
%TO.C,R3*%
X145560000Y-83353641D02*
X145560000Y-83046359D01*
X144800000Y-83353641D02*
X144800000Y-83046359D01*
%TO.C,R7*%
X127811141Y-85707500D02*
X127503859Y-85707500D01*
X127811141Y-86467500D02*
X127503859Y-86467500D01*
%TO.C,C8*%
X127937836Y-88300000D02*
X127722164Y-88300000D01*
X127937836Y-87580000D02*
X127722164Y-87580000D01*
%TO.C,C6*%
X139967164Y-88940000D02*
X140182836Y-88940000D01*
X139967164Y-89660000D02*
X140182836Y-89660000D01*
%TO.C,C18*%
X129247500Y-84097836D02*
X129247500Y-83882164D01*
X129967500Y-84097836D02*
X129967500Y-83882164D01*
%TO.C,C9*%
X141580000Y-89867836D02*
X141580000Y-89652164D01*
X142300000Y-89867836D02*
X142300000Y-89652164D01*
D15*
%TO.C,D1*%
X139275000Y-83765000D02*
G75*
G03*
X139275000Y-83765000I-50000J0D01*
G01*
D14*
%TO.C,C1*%
X162710000Y-87707836D02*
X162710000Y-87492164D01*
X161990000Y-87707836D02*
X161990000Y-87492164D01*
%TO.C,C20*%
X146060000Y-88015835D02*
X146060000Y-87784165D01*
X145340000Y-88015835D02*
X145340000Y-87784165D01*
%TO.C,U2*%
X149690000Y-83687500D02*
X149690000Y-85487500D01*
X149690000Y-83687500D02*
X149690000Y-82887500D01*
X152810000Y-83687500D02*
X152810000Y-84487500D01*
X152810000Y-83687500D02*
X152810000Y-82887500D01*
D16*
%TO.C,U3*%
X141061000Y-82322500D02*
X141061000Y-85422500D01*
X143539000Y-82322500D02*
X143539000Y-85422500D01*
D17*
X143400000Y-81772500D02*
G75*
G03*
X143400000Y-81772500I-100000J0D01*
G01*
D16*
%TO.C,U4*%
X130900000Y-82972500D02*
X130900000Y-83452500D01*
X130900000Y-82972500D02*
X131380000Y-82972500D01*
X137900000Y-89972500D02*
X137420000Y-89972500D01*
X137900000Y-82972500D02*
X137900000Y-83452500D01*
X137900000Y-89972500D02*
X137900000Y-89492500D01*
X130900000Y-89972500D02*
X131380000Y-89972500D01*
X137900000Y-82972500D02*
X137420000Y-82972500D01*
X130900000Y-89972500D02*
X130900000Y-89492500D01*
D17*
X137100000Y-81997500D02*
G75*
G03*
X137100000Y-81997500I-100000J0D01*
G01*
D14*
%TO.C,R9*%
X149260000Y-85178335D02*
X149260000Y-84946665D01*
X148540000Y-85178335D02*
X148540000Y-84946665D01*
%TO.C,C4*%
X144892164Y-85880000D02*
X145107836Y-85880000D01*
X144892164Y-85160000D02*
X145107836Y-85160000D01*
%TO.C,C17*%
X143400000Y-89847836D02*
X143400000Y-89632164D01*
X142680000Y-89847836D02*
X142680000Y-89632164D01*
%TD*%
%LPC*%
D18*
%TO.C,R5*%
X140515000Y-88275000D03*
X141535000Y-88275000D03*
%TD*%
D19*
%TO.C,D2*%
X150495000Y-86477500D03*
X150495000Y-87447500D03*
%TD*%
D20*
%TO.C,Y1*%
X124157500Y-84590000D03*
X127457500Y-84590000D03*
X127457500Y-82590000D03*
X124157500Y-82590000D03*
%TD*%
D21*
%TO.C,C16*%
X127200000Y-89952500D03*
X127200000Y-88992500D03*
%TD*%
D18*
%TO.C,R4*%
X140515000Y-87275000D03*
X141535000Y-87275000D03*
%TD*%
D22*
%TO.C,R10*%
X149110000Y-89075000D03*
X148090000Y-89075000D03*
%TD*%
D23*
%TO.C,CONN1*%
X117450000Y-89515000D03*
D24*
X117450000Y-90100000D03*
D23*
X117850000Y-89515000D03*
D24*
X117850000Y-90100000D03*
D23*
X118250000Y-89515000D03*
D24*
X118250000Y-90100000D03*
X118650000Y-90100000D03*
D23*
X118650000Y-89515000D03*
D24*
X119050000Y-90100000D03*
D23*
X119050000Y-89515000D03*
D24*
X119450000Y-90100000D03*
D23*
X119450000Y-89515000D03*
X117450000Y-88245000D03*
D24*
X117450000Y-87650000D03*
X117850000Y-87650000D03*
D23*
X117850000Y-88245000D03*
X118250000Y-88245000D03*
D24*
X118250000Y-87650000D03*
X118650000Y-87650000D03*
D23*
X118650000Y-88245000D03*
X119050000Y-88245000D03*
D24*
X119050000Y-87650000D03*
D23*
X119450000Y-88245000D03*
D24*
X119450000Y-87650000D03*
D25*
X120200000Y-90050000D03*
X116700000Y-90050000D03*
X120200000Y-87700000D03*
X116700000Y-87700000D03*
%TD*%
D21*
%TO.C,C5*%
X157402500Y-89490000D03*
X157402500Y-88530000D03*
%TD*%
D26*
%TO.C,U5*%
X147305000Y-86875000D03*
X147305000Y-87875000D03*
X148595000Y-87375000D03*
%TD*%
D27*
%TO.C,D3*%
X147300000Y-84337500D03*
X147300000Y-82137500D03*
%TD*%
D28*
%TO.C,J1*%
X160200000Y-85600000D03*
X159550000Y-85600000D03*
X158900000Y-85600000D03*
X158250000Y-85600000D03*
X157600000Y-85600000D03*
D29*
X161800000Y-82900000D03*
D30*
X155400000Y-82900000D03*
D31*
X156400000Y-85600000D03*
D32*
X157900000Y-82900000D03*
D29*
X156000000Y-82900000D03*
D31*
X161400000Y-85600000D03*
D32*
X159900000Y-82900000D03*
D30*
X162400000Y-82900000D03*
%TD*%
D33*
%TO.C,C3*%
X153525000Y-83280000D03*
X153525000Y-82145000D03*
%TD*%
D34*
%TO.C,R1*%
X152357500Y-87637500D03*
X153492500Y-87637500D03*
%TD*%
D35*
%TO.C,C19*%
X122400000Y-83245000D03*
X122400000Y-84205000D03*
%TD*%
D21*
%TO.C,C15*%
X128190000Y-89950000D03*
X128190000Y-88990000D03*
%TD*%
D34*
%TO.C,C2*%
X152357500Y-86512500D03*
X153492500Y-86512500D03*
%TD*%
D36*
%TO.C,R8*%
X148900000Y-82170000D03*
X148900000Y-83305000D03*
%TD*%
D37*
%TO.C,R2*%
X144160000Y-82680000D03*
X144160000Y-83700000D03*
%TD*%
D38*
%TO.C,U1*%
X158965000Y-87760000D03*
X158965000Y-89660000D03*
X160840000Y-88710000D03*
%TD*%
D39*
%TO.C,H1*%
X162575000Y-90125000D03*
%TD*%
D40*
%TO.C,R3*%
X145180000Y-83710000D03*
X145180000Y-82690000D03*
%TD*%
D22*
%TO.C,R7*%
X128167500Y-86087500D03*
X127147500Y-86087500D03*
%TD*%
D41*
%TO.C,C8*%
X128310000Y-87940000D03*
X127350000Y-87940000D03*
%TD*%
D42*
%TO.C,C6*%
X139595000Y-89300000D03*
X140555000Y-89300000D03*
%TD*%
D39*
%TO.C,H2*%
X121975000Y-86525000D03*
%TD*%
D21*
%TO.C,C18*%
X129607500Y-84470000D03*
X129607500Y-83510000D03*
%TD*%
%TO.C,C9*%
X141940000Y-90240000D03*
X141940000Y-89280000D03*
%TD*%
D43*
%TO.C,D1*%
X139225000Y-83160000D03*
X139225000Y-82190000D03*
%TD*%
D21*
%TO.C,C1*%
X162350000Y-88080000D03*
X162350000Y-87120000D03*
%TD*%
D33*
%TO.C,C20*%
X145700000Y-88467500D03*
X145700000Y-87332500D03*
%TD*%
D44*
%TO.C,U2*%
X150300000Y-84825000D03*
X151250000Y-84825000D03*
X152200000Y-84825000D03*
X152200000Y-82550000D03*
X150300000Y-82550000D03*
%TD*%
D45*
%TO.C,U3*%
X143050000Y-82652500D03*
X142550000Y-82652500D03*
X142050000Y-82652500D03*
X141550000Y-82652500D03*
X141550000Y-85092500D03*
X142050000Y-85092500D03*
X142550000Y-85092500D03*
X143050000Y-85092500D03*
D46*
X142300000Y-83872500D03*
%TD*%
D47*
%TO.C,U4*%
X137000000Y-83037500D03*
X136600000Y-83037500D03*
X136200000Y-83037500D03*
X135800000Y-83037500D03*
X135400000Y-83037500D03*
X135000000Y-83037500D03*
X134600000Y-83037500D03*
X134200000Y-83037500D03*
X133800000Y-83037500D03*
X133400000Y-83037500D03*
X133000000Y-83037500D03*
X132600000Y-83037500D03*
X132200000Y-83037500D03*
X131800000Y-83037500D03*
D48*
X130965000Y-83872500D03*
X130965000Y-84272500D03*
X130965000Y-84672500D03*
X130965000Y-85072500D03*
X130965000Y-85472500D03*
X130965000Y-85872500D03*
X130965000Y-86272500D03*
X130965000Y-86672500D03*
X130965000Y-87072500D03*
X130965000Y-87472500D03*
X130965000Y-87872500D03*
X130965000Y-88272500D03*
X130965000Y-88672500D03*
X130965000Y-89072500D03*
D47*
X131800000Y-89907500D03*
X132200000Y-89907500D03*
X132600000Y-89907500D03*
X133000000Y-89907500D03*
X133400000Y-89907500D03*
X133800000Y-89907500D03*
X134200000Y-89907500D03*
X134600000Y-89907500D03*
X135000000Y-89907500D03*
X135400000Y-89907500D03*
X135800000Y-89907500D03*
X136200000Y-89907500D03*
X136600000Y-89907500D03*
X137000000Y-89907500D03*
D48*
X137835000Y-89072500D03*
X137835000Y-88672500D03*
X137835000Y-88272500D03*
X137835000Y-87872500D03*
X137835000Y-87472500D03*
X137835000Y-87072500D03*
X137835000Y-86672500D03*
X137835000Y-86272500D03*
X137835000Y-85872500D03*
X137835000Y-85472500D03*
X137835000Y-85072500D03*
X137835000Y-84672500D03*
X137835000Y-84272500D03*
X137835000Y-83872500D03*
D49*
X134400000Y-86472500D03*
%TD*%
D50*
%TO.C,TP9*%
X121250000Y-83775000D03*
%TD*%
D33*
%TO.C,R9*%
X148900000Y-85630000D03*
X148900000Y-84495000D03*
%TD*%
D50*
%TO.C,TP3*%
X145800000Y-86350000D03*
%TD*%
D42*
%TO.C,C4*%
X144520000Y-85520000D03*
X145480000Y-85520000D03*
%TD*%
D21*
%TO.C,C17*%
X143040000Y-90220000D03*
X143040000Y-89260000D03*
%TD*%
D51*
%TO.C,SW1*%
X151250000Y-82875000D03*
%TD*%
M02*
