%FSLAX45Y45*%
G04 Gerber Fmt 4.5, Leading zero omitted, Abs format (unit mm)*
G04 Created by KiCad (PCBNEW 6.0.4-6f826c9f35~116~ubuntu20.04.1) date 2022-03-30 16:12:38*
%MOMM*%
%LPD*%
G01*
G04 APERTURE LIST*
%TA.AperFunction,Profile*%
%ADD10C,0.100000*%
%TD*%
%ADD11C,0.200000*%
%ADD12C,0.070000*%
%ADD13C,0.080000*%
G04 APERTURE END LIST*
D10*
X16340000Y-8150000D02*
X12150000Y-8150000D01*
X11565000Y-8750000D02*
X11565000Y-9090000D01*
X11565000Y-9090000D02*
X16340000Y-9090000D01*
X12150000Y-8150000D02*
X11565000Y-8750000D01*
X16340000Y-9090000D02*
X16340000Y-8150000D01*
D11*
D12*
X12162500Y-8617500D02*
X12232500Y-8687500D01*
X12232500Y-8617500D02*
X12162500Y-8687500D01*
X16222500Y-8977500D02*
X16292500Y-9047500D01*
X16292500Y-8977500D02*
X16222500Y-9047500D01*
D13*
X15165000Y-8287500D02*
G75*
G03*
X15165000Y-8287500I-40000J0D01*
G01*
D11*
X11817619Y-9405476D02*
X11817619Y-9205476D01*
X11865238Y-9205476D01*
X11893809Y-9215000D01*
X11912857Y-9234048D01*
X11922381Y-9253095D01*
X11931905Y-9291190D01*
X11931905Y-9319762D01*
X11922381Y-9357857D01*
X11912857Y-9376905D01*
X11893809Y-9395952D01*
X11865238Y-9405476D01*
X11817619Y-9405476D01*
X12017619Y-9405476D02*
X12017619Y-9272143D01*
X12017619Y-9310238D02*
X12027143Y-9291190D01*
X12036667Y-9281667D01*
X12055714Y-9272143D01*
X12074762Y-9272143D01*
X12141428Y-9405476D02*
X12141428Y-9272143D01*
X12141428Y-9205476D02*
X12131905Y-9215000D01*
X12141428Y-9224524D01*
X12150952Y-9215000D01*
X12141428Y-9205476D01*
X12141428Y-9224524D01*
X12265238Y-9405476D02*
X12246190Y-9395952D01*
X12236667Y-9376905D01*
X12236667Y-9205476D01*
X12370000Y-9405476D02*
X12350952Y-9395952D01*
X12341428Y-9376905D01*
X12341428Y-9205476D01*
X12598571Y-9405476D02*
X12598571Y-9205476D01*
X12665238Y-9348333D01*
X12731905Y-9205476D01*
X12731905Y-9405476D01*
X12912857Y-9405476D02*
X12912857Y-9300714D01*
X12903333Y-9281667D01*
X12884286Y-9272143D01*
X12846190Y-9272143D01*
X12827143Y-9281667D01*
X12912857Y-9395952D02*
X12893809Y-9405476D01*
X12846190Y-9405476D01*
X12827143Y-9395952D01*
X12817619Y-9376905D01*
X12817619Y-9357857D01*
X12827143Y-9338810D01*
X12846190Y-9329286D01*
X12893809Y-9329286D01*
X12912857Y-9319762D01*
X13008095Y-9272143D02*
X13008095Y-9472143D01*
X13008095Y-9281667D02*
X13027143Y-9272143D01*
X13065238Y-9272143D01*
X13084286Y-9281667D01*
X13093809Y-9291190D01*
X13103333Y-9310238D01*
X13103333Y-9367381D01*
X13093809Y-9386429D01*
X13084286Y-9395952D01*
X13065238Y-9405476D01*
X13027143Y-9405476D01*
X13008095Y-9395952D01*
X13189048Y-9386429D02*
X13198571Y-9395952D01*
X13189048Y-9405476D01*
X13179524Y-9395952D01*
X13189048Y-9386429D01*
X13189048Y-9405476D01*
X13189048Y-9281667D02*
X13198571Y-9291190D01*
X13189048Y-9300714D01*
X13179524Y-9291190D01*
X13189048Y-9281667D01*
X13189048Y-9300714D01*
D12*
X11490000Y-9700000D02*
X11560000Y-9770000D01*
X11560000Y-9700000D02*
X11490000Y-9770000D01*
D11*
X11855714Y-9625476D02*
X11874762Y-9625476D01*
X11893809Y-9635000D01*
X11903333Y-9644524D01*
X11912857Y-9663571D01*
X11922381Y-9701667D01*
X11922381Y-9749286D01*
X11912857Y-9787381D01*
X11903333Y-9806429D01*
X11893809Y-9815952D01*
X11874762Y-9825476D01*
X11855714Y-9825476D01*
X11836667Y-9815952D01*
X11827143Y-9806429D01*
X11817619Y-9787381D01*
X11808095Y-9749286D01*
X11808095Y-9701667D01*
X11817619Y-9663571D01*
X11827143Y-9644524D01*
X11836667Y-9635000D01*
X11855714Y-9625476D01*
X12008095Y-9806429D02*
X12017619Y-9815952D01*
X12008095Y-9825476D01*
X11998571Y-9815952D01*
X12008095Y-9806429D01*
X12008095Y-9825476D01*
X12084286Y-9625476D02*
X12217619Y-9625476D01*
X12131905Y-9825476D01*
X12331905Y-9625476D02*
X12350952Y-9625476D01*
X12370000Y-9635000D01*
X12379524Y-9644524D01*
X12389048Y-9663571D01*
X12398571Y-9701667D01*
X12398571Y-9749286D01*
X12389048Y-9787381D01*
X12379524Y-9806429D01*
X12370000Y-9815952D01*
X12350952Y-9825476D01*
X12331905Y-9825476D01*
X12312857Y-9815952D01*
X12303333Y-9806429D01*
X12293809Y-9787381D01*
X12284286Y-9749286D01*
X12284286Y-9701667D01*
X12293809Y-9663571D01*
X12303333Y-9644524D01*
X12312857Y-9635000D01*
X12331905Y-9625476D01*
X12522381Y-9625476D02*
X12541428Y-9625476D01*
X12560476Y-9635000D01*
X12570000Y-9644524D01*
X12579524Y-9663571D01*
X12589048Y-9701667D01*
X12589048Y-9749286D01*
X12579524Y-9787381D01*
X12570000Y-9806429D01*
X12560476Y-9815952D01*
X12541428Y-9825476D01*
X12522381Y-9825476D01*
X12503333Y-9815952D01*
X12493809Y-9806429D01*
X12484286Y-9787381D01*
X12474762Y-9749286D01*
X12474762Y-9701667D01*
X12484286Y-9663571D01*
X12493809Y-9644524D01*
X12503333Y-9635000D01*
X12522381Y-9625476D01*
X12674762Y-9825476D02*
X12674762Y-9692143D01*
X12674762Y-9711190D02*
X12684286Y-9701667D01*
X12703333Y-9692143D01*
X12731905Y-9692143D01*
X12750952Y-9701667D01*
X12760476Y-9720714D01*
X12760476Y-9825476D01*
X12760476Y-9720714D02*
X12770000Y-9701667D01*
X12789048Y-9692143D01*
X12817619Y-9692143D01*
X12836667Y-9701667D01*
X12846190Y-9720714D01*
X12846190Y-9825476D01*
X12941428Y-9825476D02*
X12941428Y-9692143D01*
X12941428Y-9711190D02*
X12950952Y-9701667D01*
X12970000Y-9692143D01*
X12998571Y-9692143D01*
X13017619Y-9701667D01*
X13027143Y-9720714D01*
X13027143Y-9825476D01*
X13027143Y-9720714D02*
X13036667Y-9701667D01*
X13055714Y-9692143D01*
X13084286Y-9692143D01*
X13103333Y-9701667D01*
X13112857Y-9720714D01*
X13112857Y-9825476D01*
X13503333Y-9615952D02*
X13331905Y-9873095D01*
X13760476Y-9625476D02*
X13779524Y-9625476D01*
X13798571Y-9635000D01*
X13808095Y-9644524D01*
X13817619Y-9663571D01*
X13827143Y-9701667D01*
X13827143Y-9749286D01*
X13817619Y-9787381D01*
X13808095Y-9806429D01*
X13798571Y-9815952D01*
X13779524Y-9825476D01*
X13760476Y-9825476D01*
X13741428Y-9815952D01*
X13731905Y-9806429D01*
X13722381Y-9787381D01*
X13712857Y-9749286D01*
X13712857Y-9701667D01*
X13722381Y-9663571D01*
X13731905Y-9644524D01*
X13741428Y-9635000D01*
X13760476Y-9625476D01*
X13912857Y-9806429D02*
X13922381Y-9815952D01*
X13912857Y-9825476D01*
X13903333Y-9815952D01*
X13912857Y-9806429D01*
X13912857Y-9825476D01*
X14046190Y-9625476D02*
X14065238Y-9625476D01*
X14084286Y-9635000D01*
X14093809Y-9644524D01*
X14103333Y-9663571D01*
X14112857Y-9701667D01*
X14112857Y-9749286D01*
X14103333Y-9787381D01*
X14093809Y-9806429D01*
X14084286Y-9815952D01*
X14065238Y-9825476D01*
X14046190Y-9825476D01*
X14027143Y-9815952D01*
X14017619Y-9806429D01*
X14008095Y-9787381D01*
X13998571Y-9749286D01*
X13998571Y-9701667D01*
X14008095Y-9663571D01*
X14017619Y-9644524D01*
X14027143Y-9635000D01*
X14046190Y-9625476D01*
X14189048Y-9644524D02*
X14198571Y-9635000D01*
X14217619Y-9625476D01*
X14265238Y-9625476D01*
X14284286Y-9635000D01*
X14293809Y-9644524D01*
X14303333Y-9663571D01*
X14303333Y-9682619D01*
X14293809Y-9711190D01*
X14179524Y-9825476D01*
X14303333Y-9825476D01*
X14370000Y-9625476D02*
X14503333Y-9625476D01*
X14417619Y-9825476D01*
X14665238Y-9625476D02*
X14627143Y-9625476D01*
X14608095Y-9635000D01*
X14598571Y-9644524D01*
X14579524Y-9673095D01*
X14570000Y-9711190D01*
X14570000Y-9787381D01*
X14579524Y-9806429D01*
X14589048Y-9815952D01*
X14608095Y-9825476D01*
X14646190Y-9825476D01*
X14665238Y-9815952D01*
X14674762Y-9806429D01*
X14684286Y-9787381D01*
X14684286Y-9739762D01*
X14674762Y-9720714D01*
X14665238Y-9711190D01*
X14646190Y-9701667D01*
X14608095Y-9701667D01*
X14589048Y-9711190D01*
X14579524Y-9720714D01*
X14570000Y-9739762D01*
X14760476Y-9625476D02*
X14760476Y-9663571D01*
X14836667Y-9625476D02*
X14836667Y-9663571D01*
X15131905Y-9901667D02*
X15122381Y-9892143D01*
X15103333Y-9863571D01*
X15093809Y-9844524D01*
X15084286Y-9815952D01*
X15074762Y-9768333D01*
X15074762Y-9730238D01*
X15084286Y-9682619D01*
X15093809Y-9654048D01*
X15103333Y-9635000D01*
X15122381Y-9606429D01*
X15131905Y-9596905D01*
X15198571Y-9644524D02*
X15208095Y-9635000D01*
X15227143Y-9625476D01*
X15274762Y-9625476D01*
X15293809Y-9635000D01*
X15303333Y-9644524D01*
X15312857Y-9663571D01*
X15312857Y-9682619D01*
X15303333Y-9711190D01*
X15189048Y-9825476D01*
X15312857Y-9825476D01*
X15550952Y-9825476D02*
X15550952Y-9625476D01*
X15636667Y-9825476D02*
X15636667Y-9720714D01*
X15627143Y-9701667D01*
X15608095Y-9692143D01*
X15579524Y-9692143D01*
X15560476Y-9701667D01*
X15550952Y-9711190D01*
X15760476Y-9825476D02*
X15741428Y-9815952D01*
X15731905Y-9806429D01*
X15722381Y-9787381D01*
X15722381Y-9730238D01*
X15731905Y-9711190D01*
X15741428Y-9701667D01*
X15760476Y-9692143D01*
X15789048Y-9692143D01*
X15808095Y-9701667D01*
X15817619Y-9711190D01*
X15827143Y-9730238D01*
X15827143Y-9787381D01*
X15817619Y-9806429D01*
X15808095Y-9815952D01*
X15789048Y-9825476D01*
X15760476Y-9825476D01*
X15941428Y-9825476D02*
X15922381Y-9815952D01*
X15912857Y-9796905D01*
X15912857Y-9625476D01*
X16093809Y-9815952D02*
X16074762Y-9825476D01*
X16036667Y-9825476D01*
X16017619Y-9815952D01*
X16008095Y-9796905D01*
X16008095Y-9720714D01*
X16017619Y-9701667D01*
X16036667Y-9692143D01*
X16074762Y-9692143D01*
X16093809Y-9701667D01*
X16103333Y-9720714D01*
X16103333Y-9739762D01*
X16008095Y-9758810D01*
X16179524Y-9815952D02*
X16198571Y-9825476D01*
X16236667Y-9825476D01*
X16255714Y-9815952D01*
X16265238Y-9796905D01*
X16265238Y-9787381D01*
X16255714Y-9768333D01*
X16236667Y-9758810D01*
X16208095Y-9758810D01*
X16189048Y-9749286D01*
X16179524Y-9730238D01*
X16179524Y-9720714D01*
X16189048Y-9701667D01*
X16208095Y-9692143D01*
X16236667Y-9692143D01*
X16255714Y-9701667D01*
X16331905Y-9901667D02*
X16341428Y-9892143D01*
X16360476Y-9863571D01*
X16370000Y-9844524D01*
X16379524Y-9815952D01*
X16389048Y-9768333D01*
X16389048Y-9730238D01*
X16379524Y-9682619D01*
X16370000Y-9654048D01*
X16360476Y-9635000D01*
X16341428Y-9606429D01*
X16331905Y-9596905D01*
X16693809Y-9901667D02*
X16684286Y-9892143D01*
X16665238Y-9863571D01*
X16655714Y-9844524D01*
X16646190Y-9815952D01*
X16636667Y-9768333D01*
X16636667Y-9730238D01*
X16646190Y-9682619D01*
X16655714Y-9654048D01*
X16665238Y-9635000D01*
X16684286Y-9606429D01*
X16693809Y-9596905D01*
X16770000Y-9692143D02*
X16770000Y-9825476D01*
X16770000Y-9711190D02*
X16779524Y-9701667D01*
X16798571Y-9692143D01*
X16827143Y-9692143D01*
X16846190Y-9701667D01*
X16855714Y-9720714D01*
X16855714Y-9825476D01*
X16979524Y-9825476D02*
X16960476Y-9815952D01*
X16950952Y-9806429D01*
X16941429Y-9787381D01*
X16941429Y-9730238D01*
X16950952Y-9711190D01*
X16960476Y-9701667D01*
X16979524Y-9692143D01*
X17008095Y-9692143D01*
X17027143Y-9701667D01*
X17036667Y-9711190D01*
X17046190Y-9730238D01*
X17046190Y-9787381D01*
X17036667Y-9806429D01*
X17027143Y-9815952D01*
X17008095Y-9825476D01*
X16979524Y-9825476D01*
X17103333Y-9692143D02*
X17179524Y-9692143D01*
X17131905Y-9625476D02*
X17131905Y-9796905D01*
X17141429Y-9815952D01*
X17160476Y-9825476D01*
X17179524Y-9825476D01*
X17398571Y-9692143D02*
X17398571Y-9892143D01*
X17398571Y-9701667D02*
X17417619Y-9692143D01*
X17455714Y-9692143D01*
X17474762Y-9701667D01*
X17484286Y-9711190D01*
X17493810Y-9730238D01*
X17493810Y-9787381D01*
X17484286Y-9806429D01*
X17474762Y-9815952D01*
X17455714Y-9825476D01*
X17417619Y-9825476D01*
X17398571Y-9815952D01*
X17608095Y-9825476D02*
X17589048Y-9815952D01*
X17579524Y-9796905D01*
X17579524Y-9625476D01*
X17770000Y-9825476D02*
X17770000Y-9720714D01*
X17760476Y-9701667D01*
X17741429Y-9692143D01*
X17703333Y-9692143D01*
X17684286Y-9701667D01*
X17770000Y-9815952D02*
X17750952Y-9825476D01*
X17703333Y-9825476D01*
X17684286Y-9815952D01*
X17674762Y-9796905D01*
X17674762Y-9777857D01*
X17684286Y-9758810D01*
X17703333Y-9749286D01*
X17750952Y-9749286D01*
X17770000Y-9739762D01*
X17836667Y-9692143D02*
X17912857Y-9692143D01*
X17865238Y-9625476D02*
X17865238Y-9796905D01*
X17874762Y-9815952D01*
X17893810Y-9825476D01*
X17912857Y-9825476D01*
X18055714Y-9815952D02*
X18036667Y-9825476D01*
X17998571Y-9825476D01*
X17979524Y-9815952D01*
X17970000Y-9796905D01*
X17970000Y-9720714D01*
X17979524Y-9701667D01*
X17998571Y-9692143D01*
X18036667Y-9692143D01*
X18055714Y-9701667D01*
X18065238Y-9720714D01*
X18065238Y-9739762D01*
X17970000Y-9758810D01*
X18236667Y-9825476D02*
X18236667Y-9625476D01*
X18236667Y-9815952D02*
X18217619Y-9825476D01*
X18179524Y-9825476D01*
X18160476Y-9815952D01*
X18150952Y-9806429D01*
X18141429Y-9787381D01*
X18141429Y-9730238D01*
X18150952Y-9711190D01*
X18160476Y-9701667D01*
X18179524Y-9692143D01*
X18217619Y-9692143D01*
X18236667Y-9701667D01*
X18312857Y-9901667D02*
X18322381Y-9892143D01*
X18341429Y-9863571D01*
X18350952Y-9844524D01*
X18360476Y-9815952D01*
X18370000Y-9768333D01*
X18370000Y-9730238D01*
X18360476Y-9682619D01*
X18350952Y-9654048D01*
X18341429Y-9635000D01*
X18322381Y-9606429D01*
X18312857Y-9596905D01*
D13*
X11560000Y-9999000D02*
G75*
G03*
X11560000Y-9999000I-40000J0D01*
G01*
D11*
X11855714Y-9889476D02*
X11874762Y-9889476D01*
X11893809Y-9899000D01*
X11903333Y-9908524D01*
X11912857Y-9927571D01*
X11922381Y-9965667D01*
X11922381Y-10013286D01*
X11912857Y-10051381D01*
X11903333Y-10070429D01*
X11893809Y-10079952D01*
X11874762Y-10089476D01*
X11855714Y-10089476D01*
X11836667Y-10079952D01*
X11827143Y-10070429D01*
X11817619Y-10051381D01*
X11808095Y-10013286D01*
X11808095Y-9965667D01*
X11817619Y-9927571D01*
X11827143Y-9908524D01*
X11836667Y-9899000D01*
X11855714Y-9889476D01*
X12008095Y-10070429D02*
X12017619Y-10079952D01*
X12008095Y-10089476D01*
X11998571Y-10079952D01*
X12008095Y-10070429D01*
X12008095Y-10089476D01*
X12131905Y-9975190D02*
X12112857Y-9965667D01*
X12103333Y-9956143D01*
X12093809Y-9937095D01*
X12093809Y-9927571D01*
X12103333Y-9908524D01*
X12112857Y-9899000D01*
X12131905Y-9889476D01*
X12170000Y-9889476D01*
X12189048Y-9899000D01*
X12198571Y-9908524D01*
X12208095Y-9927571D01*
X12208095Y-9937095D01*
X12198571Y-9956143D01*
X12189048Y-9965667D01*
X12170000Y-9975190D01*
X12131905Y-9975190D01*
X12112857Y-9984714D01*
X12103333Y-9994238D01*
X12093809Y-10013286D01*
X12093809Y-10051381D01*
X12103333Y-10070429D01*
X12112857Y-10079952D01*
X12131905Y-10089476D01*
X12170000Y-10089476D01*
X12189048Y-10079952D01*
X12198571Y-10070429D01*
X12208095Y-10051381D01*
X12208095Y-10013286D01*
X12198571Y-9994238D01*
X12189048Y-9984714D01*
X12170000Y-9975190D01*
X12331905Y-9889476D02*
X12350952Y-9889476D01*
X12370000Y-9899000D01*
X12379524Y-9908524D01*
X12389048Y-9927571D01*
X12398571Y-9965667D01*
X12398571Y-10013286D01*
X12389048Y-10051381D01*
X12379524Y-10070429D01*
X12370000Y-10079952D01*
X12350952Y-10089476D01*
X12331905Y-10089476D01*
X12312857Y-10079952D01*
X12303333Y-10070429D01*
X12293809Y-10051381D01*
X12284286Y-10013286D01*
X12284286Y-9965667D01*
X12293809Y-9927571D01*
X12303333Y-9908524D01*
X12312857Y-9899000D01*
X12331905Y-9889476D01*
X12522381Y-9889476D02*
X12541428Y-9889476D01*
X12560476Y-9899000D01*
X12570000Y-9908524D01*
X12579524Y-9927571D01*
X12589048Y-9965667D01*
X12589048Y-10013286D01*
X12579524Y-10051381D01*
X12570000Y-10070429D01*
X12560476Y-10079952D01*
X12541428Y-10089476D01*
X12522381Y-10089476D01*
X12503333Y-10079952D01*
X12493809Y-10070429D01*
X12484286Y-10051381D01*
X12474762Y-10013286D01*
X12474762Y-9965667D01*
X12484286Y-9927571D01*
X12493809Y-9908524D01*
X12503333Y-9899000D01*
X12522381Y-9889476D01*
X12674762Y-10089476D02*
X12674762Y-9956143D01*
X12674762Y-9975190D02*
X12684286Y-9965667D01*
X12703333Y-9956143D01*
X12731905Y-9956143D01*
X12750952Y-9965667D01*
X12760476Y-9984714D01*
X12760476Y-10089476D01*
X12760476Y-9984714D02*
X12770000Y-9965667D01*
X12789048Y-9956143D01*
X12817619Y-9956143D01*
X12836667Y-9965667D01*
X12846190Y-9984714D01*
X12846190Y-10089476D01*
X12941428Y-10089476D02*
X12941428Y-9956143D01*
X12941428Y-9975190D02*
X12950952Y-9965667D01*
X12970000Y-9956143D01*
X12998571Y-9956143D01*
X13017619Y-9965667D01*
X13027143Y-9984714D01*
X13027143Y-10089476D01*
X13027143Y-9984714D02*
X13036667Y-9965667D01*
X13055714Y-9956143D01*
X13084286Y-9956143D01*
X13103333Y-9965667D01*
X13112857Y-9984714D01*
X13112857Y-10089476D01*
X13503333Y-9879952D02*
X13331905Y-10137095D01*
X13760476Y-9889476D02*
X13779524Y-9889476D01*
X13798571Y-9899000D01*
X13808095Y-9908524D01*
X13817619Y-9927571D01*
X13827143Y-9965667D01*
X13827143Y-10013286D01*
X13817619Y-10051381D01*
X13808095Y-10070429D01*
X13798571Y-10079952D01*
X13779524Y-10089476D01*
X13760476Y-10089476D01*
X13741428Y-10079952D01*
X13731905Y-10070429D01*
X13722381Y-10051381D01*
X13712857Y-10013286D01*
X13712857Y-9965667D01*
X13722381Y-9927571D01*
X13731905Y-9908524D01*
X13741428Y-9899000D01*
X13760476Y-9889476D01*
X13912857Y-10070429D02*
X13922381Y-10079952D01*
X13912857Y-10089476D01*
X13903333Y-10079952D01*
X13912857Y-10070429D01*
X13912857Y-10089476D01*
X14046190Y-9889476D02*
X14065238Y-9889476D01*
X14084286Y-9899000D01*
X14093809Y-9908524D01*
X14103333Y-9927571D01*
X14112857Y-9965667D01*
X14112857Y-10013286D01*
X14103333Y-10051381D01*
X14093809Y-10070429D01*
X14084286Y-10079952D01*
X14065238Y-10089476D01*
X14046190Y-10089476D01*
X14027143Y-10079952D01*
X14017619Y-10070429D01*
X14008095Y-10051381D01*
X13998571Y-10013286D01*
X13998571Y-9965667D01*
X14008095Y-9927571D01*
X14017619Y-9908524D01*
X14027143Y-9899000D01*
X14046190Y-9889476D01*
X14179524Y-9889476D02*
X14303333Y-9889476D01*
X14236667Y-9965667D01*
X14265238Y-9965667D01*
X14284286Y-9975190D01*
X14293809Y-9984714D01*
X14303333Y-10003762D01*
X14303333Y-10051381D01*
X14293809Y-10070429D01*
X14284286Y-10079952D01*
X14265238Y-10089476D01*
X14208095Y-10089476D01*
X14189048Y-10079952D01*
X14179524Y-10070429D01*
X14493809Y-10089476D02*
X14379524Y-10089476D01*
X14436667Y-10089476D02*
X14436667Y-9889476D01*
X14417619Y-9918048D01*
X14398571Y-9937095D01*
X14379524Y-9946619D01*
X14674762Y-9889476D02*
X14579524Y-9889476D01*
X14570000Y-9984714D01*
X14579524Y-9975190D01*
X14598571Y-9965667D01*
X14646190Y-9965667D01*
X14665238Y-9975190D01*
X14674762Y-9984714D01*
X14684286Y-10003762D01*
X14684286Y-10051381D01*
X14674762Y-10070429D01*
X14665238Y-10079952D01*
X14646190Y-10089476D01*
X14598571Y-10089476D01*
X14579524Y-10079952D01*
X14570000Y-10070429D01*
X14760476Y-9889476D02*
X14760476Y-9927571D01*
X14836667Y-9889476D02*
X14836667Y-9927571D01*
X15131905Y-10165667D02*
X15122381Y-10156143D01*
X15103333Y-10127571D01*
X15093809Y-10108524D01*
X15084286Y-10079952D01*
X15074762Y-10032333D01*
X15074762Y-9994238D01*
X15084286Y-9946619D01*
X15093809Y-9918048D01*
X15103333Y-9899000D01*
X15122381Y-9870429D01*
X15131905Y-9860905D01*
X15312857Y-10089476D02*
X15198571Y-10089476D01*
X15255714Y-10089476D02*
X15255714Y-9889476D01*
X15236667Y-9918048D01*
X15217619Y-9937095D01*
X15198571Y-9946619D01*
X15550952Y-10089476D02*
X15550952Y-9889476D01*
X15636667Y-10089476D02*
X15636667Y-9984714D01*
X15627143Y-9965667D01*
X15608095Y-9956143D01*
X15579524Y-9956143D01*
X15560476Y-9965667D01*
X15550952Y-9975190D01*
X15760476Y-10089476D02*
X15741428Y-10079952D01*
X15731905Y-10070429D01*
X15722381Y-10051381D01*
X15722381Y-9994238D01*
X15731905Y-9975190D01*
X15741428Y-9965667D01*
X15760476Y-9956143D01*
X15789048Y-9956143D01*
X15808095Y-9965667D01*
X15817619Y-9975190D01*
X15827143Y-9994238D01*
X15827143Y-10051381D01*
X15817619Y-10070429D01*
X15808095Y-10079952D01*
X15789048Y-10089476D01*
X15760476Y-10089476D01*
X15941428Y-10089476D02*
X15922381Y-10079952D01*
X15912857Y-10060905D01*
X15912857Y-9889476D01*
X16093809Y-10079952D02*
X16074762Y-10089476D01*
X16036667Y-10089476D01*
X16017619Y-10079952D01*
X16008095Y-10060905D01*
X16008095Y-9984714D01*
X16017619Y-9965667D01*
X16036667Y-9956143D01*
X16074762Y-9956143D01*
X16093809Y-9965667D01*
X16103333Y-9984714D01*
X16103333Y-10003762D01*
X16008095Y-10022810D01*
X16170000Y-10165667D02*
X16179524Y-10156143D01*
X16198571Y-10127571D01*
X16208095Y-10108524D01*
X16217619Y-10079952D01*
X16227143Y-10032333D01*
X16227143Y-9994238D01*
X16217619Y-9946619D01*
X16208095Y-9918048D01*
X16198571Y-9899000D01*
X16179524Y-9870429D01*
X16170000Y-9860905D01*
X16531905Y-10165667D02*
X16522381Y-10156143D01*
X16503333Y-10127571D01*
X16493809Y-10108524D01*
X16484286Y-10079952D01*
X16474762Y-10032333D01*
X16474762Y-9994238D01*
X16484286Y-9946619D01*
X16493809Y-9918048D01*
X16503333Y-9899000D01*
X16522381Y-9870429D01*
X16531905Y-9860905D01*
X16608095Y-9956143D02*
X16608095Y-10089476D01*
X16608095Y-9975190D02*
X16617619Y-9965667D01*
X16636667Y-9956143D01*
X16665238Y-9956143D01*
X16684286Y-9965667D01*
X16693809Y-9984714D01*
X16693809Y-10089476D01*
X16817619Y-10089476D02*
X16798571Y-10079952D01*
X16789048Y-10070429D01*
X16779524Y-10051381D01*
X16779524Y-9994238D01*
X16789048Y-9975190D01*
X16798571Y-9965667D01*
X16817619Y-9956143D01*
X16846190Y-9956143D01*
X16865238Y-9965667D01*
X16874762Y-9975190D01*
X16884286Y-9994238D01*
X16884286Y-10051381D01*
X16874762Y-10070429D01*
X16865238Y-10079952D01*
X16846190Y-10089476D01*
X16817619Y-10089476D01*
X16941429Y-9956143D02*
X17017619Y-9956143D01*
X16970000Y-9889476D02*
X16970000Y-10060905D01*
X16979524Y-10079952D01*
X16998571Y-10089476D01*
X17017619Y-10089476D01*
X17236667Y-9956143D02*
X17236667Y-10156143D01*
X17236667Y-9965667D02*
X17255714Y-9956143D01*
X17293810Y-9956143D01*
X17312857Y-9965667D01*
X17322381Y-9975190D01*
X17331905Y-9994238D01*
X17331905Y-10051381D01*
X17322381Y-10070429D01*
X17312857Y-10079952D01*
X17293810Y-10089476D01*
X17255714Y-10089476D01*
X17236667Y-10079952D01*
X17446190Y-10089476D02*
X17427143Y-10079952D01*
X17417619Y-10060905D01*
X17417619Y-9889476D01*
X17608095Y-10089476D02*
X17608095Y-9984714D01*
X17598571Y-9965667D01*
X17579524Y-9956143D01*
X17541429Y-9956143D01*
X17522381Y-9965667D01*
X17608095Y-10079952D02*
X17589048Y-10089476D01*
X17541429Y-10089476D01*
X17522381Y-10079952D01*
X17512857Y-10060905D01*
X17512857Y-10041857D01*
X17522381Y-10022810D01*
X17541429Y-10013286D01*
X17589048Y-10013286D01*
X17608095Y-10003762D01*
X17674762Y-9956143D02*
X17750952Y-9956143D01*
X17703333Y-9889476D02*
X17703333Y-10060905D01*
X17712857Y-10079952D01*
X17731905Y-10089476D01*
X17750952Y-10089476D01*
X17893810Y-10079952D02*
X17874762Y-10089476D01*
X17836667Y-10089476D01*
X17817619Y-10079952D01*
X17808095Y-10060905D01*
X17808095Y-9984714D01*
X17817619Y-9965667D01*
X17836667Y-9956143D01*
X17874762Y-9956143D01*
X17893810Y-9965667D01*
X17903333Y-9984714D01*
X17903333Y-10003762D01*
X17808095Y-10022810D01*
X18074762Y-10089476D02*
X18074762Y-9889476D01*
X18074762Y-10079952D02*
X18055714Y-10089476D01*
X18017619Y-10089476D01*
X17998571Y-10079952D01*
X17989048Y-10070429D01*
X17979524Y-10051381D01*
X17979524Y-9994238D01*
X17989048Y-9975190D01*
X17998571Y-9965667D01*
X18017619Y-9956143D01*
X18055714Y-9956143D01*
X18074762Y-9965667D01*
X18150952Y-10165667D02*
X18160476Y-10156143D01*
X18179524Y-10127571D01*
X18189048Y-10108524D01*
X18198571Y-10079952D01*
X18208095Y-10032333D01*
X18208095Y-9994238D01*
X18198571Y-9946619D01*
X18189048Y-9918048D01*
X18179524Y-9899000D01*
X18160476Y-9870429D01*
X18150952Y-9860905D01*
M02*
